<?xml version="1.0" encoding="UTF-8" standalone="no"?>
<!DOCTYPE svg PUBLIC "-//W3C//DTD SVG 1.1//EN"
 "http://www.w3.org/Graphics/SVG/1.1/DTD/svg11.dtd">
<!-- Generated by graphviz version 2.47.0 (20210316.0004)
 -->
<!-- Title: dependencies Pages: 1 -->
<svg width="1805pt" height="284pt"
 viewBox="0.00 0.00 1805.00 284.00" xmlns="http://www.w3.org/2000/svg" xmlns:xlink="http://www.w3.org/1999/xlink">
<g id="graph0" class="graph" transform="scale(1 1) rotate(0) translate(4 280)">
<title>dependencies</title>
<polygon fill="white" stroke="transparent" points="-4,4 -4,-280 1801,-280 1801,4 -4,4"/>
<text text-anchor="start" x="877.51" y="-42.4" font-family="Times-12" font-weight="bold" font-size="14.00">Legend</text>
<polygon fill="#ffffb3" stroke="transparent" points="664.5,-10 664.5,-30 684.5,-30 684.5,-10 664.5,-10"/>
<text text-anchor="start" x="688.13" y="-15.4" font-family="Times-12" font-size="14.00"> &#160;Declarations</text>
<polygon fill="#8dd3c7" stroke="transparent" points="777.5,-10 777.5,-30 797.5,-30 797.5,-10 777.5,-10"/>
<text text-anchor="start" x="801.23" y="-15.4" font-family="Times-12" font-size="14.00"> &#160;Module</text>
<polygon fill="#80b1d3" stroke="transparent" points="863.5,-10 863.5,-30 883.5,-30 883.5,-10 863.5,-10"/>
<text text-anchor="start" x="887.28" y="-15.4" font-family="Times-12" font-size="14.00"> &#160;Bootstrap</text>
<polygon fill="#fdb462" stroke="transparent" points="960.5,-10 960.5,-30 980.5,-30 980.5,-10 960.5,-10"/>
<text text-anchor="start" x="984.17" y="-15.4" font-family="Times-12" font-size="14.00"> &#160;Providers</text>
<polygon fill="#fb8072" stroke="transparent" points="1056.5,-10 1056.5,-30 1076.5,-30 1076.5,-10 1056.5,-10"/>
<text text-anchor="start" x="1080.23" y="-15.4" font-family="Times-12" font-size="14.00"> &#160;Exports</text>
<g id="clust1" class="cluster">
<title>cluster_SpeedRouletteModule</title>
<polygon fill="none" stroke="black" stroke-dasharray="1,5" points="8,-70 8,-268 1789,-268 1789,-70 8,-70"/>
</g>
<g id="clust4" class="cluster">
<title>cluster_SpeedRouletteModule_exports</title>
<polygon fill="none" stroke="black" points="1037,-208 1037,-260 1197,-260 1197,-208 1037,-208"/>
</g>
<g id="clust3" class="cluster">
<title>cluster_SpeedRouletteModule_imports</title>
<polygon fill="none" stroke="black" points="1256,-78 1256,-130 1781,-130 1781,-78 1256,-78"/>
</g>
<g id="clust6" class="cluster">
<title>cluster_SpeedRouletteModule_providers</title>
<polygon fill="none" stroke="black" points="16,-78 16,-130 1248,-130 1248,-78 16,-78"/>
</g>
<!-- BetModule -->
<g id="node1" class="node">
<title>BetModule</title>
<polygon fill="#8dd3c7" stroke="black" points="1773.49,-122 1770.49,-126 1749.49,-126 1746.49,-122 1694.51,-122 1694.51,-86 1773.49,-86 1773.49,-122"/>
<text text-anchor="middle" x="1734" y="-99.8" font-family="Times,serif" font-size="14.00">BetModule</text>
</g>
<!-- SpeedRouletteModule -->
<g id="node5" class="node">
<title>SpeedRouletteModule</title>
<polygon fill="#8dd3c7" stroke="black" points="1187.7,-187 1184.7,-191 1163.7,-191 1160.7,-187 1046.3,-187 1046.3,-151 1187.7,-151 1187.7,-187"/>
<text text-anchor="middle" x="1117" y="-164.8" font-family="Times,serif" font-size="14.00">SpeedRouletteModule</text>
</g>
<!-- BetModule&#45;&gt;SpeedRouletteModule -->
<g id="edge1" class="edge">
<title>BetModule&#45;&gt;SpeedRouletteModule</title>
<path fill="none" stroke="black" d="M1734,-122.01C1734,-144.49 1734,-180 1734,-180 1734,-180 1197.78,-180 1197.78,-180"/>
<polygon fill="black" stroke="black" points="1197.78,-176.5 1187.78,-180 1197.78,-183.5 1197.78,-176.5"/>
</g>
<!-- GatewayRouletteModule -->
<g id="node2" class="node">
<title>GatewayRouletteModule</title>
<polygon fill="#8dd3c7" stroke="black" points="1676.24,-122 1673.24,-126 1652.24,-126 1649.24,-122 1519.76,-122 1519.76,-86 1676.24,-86 1676.24,-122"/>
<text text-anchor="middle" x="1598" y="-99.8" font-family="Times,serif" font-size="14.00">GatewayRouletteModule</text>
</g>
<!-- GatewayRouletteModule&#45;&gt;SpeedRouletteModule -->
<g id="edge2" class="edge">
<title>GatewayRouletteModule&#45;&gt;SpeedRouletteModule</title>
<path fill="none" stroke="black" d="M1598,-122.13C1598,-142.57 1598,-173 1598,-173 1598,-173 1197.71,-173 1197.71,-173"/>
<polygon fill="black" stroke="black" points="1197.71,-169.5 1187.71,-173 1197.71,-176.5 1197.71,-169.5"/>
</g>
<!-- HouseGamesModule -->
<g id="node3" class="node">
<title>HouseGamesModule</title>
<polygon fill="#8dd3c7" stroke="black" points="1502.19,-122 1499.19,-126 1478.19,-126 1475.19,-122 1367.81,-122 1367.81,-86 1502.19,-86 1502.19,-122"/>
<text text-anchor="middle" x="1435" y="-99.8" font-family="Times,serif" font-size="14.00">HouseGamesModule</text>
</g>
<!-- HouseGamesModule&#45;&gt;SpeedRouletteModule -->
<g id="edge3" class="edge">
<title>HouseGamesModule&#45;&gt;SpeedRouletteModule</title>
<path fill="none" stroke="black" d="M1435,-122.27C1435,-140.56 1435,-166 1435,-166 1435,-166 1197.97,-166 1197.97,-166"/>
<polygon fill="black" stroke="black" points="1197.97,-162.5 1187.97,-166 1197.97,-169.5 1197.97,-162.5"/>
</g>
<!-- UserModule -->
<g id="node4" class="node">
<title>UserModule</title>
<polygon fill="#8dd3c7" stroke="black" points="1349.98,-122 1346.98,-126 1325.98,-126 1322.98,-122 1264.02,-122 1264.02,-86 1349.98,-86 1349.98,-122"/>
<text text-anchor="middle" x="1307" y="-99.8" font-family="Times,serif" font-size="14.00">UserModule</text>
</g>
<!-- UserModule&#45;&gt;SpeedRouletteModule -->
<g id="edge4" class="edge">
<title>UserModule&#45;&gt;SpeedRouletteModule</title>
<path fill="none" stroke="black" d="M1307,-122.01C1307,-138.05 1307,-159 1307,-159 1307,-159 1197.75,-159 1197.75,-159"/>
<polygon fill="black" stroke="black" points="1197.75,-155.5 1187.75,-159 1197.75,-162.5 1197.75,-155.5"/>
</g>
<!-- SpeedRouletteService  -->
<g id="node6" class="node">
<title>SpeedRouletteService </title>
<polygon fill="#fb8072" stroke="black" points="1188.63,-252 1045.37,-252 1045.37,-216 1188.63,-216 1188.63,-252"/>
<text text-anchor="middle" x="1117" y="-229.8" font-family="Times,serif" font-size="14.00">SpeedRouletteService </text>
</g>
<!-- SpeedRouletteModule&#45;&gt;SpeedRouletteService  -->
<g id="edge5" class="edge">
<title>SpeedRouletteModule&#45;&gt;SpeedRouletteService </title>
<path fill="none" stroke="black" stroke-dasharray="5,2" d="M1117,-187.11C1117,-187.11 1117,-205.99 1117,-205.99"/>
<polygon fill="black" stroke="black" points="1113.5,-205.99 1117,-215.99 1120.5,-205.99 1113.5,-205.99"/>
</g>
<!-- SpeedRouletteConfigService -->
<g id="node7" class="node">
<title>SpeedRouletteConfigService</title>
<ellipse fill="#fdb462" stroke="black" cx="1117" cy="-104" rx="123.27" ry="18"/>
<text text-anchor="middle" x="1117" y="-99.8" font-family="Times,serif" font-size="14.00">SpeedRouletteConfigService</text>
</g>
<!-- SpeedRouletteConfigService&#45;&gt;SpeedRouletteModule -->
<g id="edge6" class="edge">
<title>SpeedRouletteConfigService&#45;&gt;SpeedRouletteModule</title>
<path fill="none" stroke="black" d="M1117,-122.11C1117,-122.11 1117,-140.99 1117,-140.99"/>
<polygon fill="black" stroke="black" points="1113.5,-140.99 1117,-150.99 1120.5,-140.99 1113.5,-140.99"/>
</g>
<!-- SpeedRouletteNotifierService -->
<g id="node8" class="node">
<title>SpeedRouletteNotifierService</title>
<ellipse fill="#fdb462" stroke="black" cx="849" cy="-104" rx="126.76" ry="18"/>
<text text-anchor="middle" x="849" y="-99.8" font-family="Times,serif" font-size="14.00">SpeedRouletteNotifierService</text>
</g>
<!-- SpeedRouletteNotifierService&#45;&gt;SpeedRouletteModule -->
<g id="edge7" class="edge">
<title>SpeedRouletteNotifierService&#45;&gt;SpeedRouletteModule</title>
<path fill="none" stroke="black" d="M849,-122.01C849,-138.05 849,-159 849,-159 849,-159 1036.24,-159 1036.24,-159"/>
<polygon fill="black" stroke="black" points="1036.24,-162.5 1046.24,-159 1036.24,-155.5 1036.24,-162.5"/>
</g>
<!-- SpeedRouletteRepository -->
<g id="node9" class="node">
<title>SpeedRouletteRepository</title>
<ellipse fill="#fdb462" stroke="black" cx="594" cy="-104" rx="109.97" ry="18"/>
<text text-anchor="middle" x="594" y="-99.8" font-family="Times,serif" font-size="14.00">SpeedRouletteRepository</text>
</g>
<!-- SpeedRouletteRepository&#45;&gt;SpeedRouletteModule -->
<g id="edge8" class="edge">
<title>SpeedRouletteRepository&#45;&gt;SpeedRouletteModule</title>
<path fill="none" stroke="black" d="M594,-122.27C594,-140.56 594,-166 594,-166 594,-166 1036.19,-166 1036.19,-166"/>
<polygon fill="black" stroke="black" points="1036.19,-169.5 1046.19,-166 1036.19,-162.5 1036.19,-169.5"/>
</g>
<!-- SpeedRouletteService -->
<g id="node10" class="node">
<title>SpeedRouletteService</title>
<ellipse fill="#fdb462" stroke="black" cx="370" cy="-104" rx="96.12" ry="18"/>
<text text-anchor="middle" x="370" y="-99.8" font-family="Times,serif" font-size="14.00">SpeedRouletteService</text>
</g>
<!-- SpeedRouletteService&#45;&gt;SpeedRouletteModule -->
<g id="edge9" class="edge">
<title>SpeedRouletteService&#45;&gt;SpeedRouletteModule</title>
<path fill="none" stroke="black" d="M370,-122.13C370,-142.57 370,-173 370,-173 370,-173 1036.39,-173 1036.39,-173"/>
<polygon fill="black" stroke="black" points="1036.39,-176.5 1046.39,-173 1036.39,-169.5 1036.39,-176.5"/>
</g>
<!-- SpeedRouletteStateService -->
<g id="node11" class="node">
<title>SpeedRouletteStateService</title>
<ellipse fill="#fdb462" stroke="black" cx="140" cy="-104" rx="115.74" ry="18"/>
<text text-anchor="middle" x="140" y="-99.8" font-family="Times,serif" font-size="14.00">SpeedRouletteStateService</text>
</g>
<!-- SpeedRouletteStateService&#45;&gt;SpeedRouletteModule -->
<g id="edge10" class="edge">
<title>SpeedRouletteStateService&#45;&gt;SpeedRouletteModule</title>
<path fill="none" stroke="black" d="M140,-122.01C140,-144.49 140,-180 140,-180 140,-180 1036.34,-180 1036.34,-180"/>
<polygon fill="black" stroke="black" points="1036.34,-183.5 1046.34,-180 1036.34,-176.5 1036.34,-183.5"/>
</g>
</g>
</svg>
