<?xml version="1.0" encoding="UTF-8" standalone="no"?>
<!DOCTYPE svg PUBLIC "-//W3C//DTD SVG 1.1//EN"
 "http://www.w3.org/Graphics/SVG/1.1/DTD/svg11.dtd">
<!-- Generated by graphviz version 2.47.0 (20210316.0004)
 -->
<!-- Title: dependencies Pages: 1 -->
<svg width="2766pt" height="284pt"
 viewBox="0.00 0.00 2766.00 284.00" xmlns="http://www.w3.org/2000/svg" xmlns:xlink="http://www.w3.org/1999/xlink">
<g id="graph0" class="graph" transform="scale(1 1) rotate(0) translate(4 280)">
<title>dependencies</title>
<polygon fill="white" stroke="transparent" points="-4,4 -4,-280 2762,-280 2762,4 -4,4"/>
<text text-anchor="start" x="1358.01" y="-42.4" font-family="Times-12" font-weight="bold" font-size="14.00">Legend</text>
<polygon fill="#ffffb3" stroke="transparent" points="1145,-10 1145,-30 1165,-30 1165,-10 1145,-10"/>
<text text-anchor="start" x="1168.63" y="-15.4" font-family="Times-12" font-size="14.00"> &#160;Declarations</text>
<polygon fill="#8dd3c7" stroke="transparent" points="1258,-10 1258,-30 1278,-30 1278,-10 1258,-10"/>
<text text-anchor="start" x="1281.73" y="-15.4" font-family="Times-12" font-size="14.00"> &#160;Module</text>
<polygon fill="#80b1d3" stroke="transparent" points="1344,-10 1344,-30 1364,-30 1364,-10 1344,-10"/>
<text text-anchor="start" x="1367.78" y="-15.4" font-family="Times-12" font-size="14.00"> &#160;Bootstrap</text>
<polygon fill="#fdb462" stroke="transparent" points="1441,-10 1441,-30 1461,-30 1461,-10 1441,-10"/>
<text text-anchor="start" x="1464.67" y="-15.4" font-family="Times-12" font-size="14.00"> &#160;Providers</text>
<polygon fill="#fb8072" stroke="transparent" points="1537,-10 1537,-30 1557,-30 1557,-10 1537,-10"/>
<text text-anchor="start" x="1560.73" y="-15.4" font-family="Times-12" font-size="14.00"> &#160;Exports</text>
<g id="clust1" class="cluster">
<title>cluster_PromoModule</title>
<polygon fill="none" stroke="black" stroke-dasharray="1,5" points="8,-70 8,-268 2750,-268 2750,-70 8,-70"/>
</g>
<g id="clust6" class="cluster">
<title>cluster_PromoModule_providers</title>
<polygon fill="none" stroke="black" points="753,-78 753,-130 2742,-130 2742,-78 753,-78"/>
</g>
<g id="clust3" class="cluster">
<title>cluster_PromoModule_imports</title>
<polygon fill="none" stroke="black" points="16,-78 16,-130 745,-130 745,-78 16,-78"/>
</g>
<g id="clust4" class="cluster">
<title>cluster_PromoModule_exports</title>
<polygon fill="none" stroke="black" points="979,-208 979,-260 1249,-260 1249,-208 979,-208"/>
</g>
<!-- AccountingModule -->
<g id="node1" class="node">
<title>AccountingModule</title>
<polygon fill="#8dd3c7" stroke="black" points="737.37,-122 734.37,-126 713.37,-126 710.37,-122 612.63,-122 612.63,-86 737.37,-86 737.37,-122"/>
<text text-anchor="middle" x="675" y="-99.8" font-family="Times,serif" font-size="14.00">AccountingModule</text>
</g>
<!-- PromoModule -->
<g id="node7" class="node">
<title>PromoModule</title>
<polygon fill="#8dd3c7" stroke="black" points="1152.38,-187 1149.38,-191 1128.38,-191 1125.38,-187 1055.62,-187 1055.62,-151 1152.38,-151 1152.38,-187"/>
<text text-anchor="middle" x="1104" y="-164.8" font-family="Times,serif" font-size="14.00">PromoModule</text>
</g>
<!-- AccountingModule&#45;&gt;PromoModule -->
<g id="edge1" class="edge">
<title>AccountingModule&#45;&gt;PromoModule</title>
<path fill="none" stroke="black" d="M675,-122.03C675,-138.4 675,-160 675,-160 675,-160 1045.21,-160 1045.21,-160"/>
<polygon fill="black" stroke="black" points="1045.21,-163.5 1055.21,-160 1045.21,-156.5 1045.21,-163.5"/>
</g>
<!-- AffiliateModule -->
<g id="node2" class="node">
<title>AffiliateModule</title>
<polygon fill="#8dd3c7" stroke="black" points="594.47,-122 591.47,-126 570.47,-126 567.47,-122 487.53,-122 487.53,-86 594.47,-86 594.47,-122"/>
<text text-anchor="middle" x="541" y="-99.8" font-family="Times,serif" font-size="14.00">AffiliateModule</text>
</g>
<!-- AffiliateModule&#45;&gt;PromoModule -->
<g id="edge2" class="edge">
<title>AffiliateModule&#45;&gt;PromoModule</title>
<path fill="none" stroke="black" d="M541,-122.3C541,-140.27 541,-165 541,-165 541,-165 1045.51,-165 1045.51,-165"/>
<polygon fill="black" stroke="black" points="1045.51,-168.5 1055.51,-165 1045.51,-161.5 1045.51,-168.5"/>
</g>
<!-- BetModule -->
<g id="node3" class="node">
<title>BetModule</title>
<polygon fill="#8dd3c7" stroke="black" points="469.49,-122 466.49,-126 445.49,-126 442.49,-122 390.51,-122 390.51,-86 469.49,-86 469.49,-122"/>
<text text-anchor="middle" x="430" y="-99.8" font-family="Times,serif" font-size="14.00">BetModule</text>
</g>
<!-- BetModule&#45;&gt;PromoModule -->
<g id="edge3" class="edge">
<title>BetModule&#45;&gt;PromoModule</title>
<path fill="none" stroke="black" d="M430,-122.11C430,-141.34 430,-169 430,-169 430,-169 1045.53,-169 1045.53,-169"/>
<polygon fill="black" stroke="black" points="1045.53,-172.5 1055.53,-169 1045.53,-165.5 1045.53,-172.5"/>
</g>
<!-- HouseGamesModule -->
<g id="node4" class="node">
<title>HouseGamesModule</title>
<polygon fill="#8dd3c7" stroke="black" points="372.19,-122 369.19,-126 348.19,-126 345.19,-122 237.81,-122 237.81,-86 372.19,-86 372.19,-122"/>
<text text-anchor="middle" x="305" y="-99.8" font-family="Times,serif" font-size="14.00">HouseGamesModule</text>
</g>
<!-- HouseGamesModule&#45;&gt;PromoModule -->
<g id="edge4" class="edge">
<title>HouseGamesModule&#45;&gt;PromoModule</title>
<path fill="none" stroke="black" d="M305,-122.03C305,-142.77 305,-174 305,-174 305,-174 1045.52,-174 1045.52,-174"/>
<polygon fill="black" stroke="black" points="1045.52,-177.5 1055.52,-174 1045.52,-170.5 1045.52,-177.5"/>
</g>
<!-- TasksModule -->
<g id="node5" class="node">
<title>TasksModule</title>
<polygon fill="#8dd3c7" stroke="black" points="220.21,-122 217.21,-126 196.21,-126 193.21,-122 127.79,-122 127.79,-86 220.21,-86 220.21,-122"/>
<text text-anchor="middle" x="174" y="-99.8" font-family="Times,serif" font-size="14.00">TasksModule</text>
</g>
<!-- TasksModule&#45;&gt;PromoModule -->
<g id="edge5" class="edge">
<title>TasksModule&#45;&gt;PromoModule</title>
<path fill="none" stroke="black" d="M174,-122.29C174,-144.21 174,-178 174,-178 174,-178 1045.31,-178 1045.31,-178"/>
<polygon fill="black" stroke="black" points="1045.31,-181.5 1055.31,-178 1045.31,-174.5 1045.31,-181.5"/>
</g>
<!-- UserModule -->
<g id="node6" class="node">
<title>UserModule</title>
<polygon fill="#8dd3c7" stroke="black" points="109.98,-122 106.98,-126 85.98,-126 82.98,-122 24.02,-122 24.02,-86 109.98,-86 109.98,-122"/>
<text text-anchor="middle" x="67" y="-99.8" font-family="Times,serif" font-size="14.00">UserModule</text>
</g>
<!-- UserModule&#45;&gt;PromoModule -->
<g id="edge6" class="edge">
<title>UserModule&#45;&gt;PromoModule</title>
<path fill="none" stroke="black" d="M67,-122.32C67,-145.66 67,-183 67,-183 67,-183 1045.37,-183 1045.37,-183"/>
<polygon fill="black" stroke="black" points="1045.37,-186.5 1055.37,-183 1045.37,-179.5 1045.37,-186.5"/>
</g>
<!-- AdminPromoService  -->
<g id="node8" class="node">
<title>AdminPromoService </title>
<polygon fill="#fb8072" stroke="black" points="1240.7,-252 1103.3,-252 1103.3,-216 1240.7,-216 1240.7,-252"/>
<text text-anchor="middle" x="1172" y="-229.8" font-family="Times,serif" font-size="14.00">AdminPromoService </text>
</g>
<!-- PromoModule&#45;&gt;AdminPromoService  -->
<g id="edge7" class="edge">
<title>PromoModule&#45;&gt;AdminPromoService </title>
<path fill="none" stroke="black" stroke-dasharray="5,2" d="M1127.8,-187.11C1127.8,-187.11 1127.8,-205.99 1127.8,-205.99"/>
<polygon fill="black" stroke="black" points="1124.3,-205.99 1127.8,-215.99 1131.3,-205.99 1124.3,-205.99"/>
</g>
<!-- PromoService  -->
<g id="node9" class="node">
<title>PromoService </title>
<polygon fill="#fb8072" stroke="black" points="1085.31,-252 986.69,-252 986.69,-216 1085.31,-216 1085.31,-252"/>
<text text-anchor="middle" x="1036" y="-229.8" font-family="Times,serif" font-size="14.00">PromoService </text>
</g>
<!-- PromoModule&#45;&gt;PromoService  -->
<g id="edge8" class="edge">
<title>PromoModule&#45;&gt;PromoService </title>
<path fill="none" stroke="black" stroke-dasharray="5,2" d="M1070.48,-187.11C1070.48,-187.11 1070.48,-205.99 1070.48,-205.99"/>
<polygon fill="black" stroke="black" points="1066.98,-205.99 1070.48,-215.99 1073.98,-205.99 1066.98,-205.99"/>
</g>
<!-- AdminPromoService -->
<g id="node10" class="node">
<title>AdminPromoService</title>
<ellipse fill="#fdb462" stroke="black" cx="2641" cy="-104" rx="92.64" ry="18"/>
<text text-anchor="middle" x="2641" y="-99.8" font-family="Times,serif" font-size="14.00">AdminPromoService</text>
</g>
<!-- AdminPromoService&#45;&gt;PromoModule -->
<g id="edge9" class="edge">
<title>AdminPromoService&#45;&gt;PromoModule</title>
<path fill="none" stroke="black" d="M2641,-122.32C2641,-145.66 2641,-183 2641,-183 2641,-183 1162.54,-183 1162.54,-183"/>
<polygon fill="black" stroke="black" points="1162.54,-179.5 1152.54,-183 1162.54,-186.5 1162.54,-179.5"/>
</g>
<!-- PromoEffectService -->
<g id="node11" class="node">
<title>PromoEffectService</title>
<ellipse fill="#fdb462" stroke="black" cx="2441" cy="-104" rx="89.16" ry="18"/>
<text text-anchor="middle" x="2441" y="-99.8" font-family="Times,serif" font-size="14.00">PromoEffectService</text>
</g>
<!-- PromoEffectService&#45;&gt;PromoModule -->
<g id="edge10" class="edge">
<title>PromoEffectService&#45;&gt;PromoModule</title>
<path fill="none" stroke="black" d="M2441,-122.29C2441,-144.21 2441,-178 2441,-178 2441,-178 1162.77,-178 1162.77,-178"/>
<polygon fill="black" stroke="black" points="1162.77,-174.5 1152.77,-178 1162.77,-181.5 1162.77,-174.5"/>
</g>
<!-- PromoEventHandlerService -->
<g id="node12" class="node">
<title>PromoEventHandlerService</title>
<ellipse fill="#fdb462" stroke="black" cx="2214" cy="-104" rx="119.24" ry="18"/>
<text text-anchor="middle" x="2214" y="-99.8" font-family="Times,serif" font-size="14.00">PromoEventHandlerService</text>
</g>
<!-- PromoEventHandlerService&#45;&gt;PromoModule -->
<g id="edge11" class="edge">
<title>PromoEventHandlerService&#45;&gt;PromoModule</title>
<path fill="none" stroke="black" d="M2214,-122.03C2214,-142.77 2214,-174 2214,-174 2214,-174 1162.41,-174 1162.41,-174"/>
<polygon fill="black" stroke="black" points="1162.41,-170.5 1152.41,-174 1162.41,-177.5 1162.41,-170.5"/>
</g>
<!-- PromoGameWhitelistRepository -->
<g id="node13" class="node">
<title>PromoGameWhitelistRepository</title>
<ellipse fill="#fdb462" stroke="black" cx="1939" cy="-104" rx="137.76" ry="18"/>
<text text-anchor="middle" x="1939" y="-99.8" font-family="Times,serif" font-size="14.00">PromoGameWhitelistRepository</text>
</g>
<!-- PromoGameWhitelistRepository&#45;&gt;PromoModule -->
<g id="edge12" class="edge">
<title>PromoGameWhitelistRepository&#45;&gt;PromoModule</title>
<path fill="none" stroke="black" d="M1939,-122.11C1939,-141.34 1939,-169 1939,-169 1939,-169 1162.5,-169 1162.5,-169"/>
<polygon fill="black" stroke="black" points="1162.5,-165.5 1152.5,-169 1162.5,-172.5 1162.5,-165.5"/>
</g>
<!-- PromoRepository -->
<g id="node14" class="node">
<title>PromoRepository</title>
<ellipse fill="#fdb462" stroke="black" cx="1704" cy="-104" rx="79.33" ry="18"/>
<text text-anchor="middle" x="1704" y="-99.8" font-family="Times,serif" font-size="14.00">PromoRepository</text>
</g>
<!-- PromoRepository&#45;&gt;PromoModule -->
<g id="edge13" class="edge">
<title>PromoRepository&#45;&gt;PromoModule</title>
<path fill="none" stroke="black" d="M1704,-122.3C1704,-140.27 1704,-165 1704,-165 1704,-165 1162.59,-165 1162.59,-165"/>
<polygon fill="black" stroke="black" points="1162.59,-161.5 1152.59,-165 1162.59,-168.5 1162.59,-161.5"/>
</g>
<!-- PromoService -->
<g id="node15" class="node">
<title>PromoService</title>
<ellipse fill="#fdb462" stroke="black" cx="1541" cy="-104" rx="65.99" ry="18"/>
<text text-anchor="middle" x="1541" y="-99.8" font-family="Times,serif" font-size="14.00">PromoService</text>
</g>
<!-- PromoService&#45;&gt;PromoModule -->
<g id="edge14" class="edge">
<title>PromoService&#45;&gt;PromoModule</title>
<path fill="none" stroke="black" d="M1541,-122.03C1541,-138.4 1541,-160 1541,-160 1541,-160 1162.44,-160 1162.44,-160"/>
<polygon fill="black" stroke="black" points="1162.44,-156.5 1152.44,-160 1162.44,-163.5 1162.44,-156.5"/>
</g>
<!-- PromoValidatorService -->
<g id="node16" class="node">
<title>PromoValidatorService</title>
<ellipse fill="#fdb462" stroke="black" cx="1355" cy="-104" rx="102.42" ry="18"/>
<text text-anchor="middle" x="1355" y="-99.8" font-family="Times,serif" font-size="14.00">PromoValidatorService</text>
</g>
<!-- PromoValidatorService&#45;&gt;PromoModule -->
<g id="edge15" class="edge">
<title>PromoValidatorService&#45;&gt;PromoModule</title>
<path fill="none" stroke="black" d="M1355,-122.19C1355,-137.18 1355,-156 1355,-156 1355,-156 1162.4,-156 1162.4,-156"/>
<polygon fill="black" stroke="black" points="1162.4,-152.5 1152.4,-156 1162.4,-159.5 1162.4,-152.5"/>
</g>
<!-- UserPromoProgressRepository -->
<g id="node17" class="node">
<title>UserPromoProgressRepository</title>
<ellipse fill="#fdb462" stroke="black" cx="1104" cy="-104" rx="130.8" ry="18"/>
<text text-anchor="middle" x="1104" y="-99.8" font-family="Times,serif" font-size="14.00">UserPromoProgressRepository</text>
</g>
<!-- UserPromoProgressRepository&#45;&gt;PromoModule -->
<g id="edge16" class="edge">
<title>UserPromoProgressRepository&#45;&gt;PromoModule</title>
<path fill="none" stroke="black" d="M1104,-122.11C1104,-122.11 1104,-140.99 1104,-140.99"/>
<polygon fill="black" stroke="black" points="1100.5,-140.99 1104,-150.99 1107.5,-140.99 1100.5,-140.99"/>
</g>
<!-- UserPromoRepository -->
<g id="node18" class="node">
<title>UserPromoRepository</title>
<ellipse fill="#fdb462" stroke="black" cx="858" cy="-104" rx="97.29" ry="18"/>
<text text-anchor="middle" x="858" y="-99.8" font-family="Times,serif" font-size="14.00">UserPromoRepository</text>
</g>
<!-- UserPromoRepository&#45;&gt;PromoModule -->
<g id="edge17" class="edge">
<title>UserPromoRepository&#45;&gt;PromoModule</title>
<path fill="none" stroke="black" d="M858,-122.19C858,-137.18 858,-156 858,-156 858,-156 1045.4,-156 1045.4,-156"/>
<polygon fill="black" stroke="black" points="1045.4,-159.5 1055.4,-156 1045.4,-152.5 1045.4,-159.5"/>
</g>
</g>
</svg>
