<?xml version="1.0" encoding="UTF-8" standalone="no"?>
<!DOCTYPE svg PUBLIC "-//W3C//DTD SVG 1.1//EN"
 "http://www.w3.org/Graphics/SVG/1.1/DTD/svg11.dtd">
<!-- Generated by graphviz version 2.47.0 (20210316.0004)
 -->
<!-- Title: dependencies Pages: 1 -->
<svg width="905pt" height="284pt"
 viewBox="0.00 0.00 905.00 284.00" xmlns="http://www.w3.org/2000/svg" xmlns:xlink="http://www.w3.org/1999/xlink">
<g id="graph0" class="graph" transform="scale(1 1) rotate(0) translate(4 280)">
<title>dependencies</title>
<polygon fill="white" stroke="transparent" points="-4,4 -4,-280 901,-280 901,4 -4,4"/>
<text text-anchor="start" x="427.51" y="-42.4" font-family="Times-12" font-weight="bold" font-size="14.00">Legend</text>
<polygon fill="#ffffb3" stroke="transparent" points="214.5,-10 214.5,-30 234.5,-30 234.5,-10 214.5,-10"/>
<text text-anchor="start" x="238.13" y="-15.4" font-family="Times-12" font-size="14.00"> &#160;Declarations</text>
<polygon fill="#8dd3c7" stroke="transparent" points="327.5,-10 327.5,-30 347.5,-30 347.5,-10 327.5,-10"/>
<text text-anchor="start" x="351.23" y="-15.4" font-family="Times-12" font-size="14.00"> &#160;Module</text>
<polygon fill="#80b1d3" stroke="transparent" points="413.5,-10 413.5,-30 433.5,-30 433.5,-10 413.5,-10"/>
<text text-anchor="start" x="437.28" y="-15.4" font-family="Times-12" font-size="14.00"> &#160;Bootstrap</text>
<polygon fill="#fdb462" stroke="transparent" points="510.5,-10 510.5,-30 530.5,-30 530.5,-10 510.5,-10"/>
<text text-anchor="start" x="534.17" y="-15.4" font-family="Times-12" font-size="14.00"> &#160;Providers</text>
<polygon fill="#fb8072" stroke="transparent" points="606.5,-10 606.5,-30 626.5,-30 626.5,-10 606.5,-10"/>
<text text-anchor="start" x="630.23" y="-15.4" font-family="Times-12" font-size="14.00"> &#160;Exports</text>
<g id="clust1" class="cluster">
<title>cluster_Pm8Module</title>
<polygon fill="none" stroke="black" stroke-dasharray="1,5" points="8,-70 8,-268 889,-268 889,-70 8,-70"/>
</g>
<g id="clust3" class="cluster">
<title>cluster_Pm8Module_imports</title>
<polygon fill="none" stroke="black" points="214,-78 214,-130 881,-130 881,-78 214,-78"/>
</g>
<g id="clust6" class="cluster">
<title>cluster_Pm8Module_providers</title>
<polygon fill="none" stroke="black" points="16,-78 16,-130 206,-130 206,-78 16,-78"/>
</g>
<g id="clust4" class="cluster">
<title>cluster_Pm8Module_exports</title>
<polygon fill="none" stroke="black" points="363,-208 363,-260 636,-260 636,-208 363,-208"/>
</g>
<!-- GamesModule -->
<g id="node1" class="node">
<title>GamesModule</title>
<polygon fill="#8dd3c7" stroke="black" points="873.42,-122 870.42,-126 849.42,-126 846.42,-122 774.58,-122 774.58,-86 873.42,-86 873.42,-122"/>
<text text-anchor="middle" x="824" y="-99.8" font-family="Times,serif" font-size="14.00">GamesModule</text>
</g>
<!-- Pm8Module -->
<g id="node6" class="node">
<title>Pm8Module</title>
<polygon fill="#8dd3c7" stroke="black" points="546.72,-187 543.72,-191 522.72,-191 519.72,-187 461.28,-187 461.28,-151 546.72,-151 546.72,-187"/>
<text text-anchor="middle" x="504" y="-164.8" font-family="Times,serif" font-size="14.00">Pm8Module</text>
</g>
<!-- GamesModule&#45;&gt;Pm8Module -->
<g id="edge1" class="edge">
<title>GamesModule&#45;&gt;Pm8Module</title>
<path fill="none" stroke="black" d="M824,-122.28C824,-143.32 824,-175 824,-175 824,-175 556.82,-175 556.82,-175"/>
<polygon fill="black" stroke="black" points="556.82,-171.5 546.82,-175 556.82,-178.5 556.82,-171.5"/>
</g>
<!-- Pm8ApiModule -->
<g id="node2" class="node">
<title>Pm8ApiModule</title>
<polygon fill="#8dd3c7" stroke="black" points="757.22,-122 754.22,-126 733.22,-126 730.22,-122 650.78,-122 650.78,-86 757.22,-86 757.22,-122"/>
<text text-anchor="middle" x="704" y="-99.8" font-family="Times,serif" font-size="14.00">Pm8ApiModule</text>
</g>
<!-- Pm8ApiModule&#45;&gt;Pm8Module -->
<g id="edge2" class="edge">
<title>Pm8ApiModule&#45;&gt;Pm8Module</title>
<path fill="none" stroke="black" d="M704,-122.02C704,-139.37 704,-163 704,-163 704,-163 556.91,-163 556.91,-163"/>
<polygon fill="black" stroke="black" points="556.91,-159.5 546.91,-163 556.9,-166.5 556.91,-159.5"/>
</g>
<!-- Pm8AuthModule -->
<g id="node3" class="node">
<title>Pm8AuthModule</title>
<polygon fill="#8dd3c7" stroke="black" points="632.72,-122 629.72,-126 608.72,-126 605.72,-122 519.28,-122 519.28,-86 632.72,-86 632.72,-122"/>
<text text-anchor="middle" x="576" y="-99.8" font-family="Times,serif" font-size="14.00">Pm8AuthModule</text>
</g>
<!-- Pm8AuthModule&#45;&gt;Pm8Module -->
<g id="edge3" class="edge">
<title>Pm8AuthModule&#45;&gt;Pm8Module</title>
<path fill="none" stroke="black" d="M533,-122.11C533,-122.11 533,-140.99 533,-140.99"/>
<polygon fill="black" stroke="black" points="529.5,-140.99 533,-150.99 536.5,-140.99 529.5,-140.99"/>
</g>
<!-- Pm8SignatureModule -->
<g id="node4" class="node">
<title>Pm8SignatureModule</title>
<polygon fill="#8dd3c7" stroke="black" points="501.38,-122 498.38,-126 477.38,-126 474.38,-122 362.62,-122 362.62,-86 501.38,-86 501.38,-122"/>
<text text-anchor="middle" x="432" y="-99.8" font-family="Times,serif" font-size="14.00">Pm8SignatureModule</text>
</g>
<!-- Pm8SignatureModule&#45;&gt;Pm8Module -->
<g id="edge4" class="edge">
<title>Pm8SignatureModule&#45;&gt;Pm8Module</title>
<path fill="none" stroke="black" d="M481.41,-122.11C481.41,-122.11 481.41,-140.99 481.41,-140.99"/>
<polygon fill="black" stroke="black" points="477.91,-140.99 481.41,-150.99 484.91,-140.99 477.91,-140.99"/>
</g>
<!-- Pm8WalletModule -->
<g id="node5" class="node">
<title>Pm8WalletModule</title>
<polygon fill="#8dd3c7" stroke="black" points="344.04,-122 341.04,-126 320.04,-126 317.04,-122 221.96,-122 221.96,-86 344.04,-86 344.04,-122"/>
<text text-anchor="middle" x="283" y="-99.8" font-family="Times,serif" font-size="14.00">Pm8WalletModule</text>
</g>
<!-- Pm8WalletModule&#45;&gt;Pm8Module -->
<g id="edge5" class="edge">
<title>Pm8WalletModule&#45;&gt;Pm8Module</title>
<path fill="none" stroke="black" d="M283,-122.02C283,-139.37 283,-163 283,-163 283,-163 451.13,-163 451.13,-163"/>
<polygon fill="black" stroke="black" points="451.13,-166.5 461.13,-163 451.13,-159.5 451.13,-166.5"/>
</g>
<!-- Pm8ApiModule  -->
<g id="node7" class="node">
<title>Pm8ApiModule </title>
<polygon fill="#fb8072" stroke="black" points="627.72,-252 518.28,-252 518.28,-216 627.72,-216 627.72,-252"/>
<text text-anchor="middle" x="573" y="-229.8" font-family="Times,serif" font-size="14.00">Pm8ApiModule </text>
</g>
<!-- Pm8Module&#45;&gt;Pm8ApiModule  -->
<g id="edge6" class="edge">
<title>Pm8Module&#45;&gt;Pm8ApiModule </title>
<path fill="none" stroke="black" stroke-dasharray="5,2" d="M532.38,-187.11C532.38,-187.11 532.38,-205.99 532.38,-205.99"/>
<polygon fill="black" stroke="black" points="528.88,-205.99 532.38,-215.99 535.88,-205.99 528.88,-205.99"/>
</g>
<!-- Pm8LaunchService  -->
<g id="node8" class="node">
<title>Pm8LaunchService </title>
<polygon fill="#fb8072" stroke="black" points="500.63,-252 371.37,-252 371.37,-216 500.63,-216 500.63,-252"/>
<text text-anchor="middle" x="436" y="-229.8" font-family="Times,serif" font-size="14.00">Pm8LaunchService </text>
</g>
<!-- Pm8Module&#45;&gt;Pm8LaunchService  -->
<g id="edge7" class="edge">
<title>Pm8Module&#45;&gt;Pm8LaunchService </title>
<path fill="none" stroke="black" stroke-dasharray="5,2" d="M480.98,-187.11C480.98,-187.11 480.98,-205.99 480.98,-205.99"/>
<polygon fill="black" stroke="black" points="477.48,-205.99 480.98,-215.99 484.48,-205.99 477.48,-205.99"/>
</g>
<!-- Pm8LaunchService -->
<g id="node9" class="node">
<title>Pm8LaunchService</title>
<ellipse fill="#fdb462" stroke="black" cx="111" cy="-104" rx="86.82" ry="18"/>
<text text-anchor="middle" x="111" y="-99.8" font-family="Times,serif" font-size="14.00">Pm8LaunchService</text>
</g>
<!-- Pm8LaunchService&#45;&gt;Pm8Module -->
<g id="edge8" class="edge">
<title>Pm8LaunchService&#45;&gt;Pm8Module</title>
<path fill="none" stroke="black" d="M111,-122.28C111,-143.32 111,-175 111,-175 111,-175 451.19,-175 451.19,-175"/>
<polygon fill="black" stroke="black" points="451.19,-178.5 461.19,-175 451.19,-171.5 451.19,-178.5"/>
</g>
</g>
</svg>
