<?xml version="1.0" encoding="UTF-8" standalone="no"?>
<!DOCTYPE svg PUBLIC "-//W3C//DTD SVG 1.1//EN"
 "http://www.w3.org/Graphics/SVG/1.1/DTD/svg11.dtd">
<!-- Generated by graphviz version 2.47.0 (20210316.0004)
 -->
<!-- Title: dependencies Pages: 1 -->
<svg width="588pt" height="211pt"
 viewBox="0.00 0.00 588.00 211.00" xmlns="http://www.w3.org/2000/svg" xmlns:xlink="http://www.w3.org/1999/xlink">
<g id="graph0" class="graph" transform="scale(1 1) rotate(0) translate(4 207)">
<title>dependencies</title>
<polygon fill="white" stroke="transparent" points="-4,4 -4,-207 584,-207 584,4 -4,4"/>
<text text-anchor="start" x="269.01" y="-42.4" font-family="Times-12" font-weight="bold" font-size="14.00">Legend</text>
<polygon fill="#ffffb3" stroke="transparent" points="56,-10 56,-30 76,-30 76,-10 56,-10"/>
<text text-anchor="start" x="79.63" y="-15.4" font-family="Times-12" font-size="14.00"> &#160;Declarations</text>
<polygon fill="#8dd3c7" stroke="transparent" points="169,-10 169,-30 189,-30 189,-10 169,-10"/>
<text text-anchor="start" x="192.73" y="-15.4" font-family="Times-12" font-size="14.00"> &#160;Module</text>
<polygon fill="#80b1d3" stroke="transparent" points="255,-10 255,-30 275,-30 275,-10 255,-10"/>
<text text-anchor="start" x="278.78" y="-15.4" font-family="Times-12" font-size="14.00"> &#160;Bootstrap</text>
<polygon fill="#fdb462" stroke="transparent" points="352,-10 352,-30 372,-30 372,-10 352,-10"/>
<text text-anchor="start" x="375.67" y="-15.4" font-family="Times-12" font-size="14.00"> &#160;Providers</text>
<polygon fill="#fb8072" stroke="transparent" points="448,-10 448,-30 468,-30 468,-10 448,-10"/>
<text text-anchor="start" x="471.73" y="-15.4" font-family="Times-12" font-size="14.00"> &#160;Exports</text>
<g id="clust1" class="cluster">
<title>cluster_JobsModule</title>
<polygon fill="none" stroke="black" stroke-dasharray="1,5" points="8,-70 8,-195 572,-195 572,-70 8,-70"/>
</g>
<g id="clust6" class="cluster">
<title>cluster_JobsModule_providers</title>
<polygon fill="none" stroke="black" points="434,-78 434,-130 564,-130 564,-78 434,-78"/>
</g>
<g id="clust3" class="cluster">
<title>cluster_JobsModule_imports</title>
<polygon fill="none" stroke="black" points="16,-78 16,-130 426,-130 426,-78 16,-78"/>
</g>
<!-- LeaderboardModule -->
<g id="node1" class="node">
<title>LeaderboardModule</title>
<polygon fill="#8dd3c7" stroke="black" points="418.28,-122 415.28,-126 394.28,-126 391.28,-122 287.72,-122 287.72,-86 418.28,-86 418.28,-122"/>
<text text-anchor="middle" x="353" y="-99.8" font-family="Times,serif" font-size="14.00">LeaderboardModule</text>
</g>
<!-- JobsModule -->
<g id="node4" class="node">
<title>JobsModule</title>
<polygon fill="#8dd3c7" stroke="black" points="318.44,-187 315.44,-191 294.44,-191 291.44,-187 233.56,-187 233.56,-151 318.44,-151 318.44,-187"/>
<text text-anchor="middle" x="276" y="-164.8" font-family="Times,serif" font-size="14.00">JobsModule</text>
</g>
<!-- LeaderboardModule&#45;&gt;JobsModule -->
<g id="edge1" class="edge">
<title>LeaderboardModule&#45;&gt;JobsModule</title>
<path fill="none" stroke="black" d="M303.04,-122.11C303.04,-122.11 303.04,-140.99 303.04,-140.99"/>
<polygon fill="black" stroke="black" points="299.54,-140.99 303.04,-150.99 306.54,-140.99 299.54,-140.99"/>
</g>
<!-- SiteConfigApiModule -->
<g id="node2" class="node">
<title>SiteConfigApiModule</title>
<polygon fill="#8dd3c7" stroke="black" points="269.71,-122 266.71,-126 245.71,-126 242.71,-122 128.29,-122 128.29,-86 269.71,-86 269.71,-122"/>
<text text-anchor="middle" x="199" y="-99.8" font-family="Times,serif" font-size="14.00">SiteConfigApiModule</text>
</g>
<!-- SiteConfigApiModule&#45;&gt;JobsModule -->
<g id="edge2" class="edge">
<title>SiteConfigApiModule&#45;&gt;JobsModule</title>
<path fill="none" stroke="black" d="M251.69,-122.11C251.69,-122.11 251.69,-140.99 251.69,-140.99"/>
<polygon fill="black" stroke="black" points="248.19,-140.99 251.69,-150.99 255.19,-140.99 248.19,-140.99"/>
</g>
<!-- UserModule -->
<g id="node3" class="node">
<title>UserModule</title>
<polygon fill="#8dd3c7" stroke="black" points="109.98,-122 106.98,-126 85.98,-126 82.98,-122 24.02,-122 24.02,-86 109.98,-86 109.98,-122"/>
<text text-anchor="middle" x="67" y="-99.8" font-family="Times,serif" font-size="14.00">UserModule</text>
</g>
<!-- UserModule&#45;&gt;JobsModule -->
<g id="edge3" class="edge">
<title>UserModule&#45;&gt;JobsModule</title>
<path fill="none" stroke="black" d="M67,-122.11C67,-141.34 67,-169 67,-169 67,-169 223.71,-169 223.71,-169"/>
<polygon fill="black" stroke="black" points="223.71,-172.5 233.71,-169 223.71,-165.5 223.71,-172.5"/>
</g>
<!-- JobsService -->
<g id="node5" class="node">
<title>JobsService</title>
<ellipse fill="#fdb462" stroke="black" cx="499" cy="-104" rx="57.32" ry="18"/>
<text text-anchor="middle" x="499" y="-99.8" font-family="Times,serif" font-size="14.00">JobsService</text>
</g>
<!-- JobsService&#45;&gt;JobsModule -->
<g id="edge4" class="edge">
<title>JobsService&#45;&gt;JobsModule</title>
<path fill="none" stroke="black" d="M499,-122.11C499,-141.34 499,-169 499,-169 499,-169 328.47,-169 328.47,-169"/>
<polygon fill="black" stroke="black" points="328.47,-165.5 318.47,-169 328.47,-172.5 328.47,-165.5"/>
</g>
</g>
</svg>
