<?xml version="1.0" encoding="UTF-8" standalone="no"?>
<!DOCTYPE svg PUBLIC "-//W3C//DTD SVG 1.1//EN"
 "http://www.w3.org/Graphics/SVG/1.1/DTD/svg11.dtd">
<!-- Generated by graphviz version 2.47.0 (20210316.0004)
 -->
<!-- Title: dependencies Pages: 1 -->
<svg width="1149pt" height="211pt"
 viewBox="0.00 0.00 1149.00 211.00" xmlns="http://www.w3.org/2000/svg" xmlns:xlink="http://www.w3.org/1999/xlink">
<g id="graph0" class="graph" transform="scale(1 1) rotate(0) translate(4 207)">
<title>dependencies</title>
<polygon fill="white" stroke="transparent" points="-4,4 -4,-207 1145,-207 1145,4 -4,4"/>
<text text-anchor="start" x="549.51" y="-42.4" font-family="Times-12" font-weight="bold" font-size="14.00">Legend</text>
<polygon fill="#ffffb3" stroke="transparent" points="336.5,-10 336.5,-30 356.5,-30 356.5,-10 336.5,-10"/>
<text text-anchor="start" x="360.13" y="-15.4" font-family="Times-12" font-size="14.00"> &#160;Declarations</text>
<polygon fill="#8dd3c7" stroke="transparent" points="449.5,-10 449.5,-30 469.5,-30 469.5,-10 449.5,-10"/>
<text text-anchor="start" x="473.23" y="-15.4" font-family="Times-12" font-size="14.00"> &#160;Module</text>
<polygon fill="#80b1d3" stroke="transparent" points="535.5,-10 535.5,-30 555.5,-30 555.5,-10 535.5,-10"/>
<text text-anchor="start" x="559.28" y="-15.4" font-family="Times-12" font-size="14.00"> &#160;Bootstrap</text>
<polygon fill="#fdb462" stroke="transparent" points="632.5,-10 632.5,-30 652.5,-30 652.5,-10 632.5,-10"/>
<text text-anchor="start" x="656.17" y="-15.4" font-family="Times-12" font-size="14.00"> &#160;Providers</text>
<polygon fill="#fb8072" stroke="transparent" points="728.5,-10 728.5,-30 748.5,-30 748.5,-10 728.5,-10"/>
<text text-anchor="start" x="752.23" y="-15.4" font-family="Times-12" font-size="14.00"> &#160;Exports</text>
<g id="clust1" class="cluster">
<title>cluster_SlotGamesModule</title>
<polygon fill="none" stroke="black" stroke-dasharray="1,5" points="8,-70 8,-195 1133,-195 1133,-70 8,-70"/>
</g>
<g id="clust6" class="cluster">
<title>cluster_SlotGamesModule_providers</title>
<polygon fill="none" stroke="black" points="945,-78 945,-130 1125,-130 1125,-78 945,-78"/>
</g>
<g id="clust3" class="cluster">
<title>cluster_SlotGamesModule_imports</title>
<polygon fill="none" stroke="black" points="16,-78 16,-130 937,-130 937,-78 16,-78"/>
</g>
<!-- BetModule -->
<g id="node1" class="node">
<title>BetModule</title>
<polygon fill="#8dd3c7" stroke="black" points="929.49,-122 926.49,-126 905.49,-126 902.49,-122 850.51,-122 850.51,-86 929.49,-86 929.49,-122"/>
<text text-anchor="middle" x="890" y="-99.8" font-family="Times,serif" font-size="14.00">BetModule</text>
</g>
<!-- SlotGamesModule -->
<g id="node9" class="node">
<title>SlotGamesModule</title>
<polygon fill="#8dd3c7" stroke="black" points="570.48,-187 567.48,-191 546.48,-191 543.48,-187 449.52,-187 449.52,-151 570.48,-151 570.48,-187"/>
<text text-anchor="middle" x="510" y="-164.8" font-family="Times,serif" font-size="14.00">SlotGamesModule</text>
</g>
<!-- BetModule&#45;&gt;SlotGamesModule -->
<g id="edge1" class="edge">
<title>BetModule&#45;&gt;SlotGamesModule</title>
<path fill="none" stroke="black" d="M890,-122.13C890,-142.57 890,-173 890,-173 890,-173 580.63,-173 580.63,-173"/>
<polygon fill="black" stroke="black" points="580.63,-169.5 570.63,-173 580.63,-176.5 580.63,-169.5"/>
</g>
<!-- CountryModule -->
<g id="node2" class="node">
<title>CountryModule</title>
<polygon fill="#8dd3c7" stroke="black" points="832.94,-122 829.94,-126 808.94,-126 805.94,-122 727.06,-122 727.06,-86 832.94,-86 832.94,-122"/>
<text text-anchor="middle" x="780" y="-99.8" font-family="Times,serif" font-size="14.00">CountryModule</text>
</g>
<!-- CountryModule&#45;&gt;SlotGamesModule -->
<g id="edge2" class="edge">
<title>CountryModule&#45;&gt;SlotGamesModule</title>
<path fill="none" stroke="black" d="M780,-122.27C780,-140.56 780,-166 780,-166 780,-166 580.59,-166 580.59,-166"/>
<polygon fill="black" stroke="black" points="580.59,-162.5 570.59,-166 580.59,-169.5 580.59,-162.5"/>
</g>
<!-- EnvConfigModule -->
<g id="node3" class="node">
<title>EnvConfigModule</title>
<polygon fill="#8dd3c7" stroke="black" points="709.49,-122 706.49,-126 685.49,-126 682.49,-122 588.51,-122 588.51,-86 709.49,-86 709.49,-122"/>
<text text-anchor="middle" x="649" y="-99.8" font-family="Times,serif" font-size="14.00">EnvConfigModule</text>
</g>
<!-- EnvConfigModule&#45;&gt;SlotGamesModule -->
<g id="edge3" class="edge">
<title>EnvConfigModule&#45;&gt;SlotGamesModule</title>
<path fill="none" stroke="black" d="M649,-122.01C649,-138.05 649,-159 649,-159 649,-159 580.56,-159 580.56,-159"/>
<polygon fill="black" stroke="black" points="580.56,-155.5 570.56,-159 580.56,-162.5 580.56,-155.5"/>
</g>
<!-- EvoGamesModule -->
<g id="node4" class="node">
<title>EvoGamesModule</title>
<polygon fill="#8dd3c7" stroke="black" points="570.47,-122 567.47,-126 546.47,-126 543.47,-122 449.53,-122 449.53,-86 570.47,-86 570.47,-122"/>
<text text-anchor="middle" x="510" y="-99.8" font-family="Times,serif" font-size="14.00">EvoGamesModule</text>
</g>
<!-- EvoGamesModule&#45;&gt;SlotGamesModule -->
<g id="edge4" class="edge">
<title>EvoGamesModule&#45;&gt;SlotGamesModule</title>
<path fill="none" stroke="black" d="M510,-122.11C510,-122.11 510,-140.99 510,-140.99"/>
<polygon fill="black" stroke="black" points="506.5,-140.99 510,-150.99 513.5,-140.99 506.5,-140.99"/>
</g>
<!-- GamesModule -->
<g id="node5" class="node">
<title>GamesModule</title>
<polygon fill="#8dd3c7" stroke="black" points="431.42,-122 428.42,-126 407.42,-126 404.42,-122 332.58,-122 332.58,-86 431.42,-86 431.42,-122"/>
<text text-anchor="middle" x="382" y="-99.8" font-family="Times,serif" font-size="14.00">GamesModule</text>
</g>
<!-- GamesModule&#45;&gt;SlotGamesModule -->
<g id="edge5" class="edge">
<title>GamesModule&#45;&gt;SlotGamesModule</title>
<path fill="none" stroke="black" d="M382,-122.01C382,-138.05 382,-159 382,-159 382,-159 439.37,-159 439.37,-159"/>
<polygon fill="black" stroke="black" points="439.37,-162.5 449.37,-159 439.37,-155.5 439.37,-162.5"/>
</g>
<!-- KycModule -->
<g id="node6" class="node">
<title>KycModule</title>
<polygon fill="#8dd3c7" stroke="black" points="314.37,-122 311.37,-126 290.37,-126 287.37,-122 231.63,-122 231.63,-86 314.37,-86 314.37,-122"/>
<text text-anchor="middle" x="273" y="-99.8" font-family="Times,serif" font-size="14.00">KycModule</text>
</g>
<!-- KycModule&#45;&gt;SlotGamesModule -->
<g id="edge6" class="edge">
<title>KycModule&#45;&gt;SlotGamesModule</title>
<path fill="none" stroke="black" d="M273,-122.27C273,-140.56 273,-166 273,-166 273,-166 439.27,-166 439.27,-166"/>
<polygon fill="black" stroke="black" points="439.27,-169.5 449.27,-166 439.27,-162.5 439.27,-169.5"/>
</g>
<!-- Pm8Module -->
<g id="node7" class="node">
<title>Pm8Module</title>
<polygon fill="#8dd3c7" stroke="black" points="213.72,-122 210.72,-126 189.72,-126 186.72,-122 128.28,-122 128.28,-86 213.72,-86 213.72,-122"/>
<text text-anchor="middle" x="171" y="-99.8" font-family="Times,serif" font-size="14.00">Pm8Module</text>
</g>
<!-- Pm8Module&#45;&gt;SlotGamesModule -->
<g id="edge7" class="edge">
<title>Pm8Module&#45;&gt;SlotGamesModule</title>
<path fill="none" stroke="black" d="M171,-122.13C171,-142.57 171,-173 171,-173 171,-173 439.39,-173 439.39,-173"/>
<polygon fill="black" stroke="black" points="439.39,-176.5 449.39,-173 439.39,-169.5 439.39,-176.5"/>
</g>
<!-- UserModule -->
<g id="node8" class="node">
<title>UserModule</title>
<polygon fill="#8dd3c7" stroke="black" points="109.98,-122 106.98,-126 85.98,-126 82.98,-122 24.02,-122 24.02,-86 109.98,-86 109.98,-122"/>
<text text-anchor="middle" x="67" y="-99.8" font-family="Times,serif" font-size="14.00">UserModule</text>
</g>
<!-- UserModule&#45;&gt;SlotGamesModule -->
<g id="edge8" class="edge">
<title>UserModule&#45;&gt;SlotGamesModule</title>
<path fill="none" stroke="black" d="M67,-122.01C67,-144.49 67,-180 67,-180 67,-180 439.33,-180 439.33,-180"/>
<polygon fill="black" stroke="black" points="439.33,-183.5 449.33,-180 439.33,-176.5 439.33,-183.5"/>
</g>
<!-- SlotGamesService -->
<g id="node10" class="node">
<title>SlotGamesService</title>
<ellipse fill="#fdb462" stroke="black" cx="1035" cy="-104" rx="82.24" ry="18"/>
<text text-anchor="middle" x="1035" y="-99.8" font-family="Times,serif" font-size="14.00">SlotGamesService</text>
</g>
<!-- SlotGamesService&#45;&gt;SlotGamesModule -->
<g id="edge9" class="edge">
<title>SlotGamesService&#45;&gt;SlotGamesModule</title>
<path fill="none" stroke="black" d="M1035,-122.01C1035,-144.49 1035,-180 1035,-180 1035,-180 580.74,-180 580.74,-180"/>
<polygon fill="black" stroke="black" points="580.74,-176.5 570.74,-180 580.74,-183.5 580.74,-176.5"/>
</g>
</g>
</svg>
