<?xml version="1.0" encoding="UTF-8" standalone="no"?>
<!DOCTYPE svg PUBLIC "-//W3C//DTD SVG 1.1//EN"
 "http://www.w3.org/Graphics/SVG/1.1/DTD/svg11.dtd">
<!-- Generated by graphviz version 2.47.0 (20210316.0004)
 -->
<!-- Title: dependencies Pages: 1 -->
<svg width="1552pt" height="284pt"
 viewBox="0.00 0.00 1552.00 284.00" xmlns="http://www.w3.org/2000/svg" xmlns:xlink="http://www.w3.org/1999/xlink">
<g id="graph0" class="graph" transform="scale(1 1) rotate(0) translate(4 280)">
<title>dependencies</title>
<polygon fill="white" stroke="transparent" points="-4,4 -4,-280 1548,-280 1548,4 -4,4"/>
<text text-anchor="start" x="751.01" y="-42.4" font-family="Times-12" font-weight="bold" font-size="14.00">Legend</text>
<polygon fill="#ffffb3" stroke="transparent" points="538,-10 538,-30 558,-30 558,-10 538,-10"/>
<text text-anchor="start" x="561.63" y="-15.4" font-family="Times-12" font-size="14.00"> &#160;Declarations</text>
<polygon fill="#8dd3c7" stroke="transparent" points="651,-10 651,-30 671,-30 671,-10 651,-10"/>
<text text-anchor="start" x="674.73" y="-15.4" font-family="Times-12" font-size="14.00"> &#160;Module</text>
<polygon fill="#80b1d3" stroke="transparent" points="737,-10 737,-30 757,-30 757,-10 737,-10"/>
<text text-anchor="start" x="760.78" y="-15.4" font-family="Times-12" font-size="14.00"> &#160;Bootstrap</text>
<polygon fill="#fdb462" stroke="transparent" points="834,-10 834,-30 854,-30 854,-10 834,-10"/>
<text text-anchor="start" x="857.67" y="-15.4" font-family="Times-12" font-size="14.00"> &#160;Providers</text>
<polygon fill="#fb8072" stroke="transparent" points="930,-10 930,-30 950,-30 950,-10 930,-10"/>
<text text-anchor="start" x="953.73" y="-15.4" font-family="Times-12" font-size="14.00"> &#160;Exports</text>
<g id="clust1" class="cluster">
<title>cluster_FastTrackModule</title>
<polygon fill="none" stroke="black" stroke-dasharray="1,5" points="8,-70 8,-268 1536,-268 1536,-70 8,-70"/>
</g>
<g id="clust6" class="cluster">
<title>cluster_FastTrackModule_providers</title>
<polygon fill="none" stroke="black" points="597,-78 597,-130 1528,-130 1528,-78 597,-78"/>
</g>
<g id="clust4" class="cluster">
<title>cluster_FastTrackModule_exports</title>
<polygon fill="none" stroke="black" points="450,-208 450,-260 794,-260 794,-208 450,-208"/>
</g>
<g id="clust3" class="cluster">
<title>cluster_FastTrackModule_imports</title>
<polygon fill="none" stroke="black" points="16,-78 16,-130 589,-130 589,-78 16,-78"/>
</g>
<!-- AuthModule -->
<g id="node1" class="node">
<title>AuthModule</title>
<polygon fill="#8dd3c7" stroke="black" points="580.55,-122 577.55,-126 556.55,-126 553.55,-122 493.45,-122 493.45,-86 580.55,-86 580.55,-122"/>
<text text-anchor="middle" x="537" y="-99.8" font-family="Times,serif" font-size="14.00">AuthModule</text>
</g>
<!-- FastTrackModule -->
<g id="node5" class="node">
<title>FastTrackModule</title>
<polygon fill="#8dd3c7" stroke="black" points="679.53,-187 676.53,-191 655.53,-191 652.53,-187 564.47,-187 564.47,-151 679.53,-151 679.53,-187"/>
<text text-anchor="middle" x="622" y="-164.8" font-family="Times,serif" font-size="14.00">FastTrackModule</text>
</g>
<!-- AuthModule&#45;&gt;FastTrackModule -->
<g id="edge1" class="edge">
<title>AuthModule&#45;&gt;FastTrackModule</title>
<path fill="none" stroke="black" d="M572.51,-122.11C572.51,-122.11 572.51,-140.99 572.51,-140.99"/>
<polygon fill="black" stroke="black" points="569.01,-140.99 572.51,-150.99 576.01,-140.99 569.01,-140.99"/>
</g>
<!-- FastTrackAuthModule -->
<g id="node2" class="node">
<title>FastTrackAuthModule</title>
<polygon fill="#8dd3c7" stroke="black" points="474.52,-122 471.52,-126 450.52,-126 447.52,-122 331.48,-122 331.48,-86 474.52,-86 474.52,-122"/>
<text text-anchor="middle" x="403" y="-99.8" font-family="Times,serif" font-size="14.00">FastTrackAuthModule</text>
</g>
<!-- FastTrackAuthModule&#45;&gt;FastTrackModule -->
<g id="edge2" class="edge">
<title>FastTrackAuthModule&#45;&gt;FastTrackModule</title>
<path fill="none" stroke="black" d="M466.3,-122.03C466.3,-138.4 466.3,-160 466.3,-160 466.3,-160 554.46,-160 554.46,-160"/>
<polygon fill="black" stroke="black" points="554.46,-163.5 564.46,-160 554.46,-156.5 554.46,-163.5"/>
</g>
<!-- FastTrackRabbitMQModule -->
<g id="node3" class="node">
<title>FastTrackRabbitMQModule</title>
<polygon fill="#8dd3c7" stroke="black" points="313.91,-122 310.91,-126 289.91,-126 286.91,-122 138.09,-122 138.09,-86 313.91,-86 313.91,-122"/>
<text text-anchor="middle" x="226" y="-99.8" font-family="Times,serif" font-size="14.00">FastTrackRabbitMQModule</text>
</g>
<!-- FastTrackRabbitMQModule&#45;&gt;FastTrackModule -->
<g id="edge3" class="edge">
<title>FastTrackRabbitMQModule&#45;&gt;FastTrackModule</title>
<path fill="none" stroke="black" d="M226,-122.11C226,-141.34 226,-169 226,-169 226,-169 554.42,-169 554.42,-169"/>
<polygon fill="black" stroke="black" points="554.42,-172.5 564.42,-169 554.42,-165.5 554.42,-172.5"/>
</g>
<!-- PromoModule -->
<g id="node4" class="node">
<title>PromoModule</title>
<polygon fill="#8dd3c7" stroke="black" points="120.38,-122 117.38,-126 96.38,-126 93.38,-122 23.62,-122 23.62,-86 120.38,-86 120.38,-122"/>
<text text-anchor="middle" x="72" y="-99.8" font-family="Times,serif" font-size="14.00">PromoModule</text>
</g>
<!-- PromoModule&#45;&gt;FastTrackModule -->
<g id="edge4" class="edge">
<title>PromoModule&#45;&gt;FastTrackModule</title>
<path fill="none" stroke="black" d="M72,-122.29C72,-144.21 72,-178 72,-178 72,-178 554.44,-178 554.44,-178"/>
<polygon fill="black" stroke="black" points="554.44,-181.5 564.44,-178 554.44,-174.5 554.44,-181.5"/>
</g>
<!-- FastTrackBonusService  -->
<g id="node6" class="node">
<title>FastTrackBonusService </title>
<polygon fill="#fb8072" stroke="black" points="785.73,-252 632.27,-252 632.27,-216 785.73,-216 785.73,-252"/>
<text text-anchor="middle" x="709" y="-229.8" font-family="Times,serif" font-size="14.00">FastTrackBonusService </text>
</g>
<!-- FastTrackModule&#45;&gt;FastTrackBonusService  -->
<g id="edge5" class="edge">
<title>FastTrackModule&#45;&gt;FastTrackBonusService </title>
<path fill="none" stroke="black" stroke-dasharray="5,2" d="M656.07,-187.11C656.07,-187.11 656.07,-205.99 656.07,-205.99"/>
<polygon fill="black" stroke="black" points="652.57,-205.99 656.07,-215.99 659.57,-205.99 652.57,-205.99"/>
</g>
<!-- FastTrackCasinoService  -->
<g id="node7" class="node">
<title>FastTrackCasinoService </title>
<polygon fill="#fb8072" stroke="black" points="614.34,-252 457.66,-252 457.66,-216 614.34,-216 614.34,-252"/>
<text text-anchor="middle" x="536" y="-229.8" font-family="Times,serif" font-size="14.00">FastTrackCasinoService </text>
</g>
<!-- FastTrackModule&#45;&gt;FastTrackCasinoService  -->
<g id="edge6" class="edge">
<title>FastTrackModule&#45;&gt;FastTrackCasinoService </title>
<path fill="none" stroke="black" stroke-dasharray="5,2" d="M589.2,-187.11C589.2,-187.11 589.2,-205.99 589.2,-205.99"/>
<polygon fill="black" stroke="black" points="585.7,-205.99 589.2,-215.99 592.7,-205.99 585.7,-205.99"/>
</g>
<!-- FastTrackBonusService -->
<g id="node8" class="node">
<title>FastTrackBonusService</title>
<ellipse fill="#fdb462" stroke="black" cx="1417" cy="-104" rx="103.07" ry="18"/>
<text text-anchor="middle" x="1417" y="-99.8" font-family="Times,serif" font-size="14.00">FastTrackBonusService</text>
</g>
<!-- FastTrackBonusService&#45;&gt;FastTrackModule -->
<g id="edge7" class="edge">
<title>FastTrackBonusService&#45;&gt;FastTrackModule</title>
<path fill="none" stroke="black" d="M1417,-122.29C1417,-144.21 1417,-178 1417,-178 1417,-178 689.81,-178 689.81,-178"/>
<polygon fill="black" stroke="black" points="689.81,-174.5 679.81,-178 689.81,-181.5 689.81,-174.5"/>
</g>
<!-- FastTrackCasinoService -->
<g id="node9" class="node">
<title>FastTrackCasinoService</title>
<ellipse fill="#fdb462" stroke="black" cx="1190" cy="-104" rx="105.35" ry="18"/>
<text text-anchor="middle" x="1190" y="-99.8" font-family="Times,serif" font-size="14.00">FastTrackCasinoService</text>
</g>
<!-- FastTrackCasinoService&#45;&gt;FastTrackModule -->
<g id="edge8" class="edge">
<title>FastTrackCasinoService&#45;&gt;FastTrackModule</title>
<path fill="none" stroke="black" d="M1190,-122.11C1190,-141.34 1190,-169 1190,-169 1190,-169 689.59,-169 689.59,-169"/>
<polygon fill="black" stroke="black" points="689.59,-165.5 679.59,-169 689.59,-172.5 689.59,-165.5"/>
</g>
<!-- FastTrackCommandService -->
<g id="node10" class="node">
<title>FastTrackCommandService</title>
<ellipse fill="#fdb462" stroke="black" cx="948" cy="-104" rx="118.68" ry="18"/>
<text text-anchor="middle" x="948" y="-99.8" font-family="Times,serif" font-size="14.00">FastTrackCommandService</text>
</g>
<!-- FastTrackCommandService&#45;&gt;FastTrackModule -->
<g id="edge9" class="edge">
<title>FastTrackCommandService&#45;&gt;FastTrackModule</title>
<path fill="none" stroke="black" d="M948,-122.03C948,-138.4 948,-160 948,-160 948,-160 689.53,-160 689.53,-160"/>
<polygon fill="black" stroke="black" points="689.53,-156.5 679.53,-160 689.53,-163.5 689.53,-156.5"/>
</g>
<!-- FastTrackQueryService -->
<g id="node11" class="node">
<title>FastTrackQueryService</title>
<ellipse fill="#fdb462" stroke="black" cx="708" cy="-104" rx="102.96" ry="18"/>
<text text-anchor="middle" x="708" y="-99.8" font-family="Times,serif" font-size="14.00">FastTrackQueryService</text>
</g>
<!-- FastTrackQueryService&#45;&gt;FastTrackModule -->
<g id="edge10" class="edge">
<title>FastTrackQueryService&#45;&gt;FastTrackModule</title>
<path fill="none" stroke="black" d="M642.52,-118.1C642.52,-118.1 642.52,-140.72 642.52,-140.72"/>
<polygon fill="black" stroke="black" points="639.02,-140.72 642.52,-150.72 646.02,-140.72 639.02,-140.72"/>
</g>
</g>
</svg>
