<?xml version="1.0" encoding="UTF-8" standalone="no"?>
<!DOCTYPE svg PUBLIC "-//W3C//DTD SVG 1.1//EN"
 "http://www.w3.org/Graphics/SVG/1.1/DTD/svg11.dtd">
<!-- Generated by graphviz version 2.47.0 (20210316.0004)
 -->
<!-- Title: dependencies Pages: 1 -->
<svg width="928pt" height="284pt"
 viewBox="0.00 0.00 928.00 284.00" xmlns="http://www.w3.org/2000/svg" xmlns:xlink="http://www.w3.org/1999/xlink">
<g id="graph0" class="graph" transform="scale(1 1) rotate(0) translate(4 280)">
<title>dependencies</title>
<polygon fill="white" stroke="transparent" points="-4,4 -4,-280 924,-280 924,4 -4,4"/>
<text text-anchor="start" x="439.01" y="-42.4" font-family="Times-12" font-weight="bold" font-size="14.00">Legend</text>
<polygon fill="#ffffb3" stroke="transparent" points="226,-10 226,-30 246,-30 246,-10 226,-10"/>
<text text-anchor="start" x="249.63" y="-15.4" font-family="Times-12" font-size="14.00"> &#160;Declarations</text>
<polygon fill="#8dd3c7" stroke="transparent" points="339,-10 339,-30 359,-30 359,-10 339,-10"/>
<text text-anchor="start" x="362.73" y="-15.4" font-family="Times-12" font-size="14.00"> &#160;Module</text>
<polygon fill="#80b1d3" stroke="transparent" points="425,-10 425,-30 445,-30 445,-10 425,-10"/>
<text text-anchor="start" x="448.78" y="-15.4" font-family="Times-12" font-size="14.00"> &#160;Bootstrap</text>
<polygon fill="#fdb462" stroke="transparent" points="522,-10 522,-30 542,-30 542,-10 522,-10"/>
<text text-anchor="start" x="545.67" y="-15.4" font-family="Times-12" font-size="14.00"> &#160;Providers</text>
<polygon fill="#fb8072" stroke="transparent" points="618,-10 618,-30 638,-30 638,-10 618,-10"/>
<text text-anchor="start" x="641.73" y="-15.4" font-family="Times-12" font-size="14.00"> &#160;Exports</text>
<g id="clust1" class="cluster">
<title>cluster_BetGeneratorModule</title>
<polygon fill="none" stroke="black" stroke-dasharray="1,5" points="8,-70 8,-268 912,-268 912,-70 8,-70"/>
</g>
<g id="clust4" class="cluster">
<title>cluster_BetGeneratorModule_exports</title>
<polygon fill="none" stroke="black" points="404,-208 404,-260 570,-260 570,-208 404,-208"/>
</g>
<g id="clust6" class="cluster">
<title>cluster_BetGeneratorModule_providers</title>
<polygon fill="none" stroke="black" points="16,-78 16,-130 904,-130 904,-78 16,-78"/>
</g>
<!-- StrategyFactoryService  -->
<g id="node1" class="node">
<title>StrategyFactoryService </title>
<polygon fill="#fb8072" stroke="black" points="562.39,-252 411.61,-252 411.61,-216 562.39,-216 562.39,-252"/>
<text text-anchor="middle" x="487" y="-229.8" font-family="Times,serif" font-size="14.00">StrategyFactoryService </text>
</g>
<!-- BetGeneratorModule -->
<g id="node2" class="node">
<title>BetGeneratorModule</title>
<polygon fill="#8dd3c7" stroke="black" points="554.45,-187 551.45,-191 530.45,-191 527.45,-187 419.55,-187 419.55,-151 554.45,-151 554.45,-187"/>
<text text-anchor="middle" x="487" y="-164.8" font-family="Times,serif" font-size="14.00">BetGeneratorModule</text>
</g>
<!-- BetGeneratorModule&#45;&gt;StrategyFactoryService  -->
<g id="edge1" class="edge">
<title>BetGeneratorModule&#45;&gt;StrategyFactoryService </title>
<path fill="none" stroke="black" stroke-dasharray="5,2" d="M487,-187.11C487,-187.11 487,-205.99 487,-205.99"/>
<polygon fill="black" stroke="black" points="483.5,-205.99 487,-215.99 490.5,-205.99 483.5,-205.99"/>
</g>
<!-- CasualStrategy -->
<g id="node3" class="node">
<title>CasualStrategy</title>
<ellipse fill="#fdb462" stroke="black" cx="827" cy="-104" rx="69.5" ry="18"/>
<text text-anchor="middle" x="827" y="-99.8" font-family="Times,serif" font-size="14.00">CasualStrategy</text>
</g>
<!-- CasualStrategy&#45;&gt;BetGeneratorModule -->
<g id="edge2" class="edge">
<title>CasualStrategy&#45;&gt;BetGeneratorModule</title>
<path fill="none" stroke="black" d="M827,-122.28C827,-143.32 827,-175 827,-175 827,-175 564.58,-175 564.58,-175"/>
<polygon fill="black" stroke="black" points="564.58,-171.5 554.58,-175 564.58,-178.5 564.58,-171.5"/>
</g>
<!-- HighrollerStrategy -->
<g id="node4" class="node">
<title>HighrollerStrategy</title>
<ellipse fill="#fdb462" stroke="black" cx="656" cy="-104" rx="83.38" ry="18"/>
<text text-anchor="middle" x="656" y="-99.8" font-family="Times,serif" font-size="14.00">HighrollerStrategy</text>
</g>
<!-- HighrollerStrategy&#45;&gt;BetGeneratorModule -->
<g id="edge3" class="edge">
<title>HighrollerStrategy&#45;&gt;BetGeneratorModule</title>
<path fill="none" stroke="black" d="M656,-122.02C656,-139.37 656,-163 656,-163 656,-163 564.76,-163 564.76,-163"/>
<polygon fill="black" stroke="black" points="564.77,-159.5 554.76,-163 564.76,-166.5 564.77,-159.5"/>
</g>
<!-- StableStrategy -->
<g id="node5" class="node">
<title>StableStrategy</title>
<ellipse fill="#fdb462" stroke="black" cx="487" cy="-104" rx="67.21" ry="18"/>
<text text-anchor="middle" x="487" y="-99.8" font-family="Times,serif" font-size="14.00">StableStrategy</text>
</g>
<!-- StableStrategy&#45;&gt;BetGeneratorModule -->
<g id="edge4" class="edge">
<title>StableStrategy&#45;&gt;BetGeneratorModule</title>
<path fill="none" stroke="black" d="M487,-122.11C487,-122.11 487,-140.99 487,-140.99"/>
<polygon fill="black" stroke="black" points="483.5,-140.99 487,-150.99 490.5,-140.99 483.5,-140.99"/>
</g>
<!-- StrategyFactoryService -->
<g id="node6" class="node">
<title>StrategyFactoryService</title>
<ellipse fill="#fdb462" stroke="black" cx="300" cy="-104" rx="101.84" ry="18"/>
<text text-anchor="middle" x="300" y="-99.8" font-family="Times,serif" font-size="14.00">StrategyFactoryService</text>
</g>
<!-- StrategyFactoryService&#45;&gt;BetGeneratorModule -->
<g id="edge5" class="edge">
<title>StrategyFactoryService&#45;&gt;BetGeneratorModule</title>
<path fill="none" stroke="black" d="M300,-122.02C300,-139.37 300,-163 300,-163 300,-163 409.49,-163 409.49,-163"/>
<polygon fill="black" stroke="black" points="409.49,-166.5 419.49,-163 409.49,-159.5 409.49,-166.5"/>
</g>
<!-- TricksterStrategy -->
<g id="node7" class="node">
<title>TricksterStrategy</title>
<ellipse fill="#fdb462" stroke="black" cx="102" cy="-104" rx="78.14" ry="18"/>
<text text-anchor="middle" x="102" y="-99.8" font-family="Times,serif" font-size="14.00">TricksterStrategy</text>
</g>
<!-- TricksterStrategy&#45;&gt;BetGeneratorModule -->
<g id="edge6" class="edge">
<title>TricksterStrategy&#45;&gt;BetGeneratorModule</title>
<path fill="none" stroke="black" d="M102,-122.28C102,-143.32 102,-175 102,-175 102,-175 409.5,-175 409.5,-175"/>
<polygon fill="black" stroke="black" points="409.5,-178.5 419.5,-175 409.5,-171.5 409.5,-178.5"/>
</g>
</g>
</svg>
