<?xml version="1.0" encoding="UTF-8" standalone="no"?>
<!DOCTYPE svg PUBLIC "-//W3C//DTD SVG 1.1//EN"
 "http://www.w3.org/Graphics/SVG/1.1/DTD/svg11.dtd">
<!-- Generated by graphviz version 2.47.0 (20210316.0004)
 -->
<!-- Title: dependencies Pages: 1 -->
<svg width="672pt" height="284pt"
 viewBox="0.00 0.00 672.00 284.00" xmlns="http://www.w3.org/2000/svg" xmlns:xlink="http://www.w3.org/1999/xlink">
<g id="graph0" class="graph" transform="scale(1 1) rotate(0) translate(4 280)">
<title>dependencies</title>
<polygon fill="white" stroke="transparent" points="-4,4 -4,-280 668,-280 668,4 -4,4"/>
<text text-anchor="start" x="311.01" y="-42.4" font-family="Times-12" font-weight="bold" font-size="14.00">Legend</text>
<polygon fill="#ffffb3" stroke="transparent" points="98,-10 98,-30 118,-30 118,-10 98,-10"/>
<text text-anchor="start" x="121.63" y="-15.4" font-family="Times-12" font-size="14.00"> &#160;Declarations</text>
<polygon fill="#8dd3c7" stroke="transparent" points="211,-10 211,-30 231,-30 231,-10 211,-10"/>
<text text-anchor="start" x="234.73" y="-15.4" font-family="Times-12" font-size="14.00"> &#160;Module</text>
<polygon fill="#80b1d3" stroke="transparent" points="297,-10 297,-30 317,-30 317,-10 297,-10"/>
<text text-anchor="start" x="320.78" y="-15.4" font-family="Times-12" font-size="14.00"> &#160;Bootstrap</text>
<polygon fill="#fdb462" stroke="transparent" points="394,-10 394,-30 414,-30 414,-10 394,-10"/>
<text text-anchor="start" x="417.67" y="-15.4" font-family="Times-12" font-size="14.00"> &#160;Providers</text>
<polygon fill="#fb8072" stroke="transparent" points="490,-10 490,-30 510,-30 510,-10 490,-10"/>
<text text-anchor="start" x="513.73" y="-15.4" font-family="Times-12" font-size="14.00"> &#160;Exports</text>
<g id="clust1" class="cluster">
<title>cluster_PaymentModule</title>
<polygon fill="none" stroke="black" stroke-dasharray="1,5" points="8,-70 8,-268 656,-268 656,-70 8,-70"/>
</g>
<g id="clust3" class="cluster">
<title>cluster_PaymentModule_imports</title>
<polygon fill="none" stroke="black" points="220,-78 220,-130 648,-130 648,-78 220,-78"/>
</g>
<g id="clust6" class="cluster">
<title>cluster_PaymentModule_providers</title>
<polygon fill="none" stroke="black" points="16,-78 16,-130 212,-130 212,-78 16,-78"/>
</g>
<g id="clust4" class="cluster">
<title>cluster_PaymentModule_exports</title>
<polygon fill="none" stroke="black" points="150,-208 150,-260 563,-260 563,-208 150,-208"/>
</g>
<!-- DepositModule -->
<g id="node1" class="node">
<title>DepositModule</title>
<polygon fill="#8dd3c7" stroke="black" points="639.6,-122 636.6,-126 615.6,-126 612.6,-122 536.4,-122 536.4,-86 639.6,-86 639.6,-122"/>
<text text-anchor="middle" x="588" y="-99.8" font-family="Times,serif" font-size="14.00">DepositModule</text>
</g>
<!-- PaymentModule -->
<g id="node4" class="node">
<title>PaymentModule</title>
<polygon fill="#8dd3c7" stroke="black" points="417.04,-187 414.04,-191 393.04,-191 390.04,-187 308.96,-187 308.96,-151 417.04,-151 417.04,-187"/>
<text text-anchor="middle" x="363" y="-164.8" font-family="Times,serif" font-size="14.00">PaymentModule</text>
</g>
<!-- DepositModule&#45;&gt;PaymentModule -->
<g id="edge1" class="edge">
<title>DepositModule&#45;&gt;PaymentModule</title>
<path fill="none" stroke="black" d="M545.88,-122.02C545.88,-139.37 545.88,-163 545.88,-163 545.88,-163 427.37,-163 427.37,-163"/>
<polygon fill="black" stroke="black" points="427.37,-159.5 417.37,-163 427.37,-166.5 427.37,-159.5"/>
</g>
<!-- PaymentProviderModule -->
<g id="node2" class="node">
<title>PaymentProviderModule</title>
<polygon fill="#8dd3c7" stroke="black" points="518.25,-122 515.25,-126 494.25,-126 491.25,-122 361.75,-122 361.75,-86 518.25,-86 518.25,-122"/>
<text text-anchor="middle" x="440" y="-99.8" font-family="Times,serif" font-size="14.00">PaymentProviderModule</text>
</g>
<!-- PaymentProviderModule&#45;&gt;PaymentModule -->
<g id="edge2" class="edge">
<title>PaymentProviderModule&#45;&gt;PaymentModule</title>
<path fill="none" stroke="black" d="M389.45,-122.11C389.45,-122.11 389.45,-140.99 389.45,-140.99"/>
<polygon fill="black" stroke="black" points="385.95,-140.99 389.45,-150.99 392.95,-140.99 385.95,-140.99"/>
</g>
<!-- WithdrawModule -->
<g id="node3" class="node">
<title>WithdrawModule</title>
<polygon fill="#8dd3c7" stroke="black" points="343.53,-122 340.53,-126 319.53,-126 316.53,-122 228.47,-122 228.47,-86 343.53,-86 343.53,-122"/>
<text text-anchor="middle" x="286" y="-99.8" font-family="Times,serif" font-size="14.00">WithdrawModule</text>
</g>
<!-- WithdrawModule&#45;&gt;PaymentModule -->
<g id="edge3" class="edge">
<title>WithdrawModule&#45;&gt;PaymentModule</title>
<path fill="none" stroke="black" d="M326.25,-122.11C326.25,-122.11 326.25,-140.99 326.25,-140.99"/>
<polygon fill="black" stroke="black" points="322.75,-140.99 326.25,-150.99 329.75,-140.99 322.75,-140.99"/>
</g>
<!-- DepositModule  -->
<g id="node5" class="node">
<title>DepositModule </title>
<polygon fill="#fb8072" stroke="black" points="555.1,-252 448.9,-252 448.9,-216 555.1,-216 555.1,-252"/>
<text text-anchor="middle" x="502" y="-229.8" font-family="Times,serif" font-size="14.00">DepositModule </text>
</g>
<!-- PaymentModule&#45;&gt;DepositModule  -->
<g id="edge4" class="edge">
<title>PaymentModule&#45;&gt;DepositModule </title>
<path fill="none" stroke="black" stroke-dasharray="5,2" d="M417.27,-175C449.27,-175 483.54,-175 483.54,-175 483.54,-175 483.54,-205.98 483.54,-205.98"/>
<polygon fill="black" stroke="black" points="480.04,-205.98 483.54,-215.98 487.04,-205.98 480.04,-205.98"/>
</g>
<!-- TestPaymentService  -->
<g id="node6" class="node">
<title>TestPaymentService </title>
<polygon fill="#fb8072" stroke="black" points="430.07,-252 295.93,-252 295.93,-216 430.07,-216 430.07,-252"/>
<text text-anchor="middle" x="363" y="-229.8" font-family="Times,serif" font-size="14.00">TestPaymentService </text>
</g>
<!-- PaymentModule&#45;&gt;TestPaymentService  -->
<g id="edge5" class="edge">
<title>PaymentModule&#45;&gt;TestPaymentService </title>
<path fill="none" stroke="black" stroke-dasharray="5,2" d="M363,-187.11C363,-187.11 363,-205.99 363,-205.99"/>
<polygon fill="black" stroke="black" points="359.5,-205.99 363,-215.99 366.5,-205.99 359.5,-205.99"/>
</g>
<!-- WithdrawModule  -->
<g id="node7" class="node">
<title>WithdrawModule </title>
<polygon fill="#fb8072" stroke="black" points="277.53,-252 158.47,-252 158.47,-216 277.53,-216 277.53,-252"/>
<text text-anchor="middle" x="218" y="-229.8" font-family="Times,serif" font-size="14.00">WithdrawModule </text>
</g>
<!-- PaymentModule&#45;&gt;WithdrawModule  -->
<g id="edge6" class="edge">
<title>PaymentModule&#45;&gt;WithdrawModule </title>
<path fill="none" stroke="black" stroke-dasharray="5,2" d="M308.91,-175C281.06,-175 252.88,-175 252.88,-175 252.88,-175 252.88,-205.98 252.88,-205.98"/>
<polygon fill="black" stroke="black" points="249.38,-205.98 252.88,-215.98 256.38,-205.98 249.38,-205.98"/>
</g>
<!-- TestPaymentService -->
<g id="node8" class="node">
<title>TestPaymentService</title>
<ellipse fill="#fdb462" stroke="black" cx="114" cy="-104" rx="90.32" ry="18"/>
<text text-anchor="middle" x="114" y="-99.8" font-family="Times,serif" font-size="14.00">TestPaymentService</text>
</g>
<!-- TestPaymentService&#45;&gt;PaymentModule -->
<g id="edge7" class="edge">
<title>TestPaymentService&#45;&gt;PaymentModule</title>
<path fill="none" stroke="black" d="M181.45,-116.22C181.45,-133.51 181.45,-163 181.45,-163 181.45,-163 298.53,-163 298.53,-163"/>
<polygon fill="black" stroke="black" points="298.53,-166.5 308.53,-163 298.53,-159.5 298.53,-166.5"/>
</g>
</g>
</svg>
