<?xml version="1.0" encoding="UTF-8" standalone="no"?>
<!DOCTYPE svg PUBLIC "-//W3C//DTD SVG 1.1//EN"
 "http://www.w3.org/Graphics/SVG/1.1/DTD/svg11.dtd">
<!-- Generated by graphviz version 2.47.0 (20210316.0004)
 -->
<!-- Title: dependencies Pages: 1 -->
<svg width="946pt" height="284pt"
 viewBox="0.00 0.00 946.00 284.00" xmlns="http://www.w3.org/2000/svg" xmlns:xlink="http://www.w3.org/1999/xlink">
<g id="graph0" class="graph" transform="scale(1 1) rotate(0) translate(4 280)">
<title>dependencies</title>
<polygon fill="white" stroke="transparent" points="-4,4 -4,-280 942,-280 942,4 -4,4"/>
<text text-anchor="start" x="448.01" y="-42.4" font-family="Times-12" font-weight="bold" font-size="14.00">Legend</text>
<polygon fill="#ffffb3" stroke="transparent" points="235,-10 235,-30 255,-30 255,-10 235,-10"/>
<text text-anchor="start" x="258.63" y="-15.4" font-family="Times-12" font-size="14.00"> &#160;Declarations</text>
<polygon fill="#8dd3c7" stroke="transparent" points="348,-10 348,-30 368,-30 368,-10 348,-10"/>
<text text-anchor="start" x="371.73" y="-15.4" font-family="Times-12" font-size="14.00"> &#160;Module</text>
<polygon fill="#80b1d3" stroke="transparent" points="434,-10 434,-30 454,-30 454,-10 434,-10"/>
<text text-anchor="start" x="457.78" y="-15.4" font-family="Times-12" font-size="14.00"> &#160;Bootstrap</text>
<polygon fill="#fdb462" stroke="transparent" points="531,-10 531,-30 551,-30 551,-10 531,-10"/>
<text text-anchor="start" x="554.67" y="-15.4" font-family="Times-12" font-size="14.00"> &#160;Providers</text>
<polygon fill="#fb8072" stroke="transparent" points="627,-10 627,-30 647,-30 647,-10 627,-10"/>
<text text-anchor="start" x="650.73" y="-15.4" font-family="Times-12" font-size="14.00"> &#160;Exports</text>
<g id="clust1" class="cluster">
<title>cluster_EvoGamesModule</title>
<polygon fill="none" stroke="black" stroke-dasharray="1,5" points="8,-70 8,-268 930,-268 930,-70 8,-70"/>
</g>
<g id="clust6" class="cluster">
<title>cluster_EvoGamesModule_providers</title>
<polygon fill="none" stroke="black" points="478,-78 478,-130 922,-130 922,-78 478,-78"/>
</g>
<g id="clust4" class="cluster">
<title>cluster_EvoGamesModule_exports</title>
<polygon fill="none" stroke="black" points="284,-208 284,-260 444,-260 444,-208 284,-208"/>
</g>
<g id="clust3" class="cluster">
<title>cluster_EvoGamesModule_imports</title>
<polygon fill="none" stroke="black" points="16,-78 16,-130 470,-130 470,-78 16,-78"/>
</g>
<!-- BetModule -->
<g id="node1" class="node">
<title>BetModule</title>
<polygon fill="#8dd3c7" stroke="black" points="462.49,-122 459.49,-126 438.49,-126 435.49,-122 383.51,-122 383.51,-86 462.49,-86 462.49,-122"/>
<text text-anchor="middle" x="423" y="-99.8" font-family="Times,serif" font-size="14.00">BetModule</text>
</g>
<!-- EvoGamesModule -->
<g id="node5" class="node">
<title>EvoGamesModule</title>
<polygon fill="#8dd3c7" stroke="black" points="424.47,-187 421.47,-191 400.47,-191 397.47,-187 303.53,-187 303.53,-151 424.47,-151 424.47,-187"/>
<text text-anchor="middle" x="364" y="-164.8" font-family="Times,serif" font-size="14.00">EvoGamesModule</text>
</g>
<!-- BetModule&#45;&gt;EvoGamesModule -->
<g id="edge1" class="edge">
<title>BetModule&#45;&gt;EvoGamesModule</title>
<path fill="none" stroke="black" d="M404,-122.11C404,-122.11 404,-140.99 404,-140.99"/>
<polygon fill="black" stroke="black" points="400.5,-140.99 404,-150.99 407.5,-140.99 400.5,-140.99"/>
</g>
<!-- EnvConfigModule -->
<g id="node2" class="node">
<title>EnvConfigModule</title>
<polygon fill="#8dd3c7" stroke="black" points="365.49,-122 362.49,-126 341.49,-126 338.49,-122 244.51,-122 244.51,-86 365.49,-86 365.49,-122"/>
<text text-anchor="middle" x="305" y="-99.8" font-family="Times,serif" font-size="14.00">EnvConfigModule</text>
</g>
<!-- EnvConfigModule&#45;&gt;EvoGamesModule -->
<g id="edge2" class="edge">
<title>EnvConfigModule&#45;&gt;EvoGamesModule</title>
<path fill="none" stroke="black" d="M334.5,-122.11C334.5,-122.11 334.5,-140.99 334.5,-140.99"/>
<polygon fill="black" stroke="black" points="331,-140.99 334.5,-150.99 338,-140.99 331,-140.99"/>
</g>
<!-- GamesModule -->
<g id="node3" class="node">
<title>GamesModule</title>
<polygon fill="#8dd3c7" stroke="black" points="226.42,-122 223.42,-126 202.42,-126 199.42,-122 127.58,-122 127.58,-86 226.42,-86 226.42,-122"/>
<text text-anchor="middle" x="177" y="-99.8" font-family="Times,serif" font-size="14.00">GamesModule</text>
</g>
<!-- GamesModule&#45;&gt;EvoGamesModule -->
<g id="edge3" class="edge">
<title>GamesModule&#45;&gt;EvoGamesModule</title>
<path fill="none" stroke="black" d="M177,-122.02C177,-139.37 177,-163 177,-163 177,-163 293.29,-163 293.29,-163"/>
<polygon fill="black" stroke="black" points="293.29,-166.5 303.29,-163 293.29,-159.5 293.29,-166.5"/>
</g>
<!-- UserModule -->
<g id="node4" class="node">
<title>UserModule</title>
<polygon fill="#8dd3c7" stroke="black" points="109.98,-122 106.98,-126 85.98,-126 82.98,-122 24.02,-122 24.02,-86 109.98,-86 109.98,-122"/>
<text text-anchor="middle" x="67" y="-99.8" font-family="Times,serif" font-size="14.00">UserModule</text>
</g>
<!-- UserModule&#45;&gt;EvoGamesModule -->
<g id="edge4" class="edge">
<title>UserModule&#45;&gt;EvoGamesModule</title>
<path fill="none" stroke="black" d="M67,-122.28C67,-143.32 67,-175 67,-175 67,-175 293.18,-175 293.18,-175"/>
<polygon fill="black" stroke="black" points="293.18,-178.5 303.18,-175 293.18,-171.5 293.18,-178.5"/>
</g>
<!-- EvoGamesApiService  -->
<g id="node6" class="node">
<title>EvoGamesApiService </title>
<polygon fill="#fb8072" stroke="black" points="435.9,-252 292.1,-252 292.1,-216 435.9,-216 435.9,-252"/>
<text text-anchor="middle" x="364" y="-229.8" font-family="Times,serif" font-size="14.00">EvoGamesApiService </text>
</g>
<!-- EvoGamesModule&#45;&gt;EvoGamesApiService  -->
<g id="edge5" class="edge">
<title>EvoGamesModule&#45;&gt;EvoGamesApiService </title>
<path fill="none" stroke="black" stroke-dasharray="5,2" d="M364,-187.11C364,-187.11 364,-205.99 364,-205.99"/>
<polygon fill="black" stroke="black" points="360.5,-205.99 364,-215.99 367.5,-205.99 360.5,-205.99"/>
</g>
<!-- EvoGamesApiService -->
<g id="node7" class="node">
<title>EvoGamesApiService</title>
<ellipse fill="#fdb462" stroke="black" cx="817" cy="-104" rx="96.69" ry="18"/>
<text text-anchor="middle" x="817" y="-99.8" font-family="Times,serif" font-size="14.00">EvoGamesApiService</text>
</g>
<!-- EvoGamesApiService&#45;&gt;EvoGamesModule -->
<g id="edge6" class="edge">
<title>EvoGamesApiService&#45;&gt;EvoGamesModule</title>
<path fill="none" stroke="black" d="M817,-122.28C817,-143.32 817,-175 817,-175 817,-175 434.62,-175 434.62,-175"/>
<polygon fill="black" stroke="black" points="434.62,-171.5 424.62,-175 434.62,-178.5 434.62,-171.5"/>
</g>
<!-- EvoGamesWalletService -->
<g id="node8" class="node">
<title>EvoGamesWalletService</title>
<ellipse fill="#fdb462" stroke="black" cx="594" cy="-104" rx="108.2" ry="18"/>
<text text-anchor="middle" x="594" y="-99.8" font-family="Times,serif" font-size="14.00">EvoGamesWalletService</text>
</g>
<!-- EvoGamesWalletService&#45;&gt;EvoGamesModule -->
<g id="edge7" class="edge">
<title>EvoGamesWalletService&#45;&gt;EvoGamesModule</title>
<path fill="none" stroke="black" d="M594,-122.02C594,-139.37 594,-163 594,-163 594,-163 434.73,-163 434.73,-163"/>
<polygon fill="black" stroke="black" points="434.73,-159.5 424.73,-163 434.73,-166.5 434.73,-159.5"/>
</g>
</g>
</svg>
