<?xml version="1.0" encoding="UTF-8" standalone="no"?>
<!DOCTYPE svg PUBLIC "-//W3C//DTD SVG 1.1//EN"
 "http://www.w3.org/Graphics/SVG/1.1/DTD/svg11.dtd">
<!-- Generated by graphviz version 2.47.0 (20210316.0004)
 -->
<!-- Title: dependencies Pages: 1 -->
<svg width="550pt" height="284pt"
 viewBox="0.00 0.00 550.00 284.00" xmlns="http://www.w3.org/2000/svg" xmlns:xlink="http://www.w3.org/1999/xlink">
<g id="graph0" class="graph" transform="scale(1 1) rotate(0) translate(4 280)">
<title>dependencies</title>
<polygon fill="white" stroke="transparent" points="-4,4 -4,-280 546,-280 546,4 -4,4"/>
<text text-anchor="start" x="250.01" y="-42.4" font-family="Times-12" font-weight="bold" font-size="14.00">Legend</text>
<polygon fill="#ffffb3" stroke="transparent" points="37,-10 37,-30 57,-30 57,-10 37,-10"/>
<text text-anchor="start" x="60.63" y="-15.4" font-family="Times-12" font-size="14.00"> &#160;Declarations</text>
<polygon fill="#8dd3c7" stroke="transparent" points="150,-10 150,-30 170,-30 170,-10 150,-10"/>
<text text-anchor="start" x="173.73" y="-15.4" font-family="Times-12" font-size="14.00"> &#160;Module</text>
<polygon fill="#80b1d3" stroke="transparent" points="236,-10 236,-30 256,-30 256,-10 236,-10"/>
<text text-anchor="start" x="259.78" y="-15.4" font-family="Times-12" font-size="14.00"> &#160;Bootstrap</text>
<polygon fill="#fdb462" stroke="transparent" points="333,-10 333,-30 353,-30 353,-10 333,-10"/>
<text text-anchor="start" x="356.67" y="-15.4" font-family="Times-12" font-size="14.00"> &#160;Providers</text>
<polygon fill="#fb8072" stroke="transparent" points="429,-10 429,-30 449,-30 449,-10 429,-10"/>
<text text-anchor="start" x="452.73" y="-15.4" font-family="Times-12" font-size="14.00"> &#160;Exports</text>
<g id="clust1" class="cluster">
<title>cluster_WithdrawalsBlockModule</title>
<polygon fill="none" stroke="black" stroke-dasharray="1,5" points="8,-70 8,-268 534,-268 534,-70 8,-70"/>
</g>
<g id="clust4" class="cluster">
<title>cluster_WithdrawalsBlockModule_exports</title>
<polygon fill="none" stroke="black" points="173,-208 173,-260 355,-260 355,-208 173,-208"/>
</g>
<g id="clust6" class="cluster">
<title>cluster_WithdrawalsBlockModule_providers</title>
<polygon fill="none" stroke="black" points="16,-78 16,-130 526,-130 526,-78 16,-78"/>
</g>
<!-- WithdrawalsBlockService  -->
<g id="node1" class="node">
<title>WithdrawalsBlockService </title>
<polygon fill="#fb8072" stroke="black" points="347.45,-252 180.55,-252 180.55,-216 347.45,-216 347.45,-252"/>
<text text-anchor="middle" x="264" y="-229.8" font-family="Times,serif" font-size="14.00">WithdrawalsBlockService </text>
</g>
<!-- WithdrawalsBlockModule -->
<g id="node2" class="node">
<title>WithdrawalsBlockModule</title>
<polygon fill="#8dd3c7" stroke="black" points="346.02,-187 343.02,-191 322.02,-191 319.02,-187 181.98,-187 181.98,-151 346.02,-151 346.02,-187"/>
<text text-anchor="middle" x="264" y="-164.8" font-family="Times,serif" font-size="14.00">WithdrawalsBlockModule</text>
</g>
<!-- WithdrawalsBlockModule&#45;&gt;WithdrawalsBlockService  -->
<g id="edge1" class="edge">
<title>WithdrawalsBlockModule&#45;&gt;WithdrawalsBlockService </title>
<path fill="none" stroke="black" stroke-dasharray="5,2" d="M264,-187.11C264,-187.11 264,-205.99 264,-205.99"/>
<polygon fill="black" stroke="black" points="260.5,-205.99 264,-215.99 267.5,-205.99 260.5,-205.99"/>
</g>
<!-- WithdrawalsBlockRepository -->
<g id="node3" class="node">
<title>WithdrawalsBlockRepository</title>
<ellipse fill="#fdb462" stroke="black" cx="392" cy="-104" rx="125.64" ry="18"/>
<text text-anchor="middle" x="392" y="-99.8" font-family="Times,serif" font-size="14.00">WithdrawalsBlockRepository</text>
</g>
<!-- WithdrawalsBlockRepository&#45;&gt;WithdrawalsBlockModule -->
<g id="edge2" class="edge">
<title>WithdrawalsBlockRepository&#45;&gt;WithdrawalsBlockModule</title>
<path fill="none" stroke="black" d="M306.22,-117.47C306.22,-117.47 306.22,-140.86 306.22,-140.86"/>
<polygon fill="black" stroke="black" points="302.72,-140.86 306.22,-150.86 309.72,-140.86 302.72,-140.86"/>
</g>
<!-- WithdrawalsBlockService -->
<g id="node4" class="node">
<title>WithdrawalsBlockService</title>
<ellipse fill="#fdb462" stroke="black" cx="136" cy="-104" rx="112.3" ry="18"/>
<text text-anchor="middle" x="136" y="-99.8" font-family="Times,serif" font-size="14.00">WithdrawalsBlockService</text>
</g>
<!-- WithdrawalsBlockService&#45;&gt;WithdrawalsBlockModule -->
<g id="edge3" class="edge">
<title>WithdrawalsBlockService&#45;&gt;WithdrawalsBlockModule</title>
<path fill="none" stroke="black" d="M215.07,-116.84C215.07,-116.84 215.07,-140.52 215.07,-140.52"/>
<polygon fill="black" stroke="black" points="211.57,-140.52 215.07,-150.52 218.57,-140.52 211.57,-140.52"/>
</g>
</g>
</svg>
