<?xml version="1.0" encoding="UTF-8" standalone="no"?>
<!DOCTYPE svg PUBLIC "-//W3C//DTD SVG 1.1//EN"
 "http://www.w3.org/Graphics/SVG/1.1/DTD/svg11.dtd">
<!-- Generated by graphviz version 2.47.0 (20210316.0004)
 -->
<!-- Title: dependencies Pages: 1 -->
<svg width="819pt" height="284pt"
 viewBox="0.00 0.00 819.00 284.00" xmlns="http://www.w3.org/2000/svg" xmlns:xlink="http://www.w3.org/1999/xlink">
<g id="graph0" class="graph" transform="scale(1 1) rotate(0) translate(4 280)">
<title>dependencies</title>
<polygon fill="white" stroke="transparent" points="-4,4 -4,-280 815,-280 815,4 -4,4"/>
<text text-anchor="start" x="384.51" y="-42.4" font-family="Times-12" font-weight="bold" font-size="14.00">Legend</text>
<polygon fill="#ffffb3" stroke="transparent" points="171.5,-10 171.5,-30 191.5,-30 191.5,-10 171.5,-10"/>
<text text-anchor="start" x="195.13" y="-15.4" font-family="Times-12" font-size="14.00"> &#160;Declarations</text>
<polygon fill="#8dd3c7" stroke="transparent" points="284.5,-10 284.5,-30 304.5,-30 304.5,-10 284.5,-10"/>
<text text-anchor="start" x="308.23" y="-15.4" font-family="Times-12" font-size="14.00"> &#160;Module</text>
<polygon fill="#80b1d3" stroke="transparent" points="370.5,-10 370.5,-30 390.5,-30 390.5,-10 370.5,-10"/>
<text text-anchor="start" x="394.28" y="-15.4" font-family="Times-12" font-size="14.00"> &#160;Bootstrap</text>
<polygon fill="#fdb462" stroke="transparent" points="467.5,-10 467.5,-30 487.5,-30 487.5,-10 467.5,-10"/>
<text text-anchor="start" x="491.17" y="-15.4" font-family="Times-12" font-size="14.00"> &#160;Providers</text>
<polygon fill="#fb8072" stroke="transparent" points="563.5,-10 563.5,-30 583.5,-30 583.5,-10 563.5,-10"/>
<text text-anchor="start" x="587.23" y="-15.4" font-family="Times-12" font-size="14.00"> &#160;Exports</text>
<g id="clust1" class="cluster">
<title>cluster_BotBetModule</title>
<polygon fill="none" stroke="black" stroke-dasharray="1,5" points="8,-70 8,-268 803,-268 803,-70 8,-70"/>
</g>
<g id="clust3" class="cluster">
<title>cluster_BotBetModule_imports</title>
<polygon fill="none" stroke="black" points="441,-78 441,-130 795,-130 795,-78 441,-78"/>
</g>
<g id="clust6" class="cluster">
<title>cluster_BotBetModule_providers</title>
<polygon fill="none" stroke="black" points="16,-78 16,-130 433,-130 433,-78 16,-78"/>
</g>
<g id="clust4" class="cluster">
<title>cluster_BotBetModule_exports</title>
<polygon fill="none" stroke="black" points="338,-208 338,-260 656,-260 656,-208 338,-208"/>
</g>
<!-- AccountingModule -->
<g id="node1" class="node">
<title>AccountingModule</title>
<polygon fill="#8dd3c7" stroke="black" points="787.37,-122 784.37,-126 763.37,-126 760.37,-122 662.63,-122 662.63,-86 787.37,-86 787.37,-122"/>
<text text-anchor="middle" x="725" y="-99.8" font-family="Times,serif" font-size="14.00">AccountingModule</text>
</g>
<!-- BotBetModule -->
<g id="node4" class="node">
<title>BotBetModule</title>
<polygon fill="#8dd3c7" stroke="black" points="547.72,-187 544.72,-191 523.72,-191 520.72,-187 448.28,-187 448.28,-151 547.72,-151 547.72,-187"/>
<text text-anchor="middle" x="498" y="-164.8" font-family="Times,serif" font-size="14.00">BotBetModule</text>
</g>
<!-- AccountingModule&#45;&gt;BotBetModule -->
<g id="edge1" class="edge">
<title>AccountingModule&#45;&gt;BotBetModule</title>
<path fill="none" stroke="black" d="M725,-122.28C725,-143.32 725,-175 725,-175 725,-175 557.82,-175 557.82,-175"/>
<polygon fill="black" stroke="black" points="557.82,-171.5 547.82,-175 557.82,-178.5 557.82,-171.5"/>
</g>
<!-- BetModule -->
<g id="node2" class="node">
<title>BetModule</title>
<polygon fill="#8dd3c7" stroke="black" points="644.49,-122 641.49,-126 620.49,-126 617.49,-122 565.51,-122 565.51,-86 644.49,-86 644.49,-122"/>
<text text-anchor="middle" x="605" y="-99.8" font-family="Times,serif" font-size="14.00">BetModule</text>
</g>
<!-- BetModule&#45;&gt;BotBetModule -->
<g id="edge2" class="edge">
<title>BetModule&#45;&gt;BotBetModule</title>
<path fill="none" stroke="black" d="M605,-122.02C605,-139.37 605,-163 605,-163 605,-163 557.74,-163 557.74,-163"/>
<polygon fill="black" stroke="black" points="557.74,-159.5 547.74,-163 557.74,-166.5 557.74,-159.5"/>
</g>
<!-- GamesModule -->
<g id="node3" class="node">
<title>GamesModule</title>
<polygon fill="#8dd3c7" stroke="black" points="547.42,-122 544.42,-126 523.42,-126 520.42,-122 448.58,-122 448.58,-86 547.42,-86 547.42,-122"/>
<text text-anchor="middle" x="498" y="-99.8" font-family="Times,serif" font-size="14.00">GamesModule</text>
</g>
<!-- GamesModule&#45;&gt;BotBetModule -->
<g id="edge3" class="edge">
<title>GamesModule&#45;&gt;BotBetModule</title>
<path fill="none" stroke="black" d="M498,-122.11C498,-122.11 498,-140.99 498,-140.99"/>
<polygon fill="black" stroke="black" points="494.5,-140.99 498,-150.99 501.5,-140.99 494.5,-140.99"/>
</g>
<!-- BotBetCasinoService  -->
<g id="node5" class="node">
<title>BotBetCasinoService </title>
<polygon fill="#fb8072" stroke="black" points="648.03,-252 507.97,-252 507.97,-216 648.03,-216 648.03,-252"/>
<text text-anchor="middle" x="578" y="-229.8" font-family="Times,serif" font-size="14.00">BotBetCasinoService </text>
</g>
<!-- BotBetModule&#45;&gt;BotBetCasinoService  -->
<g id="edge4" class="edge">
<title>BotBetModule&#45;&gt;BotBetCasinoService </title>
<path fill="none" stroke="black" stroke-dasharray="5,2" d="M527.8,-187.11C527.8,-187.11 527.8,-205.99 527.8,-205.99"/>
<polygon fill="black" stroke="black" points="524.3,-205.99 527.8,-215.99 531.3,-205.99 524.3,-205.99"/>
</g>
<!-- BotWinCasinoService  -->
<g id="node6" class="node">
<title>BotWinCasinoService </title>
<polygon fill="#fb8072" stroke="black" points="490.2,-252 345.8,-252 345.8,-216 490.2,-216 490.2,-252"/>
<text text-anchor="middle" x="418" y="-229.8" font-family="Times,serif" font-size="14.00">BotWinCasinoService </text>
</g>
<!-- BotBetModule&#45;&gt;BotWinCasinoService  -->
<g id="edge5" class="edge">
<title>BotBetModule&#45;&gt;BotWinCasinoService </title>
<path fill="none" stroke="black" stroke-dasharray="5,2" d="M469.37,-187.11C469.37,-187.11 469.37,-205.99 469.37,-205.99"/>
<polygon fill="black" stroke="black" points="465.87,-205.99 469.37,-215.99 472.87,-205.99 465.87,-205.99"/>
</g>
<!-- BotBetCasinoService -->
<g id="node7" class="node">
<title>BotBetCasinoService</title>
<ellipse fill="#fdb462" stroke="black" cx="331" cy="-104" rx="94.36" ry="18"/>
<text text-anchor="middle" x="331" y="-99.8" font-family="Times,serif" font-size="14.00">BotBetCasinoService</text>
</g>
<!-- BotBetCasinoService&#45;&gt;BotBetModule -->
<g id="edge6" class="edge">
<title>BotBetCasinoService&#45;&gt;BotBetModule</title>
<path fill="none" stroke="black" d="M385.41,-118.89C385.41,-136.37 385.41,-163 385.41,-163 385.41,-163 438.29,-163 438.29,-163"/>
<polygon fill="black" stroke="black" points="438.29,-166.5 448.29,-163 438.29,-159.5 438.29,-166.5"/>
</g>
<!-- BotWinCasinoService -->
<g id="node8" class="node">
<title>BotWinCasinoService</title>
<ellipse fill="#fdb462" stroke="black" cx="121" cy="-104" rx="97.29" ry="18"/>
<text text-anchor="middle" x="121" y="-99.8" font-family="Times,serif" font-size="14.00">BotWinCasinoService</text>
</g>
<!-- BotWinCasinoService&#45;&gt;BotBetModule -->
<g id="edge7" class="edge">
<title>BotWinCasinoService&#45;&gt;BotBetModule</title>
<path fill="none" stroke="black" d="M121,-122.28C121,-143.32 121,-175 121,-175 121,-175 438.33,-175 438.33,-175"/>
<polygon fill="black" stroke="black" points="438.33,-178.5 448.33,-175 438.33,-171.5 438.33,-178.5"/>
</g>
</g>
</svg>
