<?xml version="1.0" encoding="UTF-8" standalone="no"?>
<!DOCTYPE svg PUBLIC "-//W3C//DTD SVG 1.1//EN"
 "http://www.w3.org/Graphics/SVG/1.1/DTD/svg11.dtd">
<!-- Generated by graphviz version 2.47.0 (20210316.0004)
 -->
<!-- Title: dependencies Pages: 1 -->
<svg width="954pt" height="284pt"
 viewBox="0.00 0.00 954.00 284.00" xmlns="http://www.w3.org/2000/svg" xmlns:xlink="http://www.w3.org/1999/xlink">
<g id="graph0" class="graph" transform="scale(1 1) rotate(0) translate(4 280)">
<title>dependencies</title>
<polygon fill="white" stroke="transparent" points="-4,4 -4,-280 950,-280 950,4 -4,4"/>
<text text-anchor="start" x="452.01" y="-42.4" font-family="Times-12" font-weight="bold" font-size="14.00">Legend</text>
<polygon fill="#ffffb3" stroke="transparent" points="239,-10 239,-30 259,-30 259,-10 239,-10"/>
<text text-anchor="start" x="262.63" y="-15.4" font-family="Times-12" font-size="14.00"> &#160;Declarations</text>
<polygon fill="#8dd3c7" stroke="transparent" points="352,-10 352,-30 372,-30 372,-10 352,-10"/>
<text text-anchor="start" x="375.73" y="-15.4" font-family="Times-12" font-size="14.00"> &#160;Module</text>
<polygon fill="#80b1d3" stroke="transparent" points="438,-10 438,-30 458,-30 458,-10 438,-10"/>
<text text-anchor="start" x="461.78" y="-15.4" font-family="Times-12" font-size="14.00"> &#160;Bootstrap</text>
<polygon fill="#fdb462" stroke="transparent" points="535,-10 535,-30 555,-30 555,-10 535,-10"/>
<text text-anchor="start" x="558.67" y="-15.4" font-family="Times-12" font-size="14.00"> &#160;Providers</text>
<polygon fill="#fb8072" stroke="transparent" points="631,-10 631,-30 651,-30 651,-10 631,-10"/>
<text text-anchor="start" x="654.73" y="-15.4" font-family="Times-12" font-size="14.00"> &#160;Exports</text>
<g id="clust1" class="cluster">
<title>cluster_BotModule</title>
<polygon fill="none" stroke="black" stroke-dasharray="1,5" points="8,-70 8,-268 938,-268 938,-70 8,-70"/>
</g>
<g id="clust4" class="cluster">
<title>cluster_BotModule_exports</title>
<polygon fill="none" stroke="black" points="381,-208 381,-260 525,-260 525,-208 381,-208"/>
</g>
<g id="clust6" class="cluster">
<title>cluster_BotModule_providers</title>
<polygon fill="none" stroke="black" points="326,-78 326,-130 930,-130 930,-78 326,-78"/>
</g>
<g id="clust3" class="cluster">
<title>cluster_BotModule_imports</title>
<polygon fill="none" stroke="black" points="16,-78 16,-130 318,-130 318,-78 16,-78"/>
</g>
<!-- BotBullModule -->
<g id="node1" class="node">
<title>BotBullModule</title>
<polygon fill="#8dd3c7" stroke="black" points="309.89,-122 306.89,-126 285.89,-126 282.89,-122 206.11,-122 206.11,-86 309.89,-86 309.89,-122"/>
<text text-anchor="middle" x="258" y="-99.8" font-family="Times,serif" font-size="14.00">BotBullModule</text>
</g>
<!-- BotModule -->
<g id="node3" class="node">
<title>BotModule</title>
<polygon fill="#8dd3c7" stroke="black" points="492.78,-187 489.78,-191 468.78,-191 465.78,-187 413.22,-187 413.22,-151 492.78,-151 492.78,-187"/>
<text text-anchor="middle" x="453" y="-164.8" font-family="Times,serif" font-size="14.00">BotModule</text>
</g>
<!-- BotBullModule&#45;&gt;BotModule -->
<g id="edge1" class="edge">
<title>BotBullModule&#45;&gt;BotModule</title>
<path fill="none" stroke="black" d="M258,-122.02C258,-139.37 258,-163 258,-163 258,-163 403.07,-163 403.07,-163"/>
<polygon fill="black" stroke="black" points="403.07,-166.5 413.07,-163 403.07,-159.5 403.07,-166.5"/>
</g>
<!-- WithdrawalsBlockModule -->
<g id="node2" class="node">
<title>WithdrawalsBlockModule</title>
<polygon fill="#8dd3c7" stroke="black" points="188.02,-122 185.02,-126 164.02,-126 161.02,-122 23.98,-122 23.98,-86 188.02,-86 188.02,-122"/>
<text text-anchor="middle" x="106" y="-99.8" font-family="Times,serif" font-size="14.00">WithdrawalsBlockModule</text>
</g>
<!-- WithdrawalsBlockModule&#45;&gt;BotModule -->
<g id="edge2" class="edge">
<title>WithdrawalsBlockModule&#45;&gt;BotModule</title>
<path fill="none" stroke="black" d="M106,-122.28C106,-143.32 106,-175 106,-175 106,-175 403.19,-175 403.19,-175"/>
<polygon fill="black" stroke="black" points="403.19,-178.5 413.19,-175 403.19,-171.5 403.19,-178.5"/>
</g>
<!-- BotActivityService  -->
<g id="node4" class="node">
<title>BotActivityService </title>
<polygon fill="#fb8072" stroke="black" points="516.59,-252 389.41,-252 389.41,-216 516.59,-216 516.59,-252"/>
<text text-anchor="middle" x="453" y="-229.8" font-family="Times,serif" font-size="14.00">BotActivityService </text>
</g>
<!-- BotModule&#45;&gt;BotActivityService  -->
<g id="edge3" class="edge">
<title>BotModule&#45;&gt;BotActivityService </title>
<path fill="none" stroke="black" stroke-dasharray="5,2" d="M453,-187.11C453,-187.11 453,-205.99 453,-205.99"/>
<polygon fill="black" stroke="black" points="449.5,-205.99 453,-215.99 456.5,-205.99 449.5,-205.99"/>
</g>
<!-- BotActivityService -->
<g id="node5" class="node">
<title>BotActivityService</title>
<ellipse fill="#fdb462" stroke="black" cx="836" cy="-104" rx="85.69" ry="18"/>
<text text-anchor="middle" x="836" y="-99.8" font-family="Times,serif" font-size="14.00">BotActivityService</text>
</g>
<!-- BotActivityService&#45;&gt;BotModule -->
<g id="edge4" class="edge">
<title>BotActivityService&#45;&gt;BotModule</title>
<path fill="none" stroke="black" d="M836,-122.28C836,-143.32 836,-175 836,-175 836,-175 502.9,-175 502.9,-175"/>
<polygon fill="black" stroke="black" points="502.9,-171.5 492.9,-175 502.9,-178.5 502.9,-171.5"/>
</g>
<!-- BotsRepository -->
<g id="node6" class="node">
<title>BotsRepository</title>
<ellipse fill="#fdb462" stroke="black" cx="661" cy="-104" rx="71.25" ry="18"/>
<text text-anchor="middle" x="661" y="-99.8" font-family="Times,serif" font-size="14.00">BotsRepository</text>
</g>
<!-- BotsRepository&#45;&gt;BotModule -->
<g id="edge5" class="edge">
<title>BotsRepository&#45;&gt;BotModule</title>
<path fill="none" stroke="black" d="M661,-122.02C661,-139.37 661,-163 661,-163 661,-163 503.1,-163 503.1,-163"/>
<polygon fill="black" stroke="black" points="503.1,-159.5 493.1,-163 503.1,-166.5 503.1,-159.5"/>
</g>
<!-- BotsUserControlRepository -->
<g id="node7" class="node">
<title>BotsUserControlRepository</title>
<ellipse fill="#fdb462" stroke="black" cx="453" cy="-104" rx="118.72" ry="18"/>
<text text-anchor="middle" x="453" y="-99.8" font-family="Times,serif" font-size="14.00">BotsUserControlRepository</text>
</g>
<!-- BotsUserControlRepository&#45;&gt;BotModule -->
<g id="edge6" class="edge">
<title>BotsUserControlRepository&#45;&gt;BotModule</title>
<path fill="none" stroke="black" d="M453,-122.11C453,-122.11 453,-140.99 453,-140.99"/>
<polygon fill="black" stroke="black" points="449.5,-140.99 453,-150.99 456.5,-140.99 449.5,-140.99"/>
</g>
</g>
</svg>
