<?xml version="1.0" encoding="UTF-8" standalone="no"?>
<!DOCTYPE svg PUBLIC "-//W3C//DTD SVG 1.1//EN"
 "http://www.w3.org/Graphics/SVG/1.1/DTD/svg11.dtd">
<!-- Generated by graphviz version 2.47.0 (20210316.0004)
 -->
<!-- Title: dependencies Pages: 1 -->
<svg width="504pt" height="284pt"
 viewBox="0.00 0.00 504.00 284.00" xmlns="http://www.w3.org/2000/svg" xmlns:xlink="http://www.w3.org/1999/xlink">
<g id="graph0" class="graph" transform="scale(1 1) rotate(0) translate(4 280)">
<title>dependencies</title>
<polygon fill="white" stroke="transparent" points="-4,4 -4,-280 500,-280 500,4 -4,4"/>
<text text-anchor="start" x="227.01" y="-42.4" font-family="Times-12" font-weight="bold" font-size="14.00">Legend</text>
<polygon fill="#ffffb3" stroke="transparent" points="14,-10 14,-30 34,-30 34,-10 14,-10"/>
<text text-anchor="start" x="37.63" y="-15.4" font-family="Times-12" font-size="14.00"> &#160;Declarations</text>
<polygon fill="#8dd3c7" stroke="transparent" points="127,-10 127,-30 147,-30 147,-10 127,-10"/>
<text text-anchor="start" x="150.73" y="-15.4" font-family="Times-12" font-size="14.00"> &#160;Module</text>
<polygon fill="#80b1d3" stroke="transparent" points="213,-10 213,-30 233,-30 233,-10 213,-10"/>
<text text-anchor="start" x="236.78" y="-15.4" font-family="Times-12" font-size="14.00"> &#160;Bootstrap</text>
<polygon fill="#fdb462" stroke="transparent" points="310,-10 310,-30 330,-30 330,-10 310,-10"/>
<text text-anchor="start" x="333.67" y="-15.4" font-family="Times-12" font-size="14.00"> &#160;Providers</text>
<polygon fill="#fb8072" stroke="transparent" points="406,-10 406,-30 426,-30 426,-10 406,-10"/>
<text text-anchor="start" x="429.73" y="-15.4" font-family="Times-12" font-size="14.00"> &#160;Exports</text>
<g id="clust1" class="cluster">
<title>cluster_BotRandomModule</title>
<polygon fill="none" stroke="black" stroke-dasharray="1,5" points="88,-70 88,-268 408,-268 408,-70 88,-70"/>
</g>
<g id="clust3" class="cluster">
<title>cluster_BotRandomModule_imports</title>
<polygon fill="none" stroke="black" points="100,-78 100,-130 397,-130 397,-78 100,-78"/>
</g>
<g id="clust4" class="cluster">
<title>cluster_BotRandomModule_exports</title>
<polygon fill="none" stroke="black" points="96,-208 96,-260 400,-260 400,-208 96,-208"/>
</g>
<!-- BetGeneratorModule -->
<g id="node1" class="node">
<title>BetGeneratorModule</title>
<polygon fill="#8dd3c7" stroke="black" points="389.45,-122 386.45,-126 365.45,-126 362.45,-122 254.55,-122 254.55,-86 389.45,-86 389.45,-122"/>
<text text-anchor="middle" x="322" y="-99.8" font-family="Times,serif" font-size="14.00">BetGeneratorModule</text>
</g>
<!-- BotRandomModule -->
<g id="node3" class="node">
<title>BotRandomModule</title>
<polygon fill="#8dd3c7" stroke="black" points="236.72,-187 233.72,-191 212.72,-191 209.72,-187 109.28,-187 109.28,-151 236.72,-151 236.72,-187"/>
<text text-anchor="middle" x="173" y="-164.8" font-family="Times,serif" font-size="14.00">BotRandomModule</text>
</g>
<!-- BetGeneratorModule&#45;&gt;BotRandomModule -->
<g id="edge1" class="edge">
<title>BetGeneratorModule&#45;&gt;BotRandomModule</title>
<path fill="none" stroke="black" d="M344.49,-122.02C344.49,-139.37 344.49,-163 344.49,-163 344.49,-163 246.86,-163 246.86,-163"/>
<polygon fill="black" stroke="black" points="246.86,-159.5 236.86,-163 246.86,-166.5 246.86,-159.5"/>
</g>
<!-- SlotRndGenModule -->
<g id="node2" class="node">
<title>SlotRndGenModule</title>
<polygon fill="#8dd3c7" stroke="black" points="236.27,-122 233.27,-126 212.27,-126 209.27,-122 107.73,-122 107.73,-86 236.27,-86 236.27,-122"/>
<text text-anchor="middle" x="172" y="-99.8" font-family="Times,serif" font-size="14.00">SlotRndGenModule</text>
</g>
<!-- SlotRndGenModule&#45;&gt;BotRandomModule -->
<g id="edge2" class="edge">
<title>SlotRndGenModule&#45;&gt;BotRandomModule</title>
<path fill="none" stroke="black" d="M172.89,-122.11C172.89,-122.11 172.89,-140.99 172.89,-140.99"/>
<polygon fill="black" stroke="black" points="169.39,-140.99 172.89,-150.99 176.39,-140.99 169.39,-140.99"/>
</g>
<!-- BetGeneratorModule  -->
<g id="node4" class="node">
<title>BetGeneratorModule </title>
<polygon fill="#fb8072" stroke="black" points="392.45,-252 253.55,-252 253.55,-216 392.45,-216 392.45,-252"/>
<text text-anchor="middle" x="323" y="-229.8" font-family="Times,serif" font-size="14.00">BetGeneratorModule </text>
</g>
<!-- BotRandomModule&#45;&gt;BetGeneratorModule  -->
<g id="edge3" class="edge">
<title>BotRandomModule&#45;&gt;BetGeneratorModule </title>
<path fill="none" stroke="black" stroke-dasharray="5,2" d="M236.62,-175C268.13,-175 299.51,-175 299.51,-175 299.51,-175 299.51,-205.98 299.51,-205.98"/>
<polygon fill="black" stroke="black" points="296.01,-205.98 299.51,-215.98 303.01,-205.98 296.01,-205.98"/>
</g>
<!-- SlotRndGenModule  -->
<g id="node5" class="node">
<title>SlotRndGenModule </title>
<polygon fill="#fb8072" stroke="black" points="236.27,-252 103.73,-252 103.73,-216 236.27,-216 236.27,-252"/>
<text text-anchor="middle" x="170" y="-229.8" font-family="Times,serif" font-size="14.00">SlotRndGenModule </text>
</g>
<!-- BotRandomModule&#45;&gt;SlotRndGenModule  -->
<g id="edge4" class="edge">
<title>BotRandomModule&#45;&gt;SlotRndGenModule </title>
<path fill="none" stroke="black" stroke-dasharray="5,2" d="M172.76,-187.11C172.76,-187.11 172.76,-205.99 172.76,-205.99"/>
<polygon fill="black" stroke="black" points="169.26,-205.99 172.76,-215.99 176.26,-205.99 169.26,-205.99"/>
</g>
</g>
</svg>
