<?xml version="1.0" encoding="UTF-8" standalone="no"?>
<!DOCTYPE svg PUBLIC "-//W3C//DTD SVG 1.1//EN"
 "http://www.w3.org/Graphics/SVG/1.1/DTD/svg11.dtd">
<!-- Generated by graphviz version 2.47.0 (20210316.0004)
 -->
<!-- Title: dependencies Pages: 1 -->
<svg width="2548pt" height="211pt"
 viewBox="0.00 0.00 2548.00 211.00" xmlns="http://www.w3.org/2000/svg" xmlns:xlink="http://www.w3.org/1999/xlink">
<g id="graph0" class="graph" transform="scale(1 1) rotate(0) translate(4 207)">
<title>dependencies</title>
<polygon fill="white" stroke="transparent" points="-4,4 -4,-207 2544,-207 2544,4 -4,4"/>
<text text-anchor="start" x="1249.01" y="-42.4" font-family="Times-12" font-weight="bold" font-size="14.00">Legend</text>
<polygon fill="#ffffb3" stroke="transparent" points="1036,-10 1036,-30 1056,-30 1056,-10 1036,-10"/>
<text text-anchor="start" x="1059.63" y="-15.4" font-family="Times-12" font-size="14.00"> &#160;Declarations</text>
<polygon fill="#8dd3c7" stroke="transparent" points="1149,-10 1149,-30 1169,-30 1169,-10 1149,-10"/>
<text text-anchor="start" x="1172.73" y="-15.4" font-family="Times-12" font-size="14.00"> &#160;Module</text>
<polygon fill="#80b1d3" stroke="transparent" points="1235,-10 1235,-30 1255,-30 1255,-10 1235,-10"/>
<text text-anchor="start" x="1258.78" y="-15.4" font-family="Times-12" font-size="14.00"> &#160;Bootstrap</text>
<polygon fill="#fdb462" stroke="transparent" points="1332,-10 1332,-30 1352,-30 1352,-10 1332,-10"/>
<text text-anchor="start" x="1355.67" y="-15.4" font-family="Times-12" font-size="14.00"> &#160;Providers</text>
<polygon fill="#fb8072" stroke="transparent" points="1428,-10 1428,-30 1448,-30 1448,-10 1428,-10"/>
<text text-anchor="start" x="1451.73" y="-15.4" font-family="Times-12" font-size="14.00"> &#160;Exports</text>
<g id="clust1" class="cluster">
<title>cluster_DebugModule</title>
<polygon fill="none" stroke="black" stroke-dasharray="1,5" points="8,-70 8,-195 2532,-195 2532,-70 8,-70"/>
</g>
<g id="clust6" class="cluster">
<title>cluster_DebugModule_providers</title>
<polygon fill="none" stroke="black" points="1435,-78 1435,-130 2524,-130 2524,-78 1435,-78"/>
</g>
<g id="clust3" class="cluster">
<title>cluster_DebugModule_imports</title>
<polygon fill="none" stroke="black" points="16,-78 16,-130 1427,-130 1427,-78 16,-78"/>
</g>
<!-- AccountingModule -->
<g id="node1" class="node">
<title>AccountingModule</title>
<polygon fill="#8dd3c7" stroke="black" points="1419.37,-122 1416.37,-126 1395.37,-126 1392.37,-122 1294.63,-122 1294.63,-86 1419.37,-86 1419.37,-122"/>
<text text-anchor="middle" x="1357" y="-99.8" font-family="Times,serif" font-size="14.00">AccountingModule</text>
</g>
<!-- DebugModule -->
<g id="node12" class="node">
<title>DebugModule</title>
<polygon fill="#8dd3c7" stroke="black" points="1113.37,-187 1110.37,-191 1089.37,-191 1086.37,-187 1016.63,-187 1016.63,-151 1113.37,-151 1113.37,-187"/>
<text text-anchor="middle" x="1065" y="-164.8" font-family="Times,serif" font-size="14.00">DebugModule</text>
</g>
<!-- AccountingModule&#45;&gt;DebugModule -->
<g id="edge1" class="edge">
<title>AccountingModule&#45;&gt;DebugModule</title>
<path fill="none" stroke="black" d="M1357,-122.03C1357,-138.4 1357,-160 1357,-160 1357,-160 1123.55,-160 1123.55,-160"/>
<polygon fill="black" stroke="black" points="1123.55,-156.5 1113.55,-160 1123.55,-163.5 1123.55,-156.5"/>
</g>
<!-- AuthModule -->
<g id="node2" class="node">
<title>AuthModule</title>
<polygon fill="#8dd3c7" stroke="black" points="1276.55,-122 1273.55,-126 1252.55,-126 1249.55,-122 1189.45,-122 1189.45,-86 1276.55,-86 1276.55,-122"/>
<text text-anchor="middle" x="1233" y="-99.8" font-family="Times,serif" font-size="14.00">AuthModule</text>
</g>
<!-- AuthModule&#45;&gt;DebugModule -->
<g id="edge2" class="edge">
<title>AuthModule&#45;&gt;DebugModule</title>
<path fill="none" stroke="black" d="M1233,-122.19C1233,-137.18 1233,-156 1233,-156 1233,-156 1123.59,-156 1123.59,-156"/>
<polygon fill="black" stroke="black" points="1123.59,-152.5 1113.59,-156 1123.59,-159.5 1123.59,-152.5"/>
</g>
<!-- BetModule -->
<g id="node3" class="node">
<title>BetModule</title>
<polygon fill="#8dd3c7" stroke="black" points="1171.49,-122 1168.49,-126 1147.49,-126 1144.49,-122 1092.51,-122 1092.51,-86 1171.49,-86 1171.49,-122"/>
<text text-anchor="middle" x="1132" y="-99.8" font-family="Times,serif" font-size="14.00">BetModule</text>
</g>
<!-- BetModule&#45;&gt;DebugModule -->
<g id="edge3" class="edge">
<title>BetModule&#45;&gt;DebugModule</title>
<path fill="none" stroke="black" d="M1102.97,-122.11C1102.97,-122.11 1102.97,-140.99 1102.97,-140.99"/>
<polygon fill="black" stroke="black" points="1099.47,-140.99 1102.97,-150.99 1106.47,-140.99 1099.47,-140.99"/>
</g>
<!-- FastTrackDebugModule -->
<g id="node4" class="node">
<title>FastTrackDebugModule</title>
<polygon fill="#8dd3c7" stroke="black" points="1074.35,-122 1071.35,-126 1050.35,-126 1047.35,-122 921.65,-122 921.65,-86 1074.35,-86 1074.35,-122"/>
<text text-anchor="middle" x="998" y="-99.8" font-family="Times,serif" font-size="14.00">FastTrackDebugModule</text>
</g>
<!-- FastTrackDebugModule&#45;&gt;DebugModule -->
<g id="edge4" class="edge">
<title>FastTrackDebugModule&#45;&gt;DebugModule</title>
<path fill="none" stroke="black" d="M1045.49,-122.11C1045.49,-122.11 1045.49,-140.99 1045.49,-140.99"/>
<polygon fill="black" stroke="black" points="1041.99,-140.99 1045.49,-150.99 1048.99,-140.99 1041.99,-140.99"/>
</g>
<!-- GatewayApiModule -->
<g id="node5" class="node">
<title>GatewayApiModule</title>
<polygon fill="#8dd3c7" stroke="black" points="903.29,-122 900.29,-126 879.29,-126 876.29,-122 772.71,-122 772.71,-86 903.29,-86 903.29,-122"/>
<text text-anchor="middle" x="838" y="-99.8" font-family="Times,serif" font-size="14.00">GatewayApiModule</text>
</g>
<!-- GatewayApiModule&#45;&gt;DebugModule -->
<g id="edge5" class="edge">
<title>GatewayApiModule&#45;&gt;DebugModule</title>
<path fill="none" stroke="black" d="M838,-122.19C838,-137.18 838,-156 838,-156 838,-156 1006.58,-156 1006.58,-156"/>
<polygon fill="black" stroke="black" points="1006.58,-159.5 1016.58,-156 1006.58,-152.5 1006.58,-159.5"/>
</g>
<!-- KycModule -->
<g id="node6" class="node">
<title>KycModule</title>
<polygon fill="#8dd3c7" stroke="black" points="754.37,-122 751.37,-126 730.37,-126 727.37,-122 671.63,-122 671.63,-86 754.37,-86 754.37,-122"/>
<text text-anchor="middle" x="713" y="-99.8" font-family="Times,serif" font-size="14.00">KycModule</text>
</g>
<!-- KycModule&#45;&gt;DebugModule -->
<g id="edge6" class="edge">
<title>KycModule&#45;&gt;DebugModule</title>
<path fill="none" stroke="black" d="M713,-122.03C713,-138.4 713,-160 713,-160 713,-160 1006.43,-160 1006.43,-160"/>
<polygon fill="black" stroke="black" points="1006.43,-163.5 1016.43,-160 1006.43,-156.5 1006.43,-163.5"/>
</g>
<!-- NotificationModule -->
<g id="node7" class="node">
<title>NotificationModule</title>
<polygon fill="#8dd3c7" stroke="black" points="653.7,-122 650.7,-126 629.7,-126 626.7,-122 526.3,-122 526.3,-86 653.7,-86 653.7,-122"/>
<text text-anchor="middle" x="590" y="-99.8" font-family="Times,serif" font-size="14.00">NotificationModule</text>
</g>
<!-- NotificationModule&#45;&gt;DebugModule -->
<g id="edge7" class="edge">
<title>NotificationModule&#45;&gt;DebugModule</title>
<path fill="none" stroke="black" d="M590,-122.3C590,-140.27 590,-165 590,-165 590,-165 1006.4,-165 1006.4,-165"/>
<polygon fill="black" stroke="black" points="1006.4,-168.5 1016.4,-165 1006.4,-161.5 1006.4,-168.5"/>
</g>
<!-- NowpaymentsModule -->
<g id="node8" class="node">
<title>NowpaymentsModule</title>
<polygon fill="#8dd3c7" stroke="black" points="508.42,-122 505.42,-126 484.42,-126 481.42,-122 367.58,-122 367.58,-86 508.42,-86 508.42,-122"/>
<text text-anchor="middle" x="438" y="-99.8" font-family="Times,serif" font-size="14.00">NowpaymentsModule</text>
</g>
<!-- NowpaymentsModule&#45;&gt;DebugModule -->
<g id="edge8" class="edge">
<title>NowpaymentsModule&#45;&gt;DebugModule</title>
<path fill="none" stroke="black" d="M438,-122.11C438,-141.34 438,-169 438,-169 438,-169 1006.58,-169 1006.58,-169"/>
<polygon fill="black" stroke="black" points="1006.58,-172.5 1016.58,-169 1006.58,-165.5 1006.58,-172.5"/>
</g>
<!-- PaymentModule -->
<g id="node9" class="node">
<title>PaymentModule</title>
<polygon fill="#8dd3c7" stroke="black" points="350.04,-122 347.04,-126 326.04,-126 323.04,-122 241.96,-122 241.96,-86 350.04,-86 350.04,-122"/>
<text text-anchor="middle" x="296" y="-99.8" font-family="Times,serif" font-size="14.00">PaymentModule</text>
</g>
<!-- PaymentModule&#45;&gt;DebugModule -->
<g id="edge9" class="edge">
<title>PaymentModule&#45;&gt;DebugModule</title>
<path fill="none" stroke="black" d="M296,-122.03C296,-142.77 296,-174 296,-174 296,-174 1006.6,-174 1006.6,-174"/>
<polygon fill="black" stroke="black" points="1006.6,-177.5 1016.6,-174 1006.6,-170.5 1006.6,-177.5"/>
</g>
<!-- PlinkoModule -->
<g id="node10" class="node">
<title>PlinkoModule</title>
<polygon fill="#8dd3c7" stroke="black" points="224.11,-122 221.11,-126 200.11,-126 197.11,-122 127.89,-122 127.89,-86 224.11,-86 224.11,-122"/>
<text text-anchor="middle" x="176" y="-99.8" font-family="Times,serif" font-size="14.00">PlinkoModule</text>
</g>
<!-- PlinkoModule&#45;&gt;DebugModule -->
<g id="edge10" class="edge">
<title>PlinkoModule&#45;&gt;DebugModule</title>
<path fill="none" stroke="black" d="M176,-122.29C176,-144.21 176,-178 176,-178 176,-178 1006.57,-178 1006.57,-178"/>
<polygon fill="black" stroke="black" points="1006.57,-181.5 1016.57,-178 1006.57,-174.5 1006.57,-181.5"/>
</g>
<!-- UserModule -->
<g id="node11" class="node">
<title>UserModule</title>
<polygon fill="#8dd3c7" stroke="black" points="109.98,-122 106.98,-126 85.98,-126 82.98,-122 24.02,-122 24.02,-86 109.98,-86 109.98,-122"/>
<text text-anchor="middle" x="67" y="-99.8" font-family="Times,serif" font-size="14.00">UserModule</text>
</g>
<!-- UserModule&#45;&gt;DebugModule -->
<g id="edge11" class="edge">
<title>UserModule&#45;&gt;DebugModule</title>
<path fill="none" stroke="black" d="M67,-122.32C67,-145.66 67,-183 67,-183 67,-183 1006.53,-183 1006.53,-183"/>
<polygon fill="black" stroke="black" points="1006.53,-186.5 1016.53,-183 1006.53,-179.5 1006.53,-186.5"/>
</g>
<!-- DebugAuthService -->
<g id="node13" class="node">
<title>DebugAuthService</title>
<ellipse fill="#fdb462" stroke="black" cx="2431" cy="-104" rx="85.09" ry="18"/>
<text text-anchor="middle" x="2431" y="-99.8" font-family="Times,serif" font-size="14.00">DebugAuthService</text>
</g>
<!-- DebugAuthService&#45;&gt;DebugModule -->
<g id="edge12" class="edge">
<title>DebugAuthService&#45;&gt;DebugModule</title>
<path fill="none" stroke="black" d="M2431,-122.32C2431,-145.66 2431,-183 2431,-183 2431,-183 1123.62,-183 1123.62,-183"/>
<polygon fill="black" stroke="black" points="1123.62,-179.5 1113.62,-183 1123.62,-186.5 1123.62,-179.5"/>
</g>
<!-- DebugGr8Service -->
<g id="node14" class="node">
<title>DebugGr8Service</title>
<ellipse fill="#fdb462" stroke="black" cx="2247" cy="-104" rx="81" ry="18"/>
<text text-anchor="middle" x="2247" y="-99.8" font-family="Times,serif" font-size="14.00">DebugGr8Service</text>
</g>
<!-- DebugGr8Service&#45;&gt;DebugModule -->
<g id="edge13" class="edge">
<title>DebugGr8Service&#45;&gt;DebugModule</title>
<path fill="none" stroke="black" d="M2247,-122.29C2247,-144.21 2247,-178 2247,-178 2247,-178 1123.54,-178 1123.54,-178"/>
<polygon fill="black" stroke="black" points="1123.54,-174.5 1113.54,-178 1123.54,-181.5 1123.54,-174.5"/>
</g>
<!-- DebugNotificationService -->
<g id="node15" class="node">
<title>DebugNotificationService</title>
<ellipse fill="#fdb462" stroke="black" cx="2036" cy="-104" rx="112.3" ry="18"/>
<text text-anchor="middle" x="2036" y="-99.8" font-family="Times,serif" font-size="14.00">DebugNotificationService</text>
</g>
<!-- DebugNotificationService&#45;&gt;DebugModule -->
<g id="edge14" class="edge">
<title>DebugNotificationService&#45;&gt;DebugModule</title>
<path fill="none" stroke="black" d="M2036,-122.03C2036,-142.77 2036,-174 2036,-174 2036,-174 1123.48,-174 1123.48,-174"/>
<polygon fill="black" stroke="black" points="1123.48,-170.5 1113.48,-174 1123.48,-177.5 1123.48,-170.5"/>
</g>
<!-- DebugNowpaymentsService -->
<g id="node16" class="node">
<title>DebugNowpaymentsService</title>
<ellipse fill="#fdb462" stroke="black" cx="1784" cy="-104" rx="121.53" ry="18"/>
<text text-anchor="middle" x="1784" y="-99.8" font-family="Times,serif" font-size="14.00">DebugNowpaymentsService</text>
</g>
<!-- DebugNowpaymentsService&#45;&gt;DebugModule -->
<g id="edge15" class="edge">
<title>DebugNowpaymentsService&#45;&gt;DebugModule</title>
<path fill="none" stroke="black" d="M1784,-122.11C1784,-141.34 1784,-169 1784,-169 1784,-169 1123.57,-169 1123.57,-169"/>
<polygon fill="black" stroke="black" points="1123.57,-165.5 1113.57,-169 1123.57,-172.5 1123.57,-165.5"/>
</g>
<!-- DebugTestUserService -->
<g id="node17" class="node">
<title>DebugTestUserService</title>
<ellipse fill="#fdb462" stroke="black" cx="1544" cy="-104" rx="100.68" ry="18"/>
<text text-anchor="middle" x="1544" y="-99.8" font-family="Times,serif" font-size="14.00">DebugTestUserService</text>
</g>
<!-- DebugTestUserService&#45;&gt;DebugModule -->
<g id="edge16" class="edge">
<title>DebugTestUserService&#45;&gt;DebugModule</title>
<path fill="none" stroke="black" d="M1544,-122.3C1544,-140.27 1544,-165 1544,-165 1544,-165 1123.57,-165 1123.57,-165"/>
<polygon fill="black" stroke="black" points="1123.57,-161.5 1113.57,-165 1123.57,-168.5 1123.57,-161.5"/>
</g>
</g>
</svg>
