<?xml version="1.0" encoding="UTF-8" standalone="no"?>
<!DOCTYPE svg PUBLIC "-//W3C//DTD SVG 1.1//EN"
 "http://www.w3.org/Graphics/SVG/1.1/DTD/svg11.dtd">
<!-- Generated by graphviz version 2.47.0 (20210316.0004)
 -->
<!-- Title: dependencies Pages: 1 -->
<svg width="720pt" height="211pt"
 viewBox="0.00 0.00 720.00 211.00" xmlns="http://www.w3.org/2000/svg" xmlns:xlink="http://www.w3.org/1999/xlink">
<g id="graph0" class="graph" transform="scale(1 1) rotate(0) translate(4 207)">
<title>dependencies</title>
<polygon fill="white" stroke="transparent" points="-4,4 -4,-207 716,-207 716,4 -4,4"/>
<text text-anchor="start" x="335.01" y="-42.4" font-family="Times-12" font-weight="bold" font-size="14.00">Legend</text>
<polygon fill="#ffffb3" stroke="transparent" points="122,-10 122,-30 142,-30 142,-10 122,-10"/>
<text text-anchor="start" x="145.63" y="-15.4" font-family="Times-12" font-size="14.00"> &#160;Declarations</text>
<polygon fill="#8dd3c7" stroke="transparent" points="235,-10 235,-30 255,-30 255,-10 235,-10"/>
<text text-anchor="start" x="258.73" y="-15.4" font-family="Times-12" font-size="14.00"> &#160;Module</text>
<polygon fill="#80b1d3" stroke="transparent" points="321,-10 321,-30 341,-30 341,-10 321,-10"/>
<text text-anchor="start" x="344.78" y="-15.4" font-family="Times-12" font-size="14.00"> &#160;Bootstrap</text>
<polygon fill="#fdb462" stroke="transparent" points="418,-10 418,-30 438,-30 438,-10 418,-10"/>
<text text-anchor="start" x="441.67" y="-15.4" font-family="Times-12" font-size="14.00"> &#160;Providers</text>
<polygon fill="#fb8072" stroke="transparent" points="514,-10 514,-30 534,-30 534,-10 514,-10"/>
<text text-anchor="start" x="537.73" y="-15.4" font-family="Times-12" font-size="14.00"> &#160;Exports</text>
<g id="clust1" class="cluster">
<title>cluster_SpeedRouletteApiModule</title>
<polygon fill="none" stroke="black" stroke-dasharray="1,5" points="8,-70 8,-195 704,-195 704,-70 8,-70"/>
</g>
<g id="clust6" class="cluster">
<title>cluster_SpeedRouletteApiModule_providers</title>
<polygon fill="none" stroke="black" points="458,-78 458,-130 696,-130 696,-78 458,-78"/>
</g>
<g id="clust3" class="cluster">
<title>cluster_SpeedRouletteApiModule_imports</title>
<polygon fill="none" stroke="black" points="16,-78 16,-130 450,-130 450,-78 16,-78"/>
</g>
<!-- GamesModule -->
<g id="node1" class="node">
<title>GamesModule</title>
<polygon fill="#8dd3c7" stroke="black" points="442.42,-122 439.42,-126 418.42,-126 415.42,-122 343.58,-122 343.58,-86 442.42,-86 442.42,-122"/>
<text text-anchor="middle" x="393" y="-99.8" font-family="Times,serif" font-size="14.00">GamesModule</text>
</g>
<!-- SpeedRouletteApiModule -->
<g id="node4" class="node">
<title>SpeedRouletteApiModule</title>
<polygon fill="#8dd3c7" stroke="black" points="408.2,-187 405.2,-191 384.2,-191 381.2,-187 245.8,-187 245.8,-151 408.2,-151 408.2,-187"/>
<text text-anchor="middle" x="327" y="-164.8" font-family="Times,serif" font-size="14.00">SpeedRouletteApiModule</text>
</g>
<!-- GamesModule&#45;&gt;SpeedRouletteApiModule -->
<g id="edge1" class="edge">
<title>GamesModule&#45;&gt;SpeedRouletteApiModule</title>
<path fill="none" stroke="black" d="M375.94,-122.11C375.94,-122.11 375.94,-140.99 375.94,-140.99"/>
<polygon fill="black" stroke="black" points="372.44,-140.99 375.94,-150.99 379.44,-140.99 372.44,-140.99"/>
</g>
<!-- GatewayApiModule -->
<g id="node2" class="node">
<title>GatewayApiModule</title>
<polygon fill="#8dd3c7" stroke="black" points="326.29,-122 323.29,-126 302.29,-126 299.29,-122 195.71,-122 195.71,-86 326.29,-86 326.29,-122"/>
<text text-anchor="middle" x="261" y="-99.8" font-family="Times,serif" font-size="14.00">GatewayApiModule</text>
</g>
<!-- GatewayApiModule&#45;&gt;SpeedRouletteApiModule -->
<g id="edge2" class="edge">
<title>GatewayApiModule&#45;&gt;SpeedRouletteApiModule</title>
<path fill="none" stroke="black" d="M286.02,-122.11C286.02,-122.11 286.02,-140.99 286.02,-140.99"/>
<polygon fill="black" stroke="black" points="282.52,-140.99 286.02,-150.99 289.52,-140.99 282.52,-140.99"/>
</g>
<!-- HouseValidationModule -->
<g id="node3" class="node">
<title>HouseValidationModule</title>
<polygon fill="#8dd3c7" stroke="black" points="178.41,-122 175.41,-126 154.41,-126 151.41,-122 23.59,-122 23.59,-86 178.41,-86 178.41,-122"/>
<text text-anchor="middle" x="101" y="-99.8" font-family="Times,serif" font-size="14.00">HouseValidationModule</text>
</g>
<!-- HouseValidationModule&#45;&gt;SpeedRouletteApiModule -->
<g id="edge3" class="edge">
<title>HouseValidationModule&#45;&gt;SpeedRouletteApiModule</title>
<path fill="none" stroke="black" d="M101,-122.11C101,-141.34 101,-169 101,-169 101,-169 235.73,-169 235.73,-169"/>
<polygon fill="black" stroke="black" points="235.73,-172.5 245.73,-169 235.73,-165.5 235.73,-172.5"/>
</g>
<!-- SpeedRouletteApiService -->
<g id="node5" class="node">
<title>SpeedRouletteApiService</title>
<ellipse fill="#fdb462" stroke="black" cx="577" cy="-104" rx="110.59" ry="18"/>
<text text-anchor="middle" x="577" y="-99.8" font-family="Times,serif" font-size="14.00">SpeedRouletteApiService</text>
</g>
<!-- SpeedRouletteApiService&#45;&gt;SpeedRouletteApiModule -->
<g id="edge4" class="edge">
<title>SpeedRouletteApiService&#45;&gt;SpeedRouletteApiModule</title>
<path fill="none" stroke="black" d="M577,-122.11C577,-141.34 577,-169 577,-169 577,-169 418.17,-169 418.17,-169"/>
<polygon fill="black" stroke="black" points="418.17,-165.5 408.17,-169 418.17,-172.5 418.17,-165.5"/>
</g>
</g>
</svg>
