<?xml version="1.0" encoding="UTF-8" standalone="no"?>
<!DOCTYPE svg PUBLIC "-//W3C//DTD SVG 1.1//EN"
 "http://www.w3.org/Graphics/SVG/1.1/DTD/svg11.dtd">
<!-- Generated by graphviz version 2.47.0 (20210316.0004)
 -->
<!-- Title: dependencies Pages: 1 -->
<svg width="1210pt" height="284pt"
 viewBox="0.00 0.00 1210.00 284.00" xmlns="http://www.w3.org/2000/svg" xmlns:xlink="http://www.w3.org/1999/xlink">
<g id="graph0" class="graph" transform="scale(1 1) rotate(0) translate(4 280)">
<title>dependencies</title>
<polygon fill="white" stroke="transparent" points="-4,4 -4,-280 1206,-280 1206,4 -4,4"/>
<text text-anchor="start" x="580.01" y="-42.4" font-family="Times-12" font-weight="bold" font-size="14.00">Legend</text>
<polygon fill="#ffffb3" stroke="transparent" points="367,-10 367,-30 387,-30 387,-10 367,-10"/>
<text text-anchor="start" x="390.63" y="-15.4" font-family="Times-12" font-size="14.00"> &#160;Declarations</text>
<polygon fill="#8dd3c7" stroke="transparent" points="480,-10 480,-30 500,-30 500,-10 480,-10"/>
<text text-anchor="start" x="503.73" y="-15.4" font-family="Times-12" font-size="14.00"> &#160;Module</text>
<polygon fill="#80b1d3" stroke="transparent" points="566,-10 566,-30 586,-30 586,-10 566,-10"/>
<text text-anchor="start" x="589.78" y="-15.4" font-family="Times-12" font-size="14.00"> &#160;Bootstrap</text>
<polygon fill="#fdb462" stroke="transparent" points="663,-10 663,-30 683,-30 683,-10 663,-10"/>
<text text-anchor="start" x="686.67" y="-15.4" font-family="Times-12" font-size="14.00"> &#160;Providers</text>
<polygon fill="#fb8072" stroke="transparent" points="759,-10 759,-30 779,-30 779,-10 759,-10"/>
<text text-anchor="start" x="782.73" y="-15.4" font-family="Times-12" font-size="14.00"> &#160;Exports</text>
<g id="clust1" class="cluster">
<title>cluster_GamesModule</title>
<polygon fill="none" stroke="black" stroke-dasharray="1,5" points="8,-70 8,-268 1194,-268 1194,-70 8,-70"/>
</g>
<g id="clust3" class="cluster">
<title>cluster_GamesModule_imports</title>
<polygon fill="none" stroke="black" points="1036,-78 1036,-130 1186,-130 1186,-78 1036,-78"/>
</g>
<g id="clust4" class="cluster">
<title>cluster_GamesModule_exports</title>
<polygon fill="none" stroke="black" points="410,-208 410,-260 854,-260 854,-208 410,-208"/>
</g>
<g id="clust6" class="cluster">
<title>cluster_GamesModule_providers</title>
<polygon fill="none" stroke="black" points="16,-78 16,-130 1028,-130 1028,-78 16,-78"/>
</g>
<!-- HouseGamesModule -->
<g id="node1" class="node">
<title>HouseGamesModule</title>
<polygon fill="#8dd3c7" stroke="black" points="1178.19,-122 1175.19,-126 1154.19,-126 1151.19,-122 1043.81,-122 1043.81,-86 1178.19,-86 1178.19,-122"/>
<text text-anchor="middle" x="1111" y="-99.8" font-family="Times,serif" font-size="14.00">HouseGamesModule</text>
</g>
<!-- GamesModule -->
<g id="node2" class="node">
<title>GamesModule</title>
<polygon fill="#8dd3c7" stroke="black" points="700.42,-187 697.42,-191 676.42,-191 673.42,-187 601.58,-187 601.58,-151 700.42,-151 700.42,-187"/>
<text text-anchor="middle" x="651" y="-164.8" font-family="Times,serif" font-size="14.00">GamesModule</text>
</g>
<!-- HouseGamesModule&#45;&gt;GamesModule -->
<g id="edge1" class="edge">
<title>HouseGamesModule&#45;&gt;GamesModule</title>
<path fill="none" stroke="black" d="M1111,-122.11C1111,-141.34 1111,-169 1111,-169 1111,-169 710.23,-169 710.23,-169"/>
<polygon fill="black" stroke="black" points="710.23,-165.5 700.23,-169 710.23,-172.5 710.23,-165.5"/>
</g>
<!-- GamesService  -->
<g id="node3" class="node">
<title>GamesService </title>
<polygon fill="#fb8072" stroke="black" points="846.35,-252 745.65,-252 745.65,-216 846.35,-216 846.35,-252"/>
<text text-anchor="middle" x="796" y="-229.8" font-family="Times,serif" font-size="14.00">GamesService </text>
</g>
<!-- GamesModule&#45;&gt;GamesService  -->
<g id="edge2" class="edge">
<title>GamesModule&#45;&gt;GamesService </title>
<path fill="none" stroke="black" stroke-dasharray="5,2" d="M700.52,-178C736.9,-178 780.03,-178 780.03,-178 780.03,-178 780.03,-205.97 780.03,-205.97"/>
<polygon fill="black" stroke="black" points="776.53,-205.97 780.03,-215.97 783.53,-205.97 776.53,-205.97"/>
</g>
<!-- GgrCommissionService  -->
<g id="node4" class="node">
<title>GgrCommissionService </title>
<polygon fill="#fb8072" stroke="black" points="728.03,-252 573.97,-252 573.97,-216 728.03,-216 728.03,-252"/>
<text text-anchor="middle" x="651" y="-229.8" font-family="Times,serif" font-size="14.00">GgrCommissionService </text>
</g>
<!-- GamesModule&#45;&gt;GgrCommissionService  -->
<g id="edge3" class="edge">
<title>GamesModule&#45;&gt;GgrCommissionService </title>
<path fill="none" stroke="black" stroke-dasharray="5,2" d="M651,-187.11C651,-187.11 651,-205.99 651,-205.99"/>
<polygon fill="black" stroke="black" points="647.5,-205.99 651,-215.99 654.5,-205.99 647.5,-205.99"/>
</g>
<!-- HouseGamesModule  -->
<g id="node5" class="node">
<title>HouseGamesModule </title>
<polygon fill="#fb8072" stroke="black" points="555.69,-252 418.31,-252 418.31,-216 555.69,-216 555.69,-252"/>
<text text-anchor="middle" x="487" y="-229.8" font-family="Times,serif" font-size="14.00">HouseGamesModule </text>
</g>
<!-- GamesModule&#45;&gt;HouseGamesModule  -->
<g id="edge4" class="edge">
<title>GamesModule&#45;&gt;HouseGamesModule </title>
<path fill="none" stroke="black" stroke-dasharray="5,2" d="M601.74,-178C567.88,-178 529.02,-178 529.02,-178 529.02,-178 529.02,-205.97 529.02,-205.97"/>
<polygon fill="black" stroke="black" points="525.52,-205.97 529.02,-215.97 532.52,-205.97 525.52,-205.97"/>
</g>
<!-- GamesAdminService -->
<g id="node6" class="node">
<title>GamesAdminService</title>
<ellipse fill="#fdb462" stroke="black" cx="926" cy="-104" rx="93.76" ry="18"/>
<text text-anchor="middle" x="926" y="-99.8" font-family="Times,serif" font-size="14.00">GamesAdminService</text>
</g>
<!-- GamesAdminService&#45;&gt;GamesModule -->
<g id="edge5" class="edge">
<title>GamesAdminService&#45;&gt;GamesModule</title>
<path fill="none" stroke="black" d="M839.27,-110.87C839.27,-125.82 839.27,-160 839.27,-160 839.27,-160 710.47,-160 710.47,-160"/>
<polygon fill="black" stroke="black" points="710.47,-156.5 700.47,-160 710.47,-163.5 710.47,-156.5"/>
</g>
<!-- GamesRepository -->
<g id="node7" class="node">
<title>GamesRepository</title>
<ellipse fill="#fdb462" stroke="black" cx="734" cy="-104" rx="80.46" ry="18"/>
<text text-anchor="middle" x="734" y="-99.8" font-family="Times,serif" font-size="14.00">GamesRepository</text>
</g>
<!-- GamesRepository&#45;&gt;GamesModule -->
<g id="edge6" class="edge">
<title>GamesRepository&#45;&gt;GamesModule</title>
<path fill="none" stroke="black" d="M676.99,-116.84C676.99,-116.84 676.99,-140.52 676.99,-140.52"/>
<polygon fill="black" stroke="black" points="673.49,-140.52 676.99,-150.52 680.49,-140.52 673.49,-140.52"/>
</g>
<!-- GamesService -->
<g id="node8" class="node">
<title>GamesService</title>
<ellipse fill="#fdb462" stroke="black" cx="569" cy="-104" rx="66.61" ry="18"/>
<text text-anchor="middle" x="569" y="-99.8" font-family="Times,serif" font-size="14.00">GamesService</text>
</g>
<!-- GamesService&#45;&gt;GamesModule -->
<g id="edge7" class="edge">
<title>GamesService&#45;&gt;GamesModule</title>
<path fill="none" stroke="black" d="M618.8,-116.23C618.8,-116.23 618.8,-140.68 618.8,-140.68"/>
<polygon fill="black" stroke="black" points="615.3,-140.68 618.8,-150.68 622.3,-140.68 615.3,-140.68"/>
</g>
<!-- GgrCommissionRepository -->
<g id="node9" class="node">
<title>GgrCommissionRepository</title>
<ellipse fill="#fdb462" stroke="black" cx="367" cy="-104" rx="117.02" ry="18"/>
<text text-anchor="middle" x="367" y="-99.8" font-family="Times,serif" font-size="14.00">GgrCommissionRepository</text>
</g>
<!-- GgrCommissionRepository&#45;&gt;GamesModule -->
<g id="edge8" class="edge">
<title>GgrCommissionRepository&#45;&gt;GamesModule</title>
<path fill="none" stroke="black" d="M451.21,-116.71C451.21,-133.23 451.21,-160 451.21,-160 451.21,-160 591.61,-160 591.61,-160"/>
<polygon fill="black" stroke="black" points="591.61,-163.5 601.61,-160 591.61,-156.5 591.61,-163.5"/>
</g>
<!-- GgrCommissionService -->
<g id="node10" class="node">
<title>GgrCommissionService</title>
<ellipse fill="#fdb462" stroke="black" cx="128" cy="-104" rx="103.67" ry="18"/>
<text text-anchor="middle" x="128" y="-99.8" font-family="Times,serif" font-size="14.00">GgrCommissionService</text>
</g>
<!-- GgrCommissionService&#45;&gt;GamesModule -->
<g id="edge9" class="edge">
<title>GgrCommissionService&#45;&gt;GamesModule</title>
<path fill="none" stroke="black" d="M128,-122.11C128,-141.34 128,-169 128,-169 128,-169 591.33,-169 591.33,-169"/>
<polygon fill="black" stroke="black" points="591.33,-172.5 601.33,-169 591.33,-165.5 591.33,-172.5"/>
</g>
</g>
</svg>
