<?xml version="1.0" encoding="UTF-8" standalone="no"?>
<!DOCTYPE svg PUBLIC "-//W3C//DTD SVG 1.1//EN"
 "http://www.w3.org/Graphics/SVG/1.1/DTD/svg11.dtd">
<!-- Generated by graphviz version 2.47.0 (20210316.0004)
 -->
<!-- Title: dependencies Pages: 1 -->
<svg width="564pt" height="284pt"
 viewBox="0.00 0.00 564.00 284.00" xmlns="http://www.w3.org/2000/svg" xmlns:xlink="http://www.w3.org/1999/xlink">
<g id="graph0" class="graph" transform="scale(1 1) rotate(0) translate(4 280)">
<title>dependencies</title>
<polygon fill="white" stroke="transparent" points="-4,4 -4,-280 560,-280 560,4 -4,4"/>
<text text-anchor="start" x="257.01" y="-42.4" font-family="Times-12" font-weight="bold" font-size="14.00">Legend</text>
<polygon fill="#ffffb3" stroke="transparent" points="44,-10 44,-30 64,-30 64,-10 44,-10"/>
<text text-anchor="start" x="67.63" y="-15.4" font-family="Times-12" font-size="14.00"> &#160;Declarations</text>
<polygon fill="#8dd3c7" stroke="transparent" points="157,-10 157,-30 177,-30 177,-10 157,-10"/>
<text text-anchor="start" x="180.73" y="-15.4" font-family="Times-12" font-size="14.00"> &#160;Module</text>
<polygon fill="#80b1d3" stroke="transparent" points="243,-10 243,-30 263,-30 263,-10 243,-10"/>
<text text-anchor="start" x="266.78" y="-15.4" font-family="Times-12" font-size="14.00"> &#160;Bootstrap</text>
<polygon fill="#fdb462" stroke="transparent" points="340,-10 340,-30 360,-30 360,-10 340,-10"/>
<text text-anchor="start" x="363.67" y="-15.4" font-family="Times-12" font-size="14.00"> &#160;Providers</text>
<polygon fill="#fb8072" stroke="transparent" points="436,-10 436,-30 456,-30 456,-10 436,-10"/>
<text text-anchor="start" x="459.73" y="-15.4" font-family="Times-12" font-size="14.00"> &#160;Exports</text>
<g id="clust1" class="cluster">
<title>cluster_ProvablyFairModule</title>
<polygon fill="none" stroke="black" stroke-dasharray="1,5" points="8,-70 8,-268 548,-268 548,-70 8,-70"/>
</g>
<g id="clust4" class="cluster">
<title>cluster_ProvablyFairModule_exports</title>
<polygon fill="none" stroke="black" points="251,-208 251,-260 401,-260 401,-208 251,-208"/>
</g>
<g id="clust3" class="cluster">
<title>cluster_ProvablyFairModule_imports</title>
<polygon fill="none" stroke="black" points="446,-78 446,-130 540,-130 540,-78 446,-78"/>
</g>
<g id="clust6" class="cluster">
<title>cluster_ProvablyFairModule_providers</title>
<polygon fill="none" stroke="black" points="16,-78 16,-130 438,-130 438,-78 16,-78"/>
</g>
<!-- BetModule -->
<g id="node1" class="node">
<title>BetModule</title>
<polygon fill="#8dd3c7" stroke="black" points="532.49,-122 529.49,-126 508.49,-126 505.49,-122 453.51,-122 453.51,-86 532.49,-86 532.49,-122"/>
<text text-anchor="middle" x="493" y="-99.8" font-family="Times,serif" font-size="14.00">BetModule</text>
</g>
<!-- ProvablyFairModule -->
<g id="node2" class="node">
<title>ProvablyFairModule</title>
<polygon fill="#8dd3c7" stroke="black" points="392.15,-187 389.15,-191 368.15,-191 365.15,-187 259.85,-187 259.85,-151 392.15,-151 392.15,-187"/>
<text text-anchor="middle" x="326" y="-164.8" font-family="Times,serif" font-size="14.00">ProvablyFairModule</text>
</g>
<!-- BetModule&#45;&gt;ProvablyFairModule -->
<g id="edge1" class="edge">
<title>BetModule&#45;&gt;ProvablyFairModule</title>
<path fill="none" stroke="black" d="M493,-122.11C493,-141.34 493,-169 493,-169 493,-169 402.48,-169 402.48,-169"/>
<polygon fill="black" stroke="black" points="402.48,-165.5 392.48,-169 402.48,-172.5 402.48,-165.5"/>
</g>
<!-- ProvablyFairService  -->
<g id="node3" class="node">
<title>ProvablyFairService </title>
<polygon fill="#fb8072" stroke="black" points="393.08,-252 258.92,-252 258.92,-216 393.08,-216 393.08,-252"/>
<text text-anchor="middle" x="326" y="-229.8" font-family="Times,serif" font-size="14.00">ProvablyFairService </text>
</g>
<!-- ProvablyFairModule&#45;&gt;ProvablyFairService  -->
<g id="edge2" class="edge">
<title>ProvablyFairModule&#45;&gt;ProvablyFairService </title>
<path fill="none" stroke="black" stroke-dasharray="5,2" d="M326,-187.11C326,-187.11 326,-205.99 326,-205.99"/>
<polygon fill="black" stroke="black" points="322.5,-205.99 326,-215.99 329.5,-205.99 322.5,-205.99"/>
</g>
<!-- ProvablyFairRepository -->
<g id="node4" class="node">
<title>ProvablyFairRepository</title>
<ellipse fill="#fdb462" stroke="black" cx="326" cy="-104" rx="103.67" ry="18"/>
<text text-anchor="middle" x="326" y="-99.8" font-family="Times,serif" font-size="14.00">ProvablyFairRepository</text>
</g>
<!-- ProvablyFairRepository&#45;&gt;ProvablyFairModule -->
<g id="edge3" class="edge">
<title>ProvablyFairRepository&#45;&gt;ProvablyFairModule</title>
<path fill="none" stroke="black" d="M326,-122.11C326,-122.11 326,-140.99 326,-140.99"/>
<polygon fill="black" stroke="black" points="322.5,-140.99 326,-150.99 329.5,-140.99 322.5,-140.99"/>
</g>
<!-- ProvablyFairService -->
<g id="node5" class="node">
<title>ProvablyFairService</title>
<ellipse fill="#fdb462" stroke="black" cx="114" cy="-104" rx="90.33" ry="18"/>
<text text-anchor="middle" x="114" y="-99.8" font-family="Times,serif" font-size="14.00">ProvablyFairService</text>
</g>
<!-- ProvablyFairService&#45;&gt;ProvablyFairModule -->
<g id="edge4" class="edge">
<title>ProvablyFairService&#45;&gt;ProvablyFairModule</title>
<path fill="none" stroke="black" d="M114,-122.11C114,-141.34 114,-169 114,-169 114,-169 249.79,-169 249.79,-169"/>
<polygon fill="black" stroke="black" points="249.79,-172.5 259.79,-169 249.79,-165.5 249.79,-172.5"/>
</g>
</g>
</svg>
