<?xml version="1.0" encoding="UTF-8" standalone="no"?>
<!DOCTYPE svg PUBLIC "-//W3C//DTD SVG 1.1//EN"
 "http://www.w3.org/Graphics/SVG/1.1/DTD/svg11.dtd">
<!-- Generated by graphviz version 2.47.0 (20210316.0004)
 -->
<!-- Title: dependencies Pages: 1 -->
<svg width="708pt" height="211pt"
 viewBox="0.00 0.00 708.00 211.00" xmlns="http://www.w3.org/2000/svg" xmlns:xlink="http://www.w3.org/1999/xlink">
<g id="graph0" class="graph" transform="scale(1 1) rotate(0) translate(4 207)">
<title>dependencies</title>
<polygon fill="white" stroke="transparent" points="-4,4 -4,-207 704,-207 704,4 -4,4"/>
<text text-anchor="start" x="329.01" y="-42.4" font-family="Times-12" font-weight="bold" font-size="14.00">Legend</text>
<polygon fill="#ffffb3" stroke="transparent" points="116,-10 116,-30 136,-30 136,-10 116,-10"/>
<text text-anchor="start" x="139.63" y="-15.4" font-family="Times-12" font-size="14.00"> &#160;Declarations</text>
<polygon fill="#8dd3c7" stroke="transparent" points="229,-10 229,-30 249,-30 249,-10 229,-10"/>
<text text-anchor="start" x="252.73" y="-15.4" font-family="Times-12" font-size="14.00"> &#160;Module</text>
<polygon fill="#80b1d3" stroke="transparent" points="315,-10 315,-30 335,-30 335,-10 315,-10"/>
<text text-anchor="start" x="338.78" y="-15.4" font-family="Times-12" font-size="14.00"> &#160;Bootstrap</text>
<polygon fill="#fdb462" stroke="transparent" points="412,-10 412,-30 432,-30 432,-10 412,-10"/>
<text text-anchor="start" x="435.67" y="-15.4" font-family="Times-12" font-size="14.00"> &#160;Providers</text>
<polygon fill="#fb8072" stroke="transparent" points="508,-10 508,-30 528,-30 528,-10 508,-10"/>
<text text-anchor="start" x="531.73" y="-15.4" font-family="Times-12" font-size="14.00"> &#160;Exports</text>
<g id="clust1" class="cluster">
<title>cluster_SportbookModule</title>
<polygon fill="none" stroke="black" stroke-dasharray="1,5" points="8,-70 8,-195 692,-195 692,-70 8,-70"/>
</g>
<g id="clust6" class="cluster">
<title>cluster_SportbookModule_providers</title>
<polygon fill="none" stroke="black" points="508,-78 508,-130 684,-130 684,-78 508,-78"/>
</g>
<g id="clust3" class="cluster">
<title>cluster_SportbookModule_imports</title>
<polygon fill="none" stroke="black" points="16,-78 16,-130 500,-130 500,-78 16,-78"/>
</g>
<!-- AccountingModule -->
<g id="node1" class="node">
<title>AccountingModule</title>
<polygon fill="#8dd3c7" stroke="black" points="492.37,-122 489.37,-126 468.37,-126 465.37,-122 367.63,-122 367.63,-86 492.37,-86 492.37,-122"/>
<text text-anchor="middle" x="430" y="-99.8" font-family="Times,serif" font-size="14.00">AccountingModule</text>
</g>
<!-- SportbookModule -->
<g id="node4" class="node">
<title>SportbookModule</title>
<polygon fill="#8dd3c7" stroke="black" points="411.88,-187 408.88,-191 387.88,-191 384.88,-187 294.12,-187 294.12,-151 411.88,-151 411.88,-187"/>
<text text-anchor="middle" x="353" y="-164.8" font-family="Times,serif" font-size="14.00">SportbookModule</text>
</g>
<!-- AccountingModule&#45;&gt;SportbookModule -->
<g id="edge1" class="edge">
<title>AccountingModule&#45;&gt;SportbookModule</title>
<path fill="none" stroke="black" d="M389.75,-122.11C389.75,-122.11 389.75,-140.99 389.75,-140.99"/>
<polygon fill="black" stroke="black" points="386.25,-140.99 389.75,-150.99 393.25,-140.99 386.25,-140.99"/>
</g>
<!-- SportbookAuthModule -->
<g id="node2" class="node">
<title>SportbookAuthModule</title>
<polygon fill="#8dd3c7" stroke="black" points="349.88,-122 346.88,-126 325.88,-126 322.88,-122 204.12,-122 204.12,-86 349.88,-86 349.88,-122"/>
<text text-anchor="middle" x="277" y="-99.8" font-family="Times,serif" font-size="14.00">SportbookAuthModule</text>
</g>
<!-- SportbookAuthModule&#45;&gt;SportbookModule -->
<g id="edge2" class="edge">
<title>SportbookAuthModule&#45;&gt;SportbookModule</title>
<path fill="none" stroke="black" d="M322,-122.11C322,-122.11 322,-140.99 322,-140.99"/>
<polygon fill="black" stroke="black" points="318.5,-140.99 322,-150.99 325.5,-140.99 318.5,-140.99"/>
</g>
<!-- SportsbookActionModule -->
<g id="node3" class="node">
<title>SportsbookActionModule</title>
<polygon fill="#8dd3c7" stroke="black" points="185.93,-122 182.93,-126 161.93,-126 158.93,-122 24.07,-122 24.07,-86 185.93,-86 185.93,-122"/>
<text text-anchor="middle" x="105" y="-99.8" font-family="Times,serif" font-size="14.00">SportsbookActionModule</text>
</g>
<!-- SportsbookActionModule&#45;&gt;SportbookModule -->
<g id="edge3" class="edge">
<title>SportsbookActionModule&#45;&gt;SportbookModule</title>
<path fill="none" stroke="black" d="M105,-122.11C105,-141.34 105,-169 105,-169 105,-169 283.91,-169 283.91,-169"/>
<polygon fill="black" stroke="black" points="283.91,-172.5 293.91,-169 283.91,-165.5 283.91,-172.5"/>
</g>
<!-- SportbookService -->
<g id="node5" class="node">
<title>SportbookService</title>
<ellipse fill="#fdb462" stroke="black" cx="596" cy="-104" rx="80.46" ry="18"/>
<text text-anchor="middle" x="596" y="-99.8" font-family="Times,serif" font-size="14.00">SportbookService</text>
</g>
<!-- SportbookService&#45;&gt;SportbookModule -->
<g id="edge4" class="edge">
<title>SportbookService&#45;&gt;SportbookModule</title>
<path fill="none" stroke="black" d="M596,-122.11C596,-141.34 596,-169 596,-169 596,-169 422.13,-169 422.13,-169"/>
<polygon fill="black" stroke="black" points="422.13,-165.5 412.13,-169 422.13,-172.5 422.13,-165.5"/>
</g>
</g>
</svg>
