<?xml version="1.0" encoding="UTF-8" standalone="no"?>
<!DOCTYPE svg PUBLIC "-//W3C//DTD SVG 1.1//EN"
 "http://www.w3.org/Graphics/SVG/1.1/DTD/svg11.dtd">
<!-- Generated by graphviz version 2.47.0 (20210316.0004)
 -->
<!-- Title: dependencies Pages: 1 -->
<svg width="720pt" height="284pt"
 viewBox="0.00 0.00 720.00 284.00" xmlns="http://www.w3.org/2000/svg" xmlns:xlink="http://www.w3.org/1999/xlink">
<g id="graph0" class="graph" transform="scale(1 1) rotate(0) translate(4 280)">
<title>dependencies</title>
<polygon fill="white" stroke="transparent" points="-4,4 -4,-280 716,-280 716,4 -4,4"/>
<text text-anchor="start" x="335.01" y="-42.4" font-family="Times-12" font-weight="bold" font-size="14.00">Legend</text>
<polygon fill="#ffffb3" stroke="transparent" points="122,-10 122,-30 142,-30 142,-10 122,-10"/>
<text text-anchor="start" x="145.63" y="-15.4" font-family="Times-12" font-size="14.00"> &#160;Declarations</text>
<polygon fill="#8dd3c7" stroke="transparent" points="235,-10 235,-30 255,-30 255,-10 235,-10"/>
<text text-anchor="start" x="258.73" y="-15.4" font-family="Times-12" font-size="14.00"> &#160;Module</text>
<polygon fill="#80b1d3" stroke="transparent" points="321,-10 321,-30 341,-30 341,-10 321,-10"/>
<text text-anchor="start" x="344.78" y="-15.4" font-family="Times-12" font-size="14.00"> &#160;Bootstrap</text>
<polygon fill="#fdb462" stroke="transparent" points="418,-10 418,-30 438,-30 438,-10 418,-10"/>
<text text-anchor="start" x="441.67" y="-15.4" font-family="Times-12" font-size="14.00"> &#160;Providers</text>
<polygon fill="#fb8072" stroke="transparent" points="514,-10 514,-30 534,-30 534,-10 514,-10"/>
<text text-anchor="start" x="537.73" y="-15.4" font-family="Times-12" font-size="14.00"> &#160;Exports</text>
<g id="clust1" class="cluster">
<title>cluster_KenoModule</title>
<polygon fill="none" stroke="black" stroke-dasharray="1,5" points="8,-70 8,-268 704,-268 704,-70 8,-70"/>
</g>
<g id="clust6" class="cluster">
<title>cluster_KenoModule_providers</title>
<polygon fill="none" stroke="black" points="558,-78 558,-130 696,-130 696,-78 558,-78"/>
</g>
<g id="clust3" class="cluster">
<title>cluster_KenoModule_imports</title>
<polygon fill="none" stroke="black" points="16,-78 16,-130 550,-130 550,-78 16,-78"/>
</g>
<g id="clust4" class="cluster">
<title>cluster_KenoModule_exports</title>
<polygon fill="none" stroke="black" points="342,-208 342,-260 450,-260 450,-208 342,-208"/>
</g>
<!-- BetModule -->
<g id="node1" class="node">
<title>BetModule</title>
<polygon fill="#8dd3c7" stroke="black" points="542.49,-122 539.49,-126 518.49,-126 515.49,-122 463.51,-122 463.51,-86 542.49,-86 542.49,-122"/>
<text text-anchor="middle" x="503" y="-99.8" font-family="Times,serif" font-size="14.00">BetModule</text>
</g>
<!-- KenoModule -->
<g id="node5" class="node">
<title>KenoModule</title>
<polygon fill="#8dd3c7" stroke="black" points="440.87,-187 437.87,-191 416.87,-191 413.87,-187 351.13,-187 351.13,-151 440.87,-151 440.87,-187"/>
<text text-anchor="middle" x="396" y="-164.8" font-family="Times,serif" font-size="14.00">KenoModule</text>
</g>
<!-- BetModule&#45;&gt;KenoModule -->
<g id="edge1" class="edge">
<title>BetModule&#45;&gt;KenoModule</title>
<path fill="none" stroke="black" d="M503,-122.02C503,-139.37 503,-163 503,-163 503,-163 451.07,-163 451.07,-163"/>
<polygon fill="black" stroke="black" points="451.07,-159.5 441.07,-163 451.07,-166.5 451.07,-159.5"/>
</g>
<!-- GamesModule -->
<g id="node2" class="node">
<title>GamesModule</title>
<polygon fill="#8dd3c7" stroke="black" points="445.42,-122 442.42,-126 421.42,-126 418.42,-122 346.58,-122 346.58,-86 445.42,-86 445.42,-122"/>
<text text-anchor="middle" x="396" y="-99.8" font-family="Times,serif" font-size="14.00">GamesModule</text>
</g>
<!-- GamesModule&#45;&gt;KenoModule -->
<g id="edge2" class="edge">
<title>GamesModule&#45;&gt;KenoModule</title>
<path fill="none" stroke="black" d="M396,-122.11C396,-122.11 396,-140.99 396,-140.99"/>
<polygon fill="black" stroke="black" points="392.5,-140.99 396,-150.99 399.5,-140.99 392.5,-140.99"/>
</g>
<!-- HouseValidationModule -->
<g id="node3" class="node">
<title>HouseValidationModule</title>
<polygon fill="#8dd3c7" stroke="black" points="329.41,-122 326.41,-126 305.41,-126 302.41,-122 174.59,-122 174.59,-86 329.41,-86 329.41,-122"/>
<text text-anchor="middle" x="252" y="-99.8" font-family="Times,serif" font-size="14.00">HouseValidationModule</text>
</g>
<!-- HouseValidationModule&#45;&gt;KenoModule -->
<g id="edge3" class="edge">
<title>HouseValidationModule&#45;&gt;KenoModule</title>
<path fill="none" stroke="black" d="M252,-122.02C252,-139.37 252,-163 252,-163 252,-163 340.83,-163 340.83,-163"/>
<polygon fill="black" stroke="black" points="340.83,-166.5 350.83,-163 340.83,-159.5 340.83,-166.5"/>
</g>
<!-- ProvablyFairModule -->
<g id="node4" class="node">
<title>ProvablyFairModule</title>
<polygon fill="#8dd3c7" stroke="black" points="156.15,-122 153.15,-126 132.15,-126 129.15,-122 23.85,-122 23.85,-86 156.15,-86 156.15,-122"/>
<text text-anchor="middle" x="90" y="-99.8" font-family="Times,serif" font-size="14.00">ProvablyFairModule</text>
</g>
<!-- ProvablyFairModule&#45;&gt;KenoModule -->
<g id="edge4" class="edge">
<title>ProvablyFairModule&#45;&gt;KenoModule</title>
<path fill="none" stroke="black" d="M90,-122.28C90,-143.32 90,-175 90,-175 90,-175 340.85,-175 340.85,-175"/>
<polygon fill="black" stroke="black" points="340.85,-178.5 350.85,-175 340.85,-171.5 340.85,-178.5"/>
</g>
<!-- KenoService  -->
<g id="node6" class="node">
<title>KenoService </title>
<polygon fill="#fb8072" stroke="black" points="441.8,-252 350.2,-252 350.2,-216 441.8,-216 441.8,-252"/>
<text text-anchor="middle" x="396" y="-229.8" font-family="Times,serif" font-size="14.00">KenoService </text>
</g>
<!-- KenoModule&#45;&gt;KenoService  -->
<g id="edge5" class="edge">
<title>KenoModule&#45;&gt;KenoService </title>
<path fill="none" stroke="black" stroke-dasharray="5,2" d="M396,-187.11C396,-187.11 396,-205.99 396,-205.99"/>
<polygon fill="black" stroke="black" points="392.5,-205.99 396,-215.99 399.5,-205.99 392.5,-205.99"/>
</g>
<!-- KenoService -->
<g id="node7" class="node">
<title>KenoService</title>
<ellipse fill="#fdb462" stroke="black" cx="627" cy="-104" rx="60.81" ry="18"/>
<text text-anchor="middle" x="627" y="-99.8" font-family="Times,serif" font-size="14.00">KenoService</text>
</g>
<!-- KenoService&#45;&gt;KenoModule -->
<g id="edge6" class="edge">
<title>KenoService&#45;&gt;KenoModule</title>
<path fill="none" stroke="black" d="M627,-122.28C627,-143.32 627,-175 627,-175 627,-175 451.09,-175 451.09,-175"/>
<polygon fill="black" stroke="black" points="451.09,-171.5 441.09,-175 451.09,-178.5 451.09,-171.5"/>
</g>
</g>
</svg>
