<?xml version="1.0" encoding="UTF-8" standalone="no"?>
<!DOCTYPE svg PUBLIC "-//W3C//DTD SVG 1.1//EN"
 "http://www.w3.org/Graphics/SVG/1.1/DTD/svg11.dtd">
<!-- Generated by graphviz version 2.47.0 (20210316.0004)
 -->
<!-- Title: dependencies Pages: 1 -->
<svg width="1213pt" height="284pt"
 viewBox="0.00 0.00 1213.00 284.00" xmlns="http://www.w3.org/2000/svg" xmlns:xlink="http://www.w3.org/1999/xlink">
<g id="graph0" class="graph" transform="scale(1 1) rotate(0) translate(4 280)">
<title>dependencies</title>
<polygon fill="white" stroke="transparent" points="-4,4 -4,-280 1209,-280 1209,4 -4,4"/>
<text text-anchor="start" x="581.51" y="-42.4" font-family="Times-12" font-weight="bold" font-size="14.00">Legend</text>
<polygon fill="#ffffb3" stroke="transparent" points="368.5,-10 368.5,-30 388.5,-30 388.5,-10 368.5,-10"/>
<text text-anchor="start" x="392.13" y="-15.4" font-family="Times-12" font-size="14.00"> &#160;Declarations</text>
<polygon fill="#8dd3c7" stroke="transparent" points="481.5,-10 481.5,-30 501.5,-30 501.5,-10 481.5,-10"/>
<text text-anchor="start" x="505.23" y="-15.4" font-family="Times-12" font-size="14.00"> &#160;Module</text>
<polygon fill="#80b1d3" stroke="transparent" points="567.5,-10 567.5,-30 587.5,-30 587.5,-10 567.5,-10"/>
<text text-anchor="start" x="591.28" y="-15.4" font-family="Times-12" font-size="14.00"> &#160;Bootstrap</text>
<polygon fill="#fdb462" stroke="transparent" points="664.5,-10 664.5,-30 684.5,-30 684.5,-10 664.5,-10"/>
<text text-anchor="start" x="688.17" y="-15.4" font-family="Times-12" font-size="14.00"> &#160;Providers</text>
<polygon fill="#fb8072" stroke="transparent" points="760.5,-10 760.5,-30 780.5,-30 780.5,-10 760.5,-10"/>
<text text-anchor="start" x="784.23" y="-15.4" font-family="Times-12" font-size="14.00"> &#160;Exports</text>
<g id="clust1" class="cluster">
<title>cluster_PaymentProviderModule</title>
<polygon fill="none" stroke="black" stroke-dasharray="1,5" points="8,-70 8,-268 1197,-268 1197,-70 8,-70"/>
</g>
<g id="clust4" class="cluster">
<title>cluster_PaymentProviderModule_exports</title>
<polygon fill="none" stroke="black" points="397,-208 397,-260 571,-260 571,-208 397,-208"/>
</g>
<g id="clust6" class="cluster">
<title>cluster_PaymentProviderModule_providers</title>
<polygon fill="none" stroke="black" points="700,-78 700,-130 1189,-130 1189,-78 700,-78"/>
</g>
<g id="clust3" class="cluster">
<title>cluster_PaymentProviderModule_imports</title>
<polygon fill="none" stroke="black" points="16,-78 16,-130 692,-130 692,-78 16,-78"/>
</g>
<!-- CCPaymentModule -->
<g id="node1" class="node">
<title>CCPaymentModule</title>
<polygon fill="#8dd3c7" stroke="black" points="683.72,-122 680.72,-126 659.72,-126 656.72,-122 556.28,-122 556.28,-86 683.72,-86 683.72,-122"/>
<text text-anchor="middle" x="620" y="-99.8" font-family="Times,serif" font-size="14.00">CCPaymentModule</text>
</g>
<!-- PaymentProviderModule -->
<g id="node6" class="node">
<title>PaymentProviderModule</title>
<polygon fill="#8dd3c7" stroke="black" points="562.25,-187 559.25,-191 538.25,-191 535.25,-187 405.75,-187 405.75,-151 562.25,-151 562.25,-187"/>
<text text-anchor="middle" x="484" y="-164.8" font-family="Times,serif" font-size="14.00">PaymentProviderModule</text>
</g>
<!-- CCPaymentModule&#45;&gt;PaymentProviderModule -->
<g id="edge1" class="edge">
<title>CCPaymentModule&#45;&gt;PaymentProviderModule</title>
<path fill="none" stroke="black" d="M556.24,-104C550.81,-104 547.33,-104 547.33,-104 547.33,-104 547.33,-140.89 547.33,-140.89"/>
<polygon fill="black" stroke="black" points="543.83,-140.89 547.33,-150.89 550.83,-140.89 543.83,-140.89"/>
</g>
<!-- NetworkModule -->
<g id="node2" class="node">
<title>NetworkModule</title>
<polygon fill="#8dd3c7" stroke="black" points="538.03,-122 535.03,-126 514.03,-126 511.03,-122 429.97,-122 429.97,-86 538.03,-86 538.03,-122"/>
<text text-anchor="middle" x="484" y="-99.8" font-family="Times,serif" font-size="14.00">NetworkModule</text>
</g>
<!-- NetworkModule&#45;&gt;PaymentProviderModule -->
<g id="edge2" class="edge">
<title>NetworkModule&#45;&gt;PaymentProviderModule</title>
<path fill="none" stroke="black" d="M484,-122.11C484,-122.11 484,-140.99 484,-140.99"/>
<polygon fill="black" stroke="black" points="480.5,-140.99 484,-150.99 487.5,-140.99 480.5,-140.99"/>
</g>
<!-- NowpaymentsModule -->
<g id="node3" class="node">
<title>NowpaymentsModule</title>
<polygon fill="#8dd3c7" stroke="black" points="412.42,-122 409.42,-126 388.42,-126 385.42,-122 271.58,-122 271.58,-86 412.42,-86 412.42,-122"/>
<text text-anchor="middle" x="342" y="-99.8" font-family="Times,serif" font-size="14.00">NowpaymentsModule</text>
</g>
<!-- NowpaymentsModule&#45;&gt;PaymentProviderModule -->
<g id="edge3" class="edge">
<title>NowpaymentsModule&#45;&gt;PaymentProviderModule</title>
<path fill="none" stroke="black" d="M412.22,-104C417.59,-104 420.97,-104 420.97,-104 420.97,-104 420.97,-140.89 420.97,-140.89"/>
<polygon fill="black" stroke="black" points="417.47,-140.89 420.97,-150.89 424.47,-140.89 417.47,-140.89"/>
</g>
<!-- SkinDeckModule -->
<g id="node4" class="node">
<title>SkinDeckModule</title>
<polygon fill="#8dd3c7" stroke="black" points="253.26,-122 250.26,-126 229.26,-126 226.26,-122 138.74,-122 138.74,-86 253.26,-86 253.26,-122"/>
<text text-anchor="middle" x="196" y="-99.8" font-family="Times,serif" font-size="14.00">SkinDeckModule</text>
</g>
<!-- SkinDeckModule&#45;&gt;PaymentProviderModule -->
<g id="edge4" class="edge">
<title>SkinDeckModule&#45;&gt;PaymentProviderModule</title>
<path fill="none" stroke="black" d="M196,-122.02C196,-139.37 196,-163 196,-163 196,-163 395.68,-163 395.68,-163"/>
<polygon fill="black" stroke="black" points="395.68,-166.5 405.68,-163 395.68,-159.5 395.68,-166.5"/>
</g>
<!-- WalletModule -->
<g id="node5" class="node">
<title>WalletModule</title>
<polygon fill="#8dd3c7" stroke="black" points="120.37,-122 117.37,-126 96.37,-126 93.37,-122 23.63,-122 23.63,-86 120.37,-86 120.37,-122"/>
<text text-anchor="middle" x="72" y="-99.8" font-family="Times,serif" font-size="14.00">WalletModule</text>
</g>
<!-- WalletModule&#45;&gt;PaymentProviderModule -->
<g id="edge5" class="edge">
<title>WalletModule&#45;&gt;PaymentProviderModule</title>
<path fill="none" stroke="black" d="M72,-122.28C72,-143.32 72,-175 72,-175 72,-175 395.54,-175 395.54,-175"/>
<polygon fill="black" stroke="black" points="395.54,-178.5 405.54,-175 395.54,-171.5 395.54,-178.5"/>
</g>
<!-- PaymentProviderService  -->
<g id="node7" class="node">
<title>PaymentProviderService </title>
<polygon fill="#fb8072" stroke="black" points="563.18,-252 404.82,-252 404.82,-216 563.18,-216 563.18,-252"/>
<text text-anchor="middle" x="484" y="-229.8" font-family="Times,serif" font-size="14.00">PaymentProviderService </text>
</g>
<!-- PaymentProviderModule&#45;&gt;PaymentProviderService  -->
<g id="edge6" class="edge">
<title>PaymentProviderModule&#45;&gt;PaymentProviderService </title>
<path fill="none" stroke="black" stroke-dasharray="5,2" d="M484,-187.11C484,-187.11 484,-205.99 484,-205.99"/>
<polygon fill="black" stroke="black" points="480.5,-205.99 484,-215.99 487.5,-205.99 480.5,-205.99"/>
</g>
<!-- PaymentProviderRepository -->
<g id="node8" class="node">
<title>PaymentProviderRepository</title>
<ellipse fill="#fdb462" stroke="black" cx="1061" cy="-104" rx="120.43" ry="18"/>
<text text-anchor="middle" x="1061" y="-99.8" font-family="Times,serif" font-size="14.00">PaymentProviderRepository</text>
</g>
<!-- PaymentProviderRepository&#45;&gt;PaymentProviderModule -->
<g id="edge7" class="edge">
<title>PaymentProviderRepository&#45;&gt;PaymentProviderModule</title>
<path fill="none" stroke="black" d="M1061,-122.28C1061,-143.32 1061,-175 1061,-175 1061,-175 572.42,-175 572.42,-175"/>
<polygon fill="black" stroke="black" points="572.42,-171.5 562.42,-175 572.42,-178.5 572.42,-171.5"/>
</g>
<!-- PaymentProviderService -->
<g id="node9" class="node">
<title>PaymentProviderService</title>
<ellipse fill="#fdb462" stroke="black" cx="815" cy="-104" rx="107.08" ry="18"/>
<text text-anchor="middle" x="815" y="-99.8" font-family="Times,serif" font-size="14.00">PaymentProviderService</text>
</g>
<!-- PaymentProviderService&#45;&gt;PaymentProviderModule -->
<g id="edge8" class="edge">
<title>PaymentProviderService&#45;&gt;PaymentProviderModule</title>
<path fill="none" stroke="black" d="M815,-122.02C815,-139.37 815,-163 815,-163 815,-163 572.44,-163 572.44,-163"/>
<polygon fill="black" stroke="black" points="572.44,-159.5 562.44,-163 572.44,-166.5 572.44,-159.5"/>
</g>
</g>
</svg>
