<?xml version="1.0" encoding="UTF-8" standalone="no"?>
<!DOCTYPE svg PUBLIC "-//W3C//DTD SVG 1.1//EN"
 "http://www.w3.org/Graphics/SVG/1.1/DTD/svg11.dtd">
<!-- Generated by graphviz version 2.47.0 (20210316.0004)
 -->
<!-- Title: dependencies Pages: 1 -->
<svg width="1252pt" height="211pt"
 viewBox="0.00 0.00 1252.00 211.00" xmlns="http://www.w3.org/2000/svg" xmlns:xlink="http://www.w3.org/1999/xlink">
<g id="graph0" class="graph" transform="scale(1 1) rotate(0) translate(4 207)">
<title>dependencies</title>
<polygon fill="white" stroke="transparent" points="-4,4 -4,-207 1248,-207 1248,4 -4,4"/>
<text text-anchor="start" x="601.01" y="-42.4" font-family="Times-12" font-weight="bold" font-size="14.00">Legend</text>
<polygon fill="#ffffb3" stroke="transparent" points="388,-10 388,-30 408,-30 408,-10 388,-10"/>
<text text-anchor="start" x="411.63" y="-15.4" font-family="Times-12" font-size="14.00"> &#160;Declarations</text>
<polygon fill="#8dd3c7" stroke="transparent" points="501,-10 501,-30 521,-30 521,-10 501,-10"/>
<text text-anchor="start" x="524.73" y="-15.4" font-family="Times-12" font-size="14.00"> &#160;Module</text>
<polygon fill="#80b1d3" stroke="transparent" points="587,-10 587,-30 607,-30 607,-10 587,-10"/>
<text text-anchor="start" x="610.78" y="-15.4" font-family="Times-12" font-size="14.00"> &#160;Bootstrap</text>
<polygon fill="#fdb462" stroke="transparent" points="684,-10 684,-30 704,-30 704,-10 684,-10"/>
<text text-anchor="start" x="707.67" y="-15.4" font-family="Times-12" font-size="14.00"> &#160;Providers</text>
<polygon fill="#fb8072" stroke="transparent" points="780,-10 780,-30 800,-30 800,-10 780,-10"/>
<text text-anchor="start" x="803.73" y="-15.4" font-family="Times-12" font-size="14.00"> &#160;Exports</text>
<g id="clust1" class="cluster">
<title>cluster_TelegramModule</title>
<polygon fill="none" stroke="black" stroke-dasharray="1,5" points="8,-70 8,-195 1236,-195 1236,-70 8,-70"/>
</g>
<g id="clust6" class="cluster">
<title>cluster_TelegramModule_providers</title>
<polygon fill="none" stroke="black" points="294,-78 294,-130 1228,-130 1228,-78 294,-78"/>
</g>
<g id="clust3" class="cluster">
<title>cluster_TelegramModule_imports</title>
<polygon fill="none" stroke="black" points="16,-78 16,-130 286,-130 286,-78 16,-78"/>
</g>
<!-- SiteConfigModule -->
<g id="node1" class="node">
<title>SiteConfigModule</title>
<polygon fill="#8dd3c7" stroke="black" points="278.22,-122 275.22,-126 254.22,-126 251.22,-122 157.78,-122 157.78,-86 278.22,-86 278.22,-122"/>
<text text-anchor="middle" x="218" y="-99.8" font-family="Times,serif" font-size="14.00">SiteConfigModule</text>
</g>
<!-- TelegramModule -->
<g id="node3" class="node">
<title>TelegramModule</title>
<polygon fill="#8dd3c7" stroke="black" points="527.69,-187 524.69,-191 503.69,-191 500.69,-187 414.31,-187 414.31,-151 527.69,-151 527.69,-187"/>
<text text-anchor="middle" x="471" y="-164.8" font-family="Times,serif" font-size="14.00">TelegramModule</text>
</g>
<!-- SiteConfigModule&#45;&gt;TelegramModule -->
<g id="edge1" class="edge">
<title>SiteConfigModule&#45;&gt;TelegramModule</title>
<path fill="none" stroke="black" d="M218,-122.02C218,-139.37 218,-163 218,-163 218,-163 404.22,-163 404.22,-163"/>
<polygon fill="black" stroke="black" points="404.22,-166.5 414.22,-163 404.22,-159.5 404.22,-166.5"/>
</g>
<!-- WithdrawModule -->
<g id="node2" class="node">
<title>WithdrawModule</title>
<polygon fill="#8dd3c7" stroke="black" points="139.53,-122 136.53,-126 115.53,-126 112.53,-122 24.47,-122 24.47,-86 139.53,-86 139.53,-122"/>
<text text-anchor="middle" x="82" y="-99.8" font-family="Times,serif" font-size="14.00">WithdrawModule</text>
</g>
<!-- WithdrawModule&#45;&gt;TelegramModule -->
<g id="edge2" class="edge">
<title>WithdrawModule&#45;&gt;TelegramModule</title>
<path fill="none" stroke="black" d="M82,-122.28C82,-143.32 82,-175 82,-175 82,-175 404.02,-175 404.02,-175"/>
<polygon fill="black" stroke="black" points="404.02,-178.5 414.02,-175 404.02,-171.5 404.02,-178.5"/>
</g>
<!-- TelegramCallbackActionsService -->
<g id="node4" class="node">
<title>TelegramCallbackActionsService</title>
<ellipse fill="#fdb462" stroke="black" cx="1079" cy="-104" rx="141.21" ry="18"/>
<text text-anchor="middle" x="1079" y="-99.8" font-family="Times,serif" font-size="14.00">TelegramCallbackActionsService</text>
</g>
<!-- TelegramCallbackActionsService&#45;&gt;TelegramModule -->
<g id="edge3" class="edge">
<title>TelegramCallbackActionsService&#45;&gt;TelegramModule</title>
<path fill="none" stroke="black" d="M1079,-122.28C1079,-143.32 1079,-175 1079,-175 1079,-175 537.65,-175 537.65,-175"/>
<polygon fill="black" stroke="black" points="537.65,-171.5 527.65,-175 537.65,-178.5 537.65,-171.5"/>
</g>
<!-- TelegramNotificationService -->
<g id="node5" class="node">
<title>TelegramNotificationService</title>
<ellipse fill="#fdb462" stroke="black" cx="796" cy="-104" rx="123.81" ry="18"/>
<text text-anchor="middle" x="796" y="-99.8" font-family="Times,serif" font-size="14.00">TelegramNotificationService</text>
</g>
<!-- TelegramNotificationService&#45;&gt;TelegramModule -->
<g id="edge4" class="edge">
<title>TelegramNotificationService&#45;&gt;TelegramModule</title>
<path fill="none" stroke="black" d="M796,-122.02C796,-139.37 796,-163 796,-163 796,-163 537.61,-163 537.61,-163"/>
<polygon fill="black" stroke="black" points="537.61,-159.5 527.61,-163 537.61,-166.5 537.61,-159.5"/>
</g>
<!-- TelegramRepository -->
<g id="node6" class="node">
<title>TelegramRepository</title>
<ellipse fill="#fdb462" stroke="black" cx="564" cy="-104" rx="90.33" ry="18"/>
<text text-anchor="middle" x="564" y="-99.8" font-family="Times,serif" font-size="14.00">TelegramRepository</text>
</g>
<!-- TelegramRepository&#45;&gt;TelegramModule -->
<g id="edge5" class="edge">
<title>TelegramRepository&#45;&gt;TelegramModule</title>
<path fill="none" stroke="black" d="M500.59,-116.84C500.59,-116.84 500.59,-140.52 500.59,-140.52"/>
<polygon fill="black" stroke="black" points="497.09,-140.52 500.59,-150.52 504.09,-140.52 497.09,-140.52"/>
</g>
<!-- TelegramService -->
<g id="node7" class="node">
<title>TelegramService</title>
<ellipse fill="#fdb462" stroke="black" cx="379" cy="-104" rx="76.98" ry="18"/>
<text text-anchor="middle" x="379" y="-99.8" font-family="Times,serif" font-size="14.00">TelegramService</text>
</g>
<!-- TelegramService&#45;&gt;TelegramModule -->
<g id="edge6" class="edge">
<title>TelegramService&#45;&gt;TelegramModule</title>
<path fill="none" stroke="black" d="M435.2,-116.53C435.2,-116.53 435.2,-140.85 435.2,-140.85"/>
<polygon fill="black" stroke="black" points="431.7,-140.85 435.2,-150.85 438.7,-140.85 431.7,-140.85"/>
</g>
</g>
</svg>
