<?xml version="1.0" encoding="UTF-8" standalone="no"?>
<!DOCTYPE svg PUBLIC "-//W3C//DTD SVG 1.1//EN"
 "http://www.w3.org/Graphics/SVG/1.1/DTD/svg11.dtd">
<!-- Generated by graphviz version 2.47.0 (20210316.0004)
 -->
<!-- Title: dependencies Pages: 1 -->
<svg width="1213pt" height="284pt"
 viewBox="0.00 0.00 1213.00 284.00" xmlns="http://www.w3.org/2000/svg" xmlns:xlink="http://www.w3.org/1999/xlink">
<g id="graph0" class="graph" transform="scale(1 1) rotate(0) translate(4 280)">
<title>dependencies</title>
<polygon fill="white" stroke="transparent" points="-4,4 -4,-280 1209,-280 1209,4 -4,4"/>
<text text-anchor="start" x="581.51" y="-42.4" font-family="Times-12" font-weight="bold" font-size="14.00">Legend</text>
<polygon fill="#ffffb3" stroke="transparent" points="368.5,-10 368.5,-30 388.5,-30 388.5,-10 368.5,-10"/>
<text text-anchor="start" x="392.13" y="-15.4" font-family="Times-12" font-size="14.00"> &#160;Declarations</text>
<polygon fill="#8dd3c7" stroke="transparent" points="481.5,-10 481.5,-30 501.5,-30 501.5,-10 481.5,-10"/>
<text text-anchor="start" x="505.23" y="-15.4" font-family="Times-12" font-size="14.00"> &#160;Module</text>
<polygon fill="#80b1d3" stroke="transparent" points="567.5,-10 567.5,-30 587.5,-30 587.5,-10 567.5,-10"/>
<text text-anchor="start" x="591.28" y="-15.4" font-family="Times-12" font-size="14.00"> &#160;Bootstrap</text>
<polygon fill="#fdb462" stroke="transparent" points="664.5,-10 664.5,-30 684.5,-30 684.5,-10 664.5,-10"/>
<text text-anchor="start" x="688.17" y="-15.4" font-family="Times-12" font-size="14.00"> &#160;Providers</text>
<polygon fill="#fb8072" stroke="transparent" points="760.5,-10 760.5,-30 780.5,-30 780.5,-10 760.5,-10"/>
<text text-anchor="start" x="784.23" y="-15.4" font-family="Times-12" font-size="14.00"> &#160;Exports</text>
<g id="clust1" class="cluster">
<title>cluster_LeaderboardModule</title>
<polygon fill="none" stroke="black" stroke-dasharray="1,5" points="8,-70 8,-268 1197,-268 1197,-70 8,-70"/>
</g>
<g id="clust3" class="cluster">
<title>cluster_LeaderboardModule_imports</title>
<polygon fill="none" stroke="black" points="932,-78 932,-130 1189,-130 1189,-78 932,-78"/>
</g>
<g id="clust6" class="cluster">
<title>cluster_LeaderboardModule_providers</title>
<polygon fill="none" stroke="black" points="16,-78 16,-130 924,-130 924,-78 16,-78"/>
</g>
<g id="clust4" class="cluster">
<title>cluster_LeaderboardModule_exports</title>
<polygon fill="none" stroke="black" points="611,-208 611,-260 759,-260 759,-208 611,-208"/>
</g>
<!-- AccountingModule -->
<g id="node1" class="node">
<title>AccountingModule</title>
<polygon fill="#8dd3c7" stroke="black" points="1181.37,-122 1178.37,-126 1157.37,-126 1154.37,-122 1056.63,-122 1056.63,-86 1181.37,-86 1181.37,-122"/>
<text text-anchor="middle" x="1119" y="-99.8" font-family="Times,serif" font-size="14.00">AccountingModule</text>
</g>
<!-- LeaderboardModule -->
<g id="node3" class="node">
<title>LeaderboardModule</title>
<polygon fill="#8dd3c7" stroke="black" points="750.28,-187 747.28,-191 726.28,-191 723.28,-187 619.72,-187 619.72,-151 750.28,-151 750.28,-187"/>
<text text-anchor="middle" x="685" y="-164.8" font-family="Times,serif" font-size="14.00">LeaderboardModule</text>
</g>
<!-- AccountingModule&#45;&gt;LeaderboardModule -->
<g id="edge1" class="edge">
<title>AccountingModule&#45;&gt;LeaderboardModule</title>
<path fill="none" stroke="black" d="M1119,-122.28C1119,-143.32 1119,-175 1119,-175 1119,-175 760.44,-175 760.44,-175"/>
<polygon fill="black" stroke="black" points="760.44,-171.5 750.44,-175 760.44,-178.5 760.44,-171.5"/>
</g>
<!-- PrismaModule -->
<g id="node2" class="node">
<title>PrismaModule</title>
<polygon fill="#8dd3c7" stroke="black" points="1038.43,-122 1035.43,-126 1014.43,-126 1011.43,-122 939.57,-122 939.57,-86 1038.43,-86 1038.43,-122"/>
<text text-anchor="middle" x="989" y="-99.8" font-family="Times,serif" font-size="14.00">PrismaModule</text>
</g>
<!-- PrismaModule&#45;&gt;LeaderboardModule -->
<g id="edge2" class="edge">
<title>PrismaModule&#45;&gt;LeaderboardModule</title>
<path fill="none" stroke="black" d="M989,-122.02C989,-139.37 989,-163 989,-163 989,-163 760.22,-163 760.22,-163"/>
<polygon fill="black" stroke="black" points="760.22,-159.5 750.22,-163 760.22,-166.5 760.22,-159.5"/>
</g>
<!-- LeaderboardService  -->
<g id="node4" class="node">
<title>LeaderboardService </title>
<polygon fill="#fb8072" stroke="black" points="751.21,-252 618.79,-252 618.79,-216 751.21,-216 751.21,-252"/>
<text text-anchor="middle" x="685" y="-229.8" font-family="Times,serif" font-size="14.00">LeaderboardService </text>
</g>
<!-- LeaderboardModule&#45;&gt;LeaderboardService  -->
<g id="edge3" class="edge">
<title>LeaderboardModule&#45;&gt;LeaderboardService </title>
<path fill="none" stroke="black" stroke-dasharray="5,2" d="M685,-187.11C685,-187.11 685,-205.99 685,-205.99"/>
<polygon fill="black" stroke="black" points="681.5,-205.99 685,-215.99 688.5,-205.99 681.5,-205.99"/>
</g>
<!-- LeaderboardCrudService -->
<g id="node5" class="node">
<title>LeaderboardCrudService</title>
<ellipse fill="#fdb462" stroke="black" cx="808" cy="-104" rx="108.19" ry="18"/>
<text text-anchor="middle" x="808" y="-99.8" font-family="Times,serif" font-size="14.00">LeaderboardCrudService</text>
</g>
<!-- LeaderboardCrudService&#45;&gt;LeaderboardModule -->
<g id="edge4" class="edge">
<title>LeaderboardCrudService&#45;&gt;LeaderboardModule</title>
<path fill="none" stroke="black" d="M725.02,-115.62C725.02,-115.62 725.02,-140.85 725.02,-140.85"/>
<polygon fill="black" stroke="black" points="721.52,-140.85 725.02,-150.85 728.52,-140.85 721.52,-140.85"/>
</g>
<!-- LeaderboardQueueProducer -->
<g id="node6" class="node">
<title>LeaderboardQueueProducer</title>
<ellipse fill="#fdb462" stroke="black" cx="562" cy="-104" rx="119.77" ry="18"/>
<text text-anchor="middle" x="562" y="-99.8" font-family="Times,serif" font-size="14.00">LeaderboardQueueProducer</text>
</g>
<!-- LeaderboardQueueProducer&#45;&gt;LeaderboardModule -->
<g id="edge5" class="edge">
<title>LeaderboardQueueProducer&#45;&gt;LeaderboardModule</title>
<path fill="none" stroke="black" d="M650.87,-116.23C650.87,-116.23 650.87,-140.68 650.87,-140.68"/>
<polygon fill="black" stroke="black" points="647.37,-140.68 650.87,-150.68 654.37,-140.68 647.37,-140.68"/>
</g>
<!-- LeaderboardRepository -->
<g id="node7" class="node">
<title>LeaderboardRepository</title>
<ellipse fill="#fdb462" stroke="black" cx="322" cy="-104" rx="102.41" ry="18"/>
<text text-anchor="middle" x="322" y="-99.8" font-family="Times,serif" font-size="14.00">LeaderboardRepository</text>
</g>
<!-- LeaderboardRepository&#45;&gt;LeaderboardModule -->
<g id="edge6" class="edge">
<title>LeaderboardRepository&#45;&gt;LeaderboardModule</title>
<path fill="none" stroke="black" d="M322,-122.02C322,-139.37 322,-163 322,-163 322,-163 609.68,-163 609.68,-163"/>
<polygon fill="black" stroke="black" points="609.68,-166.5 619.68,-163 609.68,-159.5 609.68,-166.5"/>
</g>
<!-- LeaderboardService -->
<g id="node8" class="node">
<title>LeaderboardService</title>
<ellipse fill="#fdb462" stroke="black" cx="113" cy="-104" rx="88.56" ry="18"/>
<text text-anchor="middle" x="113" y="-99.8" font-family="Times,serif" font-size="14.00">LeaderboardService</text>
</g>
<!-- LeaderboardService&#45;&gt;LeaderboardModule -->
<g id="edge7" class="edge">
<title>LeaderboardService&#45;&gt;LeaderboardModule</title>
<path fill="none" stroke="black" d="M113,-122.28C113,-143.32 113,-175 113,-175 113,-175 609.66,-175 609.66,-175"/>
<polygon fill="black" stroke="black" points="609.66,-178.5 619.66,-175 609.66,-171.5 609.66,-178.5"/>
</g>
</g>
</svg>
