<?xml version="1.0" encoding="UTF-8" standalone="no"?>
<!DOCTYPE svg PUBLIC "-//W3C//DTD SVG 1.1//EN"
 "http://www.w3.org/Graphics/SVG/1.1/DTD/svg11.dtd">
<!-- Generated by graphviz version 2.47.0 (20210316.0004)
 -->
<!-- Title: dependencies Pages: 1 -->
<svg width="682pt" height="284pt"
 viewBox="0.00 0.00 682.00 284.00" xmlns="http://www.w3.org/2000/svg" xmlns:xlink="http://www.w3.org/1999/xlink">
<g id="graph0" class="graph" transform="scale(1 1) rotate(0) translate(4 280)">
<title>dependencies</title>
<polygon fill="white" stroke="transparent" points="-4,4 -4,-280 678,-280 678,4 -4,4"/>
<text text-anchor="start" x="316.01" y="-42.4" font-family="Times-12" font-weight="bold" font-size="14.00">Legend</text>
<polygon fill="#ffffb3" stroke="transparent" points="103,-10 103,-30 123,-30 123,-10 103,-10"/>
<text text-anchor="start" x="126.63" y="-15.4" font-family="Times-12" font-size="14.00"> &#160;Declarations</text>
<polygon fill="#8dd3c7" stroke="transparent" points="216,-10 216,-30 236,-30 236,-10 216,-10"/>
<text text-anchor="start" x="239.73" y="-15.4" font-family="Times-12" font-size="14.00"> &#160;Module</text>
<polygon fill="#80b1d3" stroke="transparent" points="302,-10 302,-30 322,-30 322,-10 302,-10"/>
<text text-anchor="start" x="325.78" y="-15.4" font-family="Times-12" font-size="14.00"> &#160;Bootstrap</text>
<polygon fill="#fdb462" stroke="transparent" points="399,-10 399,-30 419,-30 419,-10 399,-10"/>
<text text-anchor="start" x="422.67" y="-15.4" font-family="Times-12" font-size="14.00"> &#160;Providers</text>
<polygon fill="#fb8072" stroke="transparent" points="495,-10 495,-30 515,-30 515,-10 495,-10"/>
<text text-anchor="start" x="518.73" y="-15.4" font-family="Times-12" font-size="14.00"> &#160;Exports</text>
<g id="clust1" class="cluster">
<title>cluster_AffiliateExternalModule</title>
<polygon fill="none" stroke="black" stroke-dasharray="1,5" points="8,-70 8,-268 666,-268 666,-70 8,-70"/>
</g>
<g id="clust3" class="cluster">
<title>cluster_AffiliateExternalModule_imports</title>
<polygon fill="none" stroke="black" points="506,-78 506,-130 658,-130 658,-78 506,-78"/>
</g>
<g id="clust6" class="cluster">
<title>cluster_AffiliateExternalModule_providers</title>
<polygon fill="none" stroke="black" points="16,-78 16,-130 498,-130 498,-78 16,-78"/>
</g>
<g id="clust4" class="cluster">
<title>cluster_AffiliateExternalModule_exports</title>
<polygon fill="none" stroke="black" points="285,-208 285,-260 457,-260 457,-208 285,-208"/>
</g>
<!-- AffiliateCodeModule -->
<g id="node1" class="node">
<title>AffiliateCodeModule</title>
<polygon fill="#8dd3c7" stroke="black" points="650.02,-122 647.02,-126 626.02,-126 623.02,-122 513.98,-122 513.98,-86 650.02,-86 650.02,-122"/>
<text text-anchor="middle" x="582" y="-99.8" font-family="Times,serif" font-size="14.00">AffiliateCodeModule</text>
</g>
<!-- AffiliateExternalModule -->
<g id="node2" class="node">
<title>AffiliateExternalModule</title>
<polygon fill="#8dd3c7" stroke="black" points="448.39,-187 445.39,-191 424.39,-191 421.39,-187 293.61,-187 293.61,-151 448.39,-151 448.39,-187"/>
<text text-anchor="middle" x="371" y="-164.8" font-family="Times,serif" font-size="14.00">AffiliateExternalModule</text>
</g>
<!-- AffiliateCodeModule&#45;&gt;AffiliateExternalModule -->
<g id="edge1" class="edge">
<title>AffiliateCodeModule&#45;&gt;AffiliateExternalModule</title>
<path fill="none" stroke="black" d="M582,-122.11C582,-141.34 582,-169 582,-169 582,-169 458.37,-169 458.37,-169"/>
<polygon fill="black" stroke="black" points="458.37,-165.5 448.37,-169 458.37,-172.5 458.37,-165.5"/>
</g>
<!-- AffiliateExternalService  -->
<g id="node3" class="node">
<title>AffiliateExternalService </title>
<polygon fill="#fb8072" stroke="black" points="449.32,-252 292.68,-252 292.68,-216 449.32,-216 449.32,-252"/>
<text text-anchor="middle" x="371" y="-229.8" font-family="Times,serif" font-size="14.00">AffiliateExternalService </text>
</g>
<!-- AffiliateExternalModule&#45;&gt;AffiliateExternalService  -->
<g id="edge2" class="edge">
<title>AffiliateExternalModule&#45;&gt;AffiliateExternalService </title>
<path fill="none" stroke="black" stroke-dasharray="5,2" d="M371,-187.11C371,-187.11 371,-205.99 371,-205.99"/>
<polygon fill="black" stroke="black" points="367.5,-205.99 371,-215.99 374.5,-205.99 367.5,-205.99"/>
</g>
<!-- AffiliateExternalRepository -->
<g id="node4" class="node">
<title>AffiliateExternalRepository</title>
<ellipse fill="#fdb462" stroke="black" cx="371" cy="-104" rx="118.67" ry="18"/>
<text text-anchor="middle" x="371" y="-99.8" font-family="Times,serif" font-size="14.00">AffiliateExternalRepository</text>
</g>
<!-- AffiliateExternalRepository&#45;&gt;AffiliateExternalModule -->
<g id="edge3" class="edge">
<title>AffiliateExternalRepository&#45;&gt;AffiliateExternalModule</title>
<path fill="none" stroke="black" d="M371,-122.11C371,-122.11 371,-140.99 371,-140.99"/>
<polygon fill="black" stroke="black" points="367.5,-140.99 371,-150.99 374.5,-140.99 367.5,-140.99"/>
</g>
<!-- AffiliateExternalService -->
<g id="node5" class="node">
<title>AffiliateExternalService</title>
<ellipse fill="#fdb462" stroke="black" cx="129" cy="-104" rx="105.33" ry="18"/>
<text text-anchor="middle" x="129" y="-99.8" font-family="Times,serif" font-size="14.00">AffiliateExternalService</text>
</g>
<!-- AffiliateExternalService&#45;&gt;AffiliateExternalModule -->
<g id="edge4" class="edge">
<title>AffiliateExternalService&#45;&gt;AffiliateExternalModule</title>
<path fill="none" stroke="black" d="M129,-122.11C129,-141.34 129,-169 129,-169 129,-169 283.76,-169 283.76,-169"/>
<polygon fill="black" stroke="black" points="283.76,-172.5 293.76,-169 283.76,-165.5 283.76,-172.5"/>
</g>
</g>
</svg>
