<?xml version="1.0" encoding="UTF-8" standalone="no"?>
<!DOCTYPE svg PUBLIC "-//W3C//DTD SVG 1.1//EN"
 "http://www.w3.org/Graphics/SVG/1.1/DTD/svg11.dtd">
<!-- Generated by graphviz version 2.47.0 (20210316.0004)
 -->
<!-- Title: dependencies Pages: 1 -->
<svg width="1061pt" height="284pt"
 viewBox="0.00 0.00 1061.00 284.00" xmlns="http://www.w3.org/2000/svg" xmlns:xlink="http://www.w3.org/1999/xlink">
<g id="graph0" class="graph" transform="scale(1 1) rotate(0) translate(4 280)">
<title>dependencies</title>
<polygon fill="white" stroke="transparent" points="-4,4 -4,-280 1057,-280 1057,4 -4,4"/>
<text text-anchor="start" x="505.51" y="-42.4" font-family="Times-12" font-weight="bold" font-size="14.00">Legend</text>
<polygon fill="#ffffb3" stroke="transparent" points="292.5,-10 292.5,-30 312.5,-30 312.5,-10 292.5,-10"/>
<text text-anchor="start" x="316.13" y="-15.4" font-family="Times-12" font-size="14.00"> &#160;Declarations</text>
<polygon fill="#8dd3c7" stroke="transparent" points="405.5,-10 405.5,-30 425.5,-30 425.5,-10 405.5,-10"/>
<text text-anchor="start" x="429.23" y="-15.4" font-family="Times-12" font-size="14.00"> &#160;Module</text>
<polygon fill="#80b1d3" stroke="transparent" points="491.5,-10 491.5,-30 511.5,-30 511.5,-10 491.5,-10"/>
<text text-anchor="start" x="515.28" y="-15.4" font-family="Times-12" font-size="14.00"> &#160;Bootstrap</text>
<polygon fill="#fdb462" stroke="transparent" points="588.5,-10 588.5,-30 608.5,-30 608.5,-10 588.5,-10"/>
<text text-anchor="start" x="612.17" y="-15.4" font-family="Times-12" font-size="14.00"> &#160;Providers</text>
<polygon fill="#fb8072" stroke="transparent" points="684.5,-10 684.5,-30 704.5,-30 704.5,-10 684.5,-10"/>
<text text-anchor="start" x="708.23" y="-15.4" font-family="Times-12" font-size="14.00"> &#160;Exports</text>
<g id="clust1" class="cluster">
<title>cluster_ArbitrageActionModule</title>
<polygon fill="none" stroke="black" stroke-dasharray="1,5" points="8,-70 8,-268 1045,-268 1045,-70 8,-70"/>
</g>
<g id="clust6" class="cluster">
<title>cluster_ArbitrageActionModule_providers</title>
<polygon fill="none" stroke="black" points="332,-78 332,-130 1037,-130 1037,-78 332,-78"/>
</g>
<g id="clust4" class="cluster">
<title>cluster_ArbitrageActionModule_exports</title>
<polygon fill="none" stroke="black" points="188,-208 188,-260 723,-260 723,-208 188,-208"/>
</g>
<g id="clust3" class="cluster">
<title>cluster_ArbitrageActionModule_imports</title>
<polygon fill="none" stroke="black" points="16,-78 16,-130 324,-130 324,-78 16,-78"/>
</g>
<!-- TMTStrategyModule -->
<g id="node1" class="node">
<title>TMTStrategyModule</title>
<polygon fill="#8dd3c7" stroke="black" points="315.75,-122 312.75,-126 291.75,-126 288.75,-122 180.25,-122 180.25,-86 315.75,-86 315.75,-122"/>
<text text-anchor="middle" x="248" y="-99.8" font-family="Times,serif" font-size="14.00">TMTStrategyModule</text>
</g>
<!-- ArbitrageActionModule -->
<g id="node3" class="node">
<title>ArbitrageActionModule</title>
<polygon fill="#8dd3c7" stroke="black" points="540.79,-187 537.79,-191 516.79,-191 513.79,-187 389.21,-187 389.21,-151 540.79,-151 540.79,-187"/>
<text text-anchor="middle" x="465" y="-164.8" font-family="Times,serif" font-size="14.00">ArbitrageActionModule</text>
</g>
<!-- TMTStrategyModule&#45;&gt;ArbitrageActionModule -->
<g id="edge1" class="edge">
<title>TMTStrategyModule&#45;&gt;ArbitrageActionModule</title>
<path fill="none" stroke="black" d="M255.85,-122.02C255.85,-139.37 255.85,-163 255.85,-163 255.85,-163 379.2,-163 379.2,-163"/>
<polygon fill="black" stroke="black" points="379.2,-166.5 389.2,-163 379.2,-159.5 379.2,-166.5"/>
</g>
<!-- XMRStrategyModule -->
<g id="node2" class="node">
<title>XMRStrategyModule</title>
<polygon fill="#8dd3c7" stroke="black" points="162.09,-122 159.09,-126 138.09,-126 135.09,-122 23.91,-122 23.91,-86 162.09,-86 162.09,-122"/>
<text text-anchor="middle" x="93" y="-99.8" font-family="Times,serif" font-size="14.00">XMRStrategyModule</text>
</g>
<!-- XMRStrategyModule&#45;&gt;ArbitrageActionModule -->
<g id="edge2" class="edge">
<title>XMRStrategyModule&#45;&gt;ArbitrageActionModule</title>
<path fill="none" stroke="black" d="M93,-122.28C93,-143.32 93,-175 93,-175 93,-175 379.27,-175 379.27,-175"/>
<polygon fill="black" stroke="black" points="379.27,-178.5 389.27,-175 379.27,-171.5 379.27,-178.5"/>
</g>
<!-- ArbitrageDepositsFactory  -->
<g id="node4" class="node">
<title>ArbitrageDepositsFactory </title>
<polygon fill="#fb8072" stroke="black" points="715.39,-252 550.61,-252 550.61,-216 715.39,-216 715.39,-252"/>
<text text-anchor="middle" x="633" y="-229.8" font-family="Times,serif" font-size="14.00">ArbitrageDepositsFactory </text>
</g>
<!-- ArbitrageActionModule&#45;&gt;ArbitrageDepositsFactory  -->
<g id="edge3" class="edge">
<title>ArbitrageActionModule&#45;&gt;ArbitrageDepositsFactory </title>
<path fill="none" stroke="black" stroke-dasharray="5,2" d="M536.47,-187.11C536.47,-206.34 536.47,-234 536.47,-234 536.47,-234 540.3,-234 540.3,-234"/>
<polygon fill="black" stroke="black" points="540.3,-237.5 550.3,-234 540.3,-230.5 540.3,-237.5"/>
</g>
<!-- ArbitrageFtdFactory  -->
<g id="node5" class="node">
<title>ArbitrageFtdFactory </title>
<polygon fill="#fb8072" stroke="black" points="532.08,-252 397.92,-252 397.92,-216 532.08,-216 532.08,-252"/>
<text text-anchor="middle" x="465" y="-229.8" font-family="Times,serif" font-size="14.00">ArbitrageFtdFactory </text>
</g>
<!-- ArbitrageActionModule&#45;&gt;ArbitrageFtdFactory  -->
<g id="edge4" class="edge">
<title>ArbitrageActionModule&#45;&gt;ArbitrageFtdFactory </title>
<path fill="none" stroke="black" stroke-dasharray="5,2" d="M465,-187.11C465,-187.11 465,-205.99 465,-205.99"/>
<polygon fill="black" stroke="black" points="461.5,-205.99 465,-215.99 468.5,-205.99 461.5,-205.99"/>
</g>
<!-- ArbitrageRegistrationFactory  -->
<g id="node6" class="node">
<title>ArbitrageRegistrationFactory </title>
<polygon fill="#fb8072" stroke="black" points="380.33,-252 195.67,-252 195.67,-216 380.33,-216 380.33,-252"/>
<text text-anchor="middle" x="288" y="-229.8" font-family="Times,serif" font-size="14.00">ArbitrageRegistrationFactory </text>
</g>
<!-- ArbitrageActionModule&#45;&gt;ArbitrageRegistrationFactory  -->
<g id="edge5" class="edge">
<title>ArbitrageActionModule&#45;&gt;ArbitrageRegistrationFactory </title>
<path fill="none" stroke="black" stroke-dasharray="5,2" d="M393.53,-187.11C393.53,-206.34 393.53,-234 393.53,-234 393.53,-234 390.17,-234 390.17,-234"/>
<polygon fill="black" stroke="black" points="390.17,-230.5 380.17,-234 390.17,-237.5 390.17,-230.5"/>
</g>
<!-- ArbitrageDepositsFactory -->
<g id="node7" class="node">
<title>ArbitrageDepositsFactory</title>
<ellipse fill="#fdb462" stroke="black" cx="918" cy="-104" rx="111.15" ry="18"/>
<text text-anchor="middle" x="918" y="-99.8" font-family="Times,serif" font-size="14.00">ArbitrageDepositsFactory</text>
</g>
<!-- ArbitrageDepositsFactory&#45;&gt;ArbitrageActionModule -->
<g id="edge6" class="edge">
<title>ArbitrageDepositsFactory&#45;&gt;ArbitrageActionModule</title>
<path fill="none" stroke="black" d="M918,-122.28C918,-143.32 918,-175 918,-175 918,-175 550.82,-175 550.82,-175"/>
<polygon fill="black" stroke="black" points="550.82,-171.5 540.82,-175 550.82,-178.5 550.82,-171.5"/>
</g>
<!-- ArbitrageFtdFactory -->
<g id="node8" class="node">
<title>ArbitrageFtdFactory</title>
<ellipse fill="#fdb462" stroke="black" cx="698" cy="-104" rx="90.33" ry="18"/>
<text text-anchor="middle" x="698" y="-99.8" font-family="Times,serif" font-size="14.00">ArbitrageFtdFactory</text>
</g>
<!-- ArbitrageFtdFactory&#45;&gt;ArbitrageActionModule -->
<g id="edge7" class="edge">
<title>ArbitrageFtdFactory&#45;&gt;ArbitrageActionModule</title>
<path fill="none" stroke="black" d="M661.52,-120.75C661.52,-138.19 661.52,-163 661.52,-163 661.52,-163 550.7,-163 550.7,-163"/>
<polygon fill="black" stroke="black" points="550.7,-159.5 540.7,-163 550.7,-166.5 550.7,-159.5"/>
</g>
<!-- ArbitrageRegistrationFactory -->
<g id="node9" class="node">
<title>ArbitrageRegistrationFactory</title>
<ellipse fill="#fdb462" stroke="black" cx="465" cy="-104" rx="124.97" ry="18"/>
<text text-anchor="middle" x="465" y="-99.8" font-family="Times,serif" font-size="14.00">ArbitrageRegistrationFactory</text>
</g>
<!-- ArbitrageRegistrationFactory&#45;&gt;ArbitrageActionModule -->
<g id="edge8" class="edge">
<title>ArbitrageRegistrationFactory&#45;&gt;ArbitrageActionModule</title>
<path fill="none" stroke="black" d="M465,-122.11C465,-122.11 465,-140.99 465,-140.99"/>
<polygon fill="black" stroke="black" points="461.5,-140.99 465,-150.99 468.5,-140.99 461.5,-140.99"/>
</g>
</g>
</svg>
