<?xml version="1.0" encoding="UTF-8" standalone="no"?>
<!DOCTYPE svg PUBLIC "-//W3C//DTD SVG 1.1//EN"
 "http://www.w3.org/Graphics/SVG/1.1/DTD/svg11.dtd">
<!-- Generated by graphviz version 2.47.0 (20210316.0004)
 -->
<!-- Title: dependencies Pages: 1 -->
<svg width="784pt" height="211pt"
 viewBox="0.00 0.00 784.00 211.00" xmlns="http://www.w3.org/2000/svg" xmlns:xlink="http://www.w3.org/1999/xlink">
<g id="graph0" class="graph" transform="scale(1 1) rotate(0) translate(4 207)">
<title>dependencies</title>
<polygon fill="white" stroke="transparent" points="-4,4 -4,-207 780,-207 780,4 -4,4"/>
<text text-anchor="start" x="367.01" y="-42.4" font-family="Times-12" font-weight="bold" font-size="14.00">Legend</text>
<polygon fill="#ffffb3" stroke="transparent" points="154,-10 154,-30 174,-30 174,-10 154,-10"/>
<text text-anchor="start" x="177.63" y="-15.4" font-family="Times-12" font-size="14.00"> &#160;Declarations</text>
<polygon fill="#8dd3c7" stroke="transparent" points="267,-10 267,-30 287,-30 287,-10 267,-10"/>
<text text-anchor="start" x="290.73" y="-15.4" font-family="Times-12" font-size="14.00"> &#160;Module</text>
<polygon fill="#80b1d3" stroke="transparent" points="353,-10 353,-30 373,-30 373,-10 353,-10"/>
<text text-anchor="start" x="376.78" y="-15.4" font-family="Times-12" font-size="14.00"> &#160;Bootstrap</text>
<polygon fill="#fdb462" stroke="transparent" points="450,-10 450,-30 470,-30 470,-10 450,-10"/>
<text text-anchor="start" x="473.67" y="-15.4" font-family="Times-12" font-size="14.00"> &#160;Providers</text>
<polygon fill="#fb8072" stroke="transparent" points="546,-10 546,-30 566,-30 566,-10 546,-10"/>
<text text-anchor="start" x="569.73" y="-15.4" font-family="Times-12" font-size="14.00"> &#160;Exports</text>
<g id="clust1" class="cluster">
<title>cluster_BetQueueProcessorModule</title>
<polygon fill="none" stroke="black" stroke-dasharray="1,5" points="8,-70 8,-195 768,-195 768,-70 8,-70"/>
</g>
<g id="clust3" class="cluster">
<title>cluster_BetQueueProcessorModule_imports</title>
<polygon fill="none" stroke="black" points="16,-78 16,-130 760,-130 760,-78 16,-78"/>
</g>
<!-- AffiliateModule -->
<g id="node1" class="node">
<title>AffiliateModule</title>
<polygon fill="#8dd3c7" stroke="black" points="752.47,-122 749.47,-126 728.47,-126 725.47,-122 645.53,-122 645.53,-86 752.47,-86 752.47,-122"/>
<text text-anchor="middle" x="699" y="-99.8" font-family="Times,serif" font-size="14.00">AffiliateModule</text>
</g>
<!-- BetQueueProcessorModule -->
<g id="node7" class="node">
<title>BetQueueProcessorModule</title>
<polygon fill="#8dd3c7" stroke="black" points="499.95,-187 496.95,-191 475.95,-191 472.95,-187 330.05,-187 330.05,-151 499.95,-151 499.95,-187"/>
<text text-anchor="middle" x="415" y="-164.8" font-family="Times,serif" font-size="14.00">BetQueueProcessorModule</text>
</g>
<!-- AffiliateModule&#45;&gt;BetQueueProcessorModule -->
<g id="edge1" class="edge">
<title>AffiliateModule&#45;&gt;BetQueueProcessorModule</title>
<path fill="none" stroke="black" d="M699,-122.28C699,-143.32 699,-175 699,-175 699,-175 510.21,-175 510.21,-175"/>
<polygon fill="black" stroke="black" points="510.21,-171.5 500.21,-175 510.21,-178.5 510.21,-171.5"/>
</g>
<!-- BetModule -->
<g id="node2" class="node">
<title>BetModule</title>
<polygon fill="#8dd3c7" stroke="black" points="627.49,-122 624.49,-126 603.49,-126 600.49,-122 548.51,-122 548.51,-86 627.49,-86 627.49,-122"/>
<text text-anchor="middle" x="588" y="-99.8" font-family="Times,serif" font-size="14.00">BetModule</text>
</g>
<!-- BetModule&#45;&gt;BetQueueProcessorModule -->
<g id="edge2" class="edge">
<title>BetModule&#45;&gt;BetQueueProcessorModule</title>
<path fill="none" stroke="black" d="M588,-122.02C588,-139.37 588,-163 588,-163 588,-163 509.98,-163 509.98,-163"/>
<polygon fill="black" stroke="black" points="509.98,-159.5 499.98,-163 509.98,-166.5 509.98,-159.5"/>
</g>
<!-- GamesModule -->
<g id="node3" class="node">
<title>GamesModule</title>
<polygon fill="#8dd3c7" stroke="black" points="530.42,-122 527.42,-126 506.42,-126 503.42,-122 431.58,-122 431.58,-86 530.42,-86 530.42,-122"/>
<text text-anchor="middle" x="481" y="-99.8" font-family="Times,serif" font-size="14.00">GamesModule</text>
</g>
<!-- GamesModule&#45;&gt;BetQueueProcessorModule -->
<g id="edge3" class="edge">
<title>GamesModule&#45;&gt;BetQueueProcessorModule</title>
<path fill="none" stroke="black" d="M465.88,-122.11C465.88,-122.11 465.88,-140.99 465.88,-140.99"/>
<polygon fill="black" stroke="black" points="462.38,-140.99 465.88,-150.99 469.38,-140.99 462.38,-140.99"/>
</g>
<!-- LeaderboardModule -->
<g id="node4" class="node">
<title>LeaderboardModule</title>
<polygon fill="#8dd3c7" stroke="black" points="414.28,-122 411.28,-126 390.28,-126 387.28,-122 283.72,-122 283.72,-86 414.28,-86 414.28,-122"/>
<text text-anchor="middle" x="349" y="-99.8" font-family="Times,serif" font-size="14.00">LeaderboardModule</text>
</g>
<!-- LeaderboardModule&#45;&gt;BetQueueProcessorModule -->
<g id="edge4" class="edge">
<title>LeaderboardModule&#45;&gt;BetQueueProcessorModule</title>
<path fill="none" stroke="black" d="M372.08,-122.11C372.08,-122.11 372.08,-140.99 372.08,-140.99"/>
<polygon fill="black" stroke="black" points="368.58,-140.99 372.08,-150.99 375.58,-140.99 368.58,-140.99"/>
</g>
<!-- LiveBetsModule -->
<g id="node5" class="node">
<title>LiveBetsModule</title>
<polygon fill="#8dd3c7" stroke="black" points="266.09,-122 263.09,-126 242.09,-126 239.09,-122 155.91,-122 155.91,-86 266.09,-86 266.09,-122"/>
<text text-anchor="middle" x="211" y="-99.8" font-family="Times,serif" font-size="14.00">LiveBetsModule</text>
</g>
<!-- LiveBetsModule&#45;&gt;BetQueueProcessorModule -->
<g id="edge5" class="edge">
<title>LiveBetsModule&#45;&gt;BetQueueProcessorModule</title>
<path fill="none" stroke="black" d="M211,-122.02C211,-139.37 211,-163 211,-163 211,-163 319.96,-163 319.96,-163"/>
<polygon fill="black" stroke="black" points="319.96,-166.5 329.96,-163 319.96,-159.5 319.96,-166.5"/>
</g>
<!-- RakebackModule -->
<g id="node6" class="node">
<title>RakebackModule</title>
<polygon fill="#8dd3c7" stroke="black" points="138.25,-122 135.25,-126 114.25,-126 111.25,-122 23.75,-122 23.75,-86 138.25,-86 138.25,-122"/>
<text text-anchor="middle" x="81" y="-99.8" font-family="Times,serif" font-size="14.00">RakebackModule</text>
</g>
<!-- RakebackModule&#45;&gt;BetQueueProcessorModule -->
<g id="edge6" class="edge">
<title>RakebackModule&#45;&gt;BetQueueProcessorModule</title>
<path fill="none" stroke="black" d="M81,-122.28C81,-143.32 81,-175 81,-175 81,-175 319.85,-175 319.85,-175"/>
<polygon fill="black" stroke="black" points="319.85,-178.5 329.85,-175 319.85,-171.5 319.85,-178.5"/>
</g>
</g>
</svg>
