<?xml version="1.0" encoding="UTF-8" standalone="no"?>
<!DOCTYPE svg PUBLIC "-//W3C//DTD SVG 1.1//EN"
 "http://www.w3.org/Graphics/SVG/1.1/DTD/svg11.dtd">
<!-- Generated by graphviz version 2.47.0 (20210316.0004)
 -->
<!-- Title: dependencies Pages: 1 -->
<svg width="850pt" height="284pt"
 viewBox="0.00 0.00 850.00 284.00" xmlns="http://www.w3.org/2000/svg" xmlns:xlink="http://www.w3.org/1999/xlink">
<g id="graph0" class="graph" transform="scale(1 1) rotate(0) translate(4 280)">
<title>dependencies</title>
<polygon fill="white" stroke="transparent" points="-4,4 -4,-280 846,-280 846,4 -4,4"/>
<text text-anchor="start" x="400.01" y="-42.4" font-family="Times-12" font-weight="bold" font-size="14.00">Legend</text>
<polygon fill="#ffffb3" stroke="transparent" points="187,-10 187,-30 207,-30 207,-10 187,-10"/>
<text text-anchor="start" x="210.63" y="-15.4" font-family="Times-12" font-size="14.00"> &#160;Declarations</text>
<polygon fill="#8dd3c7" stroke="transparent" points="300,-10 300,-30 320,-30 320,-10 300,-10"/>
<text text-anchor="start" x="323.73" y="-15.4" font-family="Times-12" font-size="14.00"> &#160;Module</text>
<polygon fill="#80b1d3" stroke="transparent" points="386,-10 386,-30 406,-30 406,-10 386,-10"/>
<text text-anchor="start" x="409.78" y="-15.4" font-family="Times-12" font-size="14.00"> &#160;Bootstrap</text>
<polygon fill="#fdb462" stroke="transparent" points="483,-10 483,-30 503,-30 503,-10 483,-10"/>
<text text-anchor="start" x="506.67" y="-15.4" font-family="Times-12" font-size="14.00"> &#160;Providers</text>
<polygon fill="#fb8072" stroke="transparent" points="579,-10 579,-30 599,-30 599,-10 579,-10"/>
<text text-anchor="start" x="602.73" y="-15.4" font-family="Times-12" font-size="14.00"> &#160;Exports</text>
<g id="clust1" class="cluster">
<title>cluster_TMTStrategyModule</title>
<polygon fill="none" stroke="black" stroke-dasharray="1,5" points="8,-70 8,-268 834,-268 834,-70 8,-70"/>
</g>
<g id="clust3" class="cluster">
<title>cluster_TMTStrategyModule_imports</title>
<polygon fill="none" stroke="black" points="596,-78 596,-130 826,-130 826,-78 596,-78"/>
</g>
<g id="clust4" class="cluster">
<title>cluster_TMTStrategyModule_exports</title>
<polygon fill="none" stroke="black" points="264,-208 264,-260 594,-260 594,-208 264,-208"/>
</g>
<g id="clust6" class="cluster">
<title>cluster_TMTStrategyModule_providers</title>
<polygon fill="none" stroke="black" points="16,-78 16,-130 588,-130 588,-78 16,-78"/>
</g>
<!-- TrafficArbitrageRepositoryModule -->
<g id="node1" class="node">
<title>TrafficArbitrageRepositoryModule</title>
<polygon fill="#8dd3c7" stroke="black" points="817.98,-122 814.98,-126 793.98,-126 790.98,-122 604.02,-122 604.02,-86 817.98,-86 817.98,-122"/>
<text text-anchor="middle" x="711" y="-99.8" font-family="Times,serif" font-size="14.00">TrafficArbitrageRepositoryModule</text>
</g>
<!-- TMTStrategyModule -->
<g id="node2" class="node">
<title>TMTStrategyModule</title>
<polygon fill="#8dd3c7" stroke="black" points="501.75,-187 498.75,-191 477.75,-191 474.75,-187 366.25,-187 366.25,-151 501.75,-151 501.75,-187"/>
<text text-anchor="middle" x="434" y="-164.8" font-family="Times,serif" font-size="14.00">TMTStrategyModule</text>
</g>
<!-- TrafficArbitrageRepositoryModule&#45;&gt;TMTStrategyModule -->
<g id="edge1" class="edge">
<title>TrafficArbitrageRepositoryModule&#45;&gt;TMTStrategyModule</title>
<path fill="none" stroke="black" d="M711,-122.11C711,-141.34 711,-169 711,-169 711,-169 511.76,-169 511.76,-169"/>
<polygon fill="black" stroke="black" points="511.76,-165.5 501.76,-169 511.76,-172.5 511.76,-165.5"/>
</g>
<!-- TmtDepositsStrategy  -->
<g id="node3" class="node">
<title>TmtDepositsStrategy </title>
<polygon fill="#fb8072" stroke="black" points="586.48,-252 447.52,-252 447.52,-216 586.48,-216 586.48,-252"/>
<text text-anchor="middle" x="517" y="-229.8" font-family="Times,serif" font-size="14.00">TmtDepositsStrategy </text>
</g>
<!-- TMTStrategyModule&#45;&gt;TmtDepositsStrategy  -->
<g id="edge2" class="edge">
<title>TMTStrategyModule&#45;&gt;TmtDepositsStrategy </title>
<path fill="none" stroke="black" stroke-dasharray="5,2" d="M474.82,-187.11C474.82,-187.11 474.82,-205.99 474.82,-205.99"/>
<polygon fill="black" stroke="black" points="471.32,-205.99 474.82,-215.99 478.32,-205.99 471.32,-205.99"/>
</g>
<!-- TmtRegistrationStrategy  -->
<g id="node4" class="node">
<title>TmtRegistrationStrategy </title>
<polygon fill="#fb8072" stroke="black" points="429.92,-252 272.08,-252 272.08,-216 429.92,-216 429.92,-252"/>
<text text-anchor="middle" x="351" y="-229.8" font-family="Times,serif" font-size="14.00">TmtRegistrationStrategy </text>
</g>
<!-- TMTStrategyModule&#45;&gt;TmtRegistrationStrategy  -->
<g id="edge3" class="edge">
<title>TMTStrategyModule&#45;&gt;TmtRegistrationStrategy </title>
<path fill="none" stroke="black" stroke-dasharray="5,2" d="M398.04,-187.11C398.04,-187.11 398.04,-205.99 398.04,-205.99"/>
<polygon fill="black" stroke="black" points="394.54,-205.99 398.04,-215.99 401.54,-205.99 394.54,-205.99"/>
</g>
<!-- TmtDataApi -->
<g id="node5" class="node">
<title>TmtDataApi</title>
<ellipse fill="#fdb462" stroke="black" cx="520" cy="-104" rx="59.69" ry="18"/>
<text text-anchor="middle" x="520" y="-99.8" font-family="Times,serif" font-size="14.00">TmtDataApi</text>
</g>
<!-- TmtDataApi&#45;&gt;TMTStrategyModule -->
<g id="edge4" class="edge">
<title>TmtDataApi&#45;&gt;TMTStrategyModule</title>
<path fill="none" stroke="black" d="M481.02,-117.78C481.02,-117.78 481.02,-140.55 481.02,-140.55"/>
<polygon fill="black" stroke="black" points="477.52,-140.55 481.02,-150.55 484.52,-140.55 477.52,-140.55"/>
</g>
<!-- TmtDepositsStrategy -->
<g id="node6" class="node">
<title>TmtDepositsStrategy</title>
<ellipse fill="#fdb462" stroke="black" cx="349" cy="-104" rx="93.21" ry="18"/>
<text text-anchor="middle" x="349" y="-99.8" font-family="Times,serif" font-size="14.00">TmtDepositsStrategy</text>
</g>
<!-- TmtDepositsStrategy&#45;&gt;TMTStrategyModule -->
<g id="edge5" class="edge">
<title>TmtDepositsStrategy&#45;&gt;TMTStrategyModule</title>
<path fill="none" stroke="black" d="M404.11,-118.75C404.11,-118.75 404.11,-140.59 404.11,-140.59"/>
<polygon fill="black" stroke="black" points="400.61,-140.59 404.11,-150.59 407.61,-140.59 400.61,-140.59"/>
</g>
<!-- TmtRegistrationStrategy -->
<g id="node7" class="node">
<title>TmtRegistrationStrategy</title>
<ellipse fill="#fdb462" stroke="black" cx="131" cy="-104" rx="106.53" ry="18"/>
<text text-anchor="middle" x="131" y="-99.8" font-family="Times,serif" font-size="14.00">TmtRegistrationStrategy</text>
</g>
<!-- TmtRegistrationStrategy&#45;&gt;TMTStrategyModule -->
<g id="edge6" class="edge">
<title>TmtRegistrationStrategy&#45;&gt;TMTStrategyModule</title>
<path fill="none" stroke="black" d="M131,-122.11C131,-141.34 131,-169 131,-169 131,-169 356,-169 356,-169"/>
<polygon fill="black" stroke="black" points="356,-172.5 366,-169 356,-165.5 356,-172.5"/>
</g>
</g>
</svg>
