<?xml version="1.0" encoding="UTF-8" standalone="no"?>
<!DOCTYPE svg PUBLIC "-//W3C//DTD SVG 1.1//EN"
 "http://www.w3.org/Graphics/SVG/1.1/DTD/svg11.dtd">
<!-- Generated by graphviz version 2.47.0 (20210316.0004)
 -->
<!-- Title: dependencies Pages: 1 -->
<svg width="1715pt" height="284pt"
 viewBox="0.00 0.00 1715.00 284.00" xmlns="http://www.w3.org/2000/svg" xmlns:xlink="http://www.w3.org/1999/xlink">
<g id="graph0" class="graph" transform="scale(1 1) rotate(0) translate(4 280)">
<title>dependencies</title>
<polygon fill="white" stroke="transparent" points="-4,4 -4,-280 1711,-280 1711,4 -4,4"/>
<text text-anchor="start" x="832.51" y="-42.4" font-family="Times-12" font-weight="bold" font-size="14.00">Legend</text>
<polygon fill="#ffffb3" stroke="transparent" points="619.5,-10 619.5,-30 639.5,-30 639.5,-10 619.5,-10"/>
<text text-anchor="start" x="643.13" y="-15.4" font-family="Times-12" font-size="14.00"> &#160;Declarations</text>
<polygon fill="#8dd3c7" stroke="transparent" points="732.5,-10 732.5,-30 752.5,-30 752.5,-10 732.5,-10"/>
<text text-anchor="start" x="756.23" y="-15.4" font-family="Times-12" font-size="14.00"> &#160;Module</text>
<polygon fill="#80b1d3" stroke="transparent" points="818.5,-10 818.5,-30 838.5,-30 838.5,-10 818.5,-10"/>
<text text-anchor="start" x="842.28" y="-15.4" font-family="Times-12" font-size="14.00"> &#160;Bootstrap</text>
<polygon fill="#fdb462" stroke="transparent" points="915.5,-10 915.5,-30 935.5,-30 935.5,-10 915.5,-10"/>
<text text-anchor="start" x="939.17" y="-15.4" font-family="Times-12" font-size="14.00"> &#160;Providers</text>
<polygon fill="#fb8072" stroke="transparent" points="1011.5,-10 1011.5,-30 1031.5,-30 1031.5,-10 1011.5,-10"/>
<text text-anchor="start" x="1035.23" y="-15.4" font-family="Times-12" font-size="14.00"> &#160;Exports</text>
<g id="clust1" class="cluster">
<title>cluster_SportsbookActionModule</title>
<polygon fill="none" stroke="black" stroke-dasharray="1,5" points="8,-70 8,-268 1699,-268 1699,-70 8,-70"/>
</g>
<g id="clust3" class="cluster">
<title>cluster_SportsbookActionModule_imports</title>
<polygon fill="none" stroke="black" points="728,-78 728,-130 1691,-130 1691,-78 728,-78"/>
</g>
<g id="clust4" class="cluster">
<title>cluster_SportsbookActionModule_exports</title>
<polygon fill="none" stroke="black" points="928,-208 928,-260 1136,-260 1136,-208 928,-208"/>
</g>
<g id="clust6" class="cluster">
<title>cluster_SportsbookActionModule_providers</title>
<polygon fill="none" stroke="black" points="16,-78 16,-130 720,-130 720,-78 16,-78"/>
</g>
<!-- AccountingModule -->
<g id="node1" class="node">
<title>AccountingModule</title>
<polygon fill="#8dd3c7" stroke="black" points="1683.37,-122 1680.37,-126 1659.37,-126 1656.37,-122 1558.63,-122 1558.63,-86 1683.37,-86 1683.37,-122"/>
<text text-anchor="middle" x="1621" y="-99.8" font-family="Times,serif" font-size="14.00">AccountingModule</text>
</g>
<!-- SportsbookActionModule -->
<g id="node8" class="node">
<title>SportsbookActionModule</title>
<polygon fill="#8dd3c7" stroke="black" points="1112.93,-187 1109.93,-191 1088.93,-191 1085.93,-187 951.07,-187 951.07,-151 1112.93,-151 1112.93,-187"/>
<text text-anchor="middle" x="1032" y="-164.8" font-family="Times,serif" font-size="14.00">SportsbookActionModule</text>
</g>
<!-- AccountingModule&#45;&gt;SportsbookActionModule -->
<g id="edge1" class="edge">
<title>AccountingModule&#45;&gt;SportsbookActionModule</title>
<path fill="none" stroke="black" d="M1621,-122.01C1621,-144.49 1621,-180 1621,-180 1621,-180 1122.97,-180 1122.97,-180"/>
<polygon fill="black" stroke="black" points="1122.97,-176.5 1112.97,-180 1122.97,-183.5 1122.97,-176.5"/>
</g>
<!-- BetModule -->
<g id="node2" class="node">
<title>BetModule</title>
<polygon fill="#8dd3c7" stroke="black" points="1540.49,-122 1537.49,-126 1516.49,-126 1513.49,-122 1461.51,-122 1461.51,-86 1540.49,-86 1540.49,-122"/>
<text text-anchor="middle" x="1501" y="-99.8" font-family="Times,serif" font-size="14.00">BetModule</text>
</g>
<!-- BetModule&#45;&gt;SportsbookActionModule -->
<g id="edge2" class="edge">
<title>BetModule&#45;&gt;SportsbookActionModule</title>
<path fill="none" stroke="black" d="M1501,-122.13C1501,-142.57 1501,-173 1501,-173 1501,-173 1122.89,-173 1122.89,-173"/>
<polygon fill="black" stroke="black" points="1122.89,-169.5 1112.89,-173 1122.89,-176.5 1122.89,-169.5"/>
</g>
<!-- DepositStrategyModule -->
<g id="node3" class="node">
<title>DepositStrategyModule</title>
<polygon fill="#8dd3c7" stroke="black" points="1443.75,-122 1440.75,-126 1419.75,-126 1416.75,-122 1294.25,-122 1294.25,-86 1443.75,-86 1443.75,-122"/>
<text text-anchor="middle" x="1369" y="-99.8" font-family="Times,serif" font-size="14.00">DepositStrategyModule</text>
</g>
<!-- DepositStrategyModule&#45;&gt;SportsbookActionModule -->
<g id="edge3" class="edge">
<title>DepositStrategyModule&#45;&gt;SportsbookActionModule</title>
<path fill="none" stroke="black" d="M1369,-122.27C1369,-140.56 1369,-166 1369,-166 1369,-166 1122.72,-166 1122.72,-166"/>
<polygon fill="black" stroke="black" points="1122.72,-162.5 1112.72,-166 1122.72,-169.5 1122.72,-162.5"/>
</g>
<!-- GamesModule -->
<g id="node4" class="node">
<title>GamesModule</title>
<polygon fill="#8dd3c7" stroke="black" points="1276.42,-122 1273.42,-126 1252.42,-126 1249.42,-122 1177.58,-122 1177.58,-86 1276.42,-86 1276.42,-122"/>
<text text-anchor="middle" x="1227" y="-99.8" font-family="Times,serif" font-size="14.00">GamesModule</text>
</g>
<!-- GamesModule&#45;&gt;SportsbookActionModule -->
<g id="edge4" class="edge">
<title>GamesModule&#45;&gt;SportsbookActionModule</title>
<path fill="none" stroke="black" d="M1227,-122.01C1227,-138.05 1227,-159 1227,-159 1227,-159 1122.72,-159 1122.72,-159"/>
<polygon fill="black" stroke="black" points="1122.72,-155.5 1112.72,-159 1122.72,-162.5 1122.72,-155.5"/>
</g>
<!-- GatewayApiModule -->
<g id="node5" class="node">
<title>GatewayApiModule</title>
<polygon fill="#8dd3c7" stroke="black" points="1160.29,-122 1157.29,-126 1136.29,-126 1133.29,-122 1029.71,-122 1029.71,-86 1160.29,-86 1160.29,-122"/>
<text text-anchor="middle" x="1095" y="-99.8" font-family="Times,serif" font-size="14.00">GatewayApiModule</text>
</g>
<!-- GatewayApiModule&#45;&gt;SportsbookActionModule -->
<g id="edge5" class="edge">
<title>GatewayApiModule&#45;&gt;SportsbookActionModule</title>
<path fill="none" stroke="black" d="M1071.28,-122.11C1071.28,-122.11 1071.28,-140.99 1071.28,-140.99"/>
<polygon fill="black" stroke="black" points="1067.78,-140.99 1071.28,-150.99 1074.78,-140.99 1067.78,-140.99"/>
</g>
<!-- UserModule -->
<g id="node6" class="node">
<title>UserModule</title>
<polygon fill="#8dd3c7" stroke="black" points="1011.98,-122 1008.98,-126 987.98,-126 984.98,-122 926.02,-122 926.02,-86 1011.98,-86 1011.98,-122"/>
<text text-anchor="middle" x="969" y="-99.8" font-family="Times,serif" font-size="14.00">UserModule</text>
</g>
<!-- UserModule&#45;&gt;SportsbookActionModule -->
<g id="edge6" class="edge">
<title>UserModule&#45;&gt;SportsbookActionModule</title>
<path fill="none" stroke="black" d="M981.64,-122.11C981.64,-122.11 981.64,-140.99 981.64,-140.99"/>
<polygon fill="black" stroke="black" points="978.14,-140.99 981.64,-150.99 985.14,-140.99 978.14,-140.99"/>
</g>
<!-- WithdrawalStrategyModule -->
<g id="node7" class="node">
<title>WithdrawalStrategyModule</title>
<polygon fill="#8dd3c7" stroke="black" points="908.29,-122 905.29,-126 884.29,-126 881.29,-122 735.71,-122 735.71,-86 908.29,-86 908.29,-122"/>
<text text-anchor="middle" x="822" y="-99.8" font-family="Times,serif" font-size="14.00">WithdrawalStrategyModule</text>
</g>
<!-- WithdrawalStrategyModule&#45;&gt;SportsbookActionModule -->
<g id="edge7" class="edge">
<title>WithdrawalStrategyModule&#45;&gt;SportsbookActionModule</title>
<path fill="none" stroke="black" d="M822,-122.01C822,-138.05 822,-159 822,-159 822,-159 941.11,-159 941.11,-159"/>
<polygon fill="black" stroke="black" points="941.11,-162.5 951.11,-159 941.11,-155.5 941.11,-162.5"/>
</g>
<!-- SportsbookTransactionService  -->
<g id="node9" class="node">
<title>SportsbookTransactionService </title>
<polygon fill="#fb8072" stroke="black" points="1127.84,-252 936.16,-252 936.16,-216 1127.84,-216 1127.84,-252"/>
<text text-anchor="middle" x="1032" y="-229.8" font-family="Times,serif" font-size="14.00">SportsbookTransactionService </text>
</g>
<!-- SportsbookActionModule&#45;&gt;SportsbookTransactionService  -->
<g id="edge8" class="edge">
<title>SportsbookActionModule&#45;&gt;SportsbookTransactionService </title>
<path fill="none" stroke="black" stroke-dasharray="5,2" d="M1032,-187.11C1032,-187.11 1032,-205.99 1032,-205.99"/>
<polygon fill="black" stroke="black" points="1028.5,-205.99 1032,-215.99 1035.5,-205.99 1028.5,-205.99"/>
</g>
<!-- RollbackStrategy -->
<g id="node10" class="node">
<title>RollbackStrategy</title>
<ellipse fill="#fdb462" stroke="black" cx="634" cy="-104" rx="78.17" ry="18"/>
<text text-anchor="middle" x="634" y="-99.8" font-family="Times,serif" font-size="14.00">RollbackStrategy</text>
</g>
<!-- RollbackStrategy&#45;&gt;SportsbookActionModule -->
<g id="edge9" class="edge">
<title>RollbackStrategy&#45;&gt;SportsbookActionModule</title>
<path fill="none" stroke="black" d="M634,-122.27C634,-140.56 634,-166 634,-166 634,-166 940.98,-166 940.98,-166"/>
<polygon fill="black" stroke="black" points="940.98,-169.5 950.98,-166 940.98,-162.5 940.98,-169.5"/>
</g>
<!-- SportsbookTransactionService -->
<g id="node11" class="node">
<title>SportsbookTransactionService</title>
<ellipse fill="#fdb462" stroke="black" cx="408" cy="-104" rx="129.64" ry="18"/>
<text text-anchor="middle" x="408" y="-99.8" font-family="Times,serif" font-size="14.00">SportsbookTransactionService</text>
</g>
<!-- SportsbookTransactionService&#45;&gt;SportsbookActionModule -->
<g id="edge10" class="edge">
<title>SportsbookTransactionService&#45;&gt;SportsbookActionModule</title>
<path fill="none" stroke="black" d="M408,-122.13C408,-142.57 408,-173 408,-173 408,-173 941.06,-173 941.06,-173"/>
<polygon fill="black" stroke="black" points="941.06,-176.5 951.06,-173 941.06,-169.5 941.06,-176.5"/>
</g>
<!-- TransactionStrategyFactory -->
<g id="node12" class="node">
<title>TransactionStrategyFactory</title>
<ellipse fill="#fdb462" stroke="black" cx="142" cy="-104" rx="118.09" ry="18"/>
<text text-anchor="middle" x="142" y="-99.8" font-family="Times,serif" font-size="14.00">TransactionStrategyFactory</text>
</g>
<!-- TransactionStrategyFactory&#45;&gt;SportsbookActionModule -->
<g id="edge11" class="edge">
<title>TransactionStrategyFactory&#45;&gt;SportsbookActionModule</title>
<path fill="none" stroke="black" d="M142,-122.01C142,-144.49 142,-180 142,-180 142,-180 941.05,-180 941.05,-180"/>
<polygon fill="black" stroke="black" points="941.05,-183.5 951.05,-180 941.05,-176.5 941.05,-183.5"/>
</g>
</g>
</svg>
