<?xml version="1.0" encoding="UTF-8" standalone="no"?>
<!DOCTYPE svg PUBLIC "-//W3C//DTD SVG 1.1//EN"
 "http://www.w3.org/Graphics/SVG/1.1/DTD/svg11.dtd">
<!-- Generated by graphviz version 2.47.0 (20210316.0004)
 -->
<!-- Title: dependencies Pages: 1 -->
<svg width="670pt" height="211pt"
 viewBox="0.00 0.00 670.00 211.00" xmlns="http://www.w3.org/2000/svg" xmlns:xlink="http://www.w3.org/1999/xlink">
<g id="graph0" class="graph" transform="scale(1 1) rotate(0) translate(4 207)">
<title>dependencies</title>
<polygon fill="white" stroke="transparent" points="-4,4 -4,-207 666,-207 666,4 -4,4"/>
<text text-anchor="start" x="310.01" y="-42.4" font-family="Times-12" font-weight="bold" font-size="14.00">Legend</text>
<polygon fill="#ffffb3" stroke="transparent" points="97,-10 97,-30 117,-30 117,-10 97,-10"/>
<text text-anchor="start" x="120.63" y="-15.4" font-family="Times-12" font-size="14.00"> &#160;Declarations</text>
<polygon fill="#8dd3c7" stroke="transparent" points="210,-10 210,-30 230,-30 230,-10 210,-10"/>
<text text-anchor="start" x="233.73" y="-15.4" font-family="Times-12" font-size="14.00"> &#160;Module</text>
<polygon fill="#80b1d3" stroke="transparent" points="296,-10 296,-30 316,-30 316,-10 296,-10"/>
<text text-anchor="start" x="319.78" y="-15.4" font-family="Times-12" font-size="14.00"> &#160;Bootstrap</text>
<polygon fill="#fdb462" stroke="transparent" points="393,-10 393,-30 413,-30 413,-10 393,-10"/>
<text text-anchor="start" x="416.67" y="-15.4" font-family="Times-12" font-size="14.00"> &#160;Providers</text>
<polygon fill="#fb8072" stroke="transparent" points="489,-10 489,-30 509,-30 509,-10 489,-10"/>
<text text-anchor="start" x="512.73" y="-15.4" font-family="Times-12" font-size="14.00"> &#160;Exports</text>
<g id="clust1" class="cluster">
<title>cluster_GatewayModule</title>
<polygon fill="none" stroke="black" stroke-dasharray="1,5" points="8,-70 8,-195 654,-195 654,-70 8,-70"/>
</g>
<g id="clust3" class="cluster">
<title>cluster_GatewayModule_imports</title>
<polygon fill="none" stroke="black" points="324,-78 324,-130 646,-130 646,-78 324,-78"/>
</g>
<g id="clust6" class="cluster">
<title>cluster_GatewayModule_providers</title>
<polygon fill="none" stroke="black" points="16,-78 16,-130 316,-130 316,-78 16,-78"/>
</g>
<!-- GatewayServerModule -->
<g id="node1" class="node">
<title>GatewayServerModule</title>
<polygon fill="#8dd3c7" stroke="black" points="637.83,-122 634.83,-126 613.83,-126 610.83,-122 492.17,-122 492.17,-86 637.83,-86 637.83,-122"/>
<text text-anchor="middle" x="565" y="-99.8" font-family="Times,serif" font-size="14.00">GatewayServerModule</text>
</g>
<!-- GatewayModule -->
<g id="node3" class="node">
<title>GatewayModule</title>
<polygon fill="#8dd3c7" stroke="black" points="380.8,-187 377.8,-191 356.8,-191 353.8,-187 271.2,-187 271.2,-151 380.8,-151 380.8,-187"/>
<text text-anchor="middle" x="326" y="-164.8" font-family="Times,serif" font-size="14.00">GatewayModule</text>
</g>
<!-- GatewayServerModule&#45;&gt;GatewayModule -->
<g id="edge1" class="edge">
<title>GatewayServerModule&#45;&gt;GatewayModule</title>
<path fill="none" stroke="black" d="M565,-122.11C565,-141.34 565,-169 565,-169 565,-169 390.83,-169 390.83,-169"/>
<polygon fill="black" stroke="black" points="390.83,-165.5 380.83,-169 390.83,-172.5 390.83,-165.5"/>
</g>
<!-- OnlineTrackerModule -->
<g id="node2" class="node">
<title>OnlineTrackerModule</title>
<polygon fill="#8dd3c7" stroke="black" points="473.67,-122 470.67,-126 449.67,-126 446.67,-122 332.33,-122 332.33,-86 473.67,-86 473.67,-122"/>
<text text-anchor="middle" x="403" y="-99.8" font-family="Times,serif" font-size="14.00">OnlineTrackerModule</text>
</g>
<!-- OnlineTrackerModule&#45;&gt;GatewayModule -->
<g id="edge2" class="edge">
<title>OnlineTrackerModule&#45;&gt;GatewayModule</title>
<path fill="none" stroke="black" d="M356.53,-122.11C356.53,-122.11 356.53,-140.99 356.53,-140.99"/>
<polygon fill="black" stroke="black" points="353.03,-140.99 356.53,-150.99 360.03,-140.99 353.03,-140.99"/>
</g>
<!-- AuthService -->
<g id="node4" class="node">
<title>AuthService</title>
<ellipse fill="#fdb462" stroke="black" cx="249" cy="-104" rx="59.11" ry="18"/>
<text text-anchor="middle" x="249" y="-99.8" font-family="Times,serif" font-size="14.00">AuthService</text>
</g>
<!-- AuthService&#45;&gt;GatewayModule -->
<g id="edge3" class="edge">
<title>AuthService&#45;&gt;GatewayModule</title>
<path fill="none" stroke="black" d="M289.83,-117.15C289.83,-117.15 289.83,-140.69 289.83,-140.69"/>
<polygon fill="black" stroke="black" points="286.33,-140.69 289.83,-150.69 293.33,-140.69 286.33,-140.69"/>
</g>
<!-- BackendService -->
<g id="node5" class="node">
<title>BackendService</title>
<ellipse fill="#fdb462" stroke="black" cx="98" cy="-104" rx="73.56" ry="18"/>
<text text-anchor="middle" x="98" y="-99.8" font-family="Times,serif" font-size="14.00">BackendService</text>
</g>
<!-- BackendService&#45;&gt;GatewayModule -->
<g id="edge4" class="edge">
<title>BackendService&#45;&gt;GatewayModule</title>
<path fill="none" stroke="black" d="M98,-122.11C98,-141.34 98,-169 98,-169 98,-169 261.1,-169 261.1,-169"/>
<polygon fill="black" stroke="black" points="261.1,-172.5 271.1,-169 261.1,-165.5 261.1,-172.5"/>
</g>
</g>
</svg>
