<?xml version="1.0" encoding="UTF-8" standalone="no"?>
<!DOCTYPE svg PUBLIC "-//W3C//DTD SVG 1.1//EN"
 "http://www.w3.org/Graphics/SVG/1.1/DTD/svg11.dtd">
<!-- Generated by graphviz version 2.47.0 (20210316.0004)
 -->
<!-- Title: dependencies Pages: 1 -->
<svg width="636pt" height="284pt"
 viewBox="0.00 0.00 636.00 284.00" xmlns="http://www.w3.org/2000/svg" xmlns:xlink="http://www.w3.org/1999/xlink">
<g id="graph0" class="graph" transform="scale(1 1) rotate(0) translate(4 280)">
<title>dependencies</title>
<polygon fill="white" stroke="transparent" points="-4,4 -4,-280 632,-280 632,4 -4,4"/>
<text text-anchor="start" x="293.01" y="-42.4" font-family="Times-12" font-weight="bold" font-size="14.00">Legend</text>
<polygon fill="#ffffb3" stroke="transparent" points="80,-10 80,-30 100,-30 100,-10 80,-10"/>
<text text-anchor="start" x="103.63" y="-15.4" font-family="Times-12" font-size="14.00"> &#160;Declarations</text>
<polygon fill="#8dd3c7" stroke="transparent" points="193,-10 193,-30 213,-30 213,-10 193,-10"/>
<text text-anchor="start" x="216.73" y="-15.4" font-family="Times-12" font-size="14.00"> &#160;Module</text>
<polygon fill="#80b1d3" stroke="transparent" points="279,-10 279,-30 299,-30 299,-10 279,-10"/>
<text text-anchor="start" x="302.78" y="-15.4" font-family="Times-12" font-size="14.00"> &#160;Bootstrap</text>
<polygon fill="#fdb462" stroke="transparent" points="376,-10 376,-30 396,-30 396,-10 376,-10"/>
<text text-anchor="start" x="399.67" y="-15.4" font-family="Times-12" font-size="14.00"> &#160;Providers</text>
<polygon fill="#fb8072" stroke="transparent" points="472,-10 472,-30 492,-30 492,-10 472,-10"/>
<text text-anchor="start" x="495.73" y="-15.4" font-family="Times-12" font-size="14.00"> &#160;Exports</text>
<g id="clust1" class="cluster">
<title>cluster_SkinDeckModule</title>
<polygon fill="none" stroke="black" stroke-dasharray="1,5" points="8,-70 8,-268 620,-268 620,-70 8,-70"/>
</g>
<g id="clust3" class="cluster">
<title>cluster_SkinDeckModule_imports</title>
<polygon fill="none" stroke="black" points="510,-78 510,-130 612,-130 612,-78 510,-78"/>
</g>
<g id="clust6" class="cluster">
<title>cluster_SkinDeckModule_providers</title>
<polygon fill="none" stroke="black" points="16,-78 16,-130 502,-130 502,-78 16,-78"/>
</g>
<g id="clust4" class="cluster">
<title>cluster_SkinDeckModule_exports</title>
<polygon fill="none" stroke="black" points="289,-208 289,-260 471,-260 471,-208 289,-208"/>
</g>
<!-- UserModule -->
<g id="node1" class="node">
<title>UserModule</title>
<polygon fill="#8dd3c7" stroke="black" points="603.98,-122 600.98,-126 579.98,-126 576.98,-122 518.02,-122 518.02,-86 603.98,-86 603.98,-122"/>
<text text-anchor="middle" x="561" y="-99.8" font-family="Times,serif" font-size="14.00">UserModule</text>
</g>
<!-- SkinDeckModule -->
<g id="node2" class="node">
<title>SkinDeckModule</title>
<polygon fill="#8dd3c7" stroke="black" points="437.26,-187 434.26,-191 413.26,-191 410.26,-187 322.74,-187 322.74,-151 437.26,-151 437.26,-187"/>
<text text-anchor="middle" x="380" y="-164.8" font-family="Times,serif" font-size="14.00">SkinDeckModule</text>
</g>
<!-- UserModule&#45;&gt;SkinDeckModule -->
<g id="edge1" class="edge">
<title>UserModule&#45;&gt;SkinDeckModule</title>
<path fill="none" stroke="black" d="M561,-122.11C561,-141.34 561,-169 561,-169 561,-169 447.27,-169 447.27,-169"/>
<polygon fill="black" stroke="black" points="447.27,-165.5 437.27,-169 447.27,-172.5 447.27,-165.5"/>
</g>
<!-- SkinDeckDepositsService  -->
<g id="node3" class="node">
<title>SkinDeckDepositsService </title>
<polygon fill="#fb8072" stroke="black" points="462.68,-252 297.32,-252 297.32,-216 462.68,-216 462.68,-252"/>
<text text-anchor="middle" x="380" y="-229.8" font-family="Times,serif" font-size="14.00">SkinDeckDepositsService </text>
</g>
<!-- SkinDeckModule&#45;&gt;SkinDeckDepositsService  -->
<g id="edge2" class="edge">
<title>SkinDeckModule&#45;&gt;SkinDeckDepositsService </title>
<path fill="none" stroke="black" stroke-dasharray="5,2" d="M380,-187.11C380,-187.11 380,-205.99 380,-205.99"/>
<polygon fill="black" stroke="black" points="376.5,-205.99 380,-215.99 383.5,-205.99 376.5,-205.99"/>
</g>
<!-- SkinDeckCommonService -->
<g id="node4" class="node">
<title>SkinDeckCommonService</title>
<ellipse fill="#fdb462" stroke="black" cx="380" cy="-104" rx="114.05" ry="18"/>
<text text-anchor="middle" x="380" y="-99.8" font-family="Times,serif" font-size="14.00">SkinDeckCommonService</text>
</g>
<!-- SkinDeckCommonService&#45;&gt;SkinDeckModule -->
<g id="edge3" class="edge">
<title>SkinDeckCommonService&#45;&gt;SkinDeckModule</title>
<path fill="none" stroke="black" d="M380,-122.11C380,-122.11 380,-140.99 380,-140.99"/>
<polygon fill="black" stroke="black" points="376.5,-140.99 380,-150.99 383.5,-140.99 376.5,-140.99"/>
</g>
<!-- SkinDeckDepositsService -->
<g id="node5" class="node">
<title>SkinDeckDepositsService</title>
<ellipse fill="#fdb462" stroke="black" cx="136" cy="-104" rx="111.74" ry="18"/>
<text text-anchor="middle" x="136" y="-99.8" font-family="Times,serif" font-size="14.00">SkinDeckDepositsService</text>
</g>
<!-- SkinDeckDepositsService&#45;&gt;SkinDeckModule -->
<g id="edge4" class="edge">
<title>SkinDeckDepositsService&#45;&gt;SkinDeckModule</title>
<path fill="none" stroke="black" d="M136,-122.11C136,-141.34 136,-169 136,-169 136,-169 312.48,-169 312.48,-169"/>
<polygon fill="black" stroke="black" points="312.48,-172.5 322.48,-169 312.48,-165.5 312.48,-172.5"/>
</g>
</g>
</svg>
