<?xml version="1.0" encoding="UTF-8" standalone="no"?>
<!DOCTYPE svg PUBLIC "-//W3C//DTD SVG 1.1//EN"
 "http://www.w3.org/Graphics/SVG/1.1/DTD/svg11.dtd">
<!-- Generated by graphviz version 2.47.0 (20210316.0004)
 -->
<!-- Title: dependencies Pages: 1 -->
<svg width="3466pt" height="211pt"
 viewBox="0.00 0.00 3466.00 211.00" xmlns="http://www.w3.org/2000/svg" xmlns:xlink="http://www.w3.org/1999/xlink">
<g id="graph0" class="graph" transform="scale(1 1) rotate(0) translate(4 207)">
<title>dependencies</title>
<polygon fill="white" stroke="transparent" points="-4,4 -4,-207 3462,-207 3462,4 -4,4"/>
<text text-anchor="start" x="1708.01" y="-42.4" font-family="Times-12" font-weight="bold" font-size="14.00">Legend</text>
<polygon fill="#ffffb3" stroke="transparent" points="1495,-10 1495,-30 1515,-30 1515,-10 1495,-10"/>
<text text-anchor="start" x="1518.63" y="-15.4" font-family="Times-12" font-size="14.00"> &#160;Declarations</text>
<polygon fill="#8dd3c7" stroke="transparent" points="1608,-10 1608,-30 1628,-30 1628,-10 1608,-10"/>
<text text-anchor="start" x="1631.73" y="-15.4" font-family="Times-12" font-size="14.00"> &#160;Module</text>
<polygon fill="#80b1d3" stroke="transparent" points="1694,-10 1694,-30 1714,-30 1714,-10 1694,-10"/>
<text text-anchor="start" x="1717.78" y="-15.4" font-family="Times-12" font-size="14.00"> &#160;Bootstrap</text>
<polygon fill="#fdb462" stroke="transparent" points="1791,-10 1791,-30 1811,-30 1811,-10 1791,-10"/>
<text text-anchor="start" x="1814.67" y="-15.4" font-family="Times-12" font-size="14.00"> &#160;Providers</text>
<polygon fill="#fb8072" stroke="transparent" points="1887,-10 1887,-30 1907,-30 1907,-10 1887,-10"/>
<text text-anchor="start" x="1910.73" y="-15.4" font-family="Times-12" font-size="14.00"> &#160;Exports</text>
<g id="clust1" class="cluster">
<title>cluster_Pm8WalletModule</title>
<polygon fill="none" stroke="black" stroke-dasharray="1,5" points="8,-70 8,-195 3450,-195 3450,-70 8,-70"/>
</g>
<g id="clust3" class="cluster">
<title>cluster_Pm8WalletModule_imports</title>
<polygon fill="none" stroke="black" points="2441,-78 2441,-130 3442,-130 3442,-78 2441,-78"/>
</g>
<g id="clust6" class="cluster">
<title>cluster_Pm8WalletModule_providers</title>
<polygon fill="none" stroke="black" points="16,-78 16,-130 2433,-130 2433,-78 16,-78"/>
</g>
<!-- AccountingModule -->
<g id="node1" class="node">
<title>AccountingModule</title>
<polygon fill="#8dd3c7" stroke="black" points="3434.37,-122 3431.37,-126 3410.37,-126 3407.37,-122 3309.63,-122 3309.63,-86 3434.37,-86 3434.37,-122"/>
<text text-anchor="middle" x="3372" y="-99.8" font-family="Times,serif" font-size="14.00">AccountingModule</text>
</g>
<!-- Pm8WalletModule -->
<g id="node8" class="node">
<title>Pm8WalletModule</title>
<polygon fill="#8dd3c7" stroke="black" points="2237.04,-187 2234.04,-191 2213.04,-191 2210.04,-187 2114.96,-187 2114.96,-151 2237.04,-151 2237.04,-187"/>
<text text-anchor="middle" x="2176" y="-164.8" font-family="Times,serif" font-size="14.00">Pm8WalletModule</text>
</g>
<!-- AccountingModule&#45;&gt;Pm8WalletModule -->
<g id="edge1" class="edge">
<title>AccountingModule&#45;&gt;Pm8WalletModule</title>
<path fill="none" stroke="black" d="M3372,-122.32C3372,-145.66 3372,-183 3372,-183 3372,-183 2247.37,-183 2247.37,-183"/>
<polygon fill="black" stroke="black" points="2247.37,-179.5 2237.37,-183 2247.37,-186.5 2247.37,-179.5"/>
</g>
<!-- BetModule -->
<g id="node2" class="node">
<title>BetModule</title>
<polygon fill="#8dd3c7" stroke="black" points="3291.49,-122 3288.49,-126 3267.49,-126 3264.49,-122 3212.51,-122 3212.51,-86 3291.49,-86 3291.49,-122"/>
<text text-anchor="middle" x="3252" y="-99.8" font-family="Times,serif" font-size="14.00">BetModule</text>
</g>
<!-- BetModule&#45;&gt;Pm8WalletModule -->
<g id="edge2" class="edge">
<title>BetModule&#45;&gt;Pm8WalletModule</title>
<path fill="none" stroke="black" d="M3252,-122.16C3252,-144.35 3252,-179 3252,-179 3252,-179 2247.32,-179 2247.32,-179"/>
<polygon fill="black" stroke="black" points="2247.32,-175.5 2237.32,-179 2247.32,-182.5 2247.32,-175.5"/>
</g>
<!-- GamesModule -->
<g id="node3" class="node">
<title>GamesModule</title>
<polygon fill="#8dd3c7" stroke="black" points="3194.42,-122 3191.42,-126 3170.42,-126 3167.42,-122 3095.58,-122 3095.58,-86 3194.42,-86 3194.42,-122"/>
<text text-anchor="middle" x="3145" y="-99.8" font-family="Times,serif" font-size="14.00">GamesModule</text>
</g>
<!-- GamesModule&#45;&gt;Pm8WalletModule -->
<g id="edge3" class="edge">
<title>GamesModule&#45;&gt;Pm8WalletModule</title>
<path fill="none" stroke="black" d="M3145,-122.28C3145,-143.32 3145,-175 3145,-175 3145,-175 2247.35,-175 2247.35,-175"/>
<polygon fill="black" stroke="black" points="2247.35,-171.5 2237.35,-175 2247.35,-178.5 2247.35,-171.5"/>
</g>
<!-- GatewayApiModule -->
<g id="node4" class="node">
<title>GatewayApiModule</title>
<polygon fill="#8dd3c7" stroke="black" points="3078.29,-122 3075.29,-126 3054.29,-126 3051.29,-122 2947.71,-122 2947.71,-86 3078.29,-86 3078.29,-122"/>
<text text-anchor="middle" x="3013" y="-99.8" font-family="Times,serif" font-size="14.00">GatewayApiModule</text>
</g>
<!-- GatewayApiModule&#45;&gt;Pm8WalletModule -->
<g id="edge4" class="edge">
<title>GatewayApiModule&#45;&gt;Pm8WalletModule</title>
<path fill="none" stroke="black" d="M3013,-122.31C3013,-142.15 3013,-171 3013,-171 3013,-171 2247.21,-171 2247.21,-171"/>
<polygon fill="black" stroke="black" points="2247.21,-167.5 2237.21,-171 2247.21,-174.5 2247.21,-167.5"/>
</g>
<!-- Pm8AuthModule -->
<g id="node5" class="node">
<title>Pm8AuthModule</title>
<polygon fill="#8dd3c7" stroke="black" points="2929.72,-122 2926.72,-126 2905.72,-126 2902.72,-122 2816.28,-122 2816.28,-86 2929.72,-86 2929.72,-122"/>
<text text-anchor="middle" x="2873" y="-99.8" font-family="Times,serif" font-size="14.00">Pm8AuthModule</text>
</g>
<!-- Pm8AuthModule&#45;&gt;Pm8WalletModule -->
<g id="edge5" class="edge">
<title>Pm8AuthModule&#45;&gt;Pm8WalletModule</title>
<path fill="none" stroke="black" d="M2873,-122.22C2873,-140.83 2873,-167 2873,-167 2873,-167 2247.24,-167 2247.24,-167"/>
<polygon fill="black" stroke="black" points="2247.24,-163.5 2237.24,-167 2247.24,-170.5 2247.24,-163.5"/>
</g>
<!-- Pm8IdempotencyCacheModule -->
<g id="node6" class="node">
<title>Pm8IdempotencyCacheModule</title>
<polygon fill="#8dd3c7" stroke="black" points="2798.79,-122 2795.79,-126 2774.79,-126 2771.79,-122 2605.21,-122 2605.21,-86 2798.79,-86 2798.79,-122"/>
<text text-anchor="middle" x="2702" y="-99.8" font-family="Times,serif" font-size="14.00">Pm8IdempotencyCacheModule</text>
</g>
<!-- Pm8IdempotencyCacheModule&#45;&gt;Pm8WalletModule -->
<g id="edge6" class="edge">
<title>Pm8IdempotencyCacheModule&#45;&gt;Pm8WalletModule</title>
<path fill="none" stroke="black" d="M2702,-122.02C2702,-139.37 2702,-163 2702,-163 2702,-163 2247.11,-163 2247.11,-163"/>
<polygon fill="black" stroke="black" points="2247.11,-159.5 2237.11,-163 2247.11,-166.5 2247.11,-159.5"/>
</g>
<!-- Pm8SignatureModule -->
<g id="node7" class="node">
<title>Pm8SignatureModule</title>
<polygon fill="#8dd3c7" stroke="black" points="2587.38,-122 2584.38,-126 2563.38,-126 2560.38,-122 2448.62,-122 2448.62,-86 2587.38,-86 2587.38,-122"/>
<text text-anchor="middle" x="2518" y="-99.8" font-family="Times,serif" font-size="14.00">Pm8SignatureModule</text>
</g>
<!-- Pm8SignatureModule&#45;&gt;Pm8WalletModule -->
<g id="edge7" class="edge">
<title>Pm8SignatureModule&#45;&gt;Pm8WalletModule</title>
<path fill="none" stroke="black" d="M2518,-122.01C2518,-138.05 2518,-159 2518,-159 2518,-159 2247.14,-159 2247.14,-159"/>
<polygon fill="black" stroke="black" points="2247.14,-155.5 2237.14,-159 2247.14,-162.5 2247.14,-155.5"/>
</g>
<!-- Pm8PlayerService -->
<g id="node9" class="node">
<title>Pm8PlayerService</title>
<ellipse fill="#fdb462" stroke="black" cx="2343" cy="-104" rx="82.24" ry="18"/>
<text text-anchor="middle" x="2343" y="-99.8" font-family="Times,serif" font-size="14.00">Pm8PlayerService</text>
</g>
<!-- Pm8PlayerService&#45;&gt;Pm8WalletModule -->
<g id="edge8" class="edge">
<title>Pm8PlayerService&#45;&gt;Pm8WalletModule</title>
<path fill="none" stroke="black" d="M2343,-122.12C2343,-136.78 2343,-155 2343,-155 2343,-155 2247.24,-155 2247.24,-155"/>
<polygon fill="black" stroke="black" points="2247.24,-151.5 2237.24,-155 2247.24,-158.5 2247.24,-151.5"/>
</g>
<!-- Pm8RtService -->
<g id="node10" class="node">
<title>Pm8RtService</title>
<ellipse fill="#fdb462" stroke="black" cx="2176" cy="-104" rx="66.65" ry="18"/>
<text text-anchor="middle" x="2176" y="-99.8" font-family="Times,serif" font-size="14.00">Pm8RtService</text>
</g>
<!-- Pm8RtService&#45;&gt;Pm8WalletModule -->
<g id="edge9" class="edge">
<title>Pm8RtService&#45;&gt;Pm8WalletModule</title>
<path fill="none" stroke="black" d="M2176,-122.11C2176,-122.11 2176,-140.99 2176,-140.99"/>
<polygon fill="black" stroke="black" points="2172.5,-140.99 2176,-150.99 2179.5,-140.99 2172.5,-140.99"/>
</g>
<!-- Pm8TestSessionAction -->
<g id="node11" class="node">
<title>Pm8TestSessionAction</title>
<ellipse fill="#fdb462" stroke="black" cx="1990" cy="-104" rx="101.32" ry="18"/>
<text text-anchor="middle" x="1990" y="-99.8" font-family="Times,serif" font-size="14.00">Pm8TestSessionAction</text>
</g>
<!-- Pm8TestSessionAction&#45;&gt;Pm8WalletModule -->
<g id="edge10" class="edge">
<title>Pm8TestSessionAction&#45;&gt;Pm8WalletModule</title>
<path fill="none" stroke="black" d="M1990,-122.12C1990,-136.78 1990,-155 1990,-155 1990,-155 2104.84,-155 2104.84,-155"/>
<polygon fill="black" stroke="black" points="2104.84,-158.5 2114.84,-155 2104.84,-151.5 2104.84,-158.5"/>
</g>
<!-- Pm8TransactionBetAction -->
<g id="node12" class="node">
<title>Pm8TransactionBetAction</title>
<ellipse fill="#fdb462" stroke="black" cx="1757" cy="-104" rx="114.04" ry="18"/>
<text text-anchor="middle" x="1757" y="-99.8" font-family="Times,serif" font-size="14.00">Pm8TransactionBetAction</text>
</g>
<!-- Pm8TransactionBetAction&#45;&gt;Pm8WalletModule -->
<g id="edge11" class="edge">
<title>Pm8TransactionBetAction&#45;&gt;Pm8WalletModule</title>
<path fill="none" stroke="black" d="M1757,-122.01C1757,-138.05 1757,-159 1757,-159 1757,-159 2104.63,-159 2104.63,-159"/>
<polygon fill="black" stroke="black" points="2104.63,-162.5 2114.63,-159 2104.63,-155.5 2104.63,-162.5"/>
</g>
<!-- Pm8TransactionPromoWinAction -->
<g id="node13" class="node">
<title>Pm8TransactionPromoWinAction</title>
<ellipse fill="#fdb462" stroke="black" cx="1482" cy="-104" rx="142.98" ry="18"/>
<text text-anchor="middle" x="1482" y="-99.8" font-family="Times,serif" font-size="14.00">Pm8TransactionPromoWinAction</text>
</g>
<!-- Pm8TransactionPromoWinAction&#45;&gt;Pm8WalletModule -->
<g id="edge12" class="edge">
<title>Pm8TransactionPromoWinAction&#45;&gt;Pm8WalletModule</title>
<path fill="none" stroke="black" d="M1482,-122.02C1482,-139.37 1482,-163 1482,-163 1482,-163 2104.72,-163 2104.72,-163"/>
<polygon fill="black" stroke="black" points="2104.72,-166.5 2114.72,-163 2104.72,-159.5 2104.72,-166.5"/>
</g>
<!-- Pm8TransactionRefundAction -->
<g id="node14" class="node">
<title>Pm8TransactionRefundAction</title>
<ellipse fill="#fdb462" stroke="black" cx="1192" cy="-104" rx="129.08" ry="18"/>
<text text-anchor="middle" x="1192" y="-99.8" font-family="Times,serif" font-size="14.00">Pm8TransactionRefundAction</text>
</g>
<!-- Pm8TransactionRefundAction&#45;&gt;Pm8WalletModule -->
<g id="edge13" class="edge">
<title>Pm8TransactionRefundAction&#45;&gt;Pm8WalletModule</title>
<path fill="none" stroke="black" d="M1192,-122.22C1192,-140.83 1192,-167 1192,-167 1192,-167 2104.82,-167 2104.82,-167"/>
<polygon fill="black" stroke="black" points="2104.82,-170.5 2114.82,-167 2104.82,-163.5 2104.82,-170.5"/>
</g>
<!-- Pm8TransactionService -->
<g id="node15" class="node">
<title>Pm8TransactionService</title>
<ellipse fill="#fdb462" stroke="black" cx="942" cy="-104" rx="103.07" ry="18"/>
<text text-anchor="middle" x="942" y="-99.8" font-family="Times,serif" font-size="14.00">Pm8TransactionService</text>
</g>
<!-- Pm8TransactionService&#45;&gt;Pm8WalletModule -->
<g id="edge14" class="edge">
<title>Pm8TransactionService&#45;&gt;Pm8WalletModule</title>
<path fill="none" stroke="black" d="M942,-122.31C942,-142.15 942,-171 942,-171 942,-171 2104.81,-171 2104.81,-171"/>
<polygon fill="black" stroke="black" points="2104.81,-174.5 2114.81,-171 2104.81,-167.5 2104.81,-174.5"/>
</g>
<!-- Pm8TransactionTournamentWinAction -->
<g id="node16" class="node">
<title>Pm8TransactionTournamentWinAction</title>
<ellipse fill="#fdb462" stroke="black" cx="656" cy="-104" rx="164.37" ry="18"/>
<text text-anchor="middle" x="656" y="-99.8" font-family="Times,serif" font-size="14.00">Pm8TransactionTournamentWinAction</text>
</g>
<!-- Pm8TransactionTournamentWinAction&#45;&gt;Pm8WalletModule -->
<g id="edge15" class="edge">
<title>Pm8TransactionTournamentWinAction&#45;&gt;Pm8WalletModule</title>
<path fill="none" stroke="black" d="M656,-122.28C656,-143.32 656,-175 656,-175 656,-175 2104.53,-175 2104.53,-175"/>
<polygon fill="black" stroke="black" points="2104.53,-178.5 2114.53,-175 2104.53,-171.5 2104.53,-178.5"/>
</g>
<!-- Pm8TransactionWinAction -->
<g id="node17" class="node">
<title>Pm8TransactionWinAction</title>
<ellipse fill="#fdb462" stroke="black" cx="356" cy="-104" rx="117.48" ry="18"/>
<text text-anchor="middle" x="356" y="-99.8" font-family="Times,serif" font-size="14.00">Pm8TransactionWinAction</text>
</g>
<!-- Pm8TransactionWinAction&#45;&gt;Pm8WalletModule -->
<g id="edge16" class="edge">
<title>Pm8TransactionWinAction&#45;&gt;Pm8WalletModule</title>
<path fill="none" stroke="black" d="M356,-122.16C356,-144.35 356,-179 356,-179 356,-179 2104.92,-179 2104.92,-179"/>
<polygon fill="black" stroke="black" points="2104.92,-182.5 2114.92,-179 2104.92,-175.5 2104.92,-182.5"/>
</g>
<!-- Pm8ValidationService -->
<g id="node18" class="node">
<title>Pm8ValidationService</title>
<ellipse fill="#fdb462" stroke="black" cx="122" cy="-104" rx="98.43" ry="18"/>
<text text-anchor="middle" x="122" y="-99.8" font-family="Times,serif" font-size="14.00">Pm8ValidationService</text>
</g>
<!-- Pm8ValidationService&#45;&gt;Pm8WalletModule -->
<g id="edge17" class="edge">
<title>Pm8ValidationService&#45;&gt;Pm8WalletModule</title>
<path fill="none" stroke="black" d="M122,-122.32C122,-145.66 122,-183 122,-183 122,-183 2104.81,-183 2104.81,-183"/>
<polygon fill="black" stroke="black" points="2104.81,-186.5 2114.81,-183 2104.81,-179.5 2104.81,-186.5"/>
</g>
</g>
</svg>
