<?xml version="1.0" encoding="UTF-8" standalone="no"?>
<!DOCTYPE svg PUBLIC "-//W3C//DTD SVG 1.1//EN"
 "http://www.w3.org/Graphics/SVG/1.1/DTD/svg11.dtd">
<!-- Generated by graphviz version 2.47.0 (20210316.0004)
 -->
<!-- Title: dependencies Pages: 1 -->
<svg width="2550pt" height="284pt"
 viewBox="0.00 0.00 2550.00 284.00" xmlns="http://www.w3.org/2000/svg" xmlns:xlink="http://www.w3.org/1999/xlink">
<g id="graph0" class="graph" transform="scale(1 1) rotate(0) translate(4 280)">
<title>dependencies</title>
<polygon fill="white" stroke="transparent" points="-4,4 -4,-280 2546,-280 2546,4 -4,4"/>
<text text-anchor="start" x="1250.01" y="-42.4" font-family="Times-12" font-weight="bold" font-size="14.00">Legend</text>
<polygon fill="#ffffb3" stroke="transparent" points="1037,-10 1037,-30 1057,-30 1057,-10 1037,-10"/>
<text text-anchor="start" x="1060.63" y="-15.4" font-family="Times-12" font-size="14.00"> &#160;Declarations</text>
<polygon fill="#8dd3c7" stroke="transparent" points="1150,-10 1150,-30 1170,-30 1170,-10 1150,-10"/>
<text text-anchor="start" x="1173.73" y="-15.4" font-family="Times-12" font-size="14.00"> &#160;Module</text>
<polygon fill="#80b1d3" stroke="transparent" points="1236,-10 1236,-30 1256,-30 1256,-10 1236,-10"/>
<text text-anchor="start" x="1259.78" y="-15.4" font-family="Times-12" font-size="14.00"> &#160;Bootstrap</text>
<polygon fill="#fdb462" stroke="transparent" points="1333,-10 1333,-30 1353,-30 1353,-10 1333,-10"/>
<text text-anchor="start" x="1356.67" y="-15.4" font-family="Times-12" font-size="14.00"> &#160;Providers</text>
<polygon fill="#fb8072" stroke="transparent" points="1429,-10 1429,-30 1449,-30 1449,-10 1429,-10"/>
<text text-anchor="start" x="1452.73" y="-15.4" font-family="Times-12" font-size="14.00"> &#160;Exports</text>
<g id="clust1" class="cluster">
<title>cluster_UserModule</title>
<polygon fill="none" stroke="black" stroke-dasharray="1,5" points="8,-70 8,-268 2534,-268 2534,-70 8,-70"/>
</g>
<g id="clust3" class="cluster">
<title>cluster_UserModule_imports</title>
<polygon fill="none" stroke="black" points="1082,-78 1082,-130 2526,-130 2526,-78 1082,-78"/>
</g>
<g id="clust4" class="cluster">
<title>cluster_UserModule_exports</title>
<polygon fill="none" stroke="black" points="1017,-208 1017,-260 1603,-260 1603,-208 1017,-208"/>
</g>
<g id="clust6" class="cluster">
<title>cluster_UserModule_providers</title>
<polygon fill="none" stroke="black" points="16,-78 16,-130 1074,-130 1074,-78 16,-78"/>
</g>
<!-- AccountingModule -->
<g id="node1" class="node">
<title>AccountingModule</title>
<polygon fill="#8dd3c7" stroke="black" points="2518.37,-122 2515.37,-126 2494.37,-126 2491.37,-122 2393.63,-122 2393.63,-86 2518.37,-86 2518.37,-122"/>
<text text-anchor="middle" x="2456" y="-99.8" font-family="Times,serif" font-size="14.00">AccountingModule</text>
</g>
<!-- UserModule -->
<g id="node10" class="node">
<title>UserModule</title>
<polygon fill="#8dd3c7" stroke="black" points="1371.98,-187 1368.98,-191 1347.98,-191 1344.98,-187 1286.02,-187 1286.02,-151 1371.98,-151 1371.98,-187"/>
<text text-anchor="middle" x="1329" y="-164.8" font-family="Times,serif" font-size="14.00">UserModule</text>
</g>
<!-- AccountingModule&#45;&gt;UserModule -->
<g id="edge1" class="edge">
<title>AccountingModule&#45;&gt;UserModule</title>
<path fill="none" stroke="black" d="M2456,-122.16C2456,-144.35 2456,-179 2456,-179 2456,-179 1382.15,-179 1382.15,-179"/>
<polygon fill="black" stroke="black" points="1382.15,-175.5 1372.15,-179 1382.15,-182.5 1382.15,-175.5"/>
</g>
<!-- ExternalNotificationSenderModule -->
<g id="node2" class="node">
<title>ExternalNotificationSenderModule</title>
<polygon fill="#8dd3c7" stroke="black" points="2376,-122 2373,-126 2352,-126 2349,-122 2162,-122 2162,-86 2376,-86 2376,-122"/>
<text text-anchor="middle" x="2269" y="-99.8" font-family="Times,serif" font-size="14.00">ExternalNotificationSenderModule</text>
</g>
<!-- ExternalNotificationSenderModule&#45;&gt;UserModule -->
<g id="edge2" class="edge">
<title>ExternalNotificationSenderModule&#45;&gt;UserModule</title>
<path fill="none" stroke="black" d="M2269,-122.28C2269,-143.32 2269,-175 2269,-175 2269,-175 1382.14,-175 1382.14,-175"/>
<polygon fill="black" stroke="black" points="1382.14,-171.5 1372.14,-175 1382.14,-178.5 1382.14,-171.5"/>
</g>
<!-- GatewayApiModule -->
<g id="node3" class="node">
<title>GatewayApiModule</title>
<polygon fill="#8dd3c7" stroke="black" points="2144.29,-122 2141.29,-126 2120.29,-126 2117.29,-122 2013.71,-122 2013.71,-86 2144.29,-86 2144.29,-122"/>
<text text-anchor="middle" x="2079" y="-99.8" font-family="Times,serif" font-size="14.00">GatewayApiModule</text>
</g>
<!-- GatewayApiModule&#45;&gt;UserModule -->
<g id="edge3" class="edge">
<title>GatewayApiModule&#45;&gt;UserModule</title>
<path fill="none" stroke="black" d="M2079,-122.31C2079,-142.15 2079,-171 2079,-171 2079,-171 1382.02,-171 1382.02,-171"/>
<polygon fill="black" stroke="black" points="1382.02,-167.5 1372.02,-171 1382.02,-174.5 1382.02,-167.5"/>
</g>
<!-- NotificationModule -->
<g id="node4" class="node">
<title>NotificationModule</title>
<polygon fill="#8dd3c7" stroke="black" points="1995.7,-122 1992.7,-126 1971.7,-126 1968.7,-122 1868.3,-122 1868.3,-86 1995.7,-86 1995.7,-122"/>
<text text-anchor="middle" x="1932" y="-99.8" font-family="Times,serif" font-size="14.00">NotificationModule</text>
</g>
<!-- NotificationModule&#45;&gt;UserModule -->
<g id="edge4" class="edge">
<title>NotificationModule&#45;&gt;UserModule</title>
<path fill="none" stroke="black" d="M1932,-122.22C1932,-140.83 1932,-167 1932,-167 1932,-167 1382.37,-167 1382.37,-167"/>
<polygon fill="black" stroke="black" points="1382.37,-163.5 1372.37,-167 1382.37,-170.5 1382.37,-163.5"/>
</g>
<!-- RecaptchaModule -->
<g id="node5" class="node">
<title>RecaptchaModule</title>
<polygon fill="#8dd3c7" stroke="black" points="1849.85,-122 1846.85,-126 1825.85,-126 1822.85,-122 1732.15,-122 1732.15,-86 1849.85,-86 1849.85,-122"/>
<text text-anchor="middle" x="1791" y="-99.8" font-family="Times,serif" font-size="14.00">RecaptchaModule</text>
</g>
<!-- RecaptchaModule&#45;&gt;UserModule -->
<g id="edge5" class="edge">
<title>RecaptchaModule&#45;&gt;UserModule</title>
<path fill="none" stroke="black" d="M1791,-122.02C1791,-139.37 1791,-163 1791,-163 1791,-163 1382.05,-163 1382.05,-163"/>
<polygon fill="black" stroke="black" points="1382.05,-159.5 1372.05,-163 1382.05,-166.5 1382.05,-159.5"/>
</g>
<!-- RegistrationInfoModule -->
<g id="node6" class="node">
<title>RegistrationInfoModule</title>
<polygon fill="#8dd3c7" stroke="black" points="1713.8,-122 1710.8,-126 1689.8,-126 1686.8,-122 1562.2,-122 1562.2,-86 1713.8,-86 1713.8,-122"/>
<text text-anchor="middle" x="1638" y="-99.8" font-family="Times,serif" font-size="14.00">RegistrationInfoModule</text>
</g>
<!-- RegistrationInfoModule&#45;&gt;UserModule -->
<g id="edge6" class="edge">
<title>RegistrationInfoModule&#45;&gt;UserModule</title>
<path fill="none" stroke="black" d="M1578.45,-122.01C1578.45,-138.05 1578.45,-159 1578.45,-159 1578.45,-159 1382.17,-159 1382.17,-159"/>
<polygon fill="black" stroke="black" points="1382.17,-155.5 1372.17,-159 1382.17,-162.5 1382.17,-155.5"/>
</g>
<!-- SiteConfigApiModule -->
<g id="node7" class="node">
<title>SiteConfigApiModule</title>
<polygon fill="#8dd3c7" stroke="black" points="1544.71,-122 1541.71,-126 1520.71,-126 1517.71,-122 1403.29,-122 1403.29,-86 1544.71,-86 1544.71,-122"/>
<text text-anchor="middle" x="1474" y="-99.8" font-family="Times,serif" font-size="14.00">SiteConfigApiModule</text>
</g>
<!-- SiteConfigApiModule&#45;&gt;UserModule -->
<g id="edge7" class="edge">
<title>SiteConfigApiModule&#45;&gt;UserModule</title>
<path fill="none" stroke="black" d="M1418.17,-122.12C1418.17,-136.78 1418.17,-155 1418.17,-155 1418.17,-155 1382.02,-155 1382.02,-155"/>
<polygon fill="black" stroke="black" points="1382.02,-151.5 1372.02,-155 1382.02,-158.5 1382.02,-151.5"/>
</g>
<!-- UserStatsModule -->
<g id="node8" class="node">
<title>UserStatsModule</title>
<polygon fill="#8dd3c7" stroke="black" points="1385.7,-122 1382.7,-126 1361.7,-126 1358.7,-122 1272.3,-122 1272.3,-86 1385.7,-86 1385.7,-122"/>
<text text-anchor="middle" x="1329" y="-99.8" font-family="Times,serif" font-size="14.00">UserStatsModule</text>
</g>
<!-- UserStatsModule&#45;&gt;UserModule -->
<g id="edge8" class="edge">
<title>UserStatsModule&#45;&gt;UserModule</title>
<path fill="none" stroke="black" d="M1329,-122.11C1329,-122.11 1329,-140.99 1329,-140.99"/>
<polygon fill="black" stroke="black" points="1325.5,-140.99 1329,-150.99 1332.5,-140.99 1325.5,-140.99"/>
</g>
<!-- WithdrawalsBlockModule -->
<g id="node9" class="node">
<title>WithdrawalsBlockModule</title>
<polygon fill="#8dd3c7" stroke="black" points="1254.02,-122 1251.02,-126 1230.02,-126 1227.02,-122 1089.98,-122 1089.98,-86 1254.02,-86 1254.02,-122"/>
<text text-anchor="middle" x="1172" y="-99.8" font-family="Times,serif" font-size="14.00">WithdrawalsBlockModule</text>
</g>
<!-- WithdrawalsBlockModule&#45;&gt;UserModule -->
<g id="edge9" class="edge">
<title>WithdrawalsBlockModule&#45;&gt;UserModule</title>
<path fill="none" stroke="black" d="M1232.45,-122.12C1232.45,-136.78 1232.45,-155 1232.45,-155 1232.45,-155 1275.81,-155 1275.81,-155"/>
<polygon fill="black" stroke="black" points="1275.81,-158.5 1285.81,-155 1275.81,-151.5 1275.81,-158.5"/>
</g>
<!-- OnlineTrackerService  -->
<g id="node11" class="node">
<title>OnlineTrackerService </title>
<polygon fill="#fb8072" stroke="black" points="1594.6,-252 1451.4,-252 1451.4,-216 1594.6,-216 1594.6,-252"/>
<text text-anchor="middle" x="1523" y="-229.8" font-family="Times,serif" font-size="14.00">OnlineTrackerService </text>
</g>
<!-- UserModule&#45;&gt;OnlineTrackerService  -->
<g id="edge10" class="edge">
<title>UserModule&#45;&gt;OnlineTrackerService </title>
<path fill="none" stroke="black" stroke-dasharray="5,2" d="M1372.09,-183C1422.17,-183 1498.03,-183 1498.03,-183 1498.03,-183 1498.03,-205.88 1498.03,-205.88"/>
<polygon fill="black" stroke="black" points="1494.53,-205.88 1498.03,-215.88 1501.53,-205.88 1494.53,-205.88"/>
</g>
<!-- UserService  -->
<g id="node12" class="node">
<title>UserService </title>
<polygon fill="#fb8072" stroke="black" points="1432.9,-252 1345.1,-252 1345.1,-216 1432.9,-216 1432.9,-252"/>
<text text-anchor="middle" x="1389" y="-229.8" font-family="Times,serif" font-size="14.00">UserService </text>
</g>
<!-- UserModule&#45;&gt;UserService  -->
<g id="edge11" class="edge">
<title>UserModule&#45;&gt;UserService </title>
<path fill="none" stroke="black" stroke-dasharray="5,2" d="M1358.52,-187.11C1358.52,-187.11 1358.52,-205.99 1358.52,-205.99"/>
<polygon fill="black" stroke="black" points="1355.02,-205.99 1358.52,-215.99 1362.02,-205.99 1355.02,-205.99"/>
</g>
<!-- UserStatsModule  -->
<g id="node13" class="node">
<title>UserStatsModule </title>
<polygon fill="#fb8072" stroke="black" points="1327.2,-252 1210.8,-252 1210.8,-216 1327.2,-216 1327.2,-252"/>
<text text-anchor="middle" x="1269" y="-229.8" font-family="Times,serif" font-size="14.00">UserStatsModule </text>
</g>
<!-- UserModule&#45;&gt;UserStatsModule  -->
<g id="edge12" class="edge">
<title>UserModule&#45;&gt;UserStatsModule </title>
<path fill="none" stroke="black" stroke-dasharray="5,2" d="M1306.68,-187.11C1306.68,-187.11 1306.68,-205.99 1306.68,-205.99"/>
<polygon fill="black" stroke="black" points="1303.18,-205.99 1306.68,-215.99 1310.18,-205.99 1303.18,-205.99"/>
</g>
<!-- WithdrawalsBlockModule  -->
<g id="node14" class="node">
<title>WithdrawalsBlockModule </title>
<polygon fill="#fb8072" stroke="black" points="1193.02,-252 1024.98,-252 1024.98,-216 1193.02,-216 1193.02,-252"/>
<text text-anchor="middle" x="1109" y="-229.8" font-family="Times,serif" font-size="14.00">WithdrawalsBlockModule </text>
</g>
<!-- UserModule&#45;&gt;WithdrawalsBlockModule  -->
<g id="edge13" class="edge">
<title>UserModule&#45;&gt;WithdrawalsBlockModule </title>
<path fill="none" stroke="black" stroke-dasharray="5,2" d="M1285.96,-183C1230.56,-183 1141.38,-183 1141.38,-183 1141.38,-183 1141.38,-205.88 1141.38,-205.88"/>
<polygon fill="black" stroke="black" points="1137.88,-205.88 1141.38,-215.88 1144.88,-205.88 1137.88,-205.88"/>
</g>
<!-- NotesService -->
<g id="node15" class="node">
<title>NotesService</title>
<ellipse fill="#fdb462" stroke="black" cx="1003" cy="-104" rx="62.54" ry="18"/>
<text text-anchor="middle" x="1003" y="-99.8" font-family="Times,serif" font-size="14.00">NotesService</text>
</g>
<!-- NotesService&#45;&gt;UserModule -->
<g id="edge14" class="edge">
<title>NotesService&#45;&gt;UserModule</title>
<path fill="none" stroke="black" d="M1045.25,-117.31C1045.25,-133.59 1045.25,-159 1045.25,-159 1045.25,-159 1275.91,-159 1275.91,-159"/>
<polygon fill="black" stroke="black" points="1275.91,-162.5 1285.91,-159 1275.91,-155.5 1275.91,-162.5"/>
</g>
<!-- OnlineTrackerService -->
<g id="node16" class="node">
<title>OnlineTrackerService</title>
<ellipse fill="#fdb462" stroke="black" cx="826" cy="-104" rx="96.08" ry="18"/>
<text text-anchor="middle" x="826" y="-99.8" font-family="Times,serif" font-size="14.00">OnlineTrackerService</text>
</g>
<!-- OnlineTrackerService&#45;&gt;UserModule -->
<g id="edge15" class="edge">
<title>OnlineTrackerService&#45;&gt;UserModule</title>
<path fill="none" stroke="black" d="M826,-122.02C826,-139.37 826,-163 826,-163 826,-163 1275.68,-163 1275.68,-163"/>
<polygon fill="black" stroke="black" points="1275.68,-166.5 1285.68,-163 1275.68,-159.5 1275.68,-166.5"/>
</g>
<!-- ProfileNotifierService -->
<g id="node17" class="node">
<title>ProfileNotifierService</title>
<ellipse fill="#fdb462" stroke="black" cx="615" cy="-104" rx="96.68" ry="18"/>
<text text-anchor="middle" x="615" y="-99.8" font-family="Times,serif" font-size="14.00">ProfileNotifierService</text>
</g>
<!-- ProfileNotifierService&#45;&gt;UserModule -->
<g id="edge16" class="edge">
<title>ProfileNotifierService&#45;&gt;UserModule</title>
<path fill="none" stroke="black" d="M615,-122.22C615,-140.83 615,-167 615,-167 615,-167 1275.94,-167 1275.94,-167"/>
<polygon fill="black" stroke="black" points="1275.94,-170.5 1285.94,-167 1275.94,-163.5 1275.94,-170.5"/>
</g>
<!-- UserRepository -->
<g id="node18" class="node">
<title>UserRepository</title>
<ellipse fill="#fdb462" stroke="black" cx="429" cy="-104" rx="71.79" ry="18"/>
<text text-anchor="middle" x="429" y="-99.8" font-family="Times,serif" font-size="14.00">UserRepository</text>
</g>
<!-- UserRepository&#45;&gt;UserModule -->
<g id="edge17" class="edge">
<title>UserRepository&#45;&gt;UserModule</title>
<path fill="none" stroke="black" d="M429,-122.31C429,-142.15 429,-171 429,-171 429,-171 1275.89,-171 1275.89,-171"/>
<polygon fill="black" stroke="black" points="1275.89,-174.5 1285.89,-171 1275.89,-167.5 1275.89,-174.5"/>
</g>
<!-- UserService -->
<g id="node19" class="node">
<title>UserService</title>
<ellipse fill="#fdb462" stroke="black" cx="281" cy="-104" rx="58.44" ry="18"/>
<text text-anchor="middle" x="281" y="-99.8" font-family="Times,serif" font-size="14.00">UserService</text>
</g>
<!-- UserService&#45;&gt;UserModule -->
<g id="edge18" class="edge">
<title>UserService&#45;&gt;UserModule</title>
<path fill="none" stroke="black" d="M281,-122.28C281,-143.32 281,-175 281,-175 281,-175 1275.96,-175 1275.96,-175"/>
<polygon fill="black" stroke="black" points="1275.96,-178.5 1285.96,-175 1275.96,-171.5 1275.96,-178.5"/>
</g>
<!-- UserStatsRepository -->
<g id="node20" class="node">
<title>UserStatsRepository</title>
<ellipse fill="#fdb462" stroke="black" cx="114" cy="-104" rx="90.34" ry="18"/>
<text text-anchor="middle" x="114" y="-99.8" font-family="Times,serif" font-size="14.00">UserStatsRepository</text>
</g>
<!-- UserStatsRepository&#45;&gt;UserModule -->
<g id="edge19" class="edge">
<title>UserStatsRepository&#45;&gt;UserModule</title>
<path fill="none" stroke="black" d="M114,-122.16C114,-144.35 114,-179 114,-179 114,-179 1275.76,-179 1275.76,-179"/>
<polygon fill="black" stroke="black" points="1275.76,-182.5 1285.76,-179 1275.76,-175.5 1275.76,-182.5"/>
</g>
</g>
</svg>
