<?xml version="1.0" encoding="UTF-8" standalone="no"?>
<!DOCTYPE svg PUBLIC "-//W3C//DTD SVG 1.1//EN"
 "http://www.w3.org/Graphics/SVG/1.1/DTD/svg11.dtd">
<!-- Generated by graphviz version 2.47.0 (20210316.0004)
 -->
<!-- Title: dependencies Pages: 1 -->
<svg width="748pt" height="211pt"
 viewBox="0.00 0.00 748.00 211.00" xmlns="http://www.w3.org/2000/svg" xmlns:xlink="http://www.w3.org/1999/xlink">
<g id="graph0" class="graph" transform="scale(1 1) rotate(0) translate(4 207)">
<title>dependencies</title>
<polygon fill="white" stroke="transparent" points="-4,4 -4,-207 744,-207 744,4 -4,4"/>
<text text-anchor="start" x="349.01" y="-42.4" font-family="Times-12" font-weight="bold" font-size="14.00">Legend</text>
<polygon fill="#ffffb3" stroke="transparent" points="136,-10 136,-30 156,-30 156,-10 136,-10"/>
<text text-anchor="start" x="159.63" y="-15.4" font-family="Times-12" font-size="14.00"> &#160;Declarations</text>
<polygon fill="#8dd3c7" stroke="transparent" points="249,-10 249,-30 269,-30 269,-10 249,-10"/>
<text text-anchor="start" x="272.73" y="-15.4" font-family="Times-12" font-size="14.00"> &#160;Module</text>
<polygon fill="#80b1d3" stroke="transparent" points="335,-10 335,-30 355,-30 355,-10 335,-10"/>
<text text-anchor="start" x="358.78" y="-15.4" font-family="Times-12" font-size="14.00"> &#160;Bootstrap</text>
<polygon fill="#fdb462" stroke="transparent" points="432,-10 432,-30 452,-30 452,-10 432,-10"/>
<text text-anchor="start" x="455.67" y="-15.4" font-family="Times-12" font-size="14.00"> &#160;Providers</text>
<polygon fill="#fb8072" stroke="transparent" points="528,-10 528,-30 548,-30 548,-10 528,-10"/>
<text text-anchor="start" x="551.73" y="-15.4" font-family="Times-12" font-size="14.00"> &#160;Exports</text>
<g id="clust1" class="cluster">
<title>cluster_VipProgramModule</title>
<polygon fill="none" stroke="black" stroke-dasharray="1,5" points="8,-70 8,-195 732,-195 732,-70 8,-70"/>
</g>
<g id="clust6" class="cluster">
<title>cluster_VipProgramModule_providers</title>
<polygon fill="none" stroke="black" points="16,-78 16,-130 724,-130 724,-78 16,-78"/>
</g>
<!-- VipApplicationAdminService -->
<g id="node1" class="node">
<title>VipApplicationAdminService</title>
<ellipse fill="#fdb462" stroke="black" cx="589" cy="-104" rx="126.79" ry="18"/>
<text text-anchor="middle" x="589" y="-99.8" font-family="Times,serif" font-size="14.00">VipApplicationAdminService</text>
</g>
<!-- VipProgramModule -->
<g id="node4" class="node">
<title>VipProgramModule</title>
<polygon fill="#8dd3c7" stroke="black" points="408.26,-187 405.26,-191 384.26,-191 381.26,-187 279.74,-187 279.74,-151 408.26,-151 408.26,-187"/>
<text text-anchor="middle" x="344" y="-164.8" font-family="Times,serif" font-size="14.00">VipProgramModule</text>
</g>
<!-- VipApplicationAdminService&#45;&gt;VipProgramModule -->
<g id="edge1" class="edge">
<title>VipApplicationAdminService&#45;&gt;VipProgramModule</title>
<path fill="none" stroke="black" d="M589,-122.11C589,-141.34 589,-169 589,-169 589,-169 418.37,-169 418.37,-169"/>
<polygon fill="black" stroke="black" points="418.37,-165.5 408.37,-169 418.37,-172.5 418.37,-165.5"/>
</g>
<!-- VipApplicationService -->
<g id="node2" class="node">
<title>VipApplicationService</title>
<ellipse fill="#fdb462" stroke="black" cx="344" cy="-104" rx="100.14" ry="18"/>
<text text-anchor="middle" x="344" y="-99.8" font-family="Times,serif" font-size="14.00">VipApplicationService</text>
</g>
<!-- VipApplicationService&#45;&gt;VipProgramModule -->
<g id="edge2" class="edge">
<title>VipApplicationService&#45;&gt;VipProgramModule</title>
<path fill="none" stroke="black" d="M344,-122.11C344,-122.11 344,-140.99 344,-140.99"/>
<polygon fill="black" stroke="black" points="340.5,-140.99 344,-150.99 347.5,-140.99 340.5,-140.99"/>
</g>
<!-- VipProgramRepository -->
<g id="node3" class="node">
<title>VipProgramRepository</title>
<ellipse fill="#fdb462" stroke="black" cx="125" cy="-104" rx="101.3" ry="18"/>
<text text-anchor="middle" x="125" y="-99.8" font-family="Times,serif" font-size="14.00">VipProgramRepository</text>
</g>
<!-- VipProgramRepository&#45;&gt;VipProgramModule -->
<g id="edge3" class="edge">
<title>VipProgramRepository&#45;&gt;VipProgramModule</title>
<path fill="none" stroke="black" d="M125,-122.11C125,-141.34 125,-169 125,-169 125,-169 269.48,-169 269.48,-169"/>
<polygon fill="black" stroke="black" points="269.48,-172.5 279.48,-169 269.48,-165.5 269.48,-172.5"/>
</g>
</g>
</svg>
