<?xml version="1.0" encoding="UTF-8" standalone="no"?>
<!DOCTYPE svg PUBLIC "-//W3C//DTD SVG 1.1//EN"
 "http://www.w3.org/Graphics/SVG/1.1/DTD/svg11.dtd">
<!-- Generated by graphviz version 2.47.0 (20210316.0004)
 -->
<!-- Title: dependencies Pages: 1 -->
<svg width="526pt" height="284pt"
 viewBox="0.00 0.00 526.00 284.00" xmlns="http://www.w3.org/2000/svg" xmlns:xlink="http://www.w3.org/1999/xlink">
<g id="graph0" class="graph" transform="scale(1 1) rotate(0) translate(4 280)">
<title>dependencies</title>
<polygon fill="white" stroke="transparent" points="-4,4 -4,-280 522,-280 522,4 -4,4"/>
<text text-anchor="start" x="238.01" y="-42.4" font-family="Times-12" font-weight="bold" font-size="14.00">Legend</text>
<polygon fill="#ffffb3" stroke="transparent" points="25,-10 25,-30 45,-30 45,-10 25,-10"/>
<text text-anchor="start" x="48.63" y="-15.4" font-family="Times-12" font-size="14.00"> &#160;Declarations</text>
<polygon fill="#8dd3c7" stroke="transparent" points="138,-10 138,-30 158,-30 158,-10 138,-10"/>
<text text-anchor="start" x="161.73" y="-15.4" font-family="Times-12" font-size="14.00"> &#160;Module</text>
<polygon fill="#80b1d3" stroke="transparent" points="224,-10 224,-30 244,-30 244,-10 224,-10"/>
<text text-anchor="start" x="247.78" y="-15.4" font-family="Times-12" font-size="14.00"> &#160;Bootstrap</text>
<polygon fill="#fdb462" stroke="transparent" points="321,-10 321,-30 341,-30 341,-10 321,-10"/>
<text text-anchor="start" x="344.67" y="-15.4" font-family="Times-12" font-size="14.00"> &#160;Providers</text>
<polygon fill="#fb8072" stroke="transparent" points="417,-10 417,-30 437,-30 437,-10 417,-10"/>
<text text-anchor="start" x="440.73" y="-15.4" font-family="Times-12" font-size="14.00"> &#160;Exports</text>
<g id="clust1" class="cluster">
<title>cluster_BotSessionModule</title>
<polygon fill="none" stroke="black" stroke-dasharray="1,5" points="8,-70 8,-268 510,-268 510,-70 8,-70"/>
</g>
<g id="clust6" class="cluster">
<title>cluster_BotSessionModule_providers</title>
<polygon fill="none" stroke="black" points="160,-78 160,-130 502,-130 502,-78 160,-78"/>
</g>
<g id="clust4" class="cluster">
<title>cluster_BotSessionModule_exports</title>
<polygon fill="none" stroke="black" points="115,-208 115,-260 379,-260 379,-208 115,-208"/>
</g>
<g id="clust3" class="cluster">
<title>cluster_BotSessionModule_imports</title>
<polygon fill="none" stroke="black" points="16,-78 16,-130 152,-130 152,-78 16,-78"/>
</g>
<!-- EnvConfigModule -->
<g id="node1" class="node">
<title>EnvConfigModule</title>
<polygon fill="#8dd3c7" stroke="black" points="144.49,-122 141.49,-126 120.49,-126 117.49,-122 23.51,-122 23.51,-86 144.49,-86 144.49,-122"/>
<text text-anchor="middle" x="84" y="-99.8" font-family="Times,serif" font-size="14.00">EnvConfigModule</text>
</g>
<!-- BotSessionModule -->
<g id="node2" class="node">
<title>BotSessionModule</title>
<polygon fill="#8dd3c7" stroke="black" points="312.05,-187 309.05,-191 288.05,-191 285.05,-187 189.95,-187 189.95,-151 312.05,-151 312.05,-187"/>
<text text-anchor="middle" x="251" y="-164.8" font-family="Times,serif" font-size="14.00">BotSessionModule</text>
</g>
<!-- EnvConfigModule&#45;&gt;BotSessionModule -->
<g id="edge1" class="edge">
<title>EnvConfigModule&#45;&gt;BotSessionModule</title>
<path fill="none" stroke="black" d="M133.63,-122.11C133.63,-141.34 133.63,-169 133.63,-169 133.63,-169 179.91,-169 179.91,-169"/>
<polygon fill="black" stroke="black" points="179.91,-172.5 189.91,-169 179.91,-165.5 179.91,-172.5"/>
</g>
<!-- BotRedisClient  -->
<g id="node3" class="node">
<title>BotRedisClient </title>
<polygon fill="#fb8072" stroke="black" points="370.84,-252 265.16,-252 265.16,-216 370.84,-216 370.84,-252"/>
<text text-anchor="middle" x="318" y="-229.8" font-family="Times,serif" font-size="14.00">BotRedisClient </text>
</g>
<!-- BotSessionModule&#45;&gt;BotRedisClient  -->
<g id="edge2" class="edge">
<title>BotSessionModule&#45;&gt;BotRedisClient </title>
<path fill="none" stroke="black" stroke-dasharray="5,2" d="M288.68,-187.11C288.68,-187.11 288.68,-205.99 288.68,-205.99"/>
<polygon fill="black" stroke="black" points="285.18,-205.99 288.68,-215.99 292.18,-205.99 285.18,-205.99"/>
</g>
<!-- BotSessionService  -->
<g id="node4" class="node">
<title>BotSessionService </title>
<polygon fill="#fb8072" stroke="black" points="247.48,-252 122.52,-252 122.52,-216 247.48,-216 247.48,-252"/>
<text text-anchor="middle" x="185" y="-229.8" font-family="Times,serif" font-size="14.00">BotSessionService </text>
</g>
<!-- BotSessionModule&#45;&gt;BotSessionService  -->
<g id="edge3" class="edge">
<title>BotSessionModule&#45;&gt;BotSessionService </title>
<path fill="none" stroke="black" stroke-dasharray="5,2" d="M218.48,-187.11C218.48,-187.11 218.48,-205.99 218.48,-205.99"/>
<polygon fill="black" stroke="black" points="214.98,-205.99 218.48,-215.99 221.98,-205.99 214.98,-205.99"/>
</g>
<!-- BotRedisClient -->
<g id="node5" class="node">
<title>BotRedisClient</title>
<ellipse fill="#fdb462" stroke="black" cx="423" cy="-104" rx="70.68" ry="18"/>
<text text-anchor="middle" x="423" y="-99.8" font-family="Times,serif" font-size="14.00">BotRedisClient</text>
</g>
<!-- BotRedisClient&#45;&gt;BotSessionModule -->
<g id="edge4" class="edge">
<title>BotRedisClient&#45;&gt;BotSessionModule</title>
<path fill="none" stroke="black" d="M361.66,-113.04C361.66,-130.9 361.66,-169 361.66,-169 361.66,-169 322.16,-169 322.16,-169"/>
<polygon fill="black" stroke="black" points="322.16,-165.5 312.16,-169 322.16,-172.5 322.16,-165.5"/>
</g>
<!-- BotSessionService -->
<g id="node6" class="node">
<title>BotSessionService</title>
<ellipse fill="#fdb462" stroke="black" cx="251" cy="-104" rx="83.4" ry="18"/>
<text text-anchor="middle" x="251" y="-99.8" font-family="Times,serif" font-size="14.00">BotSessionService</text>
</g>
<!-- BotSessionService&#45;&gt;BotSessionModule -->
<g id="edge5" class="edge">
<title>BotSessionService&#45;&gt;BotSessionModule</title>
<path fill="none" stroke="black" d="M251,-122.11C251,-122.11 251,-140.99 251,-140.99"/>
<polygon fill="black" stroke="black" points="247.5,-140.99 251,-150.99 254.5,-140.99 247.5,-140.99"/>
</g>
</g>
</svg>
