<?xml version="1.0" encoding="UTF-8" standalone="no"?>
<!DOCTYPE svg PUBLIC "-//W3C//DTD SVG 1.1//EN"
 "http://www.w3.org/Graphics/SVG/1.1/DTD/svg11.dtd">
<!-- Generated by graphviz version 2.47.0 (20210316.0004)
 -->
<!-- Title: dependencies Pages: 1 -->
<svg width="728pt" height="284pt"
 viewBox="0.00 0.00 728.00 284.00" xmlns="http://www.w3.org/2000/svg" xmlns:xlink="http://www.w3.org/1999/xlink">
<g id="graph0" class="graph" transform="scale(1 1) rotate(0) translate(4 280)">
<title>dependencies</title>
<polygon fill="white" stroke="transparent" points="-4,4 -4,-280 724,-280 724,4 -4,4"/>
<text text-anchor="start" x="339.01" y="-42.4" font-family="Times-12" font-weight="bold" font-size="14.00">Legend</text>
<polygon fill="#ffffb3" stroke="transparent" points="126,-10 126,-30 146,-30 146,-10 126,-10"/>
<text text-anchor="start" x="149.63" y="-15.4" font-family="Times-12" font-size="14.00"> &#160;Declarations</text>
<polygon fill="#8dd3c7" stroke="transparent" points="239,-10 239,-30 259,-30 259,-10 239,-10"/>
<text text-anchor="start" x="262.73" y="-15.4" font-family="Times-12" font-size="14.00"> &#160;Module</text>
<polygon fill="#80b1d3" stroke="transparent" points="325,-10 325,-30 345,-30 345,-10 325,-10"/>
<text text-anchor="start" x="348.78" y="-15.4" font-family="Times-12" font-size="14.00"> &#160;Bootstrap</text>
<polygon fill="#fdb462" stroke="transparent" points="422,-10 422,-30 442,-30 442,-10 422,-10"/>
<text text-anchor="start" x="445.67" y="-15.4" font-family="Times-12" font-size="14.00"> &#160;Providers</text>
<polygon fill="#fb8072" stroke="transparent" points="518,-10 518,-30 538,-30 538,-10 518,-10"/>
<text text-anchor="start" x="541.73" y="-15.4" font-family="Times-12" font-size="14.00"> &#160;Exports</text>
<g id="clust1" class="cluster">
<title>cluster_PlinkoModule</title>
<polygon fill="none" stroke="black" stroke-dasharray="1,5" points="8,-70 8,-268 712,-268 712,-70 8,-70"/>
</g>
<g id="clust6" class="cluster">
<title>cluster_PlinkoModule_providers</title>
<polygon fill="none" stroke="black" points="558,-78 558,-130 704,-130 704,-78 558,-78"/>
</g>
<g id="clust3" class="cluster">
<title>cluster_PlinkoModule_imports</title>
<polygon fill="none" stroke="black" points="16,-78 16,-130 550,-130 550,-78 16,-78"/>
</g>
<g id="clust4" class="cluster">
<title>cluster_PlinkoModule_exports</title>
<polygon fill="none" stroke="black" points="339,-208 339,-260 453,-260 453,-208 339,-208"/>
</g>
<!-- BetModule -->
<g id="node1" class="node">
<title>BetModule</title>
<polygon fill="#8dd3c7" stroke="black" points="542.49,-122 539.49,-126 518.49,-126 515.49,-122 463.51,-122 463.51,-86 542.49,-86 542.49,-122"/>
<text text-anchor="middle" x="503" y="-99.8" font-family="Times,serif" font-size="14.00">BetModule</text>
</g>
<!-- PlinkoModule -->
<g id="node5" class="node">
<title>PlinkoModule</title>
<polygon fill="#8dd3c7" stroke="black" points="444.11,-187 441.11,-191 420.11,-191 417.11,-187 347.89,-187 347.89,-151 444.11,-151 444.11,-187"/>
<text text-anchor="middle" x="396" y="-164.8" font-family="Times,serif" font-size="14.00">PlinkoModule</text>
</g>
<!-- BetModule&#45;&gt;PlinkoModule -->
<g id="edge1" class="edge">
<title>BetModule&#45;&gt;PlinkoModule</title>
<path fill="none" stroke="black" d="M503,-122.02C503,-139.37 503,-163 503,-163 503,-163 454.18,-163 454.18,-163"/>
<polygon fill="black" stroke="black" points="454.18,-159.5 444.18,-163 454.18,-166.5 454.18,-159.5"/>
</g>
<!-- GamesModule -->
<g id="node2" class="node">
<title>GamesModule</title>
<polygon fill="#8dd3c7" stroke="black" points="445.42,-122 442.42,-126 421.42,-126 418.42,-122 346.58,-122 346.58,-86 445.42,-86 445.42,-122"/>
<text text-anchor="middle" x="396" y="-99.8" font-family="Times,serif" font-size="14.00">GamesModule</text>
</g>
<!-- GamesModule&#45;&gt;PlinkoModule -->
<g id="edge2" class="edge">
<title>GamesModule&#45;&gt;PlinkoModule</title>
<path fill="none" stroke="black" d="M396,-122.11C396,-122.11 396,-140.99 396,-140.99"/>
<polygon fill="black" stroke="black" points="392.5,-140.99 396,-150.99 399.5,-140.99 392.5,-140.99"/>
</g>
<!-- HouseValidationModule -->
<g id="node3" class="node">
<title>HouseValidationModule</title>
<polygon fill="#8dd3c7" stroke="black" points="329.41,-122 326.41,-126 305.41,-126 302.41,-122 174.59,-122 174.59,-86 329.41,-86 329.41,-122"/>
<text text-anchor="middle" x="252" y="-99.8" font-family="Times,serif" font-size="14.00">HouseValidationModule</text>
</g>
<!-- HouseValidationModule&#45;&gt;PlinkoModule -->
<g id="edge3" class="edge">
<title>HouseValidationModule&#45;&gt;PlinkoModule</title>
<path fill="none" stroke="black" d="M252,-122.02C252,-139.37 252,-163 252,-163 252,-163 337.65,-163 337.65,-163"/>
<polygon fill="black" stroke="black" points="337.65,-166.5 347.65,-163 337.65,-159.5 337.65,-166.5"/>
</g>
<!-- ProvablyFairModule -->
<g id="node4" class="node">
<title>ProvablyFairModule</title>
<polygon fill="#8dd3c7" stroke="black" points="156.15,-122 153.15,-126 132.15,-126 129.15,-122 23.85,-122 23.85,-86 156.15,-86 156.15,-122"/>
<text text-anchor="middle" x="90" y="-99.8" font-family="Times,serif" font-size="14.00">ProvablyFairModule</text>
</g>
<!-- ProvablyFairModule&#45;&gt;PlinkoModule -->
<g id="edge4" class="edge">
<title>ProvablyFairModule&#45;&gt;PlinkoModule</title>
<path fill="none" stroke="black" d="M90,-122.28C90,-143.32 90,-175 90,-175 90,-175 337.85,-175 337.85,-175"/>
<polygon fill="black" stroke="black" points="337.85,-178.5 347.85,-175 337.85,-171.5 337.85,-178.5"/>
</g>
<!-- PlinkoService  -->
<g id="node6" class="node">
<title>PlinkoService </title>
<polygon fill="#fb8072" stroke="black" points="445.04,-252 346.96,-252 346.96,-216 445.04,-216 445.04,-252"/>
<text text-anchor="middle" x="396" y="-229.8" font-family="Times,serif" font-size="14.00">PlinkoService </text>
</g>
<!-- PlinkoModule&#45;&gt;PlinkoService  -->
<g id="edge5" class="edge">
<title>PlinkoModule&#45;&gt;PlinkoService </title>
<path fill="none" stroke="black" stroke-dasharray="5,2" d="M396,-187.11C396,-187.11 396,-205.99 396,-205.99"/>
<polygon fill="black" stroke="black" points="392.5,-205.99 396,-215.99 399.5,-205.99 392.5,-205.99"/>
</g>
<!-- PlinkoService -->
<g id="node7" class="node">
<title>PlinkoService</title>
<ellipse fill="#fdb462" stroke="black" cx="631" cy="-104" rx="65.43" ry="18"/>
<text text-anchor="middle" x="631" y="-99.8" font-family="Times,serif" font-size="14.00">PlinkoService</text>
</g>
<!-- PlinkoService&#45;&gt;PlinkoModule -->
<g id="edge6" class="edge">
<title>PlinkoService&#45;&gt;PlinkoModule</title>
<path fill="none" stroke="black" d="M631,-122.28C631,-143.32 631,-175 631,-175 631,-175 454.12,-175 454.12,-175"/>
<polygon fill="black" stroke="black" points="454.12,-171.5 444.12,-175 454.12,-178.5 454.12,-171.5"/>
</g>
</g>
</svg>
