<?xml version="1.0" encoding="UTF-8" standalone="no"?>
<!DOCTYPE svg PUBLIC "-//W3C//DTD SVG 1.1//EN"
 "http://www.w3.org/Graphics/SVG/1.1/DTD/svg11.dtd">
<!-- Generated by graphviz version 2.47.0 (20210316.0004)
 -->
<!-- Title: dependencies Pages: 1 -->
<svg width="887pt" height="284pt"
 viewBox="0.00 0.00 887.00 284.00" xmlns="http://www.w3.org/2000/svg" xmlns:xlink="http://www.w3.org/1999/xlink">
<g id="graph0" class="graph" transform="scale(1 1) rotate(0) translate(4 280)">
<title>dependencies</title>
<polygon fill="white" stroke="transparent" points="-4,4 -4,-280 883,-280 883,4 -4,4"/>
<text text-anchor="start" x="418.51" y="-42.4" font-family="Times-12" font-weight="bold" font-size="14.00">Legend</text>
<polygon fill="#ffffb3" stroke="transparent" points="205.5,-10 205.5,-30 225.5,-30 225.5,-10 205.5,-10"/>
<text text-anchor="start" x="229.13" y="-15.4" font-family="Times-12" font-size="14.00"> &#160;Declarations</text>
<polygon fill="#8dd3c7" stroke="transparent" points="318.5,-10 318.5,-30 338.5,-30 338.5,-10 318.5,-10"/>
<text text-anchor="start" x="342.23" y="-15.4" font-family="Times-12" font-size="14.00"> &#160;Module</text>
<polygon fill="#80b1d3" stroke="transparent" points="404.5,-10 404.5,-30 424.5,-30 424.5,-10 404.5,-10"/>
<text text-anchor="start" x="428.28" y="-15.4" font-family="Times-12" font-size="14.00"> &#160;Bootstrap</text>
<polygon fill="#fdb462" stroke="transparent" points="501.5,-10 501.5,-30 521.5,-30 521.5,-10 501.5,-10"/>
<text text-anchor="start" x="525.17" y="-15.4" font-family="Times-12" font-size="14.00"> &#160;Providers</text>
<polygon fill="#fb8072" stroke="transparent" points="597.5,-10 597.5,-30 617.5,-30 617.5,-10 597.5,-10"/>
<text text-anchor="start" x="621.23" y="-15.4" font-family="Times-12" font-size="14.00"> &#160;Exports</text>
<g id="clust1" class="cluster">
<title>cluster_ChatModule</title>
<polygon fill="none" stroke="black" stroke-dasharray="1,5" points="8,-70 8,-268 871,-268 871,-70 8,-70"/>
</g>
<g id="clust6" class="cluster">
<title>cluster_ChatModule_providers</title>
<polygon fill="none" stroke="black" points="170,-78 170,-130 863,-130 863,-78 170,-78"/>
</g>
<g id="clust3" class="cluster">
<title>cluster_ChatModule_imports</title>
<polygon fill="none" stroke="black" points="16,-78 16,-130 162,-130 162,-78 16,-78"/>
</g>
<g id="clust4" class="cluster">
<title>cluster_ChatModule_exports</title>
<polygon fill="none" stroke="black" points="181,-208 181,-260 717,-260 717,-208 181,-208"/>
</g>
<!-- GatewayApiModule -->
<g id="node1" class="node">
<title>GatewayApiModule</title>
<polygon fill="#8dd3c7" stroke="black" points="154.29,-122 151.29,-126 130.29,-126 127.29,-122 23.71,-122 23.71,-86 154.29,-86 154.29,-122"/>
<text text-anchor="middle" x="89" y="-99.8" font-family="Times,serif" font-size="14.00">GatewayApiModule</text>
</g>
<!-- ChatModule -->
<g id="node2" class="node">
<title>ChatModule</title>
<polygon fill="#8dd3c7" stroke="black" points="507.99,-187 504.99,-191 483.99,-191 480.99,-187 422.01,-187 422.01,-151 507.99,-151 507.99,-187"/>
<text text-anchor="middle" x="465" y="-164.8" font-family="Times,serif" font-size="14.00">ChatModule</text>
</g>
<!-- GatewayApiModule&#45;&gt;ChatModule -->
<g id="edge1" class="edge">
<title>GatewayApiModule&#45;&gt;ChatModule</title>
<path fill="none" stroke="black" d="M89,-122.11C89,-141.34 89,-169 89,-169 89,-169 411.87,-169 411.87,-169"/>
<polygon fill="black" stroke="black" points="411.87,-172.5 421.87,-169 411.87,-165.5 411.87,-172.5"/>
</g>
<!-- ChatDataService  -->
<g id="node3" class="node">
<title>ChatDataService </title>
<polygon fill="#fb8072" stroke="black" points="709.35,-252 594.65,-252 594.65,-216 709.35,-216 709.35,-252"/>
<text text-anchor="middle" x="652" y="-229.8" font-family="Times,serif" font-size="14.00">ChatDataService </text>
</g>
<!-- ChatModule&#45;&gt;ChatDataService  -->
<g id="edge2" class="edge">
<title>ChatModule&#45;&gt;ChatDataService </title>
<path fill="none" stroke="black" stroke-dasharray="5,2" d="M508.19,-178C559.94,-178 639.74,-178 639.74,-178 639.74,-178 639.74,-205.97 639.74,-205.97"/>
<polygon fill="black" stroke="black" points="636.24,-205.97 639.74,-215.97 643.24,-205.97 636.24,-205.97"/>
</g>
<!-- ChatRepository  -->
<g id="node4" class="node">
<title>ChatRepository </title>
<polygon fill="#fb8072" stroke="black" points="576.88,-252 469.12,-252 469.12,-216 576.88,-216 576.88,-252"/>
<text text-anchor="middle" x="523" y="-229.8" font-family="Times,serif" font-size="14.00">ChatRepository </text>
</g>
<!-- ChatModule&#45;&gt;ChatRepository  -->
<g id="edge3" class="edge">
<title>ChatModule&#45;&gt;ChatRepository </title>
<path fill="none" stroke="black" stroke-dasharray="5,2" d="M488.65,-187.11C488.65,-187.11 488.65,-205.99 488.65,-205.99"/>
<polygon fill="black" stroke="black" points="485.15,-205.99 488.65,-215.99 492.15,-205.99 485.15,-205.99"/>
</g>
<!-- ChatService  -->
<g id="node5" class="node">
<title>ChatService </title>
<polygon fill="#fb8072" stroke="black" points="450.92,-252 363.08,-252 363.08,-216 450.92,-216 450.92,-252"/>
<text text-anchor="middle" x="407" y="-229.8" font-family="Times,serif" font-size="14.00">ChatService </text>
</g>
<!-- ChatModule&#45;&gt;ChatService  -->
<g id="edge4" class="edge">
<title>ChatModule&#45;&gt;ChatService </title>
<path fill="none" stroke="black" stroke-dasharray="5,2" d="M436.48,-187.11C436.48,-187.11 436.48,-205.99 436.48,-205.99"/>
<polygon fill="black" stroke="black" points="432.98,-205.99 436.48,-215.99 439.98,-205.99 432.98,-205.99"/>
</g>
<!-- MessageCensureService  -->
<g id="node6" class="node">
<title>MessageCensureService </title>
<polygon fill="#fb8072" stroke="black" points="345.33,-252 188.67,-252 188.67,-216 345.33,-216 345.33,-252"/>
<text text-anchor="middle" x="267" y="-229.8" font-family="Times,serif" font-size="14.00">MessageCensureService </text>
</g>
<!-- ChatModule&#45;&gt;MessageCensureService  -->
<g id="edge5" class="edge">
<title>ChatModule&#45;&gt;MessageCensureService </title>
<path fill="none" stroke="black" stroke-dasharray="5,2" d="M421.55,-178C363.26,-178 267,-178 267,-178 267,-178 267,-205.97 267,-205.97"/>
<polygon fill="black" stroke="black" points="263.5,-205.97 267,-215.97 270.5,-205.97 263.5,-205.97"/>
</g>
<!-- ChatDataService -->
<g id="node7" class="node">
<title>ChatDataService</title>
<ellipse fill="#fdb462" stroke="black" cx="779" cy="-104" rx="76.42" ry="18"/>
<text text-anchor="middle" x="779" y="-99.8" font-family="Times,serif" font-size="14.00">ChatDataService</text>
</g>
<!-- ChatDataService&#45;&gt;ChatModule -->
<g id="edge6" class="edge">
<title>ChatDataService&#45;&gt;ChatModule</title>
<path fill="none" stroke="black" d="M782.32,-122.11C782.32,-141.34 782.32,-169 782.32,-169 782.32,-169 518.12,-169 518.12,-169"/>
<polygon fill="black" stroke="black" points="518.12,-165.5 508.12,-169 518.12,-172.5 518.12,-165.5"/>
</g>
<!-- ChatRepository -->
<g id="node8" class="node">
<title>ChatRepository</title>
<ellipse fill="#fdb462" stroke="black" cx="613" cy="-104" rx="71.81" ry="18"/>
<text text-anchor="middle" x="613" y="-99.8" font-family="Times,serif" font-size="14.00">ChatRepository</text>
</g>
<!-- ChatRepository&#45;&gt;ChatModule -->
<g id="edge7" class="edge">
<title>ChatRepository&#45;&gt;ChatModule</title>
<path fill="none" stroke="black" d="M559.02,-115.88C559.02,-132.31 559.02,-160 559.02,-160 559.02,-160 518.16,-160 518.16,-160"/>
<polygon fill="black" stroke="black" points="518.16,-156.5 508.16,-160 518.16,-163.5 518.16,-156.5"/>
</g>
<!-- ChatService -->
<g id="node9" class="node">
<title>ChatService</title>
<ellipse fill="#fdb462" stroke="black" cx="465" cy="-104" rx="58.46" ry="18"/>
<text text-anchor="middle" x="465" y="-99.8" font-family="Times,serif" font-size="14.00">ChatService</text>
</g>
<!-- ChatService&#45;&gt;ChatModule -->
<g id="edge8" class="edge">
<title>ChatService&#45;&gt;ChatModule</title>
<path fill="none" stroke="black" d="M465,-122.11C465,-122.11 465,-140.99 465,-140.99"/>
<polygon fill="black" stroke="black" points="461.5,-140.99 465,-150.99 468.5,-140.99 461.5,-140.99"/>
</g>
<!-- MessageCensureService -->
<g id="node10" class="node">
<title>MessageCensureService</title>
<ellipse fill="#fdb462" stroke="black" cx="283" cy="-104" rx="105.33" ry="18"/>
<text text-anchor="middle" x="283" y="-99.8" font-family="Times,serif" font-size="14.00">MessageCensureService</text>
</g>
<!-- MessageCensureService&#45;&gt;ChatModule -->
<g id="edge9" class="edge">
<title>MessageCensureService&#45;&gt;ChatModule</title>
<path fill="none" stroke="black" d="M375.73,-112.75C375.73,-128.5 375.73,-160 375.73,-160 375.73,-160 411.93,-160 411.93,-160"/>
<polygon fill="black" stroke="black" points="411.93,-163.5 421.93,-160 411.93,-156.5 411.93,-163.5"/>
</g>
</g>
</svg>
