<?xml version="1.0" encoding="UTF-8" standalone="no"?>
<!DOCTYPE svg PUBLIC "-//W3C//DTD SVG 1.1//EN"
 "http://www.w3.org/Graphics/SVG/1.1/DTD/svg11.dtd">
<!-- Generated by graphviz version 2.47.0 (20210316.0004)
 -->
<!-- Title: dependencies Pages: 1 -->
<svg width="504pt" height="211pt"
 viewBox="0.00 0.00 504.00 211.00" xmlns="http://www.w3.org/2000/svg" xmlns:xlink="http://www.w3.org/1999/xlink">
<g id="graph0" class="graph" transform="scale(1 1) rotate(0) translate(4 207)">
<title>dependencies</title>
<polygon fill="white" stroke="transparent" points="-4,4 -4,-207 500,-207 500,4 -4,4"/>
<text text-anchor="start" x="227.01" y="-42.4" font-family="Times-12" font-weight="bold" font-size="14.00">Legend</text>
<polygon fill="#ffffb3" stroke="transparent" points="14,-10 14,-30 34,-30 34,-10 14,-10"/>
<text text-anchor="start" x="37.63" y="-15.4" font-family="Times-12" font-size="14.00"> &#160;Declarations</text>
<polygon fill="#8dd3c7" stroke="transparent" points="127,-10 127,-30 147,-30 147,-10 127,-10"/>
<text text-anchor="start" x="150.73" y="-15.4" font-family="Times-12" font-size="14.00"> &#160;Module</text>
<polygon fill="#80b1d3" stroke="transparent" points="213,-10 213,-30 233,-30 233,-10 213,-10"/>
<text text-anchor="start" x="236.78" y="-15.4" font-family="Times-12" font-size="14.00"> &#160;Bootstrap</text>
<polygon fill="#fdb462" stroke="transparent" points="310,-10 310,-30 330,-30 330,-10 310,-10"/>
<text text-anchor="start" x="333.67" y="-15.4" font-family="Times-12" font-size="14.00"> &#160;Providers</text>
<polygon fill="#fb8072" stroke="transparent" points="406,-10 406,-30 426,-30 426,-10 406,-10"/>
<text text-anchor="start" x="429.73" y="-15.4" font-family="Times-12" font-size="14.00"> &#160;Exports</text>
<g id="clust1" class="cluster">
<title>cluster_FaqModule</title>
<polygon fill="none" stroke="black" stroke-dasharray="1,5" points="40,-70 40,-195 456,-195 456,-70 40,-70"/>
</g>
<g id="clust6" class="cluster">
<title>cluster_FaqModule_providers</title>
<polygon fill="none" stroke="black" points="170,-78 170,-130 448,-130 448,-78 170,-78"/>
</g>
<g id="clust3" class="cluster">
<title>cluster_FaqModule_imports</title>
<polygon fill="none" stroke="black" points="48,-78 48,-130 162,-130 162,-78 48,-78"/>
</g>
<!-- PrismaModule -->
<g id="node1" class="node">
<title>PrismaModule</title>
<polygon fill="#8dd3c7" stroke="black" points="154.43,-122 151.43,-126 130.43,-126 127.43,-122 55.57,-122 55.57,-86 154.43,-86 154.43,-122"/>
<text text-anchor="middle" x="105" y="-99.8" font-family="Times,serif" font-size="14.00">PrismaModule</text>
</g>
<!-- FaqModule -->
<g id="node2" class="node">
<title>FaqModule</title>
<polygon fill="#8dd3c7" stroke="black" points="272.05,-187 269.05,-191 248.05,-191 245.05,-187 191.95,-187 191.95,-151 272.05,-151 272.05,-187"/>
<text text-anchor="middle" x="232" y="-164.8" font-family="Times,serif" font-size="14.00">FaqModule</text>
</g>
<!-- PrismaModule&#45;&gt;FaqModule -->
<g id="edge1" class="edge">
<title>PrismaModule&#45;&gt;FaqModule</title>
<path fill="none" stroke="black" d="M105,-122.11C105,-141.34 105,-169 105,-169 105,-169 181.82,-169 181.82,-169"/>
<polygon fill="black" stroke="black" points="181.82,-172.5 191.82,-169 181.82,-165.5 181.82,-172.5"/>
</g>
<!-- FaqRepository -->
<g id="node3" class="node">
<title>FaqRepository</title>
<ellipse fill="#fdb462" stroke="black" cx="372" cy="-104" rx="67.8" ry="18"/>
<text text-anchor="middle" x="372" y="-99.8" font-family="Times,serif" font-size="14.00">FaqRepository</text>
</g>
<!-- FaqRepository&#45;&gt;FaqModule -->
<g id="edge2" class="edge">
<title>FaqRepository&#45;&gt;FaqModule</title>
<path fill="none" stroke="black" d="M372,-122.11C372,-141.34 372,-169 372,-169 372,-169 282.12,-169 282.12,-169"/>
<polygon fill="black" stroke="black" points="282.12,-165.5 272.12,-169 282.12,-172.5 282.12,-165.5"/>
</g>
<!-- FaqService -->
<g id="node4" class="node">
<title>FaqService</title>
<ellipse fill="#fdb462" stroke="black" cx="232" cy="-104" rx="54.45" ry="18"/>
<text text-anchor="middle" x="232" y="-99.8" font-family="Times,serif" font-size="14.00">FaqService</text>
</g>
<!-- FaqService&#45;&gt;FaqModule -->
<g id="edge3" class="edge">
<title>FaqService&#45;&gt;FaqModule</title>
<path fill="none" stroke="black" d="M232,-122.11C232,-122.11 232,-140.99 232,-140.99"/>
<polygon fill="black" stroke="black" points="228.5,-140.99 232,-150.99 235.5,-140.99 228.5,-140.99"/>
</g>
</g>
</svg>
