<?xml version="1.0" encoding="UTF-8" standalone="no"?>
<!DOCTYPE svg PUBLIC "-//W3C//DTD SVG 1.1//EN"
 "http://www.w3.org/Graphics/SVG/1.1/DTD/svg11.dtd">
<!-- Generated by graphviz version 2.47.0 (20210316.0004)
 -->
<!-- Title: dependencies Pages: 1 -->
<svg width="858pt" height="284pt"
 viewBox="0.00 0.00 858.00 284.00" xmlns="http://www.w3.org/2000/svg" xmlns:xlink="http://www.w3.org/1999/xlink">
<g id="graph0" class="graph" transform="scale(1 1) rotate(0) translate(4 280)">
<title>dependencies</title>
<polygon fill="white" stroke="transparent" points="-4,4 -4,-280 854,-280 854,4 -4,4"/>
<text text-anchor="start" x="404.01" y="-42.4" font-family="Times-12" font-weight="bold" font-size="14.00">Legend</text>
<polygon fill="#ffffb3" stroke="transparent" points="191,-10 191,-30 211,-30 211,-10 191,-10"/>
<text text-anchor="start" x="214.63" y="-15.4" font-family="Times-12" font-size="14.00"> &#160;Declarations</text>
<polygon fill="#8dd3c7" stroke="transparent" points="304,-10 304,-30 324,-30 324,-10 304,-10"/>
<text text-anchor="start" x="327.73" y="-15.4" font-family="Times-12" font-size="14.00"> &#160;Module</text>
<polygon fill="#80b1d3" stroke="transparent" points="390,-10 390,-30 410,-30 410,-10 390,-10"/>
<text text-anchor="start" x="413.78" y="-15.4" font-family="Times-12" font-size="14.00"> &#160;Bootstrap</text>
<polygon fill="#fdb462" stroke="transparent" points="487,-10 487,-30 507,-30 507,-10 487,-10"/>
<text text-anchor="start" x="510.67" y="-15.4" font-family="Times-12" font-size="14.00"> &#160;Providers</text>
<polygon fill="#fb8072" stroke="transparent" points="583,-10 583,-30 603,-30 603,-10 583,-10"/>
<text text-anchor="start" x="606.73" y="-15.4" font-family="Times-12" font-size="14.00"> &#160;Exports</text>
<g id="clust1" class="cluster">
<title>cluster_XMRStrategyModule</title>
<polygon fill="none" stroke="black" stroke-dasharray="1,5" points="8,-70 8,-268 842,-268 842,-70 8,-70"/>
</g>
<g id="clust6" class="cluster">
<title>cluster_XMRStrategyModule_providers</title>
<polygon fill="none" stroke="black" points="254,-78 254,-130 834,-130 834,-78 254,-78"/>
</g>
<g id="clust4" class="cluster">
<title>cluster_XMRStrategyModule_exports</title>
<polygon fill="none" stroke="black" points="306,-208 306,-260 641,-260 641,-208 306,-208"/>
</g>
<g id="clust3" class="cluster">
<title>cluster_XMRStrategyModule_imports</title>
<polygon fill="none" stroke="black" points="16,-78 16,-130 246,-130 246,-78 16,-78"/>
</g>
<!-- TrafficArbitrageRepositoryModule -->
<g id="node1" class="node">
<title>TrafficArbitrageRepositoryModule</title>
<polygon fill="#8dd3c7" stroke="black" points="237.98,-122 234.98,-126 213.98,-126 210.98,-122 24.02,-122 24.02,-86 237.98,-86 237.98,-122"/>
<text text-anchor="middle" x="131" y="-99.8" font-family="Times,serif" font-size="14.00">TrafficArbitrageRepositoryModule</text>
</g>
<!-- XMRStrategyModule -->
<g id="node2" class="node">
<title>XMRStrategyModule</title>
<polygon fill="#8dd3c7" stroke="black" points="547.09,-187 544.09,-191 523.09,-191 520.09,-187 408.91,-187 408.91,-151 547.09,-151 547.09,-187"/>
<text text-anchor="middle" x="478" y="-164.8" font-family="Times,serif" font-size="14.00">XMRStrategyModule</text>
</g>
<!-- TrafficArbitrageRepositoryModule&#45;&gt;XMRStrategyModule -->
<g id="edge1" class="edge">
<title>TrafficArbitrageRepositoryModule&#45;&gt;XMRStrategyModule</title>
<path fill="none" stroke="black" d="M131,-122.11C131,-141.34 131,-169 131,-169 131,-169 398.61,-169 398.61,-169"/>
<polygon fill="black" stroke="black" points="398.61,-172.5 408.61,-169 398.61,-165.5 398.61,-172.5"/>
</g>
<!-- XmrDepositsStrategy  -->
<g id="node3" class="node">
<title>XmrDepositsStrategy </title>
<polygon fill="#fb8072" stroke="black" points="633.3,-252 492.7,-252 492.7,-216 633.3,-216 633.3,-252"/>
<text text-anchor="middle" x="563" y="-229.8" font-family="Times,serif" font-size="14.00">XmrDepositsStrategy </text>
</g>
<!-- XMRStrategyModule&#45;&gt;XmrDepositsStrategy  -->
<g id="edge2" class="edge">
<title>XMRStrategyModule&#45;&gt;XmrDepositsStrategy </title>
<path fill="none" stroke="black" stroke-dasharray="5,2" d="M519.82,-187.11C519.82,-187.11 519.82,-205.99 519.82,-205.99"/>
<polygon fill="black" stroke="black" points="516.32,-205.99 519.82,-215.99 523.32,-205.99 516.32,-205.99"/>
</g>
<!-- XmrRegistrationStrategy  -->
<g id="node4" class="node">
<title>XmrRegistrationStrategy </title>
<polygon fill="#fb8072" stroke="black" points="474.24,-252 313.76,-252 313.76,-216 474.24,-216 474.24,-252"/>
<text text-anchor="middle" x="394" y="-229.8" font-family="Times,serif" font-size="14.00">XmrRegistrationStrategy </text>
</g>
<!-- XMRStrategyModule&#45;&gt;XmrRegistrationStrategy  -->
<g id="edge3" class="edge">
<title>XMRStrategyModule&#45;&gt;XmrRegistrationStrategy </title>
<path fill="none" stroke="black" stroke-dasharray="5,2" d="M441.54,-187.11C441.54,-187.11 441.54,-205.99 441.54,-205.99"/>
<polygon fill="black" stroke="black" points="438.04,-205.99 441.54,-215.99 445.04,-205.99 438.04,-205.99"/>
</g>
<!-- XmrDataApi -->
<g id="node5" class="node">
<title>XmrDataApi</title>
<ellipse fill="#fdb462" stroke="black" cx="765" cy="-104" rx="61.39" ry="18"/>
<text text-anchor="middle" x="765" y="-99.8" font-family="Times,serif" font-size="14.00">XmrDataApi</text>
</g>
<!-- XmrDataApi&#45;&gt;XMRStrategyModule -->
<g id="edge4" class="edge">
<title>XmrDataApi&#45;&gt;XMRStrategyModule</title>
<path fill="none" stroke="black" d="M765,-122.11C765,-141.34 765,-169 765,-169 765,-169 557.11,-169 557.11,-169"/>
<polygon fill="black" stroke="black" points="557.11,-165.5 547.11,-169 557.11,-172.5 557.11,-165.5"/>
</g>
<!-- XmrDepositsStrategy -->
<g id="node6" class="node">
<title>XmrDepositsStrategy</title>
<ellipse fill="#fdb462" stroke="black" cx="591" cy="-104" rx="94.92" ry="18"/>
<text text-anchor="middle" x="591" y="-99.8" font-family="Times,serif" font-size="14.00">XmrDepositsStrategy</text>
</g>
<!-- XmrDepositsStrategy&#45;&gt;XMRStrategyModule -->
<g id="edge5" class="edge">
<title>XmrDepositsStrategy&#45;&gt;XMRStrategyModule</title>
<path fill="none" stroke="black" d="M521.67,-116.53C521.67,-116.53 521.67,-140.85 521.67,-140.85"/>
<polygon fill="black" stroke="black" points="518.17,-140.85 521.67,-150.85 525.17,-140.85 518.17,-140.85"/>
</g>
<!-- XmrRegistrationStrategy -->
<g id="node7" class="node">
<title>XmrRegistrationStrategy</title>
<ellipse fill="#fdb462" stroke="black" cx="370" cy="-104" rx="108.24" ry="18"/>
<text text-anchor="middle" x="370" y="-99.8" font-family="Times,serif" font-size="14.00">XmrRegistrationStrategy</text>
</g>
<!-- XmrRegistrationStrategy&#45;&gt;XMRStrategyModule -->
<g id="edge6" class="edge">
<title>XmrRegistrationStrategy&#45;&gt;XMRStrategyModule</title>
<path fill="none" stroke="black" d="M443.54,-117.47C443.54,-117.47 443.54,-140.86 443.54,-140.86"/>
<polygon fill="black" stroke="black" points="440.04,-140.86 443.54,-150.86 447.04,-140.86 440.04,-140.86"/>
</g>
</g>
</svg>
