<?xml version="1.0" encoding="UTF-8" standalone="no"?>
<!DOCTYPE svg PUBLIC "-//W3C//DTD SVG 1.1//EN"
 "http://www.w3.org/Graphics/SVG/1.1/DTD/svg11.dtd">
<!-- Generated by graphviz version 2.47.0 (20210316.0004)
 -->
<!-- Title: dependencies Pages: 1 -->
<svg width="1655pt" height="284pt"
 viewBox="0.00 0.00 1655.00 284.00" xmlns="http://www.w3.org/2000/svg" xmlns:xlink="http://www.w3.org/1999/xlink">
<g id="graph0" class="graph" transform="scale(1 1) rotate(0) translate(4 280)">
<title>dependencies</title>
<polygon fill="white" stroke="transparent" points="-4,4 -4,-280 1651,-280 1651,4 -4,4"/>
<text text-anchor="start" x="802.51" y="-42.4" font-family="Times-12" font-weight="bold" font-size="14.00">Legend</text>
<polygon fill="#ffffb3" stroke="transparent" points="589.5,-10 589.5,-30 609.5,-30 609.5,-10 589.5,-10"/>
<text text-anchor="start" x="613.13" y="-15.4" font-family="Times-12" font-size="14.00"> &#160;Declarations</text>
<polygon fill="#8dd3c7" stroke="transparent" points="702.5,-10 702.5,-30 722.5,-30 722.5,-10 702.5,-10"/>
<text text-anchor="start" x="726.23" y="-15.4" font-family="Times-12" font-size="14.00"> &#160;Module</text>
<polygon fill="#80b1d3" stroke="transparent" points="788.5,-10 788.5,-30 808.5,-30 808.5,-10 788.5,-10"/>
<text text-anchor="start" x="812.28" y="-15.4" font-family="Times-12" font-size="14.00"> &#160;Bootstrap</text>
<polygon fill="#fdb462" stroke="transparent" points="885.5,-10 885.5,-30 905.5,-30 905.5,-10 885.5,-10"/>
<text text-anchor="start" x="909.17" y="-15.4" font-family="Times-12" font-size="14.00"> &#160;Providers</text>
<polygon fill="#fb8072" stroke="transparent" points="981.5,-10 981.5,-30 1001.5,-30 1001.5,-10 981.5,-10"/>
<text text-anchor="start" x="1005.23" y="-15.4" font-family="Times-12" font-size="14.00"> &#160;Exports</text>
<g id="clust1" class="cluster">
<title>cluster_AffiliateModule</title>
<polygon fill="none" stroke="black" stroke-dasharray="1,5" points="8,-70 8,-268 1639,-268 1639,-70 8,-70"/>
</g>
<g id="clust3" class="cluster">
<title>cluster_AffiliateModule_imports</title>
<polygon fill="none" stroke="black" points="376,-78 376,-130 1631,-130 1631,-78 376,-78"/>
</g>
<g id="clust6" class="cluster">
<title>cluster_AffiliateModule_providers</title>
<polygon fill="none" stroke="black" points="16,-78 16,-130 368,-130 368,-78 16,-78"/>
</g>
<g id="clust4" class="cluster">
<title>cluster_AffiliateModule_exports</title>
<polygon fill="none" stroke="black" points="528,-208 528,-260 993,-260 993,-208 528,-208"/>
</g>
<!-- AccountingModule -->
<g id="node1" class="node">
<title>AccountingModule</title>
<polygon fill="#8dd3c7" stroke="black" points="1623.37,-122 1620.37,-126 1599.37,-126 1596.37,-122 1498.63,-122 1498.63,-86 1623.37,-86 1623.37,-122"/>
<text text-anchor="middle" x="1561" y="-99.8" font-family="Times,serif" font-size="14.00">AccountingModule</text>
</g>
<!-- AffiliateModule -->
<g id="node9" class="node">
<title>AffiliateModule</title>
<polygon fill="#8dd3c7" stroke="black" points="826.47,-187 823.47,-191 802.47,-191 799.47,-187 719.53,-187 719.53,-151 826.47,-151 826.47,-187"/>
<text text-anchor="middle" x="773" y="-164.8" font-family="Times,serif" font-size="14.00">AffiliateModule</text>
</g>
<!-- AccountingModule&#45;&gt;AffiliateModule -->
<g id="edge1" class="edge">
<title>AccountingModule&#45;&gt;AffiliateModule</title>
<path fill="none" stroke="black" d="M1561,-122.28C1561,-143.32 1561,-175 1561,-175 1561,-175 836.54,-175 836.54,-175"/>
<polygon fill="black" stroke="black" points="836.54,-171.5 826.54,-175 836.54,-178.5 836.54,-171.5"/>
</g>
<!-- AffiliateAggregatedInfoModule -->
<g id="node2" class="node">
<title>AffiliateAggregatedInfoModule</title>
<polygon fill="#8dd3c7" stroke="black" points="1480.59,-122 1477.59,-126 1456.59,-126 1453.59,-122 1285.41,-122 1285.41,-86 1480.59,-86 1480.59,-122"/>
<text text-anchor="middle" x="1383" y="-99.8" font-family="Times,serif" font-size="14.00">AffiliateAggregatedInfoModule</text>
</g>
<!-- AffiliateAggregatedInfoModule&#45;&gt;AffiliateModule -->
<g id="edge2" class="edge">
<title>AffiliateAggregatedInfoModule&#45;&gt;AffiliateModule</title>
<path fill="none" stroke="black" d="M1383,-122.11C1383,-141.34 1383,-169 1383,-169 1383,-169 836.6,-169 836.6,-169"/>
<polygon fill="black" stroke="black" points="836.6,-165.5 826.6,-169 836.6,-172.5 836.6,-165.5"/>
</g>
<!-- AffiliateCodeModule -->
<g id="node3" class="node">
<title>AffiliateCodeModule</title>
<polygon fill="#8dd3c7" stroke="black" points="1267.02,-122 1264.02,-126 1243.02,-126 1240.02,-122 1130.98,-122 1130.98,-86 1267.02,-86 1267.02,-122"/>
<text text-anchor="middle" x="1199" y="-99.8" font-family="Times,serif" font-size="14.00">AffiliateCodeModule</text>
</g>
<!-- AffiliateCodeModule&#45;&gt;AffiliateModule -->
<g id="edge3" class="edge">
<title>AffiliateCodeModule&#45;&gt;AffiliateModule</title>
<path fill="none" stroke="black" d="M1199,-122.02C1199,-139.37 1199,-163 1199,-163 1199,-163 836.52,-163 836.52,-163"/>
<polygon fill="black" stroke="black" points="836.52,-159.5 826.52,-163 836.52,-166.5 836.52,-159.5"/>
</g>
<!-- AffiliateExternalModule -->
<g id="node4" class="node">
<title>AffiliateExternalModule</title>
<polygon fill="#8dd3c7" stroke="black" points="1113.39,-122 1110.39,-126 1089.39,-126 1086.39,-122 958.61,-122 958.61,-86 1113.39,-86 1113.39,-122"/>
<text text-anchor="middle" x="1036" y="-99.8" font-family="Times,serif" font-size="14.00">AffiliateExternalModule</text>
</g>
<!-- AffiliateExternalModule&#45;&gt;AffiliateModule -->
<g id="edge4" class="edge">
<title>AffiliateExternalModule&#45;&gt;AffiliateModule</title>
<path fill="none" stroke="black" d="M971.91,-122.24C971.91,-137.57 971.91,-157 971.91,-157 971.91,-157 836.57,-157 836.57,-157"/>
<polygon fill="black" stroke="black" points="836.57,-153.5 826.57,-157 836.57,-160.5 836.57,-153.5"/>
</g>
<!-- AffiliateStreamerModule -->
<g id="node5" class="node">
<title>AffiliateStreamerModule</title>
<polygon fill="#8dd3c7" stroke="black" points="941,-122 938,-126 917,-126 914,-122 783,-122 783,-86 941,-86 941,-122"/>
<text text-anchor="middle" x="862" y="-99.8" font-family="Times,serif" font-size="14.00">AffiliateStreamerModule</text>
</g>
<!-- AffiliateStreamerModule&#45;&gt;AffiliateModule -->
<g id="edge5" class="edge">
<title>AffiliateStreamerModule&#45;&gt;AffiliateModule</title>
<path fill="none" stroke="black" d="M804.87,-122.11C804.87,-122.11 804.87,-140.99 804.87,-140.99"/>
<polygon fill="black" stroke="black" points="801.37,-140.99 804.87,-150.99 808.37,-140.99 801.37,-140.99"/>
</g>
<!-- AffiliateUserStatsModule -->
<g id="node6" class="node">
<title>AffiliateUserStatsModule</title>
<polygon fill="#8dd3c7" stroke="black" points="765.12,-122 762.12,-126 741.12,-126 738.12,-122 604.88,-122 604.88,-86 765.12,-86 765.12,-122"/>
<text text-anchor="middle" x="685" y="-99.8" font-family="Times,serif" font-size="14.00">AffiliateUserStatsModule</text>
</g>
<!-- AffiliateUserStatsModule&#45;&gt;AffiliateModule -->
<g id="edge6" class="edge">
<title>AffiliateUserStatsModule&#45;&gt;AffiliateModule</title>
<path fill="none" stroke="black" d="M742.41,-122.11C742.41,-122.11 742.41,-140.99 742.41,-140.99"/>
<polygon fill="black" stroke="black" points="738.91,-140.99 742.41,-150.99 745.91,-140.99 738.91,-140.99"/>
</g>
<!-- GamesModule -->
<g id="node7" class="node">
<title>GamesModule</title>
<polygon fill="#8dd3c7" stroke="black" points="586.42,-122 583.42,-126 562.42,-126 559.42,-122 487.58,-122 487.58,-86 586.42,-86 586.42,-122"/>
<text text-anchor="middle" x="537" y="-99.8" font-family="Times,serif" font-size="14.00">GamesModule</text>
</g>
<!-- GamesModule&#45;&gt;AffiliateModule -->
<g id="edge7" class="edge">
<title>GamesModule&#45;&gt;AffiliateModule</title>
<path fill="none" stroke="black" d="M561.08,-122.24C561.08,-137.57 561.08,-157 561.08,-157 561.08,-157 709.52,-157 709.52,-157"/>
<polygon fill="black" stroke="black" points="709.52,-160.5 719.52,-157 709.52,-153.5 709.52,-160.5"/>
</g>
<!-- UserModule -->
<g id="node8" class="node">
<title>UserModule</title>
<polygon fill="#8dd3c7" stroke="black" points="469.98,-122 466.98,-126 445.98,-126 442.98,-122 384.02,-122 384.02,-86 469.98,-86 469.98,-122"/>
<text text-anchor="middle" x="427" y="-99.8" font-family="Times,serif" font-size="14.00">UserModule</text>
</g>
<!-- UserModule&#45;&gt;AffiliateModule -->
<g id="edge8" class="edge">
<title>UserModule&#45;&gt;AffiliateModule</title>
<path fill="none" stroke="black" d="M427,-122.02C427,-139.37 427,-163 427,-163 427,-163 709.32,-163 709.32,-163"/>
<polygon fill="black" stroke="black" points="709.32,-166.5 719.32,-163 709.32,-159.5 709.32,-166.5"/>
</g>
<!-- AffiliateCodeModule  -->
<g id="node10" class="node">
<title>AffiliateCodeModule </title>
<polygon fill="#fb8072" stroke="black" points="985.02,-252 844.98,-252 844.98,-216 985.02,-216 985.02,-252"/>
<text text-anchor="middle" x="915" y="-229.8" font-family="Times,serif" font-size="14.00">AffiliateCodeModule </text>
</g>
<!-- AffiliateModule&#45;&gt;AffiliateCodeModule  -->
<g id="edge9" class="edge">
<title>AffiliateModule&#45;&gt;AffiliateCodeModule </title>
<path fill="none" stroke="black" stroke-dasharray="5,2" d="M826.62,-181C858.54,-181 892.87,-181 892.87,-181 892.87,-181 892.87,-205.76 892.87,-205.76"/>
<polygon fill="black" stroke="black" points="889.37,-205.76 892.87,-215.76 896.37,-205.76 889.37,-205.76"/>
</g>
<!-- AffiliateService  -->
<g id="node11" class="node">
<title>AffiliateService </title>
<polygon fill="#fb8072" stroke="black" points="827.4,-252 718.6,-252 718.6,-216 827.4,-216 827.4,-252"/>
<text text-anchor="middle" x="773" y="-229.8" font-family="Times,serif" font-size="14.00">AffiliateService </text>
</g>
<!-- AffiliateModule&#45;&gt;AffiliateService  -->
<g id="edge10" class="edge">
<title>AffiliateModule&#45;&gt;AffiliateService </title>
<path fill="none" stroke="black" stroke-dasharray="5,2" d="M773,-187.11C773,-187.11 773,-205.99 773,-205.99"/>
<polygon fill="black" stroke="black" points="769.5,-205.99 773,-215.99 776.5,-205.99 769.5,-205.99"/>
</g>
<!-- AffiliateUserStatsModule  -->
<g id="node12" class="node">
<title>AffiliateUserStatsModule </title>
<polygon fill="#fb8072" stroke="black" points="700.12,-252 535.88,-252 535.88,-216 700.12,-216 700.12,-252"/>
<text text-anchor="middle" x="618" y="-229.8" font-family="Times,serif" font-size="14.00">AffiliateUserStatsModule </text>
</g>
<!-- AffiliateModule&#45;&gt;AffiliateUserStatsModule  -->
<g id="edge11" class="edge">
<title>AffiliateModule&#45;&gt;AffiliateUserStatsModule </title>
<path fill="none" stroke="black" stroke-dasharray="5,2" d="M719.39,-181C687.17,-181 652.38,-181 652.38,-181 652.38,-181 652.38,-205.76 652.38,-205.76"/>
<polygon fill="black" stroke="black" points="648.88,-205.76 652.38,-215.76 655.88,-205.76 648.88,-205.76"/>
</g>
<!-- AffiliateRepository -->
<g id="node13" class="node">
<title>AffiliateRepository</title>
<ellipse fill="#fdb462" stroke="black" cx="274" cy="-104" rx="86.25" ry="18"/>
<text text-anchor="middle" x="274" y="-99.8" font-family="Times,serif" font-size="14.00">AffiliateRepository</text>
</g>
<!-- AffiliateRepository&#45;&gt;AffiliateModule -->
<g id="edge12" class="edge">
<title>AffiliateRepository&#45;&gt;AffiliateModule</title>
<path fill="none" stroke="black" d="M274,-122.11C274,-141.34 274,-169 274,-169 274,-169 709.12,-169 709.12,-169"/>
<polygon fill="black" stroke="black" points="709.12,-172.5 719.12,-169 709.12,-165.5 709.12,-172.5"/>
</g>
<!-- AffiliateService -->
<g id="node14" class="node">
<title>AffiliateService</title>
<ellipse fill="#fdb462" stroke="black" cx="97" cy="-104" rx="72.9" ry="18"/>
<text text-anchor="middle" x="97" y="-99.8" font-family="Times,serif" font-size="14.00">AffiliateService</text>
</g>
<!-- AffiliateService&#45;&gt;AffiliateModule -->
<g id="edge13" class="edge">
<title>AffiliateService&#45;&gt;AffiliateModule</title>
<path fill="none" stroke="black" d="M97,-122.28C97,-143.32 97,-175 97,-175 97,-175 709.39,-175 709.39,-175"/>
<polygon fill="black" stroke="black" points="709.39,-178.5 719.39,-175 709.39,-171.5 709.39,-178.5"/>
</g>
</g>
</svg>
