<?xml version="1.0" encoding="UTF-8" standalone="no"?>
<!DOCTYPE svg PUBLIC "-//W3C//DTD SVG 1.1//EN"
 "http://www.w3.org/Graphics/SVG/1.1/DTD/svg11.dtd">
<!-- Generated by graphviz version 2.47.0 (20210316.0004)
 -->
<!-- Title: dependencies Pages: 1 -->
<svg width="1324pt" height="284pt"
 viewBox="0.00 0.00 1324.00 284.00" xmlns="http://www.w3.org/2000/svg" xmlns:xlink="http://www.w3.org/1999/xlink">
<g id="graph0" class="graph" transform="scale(1 1) rotate(0) translate(4 280)">
<title>dependencies</title>
<polygon fill="white" stroke="transparent" points="-4,4 -4,-280 1320,-280 1320,4 -4,4"/>
<text text-anchor="start" x="637.01" y="-42.4" font-family="Times-12" font-weight="bold" font-size="14.00">Legend</text>
<polygon fill="#ffffb3" stroke="transparent" points="424,-10 424,-30 444,-30 444,-10 424,-10"/>
<text text-anchor="start" x="447.63" y="-15.4" font-family="Times-12" font-size="14.00"> &#160;Declarations</text>
<polygon fill="#8dd3c7" stroke="transparent" points="537,-10 537,-30 557,-30 557,-10 537,-10"/>
<text text-anchor="start" x="560.73" y="-15.4" font-family="Times-12" font-size="14.00"> &#160;Module</text>
<polygon fill="#80b1d3" stroke="transparent" points="623,-10 623,-30 643,-30 643,-10 623,-10"/>
<text text-anchor="start" x="646.78" y="-15.4" font-family="Times-12" font-size="14.00"> &#160;Bootstrap</text>
<polygon fill="#fdb462" stroke="transparent" points="720,-10 720,-30 740,-30 740,-10 720,-10"/>
<text text-anchor="start" x="743.67" y="-15.4" font-family="Times-12" font-size="14.00"> &#160;Providers</text>
<polygon fill="#fb8072" stroke="transparent" points="816,-10 816,-30 836,-30 836,-10 816,-10"/>
<text text-anchor="start" x="839.73" y="-15.4" font-family="Times-12" font-size="14.00"> &#160;Exports</text>
<g id="clust1" class="cluster">
<title>cluster_WithdrawModule</title>
<polygon fill="none" stroke="black" stroke-dasharray="1,5" points="8,-70 8,-268 1308,-268 1308,-70 8,-70"/>
</g>
<g id="clust3" class="cluster">
<title>cluster_WithdrawModule_imports</title>
<polygon fill="none" stroke="black" points="624,-78 624,-130 1300,-130 1300,-78 624,-78"/>
</g>
<g id="clust4" class="cluster">
<title>cluster_WithdrawModule_exports</title>
<polygon fill="none" stroke="black" points="598,-208 598,-260 903,-260 903,-208 598,-208"/>
</g>
<g id="clust6" class="cluster">
<title>cluster_WithdrawModule_providers</title>
<polygon fill="none" stroke="black" points="16,-78 16,-130 616,-130 616,-78 16,-78"/>
</g>
<!-- AccountingModule -->
<g id="node1" class="node">
<title>AccountingModule</title>
<polygon fill="#8dd3c7" stroke="black" points="1292.37,-122 1289.37,-126 1268.37,-126 1265.37,-122 1167.63,-122 1167.63,-86 1292.37,-86 1292.37,-122"/>
<text text-anchor="middle" x="1230" y="-99.8" font-family="Times,serif" font-size="14.00">AccountingModule</text>
</g>
<!-- WithdrawModule -->
<g id="node6" class="node">
<title>WithdrawModule</title>
<polygon fill="#8dd3c7" stroke="black" points="798.53,-187 795.53,-191 774.53,-191 771.53,-187 683.47,-187 683.47,-151 798.53,-151 798.53,-187"/>
<text text-anchor="middle" x="741" y="-164.8" font-family="Times,serif" font-size="14.00">WithdrawModule</text>
</g>
<!-- AccountingModule&#45;&gt;WithdrawModule -->
<g id="edge1" class="edge">
<title>AccountingModule&#45;&gt;WithdrawModule</title>
<path fill="none" stroke="black" d="M1230,-122.29C1230,-144.21 1230,-178 1230,-178 1230,-178 808.53,-178 808.53,-178"/>
<polygon fill="black" stroke="black" points="808.53,-174.5 798.53,-178 808.53,-181.5 808.53,-174.5"/>
</g>
<!-- NetworkModule -->
<g id="node2" class="node">
<title>NetworkModule</title>
<polygon fill="#8dd3c7" stroke="black" points="1149.03,-122 1146.03,-126 1125.03,-126 1122.03,-122 1040.97,-122 1040.97,-86 1149.03,-86 1149.03,-122"/>
<text text-anchor="middle" x="1095" y="-99.8" font-family="Times,serif" font-size="14.00">NetworkModule</text>
</g>
<!-- NetworkModule&#45;&gt;WithdrawModule -->
<g id="edge2" class="edge">
<title>NetworkModule&#45;&gt;WithdrawModule</title>
<path fill="none" stroke="black" d="M1095,-122.11C1095,-141.34 1095,-169 1095,-169 1095,-169 808.66,-169 808.66,-169"/>
<polygon fill="black" stroke="black" points="808.66,-165.5 798.66,-169 808.66,-172.5 808.66,-165.5"/>
</g>
<!-- NotificationModule -->
<g id="node3" class="node">
<title>NotificationModule</title>
<polygon fill="#8dd3c7" stroke="black" points="1022.7,-122 1019.7,-126 998.7,-126 995.7,-122 895.3,-122 895.3,-86 1022.7,-86 1022.7,-122"/>
<text text-anchor="middle" x="959" y="-99.8" font-family="Times,serif" font-size="14.00">NotificationModule</text>
</g>
<!-- NotificationModule&#45;&gt;WithdrawModule -->
<g id="edge3" class="edge">
<title>NotificationModule&#45;&gt;WithdrawModule</title>
<path fill="none" stroke="black" d="M959,-122.03C959,-138.4 959,-160 959,-160 959,-160 808.56,-160 808.56,-160"/>
<polygon fill="black" stroke="black" points="808.56,-156.5 798.56,-160 808.56,-163.5 808.56,-156.5"/>
</g>
<!-- SiteConfigApiModule -->
<g id="node4" class="node">
<title>SiteConfigApiModule</title>
<polygon fill="#8dd3c7" stroke="black" points="877.71,-122 874.71,-126 853.71,-126 850.71,-122 736.29,-122 736.29,-86 877.71,-86 877.71,-122"/>
<text text-anchor="middle" x="807" y="-99.8" font-family="Times,serif" font-size="14.00">SiteConfigApiModule</text>
</g>
<!-- SiteConfigApiModule&#45;&gt;WithdrawModule -->
<g id="edge4" class="edge">
<title>SiteConfigApiModule&#45;&gt;WithdrawModule</title>
<path fill="none" stroke="black" d="M767.58,-122.11C767.58,-122.11 767.58,-140.99 767.58,-140.99"/>
<polygon fill="black" stroke="black" points="764.08,-140.99 767.58,-150.99 771.08,-140.99 764.08,-140.99"/>
</g>
<!-- UserModule -->
<g id="node5" class="node">
<title>UserModule</title>
<polygon fill="#8dd3c7" stroke="black" points="717.98,-122 714.98,-126 693.98,-126 690.98,-122 632.02,-122 632.02,-86 717.98,-86 717.98,-122"/>
<text text-anchor="middle" x="675" y="-99.8" font-family="Times,serif" font-size="14.00">UserModule</text>
</g>
<!-- UserModule&#45;&gt;WithdrawModule -->
<g id="edge5" class="edge">
<title>UserModule&#45;&gt;WithdrawModule</title>
<path fill="none" stroke="black" d="M700.61,-122.11C700.61,-122.11 700.61,-140.99 700.61,-140.99"/>
<polygon fill="black" stroke="black" points="697.11,-140.99 700.61,-150.99 704.11,-140.99 697.11,-140.99"/>
</g>
<!-- WithdrawCheckService  -->
<g id="node7" class="node">
<title>WithdrawCheckService </title>
<polygon fill="#fb8072" stroke="black" points="894.72,-252 741.28,-252 741.28,-216 894.72,-216 894.72,-252"/>
<text text-anchor="middle" x="818" y="-229.8" font-family="Times,serif" font-size="14.00">WithdrawCheckService </text>
</g>
<!-- WithdrawModule&#45;&gt;WithdrawCheckService  -->
<g id="edge6" class="edge">
<title>WithdrawModule&#45;&gt;WithdrawCheckService </title>
<path fill="none" stroke="black" stroke-dasharray="5,2" d="M770.08,-187.11C770.08,-187.11 770.08,-205.99 770.08,-205.99"/>
<polygon fill="black" stroke="black" points="766.58,-205.99 770.08,-215.99 773.58,-205.99 766.58,-205.99"/>
</g>
<!-- WithdrawService  -->
<g id="node8" class="node">
<title>WithdrawService </title>
<polygon fill="#fb8072" stroke="black" points="723.96,-252 606.04,-252 606.04,-216 723.96,-216 723.96,-252"/>
<text text-anchor="middle" x="665" y="-229.8" font-family="Times,serif" font-size="14.00">WithdrawService </text>
</g>
<!-- WithdrawModule&#45;&gt;WithdrawService  -->
<g id="edge7" class="edge">
<title>WithdrawModule&#45;&gt;WithdrawService </title>
<path fill="none" stroke="black" stroke-dasharray="5,2" d="M703.48,-187.11C703.48,-187.11 703.48,-205.99 703.48,-205.99"/>
<polygon fill="black" stroke="black" points="699.98,-205.99 703.48,-215.99 706.98,-205.99 699.98,-205.99"/>
</g>
<!-- WithdrawCheckService -->
<g id="node9" class="node">
<title>WithdrawCheckService</title>
<ellipse fill="#fdb462" stroke="black" cx="505" cy="-104" rx="103.05" ry="18"/>
<text text-anchor="middle" x="505" y="-99.8" font-family="Times,serif" font-size="14.00">WithdrawCheckService</text>
</g>
<!-- WithdrawCheckService&#45;&gt;WithdrawModule -->
<g id="edge8" class="edge">
<title>WithdrawCheckService&#45;&gt;WithdrawModule</title>
<path fill="none" stroke="black" d="M504,-122.03C504,-138.4 504,-160 504,-160 504,-160 673.33,-160 673.33,-160"/>
<polygon fill="black" stroke="black" points="673.33,-163.5 683.33,-160 673.33,-156.5 673.33,-163.5"/>
</g>
<!-- WithdrawRepository -->
<g id="node10" class="node">
<title>WithdrawRepository</title>
<ellipse fill="#fdb462" stroke="black" cx="292" cy="-104" rx="92.05" ry="18"/>
<text text-anchor="middle" x="292" y="-99.8" font-family="Times,serif" font-size="14.00">WithdrawRepository</text>
</g>
<!-- WithdrawRepository&#45;&gt;WithdrawModule -->
<g id="edge9" class="edge">
<title>WithdrawRepository&#45;&gt;WithdrawModule</title>
<path fill="none" stroke="black" d="M292,-122.11C292,-141.34 292,-169 292,-169 292,-169 673.22,-169 673.22,-169"/>
<polygon fill="black" stroke="black" points="673.22,-172.5 683.22,-169 673.22,-165.5 673.22,-172.5"/>
</g>
<!-- WithdrawService -->
<g id="node11" class="node">
<title>WithdrawService</title>
<ellipse fill="#fdb462" stroke="black" cx="103" cy="-104" rx="78.71" ry="18"/>
<text text-anchor="middle" x="103" y="-99.8" font-family="Times,serif" font-size="14.00">WithdrawService</text>
</g>
<!-- WithdrawService&#45;&gt;WithdrawModule -->
<g id="edge10" class="edge">
<title>WithdrawService&#45;&gt;WithdrawModule</title>
<path fill="none" stroke="black" d="M103,-122.29C103,-144.21 103,-178 103,-178 103,-178 673.26,-178 673.26,-178"/>
<polygon fill="black" stroke="black" points="673.26,-181.5 683.26,-178 673.26,-174.5 673.26,-181.5"/>
</g>
</g>
</svg>
