<?xml version="1.0" encoding="UTF-8" standalone="no"?>
<!DOCTYPE svg PUBLIC "-//W3C//DTD SVG 1.1//EN"
 "http://www.w3.org/Graphics/SVG/1.1/DTD/svg11.dtd">
<!-- Generated by graphviz version 2.47.0 (20210316.0004)
 -->
<!-- Title: dependencies Pages: 1 -->
<svg width="7106pt" height="284pt"
 viewBox="0.00 0.00 7106.00 284.00" xmlns="http://www.w3.org/2000/svg" xmlns:xlink="http://www.w3.org/1999/xlink">
<g id="graph0" class="graph" transform="scale(1 1) rotate(0) translate(4 280)">
<title>dependencies</title>
<polygon fill="white" stroke="transparent" points="-4,4 -4,-280 7102,-280 7102,4 -4,4"/>
<text text-anchor="start" x="3528.01" y="-42.4" font-family="Times-12" font-weight="bold" font-size="14.00">Legend</text>
<polygon fill="#ffffb3" stroke="transparent" points="3315,-10 3315,-30 3335,-30 3335,-10 3315,-10"/>
<text text-anchor="start" x="3338.63" y="-15.4" font-family="Times-12" font-size="14.00"> &#160;Declarations</text>
<polygon fill="#8dd3c7" stroke="transparent" points="3428,-10 3428,-30 3448,-30 3448,-10 3428,-10"/>
<text text-anchor="start" x="3451.73" y="-15.4" font-family="Times-12" font-size="14.00"> &#160;Module</text>
<polygon fill="#80b1d3" stroke="transparent" points="3514,-10 3514,-30 3534,-30 3534,-10 3514,-10"/>
<text text-anchor="start" x="3537.78" y="-15.4" font-family="Times-12" font-size="14.00"> &#160;Bootstrap</text>
<polygon fill="#fdb462" stroke="transparent" points="3611,-10 3611,-30 3631,-30 3631,-10 3611,-10"/>
<text text-anchor="start" x="3634.67" y="-15.4" font-family="Times-12" font-size="14.00"> &#160;Providers</text>
<polygon fill="#fb8072" stroke="transparent" points="3707,-10 3707,-30 3727,-30 3727,-10 3707,-10"/>
<text text-anchor="start" x="3730.73" y="-15.4" font-family="Times-12" font-size="14.00"> &#160;Exports</text>
<g id="clust1" class="cluster">
<title>cluster_RepositoryModule</title>
<polygon fill="none" stroke="black" stroke-dasharray="1,5" points="8,-70 8,-268 7090,-268 7090,-70 8,-70"/>
</g>
<g id="clust4" class="cluster">
<title>cluster_RepositoryModule_exports</title>
<polygon fill="none" stroke="black" points="3204,-208 3204,-260 3362,-260 3362,-208 3204,-208"/>
</g>
<g id="clust6" class="cluster">
<title>cluster_RepositoryModule_providers</title>
<polygon fill="none" stroke="black" points="126,-78 126,-130 7082,-130 7082,-78 126,-78"/>
</g>
<g id="clust3" class="cluster">
<title>cluster_RepositoryModule_imports</title>
<polygon fill="none" stroke="black" points="16,-78 16,-130 118,-130 118,-78 16,-78"/>
</g>
<!-- UserModule -->
<g id="node1" class="node">
<title>UserModule</title>
<polygon fill="#8dd3c7" stroke="black" points="109.98,-122 106.98,-126 85.98,-126 82.98,-122 24.02,-122 24.02,-86 109.98,-86 109.98,-122"/>
<text text-anchor="middle" x="67" y="-99.8" font-family="Times,serif" font-size="14.00">UserModule</text>
</g>
<!-- RepositoryModule -->
<g id="node2" class="node">
<title>RepositoryModule</title>
<polygon fill="#8dd3c7" stroke="black" points="3343.49,-187 3340.49,-191 3319.49,-191 3316.49,-187 3222.51,-187 3222.51,-151 3343.49,-151 3343.49,-187"/>
<text text-anchor="middle" x="3283" y="-164.8" font-family="Times,serif" font-size="14.00">RepositoryModule</text>
</g>
<!-- UserModule&#45;&gt;RepositoryModule -->
<g id="edge1" class="edge">
<title>UserModule&#45;&gt;RepositoryModule</title>
<path fill="none" stroke="black" d="M67,-122.38C67,-146.28 67,-185 67,-185 67,-185 3212.34,-185 3212.34,-185"/>
<polygon fill="black" stroke="black" points="3212.34,-188.5 3222.34,-185 3212.34,-181.5 3212.34,-188.5"/>
</g>
<!-- DashboardRepository  -->
<g id="node3" class="node">
<title>DashboardRepository </title>
<polygon fill="#fb8072" stroke="black" points="3353.58,-252 3212.42,-252 3212.42,-216 3353.58,-216 3353.58,-252"/>
<text text-anchor="middle" x="3283" y="-229.8" font-family="Times,serif" font-size="14.00">DashboardRepository </text>
</g>
<!-- RepositoryModule&#45;&gt;DashboardRepository  -->
<g id="edge2" class="edge">
<title>RepositoryModule&#45;&gt;DashboardRepository </title>
<path fill="none" stroke="black" stroke-dasharray="5,2" d="M3283,-187.11C3283,-187.11 3283,-205.99 3283,-205.99"/>
<polygon fill="black" stroke="black" points="3279.5,-205.99 3283,-215.99 3286.5,-205.99 3279.5,-205.99"/>
</g>
<!-- AdminTipsQuery -->
<g id="node4" class="node">
<title>AdminTipsQuery</title>
<ellipse fill="#fdb462" stroke="black" cx="6995" cy="-104" rx="79.32" ry="18"/>
<text text-anchor="middle" x="6995" y="-99.8" font-family="Times,serif" font-size="14.00">AdminTipsQuery</text>
</g>
<!-- AdminTipsQuery&#45;&gt;RepositoryModule -->
<g id="edge3" class="edge">
<title>AdminTipsQuery&#45;&gt;RepositoryModule</title>
<path fill="none" stroke="black" d="M6995,-122.38C6995,-146.28 6995,-185 6995,-185 6995,-185 3353.57,-185 3353.57,-185"/>
<polygon fill="black" stroke="black" points="3353.57,-181.5 3343.57,-185 3353.57,-188.5 3353.57,-181.5"/>
</g>
<!-- AffiliateActiveReferralsCountQuery -->
<g id="node5" class="node">
<title>AffiliateActiveReferralsCountQuery</title>
<ellipse fill="#fdb462" stroke="black" cx="6745" cy="-104" rx="152.72" ry="18"/>
<text text-anchor="middle" x="6745" y="-99.8" font-family="Times,serif" font-size="14.00">AffiliateActiveReferralsCountQuery</text>
</g>
<!-- AffiliateActiveReferralsCountQuery&#45;&gt;RepositoryModule -->
<g id="edge4" class="edge">
<title>AffiliateActiveReferralsCountQuery&#45;&gt;RepositoryModule</title>
<path fill="none" stroke="black" d="M6745,-122.32C6745,-145.66 6745,-183 6745,-183 6745,-183 3353.82,-183 3353.82,-183"/>
<polygon fill="black" stroke="black" points="3353.82,-179.5 3343.82,-183 3353.82,-186.5 3353.82,-179.5"/>
</g>
<!-- AffiliateAdminTipsQuery -->
<g id="node6" class="node">
<title>AffiliateAdminTipsQuery</title>
<ellipse fill="#fdb462" stroke="black" cx="6463" cy="-104" rx="111.73" ry="18"/>
<text text-anchor="middle" x="6463" y="-99.8" font-family="Times,serif" font-size="14.00">AffiliateAdminTipsQuery</text>
</g>
<!-- AffiliateAdminTipsQuery&#45;&gt;RepositoryModule -->
<g id="edge5" class="edge">
<title>AffiliateAdminTipsQuery&#45;&gt;RepositoryModule</title>
<path fill="none" stroke="black" d="M6463,-122.25C6463,-145.02 6463,-181 6463,-181 6463,-181 3353.69,-181 3353.69,-181"/>
<polygon fill="black" stroke="black" points="3353.69,-177.5 3343.69,-181 3353.69,-184.5 3353.69,-177.5"/>
</g>
<!-- AffiliateClaimedQuery -->
<g id="node7" class="node">
<title>AffiliateClaimedQuery</title>
<ellipse fill="#fdb462" stroke="black" cx="6233" cy="-104" rx="100.69" ry="18"/>
<text text-anchor="middle" x="6233" y="-99.8" font-family="Times,serif" font-size="14.00">AffiliateClaimedQuery</text>
</g>
<!-- AffiliateClaimedQuery&#45;&gt;RepositoryModule -->
<g id="edge6" class="edge">
<title>AffiliateClaimedQuery&#45;&gt;RepositoryModule</title>
<path fill="none" stroke="black" d="M6233,-122.29C6233,-144.21 6233,-178 6233,-178 6233,-178 3353.6,-178 3353.6,-178"/>
<polygon fill="black" stroke="black" points="3353.6,-174.5 3343.6,-178 3353.6,-181.5 3353.6,-174.5"/>
</g>
<!-- AffiliateDepositsQuery -->
<g id="node8" class="node">
<title>AffiliateDepositsQuery</title>
<ellipse fill="#fdb462" stroke="black" cx="6013" cy="-104" rx="101.84" ry="18"/>
<text text-anchor="middle" x="6013" y="-99.8" font-family="Times,serif" font-size="14.00">AffiliateDepositsQuery</text>
</g>
<!-- AffiliateDepositsQuery&#45;&gt;RepositoryModule -->
<g id="edge7" class="edge">
<title>AffiliateDepositsQuery&#45;&gt;RepositoryModule</title>
<path fill="none" stroke="black" d="M6013,-122.17C6013,-143.5 6013,-176 6013,-176 6013,-176 3353.52,-176 3353.52,-176"/>
<polygon fill="black" stroke="black" points="3353.52,-172.5 3343.52,-176 3353.52,-179.5 3353.52,-172.5"/>
</g>
<!-- AffiliateReferralsCountQuery -->
<g id="node9" class="node">
<title>AffiliateReferralsCountQuery</title>
<ellipse fill="#fdb462" stroke="black" cx="5766" cy="-104" rx="126.74" ry="18"/>
<text text-anchor="middle" x="5766" y="-99.8" font-family="Times,serif" font-size="14.00">AffiliateReferralsCountQuery</text>
</g>
<!-- AffiliateReferralsCountQuery&#45;&gt;RepositoryModule -->
<g id="edge8" class="edge">
<title>AffiliateReferralsCountQuery&#45;&gt;RepositoryModule</title>
<path fill="none" stroke="black" d="M5766,-122.03C5766,-142.77 5766,-174 5766,-174 5766,-174 3353.76,-174 3353.76,-174"/>
<polygon fill="black" stroke="black" points="3353.76,-170.5 3343.76,-174 3353.76,-177.5 3353.76,-170.5"/>
</g>
<!-- AffiliateRewardTakenQuery -->
<g id="node10" class="node">
<title>AffiliateRewardTakenQuery</title>
<ellipse fill="#fdb462" stroke="black" cx="5499" cy="-104" rx="122.07" ry="18"/>
<text text-anchor="middle" x="5499" y="-99.8" font-family="Times,serif" font-size="14.00">AffiliateRewardTakenQuery</text>
</g>
<!-- AffiliateRewardTakenQuery&#45;&gt;RepositoryModule -->
<g id="edge9" class="edge">
<title>AffiliateRewardTakenQuery&#45;&gt;RepositoryModule</title>
<path fill="none" stroke="black" d="M5499,-122.22C5499,-142.37 5499,-172 5499,-172 5499,-172 3353.71,-172 3353.71,-172"/>
<polygon fill="black" stroke="black" points="3353.71,-168.5 3343.71,-172 3353.71,-175.5 3353.71,-168.5"/>
</g>
<!-- AffiliateTotalWithdrawalsQuery -->
<g id="node11" class="node">
<title>AffiliateTotalWithdrawalsQuery</title>
<ellipse fill="#fdb462" stroke="black" cx="5221" cy="-104" rx="137.69" ry="18"/>
<text text-anchor="middle" x="5221" y="-99.8" font-family="Times,serif" font-size="14.00">AffiliateTotalWithdrawalsQuery</text>
</g>
<!-- AffiliateTotalWithdrawalsQuery&#45;&gt;RepositoryModule -->
<g id="edge10" class="edge">
<title>AffiliateTotalWithdrawalsQuery&#45;&gt;RepositoryModule</title>
<path fill="none" stroke="black" d="M5221,-122.11C5221,-141.34 5221,-169 5221,-169 5221,-169 3353.66,-169 3353.66,-169"/>
<polygon fill="black" stroke="black" points="3353.66,-165.5 3343.66,-169 3353.66,-172.5 3353.66,-165.5"/>
</g>
<!-- BatchAggregationService -->
<g id="node12" class="node">
<title>BatchAggregationService</title>
<ellipse fill="#fdb462" stroke="black" cx="4955" cy="-104" rx="110.57" ry="18"/>
<text text-anchor="middle" x="4955" y="-99.8" font-family="Times,serif" font-size="14.00">BatchAggregationService</text>
</g>
<!-- BatchAggregationService&#45;&gt;RepositoryModule -->
<g id="edge11" class="edge">
<title>BatchAggregationService&#45;&gt;RepositoryModule</title>
<path fill="none" stroke="black" d="M4955,-122.22C4955,-140.83 4955,-167 4955,-167 4955,-167 3353.5,-167 3353.5,-167"/>
<polygon fill="black" stroke="black" points="3353.5,-163.5 3343.5,-167 3353.5,-170.5 3353.5,-163.5"/>
</g>
<!-- DashboardRepository -->
<g id="node13" class="node">
<title>DashboardRepository</title>
<ellipse fill="#fdb462" stroke="black" cx="4731" cy="-104" rx="95.49" ry="18"/>
<text text-anchor="middle" x="4731" y="-99.8" font-family="Times,serif" font-size="14.00">DashboardRepository</text>
</g>
<!-- DashboardRepository&#45;&gt;RepositoryModule -->
<g id="edge12" class="edge">
<title>DashboardRepository&#45;&gt;RepositoryModule</title>
<path fill="none" stroke="black" d="M4731,-122.3C4731,-140.27 4731,-165 4731,-165 4731,-165 3353.83,-165 3353.83,-165"/>
<polygon fill="black" stroke="black" points="3353.83,-161.5 3343.83,-165 3353.83,-168.5 3353.83,-161.5"/>
</g>
<!-- FirstTimeDepositAmountAndCountQuery -->
<g id="node14" class="node">
<title>FirstTimeDepositAmountAndCountQuery</title>
<ellipse fill="#fdb462" stroke="black" cx="4443" cy="-104" rx="175.36" ry="18"/>
<text text-anchor="middle" x="4443" y="-99.8" font-family="Times,serif" font-size="14.00">FirstTimeDepositAmountAndCountQuery</text>
</g>
<!-- FirstTimeDepositAmountAndCountQuery&#45;&gt;RepositoryModule -->
<g id="edge13" class="edge">
<title>FirstTimeDepositAmountAndCountQuery&#45;&gt;RepositoryModule</title>
<path fill="none" stroke="black" d="M4443,-122.02C4443,-139.37 4443,-163 4443,-163 4443,-163 3353.73,-163 3353.73,-163"/>
<polygon fill="black" stroke="black" points="3353.73,-159.5 3343.73,-163 3353.73,-166.5 3353.73,-159.5"/>
</g>
<!-- GamesBetTotalCountAverageQuery -->
<g id="node15" class="node">
<title>GamesBetTotalCountAverageQuery</title>
<ellipse fill="#fdb462" stroke="black" cx="4098" cy="-104" rx="152.17" ry="18"/>
<text text-anchor="middle" x="4098" y="-99.8" font-family="Times,serif" font-size="14.00">GamesBetTotalCountAverageQuery</text>
</g>
<!-- GamesBetTotalCountAverageQuery&#45;&gt;RepositoryModule -->
<g id="edge14" class="edge">
<title>GamesBetTotalCountAverageQuery&#45;&gt;RepositoryModule</title>
<path fill="none" stroke="black" d="M4098,-122.03C4098,-138.4 4098,-160 4098,-160 4098,-160 3353.59,-160 3353.59,-160"/>
<polygon fill="black" stroke="black" points="3353.59,-156.5 3343.59,-160 3353.59,-163.5 3353.59,-156.5"/>
</g>
<!-- GamesChartsQuery -->
<g id="node16" class="node">
<title>GamesChartsQuery</title>
<ellipse fill="#fdb462" stroke="black" cx="3841" cy="-104" rx="87.38" ry="18"/>
<text text-anchor="middle" x="3841" y="-99.8" font-family="Times,serif" font-size="14.00">GamesChartsQuery</text>
</g>
<!-- GamesChartsQuery&#45;&gt;RepositoryModule -->
<g id="edge15" class="edge">
<title>GamesChartsQuery&#45;&gt;RepositoryModule</title>
<path fill="none" stroke="black" d="M3841,-122.28C3841,-137.95 3841,-158 3841,-158 3841,-158 3353.51,-158 3353.51,-158"/>
<polygon fill="black" stroke="black" points="3353.51,-154.5 3343.51,-158 3353.51,-161.5 3353.51,-154.5"/>
</g>
<!-- GgrGamesQuery -->
<g id="node17" class="node">
<title>GgrGamesQuery</title>
<ellipse fill="#fdb462" stroke="black" cx="3659" cy="-104" rx="76.99" ry="18"/>
<text text-anchor="middle" x="3659" y="-99.8" font-family="Times,serif" font-size="14.00">GgrGamesQuery</text>
</g>
<!-- GgrGamesQuery&#45;&gt;RepositoryModule -->
<g id="edge16" class="edge">
<title>GgrGamesQuery&#45;&gt;RepositoryModule</title>
<path fill="none" stroke="black" d="M3659,-122.19C3659,-137.18 3659,-156 3659,-156 3659,-156 3353.83,-156 3353.83,-156"/>
<polygon fill="black" stroke="black" points="3353.83,-152.5 3343.83,-156 3353.83,-159.5 3353.83,-152.5"/>
</g>
<!-- GgrQuery -->
<g id="node18" class="node">
<title>GgrQuery</title>
<ellipse fill="#fdb462" stroke="black" cx="3514" cy="-104" rx="50.36" ry="18"/>
<text text-anchor="middle" x="3514" y="-99.8" font-family="Times,serif" font-size="14.00">GgrQuery</text>
</g>
<!-- GgrQuery&#45;&gt;RepositoryModule -->
<g id="edge17" class="edge">
<title>GgrQuery&#45;&gt;RepositoryModule</title>
<path fill="none" stroke="black" d="M3514,-122.05C3514,-136.37 3514,-154 3514,-154 3514,-154 3353.69,-154 3353.69,-154"/>
<polygon fill="black" stroke="black" points="3353.69,-150.5 3343.69,-154 3353.69,-157.5 3353.69,-150.5"/>
</g>
<!-- LeaderBoardQuery -->
<g id="node19" class="node">
<title>LeaderBoardQuery</title>
<ellipse fill="#fdb462" stroke="black" cx="3360" cy="-104" rx="85.64" ry="18"/>
<text text-anchor="middle" x="3360" y="-99.8" font-family="Times,serif" font-size="14.00">LeaderBoardQuery</text>
</g>
<!-- LeaderBoardQuery&#45;&gt;RepositoryModule -->
<g id="edge18" class="edge">
<title>LeaderBoardQuery&#45;&gt;RepositoryModule</title>
<path fill="none" stroke="black" d="M3308.96,-118.75C3308.96,-118.75 3308.96,-140.59 3308.96,-140.59"/>
<polygon fill="black" stroke="black" points="3305.46,-140.59 3308.96,-150.59 3312.46,-140.59 3305.46,-140.59"/>
</g>
<!-- NgrQuery -->
<g id="node20" class="node">
<title>NgrQuery</title>
<ellipse fill="#fdb462" stroke="black" cx="3206" cy="-104" rx="50.36" ry="18"/>
<text text-anchor="middle" x="3206" y="-99.8" font-family="Times,serif" font-size="14.00">NgrQuery</text>
</g>
<!-- NgrQuery&#45;&gt;RepositoryModule -->
<g id="edge19" class="edge">
<title>NgrQuery&#45;&gt;RepositoryModule</title>
<path fill="none" stroke="black" d="M3239.34,-117.47C3239.34,-117.47 3239.34,-140.86 3239.34,-140.86"/>
<polygon fill="black" stroke="black" points="3235.84,-140.86 3239.34,-150.86 3242.84,-140.86 3235.84,-140.86"/>
</g>
<!-- OnlineQuery -->
<g id="node21" class="node">
<title>OnlineQuery</title>
<ellipse fill="#fdb462" stroke="black" cx="3076" cy="-104" rx="61.4" ry="18"/>
<text text-anchor="middle" x="3076" y="-99.8" font-family="Times,serif" font-size="14.00">OnlineQuery</text>
</g>
<!-- OnlineQuery&#45;&gt;RepositoryModule -->
<g id="edge20" class="edge">
<title>OnlineQuery&#45;&gt;RepositoryModule</title>
<path fill="none" stroke="black" d="M3076,-122.05C3076,-136.37 3076,-154 3076,-154 3076,-154 3212.29,-154 3212.29,-154"/>
<polygon fill="black" stroke="black" points="3212.29,-157.5 3222.29,-154 3212.29,-150.5 3212.29,-157.5"/>
</g>
<!-- ProfitLossQuery -->
<g id="node22" class="node">
<title>ProfitLossQuery</title>
<ellipse fill="#fdb462" stroke="black" cx="2921" cy="-104" rx="75.3" ry="18"/>
<text text-anchor="middle" x="2921" y="-99.8" font-family="Times,serif" font-size="14.00">ProfitLossQuery</text>
</g>
<!-- ProfitLossQuery&#45;&gt;RepositoryModule -->
<g id="edge21" class="edge">
<title>ProfitLossQuery&#45;&gt;RepositoryModule</title>
<path fill="none" stroke="black" d="M2921,-122.19C2921,-137.18 2921,-156 2921,-156 2921,-156 3212.41,-156 3212.41,-156"/>
<polygon fill="black" stroke="black" points="3212.41,-159.5 3222.41,-156 3212.41,-152.5 3212.41,-159.5"/>
</g>
<!-- ProviderGeneralStats -->
<g id="node23" class="node">
<title>ProviderGeneralStats</title>
<ellipse fill="#fdb462" stroke="black" cx="2734" cy="-104" rx="93.75" ry="18"/>
<text text-anchor="middle" x="2734" y="-99.8" font-family="Times,serif" font-size="14.00">ProviderGeneralStats</text>
</g>
<!-- ProviderGeneralStats&#45;&gt;RepositoryModule -->
<g id="edge22" class="edge">
<title>ProviderGeneralStats&#45;&gt;RepositoryModule</title>
<path fill="none" stroke="black" d="M2734,-122.28C2734,-137.95 2734,-158 2734,-158 2734,-158 3212.41,-158 3212.41,-158"/>
<polygon fill="black" stroke="black" points="3212.41,-161.5 3222.41,-158 3212.41,-154.5 3212.41,-161.5"/>
</g>
<!-- RakeBackProgramQuery -->
<g id="node24" class="node">
<title>RakeBackProgramQuery</title>
<ellipse fill="#fdb462" stroke="black" cx="2514" cy="-104" rx="108.21" ry="18"/>
<text text-anchor="middle" x="2514" y="-99.8" font-family="Times,serif" font-size="14.00">RakeBackProgramQuery</text>
</g>
<!-- RakeBackProgramQuery&#45;&gt;RepositoryModule -->
<g id="edge23" class="edge">
<title>RakeBackProgramQuery&#45;&gt;RepositoryModule</title>
<path fill="none" stroke="black" d="M2514,-122.03C2514,-138.4 2514,-160 2514,-160 2514,-160 3212.34,-160 3212.34,-160"/>
<polygon fill="black" stroke="black" points="3212.34,-163.5 3222.34,-160 3212.34,-156.5 3212.34,-163.5"/>
</g>
<!-- ReferralFtdQuery -->
<g id="node25" class="node">
<title>ReferralFtdQuery</title>
<ellipse fill="#fdb462" stroke="black" cx="2308" cy="-104" rx="79.85" ry="18"/>
<text text-anchor="middle" x="2308" y="-99.8" font-family="Times,serif" font-size="14.00">ReferralFtdQuery</text>
</g>
<!-- ReferralFtdQuery&#45;&gt;RepositoryModule -->
<g id="edge24" class="edge">
<title>ReferralFtdQuery&#45;&gt;RepositoryModule</title>
<path fill="none" stroke="black" d="M2308,-122.02C2308,-139.37 2308,-163 2308,-163 2308,-163 3212.38,-163 3212.38,-163"/>
<polygon fill="black" stroke="black" points="3212.38,-166.5 3222.38,-163 3212.38,-159.5 3212.38,-166.5"/>
</g>
<!-- ReferralGgrQuery -->
<g id="node26" class="node">
<title>ReferralGgrQuery</title>
<ellipse fill="#fdb462" stroke="black" cx="2129" cy="-104" rx="81.62" ry="18"/>
<text text-anchor="middle" x="2129" y="-99.8" font-family="Times,serif" font-size="14.00">ReferralGgrQuery</text>
</g>
<!-- ReferralGgrQuery&#45;&gt;RepositoryModule -->
<g id="edge25" class="edge">
<title>ReferralGgrQuery&#45;&gt;RepositoryModule</title>
<path fill="none" stroke="black" d="M2129,-122.3C2129,-140.27 2129,-165 2129,-165 2129,-165 3212.18,-165 3212.18,-165"/>
<polygon fill="black" stroke="black" points="3212.18,-168.5 3222.18,-165 3212.18,-161.5 3212.18,-168.5"/>
</g>
<!-- ReferralTotalWageredQuery -->
<g id="node27" class="node">
<title>ReferralTotalWageredQuery</title>
<ellipse fill="#fdb462" stroke="black" cx="1907" cy="-104" rx="122.05" ry="18"/>
<text text-anchor="middle" x="1907" y="-99.8" font-family="Times,serif" font-size="14.00">ReferralTotalWageredQuery</text>
</g>
<!-- ReferralTotalWageredQuery&#45;&gt;RepositoryModule -->
<g id="edge26" class="edge">
<title>ReferralTotalWageredQuery&#45;&gt;RepositoryModule</title>
<path fill="none" stroke="black" d="M1907,-122.22C1907,-140.83 1907,-167 1907,-167 1907,-167 3212.1,-167 3212.1,-167"/>
<polygon fill="black" stroke="black" points="3212.1,-170.5 3222.1,-167 3212.1,-163.5 3212.1,-170.5"/>
</g>
<!-- UserTipsQuery -->
<g id="node28" class="node">
<title>UserTipsQuery</title>
<ellipse fill="#fdb462" stroke="black" cx="1696" cy="-104" rx="70.62" ry="18"/>
<text text-anchor="middle" x="1696" y="-99.8" font-family="Times,serif" font-size="14.00">UserTipsQuery</text>
</g>
<!-- UserTipsQuery&#45;&gt;RepositoryModule -->
<g id="edge27" class="edge">
<title>UserTipsQuery&#45;&gt;RepositoryModule</title>
<path fill="none" stroke="black" d="M1696,-122.11C1696,-141.34 1696,-169 1696,-169 1696,-169 3212.24,-169 3212.24,-169"/>
<polygon fill="black" stroke="black" points="3212.24,-172.5 3222.24,-169 3212.24,-165.5 3212.24,-172.5"/>
</g>
<!-- UserTotalBalanceQuery -->
<g id="node29" class="node">
<title>UserTotalBalanceQuery</title>
<ellipse fill="#fdb462" stroke="black" cx="1503" cy="-104" rx="104.75" ry="18"/>
<text text-anchor="middle" x="1503" y="-99.8" font-family="Times,serif" font-size="14.00">UserTotalBalanceQuery</text>
</g>
<!-- UserTotalBalanceQuery&#45;&gt;RepositoryModule -->
<g id="edge28" class="edge">
<title>UserTotalBalanceQuery&#45;&gt;RepositoryModule</title>
<path fill="none" stroke="black" d="M1503,-122.22C1503,-142.37 1503,-172 1503,-172 1503,-172 3212.5,-172 3212.5,-172"/>
<polygon fill="black" stroke="black" points="3212.5,-175.5 3222.5,-172 3212.5,-168.5 3212.5,-175.5"/>
</g>
<!-- UserTotalCountQuery -->
<g id="node30" class="node">
<title>UserTotalCountQuery</title>
<ellipse fill="#fdb462" stroke="black" cx="1283" cy="-104" rx="97.27" ry="18"/>
<text text-anchor="middle" x="1283" y="-99.8" font-family="Times,serif" font-size="14.00">UserTotalCountQuery</text>
</g>
<!-- UserTotalCountQuery&#45;&gt;RepositoryModule -->
<g id="edge29" class="edge">
<title>UserTotalCountQuery&#45;&gt;RepositoryModule</title>
<path fill="none" stroke="black" d="M1283,-122.03C1283,-142.77 1283,-174 1283,-174 1283,-174 3212.33,-174 3212.33,-174"/>
<polygon fill="black" stroke="black" points="3212.33,-177.5 3222.33,-174 3212.33,-170.5 3212.33,-177.5"/>
</g>
<!-- UserTotalDepositsAndAverageQuery -->
<g id="node31" class="node">
<title>UserTotalDepositsAndAverageQuery</title>
<ellipse fill="#fdb462" stroke="black" cx="1011" cy="-104" rx="156.8" ry="18"/>
<text text-anchor="middle" x="1011" y="-99.8" font-family="Times,serif" font-size="14.00">UserTotalDepositsAndAverageQuery</text>
</g>
<!-- UserTotalDepositsAndAverageQuery&#45;&gt;RepositoryModule -->
<g id="edge30" class="edge">
<title>UserTotalDepositsAndAverageQuery&#45;&gt;RepositoryModule</title>
<path fill="none" stroke="black" d="M1011,-122.17C1011,-143.5 1011,-176 1011,-176 1011,-176 3212.23,-176 3212.23,-176"/>
<polygon fill="black" stroke="black" points="3212.23,-179.5 3222.23,-176 3212.23,-172.5 3212.23,-179.5"/>
</g>
<!-- UserTotalSignupQuery -->
<g id="node32" class="node">
<title>UserTotalSignupQuery</title>
<ellipse fill="#fdb462" stroke="black" cx="735" cy="-104" rx="101.29" ry="18"/>
<text text-anchor="middle" x="735" y="-99.8" font-family="Times,serif" font-size="14.00">UserTotalSignupQuery</text>
</g>
<!-- UserTotalSignupQuery&#45;&gt;RepositoryModule -->
<g id="edge31" class="edge">
<title>UserTotalSignupQuery&#45;&gt;RepositoryModule</title>
<path fill="none" stroke="black" d="M735,-122.29C735,-144.21 735,-178 735,-178 735,-178 3212.22,-178 3212.22,-178"/>
<polygon fill="black" stroke="black" points="3212.22,-181.5 3222.22,-178 3212.22,-174.5 3212.22,-181.5"/>
</g>
<!-- UserTotalWageredQuery -->
<g id="node33" class="node">
<title>UserTotalWageredQuery</title>
<ellipse fill="#fdb462" stroke="black" cx="507" cy="-104" rx="108.75" ry="18"/>
<text text-anchor="middle" x="507" y="-99.8" font-family="Times,serif" font-size="14.00">UserTotalWageredQuery</text>
</g>
<!-- UserTotalWageredQuery&#45;&gt;RepositoryModule -->
<g id="edge32" class="edge">
<title>UserTotalWageredQuery&#45;&gt;RepositoryModule</title>
<path fill="none" stroke="black" d="M507,-122.25C507,-145.02 507,-181 507,-181 507,-181 3212.44,-181 3212.44,-181"/>
<polygon fill="black" stroke="black" points="3212.44,-184.5 3222.44,-181 3212.44,-177.5 3212.44,-184.5"/>
</g>
<!-- UserTotalWithdrawalsQuery -->
<g id="node34" class="node">
<title>UserTotalWithdrawalsQuery</title>
<ellipse fill="#fdb462" stroke="black" cx="257" cy="-104" rx="123.23" ry="18"/>
<text text-anchor="middle" x="257" y="-99.8" font-family="Times,serif" font-size="14.00">UserTotalWithdrawalsQuery</text>
</g>
<!-- UserTotalWithdrawalsQuery&#45;&gt;RepositoryModule -->
<g id="edge33" class="edge">
<title>UserTotalWithdrawalsQuery&#45;&gt;RepositoryModule</title>
<path fill="none" stroke="black" d="M257,-122.32C257,-145.66 257,-183 257,-183 257,-183 3212.21,-183 3212.21,-183"/>
<polygon fill="black" stroke="black" points="3212.21,-186.5 3222.21,-183 3212.21,-179.5 3212.21,-186.5"/>
</g>
</g>
</svg>
