<?xml version="1.0" encoding="UTF-8" standalone="no"?>
<!DOCTYPE svg PUBLIC "-//W3C//DTD SVG 1.1//EN"
 "http://www.w3.org/Graphics/SVG/1.1/DTD/svg11.dtd">
<!-- Generated by graphviz version 2.47.0 (20210316.0004)
 -->
<!-- Title: dependencies Pages: 1 -->
<svg width="580pt" height="284pt"
 viewBox="0.00 0.00 580.00 284.00" xmlns="http://www.w3.org/2000/svg" xmlns:xlink="http://www.w3.org/1999/xlink">
<g id="graph0" class="graph" transform="scale(1 1) rotate(0) translate(4 280)">
<title>dependencies</title>
<polygon fill="white" stroke="transparent" points="-4,4 -4,-280 576,-280 576,4 -4,4"/>
<text text-anchor="start" x="265.01" y="-42.4" font-family="Times-12" font-weight="bold" font-size="14.00">Legend</text>
<polygon fill="#ffffb3" stroke="transparent" points="52,-10 52,-30 72,-30 72,-10 52,-10"/>
<text text-anchor="start" x="75.63" y="-15.4" font-family="Times-12" font-size="14.00"> &#160;Declarations</text>
<polygon fill="#8dd3c7" stroke="transparent" points="165,-10 165,-30 185,-30 185,-10 165,-10"/>
<text text-anchor="start" x="188.73" y="-15.4" font-family="Times-12" font-size="14.00"> &#160;Module</text>
<polygon fill="#80b1d3" stroke="transparent" points="251,-10 251,-30 271,-30 271,-10 251,-10"/>
<text text-anchor="start" x="274.78" y="-15.4" font-family="Times-12" font-size="14.00"> &#160;Bootstrap</text>
<polygon fill="#fdb462" stroke="transparent" points="348,-10 348,-30 368,-30 368,-10 348,-10"/>
<text text-anchor="start" x="371.67" y="-15.4" font-family="Times-12" font-size="14.00"> &#160;Providers</text>
<polygon fill="#fb8072" stroke="transparent" points="444,-10 444,-30 464,-30 464,-10 444,-10"/>
<text text-anchor="start" x="467.73" y="-15.4" font-family="Times-12" font-size="14.00"> &#160;Exports</text>
<g id="clust1" class="cluster">
<title>cluster_BetsModule</title>
<polygon fill="none" stroke="black" stroke-dasharray="1,5" points="8,-70 8,-268 564,-268 564,-70 8,-70"/>
</g>
<g id="clust3" class="cluster">
<title>cluster_BetsModule_imports</title>
<polygon fill="none" stroke="black" points="314,-78 314,-130 556,-130 556,-78 314,-78"/>
</g>
<g id="clust4" class="cluster">
<title>cluster_BetsModule_exports</title>
<polygon fill="none" stroke="black" points="245,-208 245,-260 347,-260 347,-208 245,-208"/>
</g>
<g id="clust6" class="cluster">
<title>cluster_BetsModule_providers</title>
<polygon fill="none" stroke="black" points="16,-78 16,-130 306,-130 306,-78 16,-78"/>
</g>
<!-- GatewayBjModule -->
<g id="node1" class="node">
<title>GatewayBjModule</title>
<polygon fill="#8dd3c7" stroke="black" points="548.03,-122 545.03,-126 524.03,-126 521.03,-122 425.97,-122 425.97,-86 548.03,-86 548.03,-122"/>
<text text-anchor="middle" x="487" y="-99.8" font-family="Times,serif" font-size="14.00">GatewayBjModule</text>
</g>
<!-- BetsModule -->
<g id="node3" class="node">
<title>BetsModule</title>
<polygon fill="#8dd3c7" stroke="black" points="338.44,-187 335.44,-191 314.44,-191 311.44,-187 253.56,-187 253.56,-151 338.44,-151 338.44,-187"/>
<text text-anchor="middle" x="296" y="-164.8" font-family="Times,serif" font-size="14.00">BetsModule</text>
</g>
<!-- GatewayBjModule&#45;&gt;BetsModule -->
<g id="edge1" class="edge">
<title>GatewayBjModule&#45;&gt;BetsModule</title>
<path fill="none" stroke="black" d="M487,-122.11C487,-141.34 487,-169 487,-169 487,-169 348.39,-169 348.39,-169"/>
<polygon fill="black" stroke="black" points="348.39,-165.5 338.39,-169 348.39,-172.5 348.39,-165.5"/>
</g>
<!-- UserModule -->
<g id="node2" class="node">
<title>UserModule</title>
<polygon fill="#8dd3c7" stroke="black" points="407.98,-122 404.98,-126 383.98,-126 380.98,-122 322.02,-122 322.02,-86 407.98,-86 407.98,-122"/>
<text text-anchor="middle" x="365" y="-99.8" font-family="Times,serif" font-size="14.00">UserModule</text>
</g>
<!-- UserModule&#45;&gt;BetsModule -->
<g id="edge2" class="edge">
<title>UserModule&#45;&gt;BetsModule</title>
<path fill="none" stroke="black" d="M330.12,-122.11C330.12,-122.11 330.12,-140.99 330.12,-140.99"/>
<polygon fill="black" stroke="black" points="326.62,-140.99 330.12,-150.99 333.62,-140.99 326.62,-140.99"/>
</g>
<!-- BetsService  -->
<g id="node4" class="node">
<title>BetsService </title>
<polygon fill="#fb8072" stroke="black" points="339.36,-252 252.64,-252 252.64,-216 339.36,-216 339.36,-252"/>
<text text-anchor="middle" x="296" y="-229.8" font-family="Times,serif" font-size="14.00">BetsService </text>
</g>
<!-- BetsModule&#45;&gt;BetsService  -->
<g id="edge3" class="edge">
<title>BetsModule&#45;&gt;BetsService </title>
<path fill="none" stroke="black" stroke-dasharray="5,2" d="M296,-187.11C296,-187.11 296,-205.99 296,-205.99"/>
<polygon fill="black" stroke="black" points="292.5,-205.99 296,-215.99 299.5,-205.99 292.5,-205.99"/>
</g>
<!-- BetsRepository -->
<g id="node5" class="node">
<title>BetsRepository</title>
<ellipse fill="#fdb462" stroke="black" cx="227" cy="-104" rx="70.66" ry="18"/>
<text text-anchor="middle" x="227" y="-99.8" font-family="Times,serif" font-size="14.00">BetsRepository</text>
</g>
<!-- BetsRepository&#45;&gt;BetsModule -->
<g id="edge4" class="edge">
<title>BetsRepository&#45;&gt;BetsModule</title>
<path fill="none" stroke="black" d="M275.68,-117.15C275.68,-117.15 275.68,-140.69 275.68,-140.69"/>
<polygon fill="black" stroke="black" points="272.18,-140.69 275.68,-150.69 279.18,-140.69 272.18,-140.69"/>
</g>
<!-- BetsService -->
<g id="node6" class="node">
<title>BetsService</title>
<ellipse fill="#fdb462" stroke="black" cx="81" cy="-104" rx="57.32" ry="18"/>
<text text-anchor="middle" x="81" y="-99.8" font-family="Times,serif" font-size="14.00">BetsService</text>
</g>
<!-- BetsService&#45;&gt;BetsModule -->
<g id="edge5" class="edge">
<title>BetsService&#45;&gt;BetsModule</title>
<path fill="none" stroke="black" d="M81,-122.11C81,-141.34 81,-169 81,-169 81,-169 243.78,-169 243.78,-169"/>
<polygon fill="black" stroke="black" points="243.78,-172.5 253.78,-169 243.78,-165.5 243.78,-172.5"/>
</g>
</g>
</svg>
