<?xml version="1.0" encoding="UTF-8" standalone="no"?>
<!DOCTYPE svg PUBLIC "-//W3C//DTD SVG 1.1//EN"
 "http://www.w3.org/Graphics/SVG/1.1/DTD/svg11.dtd">
<!-- Generated by graphviz version 2.47.0 (20210316.0004)
 -->
<!-- Title: dependencies Pages: 1 -->
<svg width="504pt" height="284pt"
 viewBox="0.00 0.00 504.00 284.00" xmlns="http://www.w3.org/2000/svg" xmlns:xlink="http://www.w3.org/1999/xlink">
<g id="graph0" class="graph" transform="scale(1 1) rotate(0) translate(4 280)">
<title>dependencies</title>
<polygon fill="white" stroke="transparent" points="-4,4 -4,-280 500,-280 500,4 -4,4"/>
<text text-anchor="start" x="227.01" y="-42.4" font-family="Times-12" font-weight="bold" font-size="14.00">Legend</text>
<polygon fill="#ffffb3" stroke="transparent" points="14,-10 14,-30 34,-30 34,-10 14,-10"/>
<text text-anchor="start" x="37.63" y="-15.4" font-family="Times-12" font-size="14.00"> &#160;Declarations</text>
<polygon fill="#8dd3c7" stroke="transparent" points="127,-10 127,-30 147,-30 147,-10 127,-10"/>
<text text-anchor="start" x="150.73" y="-15.4" font-family="Times-12" font-size="14.00"> &#160;Module</text>
<polygon fill="#80b1d3" stroke="transparent" points="213,-10 213,-30 233,-30 233,-10 213,-10"/>
<text text-anchor="start" x="236.78" y="-15.4" font-family="Times-12" font-size="14.00"> &#160;Bootstrap</text>
<polygon fill="#fdb462" stroke="transparent" points="310,-10 310,-30 330,-30 330,-10 310,-10"/>
<text text-anchor="start" x="333.67" y="-15.4" font-family="Times-12" font-size="14.00"> &#160;Providers</text>
<polygon fill="#fb8072" stroke="transparent" points="406,-10 406,-30 426,-30 426,-10 406,-10"/>
<text text-anchor="start" x="429.73" y="-15.4" font-family="Times-12" font-size="14.00"> &#160;Exports</text>
<g id="clust1" class="cluster">
<title>cluster_WalletModule</title>
<polygon fill="none" stroke="black" stroke-dasharray="1,5" points="78,-70 78,-268 418,-268 418,-70 78,-70"/>
</g>
<g id="clust6" class="cluster">
<title>cluster_WalletModule_providers</title>
<polygon fill="none" stroke="black" points="86,-78 86,-130 410,-130 410,-78 86,-78"/>
</g>
<g id="clust4" class="cluster">
<title>cluster_WalletModule_exports</title>
<polygon fill="none" stroke="black" points="184,-208 184,-260 298,-260 298,-208 184,-208"/>
</g>
<!-- WalletService  -->
<g id="node1" class="node">
<title>WalletService </title>
<polygon fill="#fb8072" stroke="black" points="290.29,-252 191.71,-252 191.71,-216 290.29,-216 290.29,-252"/>
<text text-anchor="middle" x="241" y="-229.8" font-family="Times,serif" font-size="14.00">WalletService </text>
</g>
<!-- WalletModule -->
<g id="node2" class="node">
<title>WalletModule</title>
<polygon fill="#8dd3c7" stroke="black" points="289.37,-187 286.37,-191 265.37,-191 262.37,-187 192.63,-187 192.63,-151 289.37,-151 289.37,-187"/>
<text text-anchor="middle" x="241" y="-164.8" font-family="Times,serif" font-size="14.00">WalletModule</text>
</g>
<!-- WalletModule&#45;&gt;WalletService  -->
<g id="edge1" class="edge">
<title>WalletModule&#45;&gt;WalletService </title>
<path fill="none" stroke="black" stroke-dasharray="5,2" d="M241,-187.11C241,-187.11 241,-205.99 241,-205.99"/>
<polygon fill="black" stroke="black" points="237.5,-205.99 241,-215.99 244.5,-205.99 237.5,-205.99"/>
</g>
<!-- WalletRepository -->
<g id="node3" class="node">
<title>WalletRepository</title>
<ellipse fill="#fdb462" stroke="black" cx="323" cy="-104" rx="79.31" ry="18"/>
<text text-anchor="middle" x="323" y="-99.8" font-family="Times,serif" font-size="14.00">WalletRepository</text>
</g>
<!-- WalletRepository&#45;&gt;WalletModule -->
<g id="edge2" class="edge">
<title>WalletRepository&#45;&gt;WalletModule</title>
<path fill="none" stroke="black" d="M266.64,-116.84C266.64,-116.84 266.64,-140.52 266.64,-140.52"/>
<polygon fill="black" stroke="black" points="263.14,-140.52 266.64,-150.52 270.14,-140.52 263.14,-140.52"/>
</g>
<!-- WalletService -->
<g id="node4" class="node">
<title>WalletService</title>
<ellipse fill="#fdb462" stroke="black" cx="160" cy="-104" rx="65.96" ry="18"/>
<text text-anchor="middle" x="160" y="-99.8" font-family="Times,serif" font-size="14.00">WalletService</text>
</g>
<!-- WalletService&#45;&gt;WalletModule -->
<g id="edge3" class="edge">
<title>WalletService&#45;&gt;WalletModule</title>
<path fill="none" stroke="black" d="M209.15,-116.23C209.15,-116.23 209.15,-140.68 209.15,-140.68"/>
<polygon fill="black" stroke="black" points="205.65,-140.68 209.15,-150.68 212.65,-140.68 205.65,-140.68"/>
</g>
</g>
</svg>
