<?xml version="1.0" encoding="UTF-8" standalone="no"?>
<!DOCTYPE svg PUBLIC "-//W3C//DTD SVG 1.1//EN"
 "http://www.w3.org/Graphics/SVG/1.1/DTD/svg11.dtd">
<!-- Generated by graphviz version 2.47.0 (20210316.0004)
 -->
<!-- Title: dependencies Pages: 1 -->
<svg width="525pt" height="284pt"
 viewBox="0.00 0.00 525.00 284.00" xmlns="http://www.w3.org/2000/svg" xmlns:xlink="http://www.w3.org/1999/xlink">
<g id="graph0" class="graph" transform="scale(1 1) rotate(0) translate(4 280)">
<title>dependencies</title>
<polygon fill="white" stroke="transparent" points="-4,4 -4,-280 521,-280 521,4 -4,4"/>
<text text-anchor="start" x="237.51" y="-42.4" font-family="Times-12" font-weight="bold" font-size="14.00">Legend</text>
<polygon fill="#ffffb3" stroke="transparent" points="24.5,-10 24.5,-30 44.5,-30 44.5,-10 24.5,-10"/>
<text text-anchor="start" x="48.13" y="-15.4" font-family="Times-12" font-size="14.00"> &#160;Declarations</text>
<polygon fill="#8dd3c7" stroke="transparent" points="137.5,-10 137.5,-30 157.5,-30 157.5,-10 137.5,-10"/>
<text text-anchor="start" x="161.23" y="-15.4" font-family="Times-12" font-size="14.00"> &#160;Module</text>
<polygon fill="#80b1d3" stroke="transparent" points="223.5,-10 223.5,-30 243.5,-30 243.5,-10 223.5,-10"/>
<text text-anchor="start" x="247.28" y="-15.4" font-family="Times-12" font-size="14.00"> &#160;Bootstrap</text>
<polygon fill="#fdb462" stroke="transparent" points="320.5,-10 320.5,-30 340.5,-30 340.5,-10 320.5,-10"/>
<text text-anchor="start" x="344.17" y="-15.4" font-family="Times-12" font-size="14.00"> &#160;Providers</text>
<polygon fill="#fb8072" stroke="transparent" points="416.5,-10 416.5,-30 436.5,-30 436.5,-10 416.5,-10"/>
<text text-anchor="start" x="440.23" y="-15.4" font-family="Times-12" font-size="14.00"> &#160;Exports</text>
<g id="clust1" class="cluster">
<title>cluster_DoubleLoyaltyModule</title>
<polygon fill="none" stroke="black" stroke-dasharray="1,5" points="8,-70 8,-268 509,-268 509,-70 8,-70"/>
</g>
<g id="clust3" class="cluster">
<title>cluster_DoubleLoyaltyModule_imports</title>
<polygon fill="none" stroke="black" points="236,-78 236,-130 501,-130 501,-78 236,-78"/>
</g>
<g id="clust4" class="cluster">
<title>cluster_DoubleLoyaltyModule_exports</title>
<polygon fill="none" stroke="black" points="229,-208 229,-260 391,-260 391,-208 229,-208"/>
</g>
<g id="clust6" class="cluster">
<title>cluster_DoubleLoyaltyModule_providers</title>
<polygon fill="none" stroke="black" points="16,-78 16,-130 228,-130 228,-78 16,-78"/>
</g>
<!-- GamesModule -->
<g id="node1" class="node">
<title>GamesModule</title>
<polygon fill="#8dd3c7" stroke="black" points="493.42,-122 490.42,-126 469.42,-126 466.42,-122 394.58,-122 394.58,-86 493.42,-86 493.42,-122"/>
<text text-anchor="middle" x="444" y="-99.8" font-family="Times,serif" font-size="14.00">GamesModule</text>
</g>
<!-- DoubleLoyaltyModule -->
<g id="node3" class="node">
<title>DoubleLoyaltyModule</title>
<polygon fill="#8dd3c7" stroke="black" points="382.31,-187 379.31,-191 358.31,-191 355.31,-187 237.69,-187 237.69,-151 382.31,-151 382.31,-187"/>
<text text-anchor="middle" x="310" y="-164.8" font-family="Times,serif" font-size="14.00">DoubleLoyaltyModule</text>
</g>
<!-- GamesModule&#45;&gt;DoubleLoyaltyModule -->
<g id="edge1" class="edge">
<title>GamesModule&#45;&gt;DoubleLoyaltyModule</title>
<path fill="none" stroke="black" d="M444,-122.11C444,-141.34 444,-169 444,-169 444,-169 392.49,-169 392.49,-169"/>
<polygon fill="black" stroke="black" points="392.49,-165.5 382.49,-169 392.49,-172.5 392.49,-165.5"/>
</g>
<!-- ProvablyFairModule -->
<g id="node2" class="node">
<title>ProvablyFairModule</title>
<polygon fill="#8dd3c7" stroke="black" points="376.15,-122 373.15,-126 352.15,-126 349.15,-122 243.85,-122 243.85,-86 376.15,-86 376.15,-122"/>
<text text-anchor="middle" x="310" y="-99.8" font-family="Times,serif" font-size="14.00">ProvablyFairModule</text>
</g>
<!-- ProvablyFairModule&#45;&gt;DoubleLoyaltyModule -->
<g id="edge2" class="edge">
<title>ProvablyFairModule&#45;&gt;DoubleLoyaltyModule</title>
<path fill="none" stroke="black" d="M310,-122.11C310,-122.11 310,-140.99 310,-140.99"/>
<polygon fill="black" stroke="black" points="306.5,-140.99 310,-150.99 313.5,-140.99 306.5,-140.99"/>
</g>
<!-- DoubleLoyaltyService  -->
<g id="node4" class="node">
<title>DoubleLoyaltyService </title>
<polygon fill="#fb8072" stroke="black" points="383.24,-252 236.76,-252 236.76,-216 383.24,-216 383.24,-252"/>
<text text-anchor="middle" x="310" y="-229.8" font-family="Times,serif" font-size="14.00">DoubleLoyaltyService </text>
</g>
<!-- DoubleLoyaltyModule&#45;&gt;DoubleLoyaltyService  -->
<g id="edge3" class="edge">
<title>DoubleLoyaltyModule&#45;&gt;DoubleLoyaltyService </title>
<path fill="none" stroke="black" stroke-dasharray="5,2" d="M310,-187.11C310,-187.11 310,-205.99 310,-205.99"/>
<polygon fill="black" stroke="black" points="306.5,-205.99 310,-215.99 313.5,-205.99 306.5,-205.99"/>
</g>
<!-- DoubleLoyaltyService -->
<g id="node5" class="node">
<title>DoubleLoyaltyService</title>
<ellipse fill="#fdb462" stroke="black" cx="122" cy="-104" rx="98.42" ry="18"/>
<text text-anchor="middle" x="122" y="-99.8" font-family="Times,serif" font-size="14.00">DoubleLoyaltyService</text>
</g>
<!-- DoubleLoyaltyService&#45;&gt;DoubleLoyaltyModule -->
<g id="edge4" class="edge">
<title>DoubleLoyaltyService&#45;&gt;DoubleLoyaltyModule</title>
<path fill="none" stroke="black" d="M122,-122.11C122,-141.34 122,-169 122,-169 122,-169 227.58,-169 227.58,-169"/>
<polygon fill="black" stroke="black" points="227.58,-172.5 237.58,-169 227.58,-165.5 227.58,-172.5"/>
</g>
</g>
</svg>
