<?xml version="1.0" encoding="UTF-8" standalone="no"?>
<!DOCTYPE svg PUBLIC "-//W3C//DTD SVG 1.1//EN"
 "http://www.w3.org/Graphics/SVG/1.1/DTD/svg11.dtd">
<!-- Generated by graphviz version 2.47.0 (20210316.0004)
 -->
<!-- Title: dependencies Pages: 1 -->
<svg width="1164pt" height="284pt"
 viewBox="0.00 0.00 1164.00 284.00" xmlns="http://www.w3.org/2000/svg" xmlns:xlink="http://www.w3.org/1999/xlink">
<g id="graph0" class="graph" transform="scale(1 1) rotate(0) translate(4 280)">
<title>dependencies</title>
<polygon fill="white" stroke="transparent" points="-4,4 -4,-280 1160,-280 1160,4 -4,4"/>
<text text-anchor="start" x="557.01" y="-42.4" font-family="Times-12" font-weight="bold" font-size="14.00">Legend</text>
<polygon fill="#ffffb3" stroke="transparent" points="344,-10 344,-30 364,-30 364,-10 344,-10"/>
<text text-anchor="start" x="367.63" y="-15.4" font-family="Times-12" font-size="14.00"> &#160;Declarations</text>
<polygon fill="#8dd3c7" stroke="transparent" points="457,-10 457,-30 477,-30 477,-10 457,-10"/>
<text text-anchor="start" x="480.73" y="-15.4" font-family="Times-12" font-size="14.00"> &#160;Module</text>
<polygon fill="#80b1d3" stroke="transparent" points="543,-10 543,-30 563,-30 563,-10 543,-10"/>
<text text-anchor="start" x="566.78" y="-15.4" font-family="Times-12" font-size="14.00"> &#160;Bootstrap</text>
<polygon fill="#fdb462" stroke="transparent" points="640,-10 640,-30 660,-30 660,-10 640,-10"/>
<text text-anchor="start" x="663.67" y="-15.4" font-family="Times-12" font-size="14.00"> &#160;Providers</text>
<polygon fill="#fb8072" stroke="transparent" points="736,-10 736,-30 756,-30 756,-10 736,-10"/>
<text text-anchor="start" x="759.73" y="-15.4" font-family="Times-12" font-size="14.00"> &#160;Exports</text>
<g id="clust1" class="cluster">
<title>cluster_ExternalNotificationSenderModule</title>
<polygon fill="none" stroke="black" stroke-dasharray="1,5" points="8,-70 8,-268 1148,-268 1148,-70 8,-70"/>
</g>
<g id="clust6" class="cluster">
<title>cluster_ExternalNotificationSenderModule_providers</title>
<polygon fill="none" stroke="black" points="304,-78 304,-130 1140,-130 1140,-78 304,-78"/>
</g>
<g id="clust3" class="cluster">
<title>cluster_ExternalNotificationSenderModule_imports</title>
<polygon fill="none" stroke="black" points="16,-78 16,-130 296,-130 296,-78 16,-78"/>
</g>
<g id="clust4" class="cluster">
<title>cluster_ExternalNotificationSenderModule_exports</title>
<polygon fill="none" stroke="black" points="434,-208 434,-260 584,-260 584,-208 434,-208"/>
</g>
<!-- EnvConfigModule -->
<g id="node1" class="node">
<title>EnvConfigModule</title>
<polygon fill="#8dd3c7" stroke="black" points="288.49,-122 285.49,-126 264.49,-126 261.49,-122 167.51,-122 167.51,-86 288.49,-86 288.49,-122"/>
<text text-anchor="middle" x="228" y="-99.8" font-family="Times,serif" font-size="14.00">EnvConfigModule</text>
</g>
<!-- ExternalNotificationSenderModule -->
<g id="node3" class="node">
<title>ExternalNotificationSenderModule</title>
<polygon fill="#8dd3c7" stroke="black" points="616,-187 613,-191 592,-191 589,-187 402,-187 402,-151 616,-151 616,-187"/>
<text text-anchor="middle" x="509" y="-164.8" font-family="Times,serif" font-size="14.00">ExternalNotificationSenderModule</text>
</g>
<!-- EnvConfigModule&#45;&gt;ExternalNotificationSenderModule -->
<g id="edge1" class="edge">
<title>EnvConfigModule&#45;&gt;ExternalNotificationSenderModule</title>
<path fill="none" stroke="black" d="M228,-122.02C228,-139.37 228,-163 228,-163 228,-163 391.96,-163 391.96,-163"/>
<polygon fill="black" stroke="black" points="391.96,-166.5 401.96,-163 391.96,-159.5 391.96,-166.5"/>
</g>
<!-- MailEngineModule -->
<g id="node2" class="node">
<title>MailEngineModule</title>
<polygon fill="#8dd3c7" stroke="black" points="149.65,-122 146.65,-126 125.65,-126 122.65,-122 24.35,-122 24.35,-86 149.65,-86 149.65,-122"/>
<text text-anchor="middle" x="87" y="-99.8" font-family="Times,serif" font-size="14.00">MailEngineModule</text>
</g>
<!-- MailEngineModule&#45;&gt;ExternalNotificationSenderModule -->
<g id="edge2" class="edge">
<title>MailEngineModule&#45;&gt;ExternalNotificationSenderModule</title>
<path fill="none" stroke="black" d="M87,-122.28C87,-143.32 87,-175 87,-175 87,-175 392.24,-175 392.24,-175"/>
<polygon fill="black" stroke="black" points="392.24,-178.5 402.24,-175 392.24,-171.5 392.24,-178.5"/>
</g>
<!-- EmailSenderService  -->
<g id="node4" class="node">
<title>EmailSenderService </title>
<polygon fill="#fb8072" stroke="black" points="575.79,-252 442.21,-252 442.21,-216 575.79,-216 575.79,-252"/>
<text text-anchor="middle" x="509" y="-229.8" font-family="Times,serif" font-size="14.00">EmailSenderService </text>
</g>
<!-- ExternalNotificationSenderModule&#45;&gt;EmailSenderService  -->
<g id="edge3" class="edge">
<title>ExternalNotificationSenderModule&#45;&gt;EmailSenderService </title>
<path fill="none" stroke="black" stroke-dasharray="5,2" d="M509,-187.11C509,-187.11 509,-205.99 509,-205.99"/>
<polygon fill="black" stroke="black" points="505.5,-205.99 509,-215.99 512.5,-205.99 505.5,-205.99"/>
</g>
<!-- BalanceEmailService -->
<g id="node5" class="node">
<title>BalanceEmailService</title>
<ellipse fill="#fdb462" stroke="black" cx="1038" cy="-104" rx="94.31" ry="18"/>
<text text-anchor="middle" x="1038" y="-99.8" font-family="Times,serif" font-size="14.00">BalanceEmailService</text>
</g>
<!-- BalanceEmailService&#45;&gt;ExternalNotificationSenderModule -->
<g id="edge4" class="edge">
<title>BalanceEmailService&#45;&gt;ExternalNotificationSenderModule</title>
<path fill="none" stroke="black" d="M1038,-122.28C1038,-143.32 1038,-175 1038,-175 1038,-175 626.05,-175 626.05,-175"/>
<polygon fill="black" stroke="black" points="626.05,-171.5 616.05,-175 626.05,-178.5 626.05,-171.5"/>
</g>
<!-- EmailSenderService -->
<g id="node6" class="node">
<title>EmailSenderService</title>
<ellipse fill="#fdb462" stroke="black" cx="836" cy="-104" rx="89.74" ry="18"/>
<text text-anchor="middle" x="836" y="-99.8" font-family="Times,serif" font-size="14.00">EmailSenderService</text>
</g>
<!-- EmailSenderService&#45;&gt;ExternalNotificationSenderModule -->
<g id="edge5" class="edge">
<title>EmailSenderService&#45;&gt;ExternalNotificationSenderModule</title>
<path fill="none" stroke="black" d="M836,-122.02C836,-139.37 836,-163 836,-163 836,-163 626.07,-163 626.07,-163"/>
<polygon fill="black" stroke="black" points="626.07,-159.5 616.07,-163 626.07,-166.5 626.07,-159.5"/>
</g>
<!-- NotificationEmailService -->
<g id="node7" class="node">
<title>NotificationEmailService</title>
<ellipse fill="#fdb462" stroke="black" cx="618" cy="-104" rx="109.94" ry="18"/>
<text text-anchor="middle" x="618" y="-99.8" font-family="Times,serif" font-size="14.00">NotificationEmailService</text>
</g>
<!-- NotificationEmailService&#45;&gt;ExternalNotificationSenderModule -->
<g id="edge6" class="edge">
<title>NotificationEmailService&#45;&gt;ExternalNotificationSenderModule</title>
<path fill="none" stroke="black" d="M562.01,-119.73C562.01,-119.73 562.01,-140.65 562.01,-140.65"/>
<polygon fill="black" stroke="black" points="558.51,-140.65 562.01,-150.65 565.51,-140.65 558.51,-140.65"/>
</g>
<!-- ProfileEmailService -->
<g id="node8" class="node">
<title>ProfileEmailService</title>
<ellipse fill="#fdb462" stroke="black" cx="401" cy="-104" rx="89.18" ry="18"/>
<text text-anchor="middle" x="401" y="-99.8" font-family="Times,serif" font-size="14.00">ProfileEmailService</text>
</g>
<!-- ProfileEmailService&#45;&gt;ExternalNotificationSenderModule -->
<g id="edge7" class="edge">
<title>ProfileEmailService&#45;&gt;ExternalNotificationSenderModule</title>
<path fill="none" stroke="black" d="M446.3,-119.73C446.3,-119.73 446.3,-140.65 446.3,-140.65"/>
<polygon fill="black" stroke="black" points="442.8,-140.65 446.3,-150.65 449.8,-140.65 442.8,-140.65"/>
</g>
</g>
</svg>
