<?xml version="1.0" encoding="UTF-8" standalone="no"?>
<!DOCTYPE svg PUBLIC "-//W3C//DTD SVG 1.1//EN"
 "http://www.w3.org/Graphics/SVG/1.1/DTD/svg11.dtd">
<!-- Generated by graphviz version 2.47.0 (20210316.0004)
 -->
<!-- Title: dependencies Pages: 1 -->
<svg width="504pt" height="284pt"
 viewBox="0.00 0.00 504.00 284.00" xmlns="http://www.w3.org/2000/svg" xmlns:xlink="http://www.w3.org/1999/xlink">
<g id="graph0" class="graph" transform="scale(1 1) rotate(0) translate(4 280)">
<title>dependencies</title>
<polygon fill="white" stroke="transparent" points="-4,4 -4,-280 500,-280 500,4 -4,4"/>
<text text-anchor="start" x="227.01" y="-42.4" font-family="Times-12" font-weight="bold" font-size="14.00">Legend</text>
<polygon fill="#ffffb3" stroke="transparent" points="14,-10 14,-30 34,-30 34,-10 14,-10"/>
<text text-anchor="start" x="37.63" y="-15.4" font-family="Times-12" font-size="14.00"> &#160;Declarations</text>
<polygon fill="#8dd3c7" stroke="transparent" points="127,-10 127,-30 147,-30 147,-10 127,-10"/>
<text text-anchor="start" x="150.73" y="-15.4" font-family="Times-12" font-size="14.00"> &#160;Module</text>
<polygon fill="#80b1d3" stroke="transparent" points="213,-10 213,-30 233,-30 233,-10 213,-10"/>
<text text-anchor="start" x="236.78" y="-15.4" font-family="Times-12" font-size="14.00"> &#160;Bootstrap</text>
<polygon fill="#fdb462" stroke="transparent" points="310,-10 310,-30 330,-30 330,-10 310,-10"/>
<text text-anchor="start" x="333.67" y="-15.4" font-family="Times-12" font-size="14.00"> &#160;Providers</text>
<polygon fill="#fb8072" stroke="transparent" points="406,-10 406,-30 426,-30 426,-10 406,-10"/>
<text text-anchor="start" x="429.73" y="-15.4" font-family="Times-12" font-size="14.00"> &#160;Exports</text>
<g id="clust1" class="cluster">
<title>cluster_Pm8ApiModule</title>
<polygon fill="none" stroke="black" stroke-dasharray="1,5" points="40,-70 40,-268 456,-268 456,-70 40,-70"/>
</g>
<g id="clust4" class="cluster">
<title>cluster_Pm8ApiModule_exports</title>
<polygon fill="none" stroke="black" points="166,-208 166,-260 362,-260 362,-208 166,-208"/>
</g>
<g id="clust6" class="cluster">
<title>cluster_Pm8ApiModule_providers</title>
<polygon fill="none" stroke="black" points="48,-78 48,-130 448,-130 448,-78 48,-78"/>
</g>
<!-- Pm8DataApiHydrateService  -->
<g id="node1" class="node">
<title>Pm8DataApiHydrateService </title>
<polygon fill="#fb8072" stroke="black" points="353.66,-252 174.34,-252 174.34,-216 353.66,-216 353.66,-252"/>
<text text-anchor="middle" x="264" y="-229.8" font-family="Times,serif" font-size="14.00">Pm8DataApiHydrateService </text>
</g>
<!-- Pm8ApiModule -->
<g id="node2" class="node">
<title>Pm8ApiModule</title>
<polygon fill="#8dd3c7" stroke="black" points="317.22,-187 314.22,-191 293.22,-191 290.22,-187 210.78,-187 210.78,-151 317.22,-151 317.22,-187"/>
<text text-anchor="middle" x="264" y="-164.8" font-family="Times,serif" font-size="14.00">Pm8ApiModule</text>
</g>
<!-- Pm8ApiModule&#45;&gt;Pm8DataApiHydrateService  -->
<g id="edge1" class="edge">
<title>Pm8ApiModule&#45;&gt;Pm8DataApiHydrateService </title>
<path fill="none" stroke="black" stroke-dasharray="5,2" d="M264,-187.11C264,-187.11 264,-205.99 264,-205.99"/>
<polygon fill="black" stroke="black" points="260.5,-205.99 264,-215.99 267.5,-205.99 260.5,-205.99"/>
</g>
<!-- Pm8DataApi -->
<g id="node3" class="node">
<title>Pm8DataApi</title>
<ellipse fill="#fdb462" stroke="black" cx="379" cy="-104" rx="61.41" ry="18"/>
<text text-anchor="middle" x="379" y="-99.8" font-family="Times,serif" font-size="14.00">Pm8DataApi</text>
</g>
<!-- Pm8DataApi&#45;&gt;Pm8ApiModule -->
<g id="edge2" class="edge">
<title>Pm8DataApi&#45;&gt;Pm8ApiModule</title>
<path fill="none" stroke="black" d="M317.26,-104C311.82,-104 308.31,-104 308.31,-104 308.31,-104 308.31,-140.89 308.31,-140.89"/>
<polygon fill="black" stroke="black" points="304.81,-140.89 308.31,-150.89 311.81,-140.89 304.81,-140.89"/>
</g>
<!-- Pm8DataApiHydrateService -->
<g id="node4" class="node">
<title>Pm8DataApiHydrateService</title>
<ellipse fill="#fdb462" stroke="black" cx="178" cy="-104" rx="121.53" ry="18"/>
<text text-anchor="middle" x="178" y="-99.8" font-family="Times,serif" font-size="14.00">Pm8DataApiHydrateService</text>
</g>
<!-- Pm8DataApiHydrateService&#45;&gt;Pm8ApiModule -->
<g id="edge3" class="edge">
<title>Pm8DataApiHydrateService&#45;&gt;Pm8ApiModule</title>
<path fill="none" stroke="black" d="M255.2,-118.1C255.2,-118.1 255.2,-140.72 255.2,-140.72"/>
<polygon fill="black" stroke="black" points="251.7,-140.72 255.2,-150.72 258.7,-140.72 251.7,-140.72"/>
</g>
</g>
</svg>
