<?xml version="1.0" encoding="UTF-8" standalone="no"?>
<!DOCTYPE svg PUBLIC "-//W3C//DTD SVG 1.1//EN"
 "http://www.w3.org/Graphics/SVG/1.1/DTD/svg11.dtd">
<!-- Generated by graphviz version 2.47.0 (20210316.0004)
 -->
<!-- Title: dependencies Pages: 1 -->
<svg width="504pt" height="284pt"
 viewBox="0.00 0.00 504.00 284.00" xmlns="http://www.w3.org/2000/svg" xmlns:xlink="http://www.w3.org/1999/xlink">
<g id="graph0" class="graph" transform="scale(1 1) rotate(0) translate(4 280)">
<title>dependencies</title>
<polygon fill="white" stroke="transparent" points="-4,4 -4,-280 500,-280 500,4 -4,4"/>
<text text-anchor="start" x="227.01" y="-42.4" font-family="Times-12" font-weight="bold" font-size="14.00">Legend</text>
<polygon fill="#ffffb3" stroke="transparent" points="14,-10 14,-30 34,-30 34,-10 14,-10"/>
<text text-anchor="start" x="37.63" y="-15.4" font-family="Times-12" font-size="14.00"> &#160;Declarations</text>
<polygon fill="#8dd3c7" stroke="transparent" points="127,-10 127,-30 147,-30 147,-10 127,-10"/>
<text text-anchor="start" x="150.73" y="-15.4" font-family="Times-12" font-size="14.00"> &#160;Module</text>
<polygon fill="#80b1d3" stroke="transparent" points="213,-10 213,-30 233,-30 233,-10 213,-10"/>
<text text-anchor="start" x="236.78" y="-15.4" font-family="Times-12" font-size="14.00"> &#160;Bootstrap</text>
<polygon fill="#fdb462" stroke="transparent" points="310,-10 310,-30 330,-30 330,-10 310,-10"/>
<text text-anchor="start" x="333.67" y="-15.4" font-family="Times-12" font-size="14.00"> &#160;Providers</text>
<polygon fill="#fb8072" stroke="transparent" points="406,-10 406,-30 426,-30 426,-10 406,-10"/>
<text text-anchor="start" x="429.73" y="-15.4" font-family="Times-12" font-size="14.00"> &#160;Exports</text>
<g id="clust1" class="cluster">
<title>cluster_SystemModule</title>
<polygon fill="none" stroke="black" stroke-dasharray="1,5" points="89,-70 89,-268 407,-268 407,-70 89,-70"/>
</g>
<g id="clust3" class="cluster">
<title>cluster_SystemModule_imports</title>
<polygon fill="none" stroke="black" points="97,-78 97,-130 399,-130 399,-78 97,-78"/>
</g>
<g id="clust4" class="cluster">
<title>cluster_SystemModule_exports</title>
<polygon fill="none" stroke="black" points="165,-208 165,-260 331,-260 331,-208 165,-208"/>
</g>
<!-- ApiLoggerModule -->
<g id="node1" class="node">
<title>ApiLoggerModule</title>
<polygon fill="#8dd3c7" stroke="black" points="391.47,-122 388.47,-126 367.47,-126 364.47,-122 270.53,-122 270.53,-86 391.47,-86 391.47,-122"/>
<text text-anchor="middle" x="331" y="-99.8" font-family="Times,serif" font-size="14.00">ApiLoggerModule</text>
</g>
<!-- SystemModule -->
<g id="node3" class="node">
<title>SystemModule</title>
<polygon fill="#8dd3c7" stroke="black" points="298.27,-187 295.27,-191 274.27,-191 271.27,-187 197.73,-187 197.73,-151 298.27,-151 298.27,-187"/>
<text text-anchor="middle" x="248" y="-164.8" font-family="Times,serif" font-size="14.00">SystemModule</text>
</g>
<!-- ApiLoggerModule&#45;&gt;SystemModule -->
<g id="edge1" class="edge">
<title>ApiLoggerModule&#45;&gt;SystemModule</title>
<path fill="none" stroke="black" d="M284.45,-122.11C284.45,-122.11 284.45,-140.99 284.45,-140.99"/>
<polygon fill="black" stroke="black" points="280.95,-140.99 284.45,-150.99 287.95,-140.99 280.95,-140.99"/>
</g>
<!-- FeatureFlagApiModule -->
<g id="node2" class="node">
<title>FeatureFlagApiModule</title>
<polygon fill="#8dd3c7" stroke="black" points="252.91,-122 249.91,-126 228.91,-126 225.91,-122 105.09,-122 105.09,-86 252.91,-86 252.91,-122"/>
<text text-anchor="middle" x="179" y="-99.8" font-family="Times,serif" font-size="14.00">FeatureFlagApiModule</text>
</g>
<!-- FeatureFlagApiModule&#45;&gt;SystemModule -->
<g id="edge2" class="edge">
<title>FeatureFlagApiModule&#45;&gt;SystemModule</title>
<path fill="none" stroke="black" d="M225.16,-122.11C225.16,-122.11 225.16,-140.99 225.16,-140.99"/>
<polygon fill="black" stroke="black" points="221.66,-140.99 225.16,-150.99 228.66,-140.99 221.66,-140.99"/>
</g>
<!-- FeatureFlagApiModule  -->
<g id="node4" class="node">
<title>FeatureFlagApiModule </title>
<polygon fill="#fb8072" stroke="black" points="323.41,-252 172.59,-252 172.59,-216 323.41,-216 323.41,-252"/>
<text text-anchor="middle" x="248" y="-229.8" font-family="Times,serif" font-size="14.00">FeatureFlagApiModule </text>
</g>
<!-- SystemModule&#45;&gt;FeatureFlagApiModule  -->
<g id="edge3" class="edge">
<title>SystemModule&#45;&gt;FeatureFlagApiModule </title>
<path fill="none" stroke="black" stroke-dasharray="5,2" d="M248,-187.11C248,-187.11 248,-205.99 248,-205.99"/>
<polygon fill="black" stroke="black" points="244.5,-205.99 248,-215.99 251.5,-205.99 244.5,-205.99"/>
</g>
</g>
</svg>
