<?xml version="1.0" encoding="UTF-8" standalone="no"?>
<!DOCTYPE svg PUBLIC "-//W3C//DTD SVG 1.1//EN"
 "http://www.w3.org/Graphics/SVG/1.1/DTD/svg11.dtd">
<!-- Generated by graphviz version 2.47.0 (20210316.0004)
 -->
<!-- Title: dependencies Pages: 1 -->
<svg width="2438pt" height="284pt"
 viewBox="0.00 0.00 2438.00 284.00" xmlns="http://www.w3.org/2000/svg" xmlns:xlink="http://www.w3.org/1999/xlink">
<g id="graph0" class="graph" transform="scale(1 1) rotate(0) translate(4 280)">
<title>dependencies</title>
<polygon fill="white" stroke="transparent" points="-4,4 -4,-280 2434,-280 2434,4 -4,4"/>
<text text-anchor="start" x="1194.01" y="-42.4" font-family="Times-12" font-weight="bold" font-size="14.00">Legend</text>
<polygon fill="#ffffb3" stroke="transparent" points="981,-10 981,-30 1001,-30 1001,-10 981,-10"/>
<text text-anchor="start" x="1004.63" y="-15.4" font-family="Times-12" font-size="14.00"> &#160;Declarations</text>
<polygon fill="#8dd3c7" stroke="transparent" points="1094,-10 1094,-30 1114,-30 1114,-10 1094,-10"/>
<text text-anchor="start" x="1117.73" y="-15.4" font-family="Times-12" font-size="14.00"> &#160;Module</text>
<polygon fill="#80b1d3" stroke="transparent" points="1180,-10 1180,-30 1200,-30 1200,-10 1180,-10"/>
<text text-anchor="start" x="1203.78" y="-15.4" font-family="Times-12" font-size="14.00"> &#160;Bootstrap</text>
<polygon fill="#fdb462" stroke="transparent" points="1277,-10 1277,-30 1297,-30 1297,-10 1277,-10"/>
<text text-anchor="start" x="1300.67" y="-15.4" font-family="Times-12" font-size="14.00"> &#160;Providers</text>
<polygon fill="#fb8072" stroke="transparent" points="1373,-10 1373,-30 1393,-30 1393,-10 1373,-10"/>
<text text-anchor="start" x="1396.73" y="-15.4" font-family="Times-12" font-size="14.00"> &#160;Exports</text>
<g id="clust1" class="cluster">
<title>cluster_WithdrawalStrategyModule</title>
<polygon fill="none" stroke="black" stroke-dasharray="1,5" points="8,-70 8,-268 2422,-268 2422,-70 8,-70"/>
</g>
<g id="clust6" class="cluster">
<title>cluster_WithdrawalStrategyModule_providers</title>
<polygon fill="none" stroke="black" points="383,-78 383,-130 2414,-130 2414,-78 383,-78"/>
</g>
<g id="clust3" class="cluster">
<title>cluster_WithdrawalStrategyModule_imports</title>
<polygon fill="none" stroke="black" points="16,-78 16,-130 375,-130 375,-78 16,-78"/>
</g>
<g id="clust4" class="cluster">
<title>cluster_WithdrawalStrategyModule_exports</title>
<polygon fill="none" stroke="black" points="780,-208 780,-260 928,-260 928,-208 780,-208"/>
</g>
<!-- BetModule -->
<g id="node1" class="node">
<title>BetModule</title>
<polygon fill="#8dd3c7" stroke="black" points="367.49,-122 364.49,-126 343.49,-126 340.49,-122 288.51,-122 288.51,-86 367.49,-86 367.49,-122"/>
<text text-anchor="middle" x="328" y="-99.8" font-family="Times,serif" font-size="14.00">BetModule</text>
</g>
<!-- WithdrawalStrategyModule -->
<g id="node4" class="node">
<title>WithdrawalStrategyModule</title>
<polygon fill="#8dd3c7" stroke="black" points="940.29,-187 937.29,-191 916.29,-191 913.29,-187 767.71,-187 767.71,-151 940.29,-151 940.29,-187"/>
<text text-anchor="middle" x="854" y="-164.8" font-family="Times,serif" font-size="14.00">WithdrawalStrategyModule</text>
</g>
<!-- BetModule&#45;&gt;WithdrawalStrategyModule -->
<g id="edge1" class="edge">
<title>BetModule&#45;&gt;WithdrawalStrategyModule</title>
<path fill="none" stroke="black" d="M328,-122.27C328,-140.56 328,-166 328,-166 328,-166 757.73,-166 757.73,-166"/>
<polygon fill="black" stroke="black" points="757.73,-169.5 767.73,-166 757.73,-162.5 757.73,-169.5"/>
</g>
<!-- GamesModule -->
<g id="node2" class="node">
<title>GamesModule</title>
<polygon fill="#8dd3c7" stroke="black" points="270.42,-122 267.42,-126 246.42,-126 243.42,-122 171.58,-122 171.58,-86 270.42,-86 270.42,-122"/>
<text text-anchor="middle" x="221" y="-99.8" font-family="Times,serif" font-size="14.00">GamesModule</text>
</g>
<!-- GamesModule&#45;&gt;WithdrawalStrategyModule -->
<g id="edge2" class="edge">
<title>GamesModule&#45;&gt;WithdrawalStrategyModule</title>
<path fill="none" stroke="black" d="M221,-122.13C221,-142.57 221,-173 221,-173 221,-173 757.64,-173 757.64,-173"/>
<polygon fill="black" stroke="black" points="757.64,-176.5 767.64,-173 757.64,-169.5 757.64,-176.5"/>
</g>
<!-- GatewayApiModule -->
<g id="node3" class="node">
<title>GatewayApiModule</title>
<polygon fill="#8dd3c7" stroke="black" points="154.29,-122 151.29,-126 130.29,-126 127.29,-122 23.71,-122 23.71,-86 154.29,-86 154.29,-122"/>
<text text-anchor="middle" x="89" y="-99.8" font-family="Times,serif" font-size="14.00">GatewayApiModule</text>
</g>
<!-- GatewayApiModule&#45;&gt;WithdrawalStrategyModule -->
<g id="edge3" class="edge">
<title>GatewayApiModule&#45;&gt;WithdrawalStrategyModule</title>
<path fill="none" stroke="black" d="M89,-122.01C89,-144.49 89,-180 89,-180 89,-180 757.73,-180 757.73,-180"/>
<polygon fill="black" stroke="black" points="757.73,-183.5 767.73,-180 757.73,-176.5 757.73,-183.5"/>
</g>
<!-- WithdrawalStrategy  -->
<g id="node5" class="node">
<title>WithdrawalStrategy </title>
<polygon fill="#fb8072" stroke="black" points="920.24,-252 787.76,-252 787.76,-216 920.24,-216 920.24,-252"/>
<text text-anchor="middle" x="854" y="-229.8" font-family="Times,serif" font-size="14.00">WithdrawalStrategy </text>
</g>
<!-- WithdrawalStrategyModule&#45;&gt;WithdrawalStrategy  -->
<g id="edge4" class="edge">
<title>WithdrawalStrategyModule&#45;&gt;WithdrawalStrategy </title>
<path fill="none" stroke="black" stroke-dasharray="5,2" d="M854,-187.11C854,-187.11 854,-205.99 854,-205.99"/>
<polygon fill="black" stroke="black" points="850.5,-205.99 854,-215.99 857.5,-205.99 850.5,-205.99"/>
</g>
<!-- WithdrawalCancelSettleBetStrategy -->
<g id="node6" class="node">
<title>WithdrawalCancelSettleBetStrategy</title>
<ellipse fill="#fdb462" stroke="black" cx="2255" cy="-104" rx="151.03" ry="18"/>
<text text-anchor="middle" x="2255" y="-99.8" font-family="Times,serif" font-size="14.00">WithdrawalCancelSettleBetStrategy</text>
</g>
<!-- WithdrawalCancelSettleBetStrategy&#45;&gt;WithdrawalStrategyModule -->
<g id="edge5" class="edge">
<title>WithdrawalCancelSettleBetStrategy&#45;&gt;WithdrawalStrategyModule</title>
<path fill="none" stroke="black" d="M2255,-122.01C2255,-144.49 2255,-180 2255,-180 2255,-180 950.32,-180 950.32,-180"/>
<polygon fill="black" stroke="black" points="950.32,-176.5 940.32,-180 950.32,-183.5 950.32,-176.5"/>
</g>
<!-- WithdrawalCreateBetStrategy -->
<g id="node7" class="node">
<title>WithdrawalCreateBetStrategy</title>
<ellipse fill="#fdb462" stroke="black" cx="1959" cy="-104" rx="127.32" ry="18"/>
<text text-anchor="middle" x="1959" y="-99.8" font-family="Times,serif" font-size="14.00">WithdrawalCreateBetStrategy</text>
</g>
<!-- WithdrawalCreateBetStrategy&#45;&gt;WithdrawalStrategyModule -->
<g id="edge6" class="edge">
<title>WithdrawalCreateBetStrategy&#45;&gt;WithdrawalStrategyModule</title>
<path fill="none" stroke="black" d="M1959,-122.13C1959,-142.57 1959,-173 1959,-173 1959,-173 950.25,-173 950.25,-173"/>
<polygon fill="black" stroke="black" points="950.25,-169.5 940.25,-173 950.25,-176.5 950.25,-169.5"/>
</g>
<!-- WithdrawalPartialCancelSettleBetStrategy -->
<g id="node8" class="node">
<title>WithdrawalPartialCancelSettleBetStrategy</title>
<ellipse fill="#fdb462" stroke="black" cx="1637" cy="-104" rx="176.45" ry="18"/>
<text text-anchor="middle" x="1637" y="-99.8" font-family="Times,serif" font-size="14.00">WithdrawalPartialCancelSettleBetStrategy</text>
</g>
<!-- WithdrawalPartialCancelSettleBetStrategy&#45;&gt;WithdrawalStrategyModule -->
<g id="edge7" class="edge">
<title>WithdrawalPartialCancelSettleBetStrategy&#45;&gt;WithdrawalStrategyModule</title>
<path fill="none" stroke="black" d="M1637,-122.27C1637,-140.56 1637,-166 1637,-166 1637,-166 950.41,-166 950.41,-166"/>
<polygon fill="black" stroke="black" points="950.41,-162.5 940.41,-166 950.41,-169.5 950.41,-162.5"/>
</g>
<!-- WithdrawalPartialResettleBetStrategy -->
<g id="node9" class="node">
<title>WithdrawalPartialResettleBetStrategy</title>
<ellipse fill="#fdb462" stroke="black" cx="1284" cy="-104" rx="158.55" ry="18"/>
<text text-anchor="middle" x="1284" y="-99.8" font-family="Times,serif" font-size="14.00">WithdrawalPartialResettleBetStrategy</text>
</g>
<!-- WithdrawalPartialResettleBetStrategy&#45;&gt;WithdrawalStrategyModule -->
<g id="edge8" class="edge">
<title>WithdrawalPartialResettleBetStrategy&#45;&gt;WithdrawalStrategyModule</title>
<path fill="none" stroke="black" d="M1284,-122.01C1284,-138.05 1284,-159 1284,-159 1284,-159 950.24,-159 950.24,-159"/>
<polygon fill="black" stroke="black" points="950.24,-155.5 940.24,-159 950.24,-162.5 950.24,-155.5"/>
</g>
<!-- WithdrawalResettleBetStrategy -->
<g id="node10" class="node">
<title>WithdrawalResettleBetStrategy</title>
<ellipse fill="#fdb462" stroke="black" cx="974" cy="-104" rx="133.14" ry="18"/>
<text text-anchor="middle" x="974" y="-99.8" font-family="Times,serif" font-size="14.00">WithdrawalResettleBetStrategy</text>
</g>
<!-- WithdrawalResettleBetStrategy&#45;&gt;WithdrawalStrategyModule -->
<g id="edge9" class="edge">
<title>WithdrawalResettleBetStrategy&#45;&gt;WithdrawalStrategyModule</title>
<path fill="none" stroke="black" d="M890.41,-118.1C890.41,-118.1 890.41,-140.72 890.41,-140.72"/>
<polygon fill="black" stroke="black" points="886.91,-140.72 890.41,-150.72 893.91,-140.72 886.91,-140.72"/>
</g>
<!-- WithdrawalStrategy -->
<g id="node11" class="node">
<title>WithdrawalStrategy</title>
<ellipse fill="#fdb462" stroke="black" cx="734" cy="-104" rx="88.6" ry="18"/>
<text text-anchor="middle" x="734" y="-99.8" font-family="Times,serif" font-size="14.00">WithdrawalStrategy</text>
</g>
<!-- WithdrawalStrategy&#45;&gt;WithdrawalStrategyModule -->
<g id="edge10" class="edge">
<title>WithdrawalStrategy&#45;&gt;WithdrawalStrategyModule</title>
<path fill="none" stroke="black" d="M795.33,-117.15C795.33,-117.15 795.33,-140.69 795.33,-140.69"/>
<polygon fill="black" stroke="black" points="791.83,-140.69 795.33,-150.69 798.83,-140.69 791.83,-140.69"/>
</g>
<!-- WithdrawalStrategyFactory -->
<g id="node12" class="node">
<title>WithdrawalStrategyFactory</title>
<ellipse fill="#fdb462" stroke="black" cx="509" cy="-104" rx="118.09" ry="18"/>
<text text-anchor="middle" x="509" y="-99.8" font-family="Times,serif" font-size="14.00">WithdrawalStrategyFactory</text>
</g>
<!-- WithdrawalStrategyFactory&#45;&gt;WithdrawalStrategyModule -->
<g id="edge11" class="edge">
<title>WithdrawalStrategyFactory&#45;&gt;WithdrawalStrategyModule</title>
<path fill="none" stroke="black" d="M509,-122.01C509,-138.05 509,-159 509,-159 509,-159 757.83,-159 757.83,-159"/>
<polygon fill="black" stroke="black" points="757.83,-162.5 767.83,-159 757.83,-155.5 757.83,-162.5"/>
</g>
</g>
</svg>
