<?xml version="1.0" encoding="UTF-8" standalone="no"?>
<!DOCTYPE svg PUBLIC "-//W3C//DTD SVG 1.1//EN"
 "http://www.w3.org/Graphics/SVG/1.1/DTD/svg11.dtd">
<!-- Generated by graphviz version 2.47.0 (20210316.0004)
 -->
<!-- Title: dependencies Pages: 1 -->
<svg width="532pt" height="211pt"
 viewBox="0.00 0.00 532.00 211.00" xmlns="http://www.w3.org/2000/svg" xmlns:xlink="http://www.w3.org/1999/xlink">
<g id="graph0" class="graph" transform="scale(1 1) rotate(0) translate(4 207)">
<title>dependencies</title>
<polygon fill="white" stroke="transparent" points="-4,4 -4,-207 528,-207 528,4 -4,4"/>
<text text-anchor="start" x="241.01" y="-42.4" font-family="Times-12" font-weight="bold" font-size="14.00">Legend</text>
<polygon fill="#ffffb3" stroke="transparent" points="28,-10 28,-30 48,-30 48,-10 28,-10"/>
<text text-anchor="start" x="51.63" y="-15.4" font-family="Times-12" font-size="14.00"> &#160;Declarations</text>
<polygon fill="#8dd3c7" stroke="transparent" points="141,-10 141,-30 161,-30 161,-10 141,-10"/>
<text text-anchor="start" x="164.73" y="-15.4" font-family="Times-12" font-size="14.00"> &#160;Module</text>
<polygon fill="#80b1d3" stroke="transparent" points="227,-10 227,-30 247,-30 247,-10 227,-10"/>
<text text-anchor="start" x="250.78" y="-15.4" font-family="Times-12" font-size="14.00"> &#160;Bootstrap</text>
<polygon fill="#fdb462" stroke="transparent" points="324,-10 324,-30 344,-30 344,-10 324,-10"/>
<text text-anchor="start" x="347.67" y="-15.4" font-family="Times-12" font-size="14.00"> &#160;Providers</text>
<polygon fill="#fb8072" stroke="transparent" points="420,-10 420,-30 440,-30 440,-10 420,-10"/>
<text text-anchor="start" x="443.73" y="-15.4" font-family="Times-12" font-size="14.00"> &#160;Exports</text>
<g id="clust1" class="cluster">
<title>cluster_AffiliateStreamerModule</title>
<polygon fill="none" stroke="black" stroke-dasharray="1,5" points="8,-70 8,-195 516,-195 516,-70 8,-70"/>
</g>
<g id="clust6" class="cluster">
<title>cluster_AffiliateStreamerModule_providers</title>
<polygon fill="none" stroke="black" points="16,-78 16,-130 508,-130 508,-78 16,-78"/>
</g>
<!-- AffiliateStreamerRepository -->
<g id="node1" class="node">
<title>AffiliateStreamerRepository</title>
<ellipse fill="#fdb462" stroke="black" cx="379" cy="-104" rx="120.96" ry="18"/>
<text text-anchor="middle" x="379" y="-99.8" font-family="Times,serif" font-size="14.00">AffiliateStreamerRepository</text>
</g>
<!-- AffiliateStreamerModule -->
<g id="node3" class="node">
<title>AffiliateStreamerModule</title>
<polygon fill="#8dd3c7" stroke="black" points="334,-187 331,-191 310,-191 307,-187 176,-187 176,-151 334,-151 334,-187"/>
<text text-anchor="middle" x="255" y="-164.8" font-family="Times,serif" font-size="14.00">AffiliateStreamerModule</text>
</g>
<!-- AffiliateStreamerRepository&#45;&gt;AffiliateStreamerModule -->
<g id="edge1" class="edge">
<title>AffiliateStreamerRepository&#45;&gt;AffiliateStreamerModule</title>
<path fill="none" stroke="black" d="M295.89,-117.15C295.89,-117.15 295.89,-140.69 295.89,-140.69"/>
<polygon fill="black" stroke="black" points="292.39,-140.69 295.89,-150.69 299.39,-140.69 292.39,-140.69"/>
</g>
<!-- AffiliateStreamerService -->
<g id="node2" class="node">
<title>AffiliateStreamerService</title>
<ellipse fill="#fdb462" stroke="black" cx="132" cy="-104" rx="107.61" ry="18"/>
<text text-anchor="middle" x="132" y="-99.8" font-family="Times,serif" font-size="14.00">AffiliateStreamerService</text>
</g>
<!-- AffiliateStreamerService&#45;&gt;AffiliateStreamerModule -->
<g id="edge2" class="edge">
<title>AffiliateStreamerService&#45;&gt;AffiliateStreamerModule</title>
<path fill="none" stroke="black" d="M207.9,-116.84C207.9,-116.84 207.9,-140.52 207.9,-140.52"/>
<polygon fill="black" stroke="black" points="204.4,-140.52 207.9,-150.52 211.4,-140.52 204.4,-140.52"/>
</g>
</g>
</svg>
