<?xml version="1.0" encoding="UTF-8" standalone="no"?>
<!DOCTYPE svg PUBLIC "-//W3C//DTD SVG 1.1//EN"
 "http://www.w3.org/Graphics/SVG/1.1/DTD/svg11.dtd">
<!-- Generated by graphviz version 2.47.0 (20210316.0004)
 -->
<!-- Title: dependencies Pages: 1 -->
<svg width="504pt" height="284pt"
 viewBox="0.00 0.00 504.00 284.00" xmlns="http://www.w3.org/2000/svg" xmlns:xlink="http://www.w3.org/1999/xlink">
<g id="graph0" class="graph" transform="scale(1 1) rotate(0) translate(4 280)">
<title>dependencies</title>
<polygon fill="white" stroke="transparent" points="-4,4 -4,-280 500,-280 500,4 -4,4"/>
<text text-anchor="start" x="227.01" y="-42.4" font-family="Times-12" font-weight="bold" font-size="14.00">Legend</text>
<polygon fill="#ffffb3" stroke="transparent" points="14,-10 14,-30 34,-30 34,-10 14,-10"/>
<text text-anchor="start" x="37.63" y="-15.4" font-family="Times-12" font-size="14.00"> &#160;Declarations</text>
<polygon fill="#8dd3c7" stroke="transparent" points="127,-10 127,-30 147,-30 147,-10 127,-10"/>
<text text-anchor="start" x="150.73" y="-15.4" font-family="Times-12" font-size="14.00"> &#160;Module</text>
<polygon fill="#80b1d3" stroke="transparent" points="213,-10 213,-30 233,-30 233,-10 213,-10"/>
<text text-anchor="start" x="236.78" y="-15.4" font-family="Times-12" font-size="14.00"> &#160;Bootstrap</text>
<polygon fill="#fdb462" stroke="transparent" points="310,-10 310,-30 330,-30 330,-10 310,-10"/>
<text text-anchor="start" x="333.67" y="-15.4" font-family="Times-12" font-size="14.00"> &#160;Providers</text>
<polygon fill="#fb8072" stroke="transparent" points="406,-10 406,-30 426,-30 426,-10 406,-10"/>
<text text-anchor="start" x="429.73" y="-15.4" font-family="Times-12" font-size="14.00"> &#160;Exports</text>
<g id="clust1" class="cluster">
<title>cluster_AdminLoggerModule</title>
<polygon fill="none" stroke="black" stroke-dasharray="1,5" points="20,-70 20,-268 476,-268 476,-70 20,-70"/>
</g>
<g id="clust4" class="cluster">
<title>cluster_AdminLoggerModule_exports</title>
<polygon fill="none" stroke="black" points="163,-208 163,-260 319,-260 319,-208 163,-208"/>
</g>
<g id="clust6" class="cluster">
<title>cluster_AdminLoggerModule_providers</title>
<polygon fill="none" stroke="black" points="28,-78 28,-130 468,-130 468,-78 28,-78"/>
</g>
<!-- AdminLoggerService  -->
<g id="node1" class="node">
<title>AdminLoggerService </title>
<polygon fill="#fb8072" stroke="black" points="311.29,-252 170.71,-252 170.71,-216 311.29,-216 311.29,-252"/>
<text text-anchor="middle" x="241" y="-229.8" font-family="Times,serif" font-size="14.00">AdminLoggerService </text>
</g>
<!-- AdminLoggerModule -->
<g id="node2" class="node">
<title>AdminLoggerModule</title>
<polygon fill="#8dd3c7" stroke="black" points="310.37,-187 307.37,-191 286.37,-191 283.37,-187 171.63,-187 171.63,-151 310.37,-151 310.37,-187"/>
<text text-anchor="middle" x="241" y="-164.8" font-family="Times,serif" font-size="14.00">AdminLoggerModule</text>
</g>
<!-- AdminLoggerModule&#45;&gt;AdminLoggerService  -->
<g id="edge1" class="edge">
<title>AdminLoggerModule&#45;&gt;AdminLoggerService </title>
<path fill="none" stroke="black" stroke-dasharray="5,2" d="M241,-187.11C241,-187.11 241,-205.99 241,-205.99"/>
<polygon fill="black" stroke="black" points="237.5,-205.99 241,-215.99 244.5,-205.99 237.5,-205.99"/>
</g>
<!-- AdminLoggerRepository -->
<g id="node3" class="node">
<title>AdminLoggerRepository</title>
<ellipse fill="#fdb462" stroke="black" cx="352" cy="-104" rx="108.25" ry="18"/>
<text text-anchor="middle" x="352" y="-99.8" font-family="Times,serif" font-size="14.00">AdminLoggerRepository</text>
</g>
<!-- AdminLoggerRepository&#45;&gt;AdminLoggerModule -->
<g id="edge2" class="edge">
<title>AdminLoggerRepository&#45;&gt;AdminLoggerModule</title>
<path fill="none" stroke="black" d="M277.15,-117.15C277.15,-117.15 277.15,-140.69 277.15,-140.69"/>
<polygon fill="black" stroke="black" points="273.65,-140.69 277.15,-150.69 280.65,-140.69 273.65,-140.69"/>
</g>
<!-- AdminLoggerService -->
<g id="node4" class="node">
<title>AdminLoggerService</title>
<ellipse fill="#fdb462" stroke="black" cx="131" cy="-104" rx="94.91" ry="18"/>
<text text-anchor="middle" x="131" y="-99.8" font-family="Times,serif" font-size="14.00">AdminLoggerService</text>
</g>
<!-- AdminLoggerService&#45;&gt;AdminLoggerModule -->
<g id="edge3" class="edge">
<title>AdminLoggerService&#45;&gt;AdminLoggerModule</title>
<path fill="none" stroke="black" d="M198.63,-116.84C198.63,-116.84 198.63,-140.52 198.63,-140.52"/>
<polygon fill="black" stroke="black" points="195.13,-140.52 198.63,-150.52 202.13,-140.52 195.13,-140.52"/>
</g>
</g>
</svg>
