<?xml version="1.0" encoding="UTF-8" standalone="no"?>
<!DOCTYPE svg PUBLIC "-//W3C//DTD SVG 1.1//EN"
 "http://www.w3.org/Graphics/SVG/1.1/DTD/svg11.dtd">
<!-- Generated by graphviz version 2.47.0 (20210316.0004)
 -->
<!-- Title: dependencies Pages: 1 -->
<svg width="730pt" height="284pt"
 viewBox="0.00 0.00 730.00 284.00" xmlns="http://www.w3.org/2000/svg" xmlns:xlink="http://www.w3.org/1999/xlink">
<g id="graph0" class="graph" transform="scale(1 1) rotate(0) translate(4 280)">
<title>dependencies</title>
<polygon fill="white" stroke="transparent" points="-4,4 -4,-280 726,-280 726,4 -4,4"/>
<text text-anchor="start" x="340.01" y="-42.4" font-family="Times-12" font-weight="bold" font-size="14.00">Legend</text>
<polygon fill="#ffffb3" stroke="transparent" points="127,-10 127,-30 147,-30 147,-10 127,-10"/>
<text text-anchor="start" x="150.63" y="-15.4" font-family="Times-12" font-size="14.00"> &#160;Declarations</text>
<polygon fill="#8dd3c7" stroke="transparent" points="240,-10 240,-30 260,-30 260,-10 240,-10"/>
<text text-anchor="start" x="263.73" y="-15.4" font-family="Times-12" font-size="14.00"> &#160;Module</text>
<polygon fill="#80b1d3" stroke="transparent" points="326,-10 326,-30 346,-30 346,-10 326,-10"/>
<text text-anchor="start" x="349.78" y="-15.4" font-family="Times-12" font-size="14.00"> &#160;Bootstrap</text>
<polygon fill="#fdb462" stroke="transparent" points="423,-10 423,-30 443,-30 443,-10 423,-10"/>
<text text-anchor="start" x="446.67" y="-15.4" font-family="Times-12" font-size="14.00"> &#160;Providers</text>
<polygon fill="#fb8072" stroke="transparent" points="519,-10 519,-30 539,-30 539,-10 519,-10"/>
<text text-anchor="start" x="542.73" y="-15.4" font-family="Times-12" font-size="14.00"> &#160;Exports</text>
<g id="clust1" class="cluster">
<title>cluster_LimboModule</title>
<polygon fill="none" stroke="black" stroke-dasharray="1,5" points="8,-70 8,-268 714,-268 714,-70 8,-70"/>
</g>
<g id="clust6" class="cluster">
<title>cluster_LimboModule_providers</title>
<polygon fill="none" stroke="black" points="558,-78 558,-130 706,-130 706,-78 558,-78"/>
</g>
<g id="clust3" class="cluster">
<title>cluster_LimboModule_imports</title>
<polygon fill="none" stroke="black" points="16,-78 16,-130 550,-130 550,-78 16,-78"/>
</g>
<g id="clust4" class="cluster">
<title>cluster_LimboModule_exports</title>
<polygon fill="none" stroke="black" points="339,-208 339,-260 453,-260 453,-208 339,-208"/>
</g>
<!-- BetModule -->
<g id="node1" class="node">
<title>BetModule</title>
<polygon fill="#8dd3c7" stroke="black" points="542.49,-122 539.49,-126 518.49,-126 515.49,-122 463.51,-122 463.51,-86 542.49,-86 542.49,-122"/>
<text text-anchor="middle" x="503" y="-99.8" font-family="Times,serif" font-size="14.00">BetModule</text>
</g>
<!-- LimboModule -->
<g id="node5" class="node">
<title>LimboModule</title>
<polygon fill="#8dd3c7" stroke="black" points="444.38,-187 441.38,-191 420.38,-191 417.38,-187 347.62,-187 347.62,-151 444.38,-151 444.38,-187"/>
<text text-anchor="middle" x="396" y="-164.8" font-family="Times,serif" font-size="14.00">LimboModule</text>
</g>
<!-- BetModule&#45;&gt;LimboModule -->
<g id="edge1" class="edge">
<title>BetModule&#45;&gt;LimboModule</title>
<path fill="none" stroke="black" d="M503,-122.02C503,-139.37 503,-163 503,-163 503,-163 454.49,-163 454.49,-163"/>
<polygon fill="black" stroke="black" points="454.49,-159.5 444.49,-163 454.49,-166.5 454.49,-159.5"/>
</g>
<!-- GamesModule -->
<g id="node2" class="node">
<title>GamesModule</title>
<polygon fill="#8dd3c7" stroke="black" points="445.42,-122 442.42,-126 421.42,-126 418.42,-122 346.58,-122 346.58,-86 445.42,-86 445.42,-122"/>
<text text-anchor="middle" x="396" y="-99.8" font-family="Times,serif" font-size="14.00">GamesModule</text>
</g>
<!-- GamesModule&#45;&gt;LimboModule -->
<g id="edge2" class="edge">
<title>GamesModule&#45;&gt;LimboModule</title>
<path fill="none" stroke="black" d="M396,-122.11C396,-122.11 396,-140.99 396,-140.99"/>
<polygon fill="black" stroke="black" points="392.5,-140.99 396,-150.99 399.5,-140.99 392.5,-140.99"/>
</g>
<!-- HouseValidationModule -->
<g id="node3" class="node">
<title>HouseValidationModule</title>
<polygon fill="#8dd3c7" stroke="black" points="329.41,-122 326.41,-126 305.41,-126 302.41,-122 174.59,-122 174.59,-86 329.41,-86 329.41,-122"/>
<text text-anchor="middle" x="252" y="-99.8" font-family="Times,serif" font-size="14.00">HouseValidationModule</text>
</g>
<!-- HouseValidationModule&#45;&gt;LimboModule -->
<g id="edge3" class="edge">
<title>HouseValidationModule&#45;&gt;LimboModule</title>
<path fill="none" stroke="black" d="M252,-122.02C252,-139.37 252,-163 252,-163 252,-163 337.25,-163 337.25,-163"/>
<polygon fill="black" stroke="black" points="337.25,-166.5 347.25,-163 337.25,-159.5 337.25,-166.5"/>
</g>
<!-- ProvablyFairModule -->
<g id="node4" class="node">
<title>ProvablyFairModule</title>
<polygon fill="#8dd3c7" stroke="black" points="156.15,-122 153.15,-126 132.15,-126 129.15,-122 23.85,-122 23.85,-86 156.15,-86 156.15,-122"/>
<text text-anchor="middle" x="90" y="-99.8" font-family="Times,serif" font-size="14.00">ProvablyFairModule</text>
</g>
<!-- ProvablyFairModule&#45;&gt;LimboModule -->
<g id="edge4" class="edge">
<title>ProvablyFairModule&#45;&gt;LimboModule</title>
<path fill="none" stroke="black" d="M90,-122.28C90,-143.32 90,-175 90,-175 90,-175 337.51,-175 337.51,-175"/>
<polygon fill="black" stroke="black" points="337.51,-178.5 347.51,-175 337.51,-171.5 337.51,-178.5"/>
</g>
<!-- LimboService  -->
<g id="node6" class="node">
<title>LimboService </title>
<polygon fill="#fb8072" stroke="black" points="445.31,-252 346.69,-252 346.69,-216 445.31,-216 445.31,-252"/>
<text text-anchor="middle" x="396" y="-229.8" font-family="Times,serif" font-size="14.00">LimboService </text>
</g>
<!-- LimboModule&#45;&gt;LimboService  -->
<g id="edge5" class="edge">
<title>LimboModule&#45;&gt;LimboService </title>
<path fill="none" stroke="black" stroke-dasharray="5,2" d="M396,-187.11C396,-187.11 396,-205.99 396,-205.99"/>
<polygon fill="black" stroke="black" points="392.5,-205.99 396,-215.99 399.5,-205.99 392.5,-205.99"/>
</g>
<!-- LimboService -->
<g id="node7" class="node">
<title>LimboService</title>
<ellipse fill="#fdb462" stroke="black" cx="632" cy="-104" rx="65.99" ry="18"/>
<text text-anchor="middle" x="632" y="-99.8" font-family="Times,serif" font-size="14.00">LimboService</text>
</g>
<!-- LimboService&#45;&gt;LimboModule -->
<g id="edge6" class="edge">
<title>LimboService&#45;&gt;LimboModule</title>
<path fill="none" stroke="black" d="M632,-122.28C632,-143.32 632,-175 632,-175 632,-175 454.61,-175 454.61,-175"/>
<polygon fill="black" stroke="black" points="454.61,-171.5 444.61,-175 454.61,-178.5 454.61,-171.5"/>
</g>
</g>
</svg>
