<?xml version="1.0" encoding="UTF-8" standalone="no"?>
<!DOCTYPE svg PUBLIC "-//W3C//DTD SVG 1.1//EN"
 "http://www.w3.org/Graphics/SVG/1.1/DTD/svg11.dtd">
<!-- Generated by graphviz version 2.47.0 (20210316.0004)
 -->
<!-- Title: dependencies Pages: 1 -->
<svg width="1160pt" height="284pt"
 viewBox="0.00 0.00 1160.00 284.00" xmlns="http://www.w3.org/2000/svg" xmlns:xlink="http://www.w3.org/1999/xlink">
<g id="graph0" class="graph" transform="scale(1 1) rotate(0) translate(4 280)">
<title>dependencies</title>
<polygon fill="white" stroke="transparent" points="-4,4 -4,-280 1156,-280 1156,4 -4,4"/>
<text text-anchor="start" x="555.01" y="-42.4" font-family="Times-12" font-weight="bold" font-size="14.00">Legend</text>
<polygon fill="#ffffb3" stroke="transparent" points="342,-10 342,-30 362,-30 362,-10 342,-10"/>
<text text-anchor="start" x="365.63" y="-15.4" font-family="Times-12" font-size="14.00"> &#160;Declarations</text>
<polygon fill="#8dd3c7" stroke="transparent" points="455,-10 455,-30 475,-30 475,-10 455,-10"/>
<text text-anchor="start" x="478.73" y="-15.4" font-family="Times-12" font-size="14.00"> &#160;Module</text>
<polygon fill="#80b1d3" stroke="transparent" points="541,-10 541,-30 561,-30 561,-10 541,-10"/>
<text text-anchor="start" x="564.78" y="-15.4" font-family="Times-12" font-size="14.00"> &#160;Bootstrap</text>
<polygon fill="#fdb462" stroke="transparent" points="638,-10 638,-30 658,-30 658,-10 638,-10"/>
<text text-anchor="start" x="661.67" y="-15.4" font-family="Times-12" font-size="14.00"> &#160;Providers</text>
<polygon fill="#fb8072" stroke="transparent" points="734,-10 734,-30 754,-30 754,-10 734,-10"/>
<text text-anchor="start" x="757.73" y="-15.4" font-family="Times-12" font-size="14.00"> &#160;Exports</text>
<g id="clust1" class="cluster">
<title>cluster_AffiliateUserStatsModule</title>
<polygon fill="none" stroke="black" stroke-dasharray="1,5" points="8,-70 8,-268 1144,-268 1144,-70 8,-70"/>
</g>
<g id="clust3" class="cluster">
<title>cluster_AffiliateUserStatsModule_imports</title>
<polygon fill="none" stroke="black" points="524,-78 524,-130 1136,-130 1136,-78 524,-78"/>
</g>
<g id="clust6" class="cluster">
<title>cluster_AffiliateUserStatsModule_providers</title>
<polygon fill="none" stroke="black" points="16,-78 16,-130 516,-130 516,-78 16,-78"/>
</g>
<g id="clust4" class="cluster">
<title>cluster_AffiliateUserStatsModule_exports</title>
<polygon fill="none" stroke="black" points="550,-208 550,-260 728,-260 728,-208 550,-208"/>
</g>
<!-- AccountingModule -->
<g id="node1" class="node">
<title>AccountingModule</title>
<polygon fill="#8dd3c7" stroke="black" points="1128.37,-122 1125.37,-126 1104.37,-126 1101.37,-122 1003.63,-122 1003.63,-86 1128.37,-86 1128.37,-122"/>
<text text-anchor="middle" x="1066" y="-99.8" font-family="Times,serif" font-size="14.00">AccountingModule</text>
</g>
<!-- AffiliateUserStatsModule -->
<g id="node5" class="node">
<title>AffiliateUserStatsModule</title>
<polygon fill="#8dd3c7" stroke="black" points="719.12,-187 716.12,-191 695.12,-191 692.12,-187 558.88,-187 558.88,-151 719.12,-151 719.12,-187"/>
<text text-anchor="middle" x="639" y="-164.8" font-family="Times,serif" font-size="14.00">AffiliateUserStatsModule</text>
</g>
<!-- AccountingModule&#45;&gt;AffiliateUserStatsModule -->
<g id="edge1" class="edge">
<title>AccountingModule&#45;&gt;AffiliateUserStatsModule</title>
<path fill="none" stroke="black" d="M1066,-122.28C1066,-143.32 1066,-175 1066,-175 1066,-175 729.32,-175 729.32,-175"/>
<polygon fill="black" stroke="black" points="729.32,-171.5 719.32,-175 729.32,-178.5 729.32,-171.5"/>
</g>
<!-- AffiliateAggregatedInfoModule -->
<g id="node2" class="node">
<title>AffiliateAggregatedInfoModule</title>
<polygon fill="#8dd3c7" stroke="black" points="985.59,-122 982.59,-126 961.59,-126 958.59,-122 790.41,-122 790.41,-86 985.59,-86 985.59,-122"/>
<text text-anchor="middle" x="888" y="-99.8" font-family="Times,serif" font-size="14.00">AffiliateAggregatedInfoModule</text>
</g>
<!-- AffiliateAggregatedInfoModule&#45;&gt;AffiliateUserStatsModule -->
<g id="edge2" class="edge">
<title>AffiliateAggregatedInfoModule&#45;&gt;AffiliateUserStatsModule</title>
<path fill="none" stroke="black" d="M888,-122.02C888,-139.37 888,-163 888,-163 888,-163 729.16,-163 729.16,-163"/>
<polygon fill="black" stroke="black" points="729.16,-159.5 719.16,-163 729.16,-166.5 729.16,-159.5"/>
</g>
<!-- AffiliateCodeModule -->
<g id="node3" class="node">
<title>AffiliateCodeModule</title>
<polygon fill="#8dd3c7" stroke="black" points="772.02,-122 769.02,-126 748.02,-126 745.02,-122 635.98,-122 635.98,-86 772.02,-86 772.02,-122"/>
<text text-anchor="middle" x="704" y="-99.8" font-family="Times,serif" font-size="14.00">AffiliateCodeModule</text>
</g>
<!-- AffiliateCodeModule&#45;&gt;AffiliateUserStatsModule -->
<g id="edge3" class="edge">
<title>AffiliateCodeModule&#45;&gt;AffiliateUserStatsModule</title>
<path fill="none" stroke="black" d="M677.52,-122.11C677.52,-122.11 677.52,-140.99 677.52,-140.99"/>
<polygon fill="black" stroke="black" points="674.02,-140.99 677.52,-150.99 681.02,-140.99 674.02,-140.99"/>
</g>
<!-- UserModule -->
<g id="node4" class="node">
<title>UserModule</title>
<polygon fill="#8dd3c7" stroke="black" points="617.98,-122 614.98,-126 593.98,-126 590.98,-122 532.02,-122 532.02,-86 617.98,-86 617.98,-122"/>
<text text-anchor="middle" x="575" y="-99.8" font-family="Times,serif" font-size="14.00">UserModule</text>
</g>
<!-- UserModule&#45;&gt;AffiliateUserStatsModule -->
<g id="edge4" class="edge">
<title>UserModule&#45;&gt;AffiliateUserStatsModule</title>
<path fill="none" stroke="black" d="M588.34,-122.11C588.34,-122.11 588.34,-140.99 588.34,-140.99"/>
<polygon fill="black" stroke="black" points="584.84,-140.99 588.34,-150.99 591.84,-140.99 584.84,-140.99"/>
</g>
<!-- AffiliateUserStatsService  -->
<g id="node6" class="node">
<title>AffiliateUserStatsService </title>
<polygon fill="#fb8072" stroke="black" points="720.05,-252 557.95,-252 557.95,-216 720.05,-216 720.05,-252"/>
<text text-anchor="middle" x="639" y="-229.8" font-family="Times,serif" font-size="14.00">AffiliateUserStatsService </text>
</g>
<!-- AffiliateUserStatsModule&#45;&gt;AffiliateUserStatsService  -->
<g id="edge5" class="edge">
<title>AffiliateUserStatsModule&#45;&gt;AffiliateUserStatsService </title>
<path fill="none" stroke="black" stroke-dasharray="5,2" d="M639,-187.11C639,-187.11 639,-205.99 639,-205.99"/>
<polygon fill="black" stroke="black" points="635.5,-205.99 639,-215.99 642.5,-205.99 635.5,-205.99"/>
</g>
<!-- AffiliateUserStatsRepository -->
<g id="node7" class="node">
<title>AffiliateUserStatsRepository</title>
<ellipse fill="#fdb462" stroke="black" cx="385" cy="-104" rx="123.26" ry="18"/>
<text text-anchor="middle" x="385" y="-99.8" font-family="Times,serif" font-size="14.00">AffiliateUserStatsRepository</text>
</g>
<!-- AffiliateUserStatsRepository&#45;&gt;AffiliateUserStatsModule -->
<g id="edge6" class="edge">
<title>AffiliateUserStatsRepository&#45;&gt;AffiliateUserStatsModule</title>
<path fill="none" stroke="black" d="M385,-122.02C385,-139.37 385,-163 385,-163 385,-163 548.63,-163 548.63,-163"/>
<polygon fill="black" stroke="black" points="548.63,-166.5 558.63,-163 548.63,-159.5 548.63,-166.5"/>
</g>
<!-- AffiliateUserStatsService -->
<g id="node8" class="node">
<title>AffiliateUserStatsService</title>
<ellipse fill="#fdb462" stroke="black" cx="134" cy="-104" rx="109.92" ry="18"/>
<text text-anchor="middle" x="134" y="-99.8" font-family="Times,serif" font-size="14.00">AffiliateUserStatsService</text>
</g>
<!-- AffiliateUserStatsService&#45;&gt;AffiliateUserStatsModule -->
<g id="edge7" class="edge">
<title>AffiliateUserStatsService&#45;&gt;AffiliateUserStatsModule</title>
<path fill="none" stroke="black" d="M134,-122.28C134,-143.32 134,-175 134,-175 134,-175 548.7,-175 548.7,-175"/>
<polygon fill="black" stroke="black" points="548.7,-178.5 558.7,-175 548.7,-171.5 548.7,-178.5"/>
</g>
</g>
</svg>
