<?xml version="1.0" encoding="UTF-8" standalone="no"?>
<!DOCTYPE svg PUBLIC "-//W3C//DTD SVG 1.1//EN"
 "http://www.w3.org/Graphics/SVG/1.1/DTD/svg11.dtd">
<!-- Generated by graphviz version 2.47.0 (20210316.0004)
 -->
<!-- Title: dependencies Pages: 1 -->
<svg width="1016pt" height="284pt"
 viewBox="0.00 0.00 1016.00 284.00" xmlns="http://www.w3.org/2000/svg" xmlns:xlink="http://www.w3.org/1999/xlink">
<g id="graph0" class="graph" transform="scale(1 1) rotate(0) translate(4 280)">
<title>dependencies</title>
<polygon fill="white" stroke="transparent" points="-4,4 -4,-280 1012,-280 1012,4 -4,4"/>
<text text-anchor="start" x="483.01" y="-42.4" font-family="Times-12" font-weight="bold" font-size="14.00">Legend</text>
<polygon fill="#ffffb3" stroke="transparent" points="270,-10 270,-30 290,-30 290,-10 270,-10"/>
<text text-anchor="start" x="293.63" y="-15.4" font-family="Times-12" font-size="14.00"> &#160;Declarations</text>
<polygon fill="#8dd3c7" stroke="transparent" points="383,-10 383,-30 403,-30 403,-10 383,-10"/>
<text text-anchor="start" x="406.73" y="-15.4" font-family="Times-12" font-size="14.00"> &#160;Module</text>
<polygon fill="#80b1d3" stroke="transparent" points="469,-10 469,-30 489,-30 489,-10 469,-10"/>
<text text-anchor="start" x="492.78" y="-15.4" font-family="Times-12" font-size="14.00"> &#160;Bootstrap</text>
<polygon fill="#fdb462" stroke="transparent" points="566,-10 566,-30 586,-30 586,-10 566,-10"/>
<text text-anchor="start" x="589.67" y="-15.4" font-family="Times-12" font-size="14.00"> &#160;Providers</text>
<polygon fill="#fb8072" stroke="transparent" points="662,-10 662,-30 682,-30 682,-10 662,-10"/>
<text text-anchor="start" x="685.73" y="-15.4" font-family="Times-12" font-size="14.00"> &#160;Exports</text>
<g id="clust1" class="cluster">
<title>cluster_MinesModule</title>
<polygon fill="none" stroke="black" stroke-dasharray="1,5" points="8,-70 8,-268 1000,-268 1000,-70 8,-70"/>
</g>
<g id="clust3" class="cluster">
<title>cluster_MinesModule_imports</title>
<polygon fill="none" stroke="black" points="342,-78 342,-130 992,-130 992,-78 342,-78"/>
</g>
<g id="clust4" class="cluster">
<title>cluster_MinesModule_exports</title>
<polygon fill="none" stroke="black" points="494,-208 494,-260 606,-260 606,-208 494,-208"/>
</g>
<g id="clust6" class="cluster">
<title>cluster_MinesModule_providers</title>
<polygon fill="none" stroke="black" points="16,-78 16,-130 334,-130 334,-78 16,-78"/>
</g>
<!-- BetModule -->
<g id="node1" class="node">
<title>BetModule</title>
<polygon fill="#8dd3c7" stroke="black" points="984.49,-122 981.49,-126 960.49,-126 957.49,-122 905.51,-122 905.51,-86 984.49,-86 984.49,-122"/>
<text text-anchor="middle" x="945" y="-99.8" font-family="Times,serif" font-size="14.00">BetModule</text>
</g>
<!-- MinesModule -->
<g id="node6" class="node">
<title>MinesModule</title>
<polygon fill="#8dd3c7" stroke="black" points="597.05,-187 594.05,-191 573.05,-191 570.05,-187 502.95,-187 502.95,-151 597.05,-151 597.05,-187"/>
<text text-anchor="middle" x="550" y="-164.8" font-family="Times,serif" font-size="14.00">MinesModule</text>
</g>
<!-- BetModule&#45;&gt;MinesModule -->
<g id="edge1" class="edge">
<title>BetModule&#45;&gt;MinesModule</title>
<path fill="none" stroke="black" d="M945,-122.29C945,-144.21 945,-178 945,-178 945,-178 607.25,-178 607.25,-178"/>
<polygon fill="black" stroke="black" points="607.25,-174.5 597.25,-178 607.25,-181.5 607.25,-174.5"/>
</g>
<!-- GamesModule -->
<g id="node2" class="node">
<title>GamesModule</title>
<polygon fill="#8dd3c7" stroke="black" points="887.42,-122 884.42,-126 863.42,-126 860.42,-122 788.58,-122 788.58,-86 887.42,-86 887.42,-122"/>
<text text-anchor="middle" x="838" y="-99.8" font-family="Times,serif" font-size="14.00">GamesModule</text>
</g>
<!-- GamesModule&#45;&gt;MinesModule -->
<g id="edge2" class="edge">
<title>GamesModule&#45;&gt;MinesModule</title>
<path fill="none" stroke="black" d="M838,-122.11C838,-141.34 838,-169 838,-169 838,-169 607.23,-169 607.23,-169"/>
<polygon fill="black" stroke="black" points="607.23,-165.5 597.23,-169 607.23,-172.5 607.23,-165.5"/>
</g>
<!-- HouseValidationModule -->
<g id="node3" class="node">
<title>HouseValidationModule</title>
<polygon fill="#8dd3c7" stroke="black" points="771.41,-122 768.41,-126 747.41,-126 744.41,-122 616.59,-122 616.59,-86 771.41,-86 771.41,-122"/>
<text text-anchor="middle" x="694" y="-99.8" font-family="Times,serif" font-size="14.00">HouseValidationModule</text>
</g>
<!-- HouseValidationModule&#45;&gt;MinesModule -->
<g id="edge3" class="edge">
<title>HouseValidationModule&#45;&gt;MinesModule</title>
<path fill="none" stroke="black" d="M694,-122.03C694,-138.4 694,-160 694,-160 694,-160 607.15,-160 607.15,-160"/>
<polygon fill="black" stroke="black" points="607.15,-156.5 597.15,-160 607.15,-163.5 607.15,-156.5"/>
</g>
<!-- PrismaModule -->
<g id="node4" class="node">
<title>PrismaModule</title>
<polygon fill="#8dd3c7" stroke="black" points="599.43,-122 596.43,-126 575.43,-126 572.43,-122 500.57,-122 500.57,-86 599.43,-86 599.43,-122"/>
<text text-anchor="middle" x="550" y="-99.8" font-family="Times,serif" font-size="14.00">PrismaModule</text>
</g>
<!-- PrismaModule&#45;&gt;MinesModule -->
<g id="edge4" class="edge">
<title>PrismaModule&#45;&gt;MinesModule</title>
<path fill="none" stroke="black" d="M550,-122.11C550,-122.11 550,-140.99 550,-140.99"/>
<polygon fill="black" stroke="black" points="546.5,-140.99 550,-150.99 553.5,-140.99 546.5,-140.99"/>
</g>
<!-- ProvablyFairModule -->
<g id="node5" class="node">
<title>ProvablyFairModule</title>
<polygon fill="#8dd3c7" stroke="black" points="482.15,-122 479.15,-126 458.15,-126 455.15,-122 349.85,-122 349.85,-86 482.15,-86 482.15,-122"/>
<text text-anchor="middle" x="416" y="-99.8" font-family="Times,serif" font-size="14.00">ProvablyFairModule</text>
</g>
<!-- ProvablyFairModule&#45;&gt;MinesModule -->
<g id="edge5" class="edge">
<title>ProvablyFairModule&#45;&gt;MinesModule</title>
<path fill="none" stroke="black" d="M416,-122.03C416,-138.4 416,-160 416,-160 416,-160 492.76,-160 492.76,-160"/>
<polygon fill="black" stroke="black" points="492.76,-163.5 502.76,-160 492.76,-156.5 492.76,-163.5"/>
</g>
<!-- MinesService  -->
<g id="node7" class="node">
<title>MinesService </title>
<polygon fill="#fb8072" stroke="black" points="598.47,-252 501.53,-252 501.53,-216 598.47,-216 598.47,-252"/>
<text text-anchor="middle" x="550" y="-229.8" font-family="Times,serif" font-size="14.00">MinesService </text>
</g>
<!-- MinesModule&#45;&gt;MinesService  -->
<g id="edge6" class="edge">
<title>MinesModule&#45;&gt;MinesService </title>
<path fill="none" stroke="black" stroke-dasharray="5,2" d="M550,-187.11C550,-187.11 550,-205.99 550,-205.99"/>
<polygon fill="black" stroke="black" points="546.5,-205.99 550,-215.99 553.5,-205.99 546.5,-205.99"/>
</g>
<!-- MinesRepository -->
<g id="node8" class="node">
<title>MinesRepository</title>
<ellipse fill="#fdb462" stroke="black" cx="248" cy="-104" rx="77.61" ry="18"/>
<text text-anchor="middle" x="248" y="-99.8" font-family="Times,serif" font-size="14.00">MinesRepository</text>
</g>
<!-- MinesRepository&#45;&gt;MinesModule -->
<g id="edge7" class="edge">
<title>MinesRepository&#45;&gt;MinesModule</title>
<path fill="none" stroke="black" d="M248,-122.11C248,-141.34 248,-169 248,-169 248,-169 492.81,-169 492.81,-169"/>
<polygon fill="black" stroke="black" points="492.81,-172.5 502.81,-169 492.81,-165.5 492.81,-172.5"/>
</g>
<!-- MinesService -->
<g id="node9" class="node">
<title>MinesService</title>
<ellipse fill="#fdb462" stroke="black" cx="88" cy="-104" rx="64.26" ry="18"/>
<text text-anchor="middle" x="88" y="-99.8" font-family="Times,serif" font-size="14.00">MinesService</text>
</g>
<!-- MinesService&#45;&gt;MinesModule -->
<g id="edge8" class="edge">
<title>MinesService&#45;&gt;MinesModule</title>
<path fill="none" stroke="black" d="M88,-122.29C88,-144.21 88,-178 88,-178 88,-178 492.73,-178 492.73,-178"/>
<polygon fill="black" stroke="black" points="492.73,-181.5 502.73,-178 492.73,-174.5 492.73,-181.5"/>
</g>
</g>
</svg>
