<?xml version="1.0" encoding="UTF-8" standalone="no"?>
<!DOCTYPE svg PUBLIC "-//W3C//DTD SVG 1.1//EN"
 "http://www.w3.org/Graphics/SVG/1.1/DTD/svg11.dtd">
<!-- Generated by graphviz version 2.47.0 (20210316.0004)
 -->
<!-- Title: dependencies Pages: 1 -->
<svg width="714pt" height="284pt"
 viewBox="0.00 0.00 714.00 284.00" xmlns="http://www.w3.org/2000/svg" xmlns:xlink="http://www.w3.org/1999/xlink">
<g id="graph0" class="graph" transform="scale(1 1) rotate(0) translate(4 280)">
<title>dependencies</title>
<polygon fill="white" stroke="transparent" points="-4,4 -4,-280 710,-280 710,4 -4,4"/>
<text text-anchor="start" x="332.01" y="-42.4" font-family="Times-12" font-weight="bold" font-size="14.00">Legend</text>
<polygon fill="#ffffb3" stroke="transparent" points="119,-10 119,-30 139,-30 139,-10 119,-10"/>
<text text-anchor="start" x="142.63" y="-15.4" font-family="Times-12" font-size="14.00"> &#160;Declarations</text>
<polygon fill="#8dd3c7" stroke="transparent" points="232,-10 232,-30 252,-30 252,-10 232,-10"/>
<text text-anchor="start" x="255.73" y="-15.4" font-family="Times-12" font-size="14.00"> &#160;Module</text>
<polygon fill="#80b1d3" stroke="transparent" points="318,-10 318,-30 338,-30 338,-10 318,-10"/>
<text text-anchor="start" x="341.78" y="-15.4" font-family="Times-12" font-size="14.00"> &#160;Bootstrap</text>
<polygon fill="#fdb462" stroke="transparent" points="415,-10 415,-30 435,-30 435,-10 415,-10"/>
<text text-anchor="start" x="438.67" y="-15.4" font-family="Times-12" font-size="14.00"> &#160;Providers</text>
<polygon fill="#fb8072" stroke="transparent" points="511,-10 511,-30 531,-30 531,-10 511,-10"/>
<text text-anchor="start" x="534.73" y="-15.4" font-family="Times-12" font-size="14.00"> &#160;Exports</text>
<g id="clust1" class="cluster">
<title>cluster_DiceModule</title>
<polygon fill="none" stroke="black" stroke-dasharray="1,5" points="8,-70 8,-268 698,-268 698,-70 8,-70"/>
</g>
<g id="clust6" class="cluster">
<title>cluster_DiceModule_providers</title>
<polygon fill="none" stroke="black" points="558,-78 558,-130 690,-130 690,-78 558,-78"/>
</g>
<g id="clust4" class="cluster">
<title>cluster_DiceModule_exports</title>
<polygon fill="none" stroke="black" points="344,-208 344,-260 448,-260 448,-208 344,-208"/>
</g>
<g id="clust3" class="cluster">
<title>cluster_DiceModule_imports</title>
<polygon fill="none" stroke="black" points="16,-78 16,-130 550,-130 550,-78 16,-78"/>
</g>
<!-- BetModule -->
<g id="node1" class="node">
<title>BetModule</title>
<polygon fill="#8dd3c7" stroke="black" points="542.49,-122 539.49,-126 518.49,-126 515.49,-122 463.51,-122 463.51,-86 542.49,-86 542.49,-122"/>
<text text-anchor="middle" x="503" y="-99.8" font-family="Times,serif" font-size="14.00">BetModule</text>
</g>
<!-- DiceModule -->
<g id="node5" class="node">
<title>DiceModule</title>
<polygon fill="#8dd3c7" stroke="black" points="438.98,-187 435.98,-191 414.98,-191 411.98,-187 353.02,-187 353.02,-151 438.98,-151 438.98,-187"/>
<text text-anchor="middle" x="396" y="-164.8" font-family="Times,serif" font-size="14.00">DiceModule</text>
</g>
<!-- BetModule&#45;&gt;DiceModule -->
<g id="edge1" class="edge">
<title>BetModule&#45;&gt;DiceModule</title>
<path fill="none" stroke="black" d="M503,-122.02C503,-139.37 503,-163 503,-163 503,-163 449.21,-163 449.21,-163"/>
<polygon fill="black" stroke="black" points="449.21,-159.5 439.21,-163 449.21,-166.5 449.21,-159.5"/>
</g>
<!-- GamesModule -->
<g id="node2" class="node">
<title>GamesModule</title>
<polygon fill="#8dd3c7" stroke="black" points="445.42,-122 442.42,-126 421.42,-126 418.42,-122 346.58,-122 346.58,-86 445.42,-86 445.42,-122"/>
<text text-anchor="middle" x="396" y="-99.8" font-family="Times,serif" font-size="14.00">GamesModule</text>
</g>
<!-- GamesModule&#45;&gt;DiceModule -->
<g id="edge2" class="edge">
<title>GamesModule&#45;&gt;DiceModule</title>
<path fill="none" stroke="black" d="M396,-122.11C396,-122.11 396,-140.99 396,-140.99"/>
<polygon fill="black" stroke="black" points="392.5,-140.99 396,-150.99 399.5,-140.99 392.5,-140.99"/>
</g>
<!-- HouseValidationModule -->
<g id="node3" class="node">
<title>HouseValidationModule</title>
<polygon fill="#8dd3c7" stroke="black" points="329.41,-122 326.41,-126 305.41,-126 302.41,-122 174.59,-122 174.59,-86 329.41,-86 329.41,-122"/>
<text text-anchor="middle" x="252" y="-99.8" font-family="Times,serif" font-size="14.00">HouseValidationModule</text>
</g>
<!-- HouseValidationModule&#45;&gt;DiceModule -->
<g id="edge3" class="edge">
<title>HouseValidationModule&#45;&gt;DiceModule</title>
<path fill="none" stroke="black" d="M252,-122.02C252,-139.37 252,-163 252,-163 252,-163 342.8,-163 342.8,-163"/>
<polygon fill="black" stroke="black" points="342.8,-166.5 352.8,-163 342.8,-159.5 342.8,-166.5"/>
</g>
<!-- ProvablyFairModule -->
<g id="node4" class="node">
<title>ProvablyFairModule</title>
<polygon fill="#8dd3c7" stroke="black" points="156.15,-122 153.15,-126 132.15,-126 129.15,-122 23.85,-122 23.85,-86 156.15,-86 156.15,-122"/>
<text text-anchor="middle" x="90" y="-99.8" font-family="Times,serif" font-size="14.00">ProvablyFairModule</text>
</g>
<!-- ProvablyFairModule&#45;&gt;DiceModule -->
<g id="edge4" class="edge">
<title>ProvablyFairModule&#45;&gt;DiceModule</title>
<path fill="none" stroke="black" d="M90,-122.28C90,-143.32 90,-175 90,-175 90,-175 342.81,-175 342.81,-175"/>
<polygon fill="black" stroke="black" points="342.81,-178.5 352.81,-175 342.81,-171.5 342.81,-178.5"/>
</g>
<!-- DiceService  -->
<g id="node6" class="node">
<title>DiceService </title>
<polygon fill="#fb8072" stroke="black" points="439.9,-252 352.1,-252 352.1,-216 439.9,-216 439.9,-252"/>
<text text-anchor="middle" x="396" y="-229.8" font-family="Times,serif" font-size="14.00">DiceService </text>
</g>
<!-- DiceModule&#45;&gt;DiceService  -->
<g id="edge5" class="edge">
<title>DiceModule&#45;&gt;DiceService </title>
<path fill="none" stroke="black" stroke-dasharray="5,2" d="M396,-187.11C396,-187.11 396,-205.99 396,-205.99"/>
<polygon fill="black" stroke="black" points="392.5,-205.99 396,-215.99 399.5,-205.99 392.5,-205.99"/>
</g>
<!-- DiceService -->
<g id="node7" class="node">
<title>DiceService</title>
<ellipse fill="#fdb462" stroke="black" cx="624" cy="-104" rx="58.44" ry="18"/>
<text text-anchor="middle" x="624" y="-99.8" font-family="Times,serif" font-size="14.00">DiceService</text>
</g>
<!-- DiceService&#45;&gt;DiceModule -->
<g id="edge6" class="edge">
<title>DiceService&#45;&gt;DiceModule</title>
<path fill="none" stroke="black" d="M624,-122.28C624,-143.32 624,-175 624,-175 624,-175 449.15,-175 449.15,-175"/>
<polygon fill="black" stroke="black" points="449.15,-171.5 439.15,-175 449.15,-178.5 449.15,-171.5"/>
</g>
</g>
</svg>
