<?xml version="1.0" encoding="UTF-8" standalone="no"?>
<!DOCTYPE svg PUBLIC "-//W3C//DTD SVG 1.1//EN"
 "http://www.w3.org/Graphics/SVG/1.1/DTD/svg11.dtd">
<!-- Generated by graphviz version 2.47.0 (20210316.0004)
 -->
<!-- Title: dependencies Pages: 1 -->
<svg width="504pt" height="211pt"
 viewBox="0.00 0.00 504.00 211.00" xmlns="http://www.w3.org/2000/svg" xmlns:xlink="http://www.w3.org/1999/xlink">
<g id="graph0" class="graph" transform="scale(1 1) rotate(0) translate(4 207)">
<title>dependencies</title>
<polygon fill="white" stroke="transparent" points="-4,4 -4,-207 500,-207 500,4 -4,4"/>
<text text-anchor="start" x="227.01" y="-42.4" font-family="Times-12" font-weight="bold" font-size="14.00">Legend</text>
<polygon fill="#ffffb3" stroke="transparent" points="14,-10 14,-30 34,-30 34,-10 14,-10"/>
<text text-anchor="start" x="37.63" y="-15.4" font-family="Times-12" font-size="14.00"> &#160;Declarations</text>
<polygon fill="#8dd3c7" stroke="transparent" points="127,-10 127,-30 147,-30 147,-10 127,-10"/>
<text text-anchor="start" x="150.73" y="-15.4" font-family="Times-12" font-size="14.00"> &#160;Module</text>
<polygon fill="#80b1d3" stroke="transparent" points="213,-10 213,-30 233,-30 233,-10 213,-10"/>
<text text-anchor="start" x="236.78" y="-15.4" font-family="Times-12" font-size="14.00"> &#160;Bootstrap</text>
<polygon fill="#fdb462" stroke="transparent" points="310,-10 310,-30 330,-30 330,-10 310,-10"/>
<text text-anchor="start" x="333.67" y="-15.4" font-family="Times-12" font-size="14.00"> &#160;Providers</text>
<polygon fill="#fb8072" stroke="transparent" points="406,-10 406,-30 426,-30 426,-10 406,-10"/>
<text text-anchor="start" x="429.73" y="-15.4" font-family="Times-12" font-size="14.00"> &#160;Exports</text>
<g id="clust1" class="cluster">
<title>cluster_ComingSoonModule</title>
<polygon fill="none" stroke="black" stroke-dasharray="1,5" points="61,-70 61,-195 435,-195 435,-70 61,-70"/>
</g>
<g id="clust6" class="cluster">
<title>cluster_ComingSoonModule_providers</title>
<polygon fill="none" stroke="black" points="229,-78 229,-130 427,-130 427,-78 229,-78"/>
</g>
<g id="clust3" class="cluster">
<title>cluster_ComingSoonModule_imports</title>
<polygon fill="none" stroke="black" points="69,-78 69,-130 221,-130 221,-78 69,-78"/>
</g>
<!-- AffiliateCodeModule -->
<g id="node1" class="node">
<title>AffiliateCodeModule</title>
<polygon fill="#8dd3c7" stroke="black" points="213.02,-122 210.02,-126 189.02,-126 186.02,-122 76.98,-122 76.98,-86 213.02,-86 213.02,-122"/>
<text text-anchor="middle" x="145" y="-99.8" font-family="Times,serif" font-size="14.00">AffiliateCodeModule</text>
</g>
<!-- ComingSoonModule -->
<g id="node2" class="node">
<title>ComingSoonModule</title>
<polygon fill="#8dd3c7" stroke="black" points="302.95,-187 299.95,-191 278.95,-191 275.95,-187 169.05,-187 169.05,-151 302.95,-151 302.95,-187"/>
<text text-anchor="middle" x="236" y="-164.8" font-family="Times,serif" font-size="14.00">ComingSoonModule</text>
</g>
<!-- AffiliateCodeModule&#45;&gt;ComingSoonModule -->
<g id="edge1" class="edge">
<title>AffiliateCodeModule&#45;&gt;ComingSoonModule</title>
<path fill="none" stroke="black" d="M191.27,-122.11C191.27,-122.11 191.27,-140.99 191.27,-140.99"/>
<polygon fill="black" stroke="black" points="187.77,-140.99 191.27,-150.99 194.77,-140.99 187.77,-140.99"/>
</g>
<!-- ComingSoonService -->
<g id="node3" class="node">
<title>ComingSoonService</title>
<ellipse fill="#fdb462" stroke="black" cx="328" cy="-104" rx="90.93" ry="18"/>
<text text-anchor="middle" x="328" y="-99.8" font-family="Times,serif" font-size="14.00">ComingSoonService</text>
</g>
<!-- ComingSoonService&#45;&gt;ComingSoonModule -->
<g id="edge2" class="edge">
<title>ComingSoonService&#45;&gt;ComingSoonModule</title>
<path fill="none" stroke="black" d="M269.88,-118.1C269.88,-118.1 269.88,-140.72 269.88,-140.72"/>
<polygon fill="black" stroke="black" points="266.38,-140.72 269.88,-150.72 273.38,-140.72 266.38,-140.72"/>
</g>
</g>
</svg>
