<?xml version="1.0" encoding="UTF-8" standalone="no"?>
<!DOCTYPE svg PUBLIC "-//W3C//DTD SVG 1.1//EN"
 "http://www.w3.org/Graphics/SVG/1.1/DTD/svg11.dtd">
<!-- Generated by graphviz version 2.47.0 (20210316.0004)
 -->
<!-- Title: dependencies Pages: 1 -->
<svg width="820pt" height="284pt"
 viewBox="0.00 0.00 820.00 284.00" xmlns="http://www.w3.org/2000/svg" xmlns:xlink="http://www.w3.org/1999/xlink">
<g id="graph0" class="graph" transform="scale(1 1) rotate(0) translate(4 280)">
<title>dependencies</title>
<polygon fill="white" stroke="transparent" points="-4,4 -4,-280 816,-280 816,4 -4,4"/>
<text text-anchor="start" x="385.01" y="-42.4" font-family="Times-12" font-weight="bold" font-size="14.00">Legend</text>
<polygon fill="#ffffb3" stroke="transparent" points="172,-10 172,-30 192,-30 192,-10 172,-10"/>
<text text-anchor="start" x="195.63" y="-15.4" font-family="Times-12" font-size="14.00"> &#160;Declarations</text>
<polygon fill="#8dd3c7" stroke="transparent" points="285,-10 285,-30 305,-30 305,-10 285,-10"/>
<text text-anchor="start" x="308.73" y="-15.4" font-family="Times-12" font-size="14.00"> &#160;Module</text>
<polygon fill="#80b1d3" stroke="transparent" points="371,-10 371,-30 391,-30 391,-10 371,-10"/>
<text text-anchor="start" x="394.78" y="-15.4" font-family="Times-12" font-size="14.00"> &#160;Bootstrap</text>
<polygon fill="#fdb462" stroke="transparent" points="468,-10 468,-30 488,-30 488,-10 468,-10"/>
<text text-anchor="start" x="491.67" y="-15.4" font-family="Times-12" font-size="14.00"> &#160;Providers</text>
<polygon fill="#fb8072" stroke="transparent" points="564,-10 564,-30 584,-30 584,-10 564,-10"/>
<text text-anchor="start" x="587.73" y="-15.4" font-family="Times-12" font-size="14.00"> &#160;Exports</text>
<g id="clust1" class="cluster">
<title>cluster_Pm8SignatureModule</title>
<polygon fill="none" stroke="black" stroke-dasharray="1,5" points="8,-70 8,-268 804,-268 804,-70 8,-70"/>
</g>
<g id="clust6" class="cluster">
<title>cluster_Pm8SignatureModule_providers</title>
<polygon fill="none" stroke="black" points="128,-78 128,-130 796,-130 796,-78 128,-78"/>
</g>
<g id="clust3" class="cluster">
<title>cluster_Pm8SignatureModule_imports</title>
<polygon fill="none" stroke="black" points="16,-78 16,-130 120,-130 120,-78 16,-78"/>
</g>
<g id="clust4" class="cluster">
<title>cluster_Pm8SignatureModule_exports</title>
<polygon fill="none" stroke="black" points="213,-208 213,-260 479,-260 479,-208 213,-208"/>
</g>
<!-- AuthModule -->
<g id="node1" class="node">
<title>AuthModule</title>
<polygon fill="#8dd3c7" stroke="black" points="111.55,-122 108.55,-126 87.55,-126 84.55,-122 24.45,-122 24.45,-86 111.55,-86 111.55,-122"/>
<text text-anchor="middle" x="68" y="-99.8" font-family="Times,serif" font-size="14.00">AuthModule</text>
</g>
<!-- Pm8SignatureModule -->
<g id="node2" class="node">
<title>Pm8SignatureModule</title>
<polygon fill="#8dd3c7" stroke="black" points="427.38,-187 424.38,-191 403.38,-191 400.38,-187 288.62,-187 288.62,-151 427.38,-151 427.38,-187"/>
<text text-anchor="middle" x="358" y="-164.8" font-family="Times,serif" font-size="14.00">Pm8SignatureModule</text>
</g>
<!-- AuthModule&#45;&gt;Pm8SignatureModule -->
<g id="edge1" class="edge">
<title>AuthModule&#45;&gt;Pm8SignatureModule</title>
<path fill="none" stroke="black" d="M68,-122.11C68,-141.34 68,-169 68,-169 68,-169 278.54,-169 278.54,-169"/>
<polygon fill="black" stroke="black" points="278.54,-172.5 288.54,-169 278.54,-165.5 278.54,-172.5"/>
</g>
<!-- AuthModule  -->
<g id="node3" class="node">
<title>AuthModule </title>
<polygon fill="#fb8072" stroke="black" points="470.55,-252 379.45,-252 379.45,-216 470.55,-216 470.55,-252"/>
<text text-anchor="middle" x="425" y="-229.8" font-family="Times,serif" font-size="14.00">AuthModule </text>
</g>
<!-- Pm8SignatureModule&#45;&gt;AuthModule  -->
<g id="edge2" class="edge">
<title>Pm8SignatureModule&#45;&gt;AuthModule </title>
<path fill="none" stroke="black" stroke-dasharray="5,2" d="M403.46,-187.11C403.46,-187.11 403.46,-205.99 403.46,-205.99"/>
<polygon fill="black" stroke="black" points="399.96,-205.99 403.46,-215.99 406.96,-205.99 399.96,-205.99"/>
</g>
<!-- Pm8SignatureService  -->
<g id="node4" class="node">
<title>Pm8SignatureService </title>
<polygon fill="#fb8072" stroke="black" points="361.3,-252 220.7,-252 220.7,-216 361.3,-216 361.3,-252"/>
<text text-anchor="middle" x="291" y="-229.8" font-family="Times,serif" font-size="14.00">Pm8SignatureService </text>
</g>
<!-- Pm8SignatureModule&#45;&gt;Pm8SignatureService  -->
<g id="edge3" class="edge">
<title>Pm8SignatureModule&#45;&gt;Pm8SignatureService </title>
<path fill="none" stroke="black" stroke-dasharray="5,2" d="M324.98,-187.11C324.98,-187.11 324.98,-205.99 324.98,-205.99"/>
<polygon fill="black" stroke="black" points="321.48,-205.99 324.98,-215.99 328.48,-205.99 321.48,-205.99"/>
</g>
<!-- Pm8SignatureService -->
<g id="node5" class="node">
<title>Pm8SignatureService</title>
<ellipse fill="#fdb462" stroke="black" cx="693" cy="-104" rx="94.92" ry="18"/>
<text text-anchor="middle" x="693" y="-99.8" font-family="Times,serif" font-size="14.00">Pm8SignatureService</text>
</g>
<!-- Pm8SignatureService&#45;&gt;Pm8SignatureModule -->
<g id="edge4" class="edge">
<title>Pm8SignatureService&#45;&gt;Pm8SignatureModule</title>
<path fill="none" stroke="black" d="M693,-122.11C693,-141.34 693,-169 693,-169 693,-169 437.41,-169 437.41,-169"/>
<polygon fill="black" stroke="black" points="437.41,-165.5 427.41,-169 437.41,-172.5 437.41,-165.5"/>
</g>
<!-- Pm8SignatureV1Service -->
<g id="node6" class="node">
<title>Pm8SignatureV1Service</title>
<ellipse fill="#fdb462" stroke="black" cx="474" cy="-104" rx="106.52" ry="18"/>
<text text-anchor="middle" x="474" y="-99.8" font-family="Times,serif" font-size="14.00">Pm8SignatureV1Service</text>
</g>
<!-- Pm8SignatureV1Service&#45;&gt;Pm8SignatureModule -->
<g id="edge5" class="edge">
<title>Pm8SignatureV1Service&#45;&gt;Pm8SignatureModule</title>
<path fill="none" stroke="black" d="M397.46,-116.53C397.46,-116.53 397.46,-140.85 397.46,-140.85"/>
<polygon fill="black" stroke="black" points="393.96,-140.85 397.46,-150.85 400.96,-140.85 393.96,-140.85"/>
</g>
<!-- Pm8SignatureV2Service -->
<g id="node7" class="node">
<title>Pm8SignatureV2Service</title>
<ellipse fill="#fdb462" stroke="black" cx="243" cy="-104" rx="106.52" ry="18"/>
<text text-anchor="middle" x="243" y="-99.8" font-family="Times,serif" font-size="14.00">Pm8SignatureV2Service</text>
</g>
<!-- Pm8SignatureV2Service&#45;&gt;Pm8SignatureModule -->
<g id="edge6" class="edge">
<title>Pm8SignatureV2Service&#45;&gt;Pm8SignatureModule</title>
<path fill="none" stroke="black" d="M319.04,-116.84C319.04,-116.84 319.04,-140.52 319.04,-140.52"/>
<polygon fill="black" stroke="black" points="315.54,-140.52 319.04,-150.52 322.54,-140.52 315.54,-140.52"/>
</g>
</g>
</svg>
