<?xml version="1.0" encoding="UTF-8" standalone="no"?>
<!DOCTYPE svg PUBLIC "-//W3C//DTD SVG 1.1//EN"
 "http://www.w3.org/Graphics/SVG/1.1/DTD/svg11.dtd">
<!-- Generated by graphviz version 2.47.0 (20210316.0004)
 -->
<!-- Title: dependencies Pages: 1 -->
<svg width="1659pt" height="284pt"
 viewBox="0.00 0.00 1659.00 284.00" xmlns="http://www.w3.org/2000/svg" xmlns:xlink="http://www.w3.org/1999/xlink">
<g id="graph0" class="graph" transform="scale(1 1) rotate(0) translate(4 280)">
<title>dependencies</title>
<polygon fill="white" stroke="transparent" points="-4,4 -4,-280 1655,-280 1655,4 -4,4"/>
<text text-anchor="start" x="804.51" y="-42.4" font-family="Times-12" font-weight="bold" font-size="14.00">Legend</text>
<polygon fill="#ffffb3" stroke="transparent" points="591.5,-10 591.5,-30 611.5,-30 611.5,-10 591.5,-10"/>
<text text-anchor="start" x="615.13" y="-15.4" font-family="Times-12" font-size="14.00"> &#160;Declarations</text>
<polygon fill="#8dd3c7" stroke="transparent" points="704.5,-10 704.5,-30 724.5,-30 724.5,-10 704.5,-10"/>
<text text-anchor="start" x="728.23" y="-15.4" font-family="Times-12" font-size="14.00"> &#160;Module</text>
<polygon fill="#80b1d3" stroke="transparent" points="790.5,-10 790.5,-30 810.5,-30 810.5,-10 790.5,-10"/>
<text text-anchor="start" x="814.28" y="-15.4" font-family="Times-12" font-size="14.00"> &#160;Bootstrap</text>
<polygon fill="#fdb462" stroke="transparent" points="887.5,-10 887.5,-30 907.5,-30 907.5,-10 887.5,-10"/>
<text text-anchor="start" x="911.17" y="-15.4" font-family="Times-12" font-size="14.00"> &#160;Providers</text>
<polygon fill="#fb8072" stroke="transparent" points="983.5,-10 983.5,-30 1003.5,-30 1003.5,-10 983.5,-10"/>
<text text-anchor="start" x="1007.23" y="-15.4" font-family="Times-12" font-size="14.00"> &#160;Exports</text>
<g id="clust1" class="cluster">
<title>cluster_UsersLimitsModule</title>
<polygon fill="none" stroke="black" stroke-dasharray="1,5" points="8,-70 8,-268 1643,-268 1643,-70 8,-70"/>
</g>
<g id="clust4" class="cluster">
<title>cluster_UsersLimitsModule_exports</title>
<polygon fill="none" stroke="black" points="515,-208 515,-260 981,-260 981,-208 515,-208"/>
</g>
<g id="clust6" class="cluster">
<title>cluster_UsersLimitsModule_providers</title>
<polygon fill="none" stroke="black" points="16,-78 16,-130 1635,-130 1635,-78 16,-78"/>
</g>
<!-- GamblingLimitsService  -->
<g id="node1" class="node">
<title>GamblingLimitsService </title>
<polygon fill="#fb8072" stroke="black" points="973.03,-252 818.97,-252 818.97,-216 973.03,-216 973.03,-252"/>
<text text-anchor="middle" x="896" y="-229.8" font-family="Times,serif" font-size="14.00">GamblingLimitsService </text>
</g>
<!-- SelfExclusionService  -->
<g id="node2" class="node">
<title>SelfExclusionService </title>
<polygon fill="#fb8072" stroke="black" points="801.02,-252 660.98,-252 660.98,-216 801.02,-216 801.02,-252"/>
<text text-anchor="middle" x="731" y="-229.8" font-family="Times,serif" font-size="14.00">SelfExclusionService </text>
</g>
<!-- UserLimitService  -->
<g id="node3" class="node">
<title>UserLimitService </title>
<polygon fill="#fb8072" stroke="black" points="642.52,-252 523.48,-252 523.48,-216 642.52,-216 642.52,-252"/>
<text text-anchor="middle" x="583" y="-229.8" font-family="Times,serif" font-size="14.00">UserLimitService </text>
</g>
<!-- UsersLimitsModule -->
<g id="node4" class="node">
<title>UsersLimitsModule</title>
<polygon fill="#8dd3c7" stroke="black" points="794.98,-187 791.98,-191 770.98,-191 767.98,-187 667.02,-187 667.02,-151 794.98,-151 794.98,-187"/>
<text text-anchor="middle" x="731" y="-164.8" font-family="Times,serif" font-size="14.00">UsersLimitsModule</text>
</g>
<!-- UsersLimitsModule&#45;&gt;GamblingLimitsService  -->
<g id="edge1" class="edge">
<title>UsersLimitsModule&#45;&gt;GamblingLimitsService </title>
<path fill="none" stroke="black" stroke-dasharray="5,2" d="M795.24,-180C812.71,-180 826.91,-180 826.91,-180 826.91,-180 826.91,-205.72 826.91,-205.72"/>
<polygon fill="black" stroke="black" points="823.41,-205.72 826.91,-215.72 830.41,-205.72 823.41,-205.72"/>
</g>
<!-- UsersLimitsModule&#45;&gt;SelfExclusionService  -->
<g id="edge2" class="edge">
<title>UsersLimitsModule&#45;&gt;SelfExclusionService </title>
<path fill="none" stroke="black" stroke-dasharray="5,2" d="M731,-187.11C731,-187.11 731,-205.99 731,-205.99"/>
<polygon fill="black" stroke="black" points="727.5,-205.99 731,-215.99 734.5,-205.99 727.5,-205.99"/>
</g>
<!-- UsersLimitsModule&#45;&gt;UserLimitService  -->
<g id="edge3" class="edge">
<title>UsersLimitsModule&#45;&gt;UserLimitService </title>
<path fill="none" stroke="black" stroke-dasharray="5,2" d="M666.86,-180C649.22,-180 634.84,-180 634.84,-180 634.84,-180 634.84,-205.72 634.84,-205.72"/>
<polygon fill="black" stroke="black" points="631.34,-205.72 634.84,-215.72 638.34,-205.72 631.34,-205.72"/>
</g>
<!-- AdminGamblingLimitsService -->
<g id="node5" class="node">
<title>AdminGamblingLimitsService</title>
<ellipse fill="#fdb462" stroke="black" cx="1496" cy="-104" rx="130.81" ry="18"/>
<text text-anchor="middle" x="1496" y="-99.8" font-family="Times,serif" font-size="14.00">AdminGamblingLimitsService</text>
</g>
<!-- AdminGamblingLimitsService&#45;&gt;UsersLimitsModule -->
<g id="edge4" class="edge">
<title>AdminGamblingLimitsService&#45;&gt;UsersLimitsModule</title>
<path fill="none" stroke="black" d="M1496,-122.13C1496,-142.57 1496,-173 1496,-173 1496,-173 805.24,-173 805.24,-173"/>
<polygon fill="black" stroke="black" points="805.24,-169.5 795.24,-173 805.24,-176.5 805.24,-169.5"/>
</g>
<!-- AdminSelfExclusionService -->
<g id="node6" class="node">
<title>AdminSelfExclusionService</title>
<ellipse fill="#fdb462" stroke="black" cx="1226" cy="-104" rx="120.98" ry="18"/>
<text text-anchor="middle" x="1226" y="-99.8" font-family="Times,serif" font-size="14.00">AdminSelfExclusionService</text>
</g>
<!-- AdminSelfExclusionService&#45;&gt;UsersLimitsModule -->
<g id="edge5" class="edge">
<title>AdminSelfExclusionService&#45;&gt;UsersLimitsModule</title>
<path fill="none" stroke="black" d="M1226,-122.27C1226,-140.56 1226,-166 1226,-166 1226,-166 805.21,-166 805.21,-166"/>
<polygon fill="black" stroke="black" points="805.21,-162.5 795.21,-166 805.21,-169.5 805.21,-162.5"/>
</g>
<!-- GamblingLimitsRepository -->
<g id="node7" class="node">
<title>GamblingLimitsRepository</title>
<ellipse fill="#fdb462" stroke="black" cx="970" cy="-104" rx="117.01" ry="18"/>
<text text-anchor="middle" x="970" y="-99.8" font-family="Times,serif" font-size="14.00">GamblingLimitsRepository</text>
</g>
<!-- GamblingLimitsRepository&#45;&gt;UsersLimitsModule -->
<g id="edge6" class="edge">
<title>GamblingLimitsRepository&#45;&gt;UsersLimitsModule</title>
<path fill="none" stroke="black" d="M912.88,-119.91C912.88,-136.15 912.88,-159 912.88,-159 912.88,-159 805.12,-159 805.12,-159"/>
<polygon fill="black" stroke="black" points="805.12,-155.5 795.12,-159 805.12,-162.5 805.12,-155.5"/>
</g>
<!-- GamblingLimitsService -->
<g id="node8" class="node">
<title>GamblingLimitsService</title>
<ellipse fill="#fdb462" stroke="black" cx="731" cy="-104" rx="103.67" ry="18"/>
<text text-anchor="middle" x="731" y="-99.8" font-family="Times,serif" font-size="14.00">GamblingLimitsService</text>
</g>
<!-- GamblingLimitsService&#45;&gt;UsersLimitsModule -->
<g id="edge7" class="edge">
<title>GamblingLimitsService&#45;&gt;UsersLimitsModule</title>
<path fill="none" stroke="black" d="M731,-122.11C731,-122.11 731,-140.99 731,-140.99"/>
<polygon fill="black" stroke="black" points="727.5,-140.99 731,-150.99 734.5,-140.99 727.5,-140.99"/>
</g>
<!-- SelfExcludeRepository -->
<g id="node9" class="node">
<title>SelfExcludeRepository</title>
<ellipse fill="#fdb462" stroke="black" cx="509" cy="-104" rx="100.72" ry="18"/>
<text text-anchor="middle" x="509" y="-99.8" font-family="Times,serif" font-size="14.00">SelfExcludeRepository</text>
</g>
<!-- SelfExcludeRepository&#45;&gt;UsersLimitsModule -->
<g id="edge8" class="edge">
<title>SelfExcludeRepository&#45;&gt;UsersLimitsModule</title>
<path fill="none" stroke="black" d="M566.55,-119.03C566.55,-135.31 566.55,-159 566.55,-159 566.55,-159 656.95,-159 656.95,-159"/>
<polygon fill="black" stroke="black" points="656.95,-162.5 666.95,-159 656.95,-155.5 656.95,-162.5"/>
</g>
<!-- SelfExclusionService -->
<g id="node10" class="node">
<title>SelfExclusionService</title>
<ellipse fill="#fdb462" stroke="black" cx="296" cy="-104" rx="94.34" ry="18"/>
<text text-anchor="middle" x="296" y="-99.8" font-family="Times,serif" font-size="14.00">SelfExclusionService</text>
</g>
<!-- SelfExclusionService&#45;&gt;UsersLimitsModule -->
<g id="edge9" class="edge">
<title>SelfExclusionService&#45;&gt;UsersLimitsModule</title>
<path fill="none" stroke="black" d="M296,-122.27C296,-140.56 296,-166 296,-166 296,-166 656.81,-166 656.81,-166"/>
<polygon fill="black" stroke="black" points="656.81,-169.5 666.81,-166 656.81,-162.5 656.81,-169.5"/>
</g>
<!-- UserLimitService -->
<g id="node11" class="node">
<title>UserLimitService</title>
<ellipse fill="#fdb462" stroke="black" cx="104" cy="-104" rx="79.87" ry="18"/>
<text text-anchor="middle" x="104" y="-99.8" font-family="Times,serif" font-size="14.00">UserLimitService</text>
</g>
<!-- UserLimitService&#45;&gt;UsersLimitsModule -->
<g id="edge10" class="edge">
<title>UserLimitService&#45;&gt;UsersLimitsModule</title>
<path fill="none" stroke="black" d="M104,-122.13C104,-142.57 104,-173 104,-173 104,-173 656.85,-173 656.85,-173"/>
<polygon fill="black" stroke="black" points="656.85,-176.5 666.85,-173 656.85,-169.5 656.85,-176.5"/>
</g>
</g>
</svg>
