<?xml version="1.0" encoding="UTF-8" standalone="no"?>
<!DOCTYPE svg PUBLIC "-//W3C//DTD SVG 1.1//EN"
 "http://www.w3.org/Graphics/SVG/1.1/DTD/svg11.dtd">
<!-- Generated by graphviz version 2.47.0 (20210316.0004)
 -->
<!-- Title: dependencies Pages: 1 -->
<svg width="1147pt" height="284pt"
 viewBox="0.00 0.00 1147.00 284.00" xmlns="http://www.w3.org/2000/svg" xmlns:xlink="http://www.w3.org/1999/xlink">
<g id="graph0" class="graph" transform="scale(1 1) rotate(0) translate(4 280)">
<title>dependencies</title>
<polygon fill="white" stroke="transparent" points="-4,4 -4,-280 1143,-280 1143,4 -4,4"/>
<text text-anchor="start" x="548.51" y="-42.4" font-family="Times-12" font-weight="bold" font-size="14.00">Legend</text>
<polygon fill="#ffffb3" stroke="transparent" points="335.5,-10 335.5,-30 355.5,-30 355.5,-10 335.5,-10"/>
<text text-anchor="start" x="359.13" y="-15.4" font-family="Times-12" font-size="14.00"> &#160;Declarations</text>
<polygon fill="#8dd3c7" stroke="transparent" points="448.5,-10 448.5,-30 468.5,-30 468.5,-10 448.5,-10"/>
<text text-anchor="start" x="472.23" y="-15.4" font-family="Times-12" font-size="14.00"> &#160;Module</text>
<polygon fill="#80b1d3" stroke="transparent" points="534.5,-10 534.5,-30 554.5,-30 554.5,-10 534.5,-10"/>
<text text-anchor="start" x="558.28" y="-15.4" font-family="Times-12" font-size="14.00"> &#160;Bootstrap</text>
<polygon fill="#fdb462" stroke="transparent" points="631.5,-10 631.5,-30 651.5,-30 651.5,-10 631.5,-10"/>
<text text-anchor="start" x="655.17" y="-15.4" font-family="Times-12" font-size="14.00"> &#160;Providers</text>
<polygon fill="#fb8072" stroke="transparent" points="727.5,-10 727.5,-30 747.5,-30 747.5,-10 727.5,-10"/>
<text text-anchor="start" x="751.23" y="-15.4" font-family="Times-12" font-size="14.00"> &#160;Exports</text>
<g id="clust1" class="cluster">
<title>cluster_ChallengeModule</title>
<polygon fill="none" stroke="black" stroke-dasharray="1,5" points="8,-70 8,-268 1131,-268 1131,-70 8,-70"/>
</g>
<g id="clust3" class="cluster">
<title>cluster_ChallengeModule_imports</title>
<polygon fill="none" stroke="black" points="616,-78 616,-130 1123,-130 1123,-78 616,-78"/>
</g>
<g id="clust4" class="cluster">
<title>cluster_ChallengeModule_exports</title>
<polygon fill="none" stroke="black" points="586,-208 586,-260 748,-260 748,-208 586,-208"/>
</g>
<g id="clust6" class="cluster">
<title>cluster_ChallengeModule_providers</title>
<polygon fill="none" stroke="black" points="16,-78 16,-130 608,-130 608,-78 16,-78"/>
</g>
<!-- AccountingModule -->
<g id="node1" class="node">
<title>AccountingModule</title>
<polygon fill="#8dd3c7" stroke="black" points="1115.37,-122 1112.37,-126 1091.37,-126 1088.37,-122 990.63,-122 990.63,-86 1115.37,-86 1115.37,-122"/>
<text text-anchor="middle" x="1053" y="-99.8" font-family="Times,serif" font-size="14.00">AccountingModule</text>
</g>
<!-- ChallengeModule -->
<g id="node5" class="node">
<title>ChallengeModule</title>
<polygon fill="#8dd3c7" stroke="black" points="725.31,-187 722.31,-191 701.31,-191 698.31,-187 608.69,-187 608.69,-151 725.31,-151 725.31,-187"/>
<text text-anchor="middle" x="667" y="-164.8" font-family="Times,serif" font-size="14.00">ChallengeModule</text>
</g>
<!-- AccountingModule&#45;&gt;ChallengeModule -->
<g id="edge1" class="edge">
<title>AccountingModule&#45;&gt;ChallengeModule</title>
<path fill="none" stroke="black" d="M1053,-122.29C1053,-144.21 1053,-178 1053,-178 1053,-178 735.21,-178 735.21,-178"/>
<polygon fill="black" stroke="black" points="735.21,-174.5 725.21,-178 735.21,-181.5 735.21,-174.5"/>
</g>
<!-- GamesModule -->
<g id="node2" class="node">
<title>GamesModule</title>
<polygon fill="#8dd3c7" stroke="black" points="972.42,-122 969.42,-126 948.42,-126 945.42,-122 873.58,-122 873.58,-86 972.42,-86 972.42,-122"/>
<text text-anchor="middle" x="923" y="-99.8" font-family="Times,serif" font-size="14.00">GamesModule</text>
</g>
<!-- GamesModule&#45;&gt;ChallengeModule -->
<g id="edge2" class="edge">
<title>GamesModule&#45;&gt;ChallengeModule</title>
<path fill="none" stroke="black" d="M923,-122.11C923,-141.34 923,-169 923,-169 923,-169 735.41,-169 735.41,-169"/>
<polygon fill="black" stroke="black" points="735.41,-165.5 725.41,-169 735.41,-172.5 735.41,-165.5"/>
</g>
<!-- NotificationModule -->
<g id="node3" class="node">
<title>NotificationModule</title>
<polygon fill="#8dd3c7" stroke="black" points="855.7,-122 852.7,-126 831.7,-126 828.7,-122 728.3,-122 728.3,-86 855.7,-86 855.7,-122"/>
<text text-anchor="middle" x="792" y="-99.8" font-family="Times,serif" font-size="14.00">NotificationModule</text>
</g>
<!-- NotificationModule&#45;&gt;ChallengeModule -->
<g id="edge3" class="edge">
<title>NotificationModule&#45;&gt;ChallengeModule</title>
<path fill="none" stroke="black" d="M734.26,-122.03C734.26,-138.4 734.26,-160 734.26,-160 734.26,-160 733.35,-160 733.35,-160"/>
<polygon fill="black" stroke="black" points="735.19,-156.5 725.19,-160 735.19,-163.5 735.19,-156.5"/>
</g>
<!-- UserModule -->
<g id="node4" class="node">
<title>UserModule</title>
<polygon fill="#8dd3c7" stroke="black" points="709.98,-122 706.98,-126 685.98,-126 682.98,-122 624.02,-122 624.02,-86 709.98,-86 709.98,-122"/>
<text text-anchor="middle" x="667" y="-99.8" font-family="Times,serif" font-size="14.00">UserModule</text>
</g>
<!-- UserModule&#45;&gt;ChallengeModule -->
<g id="edge4" class="edge">
<title>UserModule&#45;&gt;ChallengeModule</title>
<path fill="none" stroke="black" d="M667,-122.11C667,-122.11 667,-140.99 667,-140.99"/>
<polygon fill="black" stroke="black" points="663.5,-140.99 667,-150.99 670.5,-140.99 663.5,-140.99"/>
</g>
<!-- ChallengeCrudService  -->
<g id="node6" class="node">
<title>ChallengeCrudService </title>
<polygon fill="#fb8072" stroke="black" points="740.24,-252 593.76,-252 593.76,-216 740.24,-216 740.24,-252"/>
<text text-anchor="middle" x="667" y="-229.8" font-family="Times,serif" font-size="14.00">ChallengeCrudService </text>
</g>
<!-- ChallengeModule&#45;&gt;ChallengeCrudService  -->
<g id="edge5" class="edge">
<title>ChallengeModule&#45;&gt;ChallengeCrudService </title>
<path fill="none" stroke="black" stroke-dasharray="5,2" d="M667,-187.11C667,-187.11 667,-205.99 667,-205.99"/>
<polygon fill="black" stroke="black" points="663.5,-205.99 667,-215.99 670.5,-205.99 663.5,-205.99"/>
</g>
<!-- ChallengeCrudService -->
<g id="node7" class="node">
<title>ChallengeCrudService</title>
<ellipse fill="#fdb462" stroke="black" cx="502" cy="-104" rx="98.41" ry="18"/>
<text text-anchor="middle" x="502" y="-99.8" font-family="Times,serif" font-size="14.00">ChallengeCrudService</text>
</g>
<!-- ChallengeCrudService&#45;&gt;ChallengeModule -->
<g id="edge6" class="edge">
<title>ChallengeCrudService&#45;&gt;ChallengeModule</title>
<path fill="none" stroke="black" d="M600.52,-104C610.14,-104 616.43,-104 616.43,-104 616.43,-104 616.43,-140.89 616.43,-140.89"/>
<polygon fill="black" stroke="black" points="612.93,-140.89 616.43,-150.89 619.93,-140.89 612.93,-140.89"/>
</g>
<!-- ChallengeRepository -->
<g id="node8" class="node">
<title>ChallengeRepository</title>
<ellipse fill="#fdb462" stroke="black" cx="293" cy="-104" rx="92.64" ry="18"/>
<text text-anchor="middle" x="293" y="-99.8" font-family="Times,serif" font-size="14.00">ChallengeRepository</text>
</g>
<!-- ChallengeRepository&#45;&gt;ChallengeModule -->
<g id="edge7" class="edge">
<title>ChallengeRepository&#45;&gt;ChallengeModule</title>
<path fill="none" stroke="black" d="M293,-122.02C293,-139.37 293,-163 293,-163 293,-163 598.56,-163 598.56,-163"/>
<polygon fill="black" stroke="black" points="598.56,-166.5 608.56,-163 598.56,-159.5 598.56,-166.5"/>
</g>
<!-- ChallengeService -->
<g id="node9" class="node">
<title>ChallengeService</title>
<ellipse fill="#fdb462" stroke="black" cx="103" cy="-104" rx="79.29" ry="18"/>
<text text-anchor="middle" x="103" y="-99.8" font-family="Times,serif" font-size="14.00">ChallengeService</text>
</g>
<!-- ChallengeService&#45;&gt;ChallengeModule -->
<g id="edge8" class="edge">
<title>ChallengeService&#45;&gt;ChallengeModule</title>
<path fill="none" stroke="black" d="M103,-122.28C103,-143.32 103,-175 103,-175 103,-175 598.77,-175 598.77,-175"/>
<polygon fill="black" stroke="black" points="598.77,-178.5 608.77,-175 598.77,-171.5 598.77,-178.5"/>
</g>
</g>
</svg>
