<?xml version="1.0" encoding="UTF-8" standalone="no"?>
<!DOCTYPE svg PUBLIC "-//W3C//DTD SVG 1.1//EN"
 "http://www.w3.org/Graphics/SVG/1.1/DTD/svg11.dtd">
<!-- Generated by graphviz version 2.47.0 (20210316.0004)
 -->
<!-- Title: dependencies Pages: 1 -->
<svg width="834pt" height="211pt"
 viewBox="0.00 0.00 834.00 211.00" xmlns="http://www.w3.org/2000/svg" xmlns:xlink="http://www.w3.org/1999/xlink">
<g id="graph0" class="graph" transform="scale(1 1) rotate(0) translate(4 207)">
<title>dependencies</title>
<polygon fill="white" stroke="transparent" points="-4,4 -4,-207 830,-207 830,4 -4,4"/>
<text text-anchor="start" x="392.01" y="-42.4" font-family="Times-12" font-weight="bold" font-size="14.00">Legend</text>
<polygon fill="#ffffb3" stroke="transparent" points="179,-10 179,-30 199,-30 199,-10 179,-10"/>
<text text-anchor="start" x="202.63" y="-15.4" font-family="Times-12" font-size="14.00"> &#160;Declarations</text>
<polygon fill="#8dd3c7" stroke="transparent" points="292,-10 292,-30 312,-30 312,-10 292,-10"/>
<text text-anchor="start" x="315.73" y="-15.4" font-family="Times-12" font-size="14.00"> &#160;Module</text>
<polygon fill="#80b1d3" stroke="transparent" points="378,-10 378,-30 398,-30 398,-10 378,-10"/>
<text text-anchor="start" x="401.78" y="-15.4" font-family="Times-12" font-size="14.00"> &#160;Bootstrap</text>
<polygon fill="#fdb462" stroke="transparent" points="475,-10 475,-30 495,-30 495,-10 475,-10"/>
<text text-anchor="start" x="498.67" y="-15.4" font-family="Times-12" font-size="14.00"> &#160;Providers</text>
<polygon fill="#fb8072" stroke="transparent" points="571,-10 571,-30 591,-30 591,-10 571,-10"/>
<text text-anchor="start" x="594.73" y="-15.4" font-family="Times-12" font-size="14.00"> &#160;Exports</text>
<g id="clust1" class="cluster">
<title>cluster_AdminTipsModule</title>
<polygon fill="none" stroke="black" stroke-dasharray="1,5" points="8,-70 8,-195 818,-195 818,-70 8,-70"/>
</g>
<g id="clust3" class="cluster">
<title>cluster_AdminTipsModule_imports</title>
<polygon fill="none" stroke="black" points="420,-78 420,-130 810,-130 810,-78 420,-78"/>
</g>
<g id="clust6" class="cluster">
<title>cluster_AdminTipsModule_providers</title>
<polygon fill="none" stroke="black" points="16,-78 16,-130 412,-130 412,-78 16,-78"/>
</g>
<!-- AccountingModule -->
<g id="node1" class="node">
<title>AccountingModule</title>
<polygon fill="#8dd3c7" stroke="black" points="802.37,-122 799.37,-126 778.37,-126 775.37,-122 677.63,-122 677.63,-86 802.37,-86 802.37,-122"/>
<text text-anchor="middle" x="740" y="-99.8" font-family="Times,serif" font-size="14.00">AccountingModule</text>
</g>
<!-- AdminTipsModule -->
<g id="node4" class="node">
<title>AdminTipsModule</title>
<polygon fill="#8dd3c7" stroke="black" points="532.83,-187 529.83,-191 508.83,-191 505.83,-187 409.17,-187 409.17,-151 532.83,-151 532.83,-187"/>
<text text-anchor="middle" x="471" y="-164.8" font-family="Times,serif" font-size="14.00">AdminTipsModule</text>
</g>
<!-- AccountingModule&#45;&gt;AdminTipsModule -->
<g id="edge1" class="edge">
<title>AccountingModule&#45;&gt;AdminTipsModule</title>
<path fill="none" stroke="black" d="M740,-122.11C740,-141.34 740,-169 740,-169 740,-169 542.71,-169 542.71,-169"/>
<polygon fill="black" stroke="black" points="542.71,-165.5 532.71,-169 542.71,-172.5 542.71,-165.5"/>
</g>
<!-- NotificationModule -->
<g id="node2" class="node">
<title>NotificationModule</title>
<polygon fill="#8dd3c7" stroke="black" points="659.7,-122 656.7,-126 635.7,-126 632.7,-122 532.3,-122 532.3,-86 659.7,-86 659.7,-122"/>
<text text-anchor="middle" x="596" y="-99.8" font-family="Times,serif" font-size="14.00">NotificationModule</text>
</g>
<!-- NotificationModule&#45;&gt;AdminTipsModule -->
<g id="edge2" class="edge">
<title>NotificationModule&#45;&gt;AdminTipsModule</title>
<path fill="none" stroke="black" d="M532.12,-104C526.68,-104 523.19,-104 523.19,-104 523.19,-104 523.19,-140.89 523.19,-140.89"/>
<polygon fill="black" stroke="black" points="519.69,-140.89 523.19,-150.89 526.69,-140.89 519.69,-140.89"/>
</g>
<!-- UserModule -->
<g id="node3" class="node">
<title>UserModule</title>
<polygon fill="#8dd3c7" stroke="black" points="513.98,-122 510.98,-126 489.98,-126 486.98,-122 428.02,-122 428.02,-86 513.98,-86 513.98,-122"/>
<text text-anchor="middle" x="471" y="-99.8" font-family="Times,serif" font-size="14.00">UserModule</text>
</g>
<!-- UserModule&#45;&gt;AdminTipsModule -->
<g id="edge3" class="edge">
<title>UserModule&#45;&gt;AdminTipsModule</title>
<path fill="none" stroke="black" d="M471,-122.11C471,-122.11 471,-140.99 471,-140.99"/>
<polygon fill="black" stroke="black" points="467.5,-140.99 471,-150.99 474.5,-140.99 467.5,-140.99"/>
</g>
<!-- AdminTipsRepository -->
<g id="node5" class="node">
<title>AdminTipsRepository</title>
<ellipse fill="#fdb462" stroke="black" cx="307" cy="-104" rx="97.31" ry="18"/>
<text text-anchor="middle" x="307" y="-99.8" font-family="Times,serif" font-size="14.00">AdminTipsRepository</text>
</g>
<!-- AdminTipsRepository&#45;&gt;AdminTipsModule -->
<g id="edge4" class="edge">
<title>AdminTipsRepository&#45;&gt;AdminTipsModule</title>
<path fill="none" stroke="black" d="M404.53,-104C413.14,-104 418.67,-104 418.67,-104 418.67,-104 418.67,-140.89 418.67,-140.89"/>
<polygon fill="black" stroke="black" points="415.17,-140.89 418.67,-150.89 422.17,-140.89 415.17,-140.89"/>
</g>
<!-- AdminTipsService -->
<g id="node6" class="node">
<title>AdminTipsService</title>
<ellipse fill="#fdb462" stroke="black" cx="108" cy="-104" rx="83.97" ry="18"/>
<text text-anchor="middle" x="108" y="-99.8" font-family="Times,serif" font-size="14.00">AdminTipsService</text>
</g>
<!-- AdminTipsService&#45;&gt;AdminTipsModule -->
<g id="edge5" class="edge">
<title>AdminTipsService&#45;&gt;AdminTipsModule</title>
<path fill="none" stroke="black" d="M108,-122.11C108,-141.34 108,-169 108,-169 108,-169 399.01,-169 399.01,-169"/>
<polygon fill="black" stroke="black" points="399.01,-172.5 409.01,-169 399.01,-165.5 399.01,-172.5"/>
</g>
</g>
</svg>
