<?xml version="1.0" encoding="UTF-8" standalone="no"?>
<!DOCTYPE svg PUBLIC "-//W3C//DTD SVG 1.1//EN"
 "http://www.w3.org/Graphics/SVG/1.1/DTD/svg11.dtd">
<!-- Generated by graphviz version 2.47.0 (20210316.0004)
 -->
<!-- Title: dependencies Pages: 1 -->
<svg width="719pt" height="284pt"
 viewBox="0.00 0.00 719.00 284.00" xmlns="http://www.w3.org/2000/svg" xmlns:xlink="http://www.w3.org/1999/xlink">
<g id="graph0" class="graph" transform="scale(1 1) rotate(0) translate(4 280)">
<title>dependencies</title>
<polygon fill="white" stroke="transparent" points="-4,4 -4,-280 715,-280 715,4 -4,4"/>
<text text-anchor="start" x="334.51" y="-42.4" font-family="Times-12" font-weight="bold" font-size="14.00">Legend</text>
<polygon fill="#ffffb3" stroke="transparent" points="121.5,-10 121.5,-30 141.5,-30 141.5,-10 121.5,-10"/>
<text text-anchor="start" x="145.13" y="-15.4" font-family="Times-12" font-size="14.00"> &#160;Declarations</text>
<polygon fill="#8dd3c7" stroke="transparent" points="234.5,-10 234.5,-30 254.5,-30 254.5,-10 234.5,-10"/>
<text text-anchor="start" x="258.23" y="-15.4" font-family="Times-12" font-size="14.00"> &#160;Module</text>
<polygon fill="#80b1d3" stroke="transparent" points="320.5,-10 320.5,-30 340.5,-30 340.5,-10 320.5,-10"/>
<text text-anchor="start" x="344.28" y="-15.4" font-family="Times-12" font-size="14.00"> &#160;Bootstrap</text>
<polygon fill="#fdb462" stroke="transparent" points="417.5,-10 417.5,-30 437.5,-30 437.5,-10 417.5,-10"/>
<text text-anchor="start" x="441.17" y="-15.4" font-family="Times-12" font-size="14.00"> &#160;Providers</text>
<polygon fill="#fb8072" stroke="transparent" points="513.5,-10 513.5,-30 533.5,-30 533.5,-10 513.5,-10"/>
<text text-anchor="start" x="537.23" y="-15.4" font-family="Times-12" font-size="14.00"> &#160;Exports</text>
<g id="clust1" class="cluster">
<title>cluster_ExchangeRatesModule</title>
<polygon fill="none" stroke="black" stroke-dasharray="1,5" points="8,-70 8,-268 703,-268 703,-70 8,-70"/>
</g>
<g id="clust6" class="cluster">
<title>cluster_ExchangeRatesModule_providers</title>
<polygon fill="none" stroke="black" points="16,-78 16,-130 695,-130 695,-78 16,-78"/>
</g>
<g id="clust4" class="cluster">
<title>cluster_ExchangeRatesModule_exports</title>
<polygon fill="none" stroke="black" points="272,-208 272,-260 436,-260 436,-208 272,-208"/>
</g>
<!-- ExchangeRatesService  -->
<g id="node1" class="node">
<title>ExchangeRatesService </title>
<polygon fill="#fb8072" stroke="black" points="427.78,-252 280.22,-252 280.22,-216 427.78,-216 427.78,-252"/>
<text text-anchor="middle" x="354" y="-229.8" font-family="Times,serif" font-size="14.00">ExchangeRatesService </text>
</g>
<!-- ExchangeRatesModule -->
<g id="node2" class="node">
<title>ExchangeRatesModule</title>
<polygon fill="#8dd3c7" stroke="black" points="426.85,-187 423.85,-191 402.85,-191 399.85,-187 281.15,-187 281.15,-151 426.85,-151 426.85,-187"/>
<text text-anchor="middle" x="354" y="-164.8" font-family="Times,serif" font-size="14.00">ExchangeRatesModule</text>
</g>
<!-- ExchangeRatesModule&#45;&gt;ExchangeRatesService  -->
<g id="edge1" class="edge">
<title>ExchangeRatesModule&#45;&gt;ExchangeRatesService </title>
<path fill="none" stroke="black" stroke-dasharray="5,2" d="M354,-187.11C354,-187.11 354,-205.99 354,-205.99"/>
<polygon fill="black" stroke="black" points="350.5,-205.99 354,-215.99 357.5,-205.99 350.5,-205.99"/>
</g>
<!-- CoingeckoProviderApi -->
<g id="node3" class="node">
<title>CoingeckoProviderApi</title>
<ellipse fill="#fdb462" stroke="black" cx="586" cy="-104" rx="100.73" ry="18"/>
<text text-anchor="middle" x="586" y="-99.8" font-family="Times,serif" font-size="14.00">CoingeckoProviderApi</text>
</g>
<!-- CoingeckoProviderApi&#45;&gt;ExchangeRatesModule -->
<g id="edge2" class="edge">
<title>CoingeckoProviderApi&#45;&gt;ExchangeRatesModule</title>
<path fill="none" stroke="black" d="M586,-122.11C586,-141.34 586,-169 586,-169 586,-169 437.09,-169 437.09,-169"/>
<polygon fill="black" stroke="black" points="437.09,-165.5 427.09,-169 437.09,-172.5 437.09,-165.5"/>
</g>
<!-- ExchangeRatesRepository -->
<g id="node4" class="node">
<title>ExchangeRatesRepository</title>
<ellipse fill="#fdb462" stroke="black" cx="354" cy="-104" rx="112.88" ry="18"/>
<text text-anchor="middle" x="354" y="-99.8" font-family="Times,serif" font-size="14.00">ExchangeRatesRepository</text>
</g>
<!-- ExchangeRatesRepository&#45;&gt;ExchangeRatesModule -->
<g id="edge3" class="edge">
<title>ExchangeRatesRepository&#45;&gt;ExchangeRatesModule</title>
<path fill="none" stroke="black" d="M354,-122.11C354,-122.11 354,-140.99 354,-140.99"/>
<polygon fill="black" stroke="black" points="350.5,-140.99 354,-150.99 357.5,-140.99 350.5,-140.99"/>
</g>
<!-- ExchangeRatesService -->
<g id="node5" class="node">
<title>ExchangeRatesService</title>
<ellipse fill="#fdb462" stroke="black" cx="124" cy="-104" rx="99.54" ry="18"/>
<text text-anchor="middle" x="124" y="-99.8" font-family="Times,serif" font-size="14.00">ExchangeRatesService</text>
</g>
<!-- ExchangeRatesService&#45;&gt;ExchangeRatesModule -->
<g id="edge4" class="edge">
<title>ExchangeRatesService&#45;&gt;ExchangeRatesModule</title>
<path fill="none" stroke="black" d="M124,-122.11C124,-141.34 124,-169 124,-169 124,-169 270.91,-169 270.91,-169"/>
<polygon fill="black" stroke="black" points="270.91,-172.5 280.91,-169 270.91,-165.5 270.91,-172.5"/>
</g>
</g>
</svg>
