<?xml version="1.0" encoding="UTF-8" standalone="no"?>
<!DOCTYPE svg PUBLIC "-//W3C//DTD SVG 1.1//EN"
 "http://www.w3.org/Graphics/SVG/1.1/DTD/svg11.dtd">
<!-- Generated by graphviz version 2.47.0 (20210316.0004)
 -->
<!-- Title: dependencies Pages: 1 -->
<svg width="636pt" height="284pt"
 viewBox="0.00 0.00 636.00 284.00" xmlns="http://www.w3.org/2000/svg" xmlns:xlink="http://www.w3.org/1999/xlink">
<g id="graph0" class="graph" transform="scale(1 1) rotate(0) translate(4 280)">
<title>dependencies</title>
<polygon fill="white" stroke="transparent" points="-4,4 -4,-280 632,-280 632,4 -4,4"/>
<text text-anchor="start" x="293.01" y="-42.4" font-family="Times-12" font-weight="bold" font-size="14.00">Legend</text>
<polygon fill="#ffffb3" stroke="transparent" points="80,-10 80,-30 100,-30 100,-10 80,-10"/>
<text text-anchor="start" x="103.63" y="-15.4" font-family="Times-12" font-size="14.00"> &#160;Declarations</text>
<polygon fill="#8dd3c7" stroke="transparent" points="193,-10 193,-30 213,-30 213,-10 193,-10"/>
<text text-anchor="start" x="216.73" y="-15.4" font-family="Times-12" font-size="14.00"> &#160;Module</text>
<polygon fill="#80b1d3" stroke="transparent" points="279,-10 279,-30 299,-30 299,-10 279,-10"/>
<text text-anchor="start" x="302.78" y="-15.4" font-family="Times-12" font-size="14.00"> &#160;Bootstrap</text>
<polygon fill="#fdb462" stroke="transparent" points="376,-10 376,-30 396,-30 396,-10 376,-10"/>
<text text-anchor="start" x="399.67" y="-15.4" font-family="Times-12" font-size="14.00"> &#160;Providers</text>
<polygon fill="#fb8072" stroke="transparent" points="472,-10 472,-30 492,-30 492,-10 472,-10"/>
<text text-anchor="start" x="495.73" y="-15.4" font-family="Times-12" font-size="14.00"> &#160;Exports</text>
<g id="clust1" class="cluster">
<title>cluster_AffiliateAggregatedInfoModule</title>
<polygon fill="none" stroke="black" stroke-dasharray="1,5" points="8,-70 8,-268 620,-268 620,-70 8,-70"/>
</g>
<g id="clust6" class="cluster">
<title>cluster_AffiliateAggregatedInfoModule_providers</title>
<polygon fill="none" stroke="black" points="16,-78 16,-130 612,-130 612,-78 16,-78"/>
</g>
<g id="clust4" class="cluster">
<title>cluster_AffiliateAggregatedInfoModule_exports</title>
<polygon fill="none" stroke="black" points="200,-208 200,-260 414,-260 414,-208 200,-208"/>
</g>
<!-- AffiliateAggregatedInfoService  -->
<g id="node1" class="node">
<title>AffiliateAggregatedInfoService </title>
<polygon fill="#fb8072" stroke="black" points="405.52,-252 208.48,-252 208.48,-216 405.52,-216 405.52,-252"/>
<text text-anchor="middle" x="307" y="-229.8" font-family="Times,serif" font-size="14.00">AffiliateAggregatedInfoService </text>
</g>
<!-- AffiliateAggregatedInfoModule -->
<g id="node2" class="node">
<title>AffiliateAggregatedInfoModule</title>
<polygon fill="#8dd3c7" stroke="black" points="404.59,-187 401.59,-191 380.59,-191 377.59,-187 209.41,-187 209.41,-151 404.59,-151 404.59,-187"/>
<text text-anchor="middle" x="307" y="-164.8" font-family="Times,serif" font-size="14.00">AffiliateAggregatedInfoModule</text>
</g>
<!-- AffiliateAggregatedInfoModule&#45;&gt;AffiliateAggregatedInfoService  -->
<g id="edge1" class="edge">
<title>AffiliateAggregatedInfoModule&#45;&gt;AffiliateAggregatedInfoService </title>
<path fill="none" stroke="black" stroke-dasharray="5,2" d="M307,-187.11C307,-187.11 307,-205.99 307,-205.99"/>
<polygon fill="black" stroke="black" points="303.5,-205.99 307,-215.99 310.5,-205.99 303.5,-205.99"/>
</g>
<!-- AffiliateAggregatedInfoRepository -->
<g id="node3" class="node">
<title>AffiliateAggregatedInfoRepository</title>
<ellipse fill="#fdb462" stroke="black" cx="457" cy="-104" rx="147.01" ry="18"/>
<text text-anchor="middle" x="457" y="-99.8" font-family="Times,serif" font-size="14.00">AffiliateAggregatedInfoRepository</text>
</g>
<!-- AffiliateAggregatedInfoRepository&#45;&gt;AffiliateAggregatedInfoModule -->
<g id="edge2" class="edge">
<title>AffiliateAggregatedInfoRepository&#45;&gt;AffiliateAggregatedInfoModule</title>
<path fill="none" stroke="black" d="M357.27,-117.47C357.27,-117.47 357.27,-140.86 357.27,-140.86"/>
<polygon fill="black" stroke="black" points="353.77,-140.86 357.27,-150.86 360.77,-140.86 353.77,-140.86"/>
</g>
<!-- AffiliateAggregatedInfoService -->
<g id="node4" class="node">
<title>AffiliateAggregatedInfoService</title>
<ellipse fill="#fdb462" stroke="black" cx="158" cy="-104" rx="133.66" ry="18"/>
<text text-anchor="middle" x="158" y="-99.8" font-family="Times,serif" font-size="14.00">AffiliateAggregatedInfoService</text>
</g>
<!-- AffiliateAggregatedInfoService&#45;&gt;AffiliateAggregatedInfoModule -->
<g id="edge3" class="edge">
<title>AffiliateAggregatedInfoService&#45;&gt;AffiliateAggregatedInfoModule</title>
<path fill="none" stroke="black" d="M250.52,-117.15C250.52,-117.15 250.52,-140.69 250.52,-140.69"/>
<polygon fill="black" stroke="black" points="247.02,-140.69 250.52,-150.69 254.02,-140.69 247.02,-140.69"/>
</g>
</g>
</svg>
