<?xml version="1.0" encoding="UTF-8" standalone="no"?>
<!DOCTYPE svg PUBLIC "-//W3C//DTD SVG 1.1//EN"
 "http://www.w3.org/Graphics/SVG/1.1/DTD/svg11.dtd">
<!-- Generated by graphviz version 2.47.0 (20210316.0004)
 -->
<!-- Title: dependencies Pages: 1 -->
<svg width="671pt" height="284pt"
 viewBox="0.00 0.00 671.00 284.00" xmlns="http://www.w3.org/2000/svg" xmlns:xlink="http://www.w3.org/1999/xlink">
<g id="graph0" class="graph" transform="scale(1 1) rotate(0) translate(4 280)">
<title>dependencies</title>
<polygon fill="white" stroke="transparent" points="-4,4 -4,-280 667,-280 667,4 -4,4"/>
<text text-anchor="start" x="310.51" y="-42.4" font-family="Times-12" font-weight="bold" font-size="14.00">Legend</text>
<polygon fill="#ffffb3" stroke="transparent" points="97.5,-10 97.5,-30 117.5,-30 117.5,-10 97.5,-10"/>
<text text-anchor="start" x="121.13" y="-15.4" font-family="Times-12" font-size="14.00"> &#160;Declarations</text>
<polygon fill="#8dd3c7" stroke="transparent" points="210.5,-10 210.5,-30 230.5,-30 230.5,-10 210.5,-10"/>
<text text-anchor="start" x="234.23" y="-15.4" font-family="Times-12" font-size="14.00"> &#160;Module</text>
<polygon fill="#80b1d3" stroke="transparent" points="296.5,-10 296.5,-30 316.5,-30 316.5,-10 296.5,-10"/>
<text text-anchor="start" x="320.28" y="-15.4" font-family="Times-12" font-size="14.00"> &#160;Bootstrap</text>
<polygon fill="#fdb462" stroke="transparent" points="393.5,-10 393.5,-30 413.5,-30 413.5,-10 393.5,-10"/>
<text text-anchor="start" x="417.17" y="-15.4" font-family="Times-12" font-size="14.00"> &#160;Providers</text>
<polygon fill="#fb8072" stroke="transparent" points="489.5,-10 489.5,-30 509.5,-30 509.5,-10 489.5,-10"/>
<text text-anchor="start" x="513.23" y="-15.4" font-family="Times-12" font-size="14.00"> &#160;Exports</text>
<g id="clust1" class="cluster">
<title>cluster_ArbitrageModule</title>
<polygon fill="none" stroke="black" stroke-dasharray="1,5" points="8,-70 8,-268 655,-268 655,-70 8,-70"/>
</g>
<g id="clust6" class="cluster">
<title>cluster_ArbitrageModule_providers</title>
<polygon fill="none" stroke="black" points="423,-78 423,-130 647,-130 647,-78 423,-78"/>
</g>
<g id="clust4" class="cluster">
<title>cluster_ArbitrageModule_exports</title>
<polygon fill="none" stroke="black" points="246,-208 246,-260 416,-260 416,-208 246,-208"/>
</g>
<g id="clust3" class="cluster">
<title>cluster_ArbitrageModule_imports</title>
<polygon fill="none" stroke="black" points="16,-78 16,-130 415,-130 415,-78 16,-78"/>
</g>
<!-- ArbitrageActionModule -->
<g id="node1" class="node">
<title>ArbitrageActionModule</title>
<polygon fill="#8dd3c7" stroke="black" points="406.79,-122 403.79,-126 382.79,-126 379.79,-122 255.21,-122 255.21,-86 406.79,-86 406.79,-122"/>
<text text-anchor="middle" x="331" y="-99.8" font-family="Times,serif" font-size="14.00">ArbitrageActionModule</text>
</g>
<!-- ArbitrageModule -->
<g id="node3" class="node">
<title>ArbitrageModule</title>
<polygon fill="#8dd3c7" stroke="black" points="387.69,-187 384.69,-191 363.69,-191 360.69,-187 274.31,-187 274.31,-151 387.69,-151 387.69,-187"/>
<text text-anchor="middle" x="331" y="-164.8" font-family="Times,serif" font-size="14.00">ArbitrageModule</text>
</g>
<!-- ArbitrageActionModule&#45;&gt;ArbitrageModule -->
<g id="edge1" class="edge">
<title>ArbitrageActionModule&#45;&gt;ArbitrageModule</title>
<path fill="none" stroke="black" d="M331,-122.11C331,-122.11 331,-140.99 331,-140.99"/>
<polygon fill="black" stroke="black" points="327.5,-140.99 331,-150.99 334.5,-140.99 327.5,-140.99"/>
</g>
<!-- TrafficArbitrageRepositoryModule -->
<g id="node2" class="node">
<title>TrafficArbitrageRepositoryModule</title>
<polygon fill="#8dd3c7" stroke="black" points="237.98,-122 234.98,-126 213.98,-126 210.98,-122 24.02,-122 24.02,-86 237.98,-86 237.98,-122"/>
<text text-anchor="middle" x="131" y="-99.8" font-family="Times,serif" font-size="14.00">TrafficArbitrageRepositoryModule</text>
</g>
<!-- TrafficArbitrageRepositoryModule&#45;&gt;ArbitrageModule -->
<g id="edge2" class="edge">
<title>TrafficArbitrageRepositoryModule&#45;&gt;ArbitrageModule</title>
<path fill="none" stroke="black" d="M131,-122.11C131,-141.34 131,-169 131,-169 131,-169 264.22,-169 264.22,-169"/>
<polygon fill="black" stroke="black" points="264.22,-172.5 274.22,-169 264.22,-165.5 264.22,-172.5"/>
</g>
<!-- TrafficArbitrageService  -->
<g id="node4" class="node">
<title>TrafficArbitrageService </title>
<polygon fill="#fb8072" stroke="black" points="407.97,-252 254.03,-252 254.03,-216 407.97,-216 407.97,-252"/>
<text text-anchor="middle" x="331" y="-229.8" font-family="Times,serif" font-size="14.00">TrafficArbitrageService </text>
</g>
<!-- ArbitrageModule&#45;&gt;TrafficArbitrageService  -->
<g id="edge3" class="edge">
<title>ArbitrageModule&#45;&gt;TrafficArbitrageService </title>
<path fill="none" stroke="black" stroke-dasharray="5,2" d="M331,-187.11C331,-187.11 331,-205.99 331,-205.99"/>
<polygon fill="black" stroke="black" points="327.5,-205.99 331,-215.99 334.5,-205.99 327.5,-205.99"/>
</g>
<!-- TrafficArbitrageService -->
<g id="node5" class="node">
<title>TrafficArbitrageService</title>
<ellipse fill="#fdb462" stroke="black" cx="535" cy="-104" rx="103.58" ry="18"/>
<text text-anchor="middle" x="535" y="-99.8" font-family="Times,serif" font-size="14.00">TrafficArbitrageService</text>
</g>
<!-- TrafficArbitrageService&#45;&gt;ArbitrageModule -->
<g id="edge4" class="edge">
<title>TrafficArbitrageService&#45;&gt;ArbitrageModule</title>
<path fill="none" stroke="black" d="M535,-122.11C535,-141.34 535,-169 535,-169 535,-169 397.83,-169 397.83,-169"/>
<polygon fill="black" stroke="black" points="397.83,-165.5 387.83,-169 397.83,-172.5 397.83,-165.5"/>
</g>
</g>
</svg>
