<?xml version="1.0" encoding="UTF-8" standalone="no"?>
<!DOCTYPE svg PUBLIC "-//W3C//DTD SVG 1.1//EN"
 "http://www.w3.org/Graphics/SVG/1.1/DTD/svg11.dtd">
<!-- Generated by graphviz version 2.47.0 (20210316.0004)
 -->
<!-- Title: dependencies Pages: 1 -->
<svg width="567pt" height="284pt"
 viewBox="0.00 0.00 567.00 284.00" xmlns="http://www.w3.org/2000/svg" xmlns:xlink="http://www.w3.org/1999/xlink">
<g id="graph0" class="graph" transform="scale(1 1) rotate(0) translate(4 280)">
<title>dependencies</title>
<polygon fill="white" stroke="transparent" points="-4,4 -4,-280 563,-280 563,4 -4,4"/>
<text text-anchor="start" x="258.51" y="-42.4" font-family="Times-12" font-weight="bold" font-size="14.00">Legend</text>
<polygon fill="#ffffb3" stroke="transparent" points="45.5,-10 45.5,-30 65.5,-30 65.5,-10 45.5,-10"/>
<text text-anchor="start" x="69.13" y="-15.4" font-family="Times-12" font-size="14.00"> &#160;Declarations</text>
<polygon fill="#8dd3c7" stroke="transparent" points="158.5,-10 158.5,-30 178.5,-30 178.5,-10 158.5,-10"/>
<text text-anchor="start" x="182.23" y="-15.4" font-family="Times-12" font-size="14.00"> &#160;Module</text>
<polygon fill="#80b1d3" stroke="transparent" points="244.5,-10 244.5,-30 264.5,-30 264.5,-10 244.5,-10"/>
<text text-anchor="start" x="268.28" y="-15.4" font-family="Times-12" font-size="14.00"> &#160;Bootstrap</text>
<polygon fill="#fdb462" stroke="transparent" points="341.5,-10 341.5,-30 361.5,-30 361.5,-10 341.5,-10"/>
<text text-anchor="start" x="365.17" y="-15.4" font-family="Times-12" font-size="14.00"> &#160;Providers</text>
<polygon fill="#fb8072" stroke="transparent" points="437.5,-10 437.5,-30 457.5,-30 457.5,-10 437.5,-10"/>
<text text-anchor="start" x="461.23" y="-15.4" font-family="Times-12" font-size="14.00"> &#160;Exports</text>
<g id="clust1" class="cluster">
<title>cluster_CountryModule</title>
<polygon fill="none" stroke="black" stroke-dasharray="1,5" points="8,-70 8,-268 551,-268 551,-70 8,-70"/>
</g>
<g id="clust4" class="cluster">
<title>cluster_CountryModule_exports</title>
<polygon fill="none" stroke="black" points="141,-208 141,-260 403,-260 403,-208 141,-208"/>
</g>
<g id="clust6" class="cluster">
<title>cluster_CountryModule_providers</title>
<polygon fill="none" stroke="black" points="16,-78 16,-130 543,-130 543,-78 16,-78"/>
</g>
<!-- CountryService  -->
<g id="node1" class="node">
<title>CountryService </title>
<polygon fill="#fb8072" stroke="black" points="394.87,-252 287.13,-252 287.13,-216 394.87,-216 394.87,-252"/>
<text text-anchor="middle" x="341" y="-229.8" font-family="Times,serif" font-size="14.00">CountryService </text>
</g>
<!-- GeoCheckService  -->
<g id="node2" class="node">
<title>GeoCheckService </title>
<polygon fill="#fb8072" stroke="black" points="269.07,-252 148.93,-252 148.93,-216 269.07,-216 269.07,-252"/>
<text text-anchor="middle" x="209" y="-229.8" font-family="Times,serif" font-size="14.00">GeoCheckService </text>
</g>
<!-- CountryModule -->
<g id="node3" class="node">
<title>CountryModule</title>
<polygon fill="#8dd3c7" stroke="black" points="327.94,-187 324.94,-191 303.94,-191 300.94,-187 222.06,-187 222.06,-151 327.94,-151 327.94,-187"/>
<text text-anchor="middle" x="275" y="-164.8" font-family="Times,serif" font-size="14.00">CountryModule</text>
</g>
<!-- CountryModule&#45;&gt;CountryService  -->
<g id="edge1" class="edge">
<title>CountryModule&#45;&gt;CountryService </title>
<path fill="none" stroke="black" stroke-dasharray="5,2" d="M307.52,-187.11C307.52,-187.11 307.52,-205.99 307.52,-205.99"/>
<polygon fill="black" stroke="black" points="304.02,-205.99 307.52,-215.99 311.02,-205.99 304.02,-205.99"/>
</g>
<!-- CountryModule&#45;&gt;GeoCheckService  -->
<g id="edge2" class="edge">
<title>CountryModule&#45;&gt;GeoCheckService </title>
<path fill="none" stroke="black" stroke-dasharray="5,2" d="M245.78,-187.11C245.78,-187.11 245.78,-205.99 245.78,-205.99"/>
<polygon fill="black" stroke="black" points="242.28,-205.99 245.78,-215.99 249.28,-205.99 242.28,-205.99"/>
</g>
<!-- CountryRepository -->
<g id="node4" class="node">
<title>CountryRepository</title>
<ellipse fill="#fdb462" stroke="black" cx="450" cy="-104" rx="85.14" ry="18"/>
<text text-anchor="middle" x="450" y="-99.8" font-family="Times,serif" font-size="14.00">CountryRepository</text>
</g>
<!-- CountryRepository&#45;&gt;CountryModule -->
<g id="edge3" class="edge">
<title>CountryRepository&#45;&gt;CountryModule</title>
<path fill="none" stroke="black" d="M379.81,-114.44C379.81,-132.82 379.81,-169 379.81,-169 379.81,-169 338.02,-169 338.02,-169"/>
<polygon fill="black" stroke="black" points="338.02,-165.5 328.02,-169 338.02,-172.5 338.02,-165.5"/>
</g>
<!-- CountryService -->
<g id="node5" class="node">
<title>CountryService</title>
<ellipse fill="#fdb462" stroke="black" cx="275" cy="-104" rx="71.79" ry="18"/>
<text text-anchor="middle" x="275" y="-99.8" font-family="Times,serif" font-size="14.00">CountryService</text>
</g>
<!-- CountryService&#45;&gt;CountryModule -->
<g id="edge4" class="edge">
<title>CountryService&#45;&gt;CountryModule</title>
<path fill="none" stroke="black" d="M275,-122.11C275,-122.11 275,-140.99 275,-140.99"/>
<polygon fill="black" stroke="black" points="271.5,-140.99 275,-150.99 278.5,-140.99 271.5,-140.99"/>
</g>
<!-- GeoCheckService -->
<g id="node6" class="node">
<title>GeoCheckService</title>
<ellipse fill="#fdb462" stroke="black" cx="105" cy="-104" rx="81" ry="18"/>
<text text-anchor="middle" x="105" y="-99.8" font-family="Times,serif" font-size="14.00">GeoCheckService</text>
</g>
<!-- GeoCheckService&#45;&gt;CountryModule -->
<g id="edge5" class="edge">
<title>GeoCheckService&#45;&gt;CountryModule</title>
<path fill="none" stroke="black" d="M167.23,-115.62C167.23,-134.32 167.23,-169 167.23,-169 167.23,-169 212.06,-169 212.06,-169"/>
<polygon fill="black" stroke="black" points="212.06,-172.5 222.06,-169 212.06,-165.5 212.06,-172.5"/>
</g>
</g>
</svg>
