<?xml version="1.0" encoding="UTF-8" standalone="no"?>
<!DOCTYPE svg PUBLIC "-//W3C//DTD SVG 1.1//EN"
 "http://www.w3.org/Graphics/SVG/1.1/DTD/svg11.dtd">
<!-- Generated by graphviz version 2.47.0 (20210316.0004)
 -->
<!-- Title: dependencies Pages: 1 -->
<svg width="2406pt" height="284pt"
 viewBox="0.00 0.00 2406.00 284.00" xmlns="http://www.w3.org/2000/svg" xmlns:xlink="http://www.w3.org/1999/xlink">
<g id="graph0" class="graph" transform="scale(1 1) rotate(0) translate(4 280)">
<title>dependencies</title>
<polygon fill="white" stroke="transparent" points="-4,4 -4,-280 2402,-280 2402,4 -4,4"/>
<text text-anchor="start" x="1178.01" y="-42.4" font-family="Times-12" font-weight="bold" font-size="14.00">Legend</text>
<polygon fill="#ffffb3" stroke="transparent" points="965,-10 965,-30 985,-30 985,-10 965,-10"/>
<text text-anchor="start" x="988.63" y="-15.4" font-family="Times-12" font-size="14.00"> &#160;Declarations</text>
<polygon fill="#8dd3c7" stroke="transparent" points="1078,-10 1078,-30 1098,-30 1098,-10 1078,-10"/>
<text text-anchor="start" x="1101.73" y="-15.4" font-family="Times-12" font-size="14.00"> &#160;Module</text>
<polygon fill="#80b1d3" stroke="transparent" points="1164,-10 1164,-30 1184,-30 1184,-10 1164,-10"/>
<text text-anchor="start" x="1187.78" y="-15.4" font-family="Times-12" font-size="14.00"> &#160;Bootstrap</text>
<polygon fill="#fdb462" stroke="transparent" points="1261,-10 1261,-30 1281,-30 1281,-10 1261,-10"/>
<text text-anchor="start" x="1284.67" y="-15.4" font-family="Times-12" font-size="14.00"> &#160;Providers</text>
<polygon fill="#fb8072" stroke="transparent" points="1357,-10 1357,-30 1377,-30 1377,-10 1357,-10"/>
<text text-anchor="start" x="1380.73" y="-15.4" font-family="Times-12" font-size="14.00"> &#160;Exports</text>
<g id="clust1" class="cluster">
<title>cluster_UserStatsModule</title>
<polygon fill="none" stroke="black" stroke-dasharray="1,5" points="8,-70 8,-268 2390,-268 2390,-70 8,-70"/>
</g>
<g id="clust4" class="cluster">
<title>cluster_UserStatsModule_exports</title>
<polygon fill="none" stroke="black" points="834,-208 834,-260 1298,-260 1298,-208 834,-208"/>
</g>
<g id="clust6" class="cluster">
<title>cluster_UserStatsModule_providers</title>
<polygon fill="none" stroke="black" points="16,-78 16,-130 2382,-130 2382,-78 16,-78"/>
</g>
<!-- UserStatsMigrateService  -->
<g id="node1" class="node">
<title>UserStatsMigrateService </title>
<polygon fill="#fb8072" stroke="black" points="1289.94,-252 1130.06,-252 1130.06,-216 1289.94,-216 1289.94,-252"/>
<text text-anchor="middle" x="1210" y="-229.8" font-family="Times,serif" font-size="14.00">UserStatsMigrateService </text>
</g>
<!-- UserStatsService  -->
<g id="node2" class="node">
<title>UserStatsService </title>
<polygon fill="#fb8072" stroke="black" points="1112.63,-252 997.37,-252 997.37,-216 1112.63,-216 1112.63,-252"/>
<text text-anchor="middle" x="1055" y="-229.8" font-family="Times,serif" font-size="14.00">UserStatsService </text>
</g>
<!-- UserStatsUsdService  -->
<g id="node3" class="node">
<title>UserStatsUsdService </title>
<polygon fill="#fb8072" stroke="black" points="979.68,-252 842.32,-252 842.32,-216 979.68,-216 979.68,-252"/>
<text text-anchor="middle" x="911" y="-229.8" font-family="Times,serif" font-size="14.00">UserStatsUsdService </text>
</g>
<!-- UserStatsModule -->
<g id="node4" class="node">
<title>UserStatsModule</title>
<polygon fill="#8dd3c7" stroke="black" points="1111.7,-187 1108.7,-191 1087.7,-191 1084.7,-187 998.3,-187 998.3,-151 1111.7,-151 1111.7,-187"/>
<text text-anchor="middle" x="1055" y="-164.8" font-family="Times,serif" font-size="14.00">UserStatsModule</text>
</g>
<!-- UserStatsModule&#45;&gt;UserStatsMigrateService  -->
<g id="edge1" class="edge">
<title>UserStatsModule&#45;&gt;UserStatsMigrateService </title>
<path fill="none" stroke="black" stroke-dasharray="5,2" d="M1111.8,-181C1155.16,-181 1207.53,-181 1207.53,-181 1207.53,-181 1207.53,-205.76 1207.53,-205.76"/>
<polygon fill="black" stroke="black" points="1204.03,-205.76 1207.53,-215.76 1211.03,-205.76 1204.03,-205.76"/>
</g>
<!-- UserStatsModule&#45;&gt;UserStatsService  -->
<g id="edge2" class="edge">
<title>UserStatsModule&#45;&gt;UserStatsService </title>
<path fill="none" stroke="black" stroke-dasharray="5,2" d="M1055,-187.11C1055,-187.11 1055,-205.99 1055,-205.99"/>
<polygon fill="black" stroke="black" points="1051.5,-205.99 1055,-215.99 1058.5,-205.99 1051.5,-205.99"/>
</g>
<!-- UserStatsModule&#45;&gt;UserStatsUsdService  -->
<g id="edge3" class="edge">
<title>UserStatsModule&#45;&gt;UserStatsUsdService </title>
<path fill="none" stroke="black" stroke-dasharray="5,2" d="M998.09,-181C957.84,-181 911,-181 911,-181 911,-181 911,-205.76 911,-205.76"/>
<polygon fill="black" stroke="black" points="907.5,-205.76 911,-215.76 914.5,-205.76 907.5,-205.76"/>
</g>
<!-- UserStatsMigrateQueueProcessor -->
<g id="node5" class="node">
<title>UserStatsMigrateQueueProcessor</title>
<ellipse fill="#fdb462" stroke="black" cx="2233" cy="-104" rx="141.2" ry="18"/>
<text text-anchor="middle" x="2233" y="-99.8" font-family="Times,serif" font-size="14.00">UserStatsMigrateQueueProcessor</text>
</g>
<!-- UserStatsMigrateQueueProcessor&#45;&gt;UserStatsModule -->
<g id="edge4" class="edge">
<title>UserStatsMigrateQueueProcessor&#45;&gt;UserStatsModule</title>
<path fill="none" stroke="black" d="M2233,-122.28C2233,-143.32 2233,-175 2233,-175 2233,-175 1121.82,-175 1121.82,-175"/>
<polygon fill="black" stroke="black" points="1121.82,-171.5 1111.82,-175 1121.82,-178.5 1121.82,-171.5"/>
</g>
<!-- UserStatsMigrateQueueProducer -->
<g id="node6" class="node">
<title>UserStatsMigrateQueueProducer</title>
<ellipse fill="#fdb462" stroke="black" cx="1935" cy="-104" rx="138.84" ry="18"/>
<text text-anchor="middle" x="1935" y="-99.8" font-family="Times,serif" font-size="14.00">UserStatsMigrateQueueProducer</text>
</g>
<!-- UserStatsMigrateQueueProducer&#45;&gt;UserStatsModule -->
<g id="edge5" class="edge">
<title>UserStatsMigrateQueueProducer&#45;&gt;UserStatsModule</title>
<path fill="none" stroke="black" d="M1935,-122.11C1935,-141.34 1935,-169 1935,-169 1935,-169 1121.72,-169 1121.72,-169"/>
<polygon fill="black" stroke="black" points="1121.72,-165.5 1111.72,-169 1121.72,-172.5 1121.72,-165.5"/>
</g>
<!-- UserStatsMigrateRepository -->
<g id="node7" class="node">
<title>UserStatsMigrateRepository</title>
<ellipse fill="#fdb462" stroke="black" cx="1657" cy="-104" rx="120.98" ry="18"/>
<text text-anchor="middle" x="1657" y="-99.8" font-family="Times,serif" font-size="14.00">UserStatsMigrateRepository</text>
</g>
<!-- UserStatsMigrateRepository&#45;&gt;UserStatsModule -->
<g id="edge6" class="edge">
<title>UserStatsMigrateRepository&#45;&gt;UserStatsModule</title>
<path fill="none" stroke="black" d="M1657,-122.02C1657,-139.37 1657,-163 1657,-163 1657,-163 1121.63,-163 1121.63,-163"/>
<polygon fill="black" stroke="black" points="1121.63,-159.5 1111.63,-163 1121.63,-166.5 1121.63,-159.5"/>
</g>
<!-- UserStatsMigrateService -->
<g id="node8" class="node">
<title>UserStatsMigrateService</title>
<ellipse fill="#fdb462" stroke="black" cx="1410" cy="-104" rx="107.63" ry="18"/>
<text text-anchor="middle" x="1410" y="-99.8" font-family="Times,serif" font-size="14.00">UserStatsMigrateService</text>
</g>
<!-- UserStatsMigrateService&#45;&gt;UserStatsModule -->
<g id="edge7" class="edge">
<title>UserStatsMigrateService&#45;&gt;UserStatsModule</title>
<path fill="none" stroke="black" d="M1410,-122.24C1410,-137.57 1410,-157 1410,-157 1410,-157 1121.64,-157 1121.64,-157"/>
<polygon fill="black" stroke="black" points="1121.64,-153.5 1111.64,-157 1121.64,-160.5 1121.64,-153.5"/>
</g>
<!-- UserStatsQueueProcessor -->
<g id="node9" class="node">
<title>UserStatsQueueProcessor</title>
<ellipse fill="#fdb462" stroke="black" cx="1174" cy="-104" rx="110.57" ry="18"/>
<text text-anchor="middle" x="1174" y="-99.8" font-family="Times,serif" font-size="14.00">UserStatsQueueProcessor</text>
</g>
<!-- UserStatsQueueProcessor&#45;&gt;UserStatsModule -->
<g id="edge8" class="edge">
<title>UserStatsQueueProcessor&#45;&gt;UserStatsModule</title>
<path fill="none" stroke="black" d="M1087.41,-115.32C1087.41,-115.32 1087.41,-140.94 1087.41,-140.94"/>
<polygon fill="black" stroke="black" points="1083.91,-140.94 1087.41,-150.94 1090.91,-140.94 1083.91,-140.94"/>
</g>
<!-- UserStatsQueueProducer -->
<g id="node10" class="node">
<title>UserStatsQueueProducer</title>
<ellipse fill="#fdb462" stroke="black" cx="937" cy="-104" rx="108.2" ry="18"/>
<text text-anchor="middle" x="937" y="-99.8" font-family="Times,serif" font-size="14.00">UserStatsQueueProducer</text>
</g>
<!-- UserStatsQueueProducer&#45;&gt;UserStatsModule -->
<g id="edge9" class="edge">
<title>UserStatsQueueProducer&#45;&gt;UserStatsModule</title>
<path fill="none" stroke="black" d="M1021.75,-115.32C1021.75,-115.32 1021.75,-140.94 1021.75,-140.94"/>
<polygon fill="black" stroke="black" points="1018.25,-140.94 1021.75,-150.94 1025.25,-140.94 1018.25,-140.94"/>
</g>
<!-- UserStatsRepository -->
<g id="node11" class="node">
<title>UserStatsRepository</title>
<ellipse fill="#fdb462" stroke="black" cx="720" cy="-104" rx="90.34" ry="18"/>
<text text-anchor="middle" x="720" y="-99.8" font-family="Times,serif" font-size="14.00">UserStatsRepository</text>
</g>
<!-- UserStatsRepository&#45;&gt;UserStatsModule -->
<g id="edge10" class="edge">
<title>UserStatsRepository&#45;&gt;UserStatsModule</title>
<path fill="none" stroke="black" d="M720,-122.24C720,-137.57 720,-157 720,-157 720,-157 988.17,-157 988.17,-157"/>
<polygon fill="black" stroke="black" points="988.17,-160.5 998.17,-157 988.17,-153.5 988.17,-160.5"/>
</g>
<!-- UserStatsService -->
<g id="node12" class="node">
<title>UserStatsService</title>
<ellipse fill="#fdb462" stroke="black" cx="535" cy="-104" rx="77" ry="18"/>
<text text-anchor="middle" x="535" y="-99.8" font-family="Times,serif" font-size="14.00">UserStatsService</text>
</g>
<!-- UserStatsService&#45;&gt;UserStatsModule -->
<g id="edge11" class="edge">
<title>UserStatsService&#45;&gt;UserStatsModule</title>
<path fill="none" stroke="black" d="M535,-122.02C535,-139.37 535,-163 535,-163 535,-163 988.36,-163 988.36,-163"/>
<polygon fill="black" stroke="black" points="988.36,-166.5 998.36,-163 988.36,-159.5 988.36,-166.5"/>
</g>
<!-- UserStatsUsdRepository -->
<g id="node13" class="node">
<title>UserStatsUsdRepository</title>
<ellipse fill="#fdb462" stroke="black" cx="334" cy="-104" rx="105.95" ry="18"/>
<text text-anchor="middle" x="334" y="-99.8" font-family="Times,serif" font-size="14.00">UserStatsUsdRepository</text>
</g>
<!-- UserStatsUsdRepository&#45;&gt;UserStatsModule -->
<g id="edge12" class="edge">
<title>UserStatsUsdRepository&#45;&gt;UserStatsModule</title>
<path fill="none" stroke="black" d="M334,-122.11C334,-141.34 334,-169 334,-169 334,-169 988.12,-169 988.12,-169"/>
<polygon fill="black" stroke="black" points="988.12,-172.5 998.12,-169 988.12,-165.5 988.12,-172.5"/>
</g>
<!-- UserStatsUsdService -->
<g id="node14" class="node">
<title>UserStatsUsdService</title>
<ellipse fill="#fdb462" stroke="black" cx="117" cy="-104" rx="92.61" ry="18"/>
<text text-anchor="middle" x="117" y="-99.8" font-family="Times,serif" font-size="14.00">UserStatsUsdService</text>
</g>
<!-- UserStatsUsdService&#45;&gt;UserStatsModule -->
<g id="edge13" class="edge">
<title>UserStatsUsdService&#45;&gt;UserStatsModule</title>
<path fill="none" stroke="black" d="M117,-122.28C117,-143.32 117,-175 117,-175 117,-175 988.09,-175 988.09,-175"/>
<polygon fill="black" stroke="black" points="988.09,-178.5 998.09,-175 988.09,-171.5 988.09,-178.5"/>
</g>
</g>
</svg>
