<?xml version="1.0" encoding="UTF-8" standalone="no"?>
<!DOCTYPE svg PUBLIC "-//W3C//DTD SVG 1.1//EN"
 "http://www.w3.org/Graphics/SVG/1.1/DTD/svg11.dtd">
<!-- Generated by graphviz version 2.47.0 (20210316.0004)
 -->
<!-- Title: dependencies Pages: 1 -->
<svg width="1422pt" height="284pt"
 viewBox="0.00 0.00 1422.00 284.00" xmlns="http://www.w3.org/2000/svg" xmlns:xlink="http://www.w3.org/1999/xlink">
<g id="graph0" class="graph" transform="scale(1 1) rotate(0) translate(4 280)">
<title>dependencies</title>
<polygon fill="white" stroke="transparent" points="-4,4 -4,-280 1418,-280 1418,4 -4,4"/>
<text text-anchor="start" x="686.01" y="-42.4" font-family="Times-12" font-weight="bold" font-size="14.00">Legend</text>
<polygon fill="#ffffb3" stroke="transparent" points="473,-10 473,-30 493,-30 493,-10 473,-10"/>
<text text-anchor="start" x="496.63" y="-15.4" font-family="Times-12" font-size="14.00"> &#160;Declarations</text>
<polygon fill="#8dd3c7" stroke="transparent" points="586,-10 586,-30 606,-30 606,-10 586,-10"/>
<text text-anchor="start" x="609.73" y="-15.4" font-family="Times-12" font-size="14.00"> &#160;Module</text>
<polygon fill="#80b1d3" stroke="transparent" points="672,-10 672,-30 692,-30 692,-10 672,-10"/>
<text text-anchor="start" x="695.78" y="-15.4" font-family="Times-12" font-size="14.00"> &#160;Bootstrap</text>
<polygon fill="#fdb462" stroke="transparent" points="769,-10 769,-30 789,-30 789,-10 769,-10"/>
<text text-anchor="start" x="792.67" y="-15.4" font-family="Times-12" font-size="14.00"> &#160;Providers</text>
<polygon fill="#fb8072" stroke="transparent" points="865,-10 865,-30 885,-30 885,-10 865,-10"/>
<text text-anchor="start" x="888.73" y="-15.4" font-family="Times-12" font-size="14.00"> &#160;Exports</text>
<g id="clust1" class="cluster">
<title>cluster_LiveBetsModule</title>
<polygon fill="none" stroke="black" stroke-dasharray="1,5" points="8,-70 8,-268 1406,-268 1406,-70 8,-70"/>
</g>
<g id="clust3" class="cluster">
<title>cluster_LiveBetsModule_imports</title>
<polygon fill="none" stroke="black" points="1252,-78 1252,-130 1398,-130 1398,-78 1252,-78"/>
</g>
<g id="clust4" class="cluster">
<title>cluster_LiveBetsModule_exports</title>
<polygon fill="none" stroke="black" points="592,-208 592,-260 720,-260 720,-208 592,-208"/>
</g>
<g id="clust6" class="cluster">
<title>cluster_LiveBetsModule_providers</title>
<polygon fill="none" stroke="black" points="16,-78 16,-130 1244,-130 1244,-78 16,-78"/>
</g>
<!-- GatewayApiModule -->
<g id="node1" class="node">
<title>GatewayApiModule</title>
<polygon fill="#8dd3c7" stroke="black" points="1390.29,-122 1387.29,-126 1366.29,-126 1363.29,-122 1259.71,-122 1259.71,-86 1390.29,-86 1390.29,-122"/>
<text text-anchor="middle" x="1325" y="-99.8" font-family="Times,serif" font-size="14.00">GatewayApiModule</text>
</g>
<!-- LiveBetsModule -->
<g id="node2" class="node">
<title>LiveBetsModule</title>
<polygon fill="#8dd3c7" stroke="black" points="711.09,-187 708.09,-191 687.09,-191 684.09,-187 600.91,-187 600.91,-151 711.09,-151 711.09,-187"/>
<text text-anchor="middle" x="656" y="-164.8" font-family="Times,serif" font-size="14.00">LiveBetsModule</text>
</g>
<!-- GatewayApiModule&#45;&gt;LiveBetsModule -->
<g id="edge1" class="edge">
<title>GatewayApiModule&#45;&gt;LiveBetsModule</title>
<path fill="none" stroke="black" d="M1325,-122.29C1325,-144.21 1325,-178 1325,-178 1325,-178 721.32,-178 721.32,-178"/>
<polygon fill="black" stroke="black" points="721.32,-174.5 711.32,-178 721.32,-181.5 721.32,-174.5"/>
</g>
<!-- LiveBetsService  -->
<g id="node3" class="node">
<title>LiveBetsService </title>
<polygon fill="#fb8072" stroke="black" points="712.02,-252 599.98,-252 599.98,-216 712.02,-216 712.02,-252"/>
<text text-anchor="middle" x="656" y="-229.8" font-family="Times,serif" font-size="14.00">LiveBetsService </text>
</g>
<!-- LiveBetsModule&#45;&gt;LiveBetsService  -->
<g id="edge2" class="edge">
<title>LiveBetsModule&#45;&gt;LiveBetsService </title>
<path fill="none" stroke="black" stroke-dasharray="5,2" d="M656,-187.11C656,-187.11 656,-205.99 656,-205.99"/>
<polygon fill="black" stroke="black" points="652.5,-205.99 656,-215.99 659.5,-205.99 652.5,-205.99"/>
</g>
<!-- LiveBetsCacheRepository -->
<g id="node4" class="node">
<title>LiveBetsCacheRepository</title>
<ellipse fill="#fdb462" stroke="black" cx="1124" cy="-104" rx="112.32" ry="18"/>
<text text-anchor="middle" x="1124" y="-99.8" font-family="Times,serif" font-size="14.00">LiveBetsCacheRepository</text>
</g>
<!-- LiveBetsCacheRepository&#45;&gt;LiveBetsModule -->
<g id="edge3" class="edge">
<title>LiveBetsCacheRepository&#45;&gt;LiveBetsModule</title>
<path fill="none" stroke="black" d="M1124,-122.11C1124,-141.34 1124,-169 1124,-169 1124,-169 721.06,-169 721.06,-169"/>
<polygon fill="black" stroke="black" points="721.06,-165.5 711.06,-169 721.06,-172.5 721.06,-165.5"/>
</g>
<!-- LiveBetsCacheService -->
<g id="node5" class="node">
<title>LiveBetsCacheService</title>
<ellipse fill="#fdb462" stroke="black" cx="895" cy="-104" rx="98.97" ry="18"/>
<text text-anchor="middle" x="895" y="-99.8" font-family="Times,serif" font-size="14.00">LiveBetsCacheService</text>
</g>
<!-- LiveBetsCacheService&#45;&gt;LiveBetsModule -->
<g id="edge4" class="edge">
<title>LiveBetsCacheService&#45;&gt;LiveBetsModule</title>
<path fill="none" stroke="black" d="M895,-122.03C895,-138.4 895,-160 895,-160 895,-160 721.13,-160 721.13,-160"/>
<polygon fill="black" stroke="black" points="721.13,-156.5 711.13,-160 721.13,-163.5 721.13,-156.5"/>
</g>
<!-- LiveBetsNotificationService -->
<g id="node6" class="node">
<title>LiveBetsNotificationService</title>
<ellipse fill="#fdb462" stroke="black" cx="656" cy="-104" rx="121.54" ry="18"/>
<text text-anchor="middle" x="656" y="-99.8" font-family="Times,serif" font-size="14.00">LiveBetsNotificationService</text>
</g>
<!-- LiveBetsNotificationService&#45;&gt;LiveBetsModule -->
<g id="edge5" class="edge">
<title>LiveBetsNotificationService&#45;&gt;LiveBetsModule</title>
<path fill="none" stroke="black" d="M656,-122.11C656,-122.11 656,-140.99 656,-140.99"/>
<polygon fill="black" stroke="black" points="652.5,-140.99 656,-150.99 659.5,-140.99 652.5,-140.99"/>
</g>
<!-- LiveBetsRepository -->
<g id="node7" class="node">
<title>LiveBetsRepository</title>
<ellipse fill="#fdb462" stroke="black" cx="428" cy="-104" rx="88.06" ry="18"/>
<text text-anchor="middle" x="428" y="-99.8" font-family="Times,serif" font-size="14.00">LiveBetsRepository</text>
</g>
<!-- LiveBetsRepository&#45;&gt;LiveBetsModule -->
<g id="edge6" class="edge">
<title>LiveBetsRepository&#45;&gt;LiveBetsModule</title>
<path fill="none" stroke="black" d="M428,-122.03C428,-138.4 428,-160 428,-160 428,-160 590.81,-160 590.81,-160"/>
<polygon fill="black" stroke="black" points="590.81,-163.5 600.81,-160 590.81,-156.5 590.81,-163.5"/>
</g>
<!-- LiveBetsService -->
<g id="node8" class="node">
<title>LiveBetsService</title>
<ellipse fill="#fdb462" stroke="black" cx="247" cy="-104" rx="74.71" ry="18"/>
<text text-anchor="middle" x="247" y="-99.8" font-family="Times,serif" font-size="14.00">LiveBetsService</text>
</g>
<!-- LiveBetsService&#45;&gt;LiveBetsModule -->
<g id="edge7" class="edge">
<title>LiveBetsService&#45;&gt;LiveBetsModule</title>
<path fill="none" stroke="black" d="M247,-122.11C247,-141.34 247,-169 247,-169 247,-169 590.84,-169 590.84,-169"/>
<polygon fill="black" stroke="black" points="590.84,-172.5 600.84,-169 590.84,-165.5 590.84,-172.5"/>
</g>
<!-- LiveBetsUtils -->
<g id="node9" class="node">
<title>LiveBetsUtils</title>
<ellipse fill="#fdb462" stroke="black" cx="89" cy="-104" rx="64.86" ry="18"/>
<text text-anchor="middle" x="89" y="-99.8" font-family="Times,serif" font-size="14.00">LiveBetsUtils</text>
</g>
<!-- LiveBetsUtils&#45;&gt;LiveBetsModule -->
<g id="edge8" class="edge">
<title>LiveBetsUtils&#45;&gt;LiveBetsModule</title>
<path fill="none" stroke="black" d="M89,-122.29C89,-144.21 89,-178 89,-178 89,-178 590.86,-178 590.86,-178"/>
<polygon fill="black" stroke="black" points="590.86,-181.5 600.86,-178 590.86,-174.5 590.86,-181.5"/>
</g>
</g>
</svg>
