<?xml version="1.0" encoding="UTF-8" standalone="no"?>
<!DOCTYPE svg PUBLIC "-//W3C//DTD SVG 1.1//EN"
 "http://www.w3.org/Graphics/SVG/1.1/DTD/svg11.dtd">
<!-- Generated by graphviz version 2.47.0 (20210316.0004)
 -->
<!-- Title: dependencies Pages: 1 -->
<svg width="744pt" height="284pt"
 viewBox="0.00 0.00 744.00 284.00" xmlns="http://www.w3.org/2000/svg" xmlns:xlink="http://www.w3.org/1999/xlink">
<g id="graph0" class="graph" transform="scale(1 1) rotate(0) translate(4 280)">
<title>dependencies</title>
<polygon fill="white" stroke="transparent" points="-4,4 -4,-280 740,-280 740,4 -4,4"/>
<text text-anchor="start" x="347.01" y="-42.4" font-family="Times-12" font-weight="bold" font-size="14.00">Legend</text>
<polygon fill="#ffffb3" stroke="transparent" points="134,-10 134,-30 154,-30 154,-10 134,-10"/>
<text text-anchor="start" x="157.63" y="-15.4" font-family="Times-12" font-size="14.00"> &#160;Declarations</text>
<polygon fill="#8dd3c7" stroke="transparent" points="247,-10 247,-30 267,-30 267,-10 247,-10"/>
<text text-anchor="start" x="270.73" y="-15.4" font-family="Times-12" font-size="14.00"> &#160;Module</text>
<polygon fill="#80b1d3" stroke="transparent" points="333,-10 333,-30 353,-30 353,-10 333,-10"/>
<text text-anchor="start" x="356.78" y="-15.4" font-family="Times-12" font-size="14.00"> &#160;Bootstrap</text>
<polygon fill="#fdb462" stroke="transparent" points="430,-10 430,-30 450,-30 450,-10 430,-10"/>
<text text-anchor="start" x="453.67" y="-15.4" font-family="Times-12" font-size="14.00"> &#160;Providers</text>
<polygon fill="#fb8072" stroke="transparent" points="526,-10 526,-30 546,-30 546,-10 526,-10"/>
<text text-anchor="start" x="549.73" y="-15.4" font-family="Times-12" font-size="14.00"> &#160;Exports</text>
<g id="clust1" class="cluster">
<title>cluster_RouletteModule</title>
<polygon fill="none" stroke="black" stroke-dasharray="1,5" points="8,-70 8,-268 728,-268 728,-70 8,-70"/>
</g>
<g id="clust3" class="cluster">
<title>cluster_RouletteModule_imports</title>
<polygon fill="none" stroke="black" points="186,-78 186,-130 720,-130 720,-78 186,-78"/>
</g>
<g id="clust4" class="cluster">
<title>cluster_RouletteModule_exports</title>
<polygon fill="none" stroke="black" points="360,-208 360,-260 484,-260 484,-208 360,-208"/>
</g>
<g id="clust6" class="cluster">
<title>cluster_RouletteModule_providers</title>
<polygon fill="none" stroke="black" points="16,-78 16,-130 178,-130 178,-78 16,-78"/>
</g>
<!-- BetModule -->
<g id="node1" class="node">
<title>BetModule</title>
<polygon fill="#8dd3c7" stroke="black" points="712.49,-122 709.49,-126 688.49,-126 685.49,-122 633.51,-122 633.51,-86 712.49,-86 712.49,-122"/>
<text text-anchor="middle" x="673" y="-99.8" font-family="Times,serif" font-size="14.00">BetModule</text>
</g>
<!-- RouletteModule -->
<g id="node5" class="node">
<title>RouletteModule</title>
<polygon fill="#8dd3c7" stroke="black" points="475.49,-187 472.49,-191 451.49,-191 448.49,-187 368.51,-187 368.51,-151 475.49,-151 475.49,-187"/>
<text text-anchor="middle" x="422" y="-164.8" font-family="Times,serif" font-size="14.00">RouletteModule</text>
</g>
<!-- BetModule&#45;&gt;RouletteModule -->
<g id="edge1" class="edge">
<title>BetModule&#45;&gt;RouletteModule</title>
<path fill="none" stroke="black" d="M673,-122.28C673,-143.32 673,-175 673,-175 673,-175 485.54,-175 485.54,-175"/>
<polygon fill="black" stroke="black" points="485.54,-171.5 475.54,-175 485.54,-178.5 485.54,-171.5"/>
</g>
<!-- GamesModule -->
<g id="node2" class="node">
<title>GamesModule</title>
<polygon fill="#8dd3c7" stroke="black" points="615.42,-122 612.42,-126 591.42,-126 588.42,-122 516.58,-122 516.58,-86 615.42,-86 615.42,-122"/>
<text text-anchor="middle" x="566" y="-99.8" font-family="Times,serif" font-size="14.00">GamesModule</text>
</g>
<!-- GamesModule&#45;&gt;RouletteModule -->
<g id="edge2" class="edge">
<title>GamesModule&#45;&gt;RouletteModule</title>
<path fill="none" stroke="black" d="M566,-122.02C566,-139.37 566,-163 566,-163 566,-163 485.62,-163 485.62,-163"/>
<polygon fill="black" stroke="black" points="485.62,-159.5 475.62,-163 485.62,-166.5 485.62,-159.5"/>
</g>
<!-- HouseValidationModule -->
<g id="node3" class="node">
<title>HouseValidationModule</title>
<polygon fill="#8dd3c7" stroke="black" points="499.41,-122 496.41,-126 475.41,-126 472.41,-122 344.59,-122 344.59,-86 499.41,-86 499.41,-122"/>
<text text-anchor="middle" x="422" y="-99.8" font-family="Times,serif" font-size="14.00">HouseValidationModule</text>
</g>
<!-- HouseValidationModule&#45;&gt;RouletteModule -->
<g id="edge3" class="edge">
<title>HouseValidationModule&#45;&gt;RouletteModule</title>
<path fill="none" stroke="black" d="M422,-122.11C422,-122.11 422,-140.99 422,-140.99"/>
<polygon fill="black" stroke="black" points="418.5,-140.99 422,-150.99 425.5,-140.99 418.5,-140.99"/>
</g>
<!-- ProvablyFairModule -->
<g id="node4" class="node">
<title>ProvablyFairModule</title>
<polygon fill="#8dd3c7" stroke="black" points="326.15,-122 323.15,-126 302.15,-126 299.15,-122 193.85,-122 193.85,-86 326.15,-86 326.15,-122"/>
<text text-anchor="middle" x="260" y="-99.8" font-family="Times,serif" font-size="14.00">ProvablyFairModule</text>
</g>
<!-- ProvablyFairModule&#45;&gt;RouletteModule -->
<g id="edge4" class="edge">
<title>ProvablyFairModule&#45;&gt;RouletteModule</title>
<path fill="none" stroke="black" d="M260,-122.02C260,-139.37 260,-163 260,-163 260,-163 358.51,-163 358.51,-163"/>
<polygon fill="black" stroke="black" points="358.51,-166.5 368.51,-163 358.51,-159.5 358.51,-166.5"/>
</g>
<!-- RouletteService  -->
<g id="node6" class="node">
<title>RouletteService </title>
<polygon fill="#fb8072" stroke="black" points="476.42,-252 367.58,-252 367.58,-216 476.42,-216 476.42,-252"/>
<text text-anchor="middle" x="422" y="-229.8" font-family="Times,serif" font-size="14.00">RouletteService </text>
</g>
<!-- RouletteModule&#45;&gt;RouletteService  -->
<g id="edge5" class="edge">
<title>RouletteModule&#45;&gt;RouletteService </title>
<path fill="none" stroke="black" stroke-dasharray="5,2" d="M422,-187.11C422,-187.11 422,-205.99 422,-205.99"/>
<polygon fill="black" stroke="black" points="418.5,-205.99 422,-215.99 425.5,-205.99 418.5,-205.99"/>
</g>
<!-- RouletteService -->
<g id="node7" class="node">
<title>RouletteService</title>
<ellipse fill="#fdb462" stroke="black" cx="97" cy="-104" rx="72.93" ry="18"/>
<text text-anchor="middle" x="97" y="-99.8" font-family="Times,serif" font-size="14.00">RouletteService</text>
</g>
<!-- RouletteService&#45;&gt;RouletteModule -->
<g id="edge6" class="edge">
<title>RouletteService&#45;&gt;RouletteModule</title>
<path fill="none" stroke="black" d="M97,-122.28C97,-143.32 97,-175 97,-175 97,-175 358.33,-175 358.33,-175"/>
<polygon fill="black" stroke="black" points="358.33,-178.5 368.33,-175 358.33,-171.5 358.33,-178.5"/>
</g>
</g>
</svg>
