<?xml version="1.0" encoding="UTF-8" standalone="no"?>
<!DOCTYPE svg PUBLIC "-//W3C//DTD SVG 1.1//EN"
 "http://www.w3.org/Graphics/SVG/1.1/DTD/svg11.dtd">
<!-- Generated by graphviz version 2.47.0 (20210316.0004)
 -->
<!-- Title: dependencies Pages: 1 -->
<svg width="3021pt" height="284pt"
 viewBox="0.00 0.00 3021.00 284.00" xmlns="http://www.w3.org/2000/svg" xmlns:xlink="http://www.w3.org/1999/xlink">
<g id="graph0" class="graph" transform="scale(1 1) rotate(0) translate(4 280)">
<title>dependencies</title>
<polygon fill="white" stroke="transparent" points="-4,4 -4,-280 3017,-280 3017,4 -4,4"/>
<text text-anchor="start" x="1485.51" y="-42.4" font-family="Times-12" font-weight="bold" font-size="14.00">Legend</text>
<polygon fill="#ffffb3" stroke="transparent" points="1272.5,-10 1272.5,-30 1292.5,-30 1292.5,-10 1272.5,-10"/>
<text text-anchor="start" x="1296.13" y="-15.4" font-family="Times-12" font-size="14.00"> &#160;Declarations</text>
<polygon fill="#8dd3c7" stroke="transparent" points="1385.5,-10 1385.5,-30 1405.5,-30 1405.5,-10 1385.5,-10"/>
<text text-anchor="start" x="1409.23" y="-15.4" font-family="Times-12" font-size="14.00"> &#160;Module</text>
<polygon fill="#80b1d3" stroke="transparent" points="1471.5,-10 1471.5,-30 1491.5,-30 1491.5,-10 1471.5,-10"/>
<text text-anchor="start" x="1495.28" y="-15.4" font-family="Times-12" font-size="14.00"> &#160;Bootstrap</text>
<polygon fill="#fdb462" stroke="transparent" points="1568.5,-10 1568.5,-30 1588.5,-30 1588.5,-10 1568.5,-10"/>
<text text-anchor="start" x="1592.17" y="-15.4" font-family="Times-12" font-size="14.00"> &#160;Providers</text>
<polygon fill="#fb8072" stroke="transparent" points="1664.5,-10 1664.5,-30 1684.5,-30 1684.5,-10 1664.5,-10"/>
<text text-anchor="start" x="1688.23" y="-15.4" font-family="Times-12" font-size="14.00"> &#160;Exports</text>
<g id="clust1" class="cluster">
<title>cluster_AccountingModule</title>
<polygon fill="none" stroke="black" stroke-dasharray="1,5" points="8,-70 8,-268 3005,-268 3005,-70 8,-70"/>
</g>
<g id="clust3" class="cluster">
<title>cluster_AccountingModule_imports</title>
<polygon fill="none" stroke="black" points="2546,-78 2546,-130 2997,-130 2997,-78 2546,-78"/>
</g>
<g id="clust4" class="cluster">
<title>cluster_AccountingModule_exports</title>
<polygon fill="none" stroke="black" points="1177,-208 1177,-260 1925,-260 1925,-208 1177,-208"/>
</g>
<g id="clust6" class="cluster">
<title>cluster_AccountingModule_providers</title>
<polygon fill="none" stroke="black" points="16,-78 16,-130 2538,-130 2538,-78 16,-78"/>
</g>
<!-- GatewayApiModule -->
<g id="node1" class="node">
<title>GatewayApiModule</title>
<polygon fill="#8dd3c7" stroke="black" points="2989.29,-122 2986.29,-126 2965.29,-126 2962.29,-122 2858.71,-122 2858.71,-86 2989.29,-86 2989.29,-122"/>
<text text-anchor="middle" x="2924" y="-99.8" font-family="Times,serif" font-size="14.00">GatewayApiModule</text>
</g>
<!-- AccountingModule -->
<g id="node4" class="node">
<title>AccountingModule</title>
<polygon fill="#8dd3c7" stroke="black" points="1600.37,-187 1597.37,-191 1576.37,-191 1573.37,-187 1475.63,-187 1475.63,-151 1600.37,-151 1600.37,-187"/>
<text text-anchor="middle" x="1538" y="-164.8" font-family="Times,serif" font-size="14.00">AccountingModule</text>
</g>
<!-- GatewayApiModule&#45;&gt;AccountingModule -->
<g id="edge1" class="edge">
<title>GatewayApiModule&#45;&gt;AccountingModule</title>
<path fill="none" stroke="black" d="M2924,-122.04C2924,-143.66 2924,-177 2924,-177 2924,-177 1610.7,-177 1610.7,-177"/>
<polygon fill="black" stroke="black" points="1610.7,-173.5 1600.7,-177 1610.7,-180.5 1610.7,-173.5"/>
</g>
<!-- NotificationModule -->
<g id="node2" class="node">
<title>NotificationModule</title>
<polygon fill="#8dd3c7" stroke="black" points="2840.7,-122 2837.7,-126 2816.7,-126 2813.7,-122 2713.3,-122 2713.3,-86 2840.7,-86 2840.7,-122"/>
<text text-anchor="middle" x="2777" y="-99.8" font-family="Times,serif" font-size="14.00">NotificationModule</text>
</g>
<!-- NotificationModule&#45;&gt;AccountingModule -->
<g id="edge2" class="edge">
<title>NotificationModule&#45;&gt;AccountingModule</title>
<path fill="none" stroke="black" d="M2777,-122.13C2777,-142.57 2777,-173 2777,-173 2777,-173 1610.72,-173 1610.72,-173"/>
<polygon fill="black" stroke="black" points="1610.72,-169.5 1600.72,-173 1610.72,-176.5 1610.72,-169.5"/>
</g>
<!-- SiteConfigApiModule -->
<g id="node3" class="node">
<title>SiteConfigApiModule</title>
<polygon fill="#8dd3c7" stroke="black" points="2695.71,-122 2692.71,-126 2671.71,-126 2668.71,-122 2554.29,-122 2554.29,-86 2695.71,-86 2695.71,-122"/>
<text text-anchor="middle" x="2625" y="-99.8" font-family="Times,serif" font-size="14.00">SiteConfigApiModule</text>
</g>
<!-- SiteConfigApiModule&#45;&gt;AccountingModule -->
<g id="edge3" class="edge">
<title>SiteConfigApiModule&#45;&gt;AccountingModule</title>
<path fill="none" stroke="black" d="M2625,-122.11C2625,-141.34 2625,-169 2625,-169 2625,-169 1610.74,-169 1610.74,-169"/>
<polygon fill="black" stroke="black" points="1610.74,-165.5 1600.74,-169 1610.74,-172.5 1610.74,-165.5"/>
</g>
<!-- AccountingEventService  -->
<g id="node5" class="node">
<title>AccountingEventService </title>
<polygon fill="#fb8072" stroke="black" points="1916.95,-252 1757.05,-252 1757.05,-216 1916.95,-216 1916.95,-252"/>
<text text-anchor="middle" x="1837" y="-229.8" font-family="Times,serif" font-size="14.00">AccountingEventService </text>
</g>
<!-- AccountingModule&#45;&gt;AccountingEventService  -->
<g id="edge4" class="edge">
<title>AccountingModule&#45;&gt;AccountingEventService </title>
<path fill="none" stroke="black" stroke-dasharray="5,2" d="M1600.7,-180C1685.23,-180 1825.31,-180 1825.31,-180 1825.31,-180 1825.31,-205.72 1825.31,-205.72"/>
<polygon fill="black" stroke="black" points="1821.81,-205.72 1825.31,-215.72 1828.81,-205.72 1821.81,-205.72"/>
</g>
<!-- AccountingService  -->
<g id="node6" class="node">
<title>AccountingService </title>
<polygon fill="#fb8072" stroke="black" points="1739.29,-252 1612.71,-252 1612.71,-216 1739.29,-216 1739.29,-252"/>
<text text-anchor="middle" x="1676" y="-229.8" font-family="Times,serif" font-size="14.00">AccountingService </text>
</g>
<!-- AccountingModule&#45;&gt;AccountingService  -->
<g id="edge5" class="edge">
<title>AccountingModule&#45;&gt;AccountingService </title>
<path fill="none" stroke="black" stroke-dasharray="5,2" d="M1600.48,-184C1628.24,-184 1654.76,-184 1654.76,-184 1654.76,-184 1654.76,-205.95 1654.76,-205.95"/>
<polygon fill="black" stroke="black" points="1651.26,-205.95 1654.76,-215.95 1658.26,-205.95 1651.26,-205.95"/>
</g>
<!-- CurrencyService  -->
<g id="node7" class="node">
<title>CurrencyService </title>
<polygon fill="#fb8072" stroke="black" points="1594.57,-252 1481.43,-252 1481.43,-216 1594.57,-216 1594.57,-252"/>
<text text-anchor="middle" x="1538" y="-229.8" font-family="Times,serif" font-size="14.00">CurrencyService </text>
</g>
<!-- AccountingModule&#45;&gt;CurrencyService  -->
<g id="edge6" class="edge">
<title>AccountingModule&#45;&gt;CurrencyService </title>
<path fill="none" stroke="black" stroke-dasharray="5,2" d="M1538,-187.11C1538,-187.11 1538,-205.99 1538,-205.99"/>
<polygon fill="black" stroke="black" points="1534.5,-205.99 1538,-215.99 1541.5,-205.99 1534.5,-205.99"/>
</g>
<!-- TransactionService  -->
<g id="node8" class="node">
<title>TransactionService </title>
<polygon fill="#fb8072" stroke="black" points="1462.56,-252 1335.44,-252 1335.44,-216 1462.56,-216 1462.56,-252"/>
<text text-anchor="middle" x="1399" y="-229.8" font-family="Times,serif" font-size="14.00">TransactionService </text>
</g>
<!-- AccountingModule&#45;&gt;TransactionService  -->
<g id="edge7" class="edge">
<title>AccountingModule&#45;&gt;TransactionService </title>
<path fill="none" stroke="black" stroke-dasharray="5,2" d="M1475.34,-184C1448.33,-184 1422.8,-184 1422.8,-184 1422.8,-184 1422.8,-205.95 1422.8,-205.95"/>
<polygon fill="black" stroke="black" points="1419.3,-205.95 1422.8,-215.95 1426.3,-205.95 1419.3,-205.95"/>
</g>
<!-- UserBalanceService  -->
<g id="node9" class="node">
<title>UserBalanceService </title>
<polygon fill="#fb8072" stroke="black" points="1317.49,-252 1184.51,-252 1184.51,-216 1317.49,-216 1317.49,-252"/>
<text text-anchor="middle" x="1251" y="-229.8" font-family="Times,serif" font-size="14.00">UserBalanceService </text>
</g>
<!-- AccountingModule&#45;&gt;UserBalanceService  -->
<g id="edge8" class="edge">
<title>AccountingModule&#45;&gt;UserBalanceService </title>
<path fill="none" stroke="black" stroke-dasharray="5,2" d="M1475.52,-180C1392.59,-180 1256.49,-180 1256.49,-180 1256.49,-180 1256.49,-205.72 1256.49,-205.72"/>
<polygon fill="black" stroke="black" points="1252.99,-205.72 1256.49,-215.72 1259.99,-205.72 1252.99,-205.72"/>
</g>
<!-- AccountingEventService -->
<g id="node10" class="node">
<title>AccountingEventService</title>
<ellipse fill="#fdb462" stroke="black" cx="2422" cy="-104" rx="107.65" ry="18"/>
<text text-anchor="middle" x="2422" y="-99.8" font-family="Times,serif" font-size="14.00">AccountingEventService</text>
</g>
<!-- AccountingEventService&#45;&gt;AccountingModule -->
<g id="edge9" class="edge">
<title>AccountingEventService&#45;&gt;AccountingModule</title>
<path fill="none" stroke="black" d="M2422,-122.27C2422,-140.56 2422,-166 2422,-166 2422,-166 1610.51,-166 1610.51,-166"/>
<polygon fill="black" stroke="black" points="1610.51,-162.5 1600.51,-166 1610.51,-169.5 1610.51,-162.5"/>
</g>
<!-- AccountingRepository -->
<g id="node11" class="node">
<title>AccountingRepository</title>
<ellipse fill="#fdb462" stroke="black" cx="2198" cy="-104" rx="98.44" ry="18"/>
<text text-anchor="middle" x="2198" y="-99.8" font-family="Times,serif" font-size="14.00">AccountingRepository</text>
</g>
<!-- AccountingRepository&#45;&gt;AccountingModule -->
<g id="edge10" class="edge">
<title>AccountingRepository&#45;&gt;AccountingModule</title>
<path fill="none" stroke="black" d="M2198,-122.03C2198,-139.06 2198,-162 2198,-162 2198,-162 1610.39,-162 1610.39,-162"/>
<polygon fill="black" stroke="black" points="1610.39,-158.5 1600.39,-162 1610.39,-165.5 1610.39,-158.5"/>
</g>
<!-- AccountingService -->
<g id="node12" class="node">
<title>AccountingService</title>
<ellipse fill="#fdb462" stroke="black" cx="1996" cy="-104" rx="85.09" ry="18"/>
<text text-anchor="middle" x="1996" y="-99.8" font-family="Times,serif" font-size="14.00">AccountingService</text>
</g>
<!-- AccountingService&#45;&gt;AccountingModule -->
<g id="edge11" class="edge">
<title>AccountingService&#45;&gt;AccountingModule</title>
<path fill="none" stroke="black" d="M1998.89,-122.01C1998.89,-138.05 1998.89,-159 1998.89,-159 1998.89,-159 1610.64,-159 1610.64,-159"/>
<polygon fill="black" stroke="black" points="1610.64,-155.5 1600.64,-159 1610.64,-162.5 1610.64,-155.5"/>
</g>
<!-- CurrencyRepository -->
<g id="node13" class="node">
<title>CurrencyRepository</title>
<ellipse fill="#fdb462" stroke="black" cx="1804" cy="-104" rx="89.19" ry="18"/>
<text text-anchor="middle" x="1804" y="-99.8" font-family="Times,serif" font-size="14.00">CurrencyRepository</text>
</g>
<!-- CurrencyRepository&#45;&gt;AccountingModule -->
<g id="edge12" class="edge">
<title>CurrencyRepository&#45;&gt;AccountingModule</title>
<path fill="none" stroke="black" d="M1727.03,-113.35C1727.03,-128.08 1727.03,-155 1727.03,-155 1727.03,-155 1610.42,-155 1610.42,-155"/>
<polygon fill="black" stroke="black" points="1610.42,-151.5 1600.42,-155 1610.42,-158.5 1610.42,-151.5"/>
</g>
<!-- CurrencyService -->
<g id="node14" class="node">
<title>CurrencyService</title>
<ellipse fill="#fdb462" stroke="black" cx="1621" cy="-104" rx="75.84" ry="18"/>
<text text-anchor="middle" x="1621" y="-99.8" font-family="Times,serif" font-size="14.00">CurrencyService</text>
</g>
<!-- CurrencyService&#45;&gt;AccountingModule -->
<g id="edge13" class="edge">
<title>CurrencyService&#45;&gt;AccountingModule</title>
<path fill="none" stroke="black" d="M1572.76,-118.1C1572.76,-118.1 1572.76,-140.72 1572.76,-140.72"/>
<polygon fill="black" stroke="black" points="1569.26,-140.72 1572.76,-150.72 1576.26,-140.72 1569.26,-140.72"/>
</g>
<!-- DepositHandler -->
<g id="node15" class="node">
<title>DepositHandler</title>
<ellipse fill="#fdb462" stroke="black" cx="1455" cy="-104" rx="72.35" ry="18"/>
<text text-anchor="middle" x="1455" y="-99.8" font-family="Times,serif" font-size="14.00">DepositHandler</text>
</g>
<!-- DepositHandler&#45;&gt;AccountingModule -->
<g id="edge14" class="edge">
<title>DepositHandler&#45;&gt;AccountingModule</title>
<path fill="none" stroke="black" d="M1501.37,-118.1C1501.37,-118.1 1501.37,-140.72 1501.37,-140.72"/>
<polygon fill="black" stroke="black" points="1497.87,-140.72 1501.37,-150.72 1504.87,-140.72 1497.87,-140.72"/>
</g>
<!-- FromVaultHandler -->
<g id="node16" class="node">
<title>FromVaultHandler</title>
<ellipse fill="#fdb462" stroke="black" cx="1280" cy="-104" rx="84.53" ry="18"/>
<text text-anchor="middle" x="1280" y="-99.8" font-family="Times,serif" font-size="14.00">FromVaultHandler</text>
</g>
<!-- FromVaultHandler&#45;&gt;AccountingModule -->
<g id="edge15" class="edge">
<title>FromVaultHandler&#45;&gt;AccountingModule</title>
<path fill="none" stroke="black" d="M1349.87,-114.32C1349.87,-129.22 1349.87,-155 1349.87,-155 1349.87,-155 1465.62,-155 1465.62,-155"/>
<polygon fill="black" stroke="black" points="1465.62,-158.5 1475.62,-155 1465.62,-151.5 1465.62,-158.5"/>
</g>
<!-- ToVaultHandler -->
<g id="node17" class="node">
<title>ToVaultHandler</title>
<ellipse fill="#fdb462" stroke="black" cx="1103" cy="-104" rx="74.14" ry="18"/>
<text text-anchor="middle" x="1103" y="-99.8" font-family="Times,serif" font-size="14.00">ToVaultHandler</text>
</g>
<!-- ToVaultHandler&#45;&gt;AccountingModule -->
<g id="edge16" class="edge">
<title>ToVaultHandler&#45;&gt;AccountingModule</title>
<path fill="none" stroke="black" d="M1103,-122.01C1103,-138.05 1103,-159 1103,-159 1103,-159 1465.21,-159 1465.21,-159"/>
<polygon fill="black" stroke="black" points="1465.21,-162.5 1475.21,-159 1465.21,-155.5 1465.21,-162.5"/>
</g>
<!-- TransactionRepository -->
<g id="node18" class="node">
<title>TransactionRepository</title>
<ellipse fill="#fdb462" stroke="black" cx="912" cy="-104" rx="99" ry="18"/>
<text text-anchor="middle" x="912" y="-99.8" font-family="Times,serif" font-size="14.00">TransactionRepository</text>
</g>
<!-- TransactionRepository&#45;&gt;AccountingModule -->
<g id="edge17" class="edge">
<title>TransactionRepository&#45;&gt;AccountingModule</title>
<path fill="none" stroke="black" d="M912,-122.03C912,-139.06 912,-162 912,-162 912,-162 1465.4,-162 1465.4,-162"/>
<polygon fill="black" stroke="black" points="1465.4,-165.5 1475.4,-162 1465.4,-158.5 1465.4,-165.5"/>
</g>
<!-- TransactionService -->
<g id="node19" class="node">
<title>TransactionService</title>
<ellipse fill="#fdb462" stroke="black" cx="709" cy="-104" rx="85.65" ry="18"/>
<text text-anchor="middle" x="709" y="-99.8" font-family="Times,serif" font-size="14.00">TransactionService</text>
</g>
<!-- TransactionService&#45;&gt;AccountingModule -->
<g id="edge18" class="edge">
<title>TransactionService&#45;&gt;AccountingModule</title>
<path fill="none" stroke="black" d="M709,-122.27C709,-140.56 709,-166 709,-166 709,-166 1465.35,-166 1465.35,-166"/>
<polygon fill="black" stroke="black" points="1465.35,-169.5 1475.35,-166 1465.35,-162.5 1465.35,-169.5"/>
</g>
<!-- UserBalanceRepository -->
<g id="node20" class="node">
<title>UserBalanceRepository</title>
<ellipse fill="#fdb462" stroke="black" cx="503" cy="-104" rx="102.99" ry="18"/>
<text text-anchor="middle" x="503" y="-99.8" font-family="Times,serif" font-size="14.00">UserBalanceRepository</text>
</g>
<!-- UserBalanceRepository&#45;&gt;AccountingModule -->
<g id="edge19" class="edge">
<title>UserBalanceRepository&#45;&gt;AccountingModule</title>
<path fill="none" stroke="black" d="M503,-122.11C503,-141.34 503,-169 503,-169 503,-169 1465.59,-169 1465.59,-169"/>
<polygon fill="black" stroke="black" points="1465.59,-172.5 1475.59,-169 1465.59,-165.5 1465.59,-172.5"/>
</g>
<!-- UserBalanceService -->
<g id="node21" class="node">
<title>UserBalanceService</title>
<ellipse fill="#fdb462" stroke="black" cx="293" cy="-104" rx="89.14" ry="18"/>
<text text-anchor="middle" x="293" y="-99.8" font-family="Times,serif" font-size="14.00">UserBalanceService</text>
</g>
<!-- UserBalanceService&#45;&gt;AccountingModule -->
<g id="edge20" class="edge">
<title>UserBalanceService&#45;&gt;AccountingModule</title>
<path fill="none" stroke="black" d="M293,-122.13C293,-142.57 293,-173 293,-173 293,-173 1465.41,-173 1465.41,-173"/>
<polygon fill="black" stroke="black" points="1465.41,-176.5 1475.41,-173 1465.41,-169.5 1465.41,-176.5"/>
</g>
<!-- WithdrawHandler -->
<g id="node22" class="node">
<title>WithdrawHandler</title>
<ellipse fill="#fdb462" stroke="black" cx="105" cy="-104" rx="81" ry="18"/>
<text text-anchor="middle" x="105" y="-99.8" font-family="Times,serif" font-size="14.00">WithdrawHandler</text>
</g>
<!-- WithdrawHandler&#45;&gt;AccountingModule -->
<g id="edge21" class="edge">
<title>WithdrawHandler&#45;&gt;AccountingModule</title>
<path fill="none" stroke="black" d="M105,-122.04C105,-143.66 105,-177 105,-177 105,-177 1465.5,-177 1465.5,-177"/>
<polygon fill="black" stroke="black" points="1465.5,-180.5 1475.5,-177 1465.5,-173.5 1465.5,-180.5"/>
</g>
</g>
</svg>
