<?xml version="1.0" encoding="UTF-8" standalone="no"?>
<!DOCTYPE svg PUBLIC "-//W3C//DTD SVG 1.1//EN"
 "http://www.w3.org/Graphics/SVG/1.1/DTD/svg11.dtd">
<!-- Generated by graphviz version 2.47.0 (20210316.0004)
 -->
<!-- Title: dependencies Pages: 1 -->
<svg width="944pt" height="284pt"
 viewBox="0.00 0.00 944.00 284.00" xmlns="http://www.w3.org/2000/svg" xmlns:xlink="http://www.w3.org/1999/xlink">
<g id="graph0" class="graph" transform="scale(1 1) rotate(0) translate(4 280)">
<title>dependencies</title>
<polygon fill="white" stroke="transparent" points="-4,4 -4,-280 940,-280 940,4 -4,4"/>
<text text-anchor="start" x="447.01" y="-42.4" font-family="Times-12" font-weight="bold" font-size="14.00">Legend</text>
<polygon fill="#ffffb3" stroke="transparent" points="234,-10 234,-30 254,-30 254,-10 234,-10"/>
<text text-anchor="start" x="257.63" y="-15.4" font-family="Times-12" font-size="14.00"> &#160;Declarations</text>
<polygon fill="#8dd3c7" stroke="transparent" points="347,-10 347,-30 367,-30 367,-10 347,-10"/>
<text text-anchor="start" x="370.73" y="-15.4" font-family="Times-12" font-size="14.00"> &#160;Module</text>
<polygon fill="#80b1d3" stroke="transparent" points="433,-10 433,-30 453,-30 453,-10 433,-10"/>
<text text-anchor="start" x="456.78" y="-15.4" font-family="Times-12" font-size="14.00"> &#160;Bootstrap</text>
<polygon fill="#fdb462" stroke="transparent" points="530,-10 530,-30 550,-30 550,-10 530,-10"/>
<text text-anchor="start" x="553.67" y="-15.4" font-family="Times-12" font-size="14.00"> &#160;Providers</text>
<polygon fill="#fb8072" stroke="transparent" points="626,-10 626,-30 646,-30 646,-10 626,-10"/>
<text text-anchor="start" x="649.73" y="-15.4" font-family="Times-12" font-size="14.00"> &#160;Exports</text>
<g id="clust1" class="cluster">
<title>cluster_RakebackModule</title>
<polygon fill="none" stroke="black" stroke-dasharray="1,5" points="8,-70 8,-268 928,-268 928,-70 8,-70"/>
</g>
<g id="clust3" class="cluster">
<title>cluster_RakebackModule_imports</title>
<polygon fill="none" stroke="black" points="397,-78 397,-130 920,-130 920,-78 397,-78"/>
</g>
<g id="clust6" class="cluster">
<title>cluster_RakebackModule_providers</title>
<polygon fill="none" stroke="black" points="16,-78 16,-130 389,-130 389,-78 16,-78"/>
</g>
<g id="clust4" class="cluster">
<title>cluster_RakebackModule_exports</title>
<polygon fill="none" stroke="black" points="437,-208 437,-260 569,-260 569,-208 437,-208"/>
</g>
<!-- AccountingModule -->
<g id="node1" class="node">
<title>AccountingModule</title>
<polygon fill="#8dd3c7" stroke="black" points="912.37,-122 909.37,-126 888.37,-126 885.37,-122 787.63,-122 787.63,-86 912.37,-86 912.37,-122"/>
<text text-anchor="middle" x="850" y="-99.8" font-family="Times,serif" font-size="14.00">AccountingModule</text>
</g>
<!-- RakebackModule -->
<g id="node5" class="node">
<title>RakebackModule</title>
<polygon fill="#8dd3c7" stroke="black" points="560.25,-187 557.25,-191 536.25,-191 533.25,-187 445.75,-187 445.75,-151 560.25,-151 560.25,-187"/>
<text text-anchor="middle" x="503" y="-164.8" font-family="Times,serif" font-size="14.00">RakebackModule</text>
</g>
<!-- AccountingModule&#45;&gt;RakebackModule -->
<g id="edge1" class="edge">
<title>AccountingModule&#45;&gt;RakebackModule</title>
<path fill="none" stroke="black" d="M850,-122.28C850,-143.32 850,-175 850,-175 850,-175 570.3,-175 570.3,-175"/>
<polygon fill="black" stroke="black" points="570.3,-171.5 560.3,-175 570.3,-178.5 570.3,-171.5"/>
</g>
<!-- DoubleLoyaltyModule -->
<g id="node2" class="node">
<title>DoubleLoyaltyModule</title>
<polygon fill="#8dd3c7" stroke="black" points="769.31,-122 766.31,-126 745.31,-126 742.31,-122 624.69,-122 624.69,-86 769.31,-86 769.31,-122"/>
<text text-anchor="middle" x="697" y="-99.8" font-family="Times,serif" font-size="14.00">DoubleLoyaltyModule</text>
</g>
<!-- DoubleLoyaltyModule&#45;&gt;RakebackModule -->
<g id="edge2" class="edge">
<title>DoubleLoyaltyModule&#45;&gt;RakebackModule</title>
<path fill="none" stroke="black" d="M697,-122.02C697,-139.37 697,-163 697,-163 697,-163 570.42,-163 570.42,-163"/>
<polygon fill="black" stroke="black" points="570.42,-159.5 560.42,-163 570.42,-166.5 570.42,-159.5"/>
</g>
<!-- GamesModule -->
<g id="node3" class="node">
<title>GamesModule</title>
<polygon fill="#8dd3c7" stroke="black" points="607.42,-122 604.42,-126 583.42,-126 580.42,-122 508.58,-122 508.58,-86 607.42,-86 607.42,-122"/>
<text text-anchor="middle" x="558" y="-99.8" font-family="Times,serif" font-size="14.00">GamesModule</text>
</g>
<!-- GamesModule&#45;&gt;RakebackModule -->
<g id="edge3" class="edge">
<title>GamesModule&#45;&gt;RakebackModule</title>
<path fill="none" stroke="black" d="M534.58,-122.11C534.58,-122.11 534.58,-140.99 534.58,-140.99"/>
<polygon fill="black" stroke="black" points="531.08,-140.99 534.58,-150.99 538.08,-140.99 531.08,-140.99"/>
</g>
<!-- UserModule -->
<g id="node4" class="node">
<title>UserModule</title>
<polygon fill="#8dd3c7" stroke="black" points="490.98,-122 487.98,-126 466.98,-126 463.98,-122 405.02,-122 405.02,-86 490.98,-86 490.98,-122"/>
<text text-anchor="middle" x="448" y="-99.8" font-family="Times,serif" font-size="14.00">UserModule</text>
</g>
<!-- UserModule&#45;&gt;RakebackModule -->
<g id="edge4" class="edge">
<title>UserModule&#45;&gt;RakebackModule</title>
<path fill="none" stroke="black" d="M468.31,-122.11C468.31,-122.11 468.31,-140.99 468.31,-140.99"/>
<polygon fill="black" stroke="black" points="464.81,-140.99 468.31,-150.99 471.81,-140.99 464.81,-140.99"/>
</g>
<!-- RakebackService  -->
<g id="node6" class="node">
<title>RakebackService </title>
<polygon fill="#fb8072" stroke="black" points="561.17,-252 444.83,-252 444.83,-216 561.17,-216 561.17,-252"/>
<text text-anchor="middle" x="503" y="-229.8" font-family="Times,serif" font-size="14.00">RakebackService </text>
</g>
<!-- RakebackModule&#45;&gt;RakebackService  -->
<g id="edge5" class="edge">
<title>RakebackModule&#45;&gt;RakebackService </title>
<path fill="none" stroke="black" stroke-dasharray="5,2" d="M503,-187.11C503,-187.11 503,-205.99 503,-205.99"/>
<polygon fill="black" stroke="black" points="499.5,-205.99 503,-215.99 506.5,-205.99 499.5,-205.99"/>
</g>
<!-- RakebackRepository -->
<g id="node7" class="node">
<title>RakebackRepository</title>
<ellipse fill="#fdb462" stroke="black" cx="290" cy="-104" rx="91.48" ry="18"/>
<text text-anchor="middle" x="290" y="-99.8" font-family="Times,serif" font-size="14.00">RakebackRepository</text>
</g>
<!-- RakebackRepository&#45;&gt;RakebackModule -->
<g id="edge6" class="edge">
<title>RakebackRepository&#45;&gt;RakebackModule</title>
<path fill="none" stroke="black" d="M290,-122.02C290,-139.37 290,-163 290,-163 290,-163 435.64,-163 435.64,-163"/>
<polygon fill="black" stroke="black" points="435.64,-166.5 445.64,-163 435.64,-159.5 435.64,-166.5"/>
</g>
<!-- RakebackService -->
<g id="node8" class="node">
<title>RakebackService</title>
<ellipse fill="#fdb462" stroke="black" cx="102" cy="-104" rx="78.13" ry="18"/>
<text text-anchor="middle" x="102" y="-99.8" font-family="Times,serif" font-size="14.00">RakebackService</text>
</g>
<!-- RakebackService&#45;&gt;RakebackModule -->
<g id="edge7" class="edge">
<title>RakebackService&#45;&gt;RakebackModule</title>
<path fill="none" stroke="black" d="M102,-122.28C102,-143.32 102,-175 102,-175 102,-175 435.55,-175 435.55,-175"/>
<polygon fill="black" stroke="black" points="435.55,-178.5 445.55,-175 435.55,-171.5 435.55,-178.5"/>
</g>
</g>
</svg>
