<?xml version="1.0" encoding="UTF-8" standalone="no"?>
<!DOCTYPE svg PUBLIC "-//W3C//DTD SVG 1.1//EN"
 "http://www.w3.org/Graphics/SVG/1.1/DTD/svg11.dtd">
<!-- Generated by graphviz version 2.47.0 (20210316.0004)
 -->
<!-- Title: dependencies Pages: 1 -->
<svg width="1864pt" height="284pt"
 viewBox="0.00 0.00 1864.00 284.00" xmlns="http://www.w3.org/2000/svg" xmlns:xlink="http://www.w3.org/1999/xlink">
<g id="graph0" class="graph" transform="scale(1 1) rotate(0) translate(4 280)">
<title>dependencies</title>
<polygon fill="white" stroke="transparent" points="-4,4 -4,-280 1860,-280 1860,4 -4,4"/>
<text text-anchor="start" x="907.01" y="-42.4" font-family="Times-12" font-weight="bold" font-size="14.00">Legend</text>
<polygon fill="#ffffb3" stroke="transparent" points="694,-10 694,-30 714,-30 714,-10 694,-10"/>
<text text-anchor="start" x="717.63" y="-15.4" font-family="Times-12" font-size="14.00"> &#160;Declarations</text>
<polygon fill="#8dd3c7" stroke="transparent" points="807,-10 807,-30 827,-30 827,-10 807,-10"/>
<text text-anchor="start" x="830.73" y="-15.4" font-family="Times-12" font-size="14.00"> &#160;Module</text>
<polygon fill="#80b1d3" stroke="transparent" points="893,-10 893,-30 913,-30 913,-10 893,-10"/>
<text text-anchor="start" x="916.78" y="-15.4" font-family="Times-12" font-size="14.00"> &#160;Bootstrap</text>
<polygon fill="#fdb462" stroke="transparent" points="990,-10 990,-30 1010,-30 1010,-10 990,-10"/>
<text text-anchor="start" x="1013.67" y="-15.4" font-family="Times-12" font-size="14.00"> &#160;Providers</text>
<polygon fill="#fb8072" stroke="transparent" points="1086,-10 1086,-30 1106,-30 1106,-10 1086,-10"/>
<text text-anchor="start" x="1109.73" y="-15.4" font-family="Times-12" font-size="14.00"> &#160;Exports</text>
<g id="clust1" class="cluster">
<title>cluster_BetModule</title>
<polygon fill="none" stroke="black" stroke-dasharray="1,5" points="8,-70 8,-268 1848,-268 1848,-70 8,-70"/>
</g>
<g id="clust3" class="cluster">
<title>cluster_BetModule_imports</title>
<polygon fill="none" stroke="black" points="836,-78 836,-130 1840,-130 1840,-78 836,-78"/>
</g>
<g id="clust4" class="cluster">
<title>cluster_BetModule_exports</title>
<polygon fill="none" stroke="black" points="818,-208 818,-260 1172,-260 1172,-208 818,-208"/>
</g>
<g id="clust6" class="cluster">
<title>cluster_BetModule_providers</title>
<polygon fill="none" stroke="black" points="16,-78 16,-130 828,-130 828,-78 16,-78"/>
</g>
<!-- AccountingModule -->
<g id="node1" class="node">
<title>AccountingModule</title>
<polygon fill="#8dd3c7" stroke="black" points="1832.37,-122 1829.37,-126 1808.37,-126 1805.37,-122 1707.63,-122 1707.63,-86 1832.37,-86 1832.37,-122"/>
<text text-anchor="middle" x="1770" y="-99.8" font-family="Times,serif" font-size="14.00">AccountingModule</text>
</g>
<!-- BetModule -->
<g id="node8" class="node">
<title>BetModule</title>
<polygon fill="#8dd3c7" stroke="black" points="1020.49,-187 1017.49,-191 996.49,-191 993.49,-187 941.51,-187 941.51,-151 1020.49,-151 1020.49,-187"/>
<text text-anchor="middle" x="981" y="-164.8" font-family="Times,serif" font-size="14.00">BetModule</text>
</g>
<!-- AccountingModule&#45;&gt;BetModule -->
<g id="edge1" class="edge">
<title>AccountingModule&#45;&gt;BetModule</title>
<path fill="none" stroke="black" d="M1770,-122.04C1770,-143.66 1770,-177 1770,-177 1770,-177 1030.67,-177 1030.67,-177"/>
<polygon fill="black" stroke="black" points="1030.67,-173.5 1020.67,-177 1030.67,-180.5 1030.67,-173.5"/>
</g>
<!-- BetQueueProducerModule -->
<g id="node2" class="node">
<title>BetQueueProducerModule</title>
<polygon fill="#8dd3c7" stroke="black" points="1690.06,-122 1687.06,-126 1666.06,-126 1663.06,-122 1523.94,-122 1523.94,-86 1690.06,-86 1690.06,-122"/>
<text text-anchor="middle" x="1607" y="-99.8" font-family="Times,serif" font-size="14.00">BetQueueProducerModule</text>
</g>
<!-- BetQueueProducerModule&#45;&gt;BetModule -->
<g id="edge2" class="edge">
<title>BetQueueProducerModule&#45;&gt;BetModule</title>
<path fill="none" stroke="black" d="M1607,-122.22C1607,-142.37 1607,-172 1607,-172 1607,-172 1030.63,-172 1030.63,-172"/>
<polygon fill="black" stroke="black" points="1030.63,-168.5 1020.63,-172 1030.63,-175.5 1030.63,-168.5"/>
</g>
<!-- CountryModule -->
<g id="node3" class="node">
<title>CountryModule</title>
<polygon fill="#8dd3c7" stroke="black" points="1505.94,-122 1502.94,-126 1481.94,-126 1478.94,-122 1400.06,-122 1400.06,-86 1505.94,-86 1505.94,-122"/>
<text text-anchor="middle" x="1453" y="-99.8" font-family="Times,serif" font-size="14.00">CountryModule</text>
</g>
<!-- CountryModule&#45;&gt;BetModule -->
<g id="edge3" class="edge">
<title>CountryModule&#45;&gt;BetModule</title>
<path fill="none" stroke="black" d="M1453,-122.22C1453,-140.83 1453,-167 1453,-167 1453,-167 1030.84,-167 1030.84,-167"/>
<polygon fill="black" stroke="black" points="1030.84,-163.5 1020.84,-167 1030.84,-170.5 1030.84,-163.5"/>
</g>
<!-- GamesModule -->
<g id="node4" class="node">
<title>GamesModule</title>
<polygon fill="#8dd3c7" stroke="black" points="1382.42,-122 1379.42,-126 1358.42,-126 1355.42,-122 1283.58,-122 1283.58,-86 1382.42,-86 1382.42,-122"/>
<text text-anchor="middle" x="1333" y="-99.8" font-family="Times,serif" font-size="14.00">GamesModule</text>
</g>
<!-- GamesModule&#45;&gt;BetModule -->
<g id="edge4" class="edge">
<title>GamesModule&#45;&gt;BetModule</title>
<path fill="none" stroke="black" d="M1333,-122.03C1333,-139.06 1333,-162 1333,-162 1333,-162 1030.69,-162 1030.69,-162"/>
<polygon fill="black" stroke="black" points="1030.69,-158.5 1020.69,-162 1030.69,-165.5 1030.69,-158.5"/>
</g>
<!-- GatewayApiModule -->
<g id="node5" class="node">
<title>GatewayApiModule</title>
<polygon fill="#8dd3c7" stroke="black" points="1266.29,-122 1263.29,-126 1242.29,-126 1239.29,-122 1135.71,-122 1135.71,-86 1266.29,-86 1266.29,-122"/>
<text text-anchor="middle" x="1201" y="-99.8" font-family="Times,serif" font-size="14.00">GatewayApiModule</text>
</g>
<!-- GatewayApiModule&#45;&gt;BetModule -->
<g id="edge5" class="edge">
<title>GatewayApiModule&#45;&gt;BetModule</title>
<path fill="none" stroke="black" d="M1150.16,-122.24C1150.16,-137.57 1150.16,-157 1150.16,-157 1150.16,-157 1030.66,-157 1030.66,-157"/>
<polygon fill="black" stroke="black" points="1030.66,-153.5 1020.66,-157 1030.66,-160.5 1030.66,-153.5"/>
</g>
<!-- NotificationModule -->
<g id="node6" class="node">
<title>NotificationModule</title>
<polygon fill="#8dd3c7" stroke="black" points="1117.7,-122 1114.7,-126 1093.7,-126 1090.7,-122 990.3,-122 990.3,-86 1117.7,-86 1117.7,-122"/>
<text text-anchor="middle" x="1054" y="-99.8" font-family="Times,serif" font-size="14.00">NotificationModule</text>
</g>
<!-- NotificationModule&#45;&gt;BetModule -->
<g id="edge6" class="edge">
<title>NotificationModule&#45;&gt;BetModule</title>
<path fill="none" stroke="black" d="M1005.45,-122.11C1005.45,-122.11 1005.45,-140.99 1005.45,-140.99"/>
<polygon fill="black" stroke="black" points="1001.95,-140.99 1005.45,-150.99 1008.95,-140.99 1001.95,-140.99"/>
</g>
<!-- UsersLimitsModule -->
<g id="node7" class="node">
<title>UsersLimitsModule</title>
<polygon fill="#8dd3c7" stroke="black" points="971.98,-122 968.98,-126 947.98,-126 944.98,-122 844.02,-122 844.02,-86 971.98,-86 971.98,-122"/>
<text text-anchor="middle" x="908" y="-99.8" font-family="Times,serif" font-size="14.00">UsersLimitsModule</text>
</g>
<!-- UsersLimitsModule&#45;&gt;BetModule -->
<g id="edge7" class="edge">
<title>UsersLimitsModule&#45;&gt;BetModule</title>
<path fill="none" stroke="black" d="M956.75,-122.11C956.75,-122.11 956.75,-140.99 956.75,-140.99"/>
<polygon fill="black" stroke="black" points="953.25,-140.99 956.75,-150.99 960.25,-140.99 953.25,-140.99"/>
</g>
<!-- BetCrudService  -->
<g id="node9" class="node">
<title>BetCrudService </title>
<polygon fill="#fb8072" stroke="black" points="1164.42,-252 1055.58,-252 1055.58,-216 1164.42,-216 1164.42,-252"/>
<text text-anchor="middle" x="1110" y="-229.8" font-family="Times,serif" font-size="14.00">BetCrudService </text>
</g>
<!-- BetModule&#45;&gt;BetCrudService  -->
<g id="edge8" class="edge">
<title>BetModule&#45;&gt;BetCrudService </title>
<path fill="none" stroke="black" stroke-dasharray="5,2" d="M1020.61,-182C1050.57,-182 1086.57,-182 1086.57,-182 1086.57,-182 1086.57,-205.81 1086.57,-205.81"/>
<polygon fill="black" stroke="black" points="1083.07,-205.81 1086.57,-215.81 1090.07,-205.81 1083.07,-205.81"/>
</g>
<!-- BetEventService  -->
<g id="node10" class="node">
<title>BetEventService </title>
<polygon fill="#fb8072" stroke="black" points="1037.58,-252 924.42,-252 924.42,-216 1037.58,-216 1037.58,-252"/>
<text text-anchor="middle" x="981" y="-229.8" font-family="Times,serif" font-size="14.00">BetEventService </text>
</g>
<!-- BetModule&#45;&gt;BetEventService  -->
<g id="edge9" class="edge">
<title>BetModule&#45;&gt;BetEventService </title>
<path fill="none" stroke="black" stroke-dasharray="5,2" d="M981,-187.11C981,-187.11 981,-205.99 981,-205.99"/>
<polygon fill="black" stroke="black" points="977.5,-205.99 981,-215.99 984.5,-205.99 977.5,-205.99"/>
</g>
<!-- BetService  -->
<g id="node11" class="node">
<title>BetService </title>
<polygon fill="#fb8072" stroke="black" points="906.42,-252 825.58,-252 825.58,-216 906.42,-216 906.42,-252"/>
<text text-anchor="middle" x="866" y="-229.8" font-family="Times,serif" font-size="14.00">BetService </text>
</g>
<!-- BetModule&#45;&gt;BetService  -->
<g id="edge10" class="edge">
<title>BetModule&#45;&gt;BetService </title>
<path fill="none" stroke="black" stroke-dasharray="5,2" d="M941.32,-182C911.3,-182 875.23,-182 875.23,-182 875.23,-182 875.23,-205.81 875.23,-205.81"/>
<polygon fill="black" stroke="black" points="871.73,-205.81 875.23,-215.81 878.73,-205.81 871.73,-205.81"/>
</g>
<!-- BetCrudService -->
<g id="node12" class="node">
<title>BetCrudService</title>
<ellipse fill="#fdb462" stroke="black" cx="747" cy="-104" rx="72.93" ry="18"/>
<text text-anchor="middle" x="747" y="-99.8" font-family="Times,serif" font-size="14.00">BetCrudService</text>
</g>
<!-- BetCrudService&#45;&gt;BetModule -->
<g id="edge11" class="edge">
<title>BetCrudService&#45;&gt;BetModule</title>
<path fill="none" stroke="black" d="M747,-122.24C747,-137.57 747,-157 747,-157 747,-157 931.31,-157 931.31,-157"/>
<polygon fill="black" stroke="black" points="931.31,-160.5 941.31,-157 931.31,-153.5 931.31,-160.5"/>
</g>
<!-- BetEventService -->
<g id="node13" class="node">
<title>BetEventService</title>
<ellipse fill="#fdb462" stroke="black" cx="580" cy="-104" rx="75.86" ry="18"/>
<text text-anchor="middle" x="580" y="-99.8" font-family="Times,serif" font-size="14.00">BetEventService</text>
</g>
<!-- BetEventService&#45;&gt;BetModule -->
<g id="edge12" class="edge">
<title>BetEventService&#45;&gt;BetModule</title>
<path fill="none" stroke="black" d="M580,-122.03C580,-139.06 580,-162 580,-162 580,-162 931.45,-162 931.45,-162"/>
<polygon fill="black" stroke="black" points="931.45,-165.5 941.45,-162 931.45,-158.5 931.45,-165.5"/>
</g>
<!-- BetMaxProfitService -->
<g id="node14" class="node">
<title>BetMaxProfitService</title>
<ellipse fill="#fdb462" stroke="black" cx="393" cy="-104" rx="93.19" ry="18"/>
<text text-anchor="middle" x="393" y="-99.8" font-family="Times,serif" font-size="14.00">BetMaxProfitService</text>
</g>
<!-- BetMaxProfitService&#45;&gt;BetModule -->
<g id="edge13" class="edge">
<title>BetMaxProfitService&#45;&gt;BetModule</title>
<path fill="none" stroke="black" d="M393,-122.22C393,-140.83 393,-167 393,-167 393,-167 931.51,-167 931.51,-167"/>
<polygon fill="black" stroke="black" points="931.51,-170.5 941.51,-167 931.51,-163.5 931.51,-170.5"/>
</g>
<!-- BetRepository -->
<g id="node15" class="node">
<title>BetRepository</title>
<ellipse fill="#fdb462" stroke="black" cx="215" cy="-104" rx="66.65" ry="18"/>
<text text-anchor="middle" x="215" y="-99.8" font-family="Times,serif" font-size="14.00">BetRepository</text>
</g>
<!-- BetRepository&#45;&gt;BetModule -->
<g id="edge14" class="edge">
<title>BetRepository&#45;&gt;BetModule</title>
<path fill="none" stroke="black" d="M215,-122.22C215,-142.37 215,-172 215,-172 215,-172 931.43,-172 931.43,-172"/>
<polygon fill="black" stroke="black" points="931.43,-175.5 941.43,-172 931.43,-168.5 931.43,-175.5"/>
</g>
<!-- BetService -->
<g id="node16" class="node">
<title>BetService</title>
<ellipse fill="#fdb462" stroke="black" cx="77" cy="-104" rx="53.31" ry="18"/>
<text text-anchor="middle" x="77" y="-99.8" font-family="Times,serif" font-size="14.00">BetService</text>
</g>
<!-- BetService&#45;&gt;BetModule -->
<g id="edge15" class="edge">
<title>BetService&#45;&gt;BetModule</title>
<path fill="none" stroke="black" d="M77,-122.04C77,-143.66 77,-177 77,-177 77,-177 931.28,-177 931.28,-177"/>
<polygon fill="black" stroke="black" points="931.28,-180.5 941.28,-177 931.28,-173.5 931.28,-180.5"/>
</g>
</g>
</svg>
