<?xml version="1.0" encoding="UTF-8" standalone="no"?>
<!DOCTYPE svg PUBLIC "-//W3C//DTD SVG 1.1//EN"
 "http://www.w3.org/Graphics/SVG/1.1/DTD/svg11.dtd">
<!-- Generated by graphviz version 2.47.0 (20210316.0004)
 -->
<!-- Title: dependencies Pages: 1 -->
<svg width="2257pt" height="211pt"
 viewBox="0.00 0.00 2257.00 211.00" xmlns="http://www.w3.org/2000/svg" xmlns:xlink="http://www.w3.org/1999/xlink">
<g id="graph0" class="graph" transform="scale(1 1) rotate(0) translate(4 207)">
<title>dependencies</title>
<polygon fill="white" stroke="transparent" points="-4,4 -4,-207 2253,-207 2253,4 -4,4"/>
<text text-anchor="start" x="1103.51" y="-42.4" font-family="Times-12" font-weight="bold" font-size="14.00">Legend</text>
<polygon fill="#ffffb3" stroke="transparent" points="890.5,-10 890.5,-30 910.5,-30 910.5,-10 890.5,-10"/>
<text text-anchor="start" x="914.13" y="-15.4" font-family="Times-12" font-size="14.00"> &#160;Declarations</text>
<polygon fill="#8dd3c7" stroke="transparent" points="1003.5,-10 1003.5,-30 1023.5,-30 1023.5,-10 1003.5,-10"/>
<text text-anchor="start" x="1027.23" y="-15.4" font-family="Times-12" font-size="14.00"> &#160;Module</text>
<polygon fill="#80b1d3" stroke="transparent" points="1089.5,-10 1089.5,-30 1109.5,-30 1109.5,-10 1089.5,-10"/>
<text text-anchor="start" x="1113.28" y="-15.4" font-family="Times-12" font-size="14.00"> &#160;Bootstrap</text>
<polygon fill="#fdb462" stroke="transparent" points="1186.5,-10 1186.5,-30 1206.5,-30 1206.5,-10 1186.5,-10"/>
<text text-anchor="start" x="1210.17" y="-15.4" font-family="Times-12" font-size="14.00"> &#160;Providers</text>
<polygon fill="#fb8072" stroke="transparent" points="1282.5,-10 1282.5,-30 1302.5,-30 1302.5,-10 1282.5,-10"/>
<text text-anchor="start" x="1306.23" y="-15.4" font-family="Times-12" font-size="14.00"> &#160;Exports</text>
<g id="clust1" class="cluster">
<title>cluster_BlackjackModule</title>
<polygon fill="none" stroke="black" stroke-dasharray="1,5" points="8,-70 8,-195 2241,-195 2241,-70 8,-70"/>
</g>
<g id="clust3" class="cluster">
<title>cluster_BlackjackModule_imports</title>
<polygon fill="none" stroke="black" points="1769,-78 1769,-130 2233,-130 2233,-78 1769,-78"/>
</g>
<g id="clust6" class="cluster">
<title>cluster_BlackjackModule_providers</title>
<polygon fill="none" stroke="black" points="16,-78 16,-130 1761,-130 1761,-78 16,-78"/>
</g>
<!-- BetsModule -->
<g id="node1" class="node">
<title>BetsModule</title>
<polygon fill="#8dd3c7" stroke="black" points="2225.44,-122 2222.44,-126 2201.44,-126 2198.44,-122 2140.56,-122 2140.56,-86 2225.44,-86 2225.44,-122"/>
<text text-anchor="middle" x="2183" y="-99.8" font-family="Times,serif" font-size="14.00">BetsModule</text>
</g>
<!-- BlackjackModule -->
<g id="node5" class="node">
<title>BlackjackModule</title>
<polygon fill="#8dd3c7" stroke="black" points="1304.53,-187 1301.53,-191 1280.53,-191 1277.53,-187 1189.47,-187 1189.47,-151 1304.53,-151 1304.53,-187"/>
<text text-anchor="middle" x="1247" y="-164.8" font-family="Times,serif" font-size="14.00">BlackjackModule</text>
</g>
<!-- BetsModule&#45;&gt;BlackjackModule -->
<g id="edge1" class="edge">
<title>BetsModule&#45;&gt;BlackjackModule</title>
<path fill="none" stroke="black" d="M2183,-122.09C2183,-145.13 2183,-182 2183,-182 2183,-182 1314.84,-182 1314.84,-182"/>
<polygon fill="black" stroke="black" points="1314.84,-178.5 1304.84,-182 1314.84,-185.5 1314.84,-178.5"/>
</g>
<!-- GatewayBjModule -->
<g id="node2" class="node">
<title>GatewayBjModule</title>
<polygon fill="#8dd3c7" stroke="black" points="2123.03,-122 2120.03,-126 2099.03,-126 2096.03,-122 2000.97,-122 2000.97,-86 2123.03,-86 2123.03,-122"/>
<text text-anchor="middle" x="2062" y="-99.8" font-family="Times,serif" font-size="14.00">GatewayBjModule</text>
</g>
<!-- GatewayBjModule&#45;&gt;BlackjackModule -->
<g id="edge2" class="edge">
<title>GatewayBjModule&#45;&gt;BlackjackModule</title>
<path fill="none" stroke="black" d="M2062,-122.28C2062,-143.32 2062,-175 2062,-175 2062,-175 1314.63,-175 1314.63,-175"/>
<polygon fill="black" stroke="black" points="1314.63,-171.5 1304.63,-175 1314.63,-178.5 1314.63,-171.5"/>
</g>
<!-- SessionModule -->
<g id="node3" class="node">
<title>SessionModule</title>
<polygon fill="#8dd3c7" stroke="black" points="1983.33,-122 1980.33,-126 1959.33,-126 1956.33,-122 1880.67,-122 1880.67,-86 1983.33,-86 1983.33,-122"/>
<text text-anchor="middle" x="1932" y="-99.8" font-family="Times,serif" font-size="14.00">SessionModule</text>
</g>
<!-- SessionModule&#45;&gt;BlackjackModule -->
<g id="edge3" class="edge">
<title>SessionModule&#45;&gt;BlackjackModule</title>
<path fill="none" stroke="black" d="M1932,-122.11C1932,-141.34 1932,-169 1932,-169 1932,-169 1314.81,-169 1314.81,-169"/>
<polygon fill="black" stroke="black" points="1314.81,-165.5 1304.81,-169 1314.81,-172.5 1314.81,-165.5"/>
</g>
<!-- UserModule -->
<g id="node4" class="node">
<title>UserModule</title>
<polygon fill="#8dd3c7" stroke="black" points="1862.98,-122 1859.98,-126 1838.98,-126 1835.98,-122 1777.02,-122 1777.02,-86 1862.98,-86 1862.98,-122"/>
<text text-anchor="middle" x="1820" y="-99.8" font-family="Times,serif" font-size="14.00">UserModule</text>
</g>
<!-- UserModule&#45;&gt;BlackjackModule -->
<g id="edge4" class="edge">
<title>UserModule&#45;&gt;BlackjackModule</title>
<path fill="none" stroke="black" d="M1820,-122.02C1820,-139.37 1820,-163 1820,-163 1820,-163 1314.56,-163 1314.56,-163"/>
<polygon fill="black" stroke="black" points="1314.56,-159.5 1304.56,-163 1314.56,-166.5 1314.56,-159.5"/>
</g>
<!-- BlackjackDefaultUserActionWorkerService -->
<g id="node6" class="node">
<title>BlackjackDefaultUserActionWorkerService</title>
<ellipse fill="#fdb462" stroke="black" cx="1571" cy="-104" rx="181.62" ry="18"/>
<text text-anchor="middle" x="1571" y="-99.8" font-family="Times,serif" font-size="14.00">BlackjackDefaultUserActionWorkerService</text>
</g>
<!-- BlackjackDefaultUserActionWorkerService&#45;&gt;BlackjackModule -->
<g id="edge5" class="edge">
<title>BlackjackDefaultUserActionWorkerService&#45;&gt;BlackjackModule</title>
<path fill="none" stroke="black" d="M1571,-122.24C1571,-137.57 1571,-157 1571,-157 1571,-157 1314.55,-157 1314.55,-157"/>
<polygon fill="black" stroke="black" points="1314.55,-153.5 1304.55,-157 1314.55,-160.5 1314.55,-153.5"/>
</g>
<!-- BlackjackGameLogicService -->
<g id="node7" class="node">
<title>BlackjackGameLogicService</title>
<ellipse fill="#fdb462" stroke="black" cx="1247" cy="-104" rx="124.37" ry="18"/>
<text text-anchor="middle" x="1247" y="-99.8" font-family="Times,serif" font-size="14.00">BlackjackGameLogicService</text>
</g>
<!-- BlackjackGameLogicService&#45;&gt;BlackjackModule -->
<g id="edge6" class="edge">
<title>BlackjackGameLogicService&#45;&gt;BlackjackModule</title>
<path fill="none" stroke="black" d="M1247,-122.11C1247,-122.11 1247,-140.99 1247,-140.99"/>
<polygon fill="black" stroke="black" points="1243.5,-140.99 1247,-150.99 1250.5,-140.99 1243.5,-140.99"/>
</g>
<!-- BlackjackInitGameWorkerService -->
<g id="node8" class="node">
<title>BlackjackInitGameWorkerService</title>
<ellipse fill="#fdb462" stroke="black" cx="960" cy="-104" rx="144.62" ry="18"/>
<text text-anchor="middle" x="960" y="-99.8" font-family="Times,serif" font-size="14.00">BlackjackInitGameWorkerService</text>
</g>
<!-- BlackjackInitGameWorkerService&#45;&gt;BlackjackModule -->
<g id="edge7" class="edge">
<title>BlackjackInitGameWorkerService&#45;&gt;BlackjackModule</title>
<path fill="none" stroke="black" d="M960,-122.24C960,-137.57 960,-157 960,-157 960,-157 1179.27,-157 1179.27,-157"/>
<polygon fill="black" stroke="black" points="1179.27,-160.5 1189.27,-157 1179.27,-153.5 1179.27,-160.5"/>
</g>
<!-- BlackjackMapper -->
<g id="node9" class="node">
<title>BlackjackMapper</title>
<ellipse fill="#fdb462" stroke="black" cx="718" cy="-104" rx="79.85" ry="18"/>
<text text-anchor="middle" x="718" y="-99.8" font-family="Times,serif" font-size="14.00">BlackjackMapper</text>
</g>
<!-- BlackjackMapper&#45;&gt;BlackjackModule -->
<g id="edge8" class="edge">
<title>BlackjackMapper&#45;&gt;BlackjackModule</title>
<path fill="none" stroke="black" d="M718,-122.02C718,-139.37 718,-163 718,-163 718,-163 1179.38,-163 1179.38,-163"/>
<polygon fill="black" stroke="black" points="1179.38,-166.5 1189.38,-163 1179.38,-159.5 1179.38,-166.5"/>
</g>
<!-- BlackjackNotifierService -->
<g id="node10" class="node">
<title>BlackjackNotifierService</title>
<ellipse fill="#fdb462" stroke="black" cx="511" cy="-104" rx="109.34" ry="18"/>
<text text-anchor="middle" x="511" y="-99.8" font-family="Times,serif" font-size="14.00">BlackjackNotifierService</text>
</g>
<!-- BlackjackNotifierService&#45;&gt;BlackjackModule -->
<g id="edge9" class="edge">
<title>BlackjackNotifierService&#45;&gt;BlackjackModule</title>
<path fill="none" stroke="black" d="M511,-122.11C511,-141.34 511,-169 511,-169 511,-169 1179.25,-169 1179.25,-169"/>
<polygon fill="black" stroke="black" points="1179.25,-172.5 1189.25,-169 1179.25,-165.5 1179.25,-172.5"/>
</g>
<!-- BlackjackRepository -->
<g id="node11" class="node">
<title>BlackjackRepository</title>
<ellipse fill="#fdb462" stroke="black" cx="292" cy="-104" rx="92.05" ry="18"/>
<text text-anchor="middle" x="292" y="-99.8" font-family="Times,serif" font-size="14.00">BlackjackRepository</text>
</g>
<!-- BlackjackRepository&#45;&gt;BlackjackModule -->
<g id="edge10" class="edge">
<title>BlackjackRepository&#45;&gt;BlackjackModule</title>
<path fill="none" stroke="black" d="M292,-122.28C292,-143.32 292,-175 292,-175 292,-175 1179.41,-175 1179.41,-175"/>
<polygon fill="black" stroke="black" points="1179.41,-178.5 1189.41,-175 1179.41,-171.5 1179.41,-178.5"/>
</g>
<!-- BlackjackService -->
<g id="node12" class="node">
<title>BlackjackService</title>
<ellipse fill="#fdb462" stroke="black" cx="103" cy="-104" rx="78.71" ry="18"/>
<text text-anchor="middle" x="103" y="-99.8" font-family="Times,serif" font-size="14.00">BlackjackService</text>
</g>
<!-- BlackjackService&#45;&gt;BlackjackModule -->
<g id="edge11" class="edge">
<title>BlackjackService&#45;&gt;BlackjackModule</title>
<path fill="none" stroke="black" d="M103,-122.09C103,-145.13 103,-182 103,-182 103,-182 1179.09,-182 1179.09,-182"/>
<polygon fill="black" stroke="black" points="1179.09,-185.5 1189.09,-182 1179.09,-178.5 1179.09,-185.5"/>
</g>
</g>
</svg>
