<?xml version="1.0" encoding="UTF-8" standalone="no"?>
<!DOCTYPE svg PUBLIC "-//W3C//DTD SVG 1.1//EN"
 "http://www.w3.org/Graphics/SVG/1.1/DTD/svg11.dtd">
<!-- Generated by graphviz version 2.47.0 (20210316.0004)
 -->
<!-- Title: dependencies Pages: 1 -->
<svg width="926pt" height="284pt"
 viewBox="0.00 0.00 926.00 284.00" xmlns="http://www.w3.org/2000/svg" xmlns:xlink="http://www.w3.org/1999/xlink">
<g id="graph0" class="graph" transform="scale(1 1) rotate(0) translate(4 280)">
<title>dependencies</title>
<polygon fill="white" stroke="transparent" points="-4,4 -4,-280 922,-280 922,4 -4,4"/>
<text text-anchor="start" x="438.01" y="-42.4" font-family="Times-12" font-weight="bold" font-size="14.00">Legend</text>
<polygon fill="#ffffb3" stroke="transparent" points="225,-10 225,-30 245,-30 245,-10 225,-10"/>
<text text-anchor="start" x="248.63" y="-15.4" font-family="Times-12" font-size="14.00"> &#160;Declarations</text>
<polygon fill="#8dd3c7" stroke="transparent" points="338,-10 338,-30 358,-30 358,-10 338,-10"/>
<text text-anchor="start" x="361.73" y="-15.4" font-family="Times-12" font-size="14.00"> &#160;Module</text>
<polygon fill="#80b1d3" stroke="transparent" points="424,-10 424,-30 444,-30 444,-10 424,-10"/>
<text text-anchor="start" x="447.78" y="-15.4" font-family="Times-12" font-size="14.00"> &#160;Bootstrap</text>
<polygon fill="#fdb462" stroke="transparent" points="521,-10 521,-30 541,-30 541,-10 521,-10"/>
<text text-anchor="start" x="544.67" y="-15.4" font-family="Times-12" font-size="14.00"> &#160;Providers</text>
<polygon fill="#fb8072" stroke="transparent" points="617,-10 617,-30 637,-30 637,-10 617,-10"/>
<text text-anchor="start" x="640.73" y="-15.4" font-family="Times-12" font-size="14.00"> &#160;Exports</text>
<g id="clust1" class="cluster">
<title>cluster_BGamingModule</title>
<polygon fill="none" stroke="black" stroke-dasharray="1,5" points="8,-70 8,-268 910,-268 910,-70 8,-70"/>
</g>
<g id="clust3" class="cluster">
<title>cluster_BGamingModule_imports</title>
<polygon fill="none" stroke="black" points="448,-78 448,-130 902,-130 902,-78 448,-78"/>
</g>
<g id="clust6" class="cluster">
<title>cluster_BGamingModule_providers</title>
<polygon fill="none" stroke="black" points="16,-78 16,-130 440,-130 440,-78 16,-78"/>
</g>
<g id="clust4" class="cluster">
<title>cluster_BGamingModule_exports</title>
<polygon fill="none" stroke="black" points="478,-208 478,-260 630,-260 630,-208 478,-208"/>
</g>
<!-- BetModule -->
<g id="node1" class="node">
<title>BetModule</title>
<polygon fill="#8dd3c7" stroke="black" points="894.49,-122 891.49,-126 870.49,-126 867.49,-122 815.51,-122 815.51,-86 894.49,-86 894.49,-122"/>
<text text-anchor="middle" x="855" y="-99.8" font-family="Times,serif" font-size="14.00">BetModule</text>
</g>
<!-- BGamingModule -->
<g id="node5" class="node">
<title>BGamingModule</title>
<polygon fill="#8dd3c7" stroke="black" points="610.99,-187 607.99,-191 586.99,-191 583.99,-187 497.01,-187 497.01,-151 610.99,-151 610.99,-187"/>
<text text-anchor="middle" x="554" y="-164.8" font-family="Times,serif" font-size="14.00">BGamingModule</text>
</g>
<!-- BetModule&#45;&gt;BGamingModule -->
<g id="edge1" class="edge">
<title>BetModule&#45;&gt;BGamingModule</title>
<path fill="none" stroke="black" d="M855,-122.28C855,-143.32 855,-175 855,-175 855,-175 621.32,-175 621.32,-175"/>
<polygon fill="black" stroke="black" points="621.32,-171.5 611.32,-175 621.32,-178.5 621.32,-171.5"/>
</g>
<!-- EnvConfigModule -->
<g id="node2" class="node">
<title>EnvConfigModule</title>
<polygon fill="#8dd3c7" stroke="black" points="797.49,-122 794.49,-126 773.49,-126 770.49,-122 676.51,-122 676.51,-86 797.49,-86 797.49,-122"/>
<text text-anchor="middle" x="737" y="-99.8" font-family="Times,serif" font-size="14.00">EnvConfigModule</text>
</g>
<!-- EnvConfigModule&#45;&gt;BGamingModule -->
<g id="edge2" class="edge">
<title>EnvConfigModule&#45;&gt;BGamingModule</title>
<path fill="none" stroke="black" d="M737,-122.02C737,-139.37 737,-163 737,-163 737,-163 621.15,-163 621.15,-163"/>
<polygon fill="black" stroke="black" points="621.15,-159.5 611.15,-163 621.15,-166.5 621.15,-159.5"/>
</g>
<!-- GamesModule -->
<g id="node3" class="node">
<title>GamesModule</title>
<polygon fill="#8dd3c7" stroke="black" points="658.42,-122 655.42,-126 634.42,-126 631.42,-122 559.58,-122 559.58,-86 658.42,-86 658.42,-122"/>
<text text-anchor="middle" x="609" y="-99.8" font-family="Times,serif" font-size="14.00">GamesModule</text>
</g>
<!-- GamesModule&#45;&gt;BGamingModule -->
<g id="edge3" class="edge">
<title>GamesModule&#45;&gt;BGamingModule</title>
<path fill="none" stroke="black" d="M585.39,-122.11C585.39,-122.11 585.39,-140.99 585.39,-140.99"/>
<polygon fill="black" stroke="black" points="581.89,-140.99 585.39,-150.99 588.89,-140.99 581.89,-140.99"/>
</g>
<!-- UserModule -->
<g id="node4" class="node">
<title>UserModule</title>
<polygon fill="#8dd3c7" stroke="black" points="541.98,-122 538.98,-126 517.98,-126 514.98,-122 456.02,-122 456.02,-86 541.98,-86 541.98,-122"/>
<text text-anchor="middle" x="499" y="-99.8" font-family="Times,serif" font-size="14.00">UserModule</text>
</g>
<!-- UserModule&#45;&gt;BGamingModule -->
<g id="edge4" class="edge">
<title>UserModule&#45;&gt;BGamingModule</title>
<path fill="none" stroke="black" d="M519.5,-122.11C519.5,-122.11 519.5,-140.99 519.5,-140.99"/>
<polygon fill="black" stroke="black" points="516,-140.99 519.5,-150.99 523,-140.99 516,-140.99"/>
</g>
<!-- BGamingApiService  -->
<g id="node6" class="node">
<title>BGamingApiService </title>
<polygon fill="#fb8072" stroke="black" points="622.41,-252 485.59,-252 485.59,-216 622.41,-216 622.41,-252"/>
<text text-anchor="middle" x="554" y="-229.8" font-family="Times,serif" font-size="14.00">BGamingApiService </text>
</g>
<!-- BGamingModule&#45;&gt;BGamingApiService  -->
<g id="edge5" class="edge">
<title>BGamingModule&#45;&gt;BGamingApiService </title>
<path fill="none" stroke="black" stroke-dasharray="5,2" d="M554,-187.11C554,-187.11 554,-205.99 554,-205.99"/>
<polygon fill="black" stroke="black" points="550.5,-205.99 554,-215.99 557.5,-205.99 550.5,-205.99"/>
</g>
<!-- BGamingApiService -->
<g id="node7" class="node">
<title>BGamingApiService</title>
<ellipse fill="#fdb462" stroke="black" cx="340" cy="-104" rx="92.05" ry="18"/>
<text text-anchor="middle" x="340" y="-99.8" font-family="Times,serif" font-size="14.00">BGamingApiService</text>
</g>
<!-- BGamingApiService&#45;&gt;BGamingModule -->
<g id="edge6" class="edge">
<title>BGamingApiService&#45;&gt;BGamingModule</title>
<path fill="none" stroke="black" d="M340,-122.02C340,-139.37 340,-163 340,-163 340,-163 486.93,-163 486.93,-163"/>
<polygon fill="black" stroke="black" points="486.93,-166.5 496.93,-163 486.93,-159.5 486.93,-166.5"/>
</g>
<!-- BGamingWalletService -->
<g id="node8" class="node">
<title>BGamingWalletService</title>
<ellipse fill="#fdb462" stroke="black" cx="127" cy="-104" rx="103.07" ry="18"/>
<text text-anchor="middle" x="127" y="-99.8" font-family="Times,serif" font-size="14.00">BGamingWalletService</text>
</g>
<!-- BGamingWalletService&#45;&gt;BGamingModule -->
<g id="edge7" class="edge">
<title>BGamingWalletService&#45;&gt;BGamingModule</title>
<path fill="none" stroke="black" d="M127,-122.28C127,-143.32 127,-175 127,-175 127,-175 486.86,-175 486.86,-175"/>
<polygon fill="black" stroke="black" points="486.86,-178.5 496.86,-175 486.86,-171.5 486.86,-178.5"/>
</g>
</g>
</svg>
