<?xml version="1.0" encoding="UTF-8" standalone="no"?>
<!DOCTYPE svg PUBLIC "-//W3C//DTD SVG 1.1//EN"
 "http://www.w3.org/Graphics/SVG/1.1/DTD/svg11.dtd">
<!-- Generated by graphviz version 2.47.0 (20210316.0004)
 -->
<!-- Title: dependencies Pages: 1 -->
<svg width="839pt" height="284pt"
 viewBox="0.00 0.00 839.00 284.00" xmlns="http://www.w3.org/2000/svg" xmlns:xlink="http://www.w3.org/1999/xlink">
<g id="graph0" class="graph" transform="scale(1 1) rotate(0) translate(4 280)">
<title>dependencies</title>
<polygon fill="white" stroke="transparent" points="-4,4 -4,-280 835,-280 835,4 -4,4"/>
<text text-anchor="start" x="394.51" y="-42.4" font-family="Times-12" font-weight="bold" font-size="14.00">Legend</text>
<polygon fill="#ffffb3" stroke="transparent" points="181.5,-10 181.5,-30 201.5,-30 201.5,-10 181.5,-10"/>
<text text-anchor="start" x="205.13" y="-15.4" font-family="Times-12" font-size="14.00"> &#160;Declarations</text>
<polygon fill="#8dd3c7" stroke="transparent" points="294.5,-10 294.5,-30 314.5,-30 314.5,-10 294.5,-10"/>
<text text-anchor="start" x="318.23" y="-15.4" font-family="Times-12" font-size="14.00"> &#160;Module</text>
<polygon fill="#80b1d3" stroke="transparent" points="380.5,-10 380.5,-30 400.5,-30 400.5,-10 380.5,-10"/>
<text text-anchor="start" x="404.28" y="-15.4" font-family="Times-12" font-size="14.00"> &#160;Bootstrap</text>
<polygon fill="#fdb462" stroke="transparent" points="477.5,-10 477.5,-30 497.5,-30 497.5,-10 477.5,-10"/>
<text text-anchor="start" x="501.17" y="-15.4" font-family="Times-12" font-size="14.00"> &#160;Providers</text>
<polygon fill="#fb8072" stroke="transparent" points="573.5,-10 573.5,-30 593.5,-30 593.5,-10 573.5,-10"/>
<text text-anchor="start" x="597.23" y="-15.4" font-family="Times-12" font-size="14.00"> &#160;Exports</text>
<g id="clust1" class="cluster">
<title>cluster_KycModule</title>
<polygon fill="none" stroke="black" stroke-dasharray="1,5" points="8,-70 8,-268 823,-268 823,-70 8,-70"/>
</g>
<g id="clust3" class="cluster">
<title>cluster_KycModule_imports</title>
<polygon fill="none" stroke="black" points="693,-78 693,-130 815,-130 815,-78 693,-78"/>
</g>
<g id="clust4" class="cluster">
<title>cluster_KycModule_exports</title>
<polygon fill="none" stroke="black" points="389,-208 389,-260 489,-260 489,-208 389,-208"/>
</g>
<g id="clust6" class="cluster">
<title>cluster_KycModule_providers</title>
<polygon fill="none" stroke="black" points="16,-78 16,-130 685,-130 685,-78 16,-78"/>
</g>
<!-- AffiliateModule -->
<g id="node1" class="node">
<title>AffiliateModule</title>
<polygon fill="#8dd3c7" stroke="black" points="807.47,-122 804.47,-126 783.47,-126 780.47,-122 700.53,-122 700.53,-86 807.47,-86 807.47,-122"/>
<text text-anchor="middle" x="754" y="-99.8" font-family="Times,serif" font-size="14.00">AffiliateModule</text>
</g>
<!-- KycModule -->
<g id="node2" class="node">
<title>KycModule</title>
<polygon fill="#8dd3c7" stroke="black" points="480.37,-187 477.37,-191 456.37,-191 453.37,-187 397.63,-187 397.63,-151 480.37,-151 480.37,-187"/>
<text text-anchor="middle" x="439" y="-164.8" font-family="Times,serif" font-size="14.00">KycModule</text>
</g>
<!-- AffiliateModule&#45;&gt;KycModule -->
<g id="edge1" class="edge">
<title>AffiliateModule&#45;&gt;KycModule</title>
<path fill="none" stroke="black" d="M754,-122.28C754,-143.32 754,-175 754,-175 754,-175 490.5,-175 490.5,-175"/>
<polygon fill="black" stroke="black" points="490.5,-171.5 480.5,-175 490.5,-178.5 490.5,-171.5"/>
</g>
<!-- KycService  -->
<g id="node3" class="node">
<title>KycService </title>
<polygon fill="#fb8072" stroke="black" points="481.3,-252 396.7,-252 396.7,-216 481.3,-216 481.3,-252"/>
<text text-anchor="middle" x="439" y="-229.8" font-family="Times,serif" font-size="14.00">KycService </text>
</g>
<!-- KycModule&#45;&gt;KycService  -->
<g id="edge2" class="edge">
<title>KycModule&#45;&gt;KycService </title>
<path fill="none" stroke="black" stroke-dasharray="5,2" d="M439,-187.11C439,-187.11 439,-205.99 439,-205.99"/>
<polygon fill="black" stroke="black" points="435.5,-205.99 439,-215.99 442.5,-205.99 435.5,-205.99"/>
</g>
<!-- KycCrudService -->
<g id="node4" class="node">
<title>KycCrudService</title>
<ellipse fill="#fdb462" stroke="black" cx="602" cy="-104" rx="75.28" ry="18"/>
<text text-anchor="middle" x="602" y="-99.8" font-family="Times,serif" font-size="14.00">KycCrudService</text>
</g>
<!-- KycCrudService&#45;&gt;KycModule -->
<g id="edge3" class="edge">
<title>KycCrudService&#45;&gt;KycModule</title>
<path fill="none" stroke="black" d="M602,-122.02C602,-139.37 602,-163 602,-163 602,-163 490.55,-163 490.55,-163"/>
<polygon fill="black" stroke="black" points="490.55,-159.5 480.55,-163 490.55,-166.5 490.55,-159.5"/>
</g>
<!-- KycRepository -->
<g id="node5" class="node">
<title>KycRepository</title>
<ellipse fill="#fdb462" stroke="black" cx="439" cy="-104" rx="69.5" ry="18"/>
<text text-anchor="middle" x="439" y="-99.8" font-family="Times,serif" font-size="14.00">KycRepository</text>
</g>
<!-- KycRepository&#45;&gt;KycModule -->
<g id="edge4" class="edge">
<title>KycRepository&#45;&gt;KycModule</title>
<path fill="none" stroke="black" d="M439,-122.11C439,-122.11 439,-140.99 439,-140.99"/>
<polygon fill="black" stroke="black" points="435.5,-140.99 439,-150.99 442.5,-140.99 435.5,-140.99"/>
</g>
<!-- KycService -->
<g id="node6" class="node">
<title>KycService</title>
<ellipse fill="#fdb462" stroke="black" cx="295" cy="-104" rx="56.16" ry="18"/>
<text text-anchor="middle" x="295" y="-99.8" font-family="Times,serif" font-size="14.00">KycService</text>
</g>
<!-- KycService&#45;&gt;KycModule -->
<g id="edge5" class="edge">
<title>KycService&#45;&gt;KycModule</title>
<path fill="none" stroke="black" d="M295,-122.02C295,-139.37 295,-163 295,-163 295,-163 387.35,-163 387.35,-163"/>
<polygon fill="black" stroke="black" points="387.35,-166.5 397.35,-163 387.35,-159.5 387.35,-166.5"/>
</g>
<!-- SumSubLevelsService -->
<g id="node7" class="node">
<title>SumSubLevelsService</title>
<ellipse fill="#fdb462" stroke="black" cx="122" cy="-104" rx="98.43" ry="18"/>
<text text-anchor="middle" x="122" y="-99.8" font-family="Times,serif" font-size="14.00">SumSubLevelsService</text>
</g>
<!-- SumSubLevelsService&#45;&gt;KycModule -->
<g id="edge6" class="edge">
<title>SumSubLevelsService&#45;&gt;KycModule</title>
<path fill="none" stroke="black" d="M122,-122.28C122,-143.32 122,-175 122,-175 122,-175 387.56,-175 387.56,-175"/>
<polygon fill="black" stroke="black" points="387.56,-178.5 397.56,-175 387.56,-171.5 387.56,-178.5"/>
</g>
</g>
</svg>
