<?xml version="1.0" encoding="UTF-8" standalone="no"?>
<!DOCTYPE svg PUBLIC "-//W3C//DTD SVG 1.1//EN"
 "http://www.w3.org/Graphics/SVG/1.1/DTD/svg11.dtd">
<!-- Generated by graphviz version 2.47.0 (20210316.0004)
 -->
<!-- Title: dependencies Pages: 1 -->
<svg width="1208pt" height="284pt"
 viewBox="0.00 0.00 1208.00 284.00" xmlns="http://www.w3.org/2000/svg" xmlns:xlink="http://www.w3.org/1999/xlink">
<g id="graph0" class="graph" transform="scale(1 1) rotate(0) translate(4 280)">
<title>dependencies</title>
<polygon fill="white" stroke="transparent" points="-4,4 -4,-280 1204,-280 1204,4 -4,4"/>
<text text-anchor="start" x="579.01" y="-42.4" font-family="Times-12" font-weight="bold" font-size="14.00">Legend</text>
<polygon fill="#ffffb3" stroke="transparent" points="366,-10 366,-30 386,-30 386,-10 366,-10"/>
<text text-anchor="start" x="389.63" y="-15.4" font-family="Times-12" font-size="14.00"> &#160;Declarations</text>
<polygon fill="#8dd3c7" stroke="transparent" points="479,-10 479,-30 499,-30 499,-10 479,-10"/>
<text text-anchor="start" x="502.73" y="-15.4" font-family="Times-12" font-size="14.00"> &#160;Module</text>
<polygon fill="#80b1d3" stroke="transparent" points="565,-10 565,-30 585,-30 585,-10 565,-10"/>
<text text-anchor="start" x="588.78" y="-15.4" font-family="Times-12" font-size="14.00"> &#160;Bootstrap</text>
<polygon fill="#fdb462" stroke="transparent" points="662,-10 662,-30 682,-30 682,-10 662,-10"/>
<text text-anchor="start" x="685.67" y="-15.4" font-family="Times-12" font-size="14.00"> &#160;Providers</text>
<polygon fill="#fb8072" stroke="transparent" points="758,-10 758,-30 778,-30 778,-10 758,-10"/>
<text text-anchor="start" x="781.73" y="-15.4" font-family="Times-12" font-size="14.00"> &#160;Exports</text>
<g id="clust1" class="cluster">
<title>cluster_DepositModule</title>
<polygon fill="none" stroke="black" stroke-dasharray="1,5" points="8,-70 8,-268 1192,-268 1192,-70 8,-70"/>
</g>
<g id="clust3" class="cluster">
<title>cluster_DepositModule_imports</title>
<polygon fill="none" stroke="black" points="364,-78 364,-130 1184,-130 1184,-78 364,-78"/>
</g>
<g id="clust4" class="cluster">
<title>cluster_DepositModule_exports</title>
<polygon fill="none" stroke="black" points="573,-208 573,-260 695,-260 695,-208 573,-208"/>
</g>
<g id="clust6" class="cluster">
<title>cluster_DepositModule_providers</title>
<polygon fill="none" stroke="black" points="16,-78 16,-130 356,-130 356,-78 16,-78"/>
</g>
<!-- AccountingModule -->
<g id="node1" class="node">
<title>AccountingModule</title>
<polygon fill="#8dd3c7" stroke="black" points="1176.37,-122 1173.37,-126 1152.37,-126 1149.37,-122 1051.63,-122 1051.63,-86 1176.37,-86 1176.37,-122"/>
<text text-anchor="middle" x="1114" y="-99.8" font-family="Times,serif" font-size="14.00">AccountingModule</text>
</g>
<!-- DepositModule -->
<g id="node7" class="node">
<title>DepositModule</title>
<polygon fill="#8dd3c7" stroke="black" points="685.6,-187 682.6,-191 661.6,-191 658.6,-187 582.4,-187 582.4,-151 685.6,-151 685.6,-187"/>
<text text-anchor="middle" x="634" y="-164.8" font-family="Times,serif" font-size="14.00">DepositModule</text>
</g>
<!-- AccountingModule&#45;&gt;DepositModule -->
<g id="edge1" class="edge">
<title>AccountingModule&#45;&gt;DepositModule</title>
<path fill="none" stroke="black" d="M1114,-122.29C1114,-144.21 1114,-178 1114,-178 1114,-178 695.82,-178 695.82,-178"/>
<polygon fill="black" stroke="black" points="695.82,-174.5 685.82,-178 695.82,-181.5 695.82,-174.5"/>
</g>
<!-- AffiliateModule -->
<g id="node2" class="node">
<title>AffiliateModule</title>
<polygon fill="#8dd3c7" stroke="black" points="1033.47,-122 1030.47,-126 1009.47,-126 1006.47,-122 926.53,-122 926.53,-86 1033.47,-86 1033.47,-122"/>
<text text-anchor="middle" x="980" y="-99.8" font-family="Times,serif" font-size="14.00">AffiliateModule</text>
</g>
<!-- AffiliateModule&#45;&gt;DepositModule -->
<g id="edge2" class="edge">
<title>AffiliateModule&#45;&gt;DepositModule</title>
<path fill="none" stroke="black" d="M980,-122.11C980,-141.34 980,-169 980,-169 980,-169 695.8,-169 695.8,-169"/>
<polygon fill="black" stroke="black" points="695.8,-165.5 685.8,-169 695.8,-172.5 695.8,-165.5"/>
</g>
<!-- ArbitrageModule -->
<g id="node3" class="node">
<title>ArbitrageModule</title>
<polygon fill="#8dd3c7" stroke="black" points="908.69,-122 905.69,-126 884.69,-126 881.69,-122 795.31,-122 795.31,-86 908.69,-86 908.69,-122"/>
<text text-anchor="middle" x="852" y="-99.8" font-family="Times,serif" font-size="14.00">ArbitrageModule</text>
</g>
<!-- ArbitrageModule&#45;&gt;DepositModule -->
<g id="edge3" class="edge">
<title>ArbitrageModule&#45;&gt;DepositModule</title>
<path fill="none" stroke="black" d="M852,-122.03C852,-138.4 852,-160 852,-160 852,-160 695.66,-160 695.66,-160"/>
<polygon fill="black" stroke="black" points="695.66,-156.5 685.66,-160 695.66,-163.5 695.66,-156.5"/>
</g>
<!-- NotificationModule -->
<g id="node4" class="node">
<title>NotificationModule</title>
<polygon fill="#8dd3c7" stroke="black" points="777.7,-122 774.7,-126 753.7,-126 750.7,-122 650.3,-122 650.3,-86 777.7,-86 777.7,-122"/>
<text text-anchor="middle" x="714" y="-99.8" font-family="Times,serif" font-size="14.00">NotificationModule</text>
</g>
<!-- NotificationModule&#45;&gt;DepositModule -->
<g id="edge4" class="edge">
<title>NotificationModule&#45;&gt;DepositModule</title>
<path fill="none" stroke="black" d="M667.97,-122.11C667.97,-122.11 667.97,-140.99 667.97,-140.99"/>
<polygon fill="black" stroke="black" points="664.47,-140.99 667.97,-150.99 671.47,-140.99 664.47,-140.99"/>
</g>
<!-- PaymentProviderModule -->
<g id="node5" class="node">
<title>PaymentProviderModule</title>
<polygon fill="#8dd3c7" stroke="black" points="632.25,-122 629.25,-126 608.25,-126 605.25,-122 475.75,-122 475.75,-86 632.25,-86 632.25,-122"/>
<text text-anchor="middle" x="554" y="-99.8" font-family="Times,serif" font-size="14.00">PaymentProviderModule</text>
</g>
<!-- PaymentProviderModule&#45;&gt;DepositModule -->
<g id="edge5" class="edge">
<title>PaymentProviderModule&#45;&gt;DepositModule</title>
<path fill="none" stroke="black" d="M607.41,-122.11C607.41,-122.11 607.41,-140.99 607.41,-140.99"/>
<polygon fill="black" stroke="black" points="603.91,-140.99 607.41,-150.99 610.91,-140.99 603.91,-140.99"/>
</g>
<!-- UserModule -->
<g id="node6" class="node">
<title>UserModule</title>
<polygon fill="#8dd3c7" stroke="black" points="457.98,-122 454.98,-126 433.98,-126 430.98,-122 372.02,-122 372.02,-86 457.98,-86 457.98,-122"/>
<text text-anchor="middle" x="415" y="-99.8" font-family="Times,serif" font-size="14.00">UserModule</text>
</g>
<!-- UserModule&#45;&gt;DepositModule -->
<g id="edge6" class="edge">
<title>UserModule&#45;&gt;DepositModule</title>
<path fill="none" stroke="black" d="M415,-122.03C415,-138.4 415,-160 415,-160 415,-160 572.38,-160 572.38,-160"/>
<polygon fill="black" stroke="black" points="572.38,-163.5 582.38,-160 572.38,-156.5 572.38,-163.5"/>
</g>
<!-- DepositService  -->
<g id="node8" class="node">
<title>DepositService </title>
<polygon fill="#fb8072" stroke="black" points="686.52,-252 581.48,-252 581.48,-216 686.52,-216 686.52,-252"/>
<text text-anchor="middle" x="634" y="-229.8" font-family="Times,serif" font-size="14.00">DepositService </text>
</g>
<!-- DepositModule&#45;&gt;DepositService  -->
<g id="edge7" class="edge">
<title>DepositModule&#45;&gt;DepositService </title>
<path fill="none" stroke="black" stroke-dasharray="5,2" d="M634,-187.11C634,-187.11 634,-205.99 634,-205.99"/>
<polygon fill="black" stroke="black" points="630.5,-205.99 634,-215.99 637.5,-205.99 630.5,-205.99"/>
</g>
<!-- DepositRepository -->
<g id="node9" class="node">
<title>DepositRepository</title>
<ellipse fill="#fdb462" stroke="black" cx="265" cy="-104" rx="83.41" ry="18"/>
<text text-anchor="middle" x="265" y="-99.8" font-family="Times,serif" font-size="14.00">DepositRepository</text>
</g>
<!-- DepositRepository&#45;&gt;DepositModule -->
<g id="edge8" class="edge">
<title>DepositRepository&#45;&gt;DepositModule</title>
<path fill="none" stroke="black" d="M265,-122.11C265,-141.34 265,-169 265,-169 265,-169 572.3,-169 572.3,-169"/>
<polygon fill="black" stroke="black" points="572.3,-172.5 582.3,-169 572.3,-165.5 572.3,-172.5"/>
</g>
<!-- DepositService -->
<g id="node10" class="node">
<title>DepositService</title>
<ellipse fill="#fdb462" stroke="black" cx="94" cy="-104" rx="70.06" ry="18"/>
<text text-anchor="middle" x="94" y="-99.8" font-family="Times,serif" font-size="14.00">DepositService</text>
</g>
<!-- DepositService&#45;&gt;DepositModule -->
<g id="edge9" class="edge">
<title>DepositService&#45;&gt;DepositModule</title>
<path fill="none" stroke="black" d="M94,-122.29C94,-144.21 94,-178 94,-178 94,-178 572.22,-178 572.22,-178"/>
<polygon fill="black" stroke="black" points="572.22,-181.5 582.22,-178 572.22,-174.5 572.22,-181.5"/>
</g>
</g>
</svg>
