<?xml version="1.0" encoding="UTF-8" standalone="no"?>
<!DOCTYPE svg PUBLIC "-//W3C//DTD SVG 1.1//EN"
 "http://www.w3.org/Graphics/SVG/1.1/DTD/svg11.dtd">
<!-- Generated by graphviz version 2.47.0 (20210316.0004)
 -->
<!-- Title: dependencies Pages: 1 -->
<svg width="514pt" height="284pt"
 viewBox="0.00 0.00 514.00 284.00" xmlns="http://www.w3.org/2000/svg" xmlns:xlink="http://www.w3.org/1999/xlink">
<g id="graph0" class="graph" transform="scale(1 1) rotate(0) translate(4 280)">
<title>dependencies</title>
<polygon fill="white" stroke="transparent" points="-4,4 -4,-280 510,-280 510,4 -4,4"/>
<text text-anchor="start" x="232.01" y="-42.4" font-family="Times-12" font-weight="bold" font-size="14.00">Legend</text>
<polygon fill="#ffffb3" stroke="transparent" points="19,-10 19,-30 39,-30 39,-10 19,-10"/>
<text text-anchor="start" x="42.63" y="-15.4" font-family="Times-12" font-size="14.00"> &#160;Declarations</text>
<polygon fill="#8dd3c7" stroke="transparent" points="132,-10 132,-30 152,-30 152,-10 132,-10"/>
<text text-anchor="start" x="155.73" y="-15.4" font-family="Times-12" font-size="14.00"> &#160;Module</text>
<polygon fill="#80b1d3" stroke="transparent" points="218,-10 218,-30 238,-30 238,-10 218,-10"/>
<text text-anchor="start" x="241.78" y="-15.4" font-family="Times-12" font-size="14.00"> &#160;Bootstrap</text>
<polygon fill="#fdb462" stroke="transparent" points="315,-10 315,-30 335,-30 335,-10 315,-10"/>
<text text-anchor="start" x="338.67" y="-15.4" font-family="Times-12" font-size="14.00"> &#160;Providers</text>
<polygon fill="#fb8072" stroke="transparent" points="411,-10 411,-30 431,-30 431,-10 411,-10"/>
<text text-anchor="start" x="434.73" y="-15.4" font-family="Times-12" font-size="14.00"> &#160;Exports</text>
<g id="clust1" class="cluster">
<title>cluster_RegistrationInfoModule</title>
<polygon fill="none" stroke="black" stroke-dasharray="1,5" points="8,-70 8,-268 498,-268 498,-70 8,-70"/>
</g>
<g id="clust6" class="cluster">
<title>cluster_RegistrationInfoModule_providers</title>
<polygon fill="none" stroke="black" points="16,-78 16,-130 490,-130 490,-78 16,-78"/>
</g>
<g id="clust4" class="cluster">
<title>cluster_RegistrationInfoModule_exports</title>
<polygon fill="none" stroke="black" points="161,-208 161,-260 331,-260 331,-208 161,-208"/>
</g>
<!-- RegistrationInfoService  -->
<g id="node1" class="node">
<title>RegistrationInfoService </title>
<polygon fill="#fb8072" stroke="black" points="322.73,-252 169.27,-252 169.27,-216 322.73,-216 322.73,-252"/>
<text text-anchor="middle" x="246" y="-229.8" font-family="Times,serif" font-size="14.00">RegistrationInfoService </text>
</g>
<!-- RegistrationInfoModule -->
<g id="node2" class="node">
<title>RegistrationInfoModule</title>
<polygon fill="#8dd3c7" stroke="black" points="321.8,-187 318.8,-191 297.8,-191 294.8,-187 170.2,-187 170.2,-151 321.8,-151 321.8,-187"/>
<text text-anchor="middle" x="246" y="-164.8" font-family="Times,serif" font-size="14.00">RegistrationInfoModule</text>
</g>
<!-- RegistrationInfoModule&#45;&gt;RegistrationInfoService  -->
<g id="edge1" class="edge">
<title>RegistrationInfoModule&#45;&gt;RegistrationInfoService </title>
<path fill="none" stroke="black" stroke-dasharray="5,2" d="M246,-187.11C246,-187.11 246,-205.99 246,-205.99"/>
<polygon fill="black" stroke="black" points="242.5,-205.99 246,-215.99 249.5,-205.99 242.5,-205.99"/>
</g>
<!-- RegistrationInfoRepository -->
<g id="node3" class="node">
<title>RegistrationInfoRepository</title>
<ellipse fill="#fdb462" stroke="black" cx="365" cy="-104" rx="116.91" ry="18"/>
<text text-anchor="middle" x="365" y="-99.8" font-family="Times,serif" font-size="14.00">RegistrationInfoRepository</text>
</g>
<!-- RegistrationInfoRepository&#45;&gt;RegistrationInfoModule -->
<g id="edge2" class="edge">
<title>RegistrationInfoRepository&#45;&gt;RegistrationInfoModule</title>
<path fill="none" stroke="black" d="M284.97,-117.15C284.97,-117.15 284.97,-140.69 284.97,-140.69"/>
<polygon fill="black" stroke="black" points="281.47,-140.69 284.97,-150.69 288.47,-140.69 281.47,-140.69"/>
</g>
<!-- RegistrationInfoService -->
<g id="node4" class="node">
<title>RegistrationInfoService</title>
<ellipse fill="#fdb462" stroke="black" cx="127" cy="-104" rx="103.07" ry="18"/>
<text text-anchor="middle" x="127" y="-99.8" font-family="Times,serif" font-size="14.00">RegistrationInfoService</text>
</g>
<!-- RegistrationInfoService&#45;&gt;RegistrationInfoModule -->
<g id="edge3" class="edge">
<title>RegistrationInfoService&#45;&gt;RegistrationInfoModule</title>
<path fill="none" stroke="black" d="M200.32,-116.84C200.32,-116.84 200.32,-140.52 200.32,-140.52"/>
<polygon fill="black" stroke="black" points="196.82,-140.52 200.32,-150.52 203.82,-140.52 196.82,-140.52"/>
</g>
</g>
</svg>
