<?xml version="1.0" encoding="UTF-8" standalone="no"?>
<!DOCTYPE svg PUBLIC "-//W3C//DTD SVG 1.1//EN"
 "http://www.w3.org/Graphics/SVG/1.1/DTD/svg11.dtd">
<!-- Generated by graphviz version 2.47.0 (20210316.0004)
 -->
<!-- Title: dependencies Pages: 1 -->
<svg width="2617pt" height="284pt"
 viewBox="0.00 0.00 2617.00 284.00" xmlns="http://www.w3.org/2000/svg" xmlns:xlink="http://www.w3.org/1999/xlink">
<g id="graph0" class="graph" transform="scale(1 1) rotate(0) translate(4 280)">
<title>dependencies</title>
<polygon fill="white" stroke="transparent" points="-4,4 -4,-280 2613,-280 2613,4 -4,4"/>
<text text-anchor="start" x="1283.51" y="-42.4" font-family="Times-12" font-weight="bold" font-size="14.00">Legend</text>
<polygon fill="#ffffb3" stroke="transparent" points="1070.5,-10 1070.5,-30 1090.5,-30 1090.5,-10 1070.5,-10"/>
<text text-anchor="start" x="1094.13" y="-15.4" font-family="Times-12" font-size="14.00"> &#160;Declarations</text>
<polygon fill="#8dd3c7" stroke="transparent" points="1183.5,-10 1183.5,-30 1203.5,-30 1203.5,-10 1183.5,-10"/>
<text text-anchor="start" x="1207.23" y="-15.4" font-family="Times-12" font-size="14.00"> &#160;Module</text>
<polygon fill="#80b1d3" stroke="transparent" points="1269.5,-10 1269.5,-30 1289.5,-30 1289.5,-10 1269.5,-10"/>
<text text-anchor="start" x="1293.28" y="-15.4" font-family="Times-12" font-size="14.00"> &#160;Bootstrap</text>
<polygon fill="#fdb462" stroke="transparent" points="1366.5,-10 1366.5,-30 1386.5,-30 1386.5,-10 1366.5,-10"/>
<text text-anchor="start" x="1390.17" y="-15.4" font-family="Times-12" font-size="14.00"> &#160;Providers</text>
<polygon fill="#fb8072" stroke="transparent" points="1462.5,-10 1462.5,-30 1482.5,-30 1482.5,-10 1462.5,-10"/>
<text text-anchor="start" x="1486.23" y="-15.4" font-family="Times-12" font-size="14.00"> &#160;Exports</text>
<g id="clust1" class="cluster">
<title>cluster_AuthModule</title>
<polygon fill="none" stroke="black" stroke-dasharray="1,5" points="8,-70 8,-268 2601,-268 2601,-70 8,-70"/>
</g>
<g id="clust6" class="cluster">
<title>cluster_AuthModule_providers</title>
<polygon fill="none" stroke="black" points="520,-78 520,-130 2593,-130 2593,-78 520,-78"/>
</g>
<g id="clust4" class="cluster">
<title>cluster_AuthModule_exports</title>
<polygon fill="none" stroke="black" points="1169,-208 1169,-260 1397,-260 1397,-208 1169,-208"/>
</g>
<g id="clust3" class="cluster">
<title>cluster_AuthModule_imports</title>
<polygon fill="none" stroke="black" points="16,-78 16,-130 512,-130 512,-78 16,-78"/>
</g>
<!-- AffiliateModule -->
<g id="node1" class="node">
<title>AffiliateModule</title>
<polygon fill="#8dd3c7" stroke="black" points="504.47,-122 501.47,-126 480.47,-126 477.47,-122 397.53,-122 397.53,-86 504.47,-86 504.47,-122"/>
<text text-anchor="middle" x="451" y="-99.8" font-family="Times,serif" font-size="14.00">AffiliateModule</text>
</g>
<!-- AuthModule -->
<g id="node5" class="node">
<title>AuthModule</title>
<polygon fill="#8dd3c7" stroke="black" points="1329.55,-187 1326.55,-191 1305.55,-191 1302.55,-187 1242.45,-187 1242.45,-151 1329.55,-151 1329.55,-187"/>
<text text-anchor="middle" x="1286" y="-164.8" font-family="Times,serif" font-size="14.00">AuthModule</text>
</g>
<!-- AffiliateModule&#45;&gt;AuthModule -->
<g id="edge1" class="edge">
<title>AffiliateModule&#45;&gt;AuthModule</title>
<path fill="none" stroke="black" d="M451,-122.11C451,-141.34 451,-169 451,-169 451,-169 1232.28,-169 1232.28,-169"/>
<polygon fill="black" stroke="black" points="1232.28,-172.5 1242.28,-169 1232.28,-165.5 1232.28,-172.5"/>
</g>
<!-- ApiKeyModule -->
<g id="node2" class="node">
<title>ApiKeyModule</title>
<polygon fill="#8dd3c7" stroke="black" points="379.87,-122 376.87,-126 355.87,-126 352.87,-122 276.13,-122 276.13,-86 379.87,-86 379.87,-122"/>
<text text-anchor="middle" x="328" y="-99.8" font-family="Times,serif" font-size="14.00">ApiKeyModule</text>
</g>
<!-- ApiKeyModule&#45;&gt;AuthModule -->
<g id="edge2" class="edge">
<title>ApiKeyModule&#45;&gt;AuthModule</title>
<path fill="none" stroke="black" d="M328,-122.03C328,-142.77 328,-174 328,-174 328,-174 1232.35,-174 1232.35,-174"/>
<polygon fill="black" stroke="black" points="1232.35,-177.5 1242.35,-174 1232.35,-170.5 1232.35,-177.5"/>
</g>
<!-- PrismaModule -->
<g id="node3" class="node">
<title>PrismaModule</title>
<polygon fill="#8dd3c7" stroke="black" points="258.43,-122 255.43,-126 234.43,-126 231.43,-122 159.57,-122 159.57,-86 258.43,-86 258.43,-122"/>
<text text-anchor="middle" x="209" y="-99.8" font-family="Times,serif" font-size="14.00">PrismaModule</text>
</g>
<!-- PrismaModule&#45;&gt;AuthModule -->
<g id="edge3" class="edge">
<title>PrismaModule&#45;&gt;AuthModule</title>
<path fill="none" stroke="black" d="M209,-122.29C209,-144.21 209,-178 209,-178 209,-178 1232.45,-178 1232.45,-178"/>
<polygon fill="black" stroke="black" points="1232.45,-181.5 1242.45,-178 1232.45,-174.5 1232.45,-181.5"/>
</g>
<!-- RecaptchaModule -->
<g id="node4" class="node">
<title>RecaptchaModule</title>
<polygon fill="#8dd3c7" stroke="black" points="141.85,-122 138.85,-126 117.85,-126 114.85,-122 24.15,-122 24.15,-86 141.85,-86 141.85,-122"/>
<text text-anchor="middle" x="83" y="-99.8" font-family="Times,serif" font-size="14.00">RecaptchaModule</text>
</g>
<!-- RecaptchaModule&#45;&gt;AuthModule -->
<g id="edge4" class="edge">
<title>RecaptchaModule&#45;&gt;AuthModule</title>
<path fill="none" stroke="black" d="M83,-122.32C83,-145.66 83,-183 83,-183 83,-183 1232.12,-183 1232.12,-183"/>
<polygon fill="black" stroke="black" points="1232.12,-186.5 1242.12,-183 1232.12,-179.5 1232.12,-186.5"/>
</g>
<!-- AuthService  -->
<g id="node6" class="node">
<title>AuthService </title>
<polygon fill="#fb8072" stroke="black" points="1388.98,-252 1299.02,-252 1299.02,-216 1388.98,-216 1388.98,-252"/>
<text text-anchor="middle" x="1344" y="-229.8" font-family="Times,serif" font-size="14.00">AuthService </text>
</g>
<!-- AuthModule&#45;&gt;AuthService  -->
<g id="edge5" class="edge">
<title>AuthModule&#45;&gt;AuthService </title>
<path fill="none" stroke="black" stroke-dasharray="5,2" d="M1314.52,-187.11C1314.52,-187.11 1314.52,-205.99 1314.52,-205.99"/>
<polygon fill="black" stroke="black" points="1311.02,-205.99 1314.52,-215.99 1318.02,-205.99 1311.02,-205.99"/>
</g>
<!-- SessionService  -->
<g id="node7" class="node">
<title>SessionService </title>
<polygon fill="#fb8072" stroke="black" points="1281.25,-252 1176.75,-252 1176.75,-216 1281.25,-216 1281.25,-252"/>
<text text-anchor="middle" x="1229" y="-229.8" font-family="Times,serif" font-size="14.00">SessionService </text>
</g>
<!-- AuthModule&#45;&gt;SessionService  -->
<g id="edge6" class="edge">
<title>AuthModule&#45;&gt;SessionService </title>
<path fill="none" stroke="black" stroke-dasharray="5,2" d="M1261.68,-187.11C1261.68,-187.11 1261.68,-205.99 1261.68,-205.99"/>
<polygon fill="black" stroke="black" points="1258.18,-205.99 1261.68,-215.99 1265.18,-205.99 1258.18,-205.99"/>
</g>
<!-- AnonymousStrategy -->
<g id="node8" class="node">
<title>AnonymousStrategy</title>
<ellipse fill="#fdb462" stroke="black" cx="2495" cy="-104" rx="90.35" ry="18"/>
<text text-anchor="middle" x="2495" y="-99.8" font-family="Times,serif" font-size="14.00">AnonymousStrategy</text>
</g>
<!-- AnonymousStrategy&#45;&gt;AuthModule -->
<g id="edge7" class="edge">
<title>AnonymousStrategy&#45;&gt;AuthModule</title>
<path fill="none" stroke="black" d="M2495,-122.32C2495,-145.66 2495,-183 2495,-183 2495,-183 1339.74,-183 1339.74,-183"/>
<polygon fill="black" stroke="black" points="1339.74,-179.5 1329.74,-183 1339.74,-186.5 1339.74,-179.5"/>
</g>
<!-- AuthService -->
<g id="node9" class="node">
<title>AuthService</title>
<ellipse fill="#fdb462" stroke="black" cx="2327" cy="-104" rx="59.11" ry="18"/>
<text text-anchor="middle" x="2327" y="-99.8" font-family="Times,serif" font-size="14.00">AuthService</text>
</g>
<!-- AuthService&#45;&gt;AuthModule -->
<g id="edge8" class="edge">
<title>AuthService&#45;&gt;AuthModule</title>
<path fill="none" stroke="black" d="M2327,-122.29C2327,-144.21 2327,-178 2327,-178 2327,-178 1339.73,-178 1339.73,-178"/>
<polygon fill="black" stroke="black" points="1339.73,-174.5 1329.73,-178 1339.73,-181.5 1339.73,-174.5"/>
</g>
<!-- GoogleStrategy -->
<g id="node10" class="node">
<title>GoogleStrategy</title>
<ellipse fill="#fdb462" stroke="black" cx="2178" cy="-104" rx="71.79" ry="18"/>
<text text-anchor="middle" x="2178" y="-99.8" font-family="Times,serif" font-size="14.00">GoogleStrategy</text>
</g>
<!-- GoogleStrategy&#45;&gt;AuthModule -->
<g id="edge9" class="edge">
<title>GoogleStrategy&#45;&gt;AuthModule</title>
<path fill="none" stroke="black" d="M2178,-122.03C2178,-142.77 2178,-174 2178,-174 2178,-174 1339.63,-174 1339.63,-174"/>
<polygon fill="black" stroke="black" points="1339.63,-170.5 1329.63,-174 1339.63,-177.5 1339.63,-170.5"/>
</g>
<!-- JwtRefreshStrategy -->
<g id="node11" class="node">
<title>JwtRefreshStrategy</title>
<ellipse fill="#fdb462" stroke="black" cx="2002" cy="-104" rx="86.81" ry="18"/>
<text text-anchor="middle" x="2002" y="-99.8" font-family="Times,serif" font-size="14.00">JwtRefreshStrategy</text>
</g>
<!-- JwtRefreshStrategy&#45;&gt;AuthModule -->
<g id="edge10" class="edge">
<title>JwtRefreshStrategy&#45;&gt;AuthModule</title>
<path fill="none" stroke="black" d="M2002,-122.11C2002,-141.34 2002,-169 2002,-169 2002,-169 1339.71,-169 1339.71,-169"/>
<polygon fill="black" stroke="black" points="1339.71,-165.5 1329.71,-169 1339.71,-172.5 1339.71,-165.5"/>
</g>
<!-- JwtStrategy -->
<g id="node12" class="node">
<title>JwtStrategy</title>
<ellipse fill="#fdb462" stroke="black" cx="1841" cy="-104" rx="56.76" ry="18"/>
<text text-anchor="middle" x="1841" y="-99.8" font-family="Times,serif" font-size="14.00">JwtStrategy</text>
</g>
<!-- JwtStrategy&#45;&gt;AuthModule -->
<g id="edge11" class="edge">
<title>JwtStrategy&#45;&gt;AuthModule</title>
<path fill="none" stroke="black" d="M1841,-122.3C1841,-140.27 1841,-165 1841,-165 1841,-165 1339.55,-165 1339.55,-165"/>
<polygon fill="black" stroke="black" points="1339.55,-161.5 1329.55,-165 1339.55,-168.5 1339.55,-161.5"/>
</g>
<!-- SessionQueueProducer -->
<g id="node13" class="node">
<title>SessionQueueProducer</title>
<ellipse fill="#fdb462" stroke="black" cx="1666" cy="-104" rx="100.7" ry="18"/>
<text text-anchor="middle" x="1666" y="-99.8" font-family="Times,serif" font-size="14.00">SessionQueueProducer</text>
</g>
<!-- SessionQueueProducer&#45;&gt;AuthModule -->
<g id="edge12" class="edge">
<title>SessionQueueProducer&#45;&gt;AuthModule</title>
<path fill="none" stroke="black" d="M1666,-122.03C1666,-138.4 1666,-160 1666,-160 1666,-160 1339.59,-160 1339.59,-160"/>
<polygon fill="black" stroke="black" points="1339.59,-156.5 1329.59,-160 1339.59,-163.5 1339.59,-156.5"/>
</g>
<!-- SessionRepository -->
<g id="node14" class="node">
<title>SessionRepository</title>
<ellipse fill="#fdb462" stroke="black" cx="1464" cy="-104" rx="82.84" ry="18"/>
<text text-anchor="middle" x="1464" y="-99.8" font-family="Times,serif" font-size="14.00">SessionRepository</text>
</g>
<!-- SessionRepository&#45;&gt;AuthModule -->
<g id="edge13" class="edge">
<title>SessionRepository&#45;&gt;AuthModule</title>
<path fill="none" stroke="black" d="M1384.91,-109.56C1384.91,-122.98 1384.91,-156 1384.91,-156 1384.91,-156 1339.67,-156 1339.67,-156"/>
<polygon fill="black" stroke="black" points="1339.67,-152.5 1329.67,-156 1339.67,-159.5 1339.67,-152.5"/>
</g>
<!-- SessionSerializer -->
<g id="node15" class="node">
<title>SessionSerializer</title>
<ellipse fill="#fdb462" stroke="black" cx="1286" cy="-104" rx="77.58" ry="18"/>
<text text-anchor="middle" x="1286" y="-99.8" font-family="Times,serif" font-size="14.00">SessionSerializer</text>
</g>
<!-- SessionSerializer&#45;&gt;AuthModule -->
<g id="edge14" class="edge">
<title>SessionSerializer&#45;&gt;AuthModule</title>
<path fill="none" stroke="black" d="M1286,-122.11C1286,-122.11 1286,-140.99 1286,-140.99"/>
<polygon fill="black" stroke="black" points="1282.5,-140.99 1286,-150.99 1289.5,-140.99 1282.5,-140.99"/>
</g>
<!-- SessionService -->
<g id="node16" class="node">
<title>SessionService</title>
<ellipse fill="#fdb462" stroke="black" cx="1121" cy="-104" rx="69.5" ry="18"/>
<text text-anchor="middle" x="1121" y="-99.8" font-family="Times,serif" font-size="14.00">SessionService</text>
</g>
<!-- SessionService&#45;&gt;AuthModule -->
<g id="edge15" class="edge">
<title>SessionService&#45;&gt;AuthModule</title>
<path fill="none" stroke="black" d="M1183.69,-112.12C1183.69,-126.75 1183.69,-156 1183.69,-156 1183.69,-156 1232.31,-156 1232.31,-156"/>
<polygon fill="black" stroke="black" points="1232.31,-159.5 1242.31,-156 1232.31,-152.5 1232.31,-159.5"/>
</g>
<!-- SessionUpdateQueueProcessor -->
<g id="node17" class="node">
<title>SessionUpdateQueueProcessor</title>
<ellipse fill="#fdb462" stroke="black" cx="902" cy="-104" rx="131.34" ry="18"/>
<text text-anchor="middle" x="902" y="-99.8" font-family="Times,serif" font-size="14.00">SessionUpdateQueueProcessor</text>
</g>
<!-- SessionUpdateQueueProcessor&#45;&gt;AuthModule -->
<g id="edge16" class="edge">
<title>SessionUpdateQueueProcessor&#45;&gt;AuthModule</title>
<path fill="none" stroke="black" d="M902,-122.03C902,-138.4 902,-160 902,-160 902,-160 1232.32,-160 1232.32,-160"/>
<polygon fill="black" stroke="black" points="1232.32,-163.5 1242.32,-160 1232.32,-156.5 1232.32,-163.5"/>
</g>
<!-- SteamAuthOpenIdService -->
<g id="node18" class="node">
<title>SteamAuthOpenIdService</title>
<ellipse fill="#fdb462" stroke="black" cx="640" cy="-104" rx="112.3" ry="18"/>
<text text-anchor="middle" x="640" y="-99.8" font-family="Times,serif" font-size="14.00">SteamAuthOpenIdService</text>
</g>
<!-- SteamAuthOpenIdService&#45;&gt;AuthModule -->
<g id="edge17" class="edge">
<title>SteamAuthOpenIdService&#45;&gt;AuthModule</title>
<path fill="none" stroke="black" d="M640,-122.3C640,-140.27 640,-165 640,-165 640,-165 1232.36,-165 1232.36,-165"/>
<polygon fill="black" stroke="black" points="1232.36,-168.5 1242.36,-165 1232.36,-161.5 1232.36,-168.5"/>
</g>
</g>
</svg>
