<?xml version="1.0" encoding="UTF-8" standalone="no"?>
<!DOCTYPE svg PUBLIC "-//W3C//DTD SVG 1.1//EN"
 "http://www.w3.org/Graphics/SVG/1.1/DTD/svg11.dtd">
<!-- Generated by graphviz version 2.47.0 (20210316.0004)
 -->
<!-- Title: dependencies Pages: 1 -->
<svg width="765pt" height="284pt"
 viewBox="0.00 0.00 765.00 284.00" xmlns="http://www.w3.org/2000/svg" xmlns:xlink="http://www.w3.org/1999/xlink">
<g id="graph0" class="graph" transform="scale(1 1) rotate(0) translate(4 280)">
<title>dependencies</title>
<polygon fill="white" stroke="transparent" points="-4,4 -4,-280 761,-280 761,4 -4,4"/>
<text text-anchor="start" x="357.51" y="-42.4" font-family="Times-12" font-weight="bold" font-size="14.00">Legend</text>
<polygon fill="#ffffb3" stroke="transparent" points="144.5,-10 144.5,-30 164.5,-30 164.5,-10 144.5,-10"/>
<text text-anchor="start" x="168.13" y="-15.4" font-family="Times-12" font-size="14.00"> &#160;Declarations</text>
<polygon fill="#8dd3c7" stroke="transparent" points="257.5,-10 257.5,-30 277.5,-30 277.5,-10 257.5,-10"/>
<text text-anchor="start" x="281.23" y="-15.4" font-family="Times-12" font-size="14.00"> &#160;Module</text>
<polygon fill="#80b1d3" stroke="transparent" points="343.5,-10 343.5,-30 363.5,-30 363.5,-10 343.5,-10"/>
<text text-anchor="start" x="367.28" y="-15.4" font-family="Times-12" font-size="14.00"> &#160;Bootstrap</text>
<polygon fill="#fdb462" stroke="transparent" points="440.5,-10 440.5,-30 460.5,-30 460.5,-10 440.5,-10"/>
<text text-anchor="start" x="464.17" y="-15.4" font-family="Times-12" font-size="14.00"> &#160;Providers</text>
<polygon fill="#fb8072" stroke="transparent" points="536.5,-10 536.5,-30 556.5,-30 556.5,-10 536.5,-10"/>
<text text-anchor="start" x="560.23" y="-15.4" font-family="Times-12" font-size="14.00"> &#160;Exports</text>
<g id="clust1" class="cluster">
<title>cluster_CCPaymentModule</title>
<polygon fill="none" stroke="black" stroke-dasharray="1,5" points="8,-70 8,-268 749,-268 749,-70 8,-70"/>
</g>
<g id="clust3" class="cluster">
<title>cluster_CCPaymentModule_imports</title>
<polygon fill="none" stroke="black" points="480,-78 480,-130 741,-130 741,-78 480,-78"/>
</g>
<g id="clust4" class="cluster">
<title>cluster_CCPaymentModule_exports</title>
<polygon fill="none" stroke="black" points="248,-208 248,-260 595,-260 595,-208 248,-208"/>
</g>
<g id="clust6" class="cluster">
<title>cluster_CCPaymentModule_providers</title>
<polygon fill="none" stroke="black" points="16,-78 16,-130 472,-130 472,-78 16,-78"/>
</g>
<!-- HttpAgentModule -->
<g id="node1" class="node">
<title>HttpAgentModule</title>
<polygon fill="#8dd3c7" stroke="black" points="733.15,-122 730.15,-126 709.15,-126 706.15,-122 614.85,-122 614.85,-86 733.15,-86 733.15,-122"/>
<text text-anchor="middle" x="674" y="-99.8" font-family="Times,serif" font-size="14.00">HttpAgentModule</text>
</g>
<!-- CCPaymentModule -->
<g id="node3" class="node">
<title>CCPaymentModule</title>
<polygon fill="#8dd3c7" stroke="black" points="498.72,-187 495.72,-191 474.72,-191 471.72,-187 371.28,-187 371.28,-151 498.72,-151 498.72,-187"/>
<text text-anchor="middle" x="435" y="-164.8" font-family="Times,serif" font-size="14.00">CCPaymentModule</text>
</g>
<!-- HttpAgentModule&#45;&gt;CCPaymentModule -->
<g id="edge1" class="edge">
<title>HttpAgentModule&#45;&gt;CCPaymentModule</title>
<path fill="none" stroke="black" d="M674,-122.11C674,-141.34 674,-169 674,-169 674,-169 508.73,-169 508.73,-169"/>
<polygon fill="black" stroke="black" points="508.73,-165.5 498.73,-169 508.73,-172.5 508.73,-165.5"/>
</g>
<!-- NetworkModule -->
<g id="node2" class="node">
<title>NetworkModule</title>
<polygon fill="#8dd3c7" stroke="black" points="596.03,-122 593.03,-126 572.03,-126 569.03,-122 487.97,-122 487.97,-86 596.03,-86 596.03,-122"/>
<text text-anchor="middle" x="542" y="-99.8" font-family="Times,serif" font-size="14.00">NetworkModule</text>
</g>
<!-- NetworkModule&#45;&gt;CCPaymentModule -->
<g id="edge2" class="edge">
<title>NetworkModule&#45;&gt;CCPaymentModule</title>
<path fill="none" stroke="black" d="M493.17,-122.11C493.17,-122.11 493.17,-140.99 493.17,-140.99"/>
<polygon fill="black" stroke="black" points="489.67,-140.99 493.17,-150.99 496.67,-140.99 489.67,-140.99"/>
</g>
<!-- CCPaymentService  -->
<g id="node4" class="node">
<title>CCPaymentService </title>
<polygon fill="#fb8072" stroke="black" points="586.64,-252 457.36,-252 457.36,-216 586.64,-216 586.64,-252"/>
<text text-anchor="middle" x="522" y="-229.8" font-family="Times,serif" font-size="14.00">CCPaymentService </text>
</g>
<!-- CCPaymentModule&#45;&gt;CCPaymentService  -->
<g id="edge3" class="edge">
<title>CCPaymentModule&#45;&gt;CCPaymentService </title>
<path fill="none" stroke="black" stroke-dasharray="5,2" d="M478.02,-187.11C478.02,-187.11 478.02,-205.99 478.02,-205.99"/>
<polygon fill="black" stroke="black" points="474.52,-205.99 478.02,-215.99 481.52,-205.99 474.52,-205.99"/>
</g>
<!-- CCPaymentWebhookService  -->
<g id="node5" class="node">
<title>CCPaymentWebhookService </title>
<polygon fill="#fb8072" stroke="black" points="439.57,-252 256.43,-252 256.43,-216 439.57,-216 439.57,-252"/>
<text text-anchor="middle" x="348" y="-229.8" font-family="Times,serif" font-size="14.00">CCPaymentWebhookService </text>
</g>
<!-- CCPaymentModule&#45;&gt;CCPaymentWebhookService  -->
<g id="edge4" class="edge">
<title>CCPaymentModule&#45;&gt;CCPaymentWebhookService </title>
<path fill="none" stroke="black" stroke-dasharray="5,2" d="M405.59,-187.11C405.59,-187.11 405.59,-205.99 405.59,-205.99"/>
<polygon fill="black" stroke="black" points="402.09,-205.99 405.59,-215.99 409.09,-205.99 402.09,-205.99"/>
</g>
<!-- CCPaymentService -->
<g id="node6" class="node">
<title>CCPaymentService</title>
<ellipse fill="#fdb462" stroke="black" cx="377" cy="-104" rx="86.83" ry="18"/>
<text text-anchor="middle" x="377" y="-99.8" font-family="Times,serif" font-size="14.00">CCPaymentService</text>
</g>
<!-- CCPaymentService&#45;&gt;CCPaymentModule -->
<g id="edge5" class="edge">
<title>CCPaymentService&#45;&gt;CCPaymentModule</title>
<path fill="none" stroke="black" d="M417.53,-120.07C417.53,-120.07 417.53,-140.82 417.53,-140.82"/>
<polygon fill="black" stroke="black" points="414.03,-140.82 417.53,-150.82 421.03,-140.82 414.03,-140.82"/>
</g>
<!-- CCPaymentWebhookService -->
<g id="node7" class="node">
<title>CCPaymentWebhookService</title>
<ellipse fill="#fdb462" stroke="black" cx="148" cy="-104" rx="124.42" ry="18"/>
<text text-anchor="middle" x="148" y="-99.8" font-family="Times,serif" font-size="14.00">CCPaymentWebhookService</text>
</g>
<!-- CCPaymentWebhookService&#45;&gt;CCPaymentModule -->
<g id="edge6" class="edge">
<title>CCPaymentWebhookService&#45;&gt;CCPaymentModule</title>
<path fill="none" stroke="black" d="M264.21,-110.47C264.21,-126.91 264.21,-169 264.21,-169 264.21,-169 360.92,-169 360.92,-169"/>
<polygon fill="black" stroke="black" points="360.92,-172.5 370.92,-169 360.92,-165.5 360.92,-172.5"/>
</g>
</g>
</svg>
