<?xml version="1.0" encoding="UTF-8" standalone="no"?>
<!DOCTYPE svg PUBLIC "-//W3C//DTD SVG 1.1//EN"
 "http://www.w3.org/Graphics/SVG/1.1/DTD/svg11.dtd">
<!-- Generated by graphviz version 2.47.0 (20210316.0004)
 -->
<!-- Title: dependencies Pages: 1 -->
<svg width="1872pt" height="284pt"
 viewBox="0.00 0.00 1872.00 284.00" xmlns="http://www.w3.org/2000/svg" xmlns:xlink="http://www.w3.org/1999/xlink">
<g id="graph0" class="graph" transform="scale(1 1) rotate(0) translate(4 280)">
<title>dependencies</title>
<polygon fill="white" stroke="transparent" points="-4,4 -4,-280 1868,-280 1868,4 -4,4"/>
<text text-anchor="start" x="911.01" y="-42.4" font-family="Times-12" font-weight="bold" font-size="14.00">Legend</text>
<polygon fill="#ffffb3" stroke="transparent" points="698,-10 698,-30 718,-30 718,-10 698,-10"/>
<text text-anchor="start" x="721.63" y="-15.4" font-family="Times-12" font-size="14.00"> &#160;Declarations</text>
<polygon fill="#8dd3c7" stroke="transparent" points="811,-10 811,-30 831,-30 831,-10 811,-10"/>
<text text-anchor="start" x="834.73" y="-15.4" font-family="Times-12" font-size="14.00"> &#160;Module</text>
<polygon fill="#80b1d3" stroke="transparent" points="897,-10 897,-30 917,-30 917,-10 897,-10"/>
<text text-anchor="start" x="920.78" y="-15.4" font-family="Times-12" font-size="14.00"> &#160;Bootstrap</text>
<polygon fill="#fdb462" stroke="transparent" points="994,-10 994,-30 1014,-30 1014,-10 994,-10"/>
<text text-anchor="start" x="1017.67" y="-15.4" font-family="Times-12" font-size="14.00"> &#160;Providers</text>
<polygon fill="#fb8072" stroke="transparent" points="1090,-10 1090,-30 1110,-30 1110,-10 1090,-10"/>
<text text-anchor="start" x="1113.73" y="-15.4" font-family="Times-12" font-size="14.00"> &#160;Exports</text>
<g id="clust1" class="cluster">
<title>cluster_DepositStrategyModule</title>
<polygon fill="none" stroke="black" stroke-dasharray="1,5" points="8,-70 8,-268 1856,-268 1856,-70 8,-70"/>
</g>
<g id="clust3" class="cluster">
<title>cluster_DepositStrategyModule_imports</title>
<polygon fill="none" stroke="black" points="1489,-78 1489,-130 1848,-130 1848,-78 1489,-78"/>
</g>
<g id="clust4" class="cluster">
<title>cluster_DepositStrategyModule_exports</title>
<polygon fill="none" stroke="black" points="972,-208 972,-260 1098,-260 1098,-208 972,-208"/>
</g>
<g id="clust6" class="cluster">
<title>cluster_DepositStrategyModule_providers</title>
<polygon fill="none" stroke="black" points="16,-78 16,-130 1481,-130 1481,-78 16,-78"/>
</g>
<!-- BetModule -->
<g id="node1" class="node">
<title>BetModule</title>
<polygon fill="#8dd3c7" stroke="black" points="1840.49,-122 1837.49,-126 1816.49,-126 1813.49,-122 1761.51,-122 1761.51,-86 1840.49,-86 1840.49,-122"/>
<text text-anchor="middle" x="1801" y="-99.8" font-family="Times,serif" font-size="14.00">BetModule</text>
</g>
<!-- DepositStrategyModule -->
<g id="node4" class="node">
<title>DepositStrategyModule</title>
<polygon fill="#8dd3c7" stroke="black" points="1109.75,-187 1106.75,-191 1085.75,-191 1082.75,-187 960.25,-187 960.25,-151 1109.75,-151 1109.75,-187"/>
<text text-anchor="middle" x="1035" y="-164.8" font-family="Times,serif" font-size="14.00">DepositStrategyModule</text>
</g>
<!-- BetModule&#45;&gt;DepositStrategyModule -->
<g id="edge1" class="edge">
<title>BetModule&#45;&gt;DepositStrategyModule</title>
<path fill="none" stroke="black" d="M1801,-122.01C1801,-144.49 1801,-180 1801,-180 1801,-180 1119.84,-180 1119.84,-180"/>
<polygon fill="black" stroke="black" points="1119.84,-176.5 1109.84,-180 1119.84,-183.5 1119.84,-176.5"/>
</g>
<!-- GamesModule -->
<g id="node2" class="node">
<title>GamesModule</title>
<polygon fill="#8dd3c7" stroke="black" points="1743.42,-122 1740.42,-126 1719.42,-126 1716.42,-122 1644.58,-122 1644.58,-86 1743.42,-86 1743.42,-122"/>
<text text-anchor="middle" x="1694" y="-99.8" font-family="Times,serif" font-size="14.00">GamesModule</text>
</g>
<!-- GamesModule&#45;&gt;DepositStrategyModule -->
<g id="edge2" class="edge">
<title>GamesModule&#45;&gt;DepositStrategyModule</title>
<path fill="none" stroke="black" d="M1694,-122.13C1694,-142.57 1694,-173 1694,-173 1694,-173 1119.95,-173 1119.95,-173"/>
<polygon fill="black" stroke="black" points="1119.95,-169.5 1109.95,-173 1119.95,-176.5 1119.95,-169.5"/>
</g>
<!-- GatewayApiModule -->
<g id="node3" class="node">
<title>GatewayApiModule</title>
<polygon fill="#8dd3c7" stroke="black" points="1627.29,-122 1624.29,-126 1603.29,-126 1600.29,-122 1496.71,-122 1496.71,-86 1627.29,-86 1627.29,-122"/>
<text text-anchor="middle" x="1562" y="-99.8" font-family="Times,serif" font-size="14.00">GatewayApiModule</text>
</g>
<!-- GatewayApiModule&#45;&gt;DepositStrategyModule -->
<g id="edge3" class="edge">
<title>GatewayApiModule&#45;&gt;DepositStrategyModule</title>
<path fill="none" stroke="black" d="M1562,-122.27C1562,-140.56 1562,-166 1562,-166 1562,-166 1119.95,-166 1119.95,-166"/>
<polygon fill="black" stroke="black" points="1119.95,-162.5 1109.95,-166 1119.95,-169.5 1119.95,-162.5"/>
</g>
<!-- DepositStrategy  -->
<g id="node5" class="node">
<title>DepositStrategy </title>
<polygon fill="#fb8072" stroke="black" points="1089.7,-252 980.3,-252 980.3,-216 1089.7,-216 1089.7,-252"/>
<text text-anchor="middle" x="1035" y="-229.8" font-family="Times,serif" font-size="14.00">DepositStrategy </text>
</g>
<!-- DepositStrategyModule&#45;&gt;DepositStrategy  -->
<g id="edge4" class="edge">
<title>DepositStrategyModule&#45;&gt;DepositStrategy </title>
<path fill="none" stroke="black" stroke-dasharray="5,2" d="M1035,-187.11C1035,-187.11 1035,-205.99 1035,-205.99"/>
<polygon fill="black" stroke="black" points="1031.5,-205.99 1035,-215.99 1038.5,-205.99 1031.5,-205.99"/>
</g>
<!-- DepositPartialResettleBetStrategy -->
<g id="node6" class="node">
<title>DepositPartialResettleBetStrategy</title>
<ellipse fill="#fdb462" stroke="black" cx="1330" cy="-104" rx="142.96" ry="18"/>
<text text-anchor="middle" x="1330" y="-99.8" font-family="Times,serif" font-size="14.00">DepositPartialResettleBetStrategy</text>
</g>
<!-- DepositPartialResettleBetStrategy&#45;&gt;DepositStrategyModule -->
<g id="edge5" class="edge">
<title>DepositPartialResettleBetStrategy&#45;&gt;DepositStrategyModule</title>
<path fill="none" stroke="black" d="M1330,-122.01C1330,-138.05 1330,-159 1330,-159 1330,-159 1119.82,-159 1119.82,-159"/>
<polygon fill="black" stroke="black" points="1119.82,-155.5 1109.82,-159 1119.82,-162.5 1119.82,-155.5"/>
</g>
<!-- DepositPartialSettleBetStrategy -->
<g id="node7" class="node">
<title>DepositPartialSettleBetStrategy</title>
<ellipse fill="#fdb462" stroke="black" cx="1035" cy="-104" rx="133.73" ry="18"/>
<text text-anchor="middle" x="1035" y="-99.8" font-family="Times,serif" font-size="14.00">DepositPartialSettleBetStrategy</text>
</g>
<!-- DepositPartialSettleBetStrategy&#45;&gt;DepositStrategyModule -->
<g id="edge6" class="edge">
<title>DepositPartialSettleBetStrategy&#45;&gt;DepositStrategyModule</title>
<path fill="none" stroke="black" d="M1035,-122.11C1035,-122.11 1035,-140.99 1035,-140.99"/>
<polygon fill="black" stroke="black" points="1031.5,-140.99 1035,-150.99 1038.5,-140.99 1031.5,-140.99"/>
</g>
<!-- DepositResettleBetStrategy -->
<g id="node8" class="node">
<title>DepositResettleBetStrategy</title>
<ellipse fill="#fdb462" stroke="black" cx="765" cy="-104" rx="117.55" ry="18"/>
<text text-anchor="middle" x="765" y="-99.8" font-family="Times,serif" font-size="14.00">DepositResettleBetStrategy</text>
</g>
<!-- DepositResettleBetStrategy&#45;&gt;DepositStrategyModule -->
<g id="edge7" class="edge">
<title>DepositResettleBetStrategy&#45;&gt;DepositStrategyModule</title>
<path fill="none" stroke="black" d="M765,-122.01C765,-138.05 765,-159 765,-159 765,-159 950.15,-159 950.15,-159"/>
<polygon fill="black" stroke="black" points="950.15,-162.5 960.15,-159 950.15,-155.5 950.15,-162.5"/>
</g>
<!-- DepositSettleBetStrategy -->
<g id="node9" class="node">
<title>DepositSettleBetStrategy</title>
<ellipse fill="#fdb462" stroke="black" cx="521" cy="-104" rx="108.82" ry="18"/>
<text text-anchor="middle" x="521" y="-99.8" font-family="Times,serif" font-size="14.00">DepositSettleBetStrategy</text>
</g>
<!-- DepositSettleBetStrategy&#45;&gt;DepositStrategyModule -->
<g id="edge8" class="edge">
<title>DepositSettleBetStrategy&#45;&gt;DepositStrategyModule</title>
<path fill="none" stroke="black" d="M521,-122.27C521,-140.56 521,-166 521,-166 521,-166 949.98,-166 949.98,-166"/>
<polygon fill="black" stroke="black" points="949.98,-169.5 959.98,-166 949.98,-162.5 949.98,-169.5"/>
</g>
<!-- DepositStrategy -->
<g id="node10" class="node">
<title>DepositStrategy</title>
<ellipse fill="#fdb462" stroke="black" cx="321" cy="-104" rx="73.01" ry="18"/>
<text text-anchor="middle" x="321" y="-99.8" font-family="Times,serif" font-size="14.00">DepositStrategy</text>
</g>
<!-- DepositStrategy&#45;&gt;DepositStrategyModule -->
<g id="edge9" class="edge">
<title>DepositStrategy&#45;&gt;DepositStrategyModule</title>
<path fill="none" stroke="black" d="M321,-122.13C321,-142.57 321,-173 321,-173 321,-173 949.94,-173 949.94,-173"/>
<polygon fill="black" stroke="black" points="949.94,-176.5 959.94,-173 949.94,-169.5 949.94,-176.5"/>
</g>
<!-- DepositStrategyFactory -->
<g id="node11" class="node">
<title>DepositStrategyFactory</title>
<ellipse fill="#fdb462" stroke="black" cx="127" cy="-104" rx="102.51" ry="18"/>
<text text-anchor="middle" x="127" y="-99.8" font-family="Times,serif" font-size="14.00">DepositStrategyFactory</text>
</g>
<!-- DepositStrategyFactory&#45;&gt;DepositStrategyModule -->
<g id="edge10" class="edge">
<title>DepositStrategyFactory&#45;&gt;DepositStrategyModule</title>
<path fill="none" stroke="black" d="M127,-122.01C127,-144.49 127,-180 127,-180 127,-180 949.92,-180 949.92,-180"/>
<polygon fill="black" stroke="black" points="949.92,-183.5 959.92,-180 949.92,-176.5 949.92,-183.5"/>
</g>
</g>
</svg>
