<?xml version="1.0" encoding="UTF-8" standalone="no"?>
<!DOCTYPE svg PUBLIC "-//W3C//DTD SVG 1.1//EN"
 "http://www.w3.org/Graphics/SVG/1.1/DTD/svg11.dtd">
<!-- Generated by graphviz version 2.47.0 (20210316.0004)
 -->
<!-- Title: dependencies Pages: 1 -->
<svg width="504pt" height="284pt"
 viewBox="0.00 0.00 504.00 284.00" xmlns="http://www.w3.org/2000/svg" xmlns:xlink="http://www.w3.org/1999/xlink">
<g id="graph0" class="graph" transform="scale(1 1) rotate(0) translate(4 280)">
<title>dependencies</title>
<polygon fill="white" stroke="transparent" points="-4,4 -4,-280 500,-280 500,4 -4,4"/>
<text text-anchor="start" x="227.01" y="-42.4" font-family="Times-12" font-weight="bold" font-size="14.00">Legend</text>
<polygon fill="#ffffb3" stroke="transparent" points="14,-10 14,-30 34,-30 34,-10 14,-10"/>
<text text-anchor="start" x="37.63" y="-15.4" font-family="Times-12" font-size="14.00"> &#160;Declarations</text>
<polygon fill="#8dd3c7" stroke="transparent" points="127,-10 127,-30 147,-30 147,-10 127,-10"/>
<text text-anchor="start" x="150.73" y="-15.4" font-family="Times-12" font-size="14.00"> &#160;Module</text>
<polygon fill="#80b1d3" stroke="transparent" points="213,-10 213,-30 233,-30 233,-10 213,-10"/>
<text text-anchor="start" x="236.78" y="-15.4" font-family="Times-12" font-size="14.00"> &#160;Bootstrap</text>
<polygon fill="#fdb462" stroke="transparent" points="310,-10 310,-30 330,-30 330,-10 310,-10"/>
<text text-anchor="start" x="333.67" y="-15.4" font-family="Times-12" font-size="14.00"> &#160;Providers</text>
<polygon fill="#fb8072" stroke="transparent" points="406,-10 406,-30 426,-30 426,-10 406,-10"/>
<text text-anchor="start" x="429.73" y="-15.4" font-family="Times-12" font-size="14.00"> &#160;Exports</text>
<g id="clust1" class="cluster">
<title>cluster_ApiKeyModule</title>
<polygon fill="none" stroke="black" stroke-dasharray="1,5" points="68,-70 68,-268 428,-268 428,-70 68,-70"/>
</g>
<g id="clust4" class="cluster">
<title>cluster_ApiKeyModule_exports</title>
<polygon fill="none" stroke="black" points="180,-208 180,-260 302,-260 302,-208 180,-208"/>
</g>
<g id="clust6" class="cluster">
<title>cluster_ApiKeyModule_providers</title>
<polygon fill="none" stroke="black" points="76,-78 76,-130 420,-130 420,-78 76,-78"/>
</g>
<!-- ApiKeyService  -->
<g id="node1" class="node">
<title>ApiKeyService </title>
<polygon fill="#fb8072" stroke="black" points="293.8,-252 188.2,-252 188.2,-216 293.8,-216 293.8,-252"/>
<text text-anchor="middle" x="241" y="-229.8" font-family="Times,serif" font-size="14.00">ApiKeyService </text>
</g>
<!-- ApiKeyModule -->
<g id="node2" class="node">
<title>ApiKeyModule</title>
<polygon fill="#8dd3c7" stroke="black" points="292.87,-187 289.87,-191 268.87,-191 265.87,-187 189.13,-187 189.13,-151 292.87,-151 292.87,-187"/>
<text text-anchor="middle" x="241" y="-164.8" font-family="Times,serif" font-size="14.00">ApiKeyModule</text>
</g>
<!-- ApiKeyModule&#45;&gt;ApiKeyService  -->
<g id="edge1" class="edge">
<title>ApiKeyModule&#45;&gt;ApiKeyService </title>
<path fill="none" stroke="black" stroke-dasharray="5,2" d="M241,-187.11C241,-187.11 241,-205.99 241,-205.99"/>
<polygon fill="black" stroke="black" points="237.5,-205.99 241,-215.99 244.5,-205.99 237.5,-205.99"/>
</g>
<!-- ApiKeyRepository -->
<g id="node3" class="node">
<title>ApiKeyRepository</title>
<ellipse fill="#fdb462" stroke="black" cx="328" cy="-104" rx="83.97" ry="18"/>
<text text-anchor="middle" x="328" y="-99.8" font-family="Times,serif" font-size="14.00">ApiKeyRepository</text>
</g>
<!-- ApiKeyRepository&#45;&gt;ApiKeyModule -->
<g id="edge2" class="edge">
<title>ApiKeyRepository&#45;&gt;ApiKeyModule</title>
<path fill="none" stroke="black" d="M268.47,-116.84C268.47,-116.84 268.47,-140.52 268.47,-140.52"/>
<polygon fill="black" stroke="black" points="264.97,-140.52 268.47,-150.52 271.97,-140.52 264.97,-140.52"/>
</g>
<!-- ApiKeyService -->
<g id="node4" class="node">
<title>ApiKeyService</title>
<ellipse fill="#fdb462" stroke="black" cx="155" cy="-104" rx="70.62" ry="18"/>
<text text-anchor="middle" x="155" y="-99.8" font-family="Times,serif" font-size="14.00">ApiKeyService</text>
</g>
<!-- ApiKeyService&#45;&gt;ApiKeyModule -->
<g id="edge3" class="edge">
<title>ApiKeyService&#45;&gt;ApiKeyModule</title>
<path fill="none" stroke="black" d="M207.31,-116.23C207.31,-116.23 207.31,-140.68 207.31,-140.68"/>
<polygon fill="black" stroke="black" points="203.81,-140.68 207.31,-150.68 210.81,-140.68 203.81,-140.68"/>
</g>
</g>
</svg>
