<?xml version="1.0" encoding="UTF-8" standalone="no"?>
<!DOCTYPE svg PUBLIC "-//W3C//DTD SVG 1.1//EN"
 "http://www.w3.org/Graphics/SVG/1.1/DTD/svg11.dtd">
<!-- Generated by graphviz version 2.47.0 (20210316.0004)
 -->
<!-- Title: dependencies Pages: 1 -->
<svg width="1112pt" height="284pt"
 viewBox="0.00 0.00 1112.00 284.00" xmlns="http://www.w3.org/2000/svg" xmlns:xlink="http://www.w3.org/1999/xlink">
<g id="graph0" class="graph" transform="scale(1 1) rotate(0) translate(4 280)">
<title>dependencies</title>
<polygon fill="white" stroke="transparent" points="-4,4 -4,-280 1108,-280 1108,4 -4,4"/>
<text text-anchor="start" x="531.01" y="-42.4" font-family="Times-12" font-weight="bold" font-size="14.00">Legend</text>
<polygon fill="#ffffb3" stroke="transparent" points="318,-10 318,-30 338,-30 338,-10 318,-10"/>
<text text-anchor="start" x="341.63" y="-15.4" font-family="Times-12" font-size="14.00"> &#160;Declarations</text>
<polygon fill="#8dd3c7" stroke="transparent" points="431,-10 431,-30 451,-30 451,-10 431,-10"/>
<text text-anchor="start" x="454.73" y="-15.4" font-family="Times-12" font-size="14.00"> &#160;Module</text>
<polygon fill="#80b1d3" stroke="transparent" points="517,-10 517,-30 537,-30 537,-10 517,-10"/>
<text text-anchor="start" x="540.78" y="-15.4" font-family="Times-12" font-size="14.00"> &#160;Bootstrap</text>
<polygon fill="#fdb462" stroke="transparent" points="614,-10 614,-30 634,-30 634,-10 614,-10"/>
<text text-anchor="start" x="637.67" y="-15.4" font-family="Times-12" font-size="14.00"> &#160;Providers</text>
<polygon fill="#fb8072" stroke="transparent" points="710,-10 710,-30 730,-30 730,-10 710,-10"/>
<text text-anchor="start" x="733.73" y="-15.4" font-family="Times-12" font-size="14.00"> &#160;Exports</text>
<g id="clust1" class="cluster">
<title>cluster_MonkeyRunsModule</title>
<polygon fill="none" stroke="black" stroke-dasharray="1,5" points="8,-70 8,-268 1096,-268 1096,-70 8,-70"/>
</g>
<g id="clust4" class="cluster">
<title>cluster_MonkeyRunsModule_exports</title>
<polygon fill="none" stroke="black" points="438,-208 438,-260 586,-260 586,-208 438,-208"/>
</g>
<g id="clust6" class="cluster">
<title>cluster_MonkeyRunsModule_providers</title>
<polygon fill="none" stroke="black" points="674,-78 674,-130 1088,-130 1088,-78 674,-78"/>
</g>
<g id="clust3" class="cluster">
<title>cluster_MonkeyRunsModule_imports</title>
<polygon fill="none" stroke="black" points="16,-78 16,-130 666,-130 666,-78 16,-78"/>
</g>
<!-- BetModule -->
<g id="node1" class="node">
<title>BetModule</title>
<polygon fill="#8dd3c7" stroke="black" points="658.49,-122 655.49,-126 634.49,-126 631.49,-122 579.51,-122 579.51,-86 658.49,-86 658.49,-122"/>
<text text-anchor="middle" x="619" y="-99.8" font-family="Times,serif" font-size="14.00">BetModule</text>
</g>
<!-- MonkeyRunsModule -->
<g id="node6" class="node">
<title>MonkeyRunsModule</title>
<polygon fill="#8dd3c7" stroke="black" points="579.49,-187 576.49,-191 555.49,-191 552.49,-187 444.51,-187 444.51,-151 579.49,-151 579.49,-187"/>
<text text-anchor="middle" x="512" y="-164.8" font-family="Times,serif" font-size="14.00">MonkeyRunsModule</text>
</g>
<!-- BetModule&#45;&gt;MonkeyRunsModule -->
<g id="edge1" class="edge">
<title>BetModule&#45;&gt;MonkeyRunsModule</title>
<path fill="none" stroke="black" d="M579.28,-104C573.99,-104 570.35,-104 570.35,-104 570.35,-104 570.35,-140.89 570.35,-140.89"/>
<polygon fill="black" stroke="black" points="566.85,-140.89 570.35,-150.89 573.85,-140.89 566.85,-140.89"/>
</g>
<!-- GamesModule -->
<g id="node2" class="node">
<title>GamesModule</title>
<polygon fill="#8dd3c7" stroke="black" points="561.42,-122 558.42,-126 537.42,-126 534.42,-122 462.58,-122 462.58,-86 561.42,-86 561.42,-122"/>
<text text-anchor="middle" x="512" y="-99.8" font-family="Times,serif" font-size="14.00">GamesModule</text>
</g>
<!-- GamesModule&#45;&gt;MonkeyRunsModule -->
<g id="edge2" class="edge">
<title>GamesModule&#45;&gt;MonkeyRunsModule</title>
<path fill="none" stroke="black" d="M512,-122.11C512,-122.11 512,-140.99 512,-140.99"/>
<polygon fill="black" stroke="black" points="508.5,-140.99 512,-150.99 515.5,-140.99 508.5,-140.99"/>
</g>
<!-- HouseValidationModule -->
<g id="node3" class="node">
<title>HouseValidationModule</title>
<polygon fill="#8dd3c7" stroke="black" points="445.41,-122 442.41,-126 421.41,-126 418.41,-122 290.59,-122 290.59,-86 445.41,-86 445.41,-122"/>
<text text-anchor="middle" x="368" y="-99.8" font-family="Times,serif" font-size="14.00">HouseValidationModule</text>
</g>
<!-- HouseValidationModule&#45;&gt;MonkeyRunsModule -->
<g id="edge3" class="edge">
<title>HouseValidationModule&#45;&gt;MonkeyRunsModule</title>
<path fill="none" stroke="black" d="M445.44,-104C450.72,-104 454,-104 454,-104 454,-104 454,-140.89 454,-140.89"/>
<polygon fill="black" stroke="black" points="450.5,-140.89 454,-150.89 457.5,-140.89 450.5,-140.89"/>
</g>
<!-- PrismaModule -->
<g id="node4" class="node">
<title>PrismaModule</title>
<polygon fill="#8dd3c7" stroke="black" points="273.43,-122 270.43,-126 249.43,-126 246.43,-122 174.57,-122 174.57,-86 273.43,-86 273.43,-122"/>
<text text-anchor="middle" x="224" y="-99.8" font-family="Times,serif" font-size="14.00">PrismaModule</text>
</g>
<!-- PrismaModule&#45;&gt;MonkeyRunsModule -->
<g id="edge4" class="edge">
<title>PrismaModule&#45;&gt;MonkeyRunsModule</title>
<path fill="none" stroke="black" d="M224,-122.02C224,-139.37 224,-163 224,-163 224,-163 434.48,-163 434.48,-163"/>
<polygon fill="black" stroke="black" points="434.48,-166.5 444.48,-163 434.48,-159.5 434.48,-166.5"/>
</g>
<!-- ProvablyFairModule -->
<g id="node5" class="node">
<title>ProvablyFairModule</title>
<polygon fill="#8dd3c7" stroke="black" points="156.15,-122 153.15,-126 132.15,-126 129.15,-122 23.85,-122 23.85,-86 156.15,-86 156.15,-122"/>
<text text-anchor="middle" x="90" y="-99.8" font-family="Times,serif" font-size="14.00">ProvablyFairModule</text>
</g>
<!-- ProvablyFairModule&#45;&gt;MonkeyRunsModule -->
<g id="edge5" class="edge">
<title>ProvablyFairModule&#45;&gt;MonkeyRunsModule</title>
<path fill="none" stroke="black" d="M90,-122.28C90,-143.32 90,-175 90,-175 90,-175 434.2,-175 434.2,-175"/>
<polygon fill="black" stroke="black" points="434.2,-178.5 444.2,-175 434.2,-171.5 434.2,-178.5"/>
</g>
<!-- MonkeyRunService  -->
<g id="node7" class="node">
<title>MonkeyRunService </title>
<polygon fill="#fb8072" stroke="black" points="577.97,-252 446.03,-252 446.03,-216 577.97,-216 577.97,-252"/>
<text text-anchor="middle" x="512" y="-229.8" font-family="Times,serif" font-size="14.00">MonkeyRunService </text>
</g>
<!-- MonkeyRunsModule&#45;&gt;MonkeyRunService  -->
<g id="edge6" class="edge">
<title>MonkeyRunsModule&#45;&gt;MonkeyRunService </title>
<path fill="none" stroke="black" stroke-dasharray="5,2" d="M512,-187.11C512,-187.11 512,-205.99 512,-205.99"/>
<polygon fill="black" stroke="black" points="508.5,-205.99 512,-215.99 515.5,-205.99 508.5,-205.99"/>
</g>
<!-- MonkeyRunRepository -->
<g id="node8" class="node">
<title>MonkeyRunRepository</title>
<ellipse fill="#fdb462" stroke="black" cx="978" cy="-104" rx="101.89" ry="18"/>
<text text-anchor="middle" x="978" y="-99.8" font-family="Times,serif" font-size="14.00">MonkeyRunRepository</text>
</g>
<!-- MonkeyRunRepository&#45;&gt;MonkeyRunsModule -->
<g id="edge7" class="edge">
<title>MonkeyRunRepository&#45;&gt;MonkeyRunsModule</title>
<path fill="none" stroke="black" d="M978,-122.28C978,-143.32 978,-175 978,-175 978,-175 589.76,-175 589.76,-175"/>
<polygon fill="black" stroke="black" points="589.76,-171.5 579.76,-175 589.76,-178.5 589.76,-171.5"/>
</g>
<!-- MonkeyRunService -->
<g id="node9" class="node">
<title>MonkeyRunService</title>
<ellipse fill="#fdb462" stroke="black" cx="770" cy="-104" rx="88.05" ry="18"/>
<text text-anchor="middle" x="770" y="-99.8" font-family="Times,serif" font-size="14.00">MonkeyRunService</text>
</g>
<!-- MonkeyRunService&#45;&gt;MonkeyRunsModule -->
<g id="edge8" class="edge">
<title>MonkeyRunService&#45;&gt;MonkeyRunsModule</title>
<path fill="none" stroke="black" d="M770,-122.02C770,-139.37 770,-163 770,-163 770,-163 589.79,-163 589.79,-163"/>
<polygon fill="black" stroke="black" points="589.79,-159.5 579.79,-163 589.79,-166.5 589.79,-159.5"/>
</g>
</g>
</svg>
