<?xml version="1.0" encoding="UTF-8" standalone="no"?>
<!DOCTYPE svg PUBLIC "-//W3C//DTD SVG 1.1//EN"
 "http://www.w3.org/Graphics/SVG/1.1/DTD/svg11.dtd">
<!-- Generated by graphviz version 2.47.0 (20210316.0004)
 -->
<!-- Title: dependencies Pages: 1 -->
<svg width="990pt" height="211pt"
 viewBox="0.00 0.00 990.00 211.00" xmlns="http://www.w3.org/2000/svg" xmlns:xlink="http://www.w3.org/1999/xlink">
<g id="graph0" class="graph" transform="scale(1 1) rotate(0) translate(4 207)">
<title>dependencies</title>
<polygon fill="white" stroke="transparent" points="-4,4 -4,-207 986,-207 986,4 -4,4"/>
<text text-anchor="start" x="470.01" y="-42.4" font-family="Times-12" font-weight="bold" font-size="14.00">Legend</text>
<polygon fill="#ffffb3" stroke="transparent" points="257,-10 257,-30 277,-30 277,-10 257,-10"/>
<text text-anchor="start" x="280.63" y="-15.4" font-family="Times-12" font-size="14.00"> &#160;Declarations</text>
<polygon fill="#8dd3c7" stroke="transparent" points="370,-10 370,-30 390,-30 390,-10 370,-10"/>
<text text-anchor="start" x="393.73" y="-15.4" font-family="Times-12" font-size="14.00"> &#160;Module</text>
<polygon fill="#80b1d3" stroke="transparent" points="456,-10 456,-30 476,-30 476,-10 456,-10"/>
<text text-anchor="start" x="479.78" y="-15.4" font-family="Times-12" font-size="14.00"> &#160;Bootstrap</text>
<polygon fill="#fdb462" stroke="transparent" points="553,-10 553,-30 573,-30 573,-10 553,-10"/>
<text text-anchor="start" x="576.67" y="-15.4" font-family="Times-12" font-size="14.00"> &#160;Providers</text>
<polygon fill="#fb8072" stroke="transparent" points="649,-10 649,-30 669,-30 669,-10 649,-10"/>
<text text-anchor="start" x="672.73" y="-15.4" font-family="Times-12" font-size="14.00"> &#160;Exports</text>
<g id="clust1" class="cluster">
<title>cluster_DashboardV2Module</title>
<polygon fill="none" stroke="black" stroke-dasharray="1,5" points="8,-70 8,-195 974,-195 974,-70 8,-70"/>
</g>
<g id="clust6" class="cluster">
<title>cluster_DashboardV2Module_providers</title>
<polygon fill="none" stroke="black" points="16,-78 16,-130 966,-130 966,-78 16,-78"/>
</g>
<!-- DashboardCombinedService -->
<g id="node1" class="node">
<title>DashboardCombinedService</title>
<ellipse fill="#fdb462" stroke="black" cx="836" cy="-104" rx="122.12" ry="18"/>
<text text-anchor="middle" x="836" y="-99.8" font-family="Times,serif" font-size="14.00">DashboardCombinedService</text>
</g>
<!-- DashboardV2Module -->
<g id="node5" class="node">
<title>DashboardV2Module</title>
<polygon fill="#8dd3c7" stroke="black" points="527.8,-187 524.8,-191 503.8,-191 500.8,-187 390.2,-187 390.2,-151 527.8,-151 527.8,-187"/>
<text text-anchor="middle" x="459" y="-164.8" font-family="Times,serif" font-size="14.00">DashboardV2Module</text>
</g>
<!-- DashboardCombinedService&#45;&gt;DashboardV2Module -->
<g id="edge1" class="edge">
<title>DashboardCombinedService&#45;&gt;DashboardV2Module</title>
<path fill="none" stroke="black" d="M836,-122.11C836,-141.34 836,-169 836,-169 836,-169 537.71,-169 537.71,-169"/>
<polygon fill="black" stroke="black" points="537.71,-165.5 527.71,-169 537.71,-172.5 537.71,-165.5"/>
</g>
<!-- DashboardSeparatedService -->
<g id="node2" class="node">
<title>DashboardSeparatedService</title>
<ellipse fill="#fdb462" stroke="black" cx="576" cy="-104" rx="119.78" ry="18"/>
<text text-anchor="middle" x="576" y="-99.8" font-family="Times,serif" font-size="14.00">DashboardSeparatedService</text>
</g>
<!-- DashboardSeparatedService&#45;&gt;DashboardV2Module -->
<g id="edge2" class="edge">
<title>DashboardSeparatedService&#45;&gt;DashboardV2Module</title>
<path fill="none" stroke="black" d="M491.88,-116.84C491.88,-116.84 491.88,-140.52 491.88,-140.52"/>
<polygon fill="black" stroke="black" points="488.38,-140.52 491.88,-150.52 495.38,-140.52 488.38,-140.52"/>
</g>
<!-- GameStatsRepository -->
<g id="node3" class="node">
<title>GameStatsRepository</title>
<ellipse fill="#fdb462" stroke="black" cx="343" cy="-104" rx="95.5" ry="18"/>
<text text-anchor="middle" x="343" y="-99.8" font-family="Times,serif" font-size="14.00">GameStatsRepository</text>
</g>
<!-- GameStatsRepository&#45;&gt;DashboardV2Module -->
<g id="edge3" class="edge">
<title>GameStatsRepository&#45;&gt;DashboardV2Module</title>
<path fill="none" stroke="black" d="M414.3,-116.23C414.3,-116.23 414.3,-140.68 414.3,-140.68"/>
<polygon fill="black" stroke="black" points="410.8,-140.68 414.3,-150.68 417.8,-140.68 410.8,-140.68"/>
</g>
<!-- GeneralStatsRepository -->
<g id="node4" class="node">
<title>GeneralStatsRepository</title>
<ellipse fill="#fdb462" stroke="black" cx="127" cy="-104" rx="102.5" ry="18"/>
<text text-anchor="middle" x="127" y="-99.8" font-family="Times,serif" font-size="14.00">GeneralStatsRepository</text>
</g>
<!-- GeneralStatsRepository&#45;&gt;DashboardV2Module -->
<g id="edge4" class="edge">
<title>GeneralStatsRepository&#45;&gt;DashboardV2Module</title>
<path fill="none" stroke="black" d="M127,-122.11C127,-141.34 127,-169 127,-169 127,-169 380.21,-169 380.21,-169"/>
<polygon fill="black" stroke="black" points="380.21,-172.5 390.21,-169 380.21,-165.5 380.21,-172.5"/>
</g>
</g>
</svg>
