<?xml version="1.0" encoding="UTF-8" standalone="no"?>
<!DOCTYPE svg PUBLIC "-//W3C//DTD SVG 1.1//EN"
 "http://www.w3.org/Graphics/SVG/1.1/DTD/svg11.dtd">
<!-- Generated by graphviz version 2.47.0 (20210316.0004)
 -->
<!-- Title: dependencies Pages: 1 -->
<svg width="1039pt" height="284pt"
 viewBox="0.00 0.00 1039.00 284.00" xmlns="http://www.w3.org/2000/svg" xmlns:xlink="http://www.w3.org/1999/xlink">
<g id="graph0" class="graph" transform="scale(1 1) rotate(0) translate(4 280)">
<title>dependencies</title>
<polygon fill="white" stroke="transparent" points="-4,4 -4,-280 1035,-280 1035,4 -4,4"/>
<text text-anchor="start" x="494.51" y="-42.4" font-family="Times-12" font-weight="bold" font-size="14.00">Legend</text>
<polygon fill="#ffffb3" stroke="transparent" points="281.5,-10 281.5,-30 301.5,-30 301.5,-10 281.5,-10"/>
<text text-anchor="start" x="305.13" y="-15.4" font-family="Times-12" font-size="14.00"> &#160;Declarations</text>
<polygon fill="#8dd3c7" stroke="transparent" points="394.5,-10 394.5,-30 414.5,-30 414.5,-10 394.5,-10"/>
<text text-anchor="start" x="418.23" y="-15.4" font-family="Times-12" font-size="14.00"> &#160;Module</text>
<polygon fill="#80b1d3" stroke="transparent" points="480.5,-10 480.5,-30 500.5,-30 500.5,-10 480.5,-10"/>
<text text-anchor="start" x="504.28" y="-15.4" font-family="Times-12" font-size="14.00"> &#160;Bootstrap</text>
<polygon fill="#fdb462" stroke="transparent" points="577.5,-10 577.5,-30 597.5,-30 597.5,-10 577.5,-10"/>
<text text-anchor="start" x="601.17" y="-15.4" font-family="Times-12" font-size="14.00"> &#160;Providers</text>
<polygon fill="#fb8072" stroke="transparent" points="673.5,-10 673.5,-30 693.5,-30 693.5,-10 673.5,-10"/>
<text text-anchor="start" x="697.23" y="-15.4" font-family="Times-12" font-size="14.00"> &#160;Exports</text>
<g id="clust1" class="cluster">
<title>cluster_NowpaymentsModule</title>
<polygon fill="none" stroke="black" stroke-dasharray="1,5" points="8,-70 8,-268 1023,-268 1023,-70 8,-70"/>
</g>
<g id="clust4" class="cluster">
<title>cluster_NowpaymentsModule_exports</title>
<polygon fill="none" stroke="black" points="428,-208 428,-260 801,-260 801,-208 428,-208"/>
</g>
<g id="clust3" class="cluster">
<title>cluster_NowpaymentsModule_imports</title>
<polygon fill="none" stroke="black" points="754,-78 754,-130 1015,-130 1015,-78 754,-78"/>
</g>
<g id="clust6" class="cluster">
<title>cluster_NowpaymentsModule_providers</title>
<polygon fill="none" stroke="black" points="16,-78 16,-130 746,-130 746,-78 16,-78"/>
</g>
<!-- HttpAgentModule -->
<g id="node1" class="node">
<title>HttpAgentModule</title>
<polygon fill="#8dd3c7" stroke="black" points="1007.15,-122 1004.15,-126 983.15,-126 980.15,-122 888.85,-122 888.85,-86 1007.15,-86 1007.15,-122"/>
<text text-anchor="middle" x="948" y="-99.8" font-family="Times,serif" font-size="14.00">HttpAgentModule</text>
</g>
<!-- NowpaymentsModule -->
<g id="node3" class="node">
<title>NowpaymentsModule</title>
<polygon fill="#8dd3c7" stroke="black" points="698.42,-187 695.42,-191 674.42,-191 671.42,-187 557.58,-187 557.58,-151 698.42,-151 698.42,-187"/>
<text text-anchor="middle" x="628" y="-164.8" font-family="Times,serif" font-size="14.00">NowpaymentsModule</text>
</g>
<!-- HttpAgentModule&#45;&gt;NowpaymentsModule -->
<g id="edge1" class="edge">
<title>HttpAgentModule&#45;&gt;NowpaymentsModule</title>
<path fill="none" stroke="black" d="M948,-122.28C948,-143.32 948,-175 948,-175 948,-175 708.23,-175 708.23,-175"/>
<polygon fill="black" stroke="black" points="708.23,-171.5 698.23,-175 708.23,-178.5 708.23,-171.5"/>
</g>
<!-- NetworkModule -->
<g id="node2" class="node">
<title>NetworkModule</title>
<polygon fill="#8dd3c7" stroke="black" points="870.03,-122 867.03,-126 846.03,-126 843.03,-122 761.97,-122 761.97,-86 870.03,-86 870.03,-122"/>
<text text-anchor="middle" x="816" y="-99.8" font-family="Times,serif" font-size="14.00">NetworkModule</text>
</g>
<!-- NetworkModule&#45;&gt;NowpaymentsModule -->
<g id="edge2" class="edge">
<title>NetworkModule&#45;&gt;NowpaymentsModule</title>
<path fill="none" stroke="black" d="M777.45,-122.02C777.45,-139.37 777.45,-163 777.45,-163 777.45,-163 708.35,-163 708.35,-163"/>
<polygon fill="black" stroke="black" points="708.35,-159.5 698.35,-163 708.35,-166.5 708.35,-159.5"/>
</g>
<!-- NowpaymentsService  -->
<g id="node4" class="node">
<title>NowpaymentsService </title>
<polygon fill="#fb8072" stroke="black" points="793.35,-252 650.65,-252 650.65,-216 793.35,-216 793.35,-252"/>
<text text-anchor="middle" x="722" y="-229.8" font-family="Times,serif" font-size="14.00">NowpaymentsService </text>
</g>
<!-- NowpaymentsModule&#45;&gt;NowpaymentsService  -->
<g id="edge3" class="edge">
<title>NowpaymentsModule&#45;&gt;NowpaymentsService </title>
<path fill="none" stroke="black" stroke-dasharray="5,2" d="M674.52,-187.11C674.52,-187.11 674.52,-205.99 674.52,-205.99"/>
<polygon fill="black" stroke="black" points="671.02,-205.99 674.52,-215.99 678.02,-205.99 671.02,-205.99"/>
</g>
<!-- NowpaymentsWebhookService  -->
<g id="node5" class="node">
<title>NowpaymentsWebhookService </title>
<polygon fill="#fb8072" stroke="black" points="632.28,-252 435.72,-252 435.72,-216 632.28,-216 632.28,-252"/>
<text text-anchor="middle" x="534" y="-229.8" font-family="Times,serif" font-size="14.00">NowpaymentsWebhookService </text>
</g>
<!-- NowpaymentsModule&#45;&gt;NowpaymentsWebhookService  -->
<g id="edge4" class="edge">
<title>NowpaymentsModule&#45;&gt;NowpaymentsWebhookService </title>
<path fill="none" stroke="black" stroke-dasharray="5,2" d="M595.09,-187.11C595.09,-187.11 595.09,-205.99 595.09,-205.99"/>
<polygon fill="black" stroke="black" points="591.59,-205.99 595.09,-215.99 598.59,-205.99 591.59,-205.99"/>
</g>
<!-- NowpaymentsApiService -->
<g id="node6" class="node">
<title>NowpaymentsApiService</title>
<ellipse fill="#fdb462" stroke="black" cx="628" cy="-104" rx="110.01" ry="18"/>
<text text-anchor="middle" x="628" y="-99.8" font-family="Times,serif" font-size="14.00">NowpaymentsApiService</text>
</g>
<!-- NowpaymentsApiService&#45;&gt;NowpaymentsModule -->
<g id="edge5" class="edge">
<title>NowpaymentsApiService&#45;&gt;NowpaymentsModule</title>
<path fill="none" stroke="black" d="M628,-122.11C628,-122.11 628,-140.99 628,-140.99"/>
<polygon fill="black" stroke="black" points="624.5,-140.99 628,-150.99 631.5,-140.99 624.5,-140.99"/>
</g>
<!-- NowpaymentsService -->
<g id="node7" class="node">
<title>NowpaymentsService</title>
<ellipse fill="#fdb462" stroke="black" cx="404" cy="-104" rx="95.55" ry="18"/>
<text text-anchor="middle" x="404" y="-99.8" font-family="Times,serif" font-size="14.00">NowpaymentsService</text>
</g>
<!-- NowpaymentsService&#45;&gt;NowpaymentsModule -->
<g id="edge6" class="edge">
<title>NowpaymentsService&#45;&gt;NowpaymentsModule</title>
<path fill="none" stroke="black" d="M467.69,-117.68C467.69,-135.11 467.69,-163 467.69,-163 467.69,-163 547.69,-163 547.69,-163"/>
<polygon fill="black" stroke="black" points="547.69,-166.5 557.69,-163 547.69,-159.5 547.69,-166.5"/>
</g>
<!-- NowpaymentsWebhookService -->
<g id="node8" class="node">
<title>NowpaymentsWebhookService</title>
<ellipse fill="#fdb462" stroke="black" cx="157" cy="-104" rx="133.14" ry="18"/>
<text text-anchor="middle" x="157" y="-99.8" font-family="Times,serif" font-size="14.00">NowpaymentsWebhookService</text>
</g>
<!-- NowpaymentsWebhookService&#45;&gt;NowpaymentsModule -->
<g id="edge7" class="edge">
<title>NowpaymentsWebhookService&#45;&gt;NowpaymentsModule</title>
<path fill="none" stroke="black" d="M157,-122.28C157,-143.32 157,-175 157,-175 157,-175 547.74,-175 547.74,-175"/>
<polygon fill="black" stroke="black" points="547.74,-178.5 557.74,-175 547.74,-171.5 547.74,-178.5"/>
</g>
</g>
</svg>
