<?xml version="1.0" encoding="UTF-8" standalone="no"?>
<!DOCTYPE svg PUBLIC "-//W3C//DTD SVG 1.1//EN"
 "http://www.w3.org/Graphics/SVG/1.1/DTD/svg11.dtd">
<!-- Generated by graphviz version 2.47.0 (20210316.0004)
 -->
<!-- Title: dependencies Pages: 1 -->
<svg width="1114pt" height="284pt"
 viewBox="0.00 0.00 1114.00 284.00" xmlns="http://www.w3.org/2000/svg" xmlns:xlink="http://www.w3.org/1999/xlink">
<g id="graph0" class="graph" transform="scale(1 1) rotate(0) translate(4 280)">
<title>dependencies</title>
<polygon fill="white" stroke="transparent" points="-4,4 -4,-280 1110,-280 1110,4 -4,4"/>
<text text-anchor="start" x="532.01" y="-42.4" font-family="Times-12" font-weight="bold" font-size="14.00">Legend</text>
<polygon fill="#ffffb3" stroke="transparent" points="319,-10 319,-30 339,-30 339,-10 319,-10"/>
<text text-anchor="start" x="342.63" y="-15.4" font-family="Times-12" font-size="14.00"> &#160;Declarations</text>
<polygon fill="#8dd3c7" stroke="transparent" points="432,-10 432,-30 452,-30 452,-10 432,-10"/>
<text text-anchor="start" x="455.73" y="-15.4" font-family="Times-12" font-size="14.00"> &#160;Module</text>
<polygon fill="#80b1d3" stroke="transparent" points="518,-10 518,-30 538,-30 538,-10 518,-10"/>
<text text-anchor="start" x="541.78" y="-15.4" font-family="Times-12" font-size="14.00"> &#160;Bootstrap</text>
<polygon fill="#fdb462" stroke="transparent" points="615,-10 615,-30 635,-30 635,-10 615,-10"/>
<text text-anchor="start" x="638.67" y="-15.4" font-family="Times-12" font-size="14.00"> &#160;Providers</text>
<polygon fill="#fb8072" stroke="transparent" points="711,-10 711,-30 731,-30 731,-10 711,-10"/>
<text text-anchor="start" x="734.73" y="-15.4" font-family="Times-12" font-size="14.00"> &#160;Exports</text>
<g id="clust1" class="cluster">
<title>cluster_TipsModule</title>
<polygon fill="none" stroke="black" stroke-dasharray="1,5" points="8,-70 8,-268 1098,-268 1098,-70 8,-70"/>
</g>
<g id="clust6" class="cluster">
<title>cluster_TipsModule_providers</title>
<polygon fill="none" stroke="black" points="800,-78 800,-130 1090,-130 1090,-78 800,-78"/>
</g>
<g id="clust4" class="cluster">
<title>cluster_TipsModule_exports</title>
<polygon fill="none" stroke="black" points="485,-208 485,-260 587,-260 587,-208 485,-208"/>
</g>
<g id="clust3" class="cluster">
<title>cluster_TipsModule_imports</title>
<polygon fill="none" stroke="black" points="16,-78 16,-130 792,-130 792,-78 16,-78"/>
</g>
<!-- AccountingModule -->
<g id="node1" class="node">
<title>AccountingModule</title>
<polygon fill="#8dd3c7" stroke="black" points="784.37,-122 781.37,-126 760.37,-126 757.37,-122 659.63,-122 659.63,-86 784.37,-86 784.37,-122"/>
<text text-anchor="middle" x="722" y="-99.8" font-family="Times,serif" font-size="14.00">AccountingModule</text>
</g>
<!-- TipsModule -->
<g id="node7" class="node">
<title>TipsModule</title>
<polygon fill="#8dd3c7" stroke="black" points="578.44,-187 575.44,-191 554.44,-191 551.44,-187 493.56,-187 493.56,-151 578.44,-151 578.44,-187"/>
<text text-anchor="middle" x="536" y="-164.8" font-family="Times,serif" font-size="14.00">TipsModule</text>
</g>
<!-- AccountingModule&#45;&gt;TipsModule -->
<g id="edge1" class="edge">
<title>AccountingModule&#45;&gt;TipsModule</title>
<path fill="none" stroke="black" d="M722,-122.03C722,-138.4 722,-160 722,-160 722,-160 588.67,-160 588.67,-160"/>
<polygon fill="black" stroke="black" points="588.67,-156.5 578.67,-160 588.67,-163.5 588.67,-156.5"/>
</g>
<!-- ChatModule -->
<g id="node2" class="node">
<title>ChatModule</title>
<polygon fill="#8dd3c7" stroke="black" points="641.99,-122 638.99,-126 617.99,-126 614.99,-122 556.01,-122 556.01,-86 641.99,-86 641.99,-122"/>
<text text-anchor="middle" x="599" y="-99.8" font-family="Times,serif" font-size="14.00">ChatModule</text>
</g>
<!-- ChatModule&#45;&gt;TipsModule -->
<g id="edge2" class="edge">
<title>ChatModule&#45;&gt;TipsModule</title>
<path fill="none" stroke="black" d="M567.11,-122.11C567.11,-122.11 567.11,-140.99 567.11,-140.99"/>
<polygon fill="black" stroke="black" points="563.61,-140.99 567.11,-150.99 570.61,-140.99 563.61,-140.99"/>
</g>
<!-- GatewayApiModule -->
<g id="node3" class="node">
<title>GatewayApiModule</title>
<polygon fill="#8dd3c7" stroke="black" points="538.29,-122 535.29,-126 514.29,-126 511.29,-122 407.71,-122 407.71,-86 538.29,-86 538.29,-122"/>
<text text-anchor="middle" x="473" y="-99.8" font-family="Times,serif" font-size="14.00">GatewayApiModule</text>
</g>
<!-- GatewayApiModule&#45;&gt;TipsModule -->
<g id="edge3" class="edge">
<title>GatewayApiModule&#45;&gt;TipsModule</title>
<path fill="none" stroke="black" d="M515.96,-122.11C515.96,-122.11 515.96,-140.99 515.96,-140.99"/>
<polygon fill="black" stroke="black" points="512.46,-140.99 515.96,-150.99 519.46,-140.99 512.46,-140.99"/>
</g>
<!-- NotificationModule -->
<g id="node4" class="node">
<title>NotificationModule</title>
<polygon fill="#8dd3c7" stroke="black" points="389.7,-122 386.7,-126 365.7,-126 362.7,-122 262.3,-122 262.3,-86 389.7,-86 389.7,-122"/>
<text text-anchor="middle" x="326" y="-99.8" font-family="Times,serif" font-size="14.00">NotificationModule</text>
</g>
<!-- NotificationModule&#45;&gt;TipsModule -->
<g id="edge4" class="edge">
<title>NotificationModule&#45;&gt;TipsModule</title>
<path fill="none" stroke="black" d="M326,-122.03C326,-138.4 326,-160 326,-160 326,-160 483.76,-160 483.76,-160"/>
<polygon fill="black" stroke="black" points="483.76,-163.5 493.76,-160 483.76,-156.5 483.76,-163.5"/>
</g>
<!-- UserModule -->
<g id="node5" class="node">
<title>UserModule</title>
<polygon fill="#8dd3c7" stroke="black" points="243.98,-122 240.98,-126 219.98,-126 216.98,-122 158.02,-122 158.02,-86 243.98,-86 243.98,-122"/>
<text text-anchor="middle" x="201" y="-99.8" font-family="Times,serif" font-size="14.00">UserModule</text>
</g>
<!-- UserModule&#45;&gt;TipsModule -->
<g id="edge5" class="edge">
<title>UserModule&#45;&gt;TipsModule</title>
<path fill="none" stroke="black" d="M201,-122.11C201,-141.34 201,-169 201,-169 201,-169 483.57,-169 483.57,-169"/>
<polygon fill="black" stroke="black" points="483.57,-172.5 493.57,-169 483.57,-165.5 483.57,-172.5"/>
</g>
<!-- WithdrawModule -->
<g id="node6" class="node">
<title>WithdrawModule</title>
<polygon fill="#8dd3c7" stroke="black" points="139.53,-122 136.53,-126 115.53,-126 112.53,-122 24.47,-122 24.47,-86 139.53,-86 139.53,-122"/>
<text text-anchor="middle" x="82" y="-99.8" font-family="Times,serif" font-size="14.00">WithdrawModule</text>
</g>
<!-- WithdrawModule&#45;&gt;TipsModule -->
<g id="edge6" class="edge">
<title>WithdrawModule&#45;&gt;TipsModule</title>
<path fill="none" stroke="black" d="M82,-122.29C82,-144.21 82,-178 82,-178 82,-178 483.7,-178 483.7,-178"/>
<polygon fill="black" stroke="black" points="483.7,-181.5 493.7,-178 483.7,-174.5 483.7,-181.5"/>
</g>
<!-- TipsService  -->
<g id="node8" class="node">
<title>TipsService </title>
<polygon fill="#fb8072" stroke="black" points="579.37,-252 492.63,-252 492.63,-216 579.37,-216 579.37,-252"/>
<text text-anchor="middle" x="536" y="-229.8" font-family="Times,serif" font-size="14.00">TipsService </text>
</g>
<!-- TipsModule&#45;&gt;TipsService  -->
<g id="edge7" class="edge">
<title>TipsModule&#45;&gt;TipsService </title>
<path fill="none" stroke="black" stroke-dasharray="5,2" d="M536,-187.11C536,-187.11 536,-205.99 536,-205.99"/>
<polygon fill="black" stroke="black" points="532.5,-205.99 536,-215.99 539.5,-205.99 532.5,-205.99"/>
</g>
<!-- TipsRepository -->
<g id="node9" class="node">
<title>TipsRepository</title>
<ellipse fill="#fdb462" stroke="black" cx="1011" cy="-104" rx="70.66" ry="18"/>
<text text-anchor="middle" x="1011" y="-99.8" font-family="Times,serif" font-size="14.00">TipsRepository</text>
</g>
<!-- TipsRepository&#45;&gt;TipsModule -->
<g id="edge8" class="edge">
<title>TipsRepository&#45;&gt;TipsModule</title>
<path fill="none" stroke="black" d="M1011,-122.29C1011,-144.21 1011,-178 1011,-178 1011,-178 588.57,-178 588.57,-178"/>
<polygon fill="black" stroke="black" points="588.57,-174.5 578.57,-178 588.57,-181.5 588.57,-174.5"/>
</g>
<!-- TipsService -->
<g id="node10" class="node">
<title>TipsService</title>
<ellipse fill="#fdb462" stroke="black" cx="865" cy="-104" rx="57.32" ry="18"/>
<text text-anchor="middle" x="865" y="-99.8" font-family="Times,serif" font-size="14.00">TipsService</text>
</g>
<!-- TipsService&#45;&gt;TipsModule -->
<g id="edge9" class="edge">
<title>TipsService&#45;&gt;TipsModule</title>
<path fill="none" stroke="black" d="M865,-122.11C865,-141.34 865,-169 865,-169 865,-169 588.34,-169 588.34,-169"/>
<polygon fill="black" stroke="black" points="588.34,-165.5 578.34,-169 588.34,-172.5 588.34,-165.5"/>
</g>
</g>
</svg>
