<?xml version="1.0" encoding="UTF-8" standalone="no"?>
<!DOCTYPE svg PUBLIC "-//W3C//DTD SVG 1.1//EN"
 "http://www.w3.org/Graphics/SVG/1.1/DTD/svg11.dtd">
<!-- Generated by graphviz version 2.47.0 (20210316.0004)
 -->
<!-- Title: dependencies Pages: 1 -->
<svg width="2219pt" height="284pt"
 viewBox="0.00 0.00 2219.00 284.00" xmlns="http://www.w3.org/2000/svg" xmlns:xlink="http://www.w3.org/1999/xlink">
<g id="graph0" class="graph" transform="scale(1 1) rotate(0) translate(4 280)">
<title>dependencies</title>
<polygon fill="white" stroke="transparent" points="-4,4 -4,-280 2215,-280 2215,4 -4,4"/>
<text text-anchor="start" x="1084.51" y="-42.4" font-family="Times-12" font-weight="bold" font-size="14.00">Legend</text>
<polygon fill="#ffffb3" stroke="transparent" points="871.5,-10 871.5,-30 891.5,-30 891.5,-10 871.5,-10"/>
<text text-anchor="start" x="895.13" y="-15.4" font-family="Times-12" font-size="14.00"> &#160;Declarations</text>
<polygon fill="#8dd3c7" stroke="transparent" points="984.5,-10 984.5,-30 1004.5,-30 1004.5,-10 984.5,-10"/>
<text text-anchor="start" x="1008.23" y="-15.4" font-family="Times-12" font-size="14.00"> &#160;Module</text>
<polygon fill="#80b1d3" stroke="transparent" points="1070.5,-10 1070.5,-30 1090.5,-30 1090.5,-10 1070.5,-10"/>
<text text-anchor="start" x="1094.28" y="-15.4" font-family="Times-12" font-size="14.00"> &#160;Bootstrap</text>
<polygon fill="#fdb462" stroke="transparent" points="1167.5,-10 1167.5,-30 1187.5,-30 1187.5,-10 1167.5,-10"/>
<text text-anchor="start" x="1191.17" y="-15.4" font-family="Times-12" font-size="14.00"> &#160;Providers</text>
<polygon fill="#fb8072" stroke="transparent" points="1263.5,-10 1263.5,-30 1283.5,-30 1283.5,-10 1263.5,-10"/>
<text text-anchor="start" x="1287.23" y="-15.4" font-family="Times-12" font-size="14.00"> &#160;Exports</text>
<g id="clust1" class="cluster">
<title>cluster_TestAccountingModule</title>
<polygon fill="none" stroke="black" stroke-dasharray="1,5" points="8,-70 8,-268 2203,-268 2203,-70 8,-70"/>
</g>
<g id="clust3" class="cluster">
<title>cluster_TestAccountingModule_imports</title>
<polygon fill="none" stroke="black" points="1907,-78 1907,-130 2195,-130 2195,-78 1907,-78"/>
</g>
<g id="clust4" class="cluster">
<title>cluster_TestAccountingModule_exports</title>
<polygon fill="none" stroke="black" points="918,-208 918,-260 1342,-260 1342,-208 918,-208"/>
</g>
<g id="clust6" class="cluster">
<title>cluster_TestAccountingModule_providers</title>
<polygon fill="none" stroke="black" points="16,-78 16,-130 1899,-130 1899,-78 16,-78"/>
</g>
<!-- TestExchangeRatesModule -->
<g id="node1" class="node">
<title>TestExchangeRatesModule</title>
<polygon fill="#8dd3c7" stroke="black" points="2186.95,-122 2183.95,-126 2162.95,-126 2159.95,-122 2017.05,-122 2017.05,-86 2186.95,-86 2186.95,-122"/>
<text text-anchor="middle" x="2102" y="-99.8" font-family="Times,serif" font-size="14.00">TestExchangeRatesModule</text>
</g>
<!-- TestAccountingModule -->
<g id="node3" class="node">
<title>TestAccountingModule</title>
<polygon fill="#8dd3c7" stroke="black" points="1207.47,-187 1204.47,-191 1183.47,-191 1180.47,-187 1058.53,-187 1058.53,-151 1207.47,-151 1207.47,-187"/>
<text text-anchor="middle" x="1133" y="-164.8" font-family="Times,serif" font-size="14.00">TestAccountingModule</text>
</g>
<!-- TestExchangeRatesModule&#45;&gt;TestAccountingModule -->
<g id="edge1" class="edge">
<title>TestExchangeRatesModule&#45;&gt;TestAccountingModule</title>
<path fill="none" stroke="black" d="M2102,-122.25C2102,-145.02 2102,-181 2102,-181 2102,-181 1217.83,-181 1217.83,-181"/>
<polygon fill="black" stroke="black" points="1217.83,-177.5 1207.83,-181 1217.83,-184.5 1217.83,-177.5"/>
</g>
<!-- TestModule -->
<g id="node2" class="node">
<title>TestModule</title>
<polygon fill="#8dd3c7" stroke="black" points="1998.65,-122 1995.65,-126 1974.65,-126 1971.65,-122 1915.35,-122 1915.35,-86 1998.65,-86 1998.65,-122"/>
<text text-anchor="middle" x="1957" y="-99.8" font-family="Times,serif" font-size="14.00">TestModule</text>
</g>
<!-- TestModule&#45;&gt;TestAccountingModule -->
<g id="edge2" class="edge">
<title>TestModule&#45;&gt;TestAccountingModule</title>
<path fill="none" stroke="black" d="M1957,-122.28C1957,-143.32 1957,-175 1957,-175 1957,-175 1217.58,-175 1217.58,-175"/>
<polygon fill="black" stroke="black" points="1217.58,-171.5 1207.58,-175 1217.58,-178.5 1217.58,-171.5"/>
</g>
<!-- AccountingService  -->
<g id="node4" class="node">
<title>AccountingService </title>
<polygon fill="#fb8072" stroke="black" points="1334.29,-252 1207.71,-252 1207.71,-216 1334.29,-216 1334.29,-252"/>
<text text-anchor="middle" x="1271" y="-229.8" font-family="Times,serif" font-size="14.00">AccountingService </text>
</g>
<!-- TestAccountingModule&#45;&gt;AccountingService  -->
<g id="edge3" class="edge">
<title>TestAccountingModule&#45;&gt;AccountingService </title>
<path fill="none" stroke="black" stroke-dasharray="5,2" d="M1198.63,-187.11C1198.63,-206.34 1198.63,-234 1198.63,-234 1198.63,-234 1199.52,-234 1199.52,-234"/>
<polygon fill="black" stroke="black" points="1197.51,-237.5 1207.51,-234 1197.51,-230.5 1197.51,-237.5"/>
</g>
<!-- CurrencyService  -->
<g id="node5" class="node">
<title>CurrencyService </title>
<polygon fill="#fb8072" stroke="black" points="1189.57,-252 1076.43,-252 1076.43,-216 1189.57,-216 1189.57,-252"/>
<text text-anchor="middle" x="1133" y="-229.8" font-family="Times,serif" font-size="14.00">CurrencyService </text>
</g>
<!-- TestAccountingModule&#45;&gt;CurrencyService  -->
<g id="edge4" class="edge">
<title>TestAccountingModule&#45;&gt;CurrencyService </title>
<path fill="none" stroke="black" stroke-dasharray="5,2" d="M1133,-187.11C1133,-187.11 1133,-205.99 1133,-205.99"/>
<polygon fill="black" stroke="black" points="1129.5,-205.99 1133,-215.99 1136.5,-205.99 1129.5,-205.99"/>
</g>
<!-- UserBalanceService  -->
<g id="node6" class="node">
<title>UserBalanceService </title>
<polygon fill="#fb8072" stroke="black" points="1058.49,-252 925.51,-252 925.51,-216 1058.49,-216 1058.49,-252"/>
<text text-anchor="middle" x="992" y="-229.8" font-family="Times,serif" font-size="14.00">UserBalanceService </text>
</g>
<!-- TestAccountingModule&#45;&gt;UserBalanceService  -->
<g id="edge5" class="edge">
<title>TestAccountingModule&#45;&gt;UserBalanceService </title>
<path fill="none" stroke="black" stroke-dasharray="5,2" d="M1067.37,-187.11C1067.37,-206.34 1067.37,-234 1067.37,-234 1067.37,-234 1066.5,-234 1066.5,-234"/>
<polygon fill="black" stroke="black" points="1068.72,-230.5 1058.72,-234 1068.72,-237.5 1068.72,-230.5"/>
</g>
<!-- AccountingRepository -->
<g id="node7" class="node">
<title>AccountingRepository</title>
<ellipse fill="#fdb462" stroke="black" cx="1793" cy="-104" rx="98.44" ry="18"/>
<text text-anchor="middle" x="1793" y="-99.8" font-family="Times,serif" font-size="14.00">AccountingRepository</text>
</g>
<!-- AccountingRepository&#45;&gt;TestAccountingModule -->
<g id="edge6" class="edge">
<title>AccountingRepository&#45;&gt;TestAccountingModule</title>
<path fill="none" stroke="black" d="M1793,-122.11C1793,-141.34 1793,-169 1793,-169 1793,-169 1217.75,-169 1217.75,-169"/>
<polygon fill="black" stroke="black" points="1217.75,-165.5 1207.75,-169 1217.75,-172.5 1217.75,-165.5"/>
</g>
<!-- AccountingService -->
<g id="node8" class="node">
<title>AccountingService</title>
<ellipse fill="#fdb462" stroke="black" cx="1591" cy="-104" rx="85.09" ry="18"/>
<text text-anchor="middle" x="1591" y="-99.8" font-family="Times,serif" font-size="14.00">AccountingService</text>
</g>
<!-- AccountingService&#45;&gt;TestAccountingModule -->
<g id="edge7" class="edge">
<title>AccountingService&#45;&gt;TestAccountingModule</title>
<path fill="none" stroke="black" d="M1591,-122.02C1591,-139.37 1591,-163 1591,-163 1591,-163 1217.6,-163 1217.6,-163"/>
<polygon fill="black" stroke="black" points="1217.6,-159.5 1207.6,-163 1217.6,-166.5 1217.6,-159.5"/>
</g>
<!-- CurrencyRepository -->
<g id="node9" class="node">
<title>CurrencyRepository</title>
<ellipse fill="#fdb462" stroke="black" cx="1399" cy="-104" rx="89.19" ry="18"/>
<text text-anchor="middle" x="1399" y="-99.8" font-family="Times,serif" font-size="14.00">CurrencyRepository</text>
</g>
<!-- CurrencyRepository&#45;&gt;TestAccountingModule -->
<g id="edge8" class="edge">
<title>CurrencyRepository&#45;&gt;TestAccountingModule</title>
<path fill="none" stroke="black" d="M1322.03,-113.23C1322.03,-128.42 1322.03,-157 1322.03,-157 1322.03,-157 1217.71,-157 1217.71,-157"/>
<polygon fill="black" stroke="black" points="1217.71,-153.5 1207.71,-157 1217.71,-160.5 1217.71,-153.5"/>
</g>
<!-- CurrencyService -->
<g id="node10" class="node">
<title>CurrencyService</title>
<ellipse fill="#fdb462" stroke="black" cx="1216" cy="-104" rx="75.84" ry="18"/>
<text text-anchor="middle" x="1216" y="-99.8" font-family="Times,serif" font-size="14.00">CurrencyService</text>
</g>
<!-- CurrencyService&#45;&gt;TestAccountingModule -->
<g id="edge9" class="edge">
<title>CurrencyService&#45;&gt;TestAccountingModule</title>
<path fill="none" stroke="black" d="M1173.78,-119.08C1173.78,-119.08 1173.78,-140.76 1173.78,-140.76"/>
<polygon fill="black" stroke="black" points="1170.28,-140.76 1173.78,-150.76 1177.28,-140.76 1170.28,-140.76"/>
</g>
<!-- DepositHandler -->
<g id="node11" class="node">
<title>DepositHandler</title>
<ellipse fill="#fdb462" stroke="black" cx="1050" cy="-104" rx="72.35" ry="18"/>
<text text-anchor="middle" x="1050" y="-99.8" font-family="Times,serif" font-size="14.00">DepositHandler</text>
</g>
<!-- DepositHandler&#45;&gt;TestAccountingModule -->
<g id="edge10" class="edge">
<title>DepositHandler&#45;&gt;TestAccountingModule</title>
<path fill="none" stroke="black" d="M1090.35,-119.08C1090.35,-119.08 1090.35,-140.76 1090.35,-140.76"/>
<polygon fill="black" stroke="black" points="1086.85,-140.76 1090.35,-150.76 1093.85,-140.76 1086.85,-140.76"/>
</g>
<!-- FromVaultHandler -->
<g id="node12" class="node">
<title>FromVaultHandler</title>
<ellipse fill="#fdb462" stroke="black" cx="875" cy="-104" rx="84.53" ry="18"/>
<text text-anchor="middle" x="875" y="-99.8" font-family="Times,serif" font-size="14.00">FromVaultHandler</text>
</g>
<!-- FromVaultHandler&#45;&gt;TestAccountingModule -->
<g id="edge11" class="edge">
<title>FromVaultHandler&#45;&gt;TestAccountingModule</title>
<path fill="none" stroke="black" d="M942.51,-114.98C942.51,-130.51 942.51,-157 942.51,-157 942.51,-157 1048.26,-157 1048.26,-157"/>
<polygon fill="black" stroke="black" points="1048.26,-160.5 1058.26,-157 1048.26,-153.5 1048.26,-160.5"/>
</g>
<!-- ToVaultHandler -->
<g id="node13" class="node">
<title>ToVaultHandler</title>
<ellipse fill="#fdb462" stroke="black" cx="698" cy="-104" rx="74.14" ry="18"/>
<text text-anchor="middle" x="698" y="-99.8" font-family="Times,serif" font-size="14.00">ToVaultHandler</text>
</g>
<!-- ToVaultHandler&#45;&gt;TestAccountingModule -->
<g id="edge12" class="edge">
<title>ToVaultHandler&#45;&gt;TestAccountingModule</title>
<path fill="none" stroke="black" d="M698,-122.02C698,-139.37 698,-163 698,-163 698,-163 1048.22,-163 1048.22,-163"/>
<polygon fill="black" stroke="black" points="1048.22,-166.5 1058.22,-163 1048.22,-159.5 1048.22,-166.5"/>
</g>
<!-- UserBalanceRepository -->
<g id="node14" class="node">
<title>UserBalanceRepository</title>
<ellipse fill="#fdb462" stroke="black" cx="503" cy="-104" rx="102.99" ry="18"/>
<text text-anchor="middle" x="503" y="-99.8" font-family="Times,serif" font-size="14.00">UserBalanceRepository</text>
</g>
<!-- UserBalanceRepository&#45;&gt;TestAccountingModule -->
<g id="edge13" class="edge">
<title>UserBalanceRepository&#45;&gt;TestAccountingModule</title>
<path fill="none" stroke="black" d="M503,-122.11C503,-141.34 503,-169 503,-169 503,-169 1048.26,-169 1048.26,-169"/>
<polygon fill="black" stroke="black" points="1048.26,-172.5 1058.26,-169 1048.26,-165.5 1048.26,-172.5"/>
</g>
<!-- UserBalanceService -->
<g id="node15" class="node">
<title>UserBalanceService</title>
<ellipse fill="#fdb462" stroke="black" cx="293" cy="-104" rx="89.14" ry="18"/>
<text text-anchor="middle" x="293" y="-99.8" font-family="Times,serif" font-size="14.00">UserBalanceService</text>
</g>
<!-- UserBalanceService&#45;&gt;TestAccountingModule -->
<g id="edge14" class="edge">
<title>UserBalanceService&#45;&gt;TestAccountingModule</title>
<path fill="none" stroke="black" d="M293,-122.28C293,-143.32 293,-175 293,-175 293,-175 1048.46,-175 1048.46,-175"/>
<polygon fill="black" stroke="black" points="1048.46,-178.5 1058.46,-175 1048.46,-171.5 1048.46,-178.5"/>
</g>
<!-- WithdrawHandler -->
<g id="node16" class="node">
<title>WithdrawHandler</title>
<ellipse fill="#fdb462" stroke="black" cx="105" cy="-104" rx="81" ry="18"/>
<text text-anchor="middle" x="105" y="-99.8" font-family="Times,serif" font-size="14.00">WithdrawHandler</text>
</g>
<!-- WithdrawHandler&#45;&gt;TestAccountingModule -->
<g id="edge15" class="edge">
<title>WithdrawHandler&#45;&gt;TestAccountingModule</title>
<path fill="none" stroke="black" d="M105,-122.25C105,-145.02 105,-181 105,-181 105,-181 1048.24,-181 1048.24,-181"/>
<polygon fill="black" stroke="black" points="1048.24,-184.5 1058.24,-181 1048.24,-177.5 1048.24,-184.5"/>
</g>
</g>
</svg>
