<?xml version="1.0" encoding="UTF-8" standalone="no"?>
<!DOCTYPE svg PUBLIC "-//W3C//DTD SVG 1.1//EN"
 "http://www.w3.org/Graphics/SVG/1.1/DTD/svg11.dtd">
<!-- Generated by graphviz version 2.47.0 (20210316.0004)
 -->
<!-- Title: dependencies Pages: 1 -->
<svg width="504pt" height="284pt"
 viewBox="0.00 0.00 504.00 284.00" xmlns="http://www.w3.org/2000/svg" xmlns:xlink="http://www.w3.org/1999/xlink">
<g id="graph0" class="graph" transform="scale(1 1) rotate(0) translate(4 280)">
<title>dependencies</title>
<polygon fill="white" stroke="transparent" points="-4,4 -4,-280 500,-280 500,4 -4,4"/>
<text text-anchor="start" x="227.01" y="-42.4" font-family="Times-12" font-weight="bold" font-size="14.00">Legend</text>
<polygon fill="#ffffb3" stroke="transparent" points="14,-10 14,-30 34,-30 34,-10 14,-10"/>
<text text-anchor="start" x="37.63" y="-15.4" font-family="Times-12" font-size="14.00"> &#160;Declarations</text>
<polygon fill="#8dd3c7" stroke="transparent" points="127,-10 127,-30 147,-30 147,-10 127,-10"/>
<text text-anchor="start" x="150.73" y="-15.4" font-family="Times-12" font-size="14.00"> &#160;Module</text>
<polygon fill="#80b1d3" stroke="transparent" points="213,-10 213,-30 233,-30 233,-10 213,-10"/>
<text text-anchor="start" x="236.78" y="-15.4" font-family="Times-12" font-size="14.00"> &#160;Bootstrap</text>
<polygon fill="#fdb462" stroke="transparent" points="310,-10 310,-30 330,-30 330,-10 310,-10"/>
<text text-anchor="start" x="333.67" y="-15.4" font-family="Times-12" font-size="14.00"> &#160;Providers</text>
<polygon fill="#fb8072" stroke="transparent" points="406,-10 406,-30 426,-30 426,-10 406,-10"/>
<text text-anchor="start" x="429.73" y="-15.4" font-family="Times-12" font-size="14.00"> &#160;Exports</text>
<g id="clust1" class="cluster">
<title>cluster_RecaptchaModule</title>
<polygon fill="none" stroke="black" stroke-dasharray="1,5" points="42,-70 42,-268 454,-268 454,-70 42,-70"/>
</g>
<g id="clust4" class="cluster">
<title>cluster_RecaptchaModule_exports</title>
<polygon fill="none" stroke="black" points="78,-208 78,-260 382,-260 382,-208 78,-208"/>
</g>
<g id="clust6" class="cluster">
<title>cluster_RecaptchaModule_providers</title>
<polygon fill="none" stroke="black" points="50,-78 50,-130 446,-130 446,-78 50,-78"/>
</g>
<!-- GeetestCaptchaService  -->
<g id="node1" class="node">
<title>GeetestCaptchaService </title>
<polygon fill="#fb8072" stroke="black" points="373.83,-252 224.17,-252 224.17,-216 373.83,-216 373.83,-252"/>
<text text-anchor="middle" x="299" y="-229.8" font-family="Times,serif" font-size="14.00">GeetestCaptchaService </text>
</g>
<!-- RecaptchaService  -->
<g id="node2" class="node">
<title>RecaptchaService </title>
<polygon fill="#fb8072" stroke="black" points="205.78,-252 86.22,-252 86.22,-216 205.78,-216 205.78,-252"/>
<text text-anchor="middle" x="146" y="-229.8" font-family="Times,serif" font-size="14.00">RecaptchaService </text>
</g>
<!-- RecaptchaModule -->
<g id="node3" class="node">
<title>RecaptchaModule</title>
<polygon fill="#8dd3c7" stroke="black" points="232.85,-187 229.85,-191 208.85,-191 205.85,-187 115.15,-187 115.15,-151 232.85,-151 232.85,-187"/>
<text text-anchor="middle" x="174" y="-164.8" font-family="Times,serif" font-size="14.00">RecaptchaModule</text>
</g>
<!-- RecaptchaModule&#45;&gt;GeetestCaptchaService  -->
<g id="edge1" class="edge">
<title>RecaptchaModule&#45;&gt;GeetestCaptchaService </title>
<path fill="none" stroke="black" stroke-dasharray="5,2" d="M228.63,-187.11C228.63,-187.11 228.63,-205.99 228.63,-205.99"/>
<polygon fill="black" stroke="black" points="225.13,-205.99 228.63,-215.99 232.13,-205.99 225.13,-205.99"/>
</g>
<!-- RecaptchaModule&#45;&gt;RecaptchaService  -->
<g id="edge2" class="edge">
<title>RecaptchaModule&#45;&gt;RecaptchaService </title>
<path fill="none" stroke="black" stroke-dasharray="5,2" d="M160.48,-187.11C160.48,-187.11 160.48,-205.99 160.48,-205.99"/>
<polygon fill="black" stroke="black" points="156.98,-205.99 160.48,-215.99 163.98,-205.99 156.98,-205.99"/>
</g>
<!-- GeetestCaptchaService -->
<g id="node4" class="node">
<title>GeetestCaptchaService</title>
<ellipse fill="#fdb462" stroke="black" cx="337" cy="-104" rx="100.67" ry="18"/>
<text text-anchor="middle" x="337" y="-99.8" font-family="Times,serif" font-size="14.00">GeetestCaptchaService</text>
</g>
<!-- GeetestCaptchaService&#45;&gt;RecaptchaModule -->
<g id="edge3" class="edge">
<title>GeetestCaptchaService&#45;&gt;RecaptchaModule</title>
<path fill="none" stroke="black" d="M236.25,-104C229.65,-104 225.57,-104 225.57,-104 225.57,-104 225.57,-140.89 225.57,-140.89"/>
<polygon fill="black" stroke="black" points="222.07,-140.89 225.57,-150.89 229.07,-140.89 222.07,-140.89"/>
</g>
<!-- RecaptchaService -->
<g id="node5" class="node">
<title>RecaptchaService</title>
<ellipse fill="#fdb462" stroke="black" cx="138" cy="-104" rx="80.41" ry="18"/>
<text text-anchor="middle" x="138" y="-99.8" font-family="Times,serif" font-size="14.00">RecaptchaService</text>
</g>
<!-- RecaptchaService&#45;&gt;RecaptchaModule -->
<g id="edge4" class="edge">
<title>RecaptchaService&#45;&gt;RecaptchaModule</title>
<path fill="none" stroke="black" d="M166.64,-121.08C166.64,-121.08 166.64,-140.9 166.64,-140.9"/>
<polygon fill="black" stroke="black" points="163.14,-140.9 166.64,-150.9 170.14,-140.9 163.14,-140.9"/>
</g>
</g>
</svg>
